G04 #@! TF.GenerationSoftware,KiCad,Pcbnew,(5.1.10)-1*
G04 #@! TF.CreationDate,2021-09-13T18:31:10+02:00*
G04 #@! TF.ProjectId,CardSizeMidiController,43617264-5369-47a6-954d-696469436f6e,rev?*
G04 #@! TF.SameCoordinates,Original*
G04 #@! TF.FileFunction,Copper,L2,Bot*
G04 #@! TF.FilePolarity,Positive*
%FSLAX46Y46*%
G04 Gerber Fmt 4.6, Leading zero omitted, Abs format (unit mm)*
G04 Created by KiCad (PCBNEW (5.1.10)-1) date 2021-09-13 18:31:10*
%MOMM*%
%LPD*%
G01*
G04 APERTURE LIST*
G04 #@! TA.AperFunction,SMDPad,CuDef*
%ADD10C,1.500000*%
G04 #@! TD*
G04 #@! TA.AperFunction,ComponentPad*
%ADD11O,1.500000X2.000000*%
G04 #@! TD*
G04 #@! TA.AperFunction,ComponentPad*
%ADD12C,3.500000*%
G04 #@! TD*
G04 #@! TA.AperFunction,ComponentPad*
%ADD13R,1.700000X1.700000*%
G04 #@! TD*
G04 #@! TA.AperFunction,ComponentPad*
%ADD14O,1.700000X1.700000*%
G04 #@! TD*
G04 #@! TA.AperFunction,ComponentPad*
%ADD15C,1.700000*%
G04 #@! TD*
G04 #@! TA.AperFunction,ComponentPad*
%ADD16C,0.800000*%
G04 #@! TD*
G04 #@! TA.AperFunction,ComponentPad*
%ADD17C,6.400000*%
G04 #@! TD*
G04 #@! TA.AperFunction,ComponentPad*
%ADD18C,2.499360*%
G04 #@! TD*
G04 #@! TA.AperFunction,ViaPad*
%ADD19C,0.800000*%
G04 #@! TD*
G04 #@! TA.AperFunction,Conductor*
%ADD20C,0.400000*%
G04 #@! TD*
G04 #@! TA.AperFunction,Conductor*
%ADD21C,0.250000*%
G04 #@! TD*
G04 #@! TA.AperFunction,Conductor*
%ADD22C,0.200000*%
G04 #@! TD*
G04 #@! TA.AperFunction,Conductor*
%ADD23C,0.100000*%
G04 #@! TD*
G04 APERTURE END LIST*
D10*
X2378000Y-30164000D03*
X2378000Y-22544000D03*
X2378000Y-27624000D03*
X2378000Y-17464000D03*
X2378000Y-20004000D03*
X2378000Y-25084000D03*
G04 #@! TA.AperFunction,ComponentPad*
G36*
G01*
X69907000Y-6077000D02*
X69907000Y-6877000D01*
G75*
G02*
X69507000Y-7277000I-400000J0D01*
G01*
X67907000Y-7277000D01*
G75*
G02*
X67507000Y-6877000I0J400000D01*
G01*
X67507000Y-6077000D01*
G75*
G02*
X67907000Y-5677000I400000J0D01*
G01*
X69507000Y-5677000D01*
G75*
G02*
X69907000Y-6077000I0J-400000D01*
G01*
G37*
G04 #@! TD.AperFunction*
G04 #@! TA.AperFunction,ComponentPad*
G36*
G01*
X67007000Y-10677000D02*
X67007000Y-12277000D01*
G75*
G02*
X66607000Y-12677000I-400000J0D01*
G01*
X65807000Y-12677000D01*
G75*
G02*
X65407000Y-12277000I0J400000D01*
G01*
X65407000Y-10677000D01*
G75*
G02*
X65807000Y-10277000I400000J0D01*
G01*
X66607000Y-10277000D01*
G75*
G02*
X67007000Y-10677000I0J-400000D01*
G01*
G37*
G04 #@! TD.AperFunction*
G04 #@! TA.AperFunction,ComponentPad*
G36*
G01*
X72007000Y-10677000D02*
X72007000Y-12277000D01*
G75*
G02*
X71607000Y-12677000I-400000J0D01*
G01*
X70807000Y-12677000D01*
G75*
G02*
X70407000Y-12277000I0J400000D01*
G01*
X70407000Y-10677000D01*
G75*
G02*
X70807000Y-10277000I400000J0D01*
G01*
X71607000Y-10277000D01*
G75*
G02*
X72007000Y-10677000I0J-400000D01*
G01*
G37*
G04 #@! TD.AperFunction*
G04 #@! TA.AperFunction,ComponentPad*
G36*
G01*
X64507000Y-10677000D02*
X64507000Y-12277000D01*
G75*
G02*
X64107000Y-12677000I-400000J0D01*
G01*
X63307000Y-12677000D01*
G75*
G02*
X62907000Y-12277000I0J400000D01*
G01*
X62907000Y-10677000D01*
G75*
G02*
X63307000Y-10277000I400000J0D01*
G01*
X64107000Y-10277000D01*
G75*
G02*
X64507000Y-10677000I0J-400000D01*
G01*
G37*
G04 #@! TD.AperFunction*
G04 #@! TA.AperFunction,ComponentPad*
G36*
G01*
X74507000Y-10677000D02*
X74507000Y-12277000D01*
G75*
G02*
X74107000Y-12677000I-400000J0D01*
G01*
X73307000Y-12677000D01*
G75*
G02*
X72907000Y-12277000I0J400000D01*
G01*
X72907000Y-10677000D01*
G75*
G02*
X73307000Y-10277000I400000J0D01*
G01*
X74107000Y-10277000D01*
G75*
G02*
X74507000Y-10677000I0J-400000D01*
G01*
G37*
G04 #@! TD.AperFunction*
D11*
X5121400Y-40909000D03*
X7621400Y-40909000D03*
X10121400Y-40909000D03*
D12*
X2821400Y-33909000D03*
X12421400Y-33909000D03*
D13*
X3429000Y-9449000D03*
D14*
X5969000Y-9449000D03*
X3429000Y-11989000D03*
X5969000Y-11989000D03*
X3429000Y-14529000D03*
X5969000Y-14529000D03*
D13*
X45974000Y-15113000D03*
D15*
X48474000Y-15113000D03*
X48474000Y-13113000D03*
X45974000Y-13113000D03*
D12*
X41204000Y-10403000D03*
X53244000Y-10403000D03*
D16*
X83866056Y-48721944D03*
X82169000Y-48019000D03*
X80471944Y-48721944D03*
X79769000Y-50419000D03*
X80471944Y-52116056D03*
X82169000Y-52819000D03*
X83866056Y-52116056D03*
X84569000Y-50419000D03*
D17*
X82169000Y-50419000D03*
X3556000Y-3556000D03*
D16*
X5956000Y-3556000D03*
X5253056Y-5253056D03*
X3556000Y-5956000D03*
X1858944Y-5253056D03*
X1156000Y-3556000D03*
X1858944Y-1858944D03*
X3556000Y-1156000D03*
X5253056Y-1858944D03*
X5253056Y-48721944D03*
X3556000Y-48019000D03*
X1858944Y-48721944D03*
X1156000Y-50419000D03*
X1858944Y-52116056D03*
X3556000Y-52819000D03*
X5253056Y-52116056D03*
X5956000Y-50419000D03*
D17*
X3556000Y-50419000D03*
X82169000Y-3556000D03*
D16*
X84569000Y-3556000D03*
X83866056Y-5253056D03*
X82169000Y-5956000D03*
X80471944Y-5253056D03*
X79769000Y-3556000D03*
X80471944Y-1858944D03*
X82169000Y-1156000D03*
X83866056Y-1858944D03*
D18*
X76205080Y-12522200D03*
X63710820Y-15024100D03*
X68707000Y-12524740D03*
X61208920Y-12522200D03*
X73703180Y-15024100D03*
X63705740Y-2527300D03*
X73708260Y-2527300D03*
D12*
X54710700Y-33782000D03*
X45110700Y-33782000D03*
D11*
X52410700Y-40782000D03*
X49910700Y-40782000D03*
X47410700Y-40782000D03*
X61507100Y-40782000D03*
X64007100Y-40782000D03*
X66507100Y-40782000D03*
D12*
X59207100Y-33782000D03*
X68807100Y-33782000D03*
X26517900Y-33782000D03*
X16917900Y-33782000D03*
D11*
X24217900Y-40782000D03*
X21717900Y-40782000D03*
X19217900Y-40782000D03*
X75603600Y-40782000D03*
X78103600Y-40782000D03*
X80603600Y-40782000D03*
D12*
X73303600Y-33782000D03*
X82903600Y-33782000D03*
D11*
X33314300Y-40782000D03*
X35814300Y-40782000D03*
X38314300Y-40782000D03*
D12*
X31014300Y-33782000D03*
X40614300Y-33782000D03*
D19*
X12800000Y-20800000D03*
X17600000Y-16600000D03*
X14672900Y-10587700D03*
X16860100Y-8888000D03*
X22783800Y-14570300D03*
X20204200Y-9747800D03*
X18006600Y-4553100D03*
X29800000Y-15400018D03*
X18554400Y-7824800D03*
X19800012Y-20200000D03*
X14909300Y-15488400D03*
X17744900Y-10690500D03*
X25287100Y-44267500D03*
X21234900Y-9485300D03*
X22564700Y-43832000D03*
X17488000Y-7870700D03*
X39138100Y-43476300D03*
X14217300Y-5868300D03*
X55242300Y-44827100D03*
X16689400Y-43457600D03*
X18180400Y-12220700D03*
X21279200Y-4977000D03*
X24614600Y-6998100D03*
D20*
X17000000Y-16600000D02*
X17600000Y-16600000D01*
X12800000Y-20800000D02*
X17000000Y-16600000D01*
D21*
X14672900Y-10587700D02*
X14541600Y-10719000D01*
X14541600Y-10719000D02*
X5574200Y-10719000D01*
X5574200Y-10719000D02*
X4604400Y-11688800D01*
X4604400Y-11688800D02*
X4604400Y-13353600D01*
X4604400Y-13353600D02*
X3429000Y-14529000D01*
X3429000Y-14529000D02*
X3429000Y-15704300D01*
X3429000Y-15704300D02*
X2378000Y-16755300D01*
X2378000Y-16755300D02*
X2378000Y-17464000D01*
D20*
X15473200Y-9565900D02*
X15473200Y-13792800D01*
X15473200Y-13792800D02*
X2378000Y-26888000D01*
X2378000Y-26888000D02*
X2378000Y-27624000D01*
X15473200Y-9565900D02*
X16182200Y-9565900D01*
X16182200Y-9565900D02*
X16860100Y-8888000D01*
X7219300Y-9449000D02*
X7336200Y-9565900D01*
X7336200Y-9565900D02*
X15473200Y-9565900D01*
X10121400Y-40909000D02*
X10121400Y-35367400D01*
X10121400Y-35367400D02*
X2378000Y-27624000D01*
X52410700Y-40782000D02*
X51260400Y-40782000D01*
X38314300Y-40782000D02*
X39464600Y-40782000D01*
X47281500Y-39378100D02*
X40868500Y-39378100D01*
X40868500Y-39378100D02*
X39464600Y-40782000D01*
X51260400Y-40782000D02*
X51260400Y-40206900D01*
X51260400Y-40206900D02*
X50431600Y-39378100D01*
X50431600Y-39378100D02*
X47281500Y-39378100D01*
X45974000Y-16363300D02*
X47281500Y-17670800D01*
X47281500Y-17670800D02*
X47281500Y-39378100D01*
X45974000Y-15113000D02*
X45974000Y-16363300D01*
X80603600Y-40782000D02*
X79453300Y-40782000D01*
X66507100Y-40782000D02*
X67657400Y-40782000D01*
X67657400Y-40782000D02*
X69102200Y-42226800D01*
X69102200Y-42226800D02*
X78553500Y-42226800D01*
X78553500Y-42226800D02*
X79453300Y-41327000D01*
X79453300Y-41327000D02*
X79453300Y-40782000D01*
X5969000Y-9449000D02*
X7219300Y-9449000D01*
D21*
X5969000Y-11989000D02*
X5969000Y-13164300D01*
X2378000Y-22544000D02*
X4793700Y-20128300D01*
X4793700Y-20128300D02*
X4793700Y-13972200D01*
X4793700Y-13972200D02*
X5601600Y-13164300D01*
X5601600Y-13164300D02*
X5969000Y-13164300D01*
X20204200Y-9747800D02*
X22783800Y-12327400D01*
X22783800Y-12327400D02*
X22783800Y-14570300D01*
X18006600Y-4553100D02*
X28853518Y-15400018D01*
X28853518Y-15400018D02*
X29800000Y-15400018D01*
X19478900Y-8749300D02*
X19478900Y-19878888D01*
X19478900Y-19878888D02*
X19800012Y-20200000D01*
X18554400Y-7824800D02*
X19478900Y-8749300D01*
X17744900Y-10690500D02*
X16846200Y-11589200D01*
X16846200Y-11589200D02*
X16846200Y-13551500D01*
X16846200Y-13551500D02*
X14909300Y-15488400D01*
X21234900Y-9485300D02*
X23530500Y-11780900D01*
X23530500Y-11780900D02*
X23530500Y-27190000D01*
X23530500Y-27190000D02*
X23129000Y-27591500D01*
X23129000Y-27591500D02*
X23129000Y-42109400D01*
X23129000Y-42109400D02*
X25287100Y-44267500D01*
X17488000Y-7870700D02*
X19028600Y-9411300D01*
X18874990Y-19851998D02*
X18874990Y-20547948D01*
X18874990Y-20547948D02*
X20504500Y-22177458D01*
X20504500Y-41771800D02*
X22564700Y-43832000D01*
X19028600Y-9411300D02*
X19028600Y-19698388D01*
X19028600Y-19698388D02*
X18874990Y-19851998D01*
X20504500Y-22177458D02*
X20504500Y-41771800D01*
X14217300Y-5868300D02*
X18670500Y-5868300D01*
X18670500Y-5868300D02*
X28345800Y-15543600D01*
X28345800Y-15543600D02*
X28345800Y-16106900D01*
X28345800Y-16106900D02*
X37203700Y-24964800D01*
X37203700Y-24964800D02*
X37203700Y-41541900D01*
X37203700Y-41541900D02*
X39138100Y-43476300D01*
X2378000Y-25084000D02*
X1258800Y-26203200D01*
X1258800Y-26203200D02*
X1258800Y-28025500D01*
X1258800Y-28025500D02*
X1967900Y-28734600D01*
X1967900Y-28734600D02*
X2469600Y-28734600D01*
X2469600Y-28734600D02*
X8871400Y-35136400D01*
X8871400Y-35136400D02*
X8871400Y-41480600D01*
X8871400Y-41480600D02*
X12383600Y-44992800D01*
X12383600Y-44992800D02*
X55076600Y-44992800D01*
X55076600Y-44992800D02*
X55242300Y-44827100D01*
X3429000Y-9449000D02*
X3429000Y-10624300D01*
X3429000Y-10624300D02*
X3061700Y-10624300D01*
X3061700Y-10624300D02*
X827600Y-12858400D01*
X827600Y-12858400D02*
X827600Y-23533600D01*
X827600Y-23533600D02*
X2378000Y-25084000D01*
X3429000Y-13164300D02*
X3061700Y-13164300D01*
X3061700Y-13164300D02*
X1279500Y-14946500D01*
X1279500Y-14946500D02*
X1279500Y-18905500D01*
X1279500Y-18905500D02*
X2378000Y-20004000D01*
X3429000Y-11989000D02*
X3429000Y-13164300D01*
X18998900Y-39050800D02*
X16689400Y-41360300D01*
X18400000Y-27647500D02*
X18998900Y-28246400D01*
X16689400Y-41360300D02*
X16689400Y-43457600D01*
X18998900Y-28246400D02*
X18998900Y-39050800D01*
X18400000Y-18223000D02*
X18400000Y-27647500D01*
X18325002Y-18148002D02*
X18400000Y-18223000D01*
X18325002Y-16251998D02*
X18325002Y-18148002D01*
X18180400Y-16107396D02*
X18325002Y-16251998D01*
X18180400Y-12220700D02*
X18180400Y-16107396D01*
X24614600Y-6998100D02*
X22593500Y-4977000D01*
X22593500Y-4977000D02*
X21279200Y-4977000D01*
X63710800Y-15024100D02*
X70159900Y-15024100D01*
X70159900Y-15024100D02*
X73707000Y-11477000D01*
D22*
X79681967Y-851178D02*
X82169000Y-3338211D01*
X82183142Y-3324069D01*
X82400931Y-3541858D01*
X82386789Y-3556000D01*
X84873822Y-6043033D01*
X85350000Y-5680725D01*
X85350001Y-48294275D01*
X84873822Y-47931967D01*
X82386789Y-50419000D01*
X82400931Y-50433142D01*
X82183142Y-50650931D01*
X82169000Y-50636789D01*
X79681967Y-53123822D01*
X80044275Y-53600000D01*
X5680725Y-53600000D01*
X6043033Y-53123822D01*
X3556000Y-50636789D01*
X3541858Y-50650931D01*
X3324069Y-50433142D01*
X3338211Y-50419000D01*
X3773789Y-50419000D01*
X6260822Y-52906033D01*
X6739654Y-52541706D01*
X7092601Y-51879818D01*
X7309637Y-51161792D01*
X7381686Y-50422779D01*
X78342577Y-50422779D01*
X78416838Y-51169204D01*
X78635292Y-51886800D01*
X78985346Y-52541706D01*
X79464178Y-52906033D01*
X81951211Y-50419000D01*
X79464178Y-47931967D01*
X78985346Y-48296294D01*
X78632399Y-48958182D01*
X78415363Y-49676208D01*
X78342577Y-50422779D01*
X7381686Y-50422779D01*
X7382423Y-50415221D01*
X7308162Y-49668796D01*
X7089708Y-48951200D01*
X6739654Y-48296294D01*
X6260822Y-47931967D01*
X3773789Y-50419000D01*
X3338211Y-50419000D01*
X851178Y-47931967D01*
X375000Y-48294275D01*
X375000Y-47714178D01*
X1068967Y-47714178D01*
X3556000Y-50201211D01*
X6043033Y-47714178D01*
X79681967Y-47714178D01*
X82169000Y-50201211D01*
X84656033Y-47714178D01*
X84291706Y-47235346D01*
X83629818Y-46882399D01*
X82911792Y-46665363D01*
X82165221Y-46592577D01*
X81418796Y-46666838D01*
X80701200Y-46885292D01*
X80046294Y-47235346D01*
X79681967Y-47714178D01*
X6043033Y-47714178D01*
X5678706Y-47235346D01*
X5016818Y-46882399D01*
X4298792Y-46665363D01*
X3552221Y-46592577D01*
X2805796Y-46666838D01*
X2088200Y-46885292D01*
X1433294Y-47235346D01*
X1068967Y-47714178D01*
X375000Y-47714178D01*
X375000Y-41277469D01*
X3759740Y-41277469D01*
X3809016Y-41540839D01*
X3908726Y-41789535D01*
X4055038Y-42014000D01*
X4242330Y-42205608D01*
X4463404Y-42356996D01*
X4709765Y-42462345D01*
X4758228Y-42467538D01*
X4967400Y-42355127D01*
X4967400Y-41063000D01*
X5275400Y-41063000D01*
X5275400Y-42355127D01*
X5484572Y-42467538D01*
X5533035Y-42462345D01*
X5779396Y-42356996D01*
X6000470Y-42205608D01*
X6187762Y-42014000D01*
X6334074Y-41789535D01*
X6433784Y-41540839D01*
X6483060Y-41277469D01*
X6332828Y-41063000D01*
X5275400Y-41063000D01*
X4967400Y-41063000D01*
X3909972Y-41063000D01*
X3759740Y-41277469D01*
X375000Y-41277469D01*
X375000Y-40540531D01*
X3759740Y-40540531D01*
X3909972Y-40755000D01*
X4967400Y-40755000D01*
X4967400Y-39462873D01*
X5275400Y-39462873D01*
X5275400Y-40755000D01*
X6332828Y-40755000D01*
X6483060Y-40540531D01*
X6433784Y-40277161D01*
X6334074Y-40028465D01*
X6187762Y-39804000D01*
X6000470Y-39612392D01*
X5779396Y-39461004D01*
X5533035Y-39355655D01*
X5484572Y-39350462D01*
X5275400Y-39462873D01*
X4967400Y-39462873D01*
X4758228Y-39350462D01*
X4709765Y-39355655D01*
X4463404Y-39461004D01*
X4242330Y-39612392D01*
X4055038Y-39804000D01*
X3908726Y-40028465D01*
X3809016Y-40277161D01*
X3759740Y-40540531D01*
X375000Y-40540531D01*
X375000Y-33707093D01*
X771400Y-33707093D01*
X771400Y-34110907D01*
X850180Y-34506963D01*
X1004714Y-34880039D01*
X1229061Y-35215799D01*
X1514601Y-35501339D01*
X1850361Y-35725686D01*
X2223437Y-35880220D01*
X2619493Y-35959000D01*
X3023307Y-35959000D01*
X3419363Y-35880220D01*
X3792439Y-35725686D01*
X4128199Y-35501339D01*
X4413739Y-35215799D01*
X4638086Y-34880039D01*
X4792620Y-34506963D01*
X4871400Y-34110907D01*
X4871400Y-33707093D01*
X4792620Y-33311037D01*
X4638086Y-32937961D01*
X4413739Y-32602201D01*
X4128199Y-32316661D01*
X3792439Y-32092314D01*
X3419363Y-31937780D01*
X3023307Y-31859000D01*
X2619493Y-31859000D01*
X2223437Y-31937780D01*
X1850361Y-32092314D01*
X1514601Y-32316661D01*
X1229061Y-32602201D01*
X1004714Y-32937961D01*
X850180Y-33311037D01*
X771400Y-33707093D01*
X375000Y-33707093D01*
X375000Y-31123369D01*
X1636420Y-31123369D01*
X1705638Y-31351427D01*
X1950213Y-31459782D01*
X2211227Y-31518341D01*
X2478650Y-31524853D01*
X2742205Y-31479069D01*
X2991764Y-31382747D01*
X3050362Y-31351427D01*
X3119580Y-31123369D01*
X2378000Y-30381789D01*
X1636420Y-31123369D01*
X375000Y-31123369D01*
X375000Y-30264650D01*
X1017147Y-30264650D01*
X1062931Y-30528205D01*
X1159253Y-30777764D01*
X1190573Y-30836362D01*
X1418631Y-30905580D01*
X2160211Y-30164000D01*
X1418631Y-29422420D01*
X1190573Y-29491638D01*
X1082218Y-29736213D01*
X1023659Y-29997227D01*
X1017147Y-30264650D01*
X375000Y-30264650D01*
X375000Y-12858400D01*
X400545Y-12858400D01*
X402600Y-12879267D01*
X402601Y-23512723D01*
X400545Y-23533600D01*
X408750Y-23616914D01*
X433053Y-23697027D01*
X472517Y-23770860D01*
X525627Y-23835574D01*
X541839Y-23848879D01*
X1398324Y-24705364D01*
X1368350Y-24777726D01*
X1328000Y-24980584D01*
X1328000Y-25187416D01*
X1368350Y-25390274D01*
X1398324Y-25462636D01*
X973043Y-25887917D01*
X956826Y-25901226D01*
X903716Y-25965941D01*
X864252Y-26039774D01*
X839950Y-26119887D01*
X833800Y-26182327D01*
X833800Y-26182333D01*
X831745Y-26203200D01*
X833800Y-26224067D01*
X833801Y-28004623D01*
X831745Y-28025500D01*
X839950Y-28108814D01*
X864253Y-28188927D01*
X903717Y-28262760D01*
X928810Y-28293336D01*
X940472Y-28307545D01*
X956827Y-28327474D01*
X973039Y-28340779D01*
X1652619Y-29020360D01*
X1665926Y-29036574D01*
X1683139Y-29050701D01*
X1636420Y-29204631D01*
X2378000Y-29946211D01*
X2392142Y-29932069D01*
X2609931Y-30149858D01*
X2595789Y-30164000D01*
X3337369Y-30905580D01*
X3565427Y-30836362D01*
X3673782Y-30591787D01*
X3683304Y-30549344D01*
X8446400Y-35312441D01*
X8446401Y-40009143D01*
X8367454Y-39912946D01*
X8207571Y-39781733D01*
X8025161Y-39684233D01*
X7827235Y-39624193D01*
X7621400Y-39603920D01*
X7415564Y-39624193D01*
X7217638Y-39684233D01*
X7035229Y-39781733D01*
X6875346Y-39912946D01*
X6744133Y-40072829D01*
X6646633Y-40255239D01*
X6586593Y-40453165D01*
X6571400Y-40607423D01*
X6571400Y-41210578D01*
X6586593Y-41364836D01*
X6646633Y-41562762D01*
X6744134Y-41745171D01*
X6875347Y-41905054D01*
X7035230Y-42036267D01*
X7217639Y-42133767D01*
X7415565Y-42193807D01*
X7621400Y-42214080D01*
X7827236Y-42193807D01*
X8025162Y-42133767D01*
X8207571Y-42036267D01*
X8367454Y-41905054D01*
X8498667Y-41745171D01*
X8514791Y-41715005D01*
X8516317Y-41717860D01*
X8569427Y-41782574D01*
X8585639Y-41795879D01*
X12068321Y-45278562D01*
X12081626Y-45294774D01*
X12146340Y-45347884D01*
X12220173Y-45387348D01*
X12275983Y-45404278D01*
X12300285Y-45411650D01*
X12307927Y-45412403D01*
X12362726Y-45417800D01*
X12362733Y-45417800D01*
X12383600Y-45419855D01*
X12404467Y-45417800D01*
X54866378Y-45417800D01*
X54910726Y-45447432D01*
X55038118Y-45500199D01*
X55173356Y-45527100D01*
X55311244Y-45527100D01*
X55446482Y-45500199D01*
X55573874Y-45447432D01*
X55688524Y-45370826D01*
X55786026Y-45273324D01*
X55862632Y-45158674D01*
X55915399Y-45031282D01*
X55942300Y-44896044D01*
X55942300Y-44758156D01*
X55915399Y-44622918D01*
X55862632Y-44495526D01*
X55786026Y-44380876D01*
X55688524Y-44283374D01*
X55573874Y-44206768D01*
X55446482Y-44154001D01*
X55311244Y-44127100D01*
X55173356Y-44127100D01*
X55038118Y-44154001D01*
X54910726Y-44206768D01*
X54796076Y-44283374D01*
X54698574Y-44380876D01*
X54621968Y-44495526D01*
X54592031Y-44567800D01*
X25920386Y-44567800D01*
X25960199Y-44471682D01*
X25987100Y-44336444D01*
X25987100Y-44198556D01*
X25960199Y-44063318D01*
X25907432Y-43935926D01*
X25830826Y-43821276D01*
X25733324Y-43723774D01*
X25618674Y-43647168D01*
X25491282Y-43594401D01*
X25356044Y-43567500D01*
X25218156Y-43567500D01*
X25193121Y-43572480D01*
X23554000Y-41933360D01*
X23554000Y-41845475D01*
X23631730Y-41909267D01*
X23814139Y-42006767D01*
X24012065Y-42066807D01*
X24217900Y-42087080D01*
X24423736Y-42066807D01*
X24621662Y-42006767D01*
X24804071Y-41909267D01*
X24963954Y-41778054D01*
X25095167Y-41618171D01*
X25192667Y-41435761D01*
X25252707Y-41237835D01*
X25261311Y-41150469D01*
X31952640Y-41150469D01*
X32001916Y-41413839D01*
X32101626Y-41662535D01*
X32247938Y-41887000D01*
X32435230Y-42078608D01*
X32656304Y-42229996D01*
X32902665Y-42335345D01*
X32951128Y-42340538D01*
X33160300Y-42228127D01*
X33160300Y-40936000D01*
X33468300Y-40936000D01*
X33468300Y-42228127D01*
X33677472Y-42340538D01*
X33725935Y-42335345D01*
X33972296Y-42229996D01*
X34193370Y-42078608D01*
X34380662Y-41887000D01*
X34526974Y-41662535D01*
X34626684Y-41413839D01*
X34675960Y-41150469D01*
X34525728Y-40936000D01*
X33468300Y-40936000D01*
X33160300Y-40936000D01*
X32102872Y-40936000D01*
X31952640Y-41150469D01*
X25261311Y-41150469D01*
X25267900Y-41083577D01*
X25267900Y-40480422D01*
X25261312Y-40413531D01*
X31952640Y-40413531D01*
X32102872Y-40628000D01*
X33160300Y-40628000D01*
X33160300Y-39335873D01*
X33468300Y-39335873D01*
X33468300Y-40628000D01*
X34525728Y-40628000D01*
X34675960Y-40413531D01*
X34626684Y-40150161D01*
X34526974Y-39901465D01*
X34380662Y-39677000D01*
X34193370Y-39485392D01*
X33972296Y-39334004D01*
X33725935Y-39228655D01*
X33677472Y-39223462D01*
X33468300Y-39335873D01*
X33160300Y-39335873D01*
X32951128Y-39223462D01*
X32902665Y-39228655D01*
X32656304Y-39334004D01*
X32435230Y-39485392D01*
X32247938Y-39677000D01*
X32101626Y-39901465D01*
X32001916Y-40150161D01*
X31952640Y-40413531D01*
X25261312Y-40413531D01*
X25252707Y-40326164D01*
X25192667Y-40128238D01*
X25095167Y-39945829D01*
X24963954Y-39785946D01*
X24804071Y-39654733D01*
X24621661Y-39557233D01*
X24423735Y-39497193D01*
X24217900Y-39476920D01*
X24012064Y-39497193D01*
X23814138Y-39557233D01*
X23631729Y-39654733D01*
X23554000Y-39718524D01*
X23554000Y-33580093D01*
X24467900Y-33580093D01*
X24467900Y-33983907D01*
X24546680Y-34379963D01*
X24701214Y-34753039D01*
X24925561Y-35088799D01*
X25211101Y-35374339D01*
X25546861Y-35598686D01*
X25919937Y-35753220D01*
X26315993Y-35832000D01*
X26719807Y-35832000D01*
X27115863Y-35753220D01*
X27488939Y-35598686D01*
X27824699Y-35374339D01*
X28110239Y-35088799D01*
X28334586Y-34753039D01*
X28489120Y-34379963D01*
X28567900Y-33983907D01*
X28567900Y-33580093D01*
X28964300Y-33580093D01*
X28964300Y-33983907D01*
X29043080Y-34379963D01*
X29197614Y-34753039D01*
X29421961Y-35088799D01*
X29707501Y-35374339D01*
X30043261Y-35598686D01*
X30416337Y-35753220D01*
X30812393Y-35832000D01*
X31216207Y-35832000D01*
X31612263Y-35753220D01*
X31985339Y-35598686D01*
X32321099Y-35374339D01*
X32606639Y-35088799D01*
X32830986Y-34753039D01*
X32985520Y-34379963D01*
X33064300Y-33983907D01*
X33064300Y-33580093D01*
X32985520Y-33184037D01*
X32830986Y-32810961D01*
X32606639Y-32475201D01*
X32321099Y-32189661D01*
X31985339Y-31965314D01*
X31612263Y-31810780D01*
X31216207Y-31732000D01*
X30812393Y-31732000D01*
X30416337Y-31810780D01*
X30043261Y-31965314D01*
X29707501Y-32189661D01*
X29421961Y-32475201D01*
X29197614Y-32810961D01*
X29043080Y-33184037D01*
X28964300Y-33580093D01*
X28567900Y-33580093D01*
X28489120Y-33184037D01*
X28334586Y-32810961D01*
X28110239Y-32475201D01*
X27824699Y-32189661D01*
X27488939Y-31965314D01*
X27115863Y-31810780D01*
X26719807Y-31732000D01*
X26315993Y-31732000D01*
X25919937Y-31810780D01*
X25546861Y-31965314D01*
X25211101Y-32189661D01*
X24925561Y-32475201D01*
X24701214Y-32810961D01*
X24546680Y-33184037D01*
X24467900Y-33580093D01*
X23554000Y-33580093D01*
X23554000Y-27767540D01*
X23816262Y-27505279D01*
X23832474Y-27491974D01*
X23885584Y-27427260D01*
X23924613Y-27354241D01*
X23925048Y-27353428D01*
X23949350Y-27273314D01*
X23954557Y-27220445D01*
X23955500Y-27210874D01*
X23955500Y-27210867D01*
X23957555Y-27190000D01*
X23955500Y-27169133D01*
X23955500Y-11801767D01*
X23957555Y-11780900D01*
X23955500Y-11760033D01*
X23955500Y-11760026D01*
X23954879Y-11753719D01*
X27920800Y-15719641D01*
X27920801Y-16086024D01*
X27918745Y-16106900D01*
X27926950Y-16190214D01*
X27949723Y-16265283D01*
X27951253Y-16270327D01*
X27990717Y-16344160D01*
X28043827Y-16408874D01*
X28060039Y-16422179D01*
X36778700Y-25140841D01*
X36778701Y-40108844D01*
X36691567Y-39945829D01*
X36560354Y-39785946D01*
X36400471Y-39654733D01*
X36218061Y-39557233D01*
X36020135Y-39497193D01*
X35814300Y-39476920D01*
X35608464Y-39497193D01*
X35410538Y-39557233D01*
X35228129Y-39654733D01*
X35068246Y-39785946D01*
X34937033Y-39945829D01*
X34839533Y-40128239D01*
X34779493Y-40326165D01*
X34764300Y-40480423D01*
X34764300Y-41083578D01*
X34779493Y-41237836D01*
X34839533Y-41435762D01*
X34937034Y-41618171D01*
X35068247Y-41778054D01*
X35228130Y-41909267D01*
X35410539Y-42006767D01*
X35608465Y-42066807D01*
X35814300Y-42087080D01*
X36020136Y-42066807D01*
X36218062Y-42006767D01*
X36400471Y-41909267D01*
X36560354Y-41778054D01*
X36691567Y-41618171D01*
X36778701Y-41455154D01*
X36778701Y-41521023D01*
X36776645Y-41541900D01*
X36784850Y-41625214D01*
X36796172Y-41662535D01*
X36809153Y-41705327D01*
X36848617Y-41779160D01*
X36901727Y-41843874D01*
X36917939Y-41857179D01*
X38443080Y-43382321D01*
X38438100Y-43407356D01*
X38438100Y-43545244D01*
X38465001Y-43680482D01*
X38517768Y-43807874D01*
X38594374Y-43922524D01*
X38691876Y-44020026D01*
X38806526Y-44096632D01*
X38933918Y-44149399D01*
X39069156Y-44176300D01*
X39207044Y-44176300D01*
X39342282Y-44149399D01*
X39469674Y-44096632D01*
X39584324Y-44020026D01*
X39681826Y-43922524D01*
X39758432Y-43807874D01*
X39811199Y-43680482D01*
X39838100Y-43545244D01*
X39838100Y-43407356D01*
X39811199Y-43272118D01*
X39758432Y-43144726D01*
X39681826Y-43030076D01*
X39584324Y-42932574D01*
X39469674Y-42855968D01*
X39342282Y-42803201D01*
X39207044Y-42776300D01*
X39069156Y-42776300D01*
X39044121Y-42781280D01*
X38346727Y-42083886D01*
X38520136Y-42066807D01*
X38718062Y-42006767D01*
X38900471Y-41909267D01*
X39060354Y-41778054D01*
X39191567Y-41618171D01*
X39289067Y-41435761D01*
X39335710Y-41282000D01*
X39440040Y-41282000D01*
X39464600Y-41284419D01*
X39489160Y-41282000D01*
X39562617Y-41274765D01*
X39656867Y-41246175D01*
X39743729Y-41199746D01*
X39803773Y-41150469D01*
X46049040Y-41150469D01*
X46098316Y-41413839D01*
X46198026Y-41662535D01*
X46344338Y-41887000D01*
X46531630Y-42078608D01*
X46752704Y-42229996D01*
X46999065Y-42335345D01*
X47047528Y-42340538D01*
X47256700Y-42228127D01*
X47256700Y-40936000D01*
X47564700Y-40936000D01*
X47564700Y-42228127D01*
X47773872Y-42340538D01*
X47822335Y-42335345D01*
X48068696Y-42229996D01*
X48289770Y-42078608D01*
X48477062Y-41887000D01*
X48623374Y-41662535D01*
X48723084Y-41413839D01*
X48772360Y-41150469D01*
X48622128Y-40936000D01*
X47564700Y-40936000D01*
X47256700Y-40936000D01*
X46199272Y-40936000D01*
X46049040Y-41150469D01*
X39803773Y-41150469D01*
X39819864Y-41137264D01*
X39835529Y-41118176D01*
X41075607Y-39878100D01*
X46213256Y-39878100D01*
X46198026Y-39901465D01*
X46098316Y-40150161D01*
X46049040Y-40413531D01*
X46199272Y-40628000D01*
X47256700Y-40628000D01*
X47256700Y-40608000D01*
X47564700Y-40608000D01*
X47564700Y-40628000D01*
X48622128Y-40628000D01*
X48772360Y-40413531D01*
X48723084Y-40150161D01*
X48623374Y-39901465D01*
X48608144Y-39878100D01*
X49089017Y-39878100D01*
X49033433Y-39945829D01*
X48935933Y-40128239D01*
X48875893Y-40326165D01*
X48860700Y-40480423D01*
X48860700Y-41083578D01*
X48875893Y-41237836D01*
X48935933Y-41435762D01*
X49033434Y-41618171D01*
X49164647Y-41778054D01*
X49324530Y-41909267D01*
X49506939Y-42006767D01*
X49704865Y-42066807D01*
X49910700Y-42087080D01*
X50116536Y-42066807D01*
X50314462Y-42006767D01*
X50496871Y-41909267D01*
X50656754Y-41778054D01*
X50787967Y-41618171D01*
X50885467Y-41435761D01*
X50945507Y-41237835D01*
X50951652Y-41175439D01*
X50981271Y-41199746D01*
X51068133Y-41246175D01*
X51162383Y-41274765D01*
X51260400Y-41284419D01*
X51284960Y-41282000D01*
X51389290Y-41282000D01*
X51435933Y-41435762D01*
X51533434Y-41618171D01*
X51664647Y-41778054D01*
X51824530Y-41909267D01*
X52006939Y-42006767D01*
X52204865Y-42066807D01*
X52410700Y-42087080D01*
X52616536Y-42066807D01*
X52814462Y-42006767D01*
X52996871Y-41909267D01*
X53156754Y-41778054D01*
X53287967Y-41618171D01*
X53385467Y-41435761D01*
X53445507Y-41237835D01*
X53454111Y-41150469D01*
X60145440Y-41150469D01*
X60194716Y-41413839D01*
X60294426Y-41662535D01*
X60440738Y-41887000D01*
X60628030Y-42078608D01*
X60849104Y-42229996D01*
X61095465Y-42335345D01*
X61143928Y-42340538D01*
X61353100Y-42228127D01*
X61353100Y-40936000D01*
X61661100Y-40936000D01*
X61661100Y-42228127D01*
X61870272Y-42340538D01*
X61918735Y-42335345D01*
X62165096Y-42229996D01*
X62386170Y-42078608D01*
X62573462Y-41887000D01*
X62719774Y-41662535D01*
X62819484Y-41413839D01*
X62868760Y-41150469D01*
X62718528Y-40936000D01*
X61661100Y-40936000D01*
X61353100Y-40936000D01*
X60295672Y-40936000D01*
X60145440Y-41150469D01*
X53454111Y-41150469D01*
X53460700Y-41083577D01*
X53460700Y-40480422D01*
X53454112Y-40413531D01*
X60145440Y-40413531D01*
X60295672Y-40628000D01*
X61353100Y-40628000D01*
X61353100Y-39335873D01*
X61661100Y-39335873D01*
X61661100Y-40628000D01*
X62718528Y-40628000D01*
X62821903Y-40480423D01*
X62957100Y-40480423D01*
X62957100Y-41083578D01*
X62972293Y-41237836D01*
X63032333Y-41435762D01*
X63129834Y-41618171D01*
X63261047Y-41778054D01*
X63420930Y-41909267D01*
X63603339Y-42006767D01*
X63801265Y-42066807D01*
X64007100Y-42087080D01*
X64212936Y-42066807D01*
X64410862Y-42006767D01*
X64593271Y-41909267D01*
X64753154Y-41778054D01*
X64884367Y-41618171D01*
X64981867Y-41435761D01*
X65041907Y-41237835D01*
X65057100Y-41083577D01*
X65057100Y-40480423D01*
X65457100Y-40480423D01*
X65457100Y-41083578D01*
X65472293Y-41237836D01*
X65532333Y-41435762D01*
X65629834Y-41618171D01*
X65761047Y-41778054D01*
X65920930Y-41909267D01*
X66103339Y-42006767D01*
X66301265Y-42066807D01*
X66507100Y-42087080D01*
X66712936Y-42066807D01*
X66910862Y-42006767D01*
X67093271Y-41909267D01*
X67253154Y-41778054D01*
X67384367Y-41618171D01*
X67481867Y-41435761D01*
X67510306Y-41342011D01*
X68731280Y-42562987D01*
X68746936Y-42582064D01*
X68823071Y-42644546D01*
X68909933Y-42690975D01*
X69004183Y-42719565D01*
X69102200Y-42729219D01*
X69126760Y-42726800D01*
X78528940Y-42726800D01*
X78553500Y-42729219D01*
X78578060Y-42726800D01*
X78651517Y-42719565D01*
X78745767Y-42690975D01*
X78832629Y-42644546D01*
X78908764Y-42582064D01*
X78924429Y-42562976D01*
X79789487Y-41697920D01*
X79790859Y-41696794D01*
X79857547Y-41778054D01*
X80017430Y-41909267D01*
X80199839Y-42006767D01*
X80397765Y-42066807D01*
X80603600Y-42087080D01*
X80809436Y-42066807D01*
X81007362Y-42006767D01*
X81189771Y-41909267D01*
X81349654Y-41778054D01*
X81480867Y-41618171D01*
X81578367Y-41435761D01*
X81638407Y-41237835D01*
X81653600Y-41083577D01*
X81653600Y-40480422D01*
X81638407Y-40326164D01*
X81578367Y-40128238D01*
X81480867Y-39945829D01*
X81349654Y-39785946D01*
X81189771Y-39654733D01*
X81007361Y-39557233D01*
X80809435Y-39497193D01*
X80603600Y-39476920D01*
X80397764Y-39497193D01*
X80199838Y-39557233D01*
X80017429Y-39654733D01*
X79857546Y-39785946D01*
X79726333Y-39945829D01*
X79628833Y-40128239D01*
X79582190Y-40282000D01*
X79477860Y-40282000D01*
X79453300Y-40279581D01*
X79428740Y-40282000D01*
X79355283Y-40289235D01*
X79261033Y-40317825D01*
X79174171Y-40364254D01*
X79144553Y-40388561D01*
X79138407Y-40326164D01*
X79078367Y-40128238D01*
X78980867Y-39945829D01*
X78849654Y-39785946D01*
X78689771Y-39654733D01*
X78507361Y-39557233D01*
X78309435Y-39497193D01*
X78103600Y-39476920D01*
X77897764Y-39497193D01*
X77699838Y-39557233D01*
X77517429Y-39654733D01*
X77357546Y-39785946D01*
X77226333Y-39945829D01*
X77128833Y-40128239D01*
X77068793Y-40326165D01*
X77053600Y-40480423D01*
X77053600Y-41083578D01*
X77068793Y-41237836D01*
X77128833Y-41435762D01*
X77226334Y-41618171D01*
X77315484Y-41726800D01*
X76774384Y-41726800D01*
X76816274Y-41662535D01*
X76915984Y-41413839D01*
X76965260Y-41150469D01*
X76815028Y-40936000D01*
X75757600Y-40936000D01*
X75757600Y-40956000D01*
X75449600Y-40956000D01*
X75449600Y-40936000D01*
X74392172Y-40936000D01*
X74241940Y-41150469D01*
X74291216Y-41413839D01*
X74390926Y-41662535D01*
X74432816Y-41726800D01*
X69309307Y-41726800D01*
X68028329Y-40445824D01*
X68012664Y-40426736D01*
X67996574Y-40413531D01*
X74241940Y-40413531D01*
X74392172Y-40628000D01*
X75449600Y-40628000D01*
X75449600Y-39335873D01*
X75757600Y-39335873D01*
X75757600Y-40628000D01*
X76815028Y-40628000D01*
X76965260Y-40413531D01*
X76915984Y-40150161D01*
X76816274Y-39901465D01*
X76669962Y-39677000D01*
X76482670Y-39485392D01*
X76261596Y-39334004D01*
X76015235Y-39228655D01*
X75966772Y-39223462D01*
X75757600Y-39335873D01*
X75449600Y-39335873D01*
X75240428Y-39223462D01*
X75191965Y-39228655D01*
X74945604Y-39334004D01*
X74724530Y-39485392D01*
X74537238Y-39677000D01*
X74390926Y-39901465D01*
X74291216Y-40150161D01*
X74241940Y-40413531D01*
X67996574Y-40413531D01*
X67936529Y-40364254D01*
X67849667Y-40317825D01*
X67755417Y-40289235D01*
X67681960Y-40282000D01*
X67657400Y-40279581D01*
X67632840Y-40282000D01*
X67528510Y-40282000D01*
X67481867Y-40128238D01*
X67384367Y-39945829D01*
X67253154Y-39785946D01*
X67093271Y-39654733D01*
X66910861Y-39557233D01*
X66712935Y-39497193D01*
X66507100Y-39476920D01*
X66301264Y-39497193D01*
X66103338Y-39557233D01*
X65920929Y-39654733D01*
X65761046Y-39785946D01*
X65629833Y-39945829D01*
X65532333Y-40128239D01*
X65472293Y-40326165D01*
X65457100Y-40480423D01*
X65057100Y-40480423D01*
X65057100Y-40480422D01*
X65041907Y-40326164D01*
X64981867Y-40128238D01*
X64884367Y-39945829D01*
X64753154Y-39785946D01*
X64593271Y-39654733D01*
X64410861Y-39557233D01*
X64212935Y-39497193D01*
X64007100Y-39476920D01*
X63801264Y-39497193D01*
X63603338Y-39557233D01*
X63420929Y-39654733D01*
X63261046Y-39785946D01*
X63129833Y-39945829D01*
X63032333Y-40128239D01*
X62972293Y-40326165D01*
X62957100Y-40480423D01*
X62821903Y-40480423D01*
X62868760Y-40413531D01*
X62819484Y-40150161D01*
X62719774Y-39901465D01*
X62573462Y-39677000D01*
X62386170Y-39485392D01*
X62165096Y-39334004D01*
X61918735Y-39228655D01*
X61870272Y-39223462D01*
X61661100Y-39335873D01*
X61353100Y-39335873D01*
X61143928Y-39223462D01*
X61095465Y-39228655D01*
X60849104Y-39334004D01*
X60628030Y-39485392D01*
X60440738Y-39677000D01*
X60294426Y-39901465D01*
X60194716Y-40150161D01*
X60145440Y-40413531D01*
X53454112Y-40413531D01*
X53445507Y-40326164D01*
X53385467Y-40128238D01*
X53287967Y-39945829D01*
X53156754Y-39785946D01*
X52996871Y-39654733D01*
X52814461Y-39557233D01*
X52616535Y-39497193D01*
X52410700Y-39476920D01*
X52204864Y-39497193D01*
X52006938Y-39557233D01*
X51824529Y-39654733D01*
X51664646Y-39785946D01*
X51612719Y-39849219D01*
X51596581Y-39835975D01*
X50802529Y-39041924D01*
X50786864Y-39022836D01*
X50710729Y-38960354D01*
X50623867Y-38913925D01*
X50529617Y-38885335D01*
X50456160Y-38878100D01*
X50431600Y-38875681D01*
X50407040Y-38878100D01*
X47781500Y-38878100D01*
X47781500Y-33580093D01*
X52660700Y-33580093D01*
X52660700Y-33983907D01*
X52739480Y-34379963D01*
X52894014Y-34753039D01*
X53118361Y-35088799D01*
X53403901Y-35374339D01*
X53739661Y-35598686D01*
X54112737Y-35753220D01*
X54508793Y-35832000D01*
X54912607Y-35832000D01*
X55308663Y-35753220D01*
X55681739Y-35598686D01*
X56017499Y-35374339D01*
X56303039Y-35088799D01*
X56527386Y-34753039D01*
X56681920Y-34379963D01*
X56760700Y-33983907D01*
X56760700Y-33580093D01*
X57157100Y-33580093D01*
X57157100Y-33983907D01*
X57235880Y-34379963D01*
X57390414Y-34753039D01*
X57614761Y-35088799D01*
X57900301Y-35374339D01*
X58236061Y-35598686D01*
X58609137Y-35753220D01*
X59005193Y-35832000D01*
X59409007Y-35832000D01*
X59805063Y-35753220D01*
X60178139Y-35598686D01*
X60513899Y-35374339D01*
X60799439Y-35088799D01*
X61023786Y-34753039D01*
X61178320Y-34379963D01*
X61257100Y-33983907D01*
X61257100Y-33580093D01*
X66757100Y-33580093D01*
X66757100Y-33983907D01*
X66835880Y-34379963D01*
X66990414Y-34753039D01*
X67214761Y-35088799D01*
X67500301Y-35374339D01*
X67836061Y-35598686D01*
X68209137Y-35753220D01*
X68605193Y-35832000D01*
X69009007Y-35832000D01*
X69405063Y-35753220D01*
X69778139Y-35598686D01*
X70113899Y-35374339D01*
X70399439Y-35088799D01*
X70623786Y-34753039D01*
X70778320Y-34379963D01*
X70857100Y-33983907D01*
X70857100Y-33580093D01*
X71253600Y-33580093D01*
X71253600Y-33983907D01*
X71332380Y-34379963D01*
X71486914Y-34753039D01*
X71711261Y-35088799D01*
X71996801Y-35374339D01*
X72332561Y-35598686D01*
X72705637Y-35753220D01*
X73101693Y-35832000D01*
X73505507Y-35832000D01*
X73901563Y-35753220D01*
X74274639Y-35598686D01*
X74610399Y-35374339D01*
X74895939Y-35088799D01*
X75120286Y-34753039D01*
X75274820Y-34379963D01*
X75353600Y-33983907D01*
X75353600Y-33580093D01*
X80853600Y-33580093D01*
X80853600Y-33983907D01*
X80932380Y-34379963D01*
X81086914Y-34753039D01*
X81311261Y-35088799D01*
X81596801Y-35374339D01*
X81932561Y-35598686D01*
X82305637Y-35753220D01*
X82701693Y-35832000D01*
X83105507Y-35832000D01*
X83501563Y-35753220D01*
X83874639Y-35598686D01*
X84210399Y-35374339D01*
X84495939Y-35088799D01*
X84720286Y-34753039D01*
X84874820Y-34379963D01*
X84953600Y-33983907D01*
X84953600Y-33580093D01*
X84874820Y-33184037D01*
X84720286Y-32810961D01*
X84495939Y-32475201D01*
X84210399Y-32189661D01*
X83874639Y-31965314D01*
X83501563Y-31810780D01*
X83105507Y-31732000D01*
X82701693Y-31732000D01*
X82305637Y-31810780D01*
X81932561Y-31965314D01*
X81596801Y-32189661D01*
X81311261Y-32475201D01*
X81086914Y-32810961D01*
X80932380Y-33184037D01*
X80853600Y-33580093D01*
X75353600Y-33580093D01*
X75274820Y-33184037D01*
X75120286Y-32810961D01*
X74895939Y-32475201D01*
X74610399Y-32189661D01*
X74274639Y-31965314D01*
X73901563Y-31810780D01*
X73505507Y-31732000D01*
X73101693Y-31732000D01*
X72705637Y-31810780D01*
X72332561Y-31965314D01*
X71996801Y-32189661D01*
X71711261Y-32475201D01*
X71486914Y-32810961D01*
X71332380Y-33184037D01*
X71253600Y-33580093D01*
X70857100Y-33580093D01*
X70778320Y-33184037D01*
X70623786Y-32810961D01*
X70399439Y-32475201D01*
X70113899Y-32189661D01*
X69778139Y-31965314D01*
X69405063Y-31810780D01*
X69009007Y-31732000D01*
X68605193Y-31732000D01*
X68209137Y-31810780D01*
X67836061Y-31965314D01*
X67500301Y-32189661D01*
X67214761Y-32475201D01*
X66990414Y-32810961D01*
X66835880Y-33184037D01*
X66757100Y-33580093D01*
X61257100Y-33580093D01*
X61178320Y-33184037D01*
X61023786Y-32810961D01*
X60799439Y-32475201D01*
X60513899Y-32189661D01*
X60178139Y-31965314D01*
X59805063Y-31810780D01*
X59409007Y-31732000D01*
X59005193Y-31732000D01*
X58609137Y-31810780D01*
X58236061Y-31965314D01*
X57900301Y-32189661D01*
X57614761Y-32475201D01*
X57390414Y-32810961D01*
X57235880Y-33184037D01*
X57157100Y-33580093D01*
X56760700Y-33580093D01*
X56681920Y-33184037D01*
X56527386Y-32810961D01*
X56303039Y-32475201D01*
X56017499Y-32189661D01*
X55681739Y-31965314D01*
X55308663Y-31810780D01*
X54912607Y-31732000D01*
X54508793Y-31732000D01*
X54112737Y-31810780D01*
X53739661Y-31965314D01*
X53403901Y-32189661D01*
X53118361Y-32475201D01*
X52894014Y-32810961D01*
X52739480Y-33184037D01*
X52660700Y-33580093D01*
X47781500Y-33580093D01*
X47781500Y-17695357D01*
X47783919Y-17670799D01*
X47779647Y-17627427D01*
X47774265Y-17572783D01*
X47745675Y-17478533D01*
X47699246Y-17391671D01*
X47636764Y-17315536D01*
X47617687Y-17299880D01*
X46582256Y-16264451D01*
X46824000Y-16264451D01*
X46882810Y-16258659D01*
X46939360Y-16241504D01*
X46991477Y-16213647D01*
X47037158Y-16176158D01*
X47074647Y-16130477D01*
X47102504Y-16078360D01*
X47119659Y-16021810D01*
X47125451Y-15963000D01*
X47125451Y-14263000D01*
X47119659Y-14204190D01*
X47102504Y-14147640D01*
X47074647Y-14095523D01*
X47069259Y-14088957D01*
X47118504Y-14039712D01*
X47004959Y-13926167D01*
X47243207Y-13844779D01*
X47361583Y-13583109D01*
X47384016Y-13486641D01*
X47454884Y-13657729D01*
X47580737Y-13846082D01*
X47740918Y-14006263D01*
X47900662Y-14113000D01*
X47740918Y-14219737D01*
X47580737Y-14379918D01*
X47454884Y-14568271D01*
X47368194Y-14777557D01*
X47324000Y-14999735D01*
X47324000Y-15226265D01*
X47368194Y-15448443D01*
X47454884Y-15657729D01*
X47580737Y-15846082D01*
X47740918Y-16006263D01*
X47929271Y-16132116D01*
X48138557Y-16218806D01*
X48360735Y-16263000D01*
X48587265Y-16263000D01*
X48809443Y-16218806D01*
X49018729Y-16132116D01*
X49207082Y-16006263D01*
X49367263Y-15846082D01*
X49493116Y-15657729D01*
X49579806Y-15448443D01*
X49624000Y-15226265D01*
X49624000Y-14999735D01*
X49598487Y-14871470D01*
X62161140Y-14871470D01*
X62161140Y-15176730D01*
X62220694Y-15476125D01*
X62337512Y-15758149D01*
X62507105Y-16011963D01*
X62722957Y-16227815D01*
X62976771Y-16397408D01*
X63258795Y-16514226D01*
X63558190Y-16573780D01*
X63863450Y-16573780D01*
X64162845Y-16514226D01*
X64444869Y-16397408D01*
X64698683Y-16227815D01*
X64914535Y-16011963D01*
X65084128Y-15758149D01*
X65200946Y-15476125D01*
X65206322Y-15449100D01*
X70139033Y-15449100D01*
X70159900Y-15451155D01*
X70180767Y-15449100D01*
X70180774Y-15449100D01*
X70243214Y-15442950D01*
X70323327Y-15418648D01*
X70397160Y-15379184D01*
X70461874Y-15326074D01*
X70475184Y-15309857D01*
X70913571Y-14871470D01*
X72153500Y-14871470D01*
X72153500Y-15176730D01*
X72213054Y-15476125D01*
X72329872Y-15758149D01*
X72499465Y-16011963D01*
X72715317Y-16227815D01*
X72969131Y-16397408D01*
X73251155Y-16514226D01*
X73550550Y-16573780D01*
X73855810Y-16573780D01*
X74155205Y-16514226D01*
X74437229Y-16397408D01*
X74691043Y-16227815D01*
X74906895Y-16011963D01*
X75076488Y-15758149D01*
X75193306Y-15476125D01*
X75252860Y-15176730D01*
X75252860Y-14871470D01*
X75193306Y-14572075D01*
X75076488Y-14290051D01*
X74906895Y-14036237D01*
X74691043Y-13820385D01*
X74437229Y-13650792D01*
X74155205Y-13533974D01*
X73855810Y-13474420D01*
X73550550Y-13474420D01*
X73251155Y-13533974D01*
X72969131Y-13650792D01*
X72715317Y-13820385D01*
X72499465Y-14036237D01*
X72329872Y-14290051D01*
X72213054Y-14572075D01*
X72153500Y-14871470D01*
X70913571Y-14871470D01*
X72922190Y-12862851D01*
X73038566Y-12925056D01*
X73170154Y-12964973D01*
X73307000Y-12978451D01*
X74107000Y-12978451D01*
X74243846Y-12964973D01*
X74375434Y-12925056D01*
X74496705Y-12860235D01*
X74603001Y-12773001D01*
X74660895Y-12702456D01*
X74714954Y-12974225D01*
X74831772Y-13256249D01*
X75001365Y-13510063D01*
X75217217Y-13725915D01*
X75471031Y-13895508D01*
X75753055Y-14012326D01*
X76052450Y-14071880D01*
X76357710Y-14071880D01*
X76657105Y-14012326D01*
X76939129Y-13895508D01*
X77192943Y-13725915D01*
X77408795Y-13510063D01*
X77578388Y-13256249D01*
X77695206Y-12974225D01*
X77754760Y-12674830D01*
X77754760Y-12369570D01*
X77695206Y-12070175D01*
X77578388Y-11788151D01*
X77408795Y-11534337D01*
X77192943Y-11318485D01*
X76939129Y-11148892D01*
X76657105Y-11032074D01*
X76357710Y-10972520D01*
X76052450Y-10972520D01*
X75753055Y-11032074D01*
X75471031Y-11148892D01*
X75217217Y-11318485D01*
X75001365Y-11534337D01*
X74831772Y-11788151D01*
X74808451Y-11844453D01*
X74808451Y-10677000D01*
X74794973Y-10540154D01*
X74755056Y-10408566D01*
X74690235Y-10287295D01*
X74603001Y-10180999D01*
X74496705Y-10093765D01*
X74375434Y-10028944D01*
X74243846Y-9989027D01*
X74107000Y-9975549D01*
X73307000Y-9975549D01*
X73170154Y-9989027D01*
X73038566Y-10028944D01*
X72917295Y-10093765D01*
X72810999Y-10180999D01*
X72723765Y-10287295D01*
X72658944Y-10408566D01*
X72619027Y-10540154D01*
X72605549Y-10677000D01*
X72605549Y-11977410D01*
X72308451Y-12274508D01*
X72308451Y-10677000D01*
X72294973Y-10540154D01*
X72255056Y-10408566D01*
X72190235Y-10287295D01*
X72103001Y-10180999D01*
X71996705Y-10093765D01*
X71875434Y-10028944D01*
X71743846Y-9989027D01*
X71607000Y-9975549D01*
X70807000Y-9975549D01*
X70670154Y-9989027D01*
X70538566Y-10028944D01*
X70417295Y-10093765D01*
X70310999Y-10180999D01*
X70223765Y-10287295D01*
X70158944Y-10408566D01*
X70119027Y-10540154D01*
X70105549Y-10677000D01*
X70105549Y-11464261D01*
X70023448Y-11426081D01*
X68924789Y-12524740D01*
X70023448Y-13623399D01*
X70302538Y-13493612D01*
X70460898Y-13163721D01*
X70524125Y-12917337D01*
X70538566Y-12925056D01*
X70670154Y-12964973D01*
X70807000Y-12978451D01*
X71604509Y-12978451D01*
X69983860Y-14599100D01*
X65206322Y-14599100D01*
X65200946Y-14572075D01*
X65084128Y-14290051D01*
X64914535Y-14036237D01*
X64719486Y-13841188D01*
X67608341Y-13841188D01*
X67738128Y-14120278D01*
X68068019Y-14278638D01*
X68422465Y-14369596D01*
X68787846Y-14389658D01*
X69150120Y-14338052D01*
X69495365Y-14216761D01*
X69675872Y-14120278D01*
X69805659Y-13841188D01*
X68707000Y-12742529D01*
X67608341Y-13841188D01*
X64719486Y-13841188D01*
X64698683Y-13820385D01*
X64444869Y-13650792D01*
X64162845Y-13533974D01*
X63863450Y-13474420D01*
X63558190Y-13474420D01*
X63258795Y-13533974D01*
X62976771Y-13650792D01*
X62722957Y-13820385D01*
X62507105Y-14036237D01*
X62337512Y-14290051D01*
X62220694Y-14572075D01*
X62161140Y-14871470D01*
X49598487Y-14871470D01*
X49579806Y-14777557D01*
X49493116Y-14568271D01*
X49367263Y-14379918D01*
X49207082Y-14219737D01*
X49047338Y-14113000D01*
X49207082Y-14006263D01*
X49367263Y-13846082D01*
X49493116Y-13657729D01*
X49579806Y-13448443D01*
X49624000Y-13226265D01*
X49624000Y-12999735D01*
X49579806Y-12777557D01*
X49493116Y-12568271D01*
X49367263Y-12379918D01*
X49207082Y-12219737D01*
X49018729Y-12093884D01*
X48975685Y-12076054D01*
X51788735Y-12076054D01*
X51978830Y-12406357D01*
X52393976Y-12614686D01*
X52841787Y-12738020D01*
X53305056Y-12771621D01*
X53765978Y-12714197D01*
X54206840Y-12567955D01*
X54509170Y-12406357D01*
X54530341Y-12369570D01*
X59659240Y-12369570D01*
X59659240Y-12674830D01*
X59718794Y-12974225D01*
X59835612Y-13256249D01*
X60005205Y-13510063D01*
X60221057Y-13725915D01*
X60474871Y-13895508D01*
X60756895Y-14012326D01*
X61056290Y-14071880D01*
X61361550Y-14071880D01*
X61660945Y-14012326D01*
X61942969Y-13895508D01*
X62196783Y-13725915D01*
X62412635Y-13510063D01*
X62582228Y-13256249D01*
X62699046Y-12974225D01*
X62753105Y-12702456D01*
X62810999Y-12773001D01*
X62917295Y-12860235D01*
X63038566Y-12925056D01*
X63170154Y-12964973D01*
X63307000Y-12978451D01*
X64107000Y-12978451D01*
X64243846Y-12964973D01*
X64375434Y-12925056D01*
X64496705Y-12860235D01*
X64603001Y-12773001D01*
X64690235Y-12666705D01*
X64755056Y-12545434D01*
X64794973Y-12413846D01*
X64808451Y-12277000D01*
X64808451Y-10677000D01*
X65105549Y-10677000D01*
X65105549Y-12277000D01*
X65119027Y-12413846D01*
X65158944Y-12545434D01*
X65223765Y-12666705D01*
X65310999Y-12773001D01*
X65417295Y-12860235D01*
X65538566Y-12925056D01*
X65670154Y-12964973D01*
X65807000Y-12978451D01*
X66607000Y-12978451D01*
X66743846Y-12964973D01*
X66875434Y-12925056D01*
X66886730Y-12919018D01*
X66893688Y-12967860D01*
X67014979Y-13313105D01*
X67111462Y-13493612D01*
X67390552Y-13623399D01*
X68489211Y-12524740D01*
X67390552Y-11426081D01*
X67308451Y-11464261D01*
X67308451Y-11208292D01*
X67608341Y-11208292D01*
X68707000Y-12306951D01*
X69805659Y-11208292D01*
X69675872Y-10929202D01*
X69345981Y-10770842D01*
X68991535Y-10679884D01*
X68626154Y-10659822D01*
X68263880Y-10711428D01*
X67918635Y-10832719D01*
X67738128Y-10929202D01*
X67608341Y-11208292D01*
X67308451Y-11208292D01*
X67308451Y-10677000D01*
X67294973Y-10540154D01*
X67255056Y-10408566D01*
X67190235Y-10287295D01*
X67103001Y-10180999D01*
X66996705Y-10093765D01*
X66875434Y-10028944D01*
X66743846Y-9989027D01*
X66607000Y-9975549D01*
X65807000Y-9975549D01*
X65670154Y-9989027D01*
X65538566Y-10028944D01*
X65417295Y-10093765D01*
X65310999Y-10180999D01*
X65223765Y-10287295D01*
X65158944Y-10408566D01*
X65119027Y-10540154D01*
X65105549Y-10677000D01*
X64808451Y-10677000D01*
X64794973Y-10540154D01*
X64755056Y-10408566D01*
X64690235Y-10287295D01*
X64603001Y-10180999D01*
X64496705Y-10093765D01*
X64375434Y-10028944D01*
X64243846Y-9989027D01*
X64107000Y-9975549D01*
X63307000Y-9975549D01*
X63170154Y-9989027D01*
X63038566Y-10028944D01*
X62917295Y-10093765D01*
X62810999Y-10180999D01*
X62723765Y-10287295D01*
X62658944Y-10408566D01*
X62619027Y-10540154D01*
X62605549Y-10677000D01*
X62605549Y-11844453D01*
X62582228Y-11788151D01*
X62412635Y-11534337D01*
X62196783Y-11318485D01*
X61942969Y-11148892D01*
X61660945Y-11032074D01*
X61361550Y-10972520D01*
X61056290Y-10972520D01*
X60756895Y-11032074D01*
X60474871Y-11148892D01*
X60221057Y-11318485D01*
X60005205Y-11534337D01*
X59835612Y-11788151D01*
X59718794Y-12070175D01*
X59659240Y-12369570D01*
X54530341Y-12369570D01*
X54699265Y-12076054D01*
X53244000Y-10620789D01*
X51788735Y-12076054D01*
X48975685Y-12076054D01*
X48809443Y-12007194D01*
X48587265Y-11963000D01*
X48360735Y-11963000D01*
X48138557Y-12007194D01*
X47929271Y-12093884D01*
X47740918Y-12219737D01*
X47580737Y-12379918D01*
X47454884Y-12568271D01*
X47387837Y-12730134D01*
X47287587Y-12464248D01*
X47243207Y-12381221D01*
X47004957Y-12299832D01*
X46191789Y-13113000D01*
X46205931Y-13127142D01*
X45988142Y-13344931D01*
X45974000Y-13330789D01*
X45959858Y-13344931D01*
X45742069Y-13127142D01*
X45756211Y-13113000D01*
X44943043Y-12299832D01*
X44704793Y-12381221D01*
X44586417Y-12642891D01*
X44521366Y-12922628D01*
X44512138Y-13209681D01*
X44559089Y-13493018D01*
X44660413Y-13761752D01*
X44704793Y-13844779D01*
X44943041Y-13926167D01*
X44829496Y-14039712D01*
X44878741Y-14088957D01*
X44873353Y-14095523D01*
X44845496Y-14147640D01*
X44828341Y-14204190D01*
X44822549Y-14263000D01*
X44822549Y-15963000D01*
X44828341Y-16021810D01*
X44845496Y-16078360D01*
X44873353Y-16130477D01*
X44910842Y-16176158D01*
X44956523Y-16213647D01*
X45008640Y-16241504D01*
X45065190Y-16258659D01*
X45124000Y-16264451D01*
X45474001Y-16264451D01*
X45474001Y-16338730D01*
X45471581Y-16363300D01*
X45481235Y-16461317D01*
X45503133Y-16533502D01*
X45509826Y-16555567D01*
X45556255Y-16642429D01*
X45618737Y-16718564D01*
X45637819Y-16734224D01*
X46781500Y-17877907D01*
X46781501Y-32592628D01*
X46703039Y-32475201D01*
X46417499Y-32189661D01*
X46081739Y-31965314D01*
X45708663Y-31810780D01*
X45312607Y-31732000D01*
X44908793Y-31732000D01*
X44512737Y-31810780D01*
X44139661Y-31965314D01*
X43803901Y-32189661D01*
X43518361Y-32475201D01*
X43294014Y-32810961D01*
X43139480Y-33184037D01*
X43060700Y-33580093D01*
X43060700Y-33983907D01*
X43139480Y-34379963D01*
X43294014Y-34753039D01*
X43518361Y-35088799D01*
X43803901Y-35374339D01*
X44139661Y-35598686D01*
X44512737Y-35753220D01*
X44908793Y-35832000D01*
X45312607Y-35832000D01*
X45708663Y-35753220D01*
X46081739Y-35598686D01*
X46417499Y-35374339D01*
X46703039Y-35088799D01*
X46781501Y-34971372D01*
X46781501Y-38878100D01*
X40893049Y-38878100D01*
X40868499Y-38875682D01*
X40843949Y-38878100D01*
X40843940Y-38878100D01*
X40770483Y-38885335D01*
X40676233Y-38913925D01*
X40589371Y-38960354D01*
X40513236Y-39022836D01*
X40497580Y-39041913D01*
X39317506Y-40221989D01*
X39289067Y-40128238D01*
X39191567Y-39945829D01*
X39060354Y-39785946D01*
X38900471Y-39654733D01*
X38718061Y-39557233D01*
X38520135Y-39497193D01*
X38314300Y-39476920D01*
X38108464Y-39497193D01*
X37910538Y-39557233D01*
X37728129Y-39654733D01*
X37628700Y-39736333D01*
X37628700Y-33580093D01*
X38564300Y-33580093D01*
X38564300Y-33983907D01*
X38643080Y-34379963D01*
X38797614Y-34753039D01*
X39021961Y-35088799D01*
X39307501Y-35374339D01*
X39643261Y-35598686D01*
X40016337Y-35753220D01*
X40412393Y-35832000D01*
X40816207Y-35832000D01*
X41212263Y-35753220D01*
X41585339Y-35598686D01*
X41921099Y-35374339D01*
X42206639Y-35088799D01*
X42430986Y-34753039D01*
X42585520Y-34379963D01*
X42664300Y-33983907D01*
X42664300Y-33580093D01*
X42585520Y-33184037D01*
X42430986Y-32810961D01*
X42206639Y-32475201D01*
X41921099Y-32189661D01*
X41585339Y-31965314D01*
X41212263Y-31810780D01*
X40816207Y-31732000D01*
X40412393Y-31732000D01*
X40016337Y-31810780D01*
X39643261Y-31965314D01*
X39307501Y-32189661D01*
X39021961Y-32475201D01*
X38797614Y-32810961D01*
X38643080Y-33184037D01*
X38564300Y-33580093D01*
X37628700Y-33580093D01*
X37628700Y-24985666D01*
X37630755Y-24964799D01*
X37628700Y-24943932D01*
X37628700Y-24943926D01*
X37622550Y-24881486D01*
X37598248Y-24801373D01*
X37558784Y-24727540D01*
X37505674Y-24662826D01*
X37489463Y-24649522D01*
X28770800Y-15930860D01*
X28770800Y-15818927D01*
X28853518Y-15827074D01*
X28874392Y-15825018D01*
X29242093Y-15825018D01*
X29256274Y-15846242D01*
X29353776Y-15943744D01*
X29468426Y-16020350D01*
X29595818Y-16073117D01*
X29731056Y-16100018D01*
X29868944Y-16100018D01*
X30004182Y-16073117D01*
X30131574Y-16020350D01*
X30246224Y-15943744D01*
X30343726Y-15846242D01*
X30420332Y-15731592D01*
X30473099Y-15604200D01*
X30500000Y-15468962D01*
X30500000Y-15331074D01*
X30473099Y-15195836D01*
X30420332Y-15068444D01*
X30343726Y-14953794D01*
X30246224Y-14856292D01*
X30131574Y-14779686D01*
X30004182Y-14726919D01*
X29868944Y-14700018D01*
X29731056Y-14700018D01*
X29595818Y-14726919D01*
X29468426Y-14779686D01*
X29353776Y-14856292D01*
X29256274Y-14953794D01*
X29242093Y-14975018D01*
X29029558Y-14975018D01*
X26130594Y-12076054D01*
X39748735Y-12076054D01*
X39938830Y-12406357D01*
X40353976Y-12614686D01*
X40801787Y-12738020D01*
X41265056Y-12771621D01*
X41725978Y-12714197D01*
X42166840Y-12567955D01*
X42469170Y-12406357D01*
X42655818Y-12082043D01*
X45160832Y-12082043D01*
X45974000Y-12895211D01*
X46787168Y-12082043D01*
X46705779Y-11843793D01*
X46444109Y-11725417D01*
X46164372Y-11660366D01*
X45877319Y-11651138D01*
X45593982Y-11698089D01*
X45325248Y-11799413D01*
X45242221Y-11843793D01*
X45160832Y-12082043D01*
X42655818Y-12082043D01*
X42659265Y-12076054D01*
X41204000Y-10620789D01*
X39748735Y-12076054D01*
X26130594Y-12076054D01*
X24518596Y-10464056D01*
X38835379Y-10464056D01*
X38892803Y-10924978D01*
X39039045Y-11365840D01*
X39200643Y-11668170D01*
X39530946Y-11858265D01*
X40986211Y-10403000D01*
X41421789Y-10403000D01*
X42877054Y-11858265D01*
X43207357Y-11668170D01*
X43415686Y-11253024D01*
X43539020Y-10805213D01*
X43563764Y-10464056D01*
X50875379Y-10464056D01*
X50932803Y-10924978D01*
X51079045Y-11365840D01*
X51240643Y-11668170D01*
X51570946Y-11858265D01*
X53026211Y-10403000D01*
X53461789Y-10403000D01*
X54917054Y-11858265D01*
X55247357Y-11668170D01*
X55455686Y-11253024D01*
X55579020Y-10805213D01*
X55612621Y-10341944D01*
X55555197Y-9881022D01*
X55408955Y-9440160D01*
X55247357Y-9137830D01*
X54917054Y-8947735D01*
X53461789Y-10403000D01*
X53026211Y-10403000D01*
X51570946Y-8947735D01*
X51240643Y-9137830D01*
X51032314Y-9552976D01*
X50908980Y-10000787D01*
X50875379Y-10464056D01*
X43563764Y-10464056D01*
X43572621Y-10341944D01*
X43515197Y-9881022D01*
X43368955Y-9440160D01*
X43207357Y-9137830D01*
X42877054Y-8947735D01*
X41421789Y-10403000D01*
X40986211Y-10403000D01*
X39530946Y-8947735D01*
X39200643Y-9137830D01*
X38992314Y-9552976D01*
X38868980Y-10000787D01*
X38835379Y-10464056D01*
X24518596Y-10464056D01*
X22784486Y-8729946D01*
X39748735Y-8729946D01*
X41204000Y-10185211D01*
X42659265Y-8729946D01*
X51788735Y-8729946D01*
X53244000Y-10185211D01*
X54699265Y-8729946D01*
X54509170Y-8399643D01*
X54094024Y-8191314D01*
X53646213Y-8067980D01*
X53182944Y-8034379D01*
X52722022Y-8091803D01*
X52281160Y-8238045D01*
X51978830Y-8399643D01*
X51788735Y-8729946D01*
X42659265Y-8729946D01*
X42469170Y-8399643D01*
X42054024Y-8191314D01*
X41606213Y-8067980D01*
X41142944Y-8034379D01*
X40682022Y-8091803D01*
X40241160Y-8238045D01*
X39938830Y-8399643D01*
X39748735Y-8729946D01*
X22784486Y-8729946D01*
X18962596Y-4908056D01*
X20579200Y-4908056D01*
X20579200Y-5045944D01*
X20606101Y-5181182D01*
X20658868Y-5308574D01*
X20735474Y-5423224D01*
X20832976Y-5520726D01*
X20947626Y-5597332D01*
X21075018Y-5650099D01*
X21210256Y-5677000D01*
X21348144Y-5677000D01*
X21483382Y-5650099D01*
X21610774Y-5597332D01*
X21725424Y-5520726D01*
X21822926Y-5423224D01*
X21837107Y-5402000D01*
X22417460Y-5402000D01*
X23919580Y-6904121D01*
X23914600Y-6929156D01*
X23914600Y-7067044D01*
X23941501Y-7202282D01*
X23994268Y-7329674D01*
X24070874Y-7444324D01*
X24168376Y-7541826D01*
X24283026Y-7618432D01*
X24410418Y-7671199D01*
X24545656Y-7698100D01*
X24683544Y-7698100D01*
X24818782Y-7671199D01*
X24946174Y-7618432D01*
X25060824Y-7541826D01*
X25158326Y-7444324D01*
X25234932Y-7329674D01*
X25256750Y-7277000D01*
X66896058Y-7277000D01*
X66907797Y-7396189D01*
X66942563Y-7510797D01*
X66999020Y-7616421D01*
X67074999Y-7709001D01*
X67167579Y-7784980D01*
X67273203Y-7841437D01*
X67387811Y-7876203D01*
X67507000Y-7887942D01*
X68401000Y-7885000D01*
X68553000Y-7733000D01*
X68553000Y-6631000D01*
X68861000Y-6631000D01*
X68861000Y-7733000D01*
X69013000Y-7885000D01*
X69907000Y-7887942D01*
X70026189Y-7876203D01*
X70140797Y-7841437D01*
X70246421Y-7784980D01*
X70339001Y-7709001D01*
X70414980Y-7616421D01*
X70471437Y-7510797D01*
X70506203Y-7396189D01*
X70517942Y-7277000D01*
X70515000Y-6783000D01*
X70363000Y-6631000D01*
X68861000Y-6631000D01*
X68553000Y-6631000D01*
X67051000Y-6631000D01*
X66899000Y-6783000D01*
X66896058Y-7277000D01*
X25256750Y-7277000D01*
X25287699Y-7202282D01*
X25314600Y-7067044D01*
X25314600Y-6929156D01*
X25287699Y-6793918D01*
X25234932Y-6666526D01*
X25158326Y-6551876D01*
X25060824Y-6454374D01*
X24946174Y-6377768D01*
X24818782Y-6325001D01*
X24683544Y-6298100D01*
X24545656Y-6298100D01*
X24520621Y-6303080D01*
X23894541Y-5677000D01*
X66896058Y-5677000D01*
X66899000Y-6171000D01*
X67051000Y-6323000D01*
X68553000Y-6323000D01*
X68553000Y-5221000D01*
X68861000Y-5221000D01*
X68861000Y-6323000D01*
X70363000Y-6323000D01*
X70425178Y-6260822D01*
X79681967Y-6260822D01*
X80046294Y-6739654D01*
X80708182Y-7092601D01*
X81426208Y-7309637D01*
X82172779Y-7382423D01*
X82919204Y-7308162D01*
X83636800Y-7089708D01*
X84291706Y-6739654D01*
X84656033Y-6260822D01*
X82169000Y-3773789D01*
X79681967Y-6260822D01*
X70425178Y-6260822D01*
X70515000Y-6171000D01*
X70517942Y-5677000D01*
X70506203Y-5557811D01*
X70471437Y-5443203D01*
X70414980Y-5337579D01*
X70339001Y-5244999D01*
X70246421Y-5169020D01*
X70140797Y-5112563D01*
X70026189Y-5077797D01*
X69907000Y-5066058D01*
X69013000Y-5069000D01*
X68861000Y-5221000D01*
X68553000Y-5221000D01*
X68401000Y-5069000D01*
X67507000Y-5066058D01*
X67387811Y-5077797D01*
X67273203Y-5112563D01*
X67167579Y-5169020D01*
X67074999Y-5244999D01*
X66999020Y-5337579D01*
X66942563Y-5443203D01*
X66907797Y-5557811D01*
X66896058Y-5677000D01*
X23894541Y-5677000D01*
X22908783Y-4691243D01*
X22895474Y-4675026D01*
X22830760Y-4621916D01*
X22756927Y-4582452D01*
X22676814Y-4558150D01*
X22614374Y-4552000D01*
X22614367Y-4552000D01*
X22593500Y-4549945D01*
X22572633Y-4552000D01*
X21837107Y-4552000D01*
X21822926Y-4530776D01*
X21725424Y-4433274D01*
X21610774Y-4356668D01*
X21483382Y-4303901D01*
X21348144Y-4277000D01*
X21210256Y-4277000D01*
X21075018Y-4303901D01*
X20947626Y-4356668D01*
X20832976Y-4433274D01*
X20735474Y-4530776D01*
X20658868Y-4645426D01*
X20606101Y-4772818D01*
X20579200Y-4908056D01*
X18962596Y-4908056D01*
X18701620Y-4647080D01*
X18706600Y-4622044D01*
X18706600Y-4484156D01*
X18679699Y-4348918D01*
X18626932Y-4221526D01*
X18550326Y-4106876D01*
X18452824Y-4009374D01*
X18338174Y-3932768D01*
X18210782Y-3880001D01*
X18075544Y-3853100D01*
X17937656Y-3853100D01*
X17802418Y-3880001D01*
X17675026Y-3932768D01*
X17560376Y-4009374D01*
X17462874Y-4106876D01*
X17386268Y-4221526D01*
X17333501Y-4348918D01*
X17306600Y-4484156D01*
X17306600Y-4622044D01*
X17333501Y-4757282D01*
X17386268Y-4884674D01*
X17462874Y-4999324D01*
X17560376Y-5096826D01*
X17675026Y-5173432D01*
X17802418Y-5226199D01*
X17937656Y-5253100D01*
X18075544Y-5253100D01*
X18100580Y-5248120D01*
X18295760Y-5443300D01*
X14775207Y-5443300D01*
X14761026Y-5422076D01*
X14663524Y-5324574D01*
X14548874Y-5247968D01*
X14421482Y-5195201D01*
X14286244Y-5168300D01*
X14148356Y-5168300D01*
X14013118Y-5195201D01*
X13885726Y-5247968D01*
X13771076Y-5324574D01*
X13673574Y-5422076D01*
X13596968Y-5536726D01*
X13544201Y-5664118D01*
X13517300Y-5799356D01*
X13517300Y-5937244D01*
X13544201Y-6072482D01*
X13596968Y-6199874D01*
X13673574Y-6314524D01*
X13771076Y-6412026D01*
X13885726Y-6488632D01*
X14013118Y-6541399D01*
X14148356Y-6568300D01*
X14286244Y-6568300D01*
X14421482Y-6541399D01*
X14548874Y-6488632D01*
X14663524Y-6412026D01*
X14761026Y-6314524D01*
X14775207Y-6293300D01*
X18494460Y-6293300D01*
X21018445Y-8817285D01*
X20903326Y-8864968D01*
X20788676Y-8941574D01*
X20691174Y-9039076D01*
X20614568Y-9153726D01*
X20606007Y-9174395D01*
X20535774Y-9127468D01*
X20408382Y-9074701D01*
X20273144Y-9047800D01*
X20135256Y-9047800D01*
X20000018Y-9074701D01*
X19903900Y-9114514D01*
X19903900Y-8770166D01*
X19905955Y-8749299D01*
X19903900Y-8728432D01*
X19903900Y-8728426D01*
X19897750Y-8665986D01*
X19873448Y-8585873D01*
X19833984Y-8512040D01*
X19780874Y-8447326D01*
X19764663Y-8434022D01*
X19249420Y-7918780D01*
X19254400Y-7893744D01*
X19254400Y-7755856D01*
X19227499Y-7620618D01*
X19174732Y-7493226D01*
X19098126Y-7378576D01*
X19000624Y-7281074D01*
X18885974Y-7204468D01*
X18758582Y-7151701D01*
X18623344Y-7124800D01*
X18485456Y-7124800D01*
X18350218Y-7151701D01*
X18222826Y-7204468D01*
X18108176Y-7281074D01*
X18010674Y-7378576D01*
X18000721Y-7393471D01*
X17934224Y-7326974D01*
X17819574Y-7250368D01*
X17692182Y-7197601D01*
X17556944Y-7170700D01*
X17419056Y-7170700D01*
X17283818Y-7197601D01*
X17156426Y-7250368D01*
X17041776Y-7326974D01*
X16944274Y-7424476D01*
X16867668Y-7539126D01*
X16814901Y-7666518D01*
X16788000Y-7801756D01*
X16788000Y-7939644D01*
X16814901Y-8074882D01*
X16861756Y-8188000D01*
X16791156Y-8188000D01*
X16655918Y-8214901D01*
X16528526Y-8267668D01*
X16413876Y-8344274D01*
X16316374Y-8441776D01*
X16239768Y-8556426D01*
X16187001Y-8683818D01*
X16160100Y-8819056D01*
X16160100Y-8880894D01*
X15975095Y-9065900D01*
X15497760Y-9065900D01*
X15473200Y-9063481D01*
X15448640Y-9065900D01*
X7540646Y-9065900D01*
X7498429Y-9031254D01*
X7411567Y-8984825D01*
X7317317Y-8956235D01*
X7243860Y-8949000D01*
X7219300Y-8946581D01*
X7194740Y-8949000D01*
X7006644Y-8949000D01*
X6988116Y-8904271D01*
X6862263Y-8715918D01*
X6702082Y-8555737D01*
X6513729Y-8429884D01*
X6304443Y-8343194D01*
X6082265Y-8299000D01*
X5855735Y-8299000D01*
X5633557Y-8343194D01*
X5424271Y-8429884D01*
X5235918Y-8555737D01*
X5075737Y-8715918D01*
X4949884Y-8904271D01*
X4863194Y-9113557D01*
X4819000Y-9335735D01*
X4819000Y-9562265D01*
X4863194Y-9784443D01*
X4949884Y-9993729D01*
X5075737Y-10182082D01*
X5235918Y-10342263D01*
X5306146Y-10389188D01*
X5289317Y-10403000D01*
X5272226Y-10417026D01*
X5258921Y-10433238D01*
X4367916Y-11324243D01*
X4322263Y-11255918D01*
X4162082Y-11095737D01*
X3973729Y-10969884D01*
X3765851Y-10883777D01*
X3784084Y-10861560D01*
X3823548Y-10787727D01*
X3847850Y-10707614D01*
X3856056Y-10624300D01*
X3854000Y-10603426D01*
X3854000Y-10600451D01*
X4279000Y-10600451D01*
X4337810Y-10594659D01*
X4394360Y-10577504D01*
X4446477Y-10549647D01*
X4492158Y-10512158D01*
X4529647Y-10466477D01*
X4557504Y-10414360D01*
X4574659Y-10357810D01*
X4580451Y-10299000D01*
X4580451Y-8599000D01*
X4574659Y-8540190D01*
X4557504Y-8483640D01*
X4529647Y-8431523D01*
X4492158Y-8385842D01*
X4446477Y-8348353D01*
X4394360Y-8320496D01*
X4337810Y-8303341D01*
X4279000Y-8297549D01*
X2579000Y-8297549D01*
X2520190Y-8303341D01*
X2463640Y-8320496D01*
X2411523Y-8348353D01*
X2365842Y-8385842D01*
X2328353Y-8431523D01*
X2300496Y-8483640D01*
X2283341Y-8540190D01*
X2277549Y-8599000D01*
X2277549Y-10299000D01*
X2283341Y-10357810D01*
X2300496Y-10414360D01*
X2328353Y-10466477D01*
X2365842Y-10512158D01*
X2411523Y-10549647D01*
X2463640Y-10577504D01*
X2497258Y-10587702D01*
X541844Y-12543116D01*
X525626Y-12556426D01*
X472516Y-12621141D01*
X433052Y-12694974D01*
X408750Y-12775087D01*
X402600Y-12837527D01*
X402600Y-12837533D01*
X400545Y-12858400D01*
X375000Y-12858400D01*
X375000Y-6260822D01*
X1068967Y-6260822D01*
X1433294Y-6739654D01*
X2095182Y-7092601D01*
X2813208Y-7309637D01*
X3559779Y-7382423D01*
X4306204Y-7308162D01*
X5023800Y-7089708D01*
X5678706Y-6739654D01*
X6043033Y-6260822D01*
X3556000Y-3773789D01*
X1068967Y-6260822D01*
X375000Y-6260822D01*
X375000Y-5680725D01*
X851178Y-6043033D01*
X3338211Y-3556000D01*
X3773789Y-3556000D01*
X6260822Y-6043033D01*
X6739654Y-5678706D01*
X7092601Y-5016818D01*
X7309637Y-4298792D01*
X7382423Y-3552221D01*
X7308162Y-2805796D01*
X7176917Y-2374670D01*
X62156060Y-2374670D01*
X62156060Y-2679930D01*
X62215614Y-2979325D01*
X62332432Y-3261349D01*
X62502025Y-3515163D01*
X62717877Y-3731015D01*
X62971691Y-3900608D01*
X63253715Y-4017426D01*
X63553110Y-4076980D01*
X63858370Y-4076980D01*
X64157765Y-4017426D01*
X64439789Y-3900608D01*
X64693603Y-3731015D01*
X64909455Y-3515163D01*
X65079048Y-3261349D01*
X65195866Y-2979325D01*
X65255420Y-2679930D01*
X65255420Y-2374670D01*
X72158580Y-2374670D01*
X72158580Y-2679930D01*
X72218134Y-2979325D01*
X72334952Y-3261349D01*
X72504545Y-3515163D01*
X72720397Y-3731015D01*
X72974211Y-3900608D01*
X73256235Y-4017426D01*
X73555630Y-4076980D01*
X73860890Y-4076980D01*
X74160285Y-4017426D01*
X74442309Y-3900608D01*
X74696123Y-3731015D01*
X74867359Y-3559779D01*
X78342577Y-3559779D01*
X78416838Y-4306204D01*
X78635292Y-5023800D01*
X78985346Y-5678706D01*
X79464178Y-6043033D01*
X81951211Y-3556000D01*
X79464178Y-1068967D01*
X78985346Y-1433294D01*
X78632399Y-2095182D01*
X78415363Y-2813208D01*
X78342577Y-3559779D01*
X74867359Y-3559779D01*
X74911975Y-3515163D01*
X75081568Y-3261349D01*
X75198386Y-2979325D01*
X75257940Y-2679930D01*
X75257940Y-2374670D01*
X75198386Y-2075275D01*
X75081568Y-1793251D01*
X74911975Y-1539437D01*
X74696123Y-1323585D01*
X74442309Y-1153992D01*
X74160285Y-1037174D01*
X73860890Y-977620D01*
X73555630Y-977620D01*
X73256235Y-1037174D01*
X72974211Y-1153992D01*
X72720397Y-1323585D01*
X72504545Y-1539437D01*
X72334952Y-1793251D01*
X72218134Y-2075275D01*
X72158580Y-2374670D01*
X65255420Y-2374670D01*
X65195866Y-2075275D01*
X65079048Y-1793251D01*
X64909455Y-1539437D01*
X64693603Y-1323585D01*
X64439789Y-1153992D01*
X64157765Y-1037174D01*
X63858370Y-977620D01*
X63553110Y-977620D01*
X63253715Y-1037174D01*
X62971691Y-1153992D01*
X62717877Y-1323585D01*
X62502025Y-1539437D01*
X62332432Y-1793251D01*
X62215614Y-2075275D01*
X62156060Y-2374670D01*
X7176917Y-2374670D01*
X7089708Y-2088200D01*
X6739654Y-1433294D01*
X6260822Y-1068967D01*
X3773789Y-3556000D01*
X3338211Y-3556000D01*
X3324069Y-3541858D01*
X3541858Y-3324069D01*
X3556000Y-3338211D01*
X6043033Y-851178D01*
X5680725Y-375000D01*
X80044275Y-375000D01*
X79681967Y-851178D01*
G04 #@! TA.AperFunction,Conductor*
D23*
G36*
X79681967Y-851178D02*
G01*
X82169000Y-3338211D01*
X82183142Y-3324069D01*
X82400931Y-3541858D01*
X82386789Y-3556000D01*
X84873822Y-6043033D01*
X85350000Y-5680725D01*
X85350001Y-48294275D01*
X84873822Y-47931967D01*
X82386789Y-50419000D01*
X82400931Y-50433142D01*
X82183142Y-50650931D01*
X82169000Y-50636789D01*
X79681967Y-53123822D01*
X80044275Y-53600000D01*
X5680725Y-53600000D01*
X6043033Y-53123822D01*
X3556000Y-50636789D01*
X3541858Y-50650931D01*
X3324069Y-50433142D01*
X3338211Y-50419000D01*
X3773789Y-50419000D01*
X6260822Y-52906033D01*
X6739654Y-52541706D01*
X7092601Y-51879818D01*
X7309637Y-51161792D01*
X7381686Y-50422779D01*
X78342577Y-50422779D01*
X78416838Y-51169204D01*
X78635292Y-51886800D01*
X78985346Y-52541706D01*
X79464178Y-52906033D01*
X81951211Y-50419000D01*
X79464178Y-47931967D01*
X78985346Y-48296294D01*
X78632399Y-48958182D01*
X78415363Y-49676208D01*
X78342577Y-50422779D01*
X7381686Y-50422779D01*
X7382423Y-50415221D01*
X7308162Y-49668796D01*
X7089708Y-48951200D01*
X6739654Y-48296294D01*
X6260822Y-47931967D01*
X3773789Y-50419000D01*
X3338211Y-50419000D01*
X851178Y-47931967D01*
X375000Y-48294275D01*
X375000Y-47714178D01*
X1068967Y-47714178D01*
X3556000Y-50201211D01*
X6043033Y-47714178D01*
X79681967Y-47714178D01*
X82169000Y-50201211D01*
X84656033Y-47714178D01*
X84291706Y-47235346D01*
X83629818Y-46882399D01*
X82911792Y-46665363D01*
X82165221Y-46592577D01*
X81418796Y-46666838D01*
X80701200Y-46885292D01*
X80046294Y-47235346D01*
X79681967Y-47714178D01*
X6043033Y-47714178D01*
X5678706Y-47235346D01*
X5016818Y-46882399D01*
X4298792Y-46665363D01*
X3552221Y-46592577D01*
X2805796Y-46666838D01*
X2088200Y-46885292D01*
X1433294Y-47235346D01*
X1068967Y-47714178D01*
X375000Y-47714178D01*
X375000Y-41277469D01*
X3759740Y-41277469D01*
X3809016Y-41540839D01*
X3908726Y-41789535D01*
X4055038Y-42014000D01*
X4242330Y-42205608D01*
X4463404Y-42356996D01*
X4709765Y-42462345D01*
X4758228Y-42467538D01*
X4967400Y-42355127D01*
X4967400Y-41063000D01*
X5275400Y-41063000D01*
X5275400Y-42355127D01*
X5484572Y-42467538D01*
X5533035Y-42462345D01*
X5779396Y-42356996D01*
X6000470Y-42205608D01*
X6187762Y-42014000D01*
X6334074Y-41789535D01*
X6433784Y-41540839D01*
X6483060Y-41277469D01*
X6332828Y-41063000D01*
X5275400Y-41063000D01*
X4967400Y-41063000D01*
X3909972Y-41063000D01*
X3759740Y-41277469D01*
X375000Y-41277469D01*
X375000Y-40540531D01*
X3759740Y-40540531D01*
X3909972Y-40755000D01*
X4967400Y-40755000D01*
X4967400Y-39462873D01*
X5275400Y-39462873D01*
X5275400Y-40755000D01*
X6332828Y-40755000D01*
X6483060Y-40540531D01*
X6433784Y-40277161D01*
X6334074Y-40028465D01*
X6187762Y-39804000D01*
X6000470Y-39612392D01*
X5779396Y-39461004D01*
X5533035Y-39355655D01*
X5484572Y-39350462D01*
X5275400Y-39462873D01*
X4967400Y-39462873D01*
X4758228Y-39350462D01*
X4709765Y-39355655D01*
X4463404Y-39461004D01*
X4242330Y-39612392D01*
X4055038Y-39804000D01*
X3908726Y-40028465D01*
X3809016Y-40277161D01*
X3759740Y-40540531D01*
X375000Y-40540531D01*
X375000Y-33707093D01*
X771400Y-33707093D01*
X771400Y-34110907D01*
X850180Y-34506963D01*
X1004714Y-34880039D01*
X1229061Y-35215799D01*
X1514601Y-35501339D01*
X1850361Y-35725686D01*
X2223437Y-35880220D01*
X2619493Y-35959000D01*
X3023307Y-35959000D01*
X3419363Y-35880220D01*
X3792439Y-35725686D01*
X4128199Y-35501339D01*
X4413739Y-35215799D01*
X4638086Y-34880039D01*
X4792620Y-34506963D01*
X4871400Y-34110907D01*
X4871400Y-33707093D01*
X4792620Y-33311037D01*
X4638086Y-32937961D01*
X4413739Y-32602201D01*
X4128199Y-32316661D01*
X3792439Y-32092314D01*
X3419363Y-31937780D01*
X3023307Y-31859000D01*
X2619493Y-31859000D01*
X2223437Y-31937780D01*
X1850361Y-32092314D01*
X1514601Y-32316661D01*
X1229061Y-32602201D01*
X1004714Y-32937961D01*
X850180Y-33311037D01*
X771400Y-33707093D01*
X375000Y-33707093D01*
X375000Y-31123369D01*
X1636420Y-31123369D01*
X1705638Y-31351427D01*
X1950213Y-31459782D01*
X2211227Y-31518341D01*
X2478650Y-31524853D01*
X2742205Y-31479069D01*
X2991764Y-31382747D01*
X3050362Y-31351427D01*
X3119580Y-31123369D01*
X2378000Y-30381789D01*
X1636420Y-31123369D01*
X375000Y-31123369D01*
X375000Y-30264650D01*
X1017147Y-30264650D01*
X1062931Y-30528205D01*
X1159253Y-30777764D01*
X1190573Y-30836362D01*
X1418631Y-30905580D01*
X2160211Y-30164000D01*
X1418631Y-29422420D01*
X1190573Y-29491638D01*
X1082218Y-29736213D01*
X1023659Y-29997227D01*
X1017147Y-30264650D01*
X375000Y-30264650D01*
X375000Y-12858400D01*
X400545Y-12858400D01*
X402600Y-12879267D01*
X402601Y-23512723D01*
X400545Y-23533600D01*
X408750Y-23616914D01*
X433053Y-23697027D01*
X472517Y-23770860D01*
X525627Y-23835574D01*
X541839Y-23848879D01*
X1398324Y-24705364D01*
X1368350Y-24777726D01*
X1328000Y-24980584D01*
X1328000Y-25187416D01*
X1368350Y-25390274D01*
X1398324Y-25462636D01*
X973043Y-25887917D01*
X956826Y-25901226D01*
X903716Y-25965941D01*
X864252Y-26039774D01*
X839950Y-26119887D01*
X833800Y-26182327D01*
X833800Y-26182333D01*
X831745Y-26203200D01*
X833800Y-26224067D01*
X833801Y-28004623D01*
X831745Y-28025500D01*
X839950Y-28108814D01*
X864253Y-28188927D01*
X903717Y-28262760D01*
X928810Y-28293336D01*
X940472Y-28307545D01*
X956827Y-28327474D01*
X973039Y-28340779D01*
X1652619Y-29020360D01*
X1665926Y-29036574D01*
X1683139Y-29050701D01*
X1636420Y-29204631D01*
X2378000Y-29946211D01*
X2392142Y-29932069D01*
X2609931Y-30149858D01*
X2595789Y-30164000D01*
X3337369Y-30905580D01*
X3565427Y-30836362D01*
X3673782Y-30591787D01*
X3683304Y-30549344D01*
X8446400Y-35312441D01*
X8446401Y-40009143D01*
X8367454Y-39912946D01*
X8207571Y-39781733D01*
X8025161Y-39684233D01*
X7827235Y-39624193D01*
X7621400Y-39603920D01*
X7415564Y-39624193D01*
X7217638Y-39684233D01*
X7035229Y-39781733D01*
X6875346Y-39912946D01*
X6744133Y-40072829D01*
X6646633Y-40255239D01*
X6586593Y-40453165D01*
X6571400Y-40607423D01*
X6571400Y-41210578D01*
X6586593Y-41364836D01*
X6646633Y-41562762D01*
X6744134Y-41745171D01*
X6875347Y-41905054D01*
X7035230Y-42036267D01*
X7217639Y-42133767D01*
X7415565Y-42193807D01*
X7621400Y-42214080D01*
X7827236Y-42193807D01*
X8025162Y-42133767D01*
X8207571Y-42036267D01*
X8367454Y-41905054D01*
X8498667Y-41745171D01*
X8514791Y-41715005D01*
X8516317Y-41717860D01*
X8569427Y-41782574D01*
X8585639Y-41795879D01*
X12068321Y-45278562D01*
X12081626Y-45294774D01*
X12146340Y-45347884D01*
X12220173Y-45387348D01*
X12275983Y-45404278D01*
X12300285Y-45411650D01*
X12307927Y-45412403D01*
X12362726Y-45417800D01*
X12362733Y-45417800D01*
X12383600Y-45419855D01*
X12404467Y-45417800D01*
X54866378Y-45417800D01*
X54910726Y-45447432D01*
X55038118Y-45500199D01*
X55173356Y-45527100D01*
X55311244Y-45527100D01*
X55446482Y-45500199D01*
X55573874Y-45447432D01*
X55688524Y-45370826D01*
X55786026Y-45273324D01*
X55862632Y-45158674D01*
X55915399Y-45031282D01*
X55942300Y-44896044D01*
X55942300Y-44758156D01*
X55915399Y-44622918D01*
X55862632Y-44495526D01*
X55786026Y-44380876D01*
X55688524Y-44283374D01*
X55573874Y-44206768D01*
X55446482Y-44154001D01*
X55311244Y-44127100D01*
X55173356Y-44127100D01*
X55038118Y-44154001D01*
X54910726Y-44206768D01*
X54796076Y-44283374D01*
X54698574Y-44380876D01*
X54621968Y-44495526D01*
X54592031Y-44567800D01*
X25920386Y-44567800D01*
X25960199Y-44471682D01*
X25987100Y-44336444D01*
X25987100Y-44198556D01*
X25960199Y-44063318D01*
X25907432Y-43935926D01*
X25830826Y-43821276D01*
X25733324Y-43723774D01*
X25618674Y-43647168D01*
X25491282Y-43594401D01*
X25356044Y-43567500D01*
X25218156Y-43567500D01*
X25193121Y-43572480D01*
X23554000Y-41933360D01*
X23554000Y-41845475D01*
X23631730Y-41909267D01*
X23814139Y-42006767D01*
X24012065Y-42066807D01*
X24217900Y-42087080D01*
X24423736Y-42066807D01*
X24621662Y-42006767D01*
X24804071Y-41909267D01*
X24963954Y-41778054D01*
X25095167Y-41618171D01*
X25192667Y-41435761D01*
X25252707Y-41237835D01*
X25261311Y-41150469D01*
X31952640Y-41150469D01*
X32001916Y-41413839D01*
X32101626Y-41662535D01*
X32247938Y-41887000D01*
X32435230Y-42078608D01*
X32656304Y-42229996D01*
X32902665Y-42335345D01*
X32951128Y-42340538D01*
X33160300Y-42228127D01*
X33160300Y-40936000D01*
X33468300Y-40936000D01*
X33468300Y-42228127D01*
X33677472Y-42340538D01*
X33725935Y-42335345D01*
X33972296Y-42229996D01*
X34193370Y-42078608D01*
X34380662Y-41887000D01*
X34526974Y-41662535D01*
X34626684Y-41413839D01*
X34675960Y-41150469D01*
X34525728Y-40936000D01*
X33468300Y-40936000D01*
X33160300Y-40936000D01*
X32102872Y-40936000D01*
X31952640Y-41150469D01*
X25261311Y-41150469D01*
X25267900Y-41083577D01*
X25267900Y-40480422D01*
X25261312Y-40413531D01*
X31952640Y-40413531D01*
X32102872Y-40628000D01*
X33160300Y-40628000D01*
X33160300Y-39335873D01*
X33468300Y-39335873D01*
X33468300Y-40628000D01*
X34525728Y-40628000D01*
X34675960Y-40413531D01*
X34626684Y-40150161D01*
X34526974Y-39901465D01*
X34380662Y-39677000D01*
X34193370Y-39485392D01*
X33972296Y-39334004D01*
X33725935Y-39228655D01*
X33677472Y-39223462D01*
X33468300Y-39335873D01*
X33160300Y-39335873D01*
X32951128Y-39223462D01*
X32902665Y-39228655D01*
X32656304Y-39334004D01*
X32435230Y-39485392D01*
X32247938Y-39677000D01*
X32101626Y-39901465D01*
X32001916Y-40150161D01*
X31952640Y-40413531D01*
X25261312Y-40413531D01*
X25252707Y-40326164D01*
X25192667Y-40128238D01*
X25095167Y-39945829D01*
X24963954Y-39785946D01*
X24804071Y-39654733D01*
X24621661Y-39557233D01*
X24423735Y-39497193D01*
X24217900Y-39476920D01*
X24012064Y-39497193D01*
X23814138Y-39557233D01*
X23631729Y-39654733D01*
X23554000Y-39718524D01*
X23554000Y-33580093D01*
X24467900Y-33580093D01*
X24467900Y-33983907D01*
X24546680Y-34379963D01*
X24701214Y-34753039D01*
X24925561Y-35088799D01*
X25211101Y-35374339D01*
X25546861Y-35598686D01*
X25919937Y-35753220D01*
X26315993Y-35832000D01*
X26719807Y-35832000D01*
X27115863Y-35753220D01*
X27488939Y-35598686D01*
X27824699Y-35374339D01*
X28110239Y-35088799D01*
X28334586Y-34753039D01*
X28489120Y-34379963D01*
X28567900Y-33983907D01*
X28567900Y-33580093D01*
X28964300Y-33580093D01*
X28964300Y-33983907D01*
X29043080Y-34379963D01*
X29197614Y-34753039D01*
X29421961Y-35088799D01*
X29707501Y-35374339D01*
X30043261Y-35598686D01*
X30416337Y-35753220D01*
X30812393Y-35832000D01*
X31216207Y-35832000D01*
X31612263Y-35753220D01*
X31985339Y-35598686D01*
X32321099Y-35374339D01*
X32606639Y-35088799D01*
X32830986Y-34753039D01*
X32985520Y-34379963D01*
X33064300Y-33983907D01*
X33064300Y-33580093D01*
X32985520Y-33184037D01*
X32830986Y-32810961D01*
X32606639Y-32475201D01*
X32321099Y-32189661D01*
X31985339Y-31965314D01*
X31612263Y-31810780D01*
X31216207Y-31732000D01*
X30812393Y-31732000D01*
X30416337Y-31810780D01*
X30043261Y-31965314D01*
X29707501Y-32189661D01*
X29421961Y-32475201D01*
X29197614Y-32810961D01*
X29043080Y-33184037D01*
X28964300Y-33580093D01*
X28567900Y-33580093D01*
X28489120Y-33184037D01*
X28334586Y-32810961D01*
X28110239Y-32475201D01*
X27824699Y-32189661D01*
X27488939Y-31965314D01*
X27115863Y-31810780D01*
X26719807Y-31732000D01*
X26315993Y-31732000D01*
X25919937Y-31810780D01*
X25546861Y-31965314D01*
X25211101Y-32189661D01*
X24925561Y-32475201D01*
X24701214Y-32810961D01*
X24546680Y-33184037D01*
X24467900Y-33580093D01*
X23554000Y-33580093D01*
X23554000Y-27767540D01*
X23816262Y-27505279D01*
X23832474Y-27491974D01*
X23885584Y-27427260D01*
X23924613Y-27354241D01*
X23925048Y-27353428D01*
X23949350Y-27273314D01*
X23954557Y-27220445D01*
X23955500Y-27210874D01*
X23955500Y-27210867D01*
X23957555Y-27190000D01*
X23955500Y-27169133D01*
X23955500Y-11801767D01*
X23957555Y-11780900D01*
X23955500Y-11760033D01*
X23955500Y-11760026D01*
X23954879Y-11753719D01*
X27920800Y-15719641D01*
X27920801Y-16086024D01*
X27918745Y-16106900D01*
X27926950Y-16190214D01*
X27949723Y-16265283D01*
X27951253Y-16270327D01*
X27990717Y-16344160D01*
X28043827Y-16408874D01*
X28060039Y-16422179D01*
X36778700Y-25140841D01*
X36778701Y-40108844D01*
X36691567Y-39945829D01*
X36560354Y-39785946D01*
X36400471Y-39654733D01*
X36218061Y-39557233D01*
X36020135Y-39497193D01*
X35814300Y-39476920D01*
X35608464Y-39497193D01*
X35410538Y-39557233D01*
X35228129Y-39654733D01*
X35068246Y-39785946D01*
X34937033Y-39945829D01*
X34839533Y-40128239D01*
X34779493Y-40326165D01*
X34764300Y-40480423D01*
X34764300Y-41083578D01*
X34779493Y-41237836D01*
X34839533Y-41435762D01*
X34937034Y-41618171D01*
X35068247Y-41778054D01*
X35228130Y-41909267D01*
X35410539Y-42006767D01*
X35608465Y-42066807D01*
X35814300Y-42087080D01*
X36020136Y-42066807D01*
X36218062Y-42006767D01*
X36400471Y-41909267D01*
X36560354Y-41778054D01*
X36691567Y-41618171D01*
X36778701Y-41455154D01*
X36778701Y-41521023D01*
X36776645Y-41541900D01*
X36784850Y-41625214D01*
X36796172Y-41662535D01*
X36809153Y-41705327D01*
X36848617Y-41779160D01*
X36901727Y-41843874D01*
X36917939Y-41857179D01*
X38443080Y-43382321D01*
X38438100Y-43407356D01*
X38438100Y-43545244D01*
X38465001Y-43680482D01*
X38517768Y-43807874D01*
X38594374Y-43922524D01*
X38691876Y-44020026D01*
X38806526Y-44096632D01*
X38933918Y-44149399D01*
X39069156Y-44176300D01*
X39207044Y-44176300D01*
X39342282Y-44149399D01*
X39469674Y-44096632D01*
X39584324Y-44020026D01*
X39681826Y-43922524D01*
X39758432Y-43807874D01*
X39811199Y-43680482D01*
X39838100Y-43545244D01*
X39838100Y-43407356D01*
X39811199Y-43272118D01*
X39758432Y-43144726D01*
X39681826Y-43030076D01*
X39584324Y-42932574D01*
X39469674Y-42855968D01*
X39342282Y-42803201D01*
X39207044Y-42776300D01*
X39069156Y-42776300D01*
X39044121Y-42781280D01*
X38346727Y-42083886D01*
X38520136Y-42066807D01*
X38718062Y-42006767D01*
X38900471Y-41909267D01*
X39060354Y-41778054D01*
X39191567Y-41618171D01*
X39289067Y-41435761D01*
X39335710Y-41282000D01*
X39440040Y-41282000D01*
X39464600Y-41284419D01*
X39489160Y-41282000D01*
X39562617Y-41274765D01*
X39656867Y-41246175D01*
X39743729Y-41199746D01*
X39803773Y-41150469D01*
X46049040Y-41150469D01*
X46098316Y-41413839D01*
X46198026Y-41662535D01*
X46344338Y-41887000D01*
X46531630Y-42078608D01*
X46752704Y-42229996D01*
X46999065Y-42335345D01*
X47047528Y-42340538D01*
X47256700Y-42228127D01*
X47256700Y-40936000D01*
X47564700Y-40936000D01*
X47564700Y-42228127D01*
X47773872Y-42340538D01*
X47822335Y-42335345D01*
X48068696Y-42229996D01*
X48289770Y-42078608D01*
X48477062Y-41887000D01*
X48623374Y-41662535D01*
X48723084Y-41413839D01*
X48772360Y-41150469D01*
X48622128Y-40936000D01*
X47564700Y-40936000D01*
X47256700Y-40936000D01*
X46199272Y-40936000D01*
X46049040Y-41150469D01*
X39803773Y-41150469D01*
X39819864Y-41137264D01*
X39835529Y-41118176D01*
X41075607Y-39878100D01*
X46213256Y-39878100D01*
X46198026Y-39901465D01*
X46098316Y-40150161D01*
X46049040Y-40413531D01*
X46199272Y-40628000D01*
X47256700Y-40628000D01*
X47256700Y-40608000D01*
X47564700Y-40608000D01*
X47564700Y-40628000D01*
X48622128Y-40628000D01*
X48772360Y-40413531D01*
X48723084Y-40150161D01*
X48623374Y-39901465D01*
X48608144Y-39878100D01*
X49089017Y-39878100D01*
X49033433Y-39945829D01*
X48935933Y-40128239D01*
X48875893Y-40326165D01*
X48860700Y-40480423D01*
X48860700Y-41083578D01*
X48875893Y-41237836D01*
X48935933Y-41435762D01*
X49033434Y-41618171D01*
X49164647Y-41778054D01*
X49324530Y-41909267D01*
X49506939Y-42006767D01*
X49704865Y-42066807D01*
X49910700Y-42087080D01*
X50116536Y-42066807D01*
X50314462Y-42006767D01*
X50496871Y-41909267D01*
X50656754Y-41778054D01*
X50787967Y-41618171D01*
X50885467Y-41435761D01*
X50945507Y-41237835D01*
X50951652Y-41175439D01*
X50981271Y-41199746D01*
X51068133Y-41246175D01*
X51162383Y-41274765D01*
X51260400Y-41284419D01*
X51284960Y-41282000D01*
X51389290Y-41282000D01*
X51435933Y-41435762D01*
X51533434Y-41618171D01*
X51664647Y-41778054D01*
X51824530Y-41909267D01*
X52006939Y-42006767D01*
X52204865Y-42066807D01*
X52410700Y-42087080D01*
X52616536Y-42066807D01*
X52814462Y-42006767D01*
X52996871Y-41909267D01*
X53156754Y-41778054D01*
X53287967Y-41618171D01*
X53385467Y-41435761D01*
X53445507Y-41237835D01*
X53454111Y-41150469D01*
X60145440Y-41150469D01*
X60194716Y-41413839D01*
X60294426Y-41662535D01*
X60440738Y-41887000D01*
X60628030Y-42078608D01*
X60849104Y-42229996D01*
X61095465Y-42335345D01*
X61143928Y-42340538D01*
X61353100Y-42228127D01*
X61353100Y-40936000D01*
X61661100Y-40936000D01*
X61661100Y-42228127D01*
X61870272Y-42340538D01*
X61918735Y-42335345D01*
X62165096Y-42229996D01*
X62386170Y-42078608D01*
X62573462Y-41887000D01*
X62719774Y-41662535D01*
X62819484Y-41413839D01*
X62868760Y-41150469D01*
X62718528Y-40936000D01*
X61661100Y-40936000D01*
X61353100Y-40936000D01*
X60295672Y-40936000D01*
X60145440Y-41150469D01*
X53454111Y-41150469D01*
X53460700Y-41083577D01*
X53460700Y-40480422D01*
X53454112Y-40413531D01*
X60145440Y-40413531D01*
X60295672Y-40628000D01*
X61353100Y-40628000D01*
X61353100Y-39335873D01*
X61661100Y-39335873D01*
X61661100Y-40628000D01*
X62718528Y-40628000D01*
X62821903Y-40480423D01*
X62957100Y-40480423D01*
X62957100Y-41083578D01*
X62972293Y-41237836D01*
X63032333Y-41435762D01*
X63129834Y-41618171D01*
X63261047Y-41778054D01*
X63420930Y-41909267D01*
X63603339Y-42006767D01*
X63801265Y-42066807D01*
X64007100Y-42087080D01*
X64212936Y-42066807D01*
X64410862Y-42006767D01*
X64593271Y-41909267D01*
X64753154Y-41778054D01*
X64884367Y-41618171D01*
X64981867Y-41435761D01*
X65041907Y-41237835D01*
X65057100Y-41083577D01*
X65057100Y-40480423D01*
X65457100Y-40480423D01*
X65457100Y-41083578D01*
X65472293Y-41237836D01*
X65532333Y-41435762D01*
X65629834Y-41618171D01*
X65761047Y-41778054D01*
X65920930Y-41909267D01*
X66103339Y-42006767D01*
X66301265Y-42066807D01*
X66507100Y-42087080D01*
X66712936Y-42066807D01*
X66910862Y-42006767D01*
X67093271Y-41909267D01*
X67253154Y-41778054D01*
X67384367Y-41618171D01*
X67481867Y-41435761D01*
X67510306Y-41342011D01*
X68731280Y-42562987D01*
X68746936Y-42582064D01*
X68823071Y-42644546D01*
X68909933Y-42690975D01*
X69004183Y-42719565D01*
X69102200Y-42729219D01*
X69126760Y-42726800D01*
X78528940Y-42726800D01*
X78553500Y-42729219D01*
X78578060Y-42726800D01*
X78651517Y-42719565D01*
X78745767Y-42690975D01*
X78832629Y-42644546D01*
X78908764Y-42582064D01*
X78924429Y-42562976D01*
X79789487Y-41697920D01*
X79790859Y-41696794D01*
X79857547Y-41778054D01*
X80017430Y-41909267D01*
X80199839Y-42006767D01*
X80397765Y-42066807D01*
X80603600Y-42087080D01*
X80809436Y-42066807D01*
X81007362Y-42006767D01*
X81189771Y-41909267D01*
X81349654Y-41778054D01*
X81480867Y-41618171D01*
X81578367Y-41435761D01*
X81638407Y-41237835D01*
X81653600Y-41083577D01*
X81653600Y-40480422D01*
X81638407Y-40326164D01*
X81578367Y-40128238D01*
X81480867Y-39945829D01*
X81349654Y-39785946D01*
X81189771Y-39654733D01*
X81007361Y-39557233D01*
X80809435Y-39497193D01*
X80603600Y-39476920D01*
X80397764Y-39497193D01*
X80199838Y-39557233D01*
X80017429Y-39654733D01*
X79857546Y-39785946D01*
X79726333Y-39945829D01*
X79628833Y-40128239D01*
X79582190Y-40282000D01*
X79477860Y-40282000D01*
X79453300Y-40279581D01*
X79428740Y-40282000D01*
X79355283Y-40289235D01*
X79261033Y-40317825D01*
X79174171Y-40364254D01*
X79144553Y-40388561D01*
X79138407Y-40326164D01*
X79078367Y-40128238D01*
X78980867Y-39945829D01*
X78849654Y-39785946D01*
X78689771Y-39654733D01*
X78507361Y-39557233D01*
X78309435Y-39497193D01*
X78103600Y-39476920D01*
X77897764Y-39497193D01*
X77699838Y-39557233D01*
X77517429Y-39654733D01*
X77357546Y-39785946D01*
X77226333Y-39945829D01*
X77128833Y-40128239D01*
X77068793Y-40326165D01*
X77053600Y-40480423D01*
X77053600Y-41083578D01*
X77068793Y-41237836D01*
X77128833Y-41435762D01*
X77226334Y-41618171D01*
X77315484Y-41726800D01*
X76774384Y-41726800D01*
X76816274Y-41662535D01*
X76915984Y-41413839D01*
X76965260Y-41150469D01*
X76815028Y-40936000D01*
X75757600Y-40936000D01*
X75757600Y-40956000D01*
X75449600Y-40956000D01*
X75449600Y-40936000D01*
X74392172Y-40936000D01*
X74241940Y-41150469D01*
X74291216Y-41413839D01*
X74390926Y-41662535D01*
X74432816Y-41726800D01*
X69309307Y-41726800D01*
X68028329Y-40445824D01*
X68012664Y-40426736D01*
X67996574Y-40413531D01*
X74241940Y-40413531D01*
X74392172Y-40628000D01*
X75449600Y-40628000D01*
X75449600Y-39335873D01*
X75757600Y-39335873D01*
X75757600Y-40628000D01*
X76815028Y-40628000D01*
X76965260Y-40413531D01*
X76915984Y-40150161D01*
X76816274Y-39901465D01*
X76669962Y-39677000D01*
X76482670Y-39485392D01*
X76261596Y-39334004D01*
X76015235Y-39228655D01*
X75966772Y-39223462D01*
X75757600Y-39335873D01*
X75449600Y-39335873D01*
X75240428Y-39223462D01*
X75191965Y-39228655D01*
X74945604Y-39334004D01*
X74724530Y-39485392D01*
X74537238Y-39677000D01*
X74390926Y-39901465D01*
X74291216Y-40150161D01*
X74241940Y-40413531D01*
X67996574Y-40413531D01*
X67936529Y-40364254D01*
X67849667Y-40317825D01*
X67755417Y-40289235D01*
X67681960Y-40282000D01*
X67657400Y-40279581D01*
X67632840Y-40282000D01*
X67528510Y-40282000D01*
X67481867Y-40128238D01*
X67384367Y-39945829D01*
X67253154Y-39785946D01*
X67093271Y-39654733D01*
X66910861Y-39557233D01*
X66712935Y-39497193D01*
X66507100Y-39476920D01*
X66301264Y-39497193D01*
X66103338Y-39557233D01*
X65920929Y-39654733D01*
X65761046Y-39785946D01*
X65629833Y-39945829D01*
X65532333Y-40128239D01*
X65472293Y-40326165D01*
X65457100Y-40480423D01*
X65057100Y-40480423D01*
X65057100Y-40480422D01*
X65041907Y-40326164D01*
X64981867Y-40128238D01*
X64884367Y-39945829D01*
X64753154Y-39785946D01*
X64593271Y-39654733D01*
X64410861Y-39557233D01*
X64212935Y-39497193D01*
X64007100Y-39476920D01*
X63801264Y-39497193D01*
X63603338Y-39557233D01*
X63420929Y-39654733D01*
X63261046Y-39785946D01*
X63129833Y-39945829D01*
X63032333Y-40128239D01*
X62972293Y-40326165D01*
X62957100Y-40480423D01*
X62821903Y-40480423D01*
X62868760Y-40413531D01*
X62819484Y-40150161D01*
X62719774Y-39901465D01*
X62573462Y-39677000D01*
X62386170Y-39485392D01*
X62165096Y-39334004D01*
X61918735Y-39228655D01*
X61870272Y-39223462D01*
X61661100Y-39335873D01*
X61353100Y-39335873D01*
X61143928Y-39223462D01*
X61095465Y-39228655D01*
X60849104Y-39334004D01*
X60628030Y-39485392D01*
X60440738Y-39677000D01*
X60294426Y-39901465D01*
X60194716Y-40150161D01*
X60145440Y-40413531D01*
X53454112Y-40413531D01*
X53445507Y-40326164D01*
X53385467Y-40128238D01*
X53287967Y-39945829D01*
X53156754Y-39785946D01*
X52996871Y-39654733D01*
X52814461Y-39557233D01*
X52616535Y-39497193D01*
X52410700Y-39476920D01*
X52204864Y-39497193D01*
X52006938Y-39557233D01*
X51824529Y-39654733D01*
X51664646Y-39785946D01*
X51612719Y-39849219D01*
X51596581Y-39835975D01*
X50802529Y-39041924D01*
X50786864Y-39022836D01*
X50710729Y-38960354D01*
X50623867Y-38913925D01*
X50529617Y-38885335D01*
X50456160Y-38878100D01*
X50431600Y-38875681D01*
X50407040Y-38878100D01*
X47781500Y-38878100D01*
X47781500Y-33580093D01*
X52660700Y-33580093D01*
X52660700Y-33983907D01*
X52739480Y-34379963D01*
X52894014Y-34753039D01*
X53118361Y-35088799D01*
X53403901Y-35374339D01*
X53739661Y-35598686D01*
X54112737Y-35753220D01*
X54508793Y-35832000D01*
X54912607Y-35832000D01*
X55308663Y-35753220D01*
X55681739Y-35598686D01*
X56017499Y-35374339D01*
X56303039Y-35088799D01*
X56527386Y-34753039D01*
X56681920Y-34379963D01*
X56760700Y-33983907D01*
X56760700Y-33580093D01*
X57157100Y-33580093D01*
X57157100Y-33983907D01*
X57235880Y-34379963D01*
X57390414Y-34753039D01*
X57614761Y-35088799D01*
X57900301Y-35374339D01*
X58236061Y-35598686D01*
X58609137Y-35753220D01*
X59005193Y-35832000D01*
X59409007Y-35832000D01*
X59805063Y-35753220D01*
X60178139Y-35598686D01*
X60513899Y-35374339D01*
X60799439Y-35088799D01*
X61023786Y-34753039D01*
X61178320Y-34379963D01*
X61257100Y-33983907D01*
X61257100Y-33580093D01*
X66757100Y-33580093D01*
X66757100Y-33983907D01*
X66835880Y-34379963D01*
X66990414Y-34753039D01*
X67214761Y-35088799D01*
X67500301Y-35374339D01*
X67836061Y-35598686D01*
X68209137Y-35753220D01*
X68605193Y-35832000D01*
X69009007Y-35832000D01*
X69405063Y-35753220D01*
X69778139Y-35598686D01*
X70113899Y-35374339D01*
X70399439Y-35088799D01*
X70623786Y-34753039D01*
X70778320Y-34379963D01*
X70857100Y-33983907D01*
X70857100Y-33580093D01*
X71253600Y-33580093D01*
X71253600Y-33983907D01*
X71332380Y-34379963D01*
X71486914Y-34753039D01*
X71711261Y-35088799D01*
X71996801Y-35374339D01*
X72332561Y-35598686D01*
X72705637Y-35753220D01*
X73101693Y-35832000D01*
X73505507Y-35832000D01*
X73901563Y-35753220D01*
X74274639Y-35598686D01*
X74610399Y-35374339D01*
X74895939Y-35088799D01*
X75120286Y-34753039D01*
X75274820Y-34379963D01*
X75353600Y-33983907D01*
X75353600Y-33580093D01*
X80853600Y-33580093D01*
X80853600Y-33983907D01*
X80932380Y-34379963D01*
X81086914Y-34753039D01*
X81311261Y-35088799D01*
X81596801Y-35374339D01*
X81932561Y-35598686D01*
X82305637Y-35753220D01*
X82701693Y-35832000D01*
X83105507Y-35832000D01*
X83501563Y-35753220D01*
X83874639Y-35598686D01*
X84210399Y-35374339D01*
X84495939Y-35088799D01*
X84720286Y-34753039D01*
X84874820Y-34379963D01*
X84953600Y-33983907D01*
X84953600Y-33580093D01*
X84874820Y-33184037D01*
X84720286Y-32810961D01*
X84495939Y-32475201D01*
X84210399Y-32189661D01*
X83874639Y-31965314D01*
X83501563Y-31810780D01*
X83105507Y-31732000D01*
X82701693Y-31732000D01*
X82305637Y-31810780D01*
X81932561Y-31965314D01*
X81596801Y-32189661D01*
X81311261Y-32475201D01*
X81086914Y-32810961D01*
X80932380Y-33184037D01*
X80853600Y-33580093D01*
X75353600Y-33580093D01*
X75274820Y-33184037D01*
X75120286Y-32810961D01*
X74895939Y-32475201D01*
X74610399Y-32189661D01*
X74274639Y-31965314D01*
X73901563Y-31810780D01*
X73505507Y-31732000D01*
X73101693Y-31732000D01*
X72705637Y-31810780D01*
X72332561Y-31965314D01*
X71996801Y-32189661D01*
X71711261Y-32475201D01*
X71486914Y-32810961D01*
X71332380Y-33184037D01*
X71253600Y-33580093D01*
X70857100Y-33580093D01*
X70778320Y-33184037D01*
X70623786Y-32810961D01*
X70399439Y-32475201D01*
X70113899Y-32189661D01*
X69778139Y-31965314D01*
X69405063Y-31810780D01*
X69009007Y-31732000D01*
X68605193Y-31732000D01*
X68209137Y-31810780D01*
X67836061Y-31965314D01*
X67500301Y-32189661D01*
X67214761Y-32475201D01*
X66990414Y-32810961D01*
X66835880Y-33184037D01*
X66757100Y-33580093D01*
X61257100Y-33580093D01*
X61178320Y-33184037D01*
X61023786Y-32810961D01*
X60799439Y-32475201D01*
X60513899Y-32189661D01*
X60178139Y-31965314D01*
X59805063Y-31810780D01*
X59409007Y-31732000D01*
X59005193Y-31732000D01*
X58609137Y-31810780D01*
X58236061Y-31965314D01*
X57900301Y-32189661D01*
X57614761Y-32475201D01*
X57390414Y-32810961D01*
X57235880Y-33184037D01*
X57157100Y-33580093D01*
X56760700Y-33580093D01*
X56681920Y-33184037D01*
X56527386Y-32810961D01*
X56303039Y-32475201D01*
X56017499Y-32189661D01*
X55681739Y-31965314D01*
X55308663Y-31810780D01*
X54912607Y-31732000D01*
X54508793Y-31732000D01*
X54112737Y-31810780D01*
X53739661Y-31965314D01*
X53403901Y-32189661D01*
X53118361Y-32475201D01*
X52894014Y-32810961D01*
X52739480Y-33184037D01*
X52660700Y-33580093D01*
X47781500Y-33580093D01*
X47781500Y-17695357D01*
X47783919Y-17670799D01*
X47779647Y-17627427D01*
X47774265Y-17572783D01*
X47745675Y-17478533D01*
X47699246Y-17391671D01*
X47636764Y-17315536D01*
X47617687Y-17299880D01*
X46582256Y-16264451D01*
X46824000Y-16264451D01*
X46882810Y-16258659D01*
X46939360Y-16241504D01*
X46991477Y-16213647D01*
X47037158Y-16176158D01*
X47074647Y-16130477D01*
X47102504Y-16078360D01*
X47119659Y-16021810D01*
X47125451Y-15963000D01*
X47125451Y-14263000D01*
X47119659Y-14204190D01*
X47102504Y-14147640D01*
X47074647Y-14095523D01*
X47069259Y-14088957D01*
X47118504Y-14039712D01*
X47004959Y-13926167D01*
X47243207Y-13844779D01*
X47361583Y-13583109D01*
X47384016Y-13486641D01*
X47454884Y-13657729D01*
X47580737Y-13846082D01*
X47740918Y-14006263D01*
X47900662Y-14113000D01*
X47740918Y-14219737D01*
X47580737Y-14379918D01*
X47454884Y-14568271D01*
X47368194Y-14777557D01*
X47324000Y-14999735D01*
X47324000Y-15226265D01*
X47368194Y-15448443D01*
X47454884Y-15657729D01*
X47580737Y-15846082D01*
X47740918Y-16006263D01*
X47929271Y-16132116D01*
X48138557Y-16218806D01*
X48360735Y-16263000D01*
X48587265Y-16263000D01*
X48809443Y-16218806D01*
X49018729Y-16132116D01*
X49207082Y-16006263D01*
X49367263Y-15846082D01*
X49493116Y-15657729D01*
X49579806Y-15448443D01*
X49624000Y-15226265D01*
X49624000Y-14999735D01*
X49598487Y-14871470D01*
X62161140Y-14871470D01*
X62161140Y-15176730D01*
X62220694Y-15476125D01*
X62337512Y-15758149D01*
X62507105Y-16011963D01*
X62722957Y-16227815D01*
X62976771Y-16397408D01*
X63258795Y-16514226D01*
X63558190Y-16573780D01*
X63863450Y-16573780D01*
X64162845Y-16514226D01*
X64444869Y-16397408D01*
X64698683Y-16227815D01*
X64914535Y-16011963D01*
X65084128Y-15758149D01*
X65200946Y-15476125D01*
X65206322Y-15449100D01*
X70139033Y-15449100D01*
X70159900Y-15451155D01*
X70180767Y-15449100D01*
X70180774Y-15449100D01*
X70243214Y-15442950D01*
X70323327Y-15418648D01*
X70397160Y-15379184D01*
X70461874Y-15326074D01*
X70475184Y-15309857D01*
X70913571Y-14871470D01*
X72153500Y-14871470D01*
X72153500Y-15176730D01*
X72213054Y-15476125D01*
X72329872Y-15758149D01*
X72499465Y-16011963D01*
X72715317Y-16227815D01*
X72969131Y-16397408D01*
X73251155Y-16514226D01*
X73550550Y-16573780D01*
X73855810Y-16573780D01*
X74155205Y-16514226D01*
X74437229Y-16397408D01*
X74691043Y-16227815D01*
X74906895Y-16011963D01*
X75076488Y-15758149D01*
X75193306Y-15476125D01*
X75252860Y-15176730D01*
X75252860Y-14871470D01*
X75193306Y-14572075D01*
X75076488Y-14290051D01*
X74906895Y-14036237D01*
X74691043Y-13820385D01*
X74437229Y-13650792D01*
X74155205Y-13533974D01*
X73855810Y-13474420D01*
X73550550Y-13474420D01*
X73251155Y-13533974D01*
X72969131Y-13650792D01*
X72715317Y-13820385D01*
X72499465Y-14036237D01*
X72329872Y-14290051D01*
X72213054Y-14572075D01*
X72153500Y-14871470D01*
X70913571Y-14871470D01*
X72922190Y-12862851D01*
X73038566Y-12925056D01*
X73170154Y-12964973D01*
X73307000Y-12978451D01*
X74107000Y-12978451D01*
X74243846Y-12964973D01*
X74375434Y-12925056D01*
X74496705Y-12860235D01*
X74603001Y-12773001D01*
X74660895Y-12702456D01*
X74714954Y-12974225D01*
X74831772Y-13256249D01*
X75001365Y-13510063D01*
X75217217Y-13725915D01*
X75471031Y-13895508D01*
X75753055Y-14012326D01*
X76052450Y-14071880D01*
X76357710Y-14071880D01*
X76657105Y-14012326D01*
X76939129Y-13895508D01*
X77192943Y-13725915D01*
X77408795Y-13510063D01*
X77578388Y-13256249D01*
X77695206Y-12974225D01*
X77754760Y-12674830D01*
X77754760Y-12369570D01*
X77695206Y-12070175D01*
X77578388Y-11788151D01*
X77408795Y-11534337D01*
X77192943Y-11318485D01*
X76939129Y-11148892D01*
X76657105Y-11032074D01*
X76357710Y-10972520D01*
X76052450Y-10972520D01*
X75753055Y-11032074D01*
X75471031Y-11148892D01*
X75217217Y-11318485D01*
X75001365Y-11534337D01*
X74831772Y-11788151D01*
X74808451Y-11844453D01*
X74808451Y-10677000D01*
X74794973Y-10540154D01*
X74755056Y-10408566D01*
X74690235Y-10287295D01*
X74603001Y-10180999D01*
X74496705Y-10093765D01*
X74375434Y-10028944D01*
X74243846Y-9989027D01*
X74107000Y-9975549D01*
X73307000Y-9975549D01*
X73170154Y-9989027D01*
X73038566Y-10028944D01*
X72917295Y-10093765D01*
X72810999Y-10180999D01*
X72723765Y-10287295D01*
X72658944Y-10408566D01*
X72619027Y-10540154D01*
X72605549Y-10677000D01*
X72605549Y-11977410D01*
X72308451Y-12274508D01*
X72308451Y-10677000D01*
X72294973Y-10540154D01*
X72255056Y-10408566D01*
X72190235Y-10287295D01*
X72103001Y-10180999D01*
X71996705Y-10093765D01*
X71875434Y-10028944D01*
X71743846Y-9989027D01*
X71607000Y-9975549D01*
X70807000Y-9975549D01*
X70670154Y-9989027D01*
X70538566Y-10028944D01*
X70417295Y-10093765D01*
X70310999Y-10180999D01*
X70223765Y-10287295D01*
X70158944Y-10408566D01*
X70119027Y-10540154D01*
X70105549Y-10677000D01*
X70105549Y-11464261D01*
X70023448Y-11426081D01*
X68924789Y-12524740D01*
X70023448Y-13623399D01*
X70302538Y-13493612D01*
X70460898Y-13163721D01*
X70524125Y-12917337D01*
X70538566Y-12925056D01*
X70670154Y-12964973D01*
X70807000Y-12978451D01*
X71604509Y-12978451D01*
X69983860Y-14599100D01*
X65206322Y-14599100D01*
X65200946Y-14572075D01*
X65084128Y-14290051D01*
X64914535Y-14036237D01*
X64719486Y-13841188D01*
X67608341Y-13841188D01*
X67738128Y-14120278D01*
X68068019Y-14278638D01*
X68422465Y-14369596D01*
X68787846Y-14389658D01*
X69150120Y-14338052D01*
X69495365Y-14216761D01*
X69675872Y-14120278D01*
X69805659Y-13841188D01*
X68707000Y-12742529D01*
X67608341Y-13841188D01*
X64719486Y-13841188D01*
X64698683Y-13820385D01*
X64444869Y-13650792D01*
X64162845Y-13533974D01*
X63863450Y-13474420D01*
X63558190Y-13474420D01*
X63258795Y-13533974D01*
X62976771Y-13650792D01*
X62722957Y-13820385D01*
X62507105Y-14036237D01*
X62337512Y-14290051D01*
X62220694Y-14572075D01*
X62161140Y-14871470D01*
X49598487Y-14871470D01*
X49579806Y-14777557D01*
X49493116Y-14568271D01*
X49367263Y-14379918D01*
X49207082Y-14219737D01*
X49047338Y-14113000D01*
X49207082Y-14006263D01*
X49367263Y-13846082D01*
X49493116Y-13657729D01*
X49579806Y-13448443D01*
X49624000Y-13226265D01*
X49624000Y-12999735D01*
X49579806Y-12777557D01*
X49493116Y-12568271D01*
X49367263Y-12379918D01*
X49207082Y-12219737D01*
X49018729Y-12093884D01*
X48975685Y-12076054D01*
X51788735Y-12076054D01*
X51978830Y-12406357D01*
X52393976Y-12614686D01*
X52841787Y-12738020D01*
X53305056Y-12771621D01*
X53765978Y-12714197D01*
X54206840Y-12567955D01*
X54509170Y-12406357D01*
X54530341Y-12369570D01*
X59659240Y-12369570D01*
X59659240Y-12674830D01*
X59718794Y-12974225D01*
X59835612Y-13256249D01*
X60005205Y-13510063D01*
X60221057Y-13725915D01*
X60474871Y-13895508D01*
X60756895Y-14012326D01*
X61056290Y-14071880D01*
X61361550Y-14071880D01*
X61660945Y-14012326D01*
X61942969Y-13895508D01*
X62196783Y-13725915D01*
X62412635Y-13510063D01*
X62582228Y-13256249D01*
X62699046Y-12974225D01*
X62753105Y-12702456D01*
X62810999Y-12773001D01*
X62917295Y-12860235D01*
X63038566Y-12925056D01*
X63170154Y-12964973D01*
X63307000Y-12978451D01*
X64107000Y-12978451D01*
X64243846Y-12964973D01*
X64375434Y-12925056D01*
X64496705Y-12860235D01*
X64603001Y-12773001D01*
X64690235Y-12666705D01*
X64755056Y-12545434D01*
X64794973Y-12413846D01*
X64808451Y-12277000D01*
X64808451Y-10677000D01*
X65105549Y-10677000D01*
X65105549Y-12277000D01*
X65119027Y-12413846D01*
X65158944Y-12545434D01*
X65223765Y-12666705D01*
X65310999Y-12773001D01*
X65417295Y-12860235D01*
X65538566Y-12925056D01*
X65670154Y-12964973D01*
X65807000Y-12978451D01*
X66607000Y-12978451D01*
X66743846Y-12964973D01*
X66875434Y-12925056D01*
X66886730Y-12919018D01*
X66893688Y-12967860D01*
X67014979Y-13313105D01*
X67111462Y-13493612D01*
X67390552Y-13623399D01*
X68489211Y-12524740D01*
X67390552Y-11426081D01*
X67308451Y-11464261D01*
X67308451Y-11208292D01*
X67608341Y-11208292D01*
X68707000Y-12306951D01*
X69805659Y-11208292D01*
X69675872Y-10929202D01*
X69345981Y-10770842D01*
X68991535Y-10679884D01*
X68626154Y-10659822D01*
X68263880Y-10711428D01*
X67918635Y-10832719D01*
X67738128Y-10929202D01*
X67608341Y-11208292D01*
X67308451Y-11208292D01*
X67308451Y-10677000D01*
X67294973Y-10540154D01*
X67255056Y-10408566D01*
X67190235Y-10287295D01*
X67103001Y-10180999D01*
X66996705Y-10093765D01*
X66875434Y-10028944D01*
X66743846Y-9989027D01*
X66607000Y-9975549D01*
X65807000Y-9975549D01*
X65670154Y-9989027D01*
X65538566Y-10028944D01*
X65417295Y-10093765D01*
X65310999Y-10180999D01*
X65223765Y-10287295D01*
X65158944Y-10408566D01*
X65119027Y-10540154D01*
X65105549Y-10677000D01*
X64808451Y-10677000D01*
X64794973Y-10540154D01*
X64755056Y-10408566D01*
X64690235Y-10287295D01*
X64603001Y-10180999D01*
X64496705Y-10093765D01*
X64375434Y-10028944D01*
X64243846Y-9989027D01*
X64107000Y-9975549D01*
X63307000Y-9975549D01*
X63170154Y-9989027D01*
X63038566Y-10028944D01*
X62917295Y-10093765D01*
X62810999Y-10180999D01*
X62723765Y-10287295D01*
X62658944Y-10408566D01*
X62619027Y-10540154D01*
X62605549Y-10677000D01*
X62605549Y-11844453D01*
X62582228Y-11788151D01*
X62412635Y-11534337D01*
X62196783Y-11318485D01*
X61942969Y-11148892D01*
X61660945Y-11032074D01*
X61361550Y-10972520D01*
X61056290Y-10972520D01*
X60756895Y-11032074D01*
X60474871Y-11148892D01*
X60221057Y-11318485D01*
X60005205Y-11534337D01*
X59835612Y-11788151D01*
X59718794Y-12070175D01*
X59659240Y-12369570D01*
X54530341Y-12369570D01*
X54699265Y-12076054D01*
X53244000Y-10620789D01*
X51788735Y-12076054D01*
X48975685Y-12076054D01*
X48809443Y-12007194D01*
X48587265Y-11963000D01*
X48360735Y-11963000D01*
X48138557Y-12007194D01*
X47929271Y-12093884D01*
X47740918Y-12219737D01*
X47580737Y-12379918D01*
X47454884Y-12568271D01*
X47387837Y-12730134D01*
X47287587Y-12464248D01*
X47243207Y-12381221D01*
X47004957Y-12299832D01*
X46191789Y-13113000D01*
X46205931Y-13127142D01*
X45988142Y-13344931D01*
X45974000Y-13330789D01*
X45959858Y-13344931D01*
X45742069Y-13127142D01*
X45756211Y-13113000D01*
X44943043Y-12299832D01*
X44704793Y-12381221D01*
X44586417Y-12642891D01*
X44521366Y-12922628D01*
X44512138Y-13209681D01*
X44559089Y-13493018D01*
X44660413Y-13761752D01*
X44704793Y-13844779D01*
X44943041Y-13926167D01*
X44829496Y-14039712D01*
X44878741Y-14088957D01*
X44873353Y-14095523D01*
X44845496Y-14147640D01*
X44828341Y-14204190D01*
X44822549Y-14263000D01*
X44822549Y-15963000D01*
X44828341Y-16021810D01*
X44845496Y-16078360D01*
X44873353Y-16130477D01*
X44910842Y-16176158D01*
X44956523Y-16213647D01*
X45008640Y-16241504D01*
X45065190Y-16258659D01*
X45124000Y-16264451D01*
X45474001Y-16264451D01*
X45474001Y-16338730D01*
X45471581Y-16363300D01*
X45481235Y-16461317D01*
X45503133Y-16533502D01*
X45509826Y-16555567D01*
X45556255Y-16642429D01*
X45618737Y-16718564D01*
X45637819Y-16734224D01*
X46781500Y-17877907D01*
X46781501Y-32592628D01*
X46703039Y-32475201D01*
X46417499Y-32189661D01*
X46081739Y-31965314D01*
X45708663Y-31810780D01*
X45312607Y-31732000D01*
X44908793Y-31732000D01*
X44512737Y-31810780D01*
X44139661Y-31965314D01*
X43803901Y-32189661D01*
X43518361Y-32475201D01*
X43294014Y-32810961D01*
X43139480Y-33184037D01*
X43060700Y-33580093D01*
X43060700Y-33983907D01*
X43139480Y-34379963D01*
X43294014Y-34753039D01*
X43518361Y-35088799D01*
X43803901Y-35374339D01*
X44139661Y-35598686D01*
X44512737Y-35753220D01*
X44908793Y-35832000D01*
X45312607Y-35832000D01*
X45708663Y-35753220D01*
X46081739Y-35598686D01*
X46417499Y-35374339D01*
X46703039Y-35088799D01*
X46781501Y-34971372D01*
X46781501Y-38878100D01*
X40893049Y-38878100D01*
X40868499Y-38875682D01*
X40843949Y-38878100D01*
X40843940Y-38878100D01*
X40770483Y-38885335D01*
X40676233Y-38913925D01*
X40589371Y-38960354D01*
X40513236Y-39022836D01*
X40497580Y-39041913D01*
X39317506Y-40221989D01*
X39289067Y-40128238D01*
X39191567Y-39945829D01*
X39060354Y-39785946D01*
X38900471Y-39654733D01*
X38718061Y-39557233D01*
X38520135Y-39497193D01*
X38314300Y-39476920D01*
X38108464Y-39497193D01*
X37910538Y-39557233D01*
X37728129Y-39654733D01*
X37628700Y-39736333D01*
X37628700Y-33580093D01*
X38564300Y-33580093D01*
X38564300Y-33983907D01*
X38643080Y-34379963D01*
X38797614Y-34753039D01*
X39021961Y-35088799D01*
X39307501Y-35374339D01*
X39643261Y-35598686D01*
X40016337Y-35753220D01*
X40412393Y-35832000D01*
X40816207Y-35832000D01*
X41212263Y-35753220D01*
X41585339Y-35598686D01*
X41921099Y-35374339D01*
X42206639Y-35088799D01*
X42430986Y-34753039D01*
X42585520Y-34379963D01*
X42664300Y-33983907D01*
X42664300Y-33580093D01*
X42585520Y-33184037D01*
X42430986Y-32810961D01*
X42206639Y-32475201D01*
X41921099Y-32189661D01*
X41585339Y-31965314D01*
X41212263Y-31810780D01*
X40816207Y-31732000D01*
X40412393Y-31732000D01*
X40016337Y-31810780D01*
X39643261Y-31965314D01*
X39307501Y-32189661D01*
X39021961Y-32475201D01*
X38797614Y-32810961D01*
X38643080Y-33184037D01*
X38564300Y-33580093D01*
X37628700Y-33580093D01*
X37628700Y-24985666D01*
X37630755Y-24964799D01*
X37628700Y-24943932D01*
X37628700Y-24943926D01*
X37622550Y-24881486D01*
X37598248Y-24801373D01*
X37558784Y-24727540D01*
X37505674Y-24662826D01*
X37489463Y-24649522D01*
X28770800Y-15930860D01*
X28770800Y-15818927D01*
X28853518Y-15827074D01*
X28874392Y-15825018D01*
X29242093Y-15825018D01*
X29256274Y-15846242D01*
X29353776Y-15943744D01*
X29468426Y-16020350D01*
X29595818Y-16073117D01*
X29731056Y-16100018D01*
X29868944Y-16100018D01*
X30004182Y-16073117D01*
X30131574Y-16020350D01*
X30246224Y-15943744D01*
X30343726Y-15846242D01*
X30420332Y-15731592D01*
X30473099Y-15604200D01*
X30500000Y-15468962D01*
X30500000Y-15331074D01*
X30473099Y-15195836D01*
X30420332Y-15068444D01*
X30343726Y-14953794D01*
X30246224Y-14856292D01*
X30131574Y-14779686D01*
X30004182Y-14726919D01*
X29868944Y-14700018D01*
X29731056Y-14700018D01*
X29595818Y-14726919D01*
X29468426Y-14779686D01*
X29353776Y-14856292D01*
X29256274Y-14953794D01*
X29242093Y-14975018D01*
X29029558Y-14975018D01*
X26130594Y-12076054D01*
X39748735Y-12076054D01*
X39938830Y-12406357D01*
X40353976Y-12614686D01*
X40801787Y-12738020D01*
X41265056Y-12771621D01*
X41725978Y-12714197D01*
X42166840Y-12567955D01*
X42469170Y-12406357D01*
X42655818Y-12082043D01*
X45160832Y-12082043D01*
X45974000Y-12895211D01*
X46787168Y-12082043D01*
X46705779Y-11843793D01*
X46444109Y-11725417D01*
X46164372Y-11660366D01*
X45877319Y-11651138D01*
X45593982Y-11698089D01*
X45325248Y-11799413D01*
X45242221Y-11843793D01*
X45160832Y-12082043D01*
X42655818Y-12082043D01*
X42659265Y-12076054D01*
X41204000Y-10620789D01*
X39748735Y-12076054D01*
X26130594Y-12076054D01*
X24518596Y-10464056D01*
X38835379Y-10464056D01*
X38892803Y-10924978D01*
X39039045Y-11365840D01*
X39200643Y-11668170D01*
X39530946Y-11858265D01*
X40986211Y-10403000D01*
X41421789Y-10403000D01*
X42877054Y-11858265D01*
X43207357Y-11668170D01*
X43415686Y-11253024D01*
X43539020Y-10805213D01*
X43563764Y-10464056D01*
X50875379Y-10464056D01*
X50932803Y-10924978D01*
X51079045Y-11365840D01*
X51240643Y-11668170D01*
X51570946Y-11858265D01*
X53026211Y-10403000D01*
X53461789Y-10403000D01*
X54917054Y-11858265D01*
X55247357Y-11668170D01*
X55455686Y-11253024D01*
X55579020Y-10805213D01*
X55612621Y-10341944D01*
X55555197Y-9881022D01*
X55408955Y-9440160D01*
X55247357Y-9137830D01*
X54917054Y-8947735D01*
X53461789Y-10403000D01*
X53026211Y-10403000D01*
X51570946Y-8947735D01*
X51240643Y-9137830D01*
X51032314Y-9552976D01*
X50908980Y-10000787D01*
X50875379Y-10464056D01*
X43563764Y-10464056D01*
X43572621Y-10341944D01*
X43515197Y-9881022D01*
X43368955Y-9440160D01*
X43207357Y-9137830D01*
X42877054Y-8947735D01*
X41421789Y-10403000D01*
X40986211Y-10403000D01*
X39530946Y-8947735D01*
X39200643Y-9137830D01*
X38992314Y-9552976D01*
X38868980Y-10000787D01*
X38835379Y-10464056D01*
X24518596Y-10464056D01*
X22784486Y-8729946D01*
X39748735Y-8729946D01*
X41204000Y-10185211D01*
X42659265Y-8729946D01*
X51788735Y-8729946D01*
X53244000Y-10185211D01*
X54699265Y-8729946D01*
X54509170Y-8399643D01*
X54094024Y-8191314D01*
X53646213Y-8067980D01*
X53182944Y-8034379D01*
X52722022Y-8091803D01*
X52281160Y-8238045D01*
X51978830Y-8399643D01*
X51788735Y-8729946D01*
X42659265Y-8729946D01*
X42469170Y-8399643D01*
X42054024Y-8191314D01*
X41606213Y-8067980D01*
X41142944Y-8034379D01*
X40682022Y-8091803D01*
X40241160Y-8238045D01*
X39938830Y-8399643D01*
X39748735Y-8729946D01*
X22784486Y-8729946D01*
X18962596Y-4908056D01*
X20579200Y-4908056D01*
X20579200Y-5045944D01*
X20606101Y-5181182D01*
X20658868Y-5308574D01*
X20735474Y-5423224D01*
X20832976Y-5520726D01*
X20947626Y-5597332D01*
X21075018Y-5650099D01*
X21210256Y-5677000D01*
X21348144Y-5677000D01*
X21483382Y-5650099D01*
X21610774Y-5597332D01*
X21725424Y-5520726D01*
X21822926Y-5423224D01*
X21837107Y-5402000D01*
X22417460Y-5402000D01*
X23919580Y-6904121D01*
X23914600Y-6929156D01*
X23914600Y-7067044D01*
X23941501Y-7202282D01*
X23994268Y-7329674D01*
X24070874Y-7444324D01*
X24168376Y-7541826D01*
X24283026Y-7618432D01*
X24410418Y-7671199D01*
X24545656Y-7698100D01*
X24683544Y-7698100D01*
X24818782Y-7671199D01*
X24946174Y-7618432D01*
X25060824Y-7541826D01*
X25158326Y-7444324D01*
X25234932Y-7329674D01*
X25256750Y-7277000D01*
X66896058Y-7277000D01*
X66907797Y-7396189D01*
X66942563Y-7510797D01*
X66999020Y-7616421D01*
X67074999Y-7709001D01*
X67167579Y-7784980D01*
X67273203Y-7841437D01*
X67387811Y-7876203D01*
X67507000Y-7887942D01*
X68401000Y-7885000D01*
X68553000Y-7733000D01*
X68553000Y-6631000D01*
X68861000Y-6631000D01*
X68861000Y-7733000D01*
X69013000Y-7885000D01*
X69907000Y-7887942D01*
X70026189Y-7876203D01*
X70140797Y-7841437D01*
X70246421Y-7784980D01*
X70339001Y-7709001D01*
X70414980Y-7616421D01*
X70471437Y-7510797D01*
X70506203Y-7396189D01*
X70517942Y-7277000D01*
X70515000Y-6783000D01*
X70363000Y-6631000D01*
X68861000Y-6631000D01*
X68553000Y-6631000D01*
X67051000Y-6631000D01*
X66899000Y-6783000D01*
X66896058Y-7277000D01*
X25256750Y-7277000D01*
X25287699Y-7202282D01*
X25314600Y-7067044D01*
X25314600Y-6929156D01*
X25287699Y-6793918D01*
X25234932Y-6666526D01*
X25158326Y-6551876D01*
X25060824Y-6454374D01*
X24946174Y-6377768D01*
X24818782Y-6325001D01*
X24683544Y-6298100D01*
X24545656Y-6298100D01*
X24520621Y-6303080D01*
X23894541Y-5677000D01*
X66896058Y-5677000D01*
X66899000Y-6171000D01*
X67051000Y-6323000D01*
X68553000Y-6323000D01*
X68553000Y-5221000D01*
X68861000Y-5221000D01*
X68861000Y-6323000D01*
X70363000Y-6323000D01*
X70425178Y-6260822D01*
X79681967Y-6260822D01*
X80046294Y-6739654D01*
X80708182Y-7092601D01*
X81426208Y-7309637D01*
X82172779Y-7382423D01*
X82919204Y-7308162D01*
X83636800Y-7089708D01*
X84291706Y-6739654D01*
X84656033Y-6260822D01*
X82169000Y-3773789D01*
X79681967Y-6260822D01*
X70425178Y-6260822D01*
X70515000Y-6171000D01*
X70517942Y-5677000D01*
X70506203Y-5557811D01*
X70471437Y-5443203D01*
X70414980Y-5337579D01*
X70339001Y-5244999D01*
X70246421Y-5169020D01*
X70140797Y-5112563D01*
X70026189Y-5077797D01*
X69907000Y-5066058D01*
X69013000Y-5069000D01*
X68861000Y-5221000D01*
X68553000Y-5221000D01*
X68401000Y-5069000D01*
X67507000Y-5066058D01*
X67387811Y-5077797D01*
X67273203Y-5112563D01*
X67167579Y-5169020D01*
X67074999Y-5244999D01*
X66999020Y-5337579D01*
X66942563Y-5443203D01*
X66907797Y-5557811D01*
X66896058Y-5677000D01*
X23894541Y-5677000D01*
X22908783Y-4691243D01*
X22895474Y-4675026D01*
X22830760Y-4621916D01*
X22756927Y-4582452D01*
X22676814Y-4558150D01*
X22614374Y-4552000D01*
X22614367Y-4552000D01*
X22593500Y-4549945D01*
X22572633Y-4552000D01*
X21837107Y-4552000D01*
X21822926Y-4530776D01*
X21725424Y-4433274D01*
X21610774Y-4356668D01*
X21483382Y-4303901D01*
X21348144Y-4277000D01*
X21210256Y-4277000D01*
X21075018Y-4303901D01*
X20947626Y-4356668D01*
X20832976Y-4433274D01*
X20735474Y-4530776D01*
X20658868Y-4645426D01*
X20606101Y-4772818D01*
X20579200Y-4908056D01*
X18962596Y-4908056D01*
X18701620Y-4647080D01*
X18706600Y-4622044D01*
X18706600Y-4484156D01*
X18679699Y-4348918D01*
X18626932Y-4221526D01*
X18550326Y-4106876D01*
X18452824Y-4009374D01*
X18338174Y-3932768D01*
X18210782Y-3880001D01*
X18075544Y-3853100D01*
X17937656Y-3853100D01*
X17802418Y-3880001D01*
X17675026Y-3932768D01*
X17560376Y-4009374D01*
X17462874Y-4106876D01*
X17386268Y-4221526D01*
X17333501Y-4348918D01*
X17306600Y-4484156D01*
X17306600Y-4622044D01*
X17333501Y-4757282D01*
X17386268Y-4884674D01*
X17462874Y-4999324D01*
X17560376Y-5096826D01*
X17675026Y-5173432D01*
X17802418Y-5226199D01*
X17937656Y-5253100D01*
X18075544Y-5253100D01*
X18100580Y-5248120D01*
X18295760Y-5443300D01*
X14775207Y-5443300D01*
X14761026Y-5422076D01*
X14663524Y-5324574D01*
X14548874Y-5247968D01*
X14421482Y-5195201D01*
X14286244Y-5168300D01*
X14148356Y-5168300D01*
X14013118Y-5195201D01*
X13885726Y-5247968D01*
X13771076Y-5324574D01*
X13673574Y-5422076D01*
X13596968Y-5536726D01*
X13544201Y-5664118D01*
X13517300Y-5799356D01*
X13517300Y-5937244D01*
X13544201Y-6072482D01*
X13596968Y-6199874D01*
X13673574Y-6314524D01*
X13771076Y-6412026D01*
X13885726Y-6488632D01*
X14013118Y-6541399D01*
X14148356Y-6568300D01*
X14286244Y-6568300D01*
X14421482Y-6541399D01*
X14548874Y-6488632D01*
X14663524Y-6412026D01*
X14761026Y-6314524D01*
X14775207Y-6293300D01*
X18494460Y-6293300D01*
X21018445Y-8817285D01*
X20903326Y-8864968D01*
X20788676Y-8941574D01*
X20691174Y-9039076D01*
X20614568Y-9153726D01*
X20606007Y-9174395D01*
X20535774Y-9127468D01*
X20408382Y-9074701D01*
X20273144Y-9047800D01*
X20135256Y-9047800D01*
X20000018Y-9074701D01*
X19903900Y-9114514D01*
X19903900Y-8770166D01*
X19905955Y-8749299D01*
X19903900Y-8728432D01*
X19903900Y-8728426D01*
X19897750Y-8665986D01*
X19873448Y-8585873D01*
X19833984Y-8512040D01*
X19780874Y-8447326D01*
X19764663Y-8434022D01*
X19249420Y-7918780D01*
X19254400Y-7893744D01*
X19254400Y-7755856D01*
X19227499Y-7620618D01*
X19174732Y-7493226D01*
X19098126Y-7378576D01*
X19000624Y-7281074D01*
X18885974Y-7204468D01*
X18758582Y-7151701D01*
X18623344Y-7124800D01*
X18485456Y-7124800D01*
X18350218Y-7151701D01*
X18222826Y-7204468D01*
X18108176Y-7281074D01*
X18010674Y-7378576D01*
X18000721Y-7393471D01*
X17934224Y-7326974D01*
X17819574Y-7250368D01*
X17692182Y-7197601D01*
X17556944Y-7170700D01*
X17419056Y-7170700D01*
X17283818Y-7197601D01*
X17156426Y-7250368D01*
X17041776Y-7326974D01*
X16944274Y-7424476D01*
X16867668Y-7539126D01*
X16814901Y-7666518D01*
X16788000Y-7801756D01*
X16788000Y-7939644D01*
X16814901Y-8074882D01*
X16861756Y-8188000D01*
X16791156Y-8188000D01*
X16655918Y-8214901D01*
X16528526Y-8267668D01*
X16413876Y-8344274D01*
X16316374Y-8441776D01*
X16239768Y-8556426D01*
X16187001Y-8683818D01*
X16160100Y-8819056D01*
X16160100Y-8880894D01*
X15975095Y-9065900D01*
X15497760Y-9065900D01*
X15473200Y-9063481D01*
X15448640Y-9065900D01*
X7540646Y-9065900D01*
X7498429Y-9031254D01*
X7411567Y-8984825D01*
X7317317Y-8956235D01*
X7243860Y-8949000D01*
X7219300Y-8946581D01*
X7194740Y-8949000D01*
X7006644Y-8949000D01*
X6988116Y-8904271D01*
X6862263Y-8715918D01*
X6702082Y-8555737D01*
X6513729Y-8429884D01*
X6304443Y-8343194D01*
X6082265Y-8299000D01*
X5855735Y-8299000D01*
X5633557Y-8343194D01*
X5424271Y-8429884D01*
X5235918Y-8555737D01*
X5075737Y-8715918D01*
X4949884Y-8904271D01*
X4863194Y-9113557D01*
X4819000Y-9335735D01*
X4819000Y-9562265D01*
X4863194Y-9784443D01*
X4949884Y-9993729D01*
X5075737Y-10182082D01*
X5235918Y-10342263D01*
X5306146Y-10389188D01*
X5289317Y-10403000D01*
X5272226Y-10417026D01*
X5258921Y-10433238D01*
X4367916Y-11324243D01*
X4322263Y-11255918D01*
X4162082Y-11095737D01*
X3973729Y-10969884D01*
X3765851Y-10883777D01*
X3784084Y-10861560D01*
X3823548Y-10787727D01*
X3847850Y-10707614D01*
X3856056Y-10624300D01*
X3854000Y-10603426D01*
X3854000Y-10600451D01*
X4279000Y-10600451D01*
X4337810Y-10594659D01*
X4394360Y-10577504D01*
X4446477Y-10549647D01*
X4492158Y-10512158D01*
X4529647Y-10466477D01*
X4557504Y-10414360D01*
X4574659Y-10357810D01*
X4580451Y-10299000D01*
X4580451Y-8599000D01*
X4574659Y-8540190D01*
X4557504Y-8483640D01*
X4529647Y-8431523D01*
X4492158Y-8385842D01*
X4446477Y-8348353D01*
X4394360Y-8320496D01*
X4337810Y-8303341D01*
X4279000Y-8297549D01*
X2579000Y-8297549D01*
X2520190Y-8303341D01*
X2463640Y-8320496D01*
X2411523Y-8348353D01*
X2365842Y-8385842D01*
X2328353Y-8431523D01*
X2300496Y-8483640D01*
X2283341Y-8540190D01*
X2277549Y-8599000D01*
X2277549Y-10299000D01*
X2283341Y-10357810D01*
X2300496Y-10414360D01*
X2328353Y-10466477D01*
X2365842Y-10512158D01*
X2411523Y-10549647D01*
X2463640Y-10577504D01*
X2497258Y-10587702D01*
X541844Y-12543116D01*
X525626Y-12556426D01*
X472516Y-12621141D01*
X433052Y-12694974D01*
X408750Y-12775087D01*
X402600Y-12837527D01*
X402600Y-12837533D01*
X400545Y-12858400D01*
X375000Y-12858400D01*
X375000Y-6260822D01*
X1068967Y-6260822D01*
X1433294Y-6739654D01*
X2095182Y-7092601D01*
X2813208Y-7309637D01*
X3559779Y-7382423D01*
X4306204Y-7308162D01*
X5023800Y-7089708D01*
X5678706Y-6739654D01*
X6043033Y-6260822D01*
X3556000Y-3773789D01*
X1068967Y-6260822D01*
X375000Y-6260822D01*
X375000Y-5680725D01*
X851178Y-6043033D01*
X3338211Y-3556000D01*
X3773789Y-3556000D01*
X6260822Y-6043033D01*
X6739654Y-5678706D01*
X7092601Y-5016818D01*
X7309637Y-4298792D01*
X7382423Y-3552221D01*
X7308162Y-2805796D01*
X7176917Y-2374670D01*
X62156060Y-2374670D01*
X62156060Y-2679930D01*
X62215614Y-2979325D01*
X62332432Y-3261349D01*
X62502025Y-3515163D01*
X62717877Y-3731015D01*
X62971691Y-3900608D01*
X63253715Y-4017426D01*
X63553110Y-4076980D01*
X63858370Y-4076980D01*
X64157765Y-4017426D01*
X64439789Y-3900608D01*
X64693603Y-3731015D01*
X64909455Y-3515163D01*
X65079048Y-3261349D01*
X65195866Y-2979325D01*
X65255420Y-2679930D01*
X65255420Y-2374670D01*
X72158580Y-2374670D01*
X72158580Y-2679930D01*
X72218134Y-2979325D01*
X72334952Y-3261349D01*
X72504545Y-3515163D01*
X72720397Y-3731015D01*
X72974211Y-3900608D01*
X73256235Y-4017426D01*
X73555630Y-4076980D01*
X73860890Y-4076980D01*
X74160285Y-4017426D01*
X74442309Y-3900608D01*
X74696123Y-3731015D01*
X74867359Y-3559779D01*
X78342577Y-3559779D01*
X78416838Y-4306204D01*
X78635292Y-5023800D01*
X78985346Y-5678706D01*
X79464178Y-6043033D01*
X81951211Y-3556000D01*
X79464178Y-1068967D01*
X78985346Y-1433294D01*
X78632399Y-2095182D01*
X78415363Y-2813208D01*
X78342577Y-3559779D01*
X74867359Y-3559779D01*
X74911975Y-3515163D01*
X75081568Y-3261349D01*
X75198386Y-2979325D01*
X75257940Y-2679930D01*
X75257940Y-2374670D01*
X75198386Y-2075275D01*
X75081568Y-1793251D01*
X74911975Y-1539437D01*
X74696123Y-1323585D01*
X74442309Y-1153992D01*
X74160285Y-1037174D01*
X73860890Y-977620D01*
X73555630Y-977620D01*
X73256235Y-1037174D01*
X72974211Y-1153992D01*
X72720397Y-1323585D01*
X72504545Y-1539437D01*
X72334952Y-1793251D01*
X72218134Y-2075275D01*
X72158580Y-2374670D01*
X65255420Y-2374670D01*
X65195866Y-2075275D01*
X65079048Y-1793251D01*
X64909455Y-1539437D01*
X64693603Y-1323585D01*
X64439789Y-1153992D01*
X64157765Y-1037174D01*
X63858370Y-977620D01*
X63553110Y-977620D01*
X63253715Y-1037174D01*
X62971691Y-1153992D01*
X62717877Y-1323585D01*
X62502025Y-1539437D01*
X62332432Y-1793251D01*
X62215614Y-2075275D01*
X62156060Y-2374670D01*
X7176917Y-2374670D01*
X7089708Y-2088200D01*
X6739654Y-1433294D01*
X6260822Y-1068967D01*
X3773789Y-3556000D01*
X3338211Y-3556000D01*
X3324069Y-3541858D01*
X3541858Y-3324069D01*
X3556000Y-3338211D01*
X6043033Y-851178D01*
X5680725Y-375000D01*
X80044275Y-375000D01*
X79681967Y-851178D01*
G37*
G04 #@! TD.AperFunction*
D22*
X18603600Y-9587341D02*
X18603600Y-11661590D01*
X18511974Y-11600368D01*
X18384582Y-11547601D01*
X18249344Y-11520700D01*
X18111456Y-11520700D01*
X17976218Y-11547601D01*
X17848826Y-11600368D01*
X17734176Y-11676974D01*
X17636674Y-11774476D01*
X17560068Y-11889126D01*
X17507301Y-12016518D01*
X17480400Y-12151756D01*
X17480400Y-12289644D01*
X17507301Y-12424882D01*
X17560068Y-12552274D01*
X17636674Y-12666924D01*
X17734176Y-12764426D01*
X17755400Y-12778607D01*
X17755401Y-16086519D01*
X17753345Y-16107396D01*
X17761550Y-16190710D01*
X17776959Y-16241504D01*
X17785853Y-16270823D01*
X17825317Y-16344656D01*
X17878427Y-16409370D01*
X17894639Y-16422675D01*
X17900002Y-16428038D01*
X17900003Y-18127125D01*
X17897947Y-18148002D01*
X17906152Y-18231316D01*
X17920796Y-18279589D01*
X17930455Y-18311429D01*
X17969919Y-18385262D01*
X17975000Y-18391453D01*
X17975001Y-27626623D01*
X17972945Y-27647500D01*
X17981150Y-27730814D01*
X17998571Y-27788241D01*
X18005453Y-27810927D01*
X18044917Y-27884760D01*
X18062989Y-27906780D01*
X18082270Y-27930274D01*
X18098027Y-27949474D01*
X18114239Y-27962779D01*
X18573900Y-28422440D01*
X18573900Y-32570477D01*
X18510239Y-32475201D01*
X18224699Y-32189661D01*
X17888939Y-31965314D01*
X17515863Y-31810780D01*
X17119807Y-31732000D01*
X16715993Y-31732000D01*
X16319937Y-31810780D01*
X15946861Y-31965314D01*
X15611101Y-32189661D01*
X15325561Y-32475201D01*
X15101214Y-32810961D01*
X14946680Y-33184037D01*
X14867900Y-33580093D01*
X14867900Y-33983907D01*
X14946680Y-34379963D01*
X15101214Y-34753039D01*
X15325561Y-35088799D01*
X15611101Y-35374339D01*
X15946861Y-35598686D01*
X16319937Y-35753220D01*
X16715993Y-35832000D01*
X17119807Y-35832000D01*
X17515863Y-35753220D01*
X17888939Y-35598686D01*
X18224699Y-35374339D01*
X18510239Y-35088799D01*
X18573901Y-34993522D01*
X18573901Y-38874758D01*
X16403643Y-41045017D01*
X16387426Y-41058326D01*
X16334316Y-41123041D01*
X16294852Y-41196874D01*
X16279897Y-41246174D01*
X16270550Y-41276986D01*
X16270056Y-41282000D01*
X16264400Y-41339427D01*
X16264400Y-41339433D01*
X16262345Y-41360300D01*
X16264400Y-41381167D01*
X16264401Y-42899692D01*
X16243176Y-42913874D01*
X16145674Y-43011376D01*
X16069068Y-43126026D01*
X16016301Y-43253418D01*
X15989400Y-43388656D01*
X15989400Y-43526544D01*
X16016301Y-43661782D01*
X16069068Y-43789174D01*
X16145674Y-43903824D01*
X16243176Y-44001326D01*
X16357826Y-44077932D01*
X16485218Y-44130699D01*
X16620456Y-44157600D01*
X16758344Y-44157600D01*
X16893582Y-44130699D01*
X17020974Y-44077932D01*
X17135624Y-44001326D01*
X17233126Y-43903824D01*
X17309732Y-43789174D01*
X17362499Y-43661782D01*
X17389400Y-43526544D01*
X17389400Y-43388656D01*
X17362499Y-43253418D01*
X17309732Y-43126026D01*
X17233126Y-43011376D01*
X17135624Y-42913874D01*
X17114400Y-42899693D01*
X17114400Y-41536340D01*
X17859900Y-40790840D01*
X17859900Y-40936002D01*
X18006471Y-40936002D01*
X17856240Y-41150469D01*
X17905516Y-41413839D01*
X18005226Y-41662535D01*
X18151538Y-41887000D01*
X18338830Y-42078608D01*
X18559904Y-42229996D01*
X18806265Y-42335345D01*
X18854728Y-42340538D01*
X19063900Y-42228127D01*
X19063900Y-40936000D01*
X19043900Y-40936000D01*
X19043900Y-40628000D01*
X19063900Y-40628000D01*
X19063900Y-40608000D01*
X19371900Y-40608000D01*
X19371900Y-40628000D01*
X19391900Y-40628000D01*
X19391900Y-40936000D01*
X19371900Y-40936000D01*
X19371900Y-42228127D01*
X19581072Y-42340538D01*
X19629535Y-42335345D01*
X19875896Y-42229996D01*
X20096970Y-42078608D01*
X20156507Y-42017699D01*
X20202527Y-42073774D01*
X20218739Y-42087079D01*
X21869680Y-43738021D01*
X21864700Y-43763056D01*
X21864700Y-43900944D01*
X21891601Y-44036182D01*
X21944368Y-44163574D01*
X22020974Y-44278224D01*
X22118476Y-44375726D01*
X22233126Y-44452332D01*
X22360518Y-44505099D01*
X22495756Y-44532000D01*
X22633644Y-44532000D01*
X22768882Y-44505099D01*
X22896274Y-44452332D01*
X23010924Y-44375726D01*
X23108426Y-44278224D01*
X23185032Y-44163574D01*
X23237799Y-44036182D01*
X23264700Y-43900944D01*
X23264700Y-43763056D01*
X23237799Y-43627818D01*
X23185032Y-43500426D01*
X23108426Y-43385776D01*
X23010924Y-43288274D01*
X22896274Y-43211668D01*
X22768882Y-43158901D01*
X22633644Y-43132000D01*
X22495756Y-43132000D01*
X22470721Y-43136980D01*
X21351989Y-42018249D01*
X21512065Y-42066807D01*
X21717900Y-42087080D01*
X21923736Y-42066807D01*
X22121662Y-42006767D01*
X22304071Y-41909267D01*
X22463954Y-41778054D01*
X22595167Y-41618171D01*
X22692667Y-41435761D01*
X22704001Y-41398398D01*
X22704001Y-42088523D01*
X22701945Y-42109400D01*
X22710150Y-42192714D01*
X22720893Y-42228127D01*
X22734453Y-42272827D01*
X22773917Y-42346660D01*
X22827027Y-42411374D01*
X22843239Y-42424679D01*
X24592080Y-44173521D01*
X24587100Y-44198556D01*
X24587100Y-44336444D01*
X24614001Y-44471682D01*
X24653814Y-44567800D01*
X12559641Y-44567800D01*
X10198342Y-42206502D01*
X10327236Y-42193807D01*
X10525162Y-42133767D01*
X10707571Y-42036267D01*
X10867454Y-41905054D01*
X10998667Y-41745171D01*
X11096167Y-41562761D01*
X11156207Y-41364835D01*
X11171400Y-41210577D01*
X11171400Y-40607422D01*
X11156207Y-40453164D01*
X11096167Y-40255238D01*
X10998667Y-40072829D01*
X10867454Y-39912946D01*
X10707571Y-39781733D01*
X10621400Y-39735674D01*
X10621400Y-35391949D01*
X10623818Y-35367399D01*
X10621400Y-35342849D01*
X10621400Y-35342840D01*
X10614165Y-35269383D01*
X10585575Y-35175133D01*
X10539146Y-35088271D01*
X10476664Y-35012136D01*
X10457587Y-34996480D01*
X9168200Y-33707093D01*
X10371400Y-33707093D01*
X10371400Y-34110907D01*
X10450180Y-34506963D01*
X10604714Y-34880039D01*
X10829061Y-35215799D01*
X11114601Y-35501339D01*
X11450361Y-35725686D01*
X11823437Y-35880220D01*
X12219493Y-35959000D01*
X12623307Y-35959000D01*
X13019363Y-35880220D01*
X13392439Y-35725686D01*
X13728199Y-35501339D01*
X14013739Y-35215799D01*
X14238086Y-34880039D01*
X14392620Y-34506963D01*
X14471400Y-34110907D01*
X14471400Y-33707093D01*
X14392620Y-33311037D01*
X14238086Y-32937961D01*
X14013739Y-32602201D01*
X13728199Y-32316661D01*
X13392439Y-32092314D01*
X13019363Y-31937780D01*
X12623307Y-31859000D01*
X12219493Y-31859000D01*
X11823437Y-31937780D01*
X11450361Y-32092314D01*
X11114601Y-32316661D01*
X10829061Y-32602201D01*
X10604714Y-32937961D01*
X10450180Y-33311037D01*
X10371400Y-33707093D01*
X9168200Y-33707093D01*
X3388269Y-27927164D01*
X3428000Y-27727416D01*
X3428000Y-27520584D01*
X3387650Y-27317726D01*
X3308498Y-27126638D01*
X3193589Y-26954664D01*
X3106015Y-26867090D01*
X14249183Y-15723924D01*
X14288968Y-15819974D01*
X14365574Y-15934624D01*
X14463076Y-16032126D01*
X14577726Y-16108732D01*
X14705118Y-16161499D01*
X14840356Y-16188400D01*
X14978244Y-16188400D01*
X15113482Y-16161499D01*
X15240874Y-16108732D01*
X15355524Y-16032126D01*
X15453026Y-15934624D01*
X15529632Y-15819974D01*
X15582399Y-15692582D01*
X15609300Y-15557344D01*
X15609300Y-15419456D01*
X15604320Y-15394420D01*
X17131962Y-13866779D01*
X17148174Y-13853474D01*
X17201284Y-13788760D01*
X17240748Y-13714927D01*
X17265050Y-13634814D01*
X17271200Y-13572374D01*
X17271200Y-13572368D01*
X17273255Y-13551501D01*
X17271200Y-13530634D01*
X17271200Y-11765240D01*
X17650921Y-11385520D01*
X17675956Y-11390500D01*
X17813844Y-11390500D01*
X17949082Y-11363599D01*
X18076474Y-11310832D01*
X18191124Y-11234226D01*
X18288626Y-11136724D01*
X18365232Y-11022074D01*
X18417999Y-10894682D01*
X18444900Y-10759444D01*
X18444900Y-10621556D01*
X18417999Y-10486318D01*
X18365232Y-10358926D01*
X18288626Y-10244276D01*
X18191124Y-10146774D01*
X18076474Y-10070168D01*
X17949082Y-10017401D01*
X17813844Y-9990500D01*
X17675956Y-9990500D01*
X17540718Y-10017401D01*
X17413326Y-10070168D01*
X17298676Y-10146774D01*
X17201174Y-10244276D01*
X17124568Y-10358926D01*
X17071801Y-10486318D01*
X17044900Y-10621556D01*
X17044900Y-10759444D01*
X17049880Y-10784479D01*
X16560443Y-11273917D01*
X16544226Y-11287226D01*
X16491116Y-11351941D01*
X16451652Y-11425774D01*
X16427350Y-11505887D01*
X16421200Y-11568327D01*
X16421200Y-11568333D01*
X16419145Y-11589200D01*
X16421200Y-11610067D01*
X16421201Y-13375458D01*
X15972534Y-13824126D01*
X15973200Y-13817360D01*
X15973200Y-13817351D01*
X15975618Y-13792801D01*
X15973200Y-13768251D01*
X15973200Y-10065900D01*
X16157640Y-10065900D01*
X16182200Y-10068319D01*
X16206760Y-10065900D01*
X16280217Y-10058665D01*
X16374467Y-10030075D01*
X16461329Y-9983646D01*
X16537464Y-9921164D01*
X16553129Y-9902076D01*
X16867206Y-9588000D01*
X16929044Y-9588000D01*
X17064282Y-9561099D01*
X17191674Y-9508332D01*
X17306324Y-9431726D01*
X17403826Y-9334224D01*
X17480432Y-9219574D01*
X17533199Y-9092182D01*
X17560100Y-8956944D01*
X17560100Y-8819056D01*
X17533199Y-8683818D01*
X17486344Y-8570700D01*
X17556944Y-8570700D01*
X17581980Y-8565720D01*
X18603600Y-9587341D01*
G04 #@! TA.AperFunction,Conductor*
D23*
G36*
X18603600Y-9587341D02*
G01*
X18603600Y-11661590D01*
X18511974Y-11600368D01*
X18384582Y-11547601D01*
X18249344Y-11520700D01*
X18111456Y-11520700D01*
X17976218Y-11547601D01*
X17848826Y-11600368D01*
X17734176Y-11676974D01*
X17636674Y-11774476D01*
X17560068Y-11889126D01*
X17507301Y-12016518D01*
X17480400Y-12151756D01*
X17480400Y-12289644D01*
X17507301Y-12424882D01*
X17560068Y-12552274D01*
X17636674Y-12666924D01*
X17734176Y-12764426D01*
X17755400Y-12778607D01*
X17755401Y-16086519D01*
X17753345Y-16107396D01*
X17761550Y-16190710D01*
X17776959Y-16241504D01*
X17785853Y-16270823D01*
X17825317Y-16344656D01*
X17878427Y-16409370D01*
X17894639Y-16422675D01*
X17900002Y-16428038D01*
X17900003Y-18127125D01*
X17897947Y-18148002D01*
X17906152Y-18231316D01*
X17920796Y-18279589D01*
X17930455Y-18311429D01*
X17969919Y-18385262D01*
X17975000Y-18391453D01*
X17975001Y-27626623D01*
X17972945Y-27647500D01*
X17981150Y-27730814D01*
X17998571Y-27788241D01*
X18005453Y-27810927D01*
X18044917Y-27884760D01*
X18062989Y-27906780D01*
X18082270Y-27930274D01*
X18098027Y-27949474D01*
X18114239Y-27962779D01*
X18573900Y-28422440D01*
X18573900Y-32570477D01*
X18510239Y-32475201D01*
X18224699Y-32189661D01*
X17888939Y-31965314D01*
X17515863Y-31810780D01*
X17119807Y-31732000D01*
X16715993Y-31732000D01*
X16319937Y-31810780D01*
X15946861Y-31965314D01*
X15611101Y-32189661D01*
X15325561Y-32475201D01*
X15101214Y-32810961D01*
X14946680Y-33184037D01*
X14867900Y-33580093D01*
X14867900Y-33983907D01*
X14946680Y-34379963D01*
X15101214Y-34753039D01*
X15325561Y-35088799D01*
X15611101Y-35374339D01*
X15946861Y-35598686D01*
X16319937Y-35753220D01*
X16715993Y-35832000D01*
X17119807Y-35832000D01*
X17515863Y-35753220D01*
X17888939Y-35598686D01*
X18224699Y-35374339D01*
X18510239Y-35088799D01*
X18573901Y-34993522D01*
X18573901Y-38874758D01*
X16403643Y-41045017D01*
X16387426Y-41058326D01*
X16334316Y-41123041D01*
X16294852Y-41196874D01*
X16279897Y-41246174D01*
X16270550Y-41276986D01*
X16270056Y-41282000D01*
X16264400Y-41339427D01*
X16264400Y-41339433D01*
X16262345Y-41360300D01*
X16264400Y-41381167D01*
X16264401Y-42899692D01*
X16243176Y-42913874D01*
X16145674Y-43011376D01*
X16069068Y-43126026D01*
X16016301Y-43253418D01*
X15989400Y-43388656D01*
X15989400Y-43526544D01*
X16016301Y-43661782D01*
X16069068Y-43789174D01*
X16145674Y-43903824D01*
X16243176Y-44001326D01*
X16357826Y-44077932D01*
X16485218Y-44130699D01*
X16620456Y-44157600D01*
X16758344Y-44157600D01*
X16893582Y-44130699D01*
X17020974Y-44077932D01*
X17135624Y-44001326D01*
X17233126Y-43903824D01*
X17309732Y-43789174D01*
X17362499Y-43661782D01*
X17389400Y-43526544D01*
X17389400Y-43388656D01*
X17362499Y-43253418D01*
X17309732Y-43126026D01*
X17233126Y-43011376D01*
X17135624Y-42913874D01*
X17114400Y-42899693D01*
X17114400Y-41536340D01*
X17859900Y-40790840D01*
X17859900Y-40936002D01*
X18006471Y-40936002D01*
X17856240Y-41150469D01*
X17905516Y-41413839D01*
X18005226Y-41662535D01*
X18151538Y-41887000D01*
X18338830Y-42078608D01*
X18559904Y-42229996D01*
X18806265Y-42335345D01*
X18854728Y-42340538D01*
X19063900Y-42228127D01*
X19063900Y-40936000D01*
X19043900Y-40936000D01*
X19043900Y-40628000D01*
X19063900Y-40628000D01*
X19063900Y-40608000D01*
X19371900Y-40608000D01*
X19371900Y-40628000D01*
X19391900Y-40628000D01*
X19391900Y-40936000D01*
X19371900Y-40936000D01*
X19371900Y-42228127D01*
X19581072Y-42340538D01*
X19629535Y-42335345D01*
X19875896Y-42229996D01*
X20096970Y-42078608D01*
X20156507Y-42017699D01*
X20202527Y-42073774D01*
X20218739Y-42087079D01*
X21869680Y-43738021D01*
X21864700Y-43763056D01*
X21864700Y-43900944D01*
X21891601Y-44036182D01*
X21944368Y-44163574D01*
X22020974Y-44278224D01*
X22118476Y-44375726D01*
X22233126Y-44452332D01*
X22360518Y-44505099D01*
X22495756Y-44532000D01*
X22633644Y-44532000D01*
X22768882Y-44505099D01*
X22896274Y-44452332D01*
X23010924Y-44375726D01*
X23108426Y-44278224D01*
X23185032Y-44163574D01*
X23237799Y-44036182D01*
X23264700Y-43900944D01*
X23264700Y-43763056D01*
X23237799Y-43627818D01*
X23185032Y-43500426D01*
X23108426Y-43385776D01*
X23010924Y-43288274D01*
X22896274Y-43211668D01*
X22768882Y-43158901D01*
X22633644Y-43132000D01*
X22495756Y-43132000D01*
X22470721Y-43136980D01*
X21351989Y-42018249D01*
X21512065Y-42066807D01*
X21717900Y-42087080D01*
X21923736Y-42066807D01*
X22121662Y-42006767D01*
X22304071Y-41909267D01*
X22463954Y-41778054D01*
X22595167Y-41618171D01*
X22692667Y-41435761D01*
X22704001Y-41398398D01*
X22704001Y-42088523D01*
X22701945Y-42109400D01*
X22710150Y-42192714D01*
X22720893Y-42228127D01*
X22734453Y-42272827D01*
X22773917Y-42346660D01*
X22827027Y-42411374D01*
X22843239Y-42424679D01*
X24592080Y-44173521D01*
X24587100Y-44198556D01*
X24587100Y-44336444D01*
X24614001Y-44471682D01*
X24653814Y-44567800D01*
X12559641Y-44567800D01*
X10198342Y-42206502D01*
X10327236Y-42193807D01*
X10525162Y-42133767D01*
X10707571Y-42036267D01*
X10867454Y-41905054D01*
X10998667Y-41745171D01*
X11096167Y-41562761D01*
X11156207Y-41364835D01*
X11171400Y-41210577D01*
X11171400Y-40607422D01*
X11156207Y-40453164D01*
X11096167Y-40255238D01*
X10998667Y-40072829D01*
X10867454Y-39912946D01*
X10707571Y-39781733D01*
X10621400Y-39735674D01*
X10621400Y-35391949D01*
X10623818Y-35367399D01*
X10621400Y-35342849D01*
X10621400Y-35342840D01*
X10614165Y-35269383D01*
X10585575Y-35175133D01*
X10539146Y-35088271D01*
X10476664Y-35012136D01*
X10457587Y-34996480D01*
X9168200Y-33707093D01*
X10371400Y-33707093D01*
X10371400Y-34110907D01*
X10450180Y-34506963D01*
X10604714Y-34880039D01*
X10829061Y-35215799D01*
X11114601Y-35501339D01*
X11450361Y-35725686D01*
X11823437Y-35880220D01*
X12219493Y-35959000D01*
X12623307Y-35959000D01*
X13019363Y-35880220D01*
X13392439Y-35725686D01*
X13728199Y-35501339D01*
X14013739Y-35215799D01*
X14238086Y-34880039D01*
X14392620Y-34506963D01*
X14471400Y-34110907D01*
X14471400Y-33707093D01*
X14392620Y-33311037D01*
X14238086Y-32937961D01*
X14013739Y-32602201D01*
X13728199Y-32316661D01*
X13392439Y-32092314D01*
X13019363Y-31937780D01*
X12623307Y-31859000D01*
X12219493Y-31859000D01*
X11823437Y-31937780D01*
X11450361Y-32092314D01*
X11114601Y-32316661D01*
X10829061Y-32602201D01*
X10604714Y-32937961D01*
X10450180Y-33311037D01*
X10371400Y-33707093D01*
X9168200Y-33707093D01*
X3388269Y-27927164D01*
X3428000Y-27727416D01*
X3428000Y-27520584D01*
X3387650Y-27317726D01*
X3308498Y-27126638D01*
X3193589Y-26954664D01*
X3106015Y-26867090D01*
X14249183Y-15723924D01*
X14288968Y-15819974D01*
X14365574Y-15934624D01*
X14463076Y-16032126D01*
X14577726Y-16108732D01*
X14705118Y-16161499D01*
X14840356Y-16188400D01*
X14978244Y-16188400D01*
X15113482Y-16161499D01*
X15240874Y-16108732D01*
X15355524Y-16032126D01*
X15453026Y-15934624D01*
X15529632Y-15819974D01*
X15582399Y-15692582D01*
X15609300Y-15557344D01*
X15609300Y-15419456D01*
X15604320Y-15394420D01*
X17131962Y-13866779D01*
X17148174Y-13853474D01*
X17201284Y-13788760D01*
X17240748Y-13714927D01*
X17265050Y-13634814D01*
X17271200Y-13572374D01*
X17271200Y-13572368D01*
X17273255Y-13551501D01*
X17271200Y-13530634D01*
X17271200Y-11765240D01*
X17650921Y-11385520D01*
X17675956Y-11390500D01*
X17813844Y-11390500D01*
X17949082Y-11363599D01*
X18076474Y-11310832D01*
X18191124Y-11234226D01*
X18288626Y-11136724D01*
X18365232Y-11022074D01*
X18417999Y-10894682D01*
X18444900Y-10759444D01*
X18444900Y-10621556D01*
X18417999Y-10486318D01*
X18365232Y-10358926D01*
X18288626Y-10244276D01*
X18191124Y-10146774D01*
X18076474Y-10070168D01*
X17949082Y-10017401D01*
X17813844Y-9990500D01*
X17675956Y-9990500D01*
X17540718Y-10017401D01*
X17413326Y-10070168D01*
X17298676Y-10146774D01*
X17201174Y-10244276D01*
X17124568Y-10358926D01*
X17071801Y-10486318D01*
X17044900Y-10621556D01*
X17044900Y-10759444D01*
X17049880Y-10784479D01*
X16560443Y-11273917D01*
X16544226Y-11287226D01*
X16491116Y-11351941D01*
X16451652Y-11425774D01*
X16427350Y-11505887D01*
X16421200Y-11568327D01*
X16421200Y-11568333D01*
X16419145Y-11589200D01*
X16421200Y-11610067D01*
X16421201Y-13375458D01*
X15972534Y-13824126D01*
X15973200Y-13817360D01*
X15973200Y-13817351D01*
X15975618Y-13792801D01*
X15973200Y-13768251D01*
X15973200Y-10065900D01*
X16157640Y-10065900D01*
X16182200Y-10068319D01*
X16206760Y-10065900D01*
X16280217Y-10058665D01*
X16374467Y-10030075D01*
X16461329Y-9983646D01*
X16537464Y-9921164D01*
X16553129Y-9902076D01*
X16867206Y-9588000D01*
X16929044Y-9588000D01*
X17064282Y-9561099D01*
X17191674Y-9508332D01*
X17306324Y-9431726D01*
X17403826Y-9334224D01*
X17480432Y-9219574D01*
X17533199Y-9092182D01*
X17560100Y-8956944D01*
X17560100Y-8819056D01*
X17533199Y-8683818D01*
X17486344Y-8570700D01*
X17556944Y-8570700D01*
X17581980Y-8565720D01*
X18603600Y-9587341D01*
G37*
G04 #@! TD.AperFunction*
D22*
X14341326Y-11208032D02*
X14468718Y-11260799D01*
X14603956Y-11287700D01*
X14741844Y-11287700D01*
X14877082Y-11260799D01*
X14973200Y-11220986D01*
X14973201Y-13585692D01*
X3428000Y-25130895D01*
X3428000Y-24980584D01*
X3387650Y-24777726D01*
X3308498Y-24586638D01*
X3193589Y-24414664D01*
X3047336Y-24268411D01*
X2875362Y-24153502D01*
X2684274Y-24074350D01*
X2481416Y-24034000D01*
X2274584Y-24034000D01*
X2071726Y-24074350D01*
X1999364Y-24104324D01*
X1252600Y-23357560D01*
X1252600Y-19479640D01*
X1398324Y-19625364D01*
X1368350Y-19697726D01*
X1328000Y-19900584D01*
X1328000Y-20107416D01*
X1368350Y-20310274D01*
X1447502Y-20501362D01*
X1562411Y-20673336D01*
X1708664Y-20819589D01*
X1880638Y-20934498D01*
X2071726Y-21013650D01*
X2274584Y-21054000D01*
X2481416Y-21054000D01*
X2684274Y-21013650D01*
X2875362Y-20934498D01*
X3047336Y-20819589D01*
X3193589Y-20673336D01*
X3308498Y-20501362D01*
X3387650Y-20310274D01*
X3428000Y-20107416D01*
X3428000Y-19900584D01*
X3387650Y-19697726D01*
X3308498Y-19506638D01*
X3193589Y-19334664D01*
X3047336Y-19188411D01*
X2875362Y-19073502D01*
X2684274Y-18994350D01*
X2481416Y-18954000D01*
X2274584Y-18954000D01*
X2071726Y-18994350D01*
X1999364Y-19024324D01*
X1704500Y-18729460D01*
X1704500Y-18275425D01*
X1708664Y-18279589D01*
X1880638Y-18394498D01*
X2071726Y-18473650D01*
X2274584Y-18514000D01*
X2481416Y-18514000D01*
X2684274Y-18473650D01*
X2875362Y-18394498D01*
X3047336Y-18279589D01*
X3193589Y-18133336D01*
X3308498Y-17961362D01*
X3387650Y-17770274D01*
X3428000Y-17567416D01*
X3428000Y-17360584D01*
X3387650Y-17157726D01*
X3308498Y-16966638D01*
X3193589Y-16794664D01*
X3066633Y-16667708D01*
X3714762Y-16019579D01*
X3730974Y-16006274D01*
X3784084Y-15941560D01*
X3823548Y-15867727D01*
X3842448Y-15805422D01*
X3847850Y-15787615D01*
X3851327Y-15752313D01*
X3854000Y-15725174D01*
X3854000Y-15725168D01*
X3856055Y-15704301D01*
X3854000Y-15683434D01*
X3854000Y-15597710D01*
X3973729Y-15548116D01*
X4162082Y-15422263D01*
X4322263Y-15262082D01*
X4368701Y-15192583D01*
X4368700Y-19952259D01*
X2756636Y-21564324D01*
X2684274Y-21534350D01*
X2481416Y-21494000D01*
X2274584Y-21494000D01*
X2071726Y-21534350D01*
X1880638Y-21613502D01*
X1708664Y-21728411D01*
X1562411Y-21874664D01*
X1447502Y-22046638D01*
X1368350Y-22237726D01*
X1328000Y-22440584D01*
X1328000Y-22647416D01*
X1368350Y-22850274D01*
X1447502Y-23041362D01*
X1562411Y-23213336D01*
X1708664Y-23359589D01*
X1880638Y-23474498D01*
X2071726Y-23553650D01*
X2274584Y-23594000D01*
X2481416Y-23594000D01*
X2684274Y-23553650D01*
X2875362Y-23474498D01*
X3047336Y-23359589D01*
X3193589Y-23213336D01*
X3308498Y-23041362D01*
X3387650Y-22850274D01*
X3428000Y-22647416D01*
X3428000Y-22440584D01*
X3387650Y-22237726D01*
X3357676Y-22165364D01*
X5079463Y-20443578D01*
X5095674Y-20430274D01*
X5148784Y-20365560D01*
X5180649Y-20305944D01*
X5188248Y-20291728D01*
X5212550Y-20211614D01*
X5213694Y-20200000D01*
X5218700Y-20149174D01*
X5218700Y-20149167D01*
X5220755Y-20128300D01*
X5218700Y-20107433D01*
X5218700Y-15771105D01*
X5322700Y-15835935D01*
X5590089Y-15936909D01*
X5815000Y-15826850D01*
X5815000Y-14683000D01*
X6123000Y-14683000D01*
X6123000Y-15826850D01*
X6347911Y-15936909D01*
X6615300Y-15835935D01*
X6857852Y-15684736D01*
X7066246Y-15489122D01*
X7232473Y-15256611D01*
X7350146Y-14996139D01*
X7376903Y-14907910D01*
X7265889Y-14683000D01*
X6123000Y-14683000D01*
X5815000Y-14683000D01*
X5795000Y-14683000D01*
X5795000Y-14375000D01*
X5815000Y-14375000D01*
X5815000Y-14355000D01*
X6123000Y-14355000D01*
X6123000Y-14375000D01*
X7265889Y-14375000D01*
X7376903Y-14150090D01*
X7350146Y-14061861D01*
X7232473Y-13801389D01*
X7066246Y-13568878D01*
X6857852Y-13373264D01*
X6615300Y-13222065D01*
X6394000Y-13138496D01*
X6394000Y-13057710D01*
X6513729Y-13008116D01*
X6702082Y-12882263D01*
X6862263Y-12722082D01*
X6988116Y-12533729D01*
X7074806Y-12324443D01*
X7119000Y-12102265D01*
X7119000Y-11875735D01*
X7074806Y-11653557D01*
X6988116Y-11444271D01*
X6862263Y-11255918D01*
X6750345Y-11144000D01*
X14245494Y-11144000D01*
X14341326Y-11208032D01*
G04 #@! TA.AperFunction,Conductor*
D23*
G36*
X14341326Y-11208032D02*
G01*
X14468718Y-11260799D01*
X14603956Y-11287700D01*
X14741844Y-11287700D01*
X14877082Y-11260799D01*
X14973200Y-11220986D01*
X14973201Y-13585692D01*
X3428000Y-25130895D01*
X3428000Y-24980584D01*
X3387650Y-24777726D01*
X3308498Y-24586638D01*
X3193589Y-24414664D01*
X3047336Y-24268411D01*
X2875362Y-24153502D01*
X2684274Y-24074350D01*
X2481416Y-24034000D01*
X2274584Y-24034000D01*
X2071726Y-24074350D01*
X1999364Y-24104324D01*
X1252600Y-23357560D01*
X1252600Y-19479640D01*
X1398324Y-19625364D01*
X1368350Y-19697726D01*
X1328000Y-19900584D01*
X1328000Y-20107416D01*
X1368350Y-20310274D01*
X1447502Y-20501362D01*
X1562411Y-20673336D01*
X1708664Y-20819589D01*
X1880638Y-20934498D01*
X2071726Y-21013650D01*
X2274584Y-21054000D01*
X2481416Y-21054000D01*
X2684274Y-21013650D01*
X2875362Y-20934498D01*
X3047336Y-20819589D01*
X3193589Y-20673336D01*
X3308498Y-20501362D01*
X3387650Y-20310274D01*
X3428000Y-20107416D01*
X3428000Y-19900584D01*
X3387650Y-19697726D01*
X3308498Y-19506638D01*
X3193589Y-19334664D01*
X3047336Y-19188411D01*
X2875362Y-19073502D01*
X2684274Y-18994350D01*
X2481416Y-18954000D01*
X2274584Y-18954000D01*
X2071726Y-18994350D01*
X1999364Y-19024324D01*
X1704500Y-18729460D01*
X1704500Y-18275425D01*
X1708664Y-18279589D01*
X1880638Y-18394498D01*
X2071726Y-18473650D01*
X2274584Y-18514000D01*
X2481416Y-18514000D01*
X2684274Y-18473650D01*
X2875362Y-18394498D01*
X3047336Y-18279589D01*
X3193589Y-18133336D01*
X3308498Y-17961362D01*
X3387650Y-17770274D01*
X3428000Y-17567416D01*
X3428000Y-17360584D01*
X3387650Y-17157726D01*
X3308498Y-16966638D01*
X3193589Y-16794664D01*
X3066633Y-16667708D01*
X3714762Y-16019579D01*
X3730974Y-16006274D01*
X3784084Y-15941560D01*
X3823548Y-15867727D01*
X3842448Y-15805422D01*
X3847850Y-15787615D01*
X3851327Y-15752313D01*
X3854000Y-15725174D01*
X3854000Y-15725168D01*
X3856055Y-15704301D01*
X3854000Y-15683434D01*
X3854000Y-15597710D01*
X3973729Y-15548116D01*
X4162082Y-15422263D01*
X4322263Y-15262082D01*
X4368701Y-15192583D01*
X4368700Y-19952259D01*
X2756636Y-21564324D01*
X2684274Y-21534350D01*
X2481416Y-21494000D01*
X2274584Y-21494000D01*
X2071726Y-21534350D01*
X1880638Y-21613502D01*
X1708664Y-21728411D01*
X1562411Y-21874664D01*
X1447502Y-22046638D01*
X1368350Y-22237726D01*
X1328000Y-22440584D01*
X1328000Y-22647416D01*
X1368350Y-22850274D01*
X1447502Y-23041362D01*
X1562411Y-23213336D01*
X1708664Y-23359589D01*
X1880638Y-23474498D01*
X2071726Y-23553650D01*
X2274584Y-23594000D01*
X2481416Y-23594000D01*
X2684274Y-23553650D01*
X2875362Y-23474498D01*
X3047336Y-23359589D01*
X3193589Y-23213336D01*
X3308498Y-23041362D01*
X3387650Y-22850274D01*
X3428000Y-22647416D01*
X3428000Y-22440584D01*
X3387650Y-22237726D01*
X3357676Y-22165364D01*
X5079463Y-20443578D01*
X5095674Y-20430274D01*
X5148784Y-20365560D01*
X5180649Y-20305944D01*
X5188248Y-20291728D01*
X5212550Y-20211614D01*
X5213694Y-20200000D01*
X5218700Y-20149174D01*
X5218700Y-20149167D01*
X5220755Y-20128300D01*
X5218700Y-20107433D01*
X5218700Y-15771105D01*
X5322700Y-15835935D01*
X5590089Y-15936909D01*
X5815000Y-15826850D01*
X5815000Y-14683000D01*
X6123000Y-14683000D01*
X6123000Y-15826850D01*
X6347911Y-15936909D01*
X6615300Y-15835935D01*
X6857852Y-15684736D01*
X7066246Y-15489122D01*
X7232473Y-15256611D01*
X7350146Y-14996139D01*
X7376903Y-14907910D01*
X7265889Y-14683000D01*
X6123000Y-14683000D01*
X5815000Y-14683000D01*
X5795000Y-14683000D01*
X5795000Y-14375000D01*
X5815000Y-14375000D01*
X5815000Y-14355000D01*
X6123000Y-14355000D01*
X6123000Y-14375000D01*
X7265889Y-14375000D01*
X7376903Y-14150090D01*
X7350146Y-14061861D01*
X7232473Y-13801389D01*
X7066246Y-13568878D01*
X6857852Y-13373264D01*
X6615300Y-13222065D01*
X6394000Y-13138496D01*
X6394000Y-13057710D01*
X6513729Y-13008116D01*
X6702082Y-12882263D01*
X6862263Y-12722082D01*
X6988116Y-12533729D01*
X7074806Y-12324443D01*
X7119000Y-12102265D01*
X7119000Y-11875735D01*
X7074806Y-11653557D01*
X6988116Y-11444271D01*
X6862263Y-11255918D01*
X6750345Y-11144000D01*
X14245494Y-11144000D01*
X14341326Y-11208032D01*
G37*
G04 #@! TD.AperFunction*
M02*
