G04 #@! TF.GenerationSoftware,KiCad,Pcbnew,(5.1.10)-1*
G04 #@! TF.CreationDate,2021-09-13T18:31:10+02:00*
G04 #@! TF.ProjectId,CardSizeMidiController,43617264-5369-47a6-954d-696469436f6e,rev?*
G04 #@! TF.SameCoordinates,Original*
G04 #@! TF.FileFunction,Soldermask,Bot*
G04 #@! TF.FilePolarity,Negative*
%FSLAX46Y46*%
G04 Gerber Fmt 4.6, Leading zero omitted, Abs format (unit mm)*
G04 Created by KiCad (PCBNEW (5.1.10)-1) date 2021-09-13 18:31:10*
%MOMM*%
%LPD*%
G01*
G04 APERTURE LIST*
%ADD10C,1.602000*%
%ADD11O,1.602000X2.102000*%
%ADD12C,3.602000*%
%ADD13O,1.802000X1.802000*%
%ADD14C,1.802000*%
%ADD15C,0.902000*%
%ADD16C,6.502000*%
%ADD17C,2.601360*%
%ADD18C,0.100000*%
G04 APERTURE END LIST*
D10*
X2378000Y-30164000D03*
X2378000Y-22544000D03*
X2378000Y-27624000D03*
X2378000Y-17464000D03*
X2378000Y-20004000D03*
X2378000Y-25084000D03*
G36*
G01*
X69958000Y-6051500D02*
X69958000Y-6902500D01*
G75*
G02*
X69532500Y-7328000I-425500J0D01*
G01*
X67881500Y-7328000D01*
G75*
G02*
X67456000Y-6902500I0J425500D01*
G01*
X67456000Y-6051500D01*
G75*
G02*
X67881500Y-5626000I425500J0D01*
G01*
X69532500Y-5626000D01*
G75*
G02*
X69958000Y-6051500I0J-425500D01*
G01*
G37*
G36*
G01*
X67058000Y-10651500D02*
X67058000Y-12302500D01*
G75*
G02*
X66632500Y-12728000I-425500J0D01*
G01*
X65781500Y-12728000D01*
G75*
G02*
X65356000Y-12302500I0J425500D01*
G01*
X65356000Y-10651500D01*
G75*
G02*
X65781500Y-10226000I425500J0D01*
G01*
X66632500Y-10226000D01*
G75*
G02*
X67058000Y-10651500I0J-425500D01*
G01*
G37*
G36*
G01*
X72058000Y-10651500D02*
X72058000Y-12302500D01*
G75*
G02*
X71632500Y-12728000I-425500J0D01*
G01*
X70781500Y-12728000D01*
G75*
G02*
X70356000Y-12302500I0J425500D01*
G01*
X70356000Y-10651500D01*
G75*
G02*
X70781500Y-10226000I425500J0D01*
G01*
X71632500Y-10226000D01*
G75*
G02*
X72058000Y-10651500I0J-425500D01*
G01*
G37*
G36*
G01*
X64558000Y-10651500D02*
X64558000Y-12302500D01*
G75*
G02*
X64132500Y-12728000I-425500J0D01*
G01*
X63281500Y-12728000D01*
G75*
G02*
X62856000Y-12302500I0J425500D01*
G01*
X62856000Y-10651500D01*
G75*
G02*
X63281500Y-10226000I425500J0D01*
G01*
X64132500Y-10226000D01*
G75*
G02*
X64558000Y-10651500I0J-425500D01*
G01*
G37*
G36*
G01*
X74558000Y-10651500D02*
X74558000Y-12302500D01*
G75*
G02*
X74132500Y-12728000I-425500J0D01*
G01*
X73281500Y-12728000D01*
G75*
G02*
X72856000Y-12302500I0J425500D01*
G01*
X72856000Y-10651500D01*
G75*
G02*
X73281500Y-10226000I425500J0D01*
G01*
X74132500Y-10226000D01*
G75*
G02*
X74558000Y-10651500I0J-425500D01*
G01*
G37*
D11*
X5121400Y-40909000D03*
X7621400Y-40909000D03*
X10121400Y-40909000D03*
D12*
X2821400Y-33909000D03*
X12421400Y-33909000D03*
G36*
G01*
X2528000Y-10299000D02*
X2528000Y-8599000D01*
G75*
G02*
X2579000Y-8548000I51000J0D01*
G01*
X4279000Y-8548000D01*
G75*
G02*
X4330000Y-8599000I0J-51000D01*
G01*
X4330000Y-10299000D01*
G75*
G02*
X4279000Y-10350000I-51000J0D01*
G01*
X2579000Y-10350000D01*
G75*
G02*
X2528000Y-10299000I0J51000D01*
G01*
G37*
D13*
X5969000Y-9449000D03*
X3429000Y-11989000D03*
X5969000Y-11989000D03*
X3429000Y-14529000D03*
X5969000Y-14529000D03*
G36*
G01*
X46824000Y-16014000D02*
X45124000Y-16014000D01*
G75*
G02*
X45073000Y-15963000I0J51000D01*
G01*
X45073000Y-14263000D01*
G75*
G02*
X45124000Y-14212000I51000J0D01*
G01*
X46824000Y-14212000D01*
G75*
G02*
X46875000Y-14263000I0J-51000D01*
G01*
X46875000Y-15963000D01*
G75*
G02*
X46824000Y-16014000I-51000J0D01*
G01*
G37*
D14*
X48474000Y-15113000D03*
X48474000Y-13113000D03*
X45974000Y-13113000D03*
D12*
X41204000Y-10403000D03*
X53244000Y-10403000D03*
D15*
X83866056Y-48721944D03*
X82169000Y-48019000D03*
X80471944Y-48721944D03*
X79769000Y-50419000D03*
X80471944Y-52116056D03*
X82169000Y-52819000D03*
X83866056Y-52116056D03*
X84569000Y-50419000D03*
D16*
X82169000Y-50419000D03*
X3556000Y-3556000D03*
D15*
X5956000Y-3556000D03*
X5253056Y-5253056D03*
X3556000Y-5956000D03*
X1858944Y-5253056D03*
X1156000Y-3556000D03*
X1858944Y-1858944D03*
X3556000Y-1156000D03*
X5253056Y-1858944D03*
X5253056Y-48721944D03*
X3556000Y-48019000D03*
X1858944Y-48721944D03*
X1156000Y-50419000D03*
X1858944Y-52116056D03*
X3556000Y-52819000D03*
X5253056Y-52116056D03*
X5956000Y-50419000D03*
D16*
X3556000Y-50419000D03*
X82169000Y-3556000D03*
D15*
X84569000Y-3556000D03*
X83866056Y-5253056D03*
X82169000Y-5956000D03*
X80471944Y-5253056D03*
X79769000Y-3556000D03*
X80471944Y-1858944D03*
X82169000Y-1156000D03*
X83866056Y-1858944D03*
D17*
X76205080Y-12522200D03*
X63710820Y-15024100D03*
X68707000Y-12524740D03*
X61208920Y-12522200D03*
X73703180Y-15024100D03*
X63705740Y-2527300D03*
X73708260Y-2527300D03*
D12*
X54710700Y-33782000D03*
X45110700Y-33782000D03*
D11*
X52410700Y-40782000D03*
X49910700Y-40782000D03*
X47410700Y-40782000D03*
X61507100Y-40782000D03*
X64007100Y-40782000D03*
X66507100Y-40782000D03*
D12*
X59207100Y-33782000D03*
X68807100Y-33782000D03*
X26517900Y-33782000D03*
X16917900Y-33782000D03*
D11*
X24217900Y-40782000D03*
X21717900Y-40782000D03*
X19217900Y-40782000D03*
X75603600Y-40782000D03*
X78103600Y-40782000D03*
X80603600Y-40782000D03*
D12*
X73303600Y-33782000D03*
X82903600Y-33782000D03*
D11*
X33314300Y-40782000D03*
X35814300Y-40782000D03*
X38314300Y-40782000D03*
D12*
X31014300Y-33782000D03*
X40614300Y-33782000D03*
D18*
G36*
X48651684Y-13990864D02*
G01*
X48652074Y-13992826D01*
X48650761Y-13994097D01*
X48633369Y-13999373D01*
X48612105Y-14010738D01*
X48593468Y-14026033D01*
X48578173Y-14044670D01*
X48566808Y-14065934D01*
X48559808Y-14089009D01*
X48557445Y-14113000D01*
X48559808Y-14136991D01*
X48566808Y-14160066D01*
X48578173Y-14181330D01*
X48593468Y-14199967D01*
X48612105Y-14215262D01*
X48633369Y-14226627D01*
X48650761Y-14231903D01*
X48652128Y-14233363D01*
X48651547Y-14235277D01*
X48649790Y-14235779D01*
X48562114Y-14218339D01*
X48385886Y-14218339D01*
X48298210Y-14235779D01*
X48296316Y-14235136D01*
X48295926Y-14233174D01*
X48297239Y-14231903D01*
X48314631Y-14226627D01*
X48335895Y-14215262D01*
X48354532Y-14199967D01*
X48369827Y-14181330D01*
X48381192Y-14160066D01*
X48388192Y-14136991D01*
X48390555Y-14113000D01*
X48388192Y-14089009D01*
X48381192Y-14065934D01*
X48369827Y-14044670D01*
X48354532Y-14026033D01*
X48335895Y-14010738D01*
X48314631Y-13999373D01*
X48297239Y-13994097D01*
X48295872Y-13992637D01*
X48296453Y-13990723D01*
X48298210Y-13990221D01*
X48385886Y-14007661D01*
X48562114Y-14007661D01*
X48649790Y-13990221D01*
X48651684Y-13990864D01*
G37*
G36*
X46238682Y-13972821D02*
G01*
X46239448Y-13974669D01*
X46238408Y-13976172D01*
X46222379Y-13984739D01*
X46203742Y-14000035D01*
X46188447Y-14018672D01*
X46177082Y-14039935D01*
X46170082Y-14063010D01*
X46167719Y-14087001D01*
X46170082Y-14110992D01*
X46177082Y-14134067D01*
X46188447Y-14155331D01*
X46203743Y-14173968D01*
X46222380Y-14189263D01*
X46243643Y-14200628D01*
X46266718Y-14207628D01*
X46290905Y-14210010D01*
X46292531Y-14211175D01*
X46292335Y-14213165D01*
X46290709Y-14214000D01*
X45657291Y-14214000D01*
X45655559Y-14213000D01*
X45655559Y-14211000D01*
X45657095Y-14210010D01*
X45681282Y-14207628D01*
X45704357Y-14200628D01*
X45725621Y-14189263D01*
X45744258Y-14173968D01*
X45759553Y-14155331D01*
X45770918Y-14134067D01*
X45777918Y-14110992D01*
X45780281Y-14087001D01*
X45777918Y-14063010D01*
X45770918Y-14039935D01*
X45759553Y-14018671D01*
X45744258Y-14000034D01*
X45725621Y-13984739D01*
X45709592Y-13976172D01*
X45708536Y-13974473D01*
X45709479Y-13972710D01*
X45711300Y-13972560D01*
X45713036Y-13973279D01*
X45885886Y-14007661D01*
X46062114Y-14007661D01*
X46234964Y-13973279D01*
X46236700Y-13972560D01*
X46238682Y-13972821D01*
G37*
G36*
X64559165Y-12300874D02*
G01*
X64560000Y-12302500D01*
X64560000Y-12358860D01*
X64559990Y-12359056D01*
X64552422Y-12435894D01*
X64552346Y-12436279D01*
X64531722Y-12504266D01*
X64531572Y-12504628D01*
X64498085Y-12567278D01*
X64497867Y-12567604D01*
X64452798Y-12622521D01*
X64452521Y-12622798D01*
X64397604Y-12667867D01*
X64397278Y-12668085D01*
X64334628Y-12701572D01*
X64334266Y-12701722D01*
X64266279Y-12722346D01*
X64265894Y-12722422D01*
X64189056Y-12729990D01*
X64188860Y-12730000D01*
X64132500Y-12730000D01*
X64130768Y-12729000D01*
X64130768Y-12727000D01*
X64132304Y-12726010D01*
X64215116Y-12717854D01*
X64294563Y-12693754D01*
X64367779Y-12654619D01*
X64431953Y-12601953D01*
X64484619Y-12537779D01*
X64523754Y-12464563D01*
X64547854Y-12385116D01*
X64556010Y-12302304D01*
X64557175Y-12300678D01*
X64559165Y-12300874D01*
G37*
G36*
X74559165Y-12300874D02*
G01*
X74560000Y-12302500D01*
X74560000Y-12358860D01*
X74559990Y-12359056D01*
X74552422Y-12435894D01*
X74552346Y-12436279D01*
X74531722Y-12504266D01*
X74531572Y-12504628D01*
X74498085Y-12567278D01*
X74497867Y-12567604D01*
X74452798Y-12622521D01*
X74452521Y-12622798D01*
X74397604Y-12667867D01*
X74397278Y-12668085D01*
X74334628Y-12701572D01*
X74334266Y-12701722D01*
X74266279Y-12722346D01*
X74265894Y-12722422D01*
X74189056Y-12729990D01*
X74188860Y-12730000D01*
X74132500Y-12730000D01*
X74130768Y-12729000D01*
X74130768Y-12727000D01*
X74132304Y-12726010D01*
X74215116Y-12717854D01*
X74294563Y-12693754D01*
X74367779Y-12654619D01*
X74431953Y-12601953D01*
X74484619Y-12537779D01*
X74523754Y-12464563D01*
X74547854Y-12385116D01*
X74556010Y-12302304D01*
X74557175Y-12300678D01*
X74559165Y-12300874D01*
G37*
G36*
X72857990Y-12302304D02*
G01*
X72866146Y-12385116D01*
X72890246Y-12464563D01*
X72929381Y-12537779D01*
X72982047Y-12601953D01*
X73046221Y-12654619D01*
X73119437Y-12693754D01*
X73198884Y-12717854D01*
X73281696Y-12726010D01*
X73283322Y-12727175D01*
X73283126Y-12729165D01*
X73281500Y-12730000D01*
X73225140Y-12730000D01*
X73224944Y-12729990D01*
X73148106Y-12722422D01*
X73147721Y-12722346D01*
X73079734Y-12701722D01*
X73079372Y-12701572D01*
X73016722Y-12668085D01*
X73016396Y-12667867D01*
X72961479Y-12622798D01*
X72961202Y-12622521D01*
X72916133Y-12567604D01*
X72915915Y-12567278D01*
X72882428Y-12504628D01*
X72882278Y-12504266D01*
X72861654Y-12436279D01*
X72861578Y-12435894D01*
X72854010Y-12359056D01*
X72854000Y-12358860D01*
X72854000Y-12302500D01*
X72855000Y-12300768D01*
X72857000Y-12300768D01*
X72857990Y-12302304D01*
G37*
G36*
X65357990Y-12302304D02*
G01*
X65366146Y-12385116D01*
X65390246Y-12464563D01*
X65429381Y-12537779D01*
X65482047Y-12601953D01*
X65546221Y-12654619D01*
X65619437Y-12693754D01*
X65698884Y-12717854D01*
X65781696Y-12726010D01*
X65783322Y-12727175D01*
X65783126Y-12729165D01*
X65781500Y-12730000D01*
X65725140Y-12730000D01*
X65724944Y-12729990D01*
X65648106Y-12722422D01*
X65647721Y-12722346D01*
X65579734Y-12701722D01*
X65579372Y-12701572D01*
X65516722Y-12668085D01*
X65516396Y-12667867D01*
X65461479Y-12622798D01*
X65461202Y-12622521D01*
X65416133Y-12567604D01*
X65415915Y-12567278D01*
X65382428Y-12504628D01*
X65382278Y-12504266D01*
X65361654Y-12436279D01*
X65361578Y-12435894D01*
X65354010Y-12359056D01*
X65354000Y-12358860D01*
X65354000Y-12302500D01*
X65355000Y-12300768D01*
X65357000Y-12300768D01*
X65357990Y-12302304D01*
G37*
G36*
X62857990Y-12302304D02*
G01*
X62866146Y-12385116D01*
X62890246Y-12464563D01*
X62929381Y-12537779D01*
X62982047Y-12601953D01*
X63046221Y-12654619D01*
X63119437Y-12693754D01*
X63198884Y-12717854D01*
X63281696Y-12726010D01*
X63283322Y-12727175D01*
X63283126Y-12729165D01*
X63281500Y-12730000D01*
X63225140Y-12730000D01*
X63224944Y-12729990D01*
X63148106Y-12722422D01*
X63147721Y-12722346D01*
X63079734Y-12701722D01*
X63079372Y-12701572D01*
X63016722Y-12668085D01*
X63016396Y-12667867D01*
X62961479Y-12622798D01*
X62961202Y-12622521D01*
X62916133Y-12567604D01*
X62915915Y-12567278D01*
X62882428Y-12504628D01*
X62882278Y-12504266D01*
X62861654Y-12436279D01*
X62861578Y-12435894D01*
X62854010Y-12359056D01*
X62854000Y-12358860D01*
X62854000Y-12302500D01*
X62855000Y-12300768D01*
X62857000Y-12300768D01*
X62857990Y-12302304D01*
G37*
G36*
X70357990Y-12302304D02*
G01*
X70366146Y-12385116D01*
X70390246Y-12464563D01*
X70429381Y-12537779D01*
X70482047Y-12601953D01*
X70546221Y-12654619D01*
X70619437Y-12693754D01*
X70698884Y-12717854D01*
X70781696Y-12726010D01*
X70783322Y-12727175D01*
X70783126Y-12729165D01*
X70781500Y-12730000D01*
X70725140Y-12730000D01*
X70724944Y-12729990D01*
X70648106Y-12722422D01*
X70647721Y-12722346D01*
X70579734Y-12701722D01*
X70579372Y-12701572D01*
X70516722Y-12668085D01*
X70516396Y-12667867D01*
X70461479Y-12622798D01*
X70461202Y-12622521D01*
X70416133Y-12567604D01*
X70415915Y-12567278D01*
X70382428Y-12504628D01*
X70382278Y-12504266D01*
X70361654Y-12436279D01*
X70361578Y-12435894D01*
X70354010Y-12359056D01*
X70354000Y-12358860D01*
X70354000Y-12302500D01*
X70355000Y-12300768D01*
X70357000Y-12300768D01*
X70357990Y-12302304D01*
G37*
G36*
X72059165Y-12300874D02*
G01*
X72060000Y-12302500D01*
X72060000Y-12358860D01*
X72059990Y-12359056D01*
X72052422Y-12435894D01*
X72052346Y-12436279D01*
X72031722Y-12504266D01*
X72031572Y-12504628D01*
X71998085Y-12567278D01*
X71997867Y-12567604D01*
X71952798Y-12622521D01*
X71952521Y-12622798D01*
X71897604Y-12667867D01*
X71897278Y-12668085D01*
X71834628Y-12701572D01*
X71834266Y-12701722D01*
X71766279Y-12722346D01*
X71765894Y-12722422D01*
X71689056Y-12729990D01*
X71688860Y-12730000D01*
X71632500Y-12730000D01*
X71630768Y-12729000D01*
X71630768Y-12727000D01*
X71632304Y-12726010D01*
X71715116Y-12717854D01*
X71794563Y-12693754D01*
X71867779Y-12654619D01*
X71931953Y-12601953D01*
X71984619Y-12537779D01*
X72023754Y-12464563D01*
X72047854Y-12385116D01*
X72056010Y-12302304D01*
X72057175Y-12300678D01*
X72059165Y-12300874D01*
G37*
G36*
X67059165Y-12300874D02*
G01*
X67060000Y-12302500D01*
X67060000Y-12358860D01*
X67059990Y-12359056D01*
X67052422Y-12435894D01*
X67052346Y-12436279D01*
X67031722Y-12504266D01*
X67031572Y-12504628D01*
X66998085Y-12567278D01*
X66997867Y-12567604D01*
X66952798Y-12622521D01*
X66952521Y-12622798D01*
X66897604Y-12667867D01*
X66897278Y-12668085D01*
X66834628Y-12701572D01*
X66834266Y-12701722D01*
X66766279Y-12722346D01*
X66765894Y-12722422D01*
X66689056Y-12729990D01*
X66688860Y-12730000D01*
X66632500Y-12730000D01*
X66630768Y-12729000D01*
X66630768Y-12727000D01*
X66632304Y-12726010D01*
X66715116Y-12717854D01*
X66794563Y-12693754D01*
X66867779Y-12654619D01*
X66931953Y-12601953D01*
X66984619Y-12537779D01*
X67023754Y-12464563D01*
X67047854Y-12385116D01*
X67056010Y-12302304D01*
X67057175Y-12300678D01*
X67059165Y-12300874D01*
G37*
G36*
X65783232Y-10225000D02*
G01*
X65783232Y-10227000D01*
X65781696Y-10227990D01*
X65698884Y-10236146D01*
X65619437Y-10260246D01*
X65546221Y-10299381D01*
X65482047Y-10352047D01*
X65429381Y-10416221D01*
X65390246Y-10489437D01*
X65366146Y-10568884D01*
X65357990Y-10651696D01*
X65356825Y-10653322D01*
X65354835Y-10653126D01*
X65354000Y-10651500D01*
X65354000Y-10595140D01*
X65354010Y-10594944D01*
X65361578Y-10518106D01*
X65361654Y-10517721D01*
X65382278Y-10449734D01*
X65382428Y-10449372D01*
X65415915Y-10386722D01*
X65416133Y-10386396D01*
X65461202Y-10331479D01*
X65461479Y-10331202D01*
X65516396Y-10286133D01*
X65516722Y-10285915D01*
X65579372Y-10252428D01*
X65579734Y-10252278D01*
X65647721Y-10231654D01*
X65648106Y-10231578D01*
X65724944Y-10224010D01*
X65725140Y-10224000D01*
X65781500Y-10224000D01*
X65783232Y-10225000D01*
G37*
G36*
X70783232Y-10225000D02*
G01*
X70783232Y-10227000D01*
X70781696Y-10227990D01*
X70698884Y-10236146D01*
X70619437Y-10260246D01*
X70546221Y-10299381D01*
X70482047Y-10352047D01*
X70429381Y-10416221D01*
X70390246Y-10489437D01*
X70366146Y-10568884D01*
X70357990Y-10651696D01*
X70356825Y-10653322D01*
X70354835Y-10653126D01*
X70354000Y-10651500D01*
X70354000Y-10595140D01*
X70354010Y-10594944D01*
X70361578Y-10518106D01*
X70361654Y-10517721D01*
X70382278Y-10449734D01*
X70382428Y-10449372D01*
X70415915Y-10386722D01*
X70416133Y-10386396D01*
X70461202Y-10331479D01*
X70461479Y-10331202D01*
X70516396Y-10286133D01*
X70516722Y-10285915D01*
X70579372Y-10252428D01*
X70579734Y-10252278D01*
X70647721Y-10231654D01*
X70648106Y-10231578D01*
X70724944Y-10224010D01*
X70725140Y-10224000D01*
X70781500Y-10224000D01*
X70783232Y-10225000D01*
G37*
G36*
X73283232Y-10225000D02*
G01*
X73283232Y-10227000D01*
X73281696Y-10227990D01*
X73198884Y-10236146D01*
X73119437Y-10260246D01*
X73046221Y-10299381D01*
X72982047Y-10352047D01*
X72929381Y-10416221D01*
X72890246Y-10489437D01*
X72866146Y-10568884D01*
X72857990Y-10651696D01*
X72856825Y-10653322D01*
X72854835Y-10653126D01*
X72854000Y-10651500D01*
X72854000Y-10595140D01*
X72854010Y-10594944D01*
X72861578Y-10518106D01*
X72861654Y-10517721D01*
X72882278Y-10449734D01*
X72882428Y-10449372D01*
X72915915Y-10386722D01*
X72916133Y-10386396D01*
X72961202Y-10331479D01*
X72961479Y-10331202D01*
X73016396Y-10286133D01*
X73016722Y-10285915D01*
X73079372Y-10252428D01*
X73079734Y-10252278D01*
X73147721Y-10231654D01*
X73148106Y-10231578D01*
X73224944Y-10224010D01*
X73225140Y-10224000D01*
X73281500Y-10224000D01*
X73283232Y-10225000D01*
G37*
G36*
X63283232Y-10225000D02*
G01*
X63283232Y-10227000D01*
X63281696Y-10227990D01*
X63198884Y-10236146D01*
X63119437Y-10260246D01*
X63046221Y-10299381D01*
X62982047Y-10352047D01*
X62929381Y-10416221D01*
X62890246Y-10489437D01*
X62866146Y-10568884D01*
X62857990Y-10651696D01*
X62856825Y-10653322D01*
X62854835Y-10653126D01*
X62854000Y-10651500D01*
X62854000Y-10595140D01*
X62854010Y-10594944D01*
X62861578Y-10518106D01*
X62861654Y-10517721D01*
X62882278Y-10449734D01*
X62882428Y-10449372D01*
X62915915Y-10386722D01*
X62916133Y-10386396D01*
X62961202Y-10331479D01*
X62961479Y-10331202D01*
X63016396Y-10286133D01*
X63016722Y-10285915D01*
X63079372Y-10252428D01*
X63079734Y-10252278D01*
X63147721Y-10231654D01*
X63148106Y-10231578D01*
X63224944Y-10224010D01*
X63225140Y-10224000D01*
X63281500Y-10224000D01*
X63283232Y-10225000D01*
G37*
G36*
X74189056Y-10224010D02*
G01*
X74265894Y-10231578D01*
X74266279Y-10231654D01*
X74334266Y-10252278D01*
X74334628Y-10252428D01*
X74397278Y-10285915D01*
X74397604Y-10286133D01*
X74452521Y-10331202D01*
X74452798Y-10331479D01*
X74497867Y-10386396D01*
X74498085Y-10386722D01*
X74531572Y-10449372D01*
X74531722Y-10449734D01*
X74552346Y-10517721D01*
X74552422Y-10518106D01*
X74559990Y-10594944D01*
X74560000Y-10595140D01*
X74560000Y-10651500D01*
X74559000Y-10653232D01*
X74557000Y-10653232D01*
X74556010Y-10651696D01*
X74547854Y-10568884D01*
X74523754Y-10489437D01*
X74484619Y-10416221D01*
X74431953Y-10352047D01*
X74367779Y-10299381D01*
X74294563Y-10260246D01*
X74215116Y-10236146D01*
X74132304Y-10227990D01*
X74130678Y-10226825D01*
X74130874Y-10224835D01*
X74132500Y-10224000D01*
X74188860Y-10224000D01*
X74189056Y-10224010D01*
G37*
G36*
X71689056Y-10224010D02*
G01*
X71765894Y-10231578D01*
X71766279Y-10231654D01*
X71834266Y-10252278D01*
X71834628Y-10252428D01*
X71897278Y-10285915D01*
X71897604Y-10286133D01*
X71952521Y-10331202D01*
X71952798Y-10331479D01*
X71997867Y-10386396D01*
X71998085Y-10386722D01*
X72031572Y-10449372D01*
X72031722Y-10449734D01*
X72052346Y-10517721D01*
X72052422Y-10518106D01*
X72059990Y-10594944D01*
X72060000Y-10595140D01*
X72060000Y-10651500D01*
X72059000Y-10653232D01*
X72057000Y-10653232D01*
X72056010Y-10651696D01*
X72047854Y-10568884D01*
X72023754Y-10489437D01*
X71984619Y-10416221D01*
X71931953Y-10352047D01*
X71867779Y-10299381D01*
X71794563Y-10260246D01*
X71715116Y-10236146D01*
X71632304Y-10227990D01*
X71630678Y-10226825D01*
X71630874Y-10224835D01*
X71632500Y-10224000D01*
X71688860Y-10224000D01*
X71689056Y-10224010D01*
G37*
G36*
X66689056Y-10224010D02*
G01*
X66765894Y-10231578D01*
X66766279Y-10231654D01*
X66834266Y-10252278D01*
X66834628Y-10252428D01*
X66897278Y-10285915D01*
X66897604Y-10286133D01*
X66952521Y-10331202D01*
X66952798Y-10331479D01*
X66997867Y-10386396D01*
X66998085Y-10386722D01*
X67031572Y-10449372D01*
X67031722Y-10449734D01*
X67052346Y-10517721D01*
X67052422Y-10518106D01*
X67059990Y-10594944D01*
X67060000Y-10595140D01*
X67060000Y-10651500D01*
X67059000Y-10653232D01*
X67057000Y-10653232D01*
X67056010Y-10651696D01*
X67047854Y-10568884D01*
X67023754Y-10489437D01*
X66984619Y-10416221D01*
X66931953Y-10352047D01*
X66867779Y-10299381D01*
X66794563Y-10260246D01*
X66715116Y-10236146D01*
X66632304Y-10227990D01*
X66630678Y-10226825D01*
X66630874Y-10224835D01*
X66632500Y-10224000D01*
X66688860Y-10224000D01*
X66689056Y-10224010D01*
G37*
G36*
X64189056Y-10224010D02*
G01*
X64265894Y-10231578D01*
X64266279Y-10231654D01*
X64334266Y-10252278D01*
X64334628Y-10252428D01*
X64397278Y-10285915D01*
X64397604Y-10286133D01*
X64452521Y-10331202D01*
X64452798Y-10331479D01*
X64497867Y-10386396D01*
X64498085Y-10386722D01*
X64531572Y-10449372D01*
X64531722Y-10449734D01*
X64552346Y-10517721D01*
X64552422Y-10518106D01*
X64559990Y-10594944D01*
X64560000Y-10595140D01*
X64560000Y-10651500D01*
X64559000Y-10653232D01*
X64557000Y-10653232D01*
X64556010Y-10651696D01*
X64547854Y-10568884D01*
X64523754Y-10489437D01*
X64484619Y-10416221D01*
X64431953Y-10352047D01*
X64367779Y-10299381D01*
X64294563Y-10260246D01*
X64215116Y-10236146D01*
X64132304Y-10227990D01*
X64130678Y-10226825D01*
X64130874Y-10224835D01*
X64132500Y-10224000D01*
X64188860Y-10224000D01*
X64189056Y-10224010D01*
G37*
G36*
X69959165Y-6900874D02*
G01*
X69960000Y-6902500D01*
X69960000Y-6958860D01*
X69959990Y-6959056D01*
X69952422Y-7035894D01*
X69952346Y-7036279D01*
X69931722Y-7104266D01*
X69931572Y-7104628D01*
X69898085Y-7167278D01*
X69897867Y-7167604D01*
X69852798Y-7222521D01*
X69852521Y-7222798D01*
X69797604Y-7267867D01*
X69797278Y-7268085D01*
X69734628Y-7301572D01*
X69734266Y-7301722D01*
X69666279Y-7322346D01*
X69665894Y-7322422D01*
X69589056Y-7329990D01*
X69588860Y-7330000D01*
X69532500Y-7330000D01*
X69530768Y-7329000D01*
X69530768Y-7327000D01*
X69532304Y-7326010D01*
X69615116Y-7317854D01*
X69694563Y-7293754D01*
X69767779Y-7254619D01*
X69831953Y-7201953D01*
X69884619Y-7137779D01*
X69923754Y-7064563D01*
X69947854Y-6985116D01*
X69956010Y-6902304D01*
X69957175Y-6900678D01*
X69959165Y-6900874D01*
G37*
G36*
X67457990Y-6902304D02*
G01*
X67466146Y-6985116D01*
X67490246Y-7064563D01*
X67529381Y-7137779D01*
X67582047Y-7201953D01*
X67646221Y-7254619D01*
X67719437Y-7293754D01*
X67798884Y-7317854D01*
X67881696Y-7326010D01*
X67883322Y-7327175D01*
X67883126Y-7329165D01*
X67881500Y-7330000D01*
X67825140Y-7330000D01*
X67824944Y-7329990D01*
X67748106Y-7322422D01*
X67747721Y-7322346D01*
X67679734Y-7301722D01*
X67679372Y-7301572D01*
X67616722Y-7268085D01*
X67616396Y-7267867D01*
X67561479Y-7222798D01*
X67561202Y-7222521D01*
X67516133Y-7167604D01*
X67515915Y-7167278D01*
X67482428Y-7104628D01*
X67482278Y-7104266D01*
X67461654Y-7036279D01*
X67461578Y-7035894D01*
X67454010Y-6959056D01*
X67454000Y-6958860D01*
X67454000Y-6902500D01*
X67455000Y-6900768D01*
X67457000Y-6900768D01*
X67457990Y-6902304D01*
G37*
G36*
X67883232Y-5625000D02*
G01*
X67883232Y-5627000D01*
X67881696Y-5627990D01*
X67798884Y-5636146D01*
X67719437Y-5660246D01*
X67646221Y-5699381D01*
X67582047Y-5752047D01*
X67529381Y-5816221D01*
X67490246Y-5889437D01*
X67466146Y-5968884D01*
X67457990Y-6051696D01*
X67456825Y-6053322D01*
X67454835Y-6053126D01*
X67454000Y-6051500D01*
X67454000Y-5995140D01*
X67454010Y-5994944D01*
X67461578Y-5918106D01*
X67461654Y-5917721D01*
X67482278Y-5849734D01*
X67482428Y-5849372D01*
X67515915Y-5786722D01*
X67516133Y-5786396D01*
X67561202Y-5731479D01*
X67561479Y-5731202D01*
X67616396Y-5686133D01*
X67616722Y-5685915D01*
X67679372Y-5652428D01*
X67679734Y-5652278D01*
X67747721Y-5631654D01*
X67748106Y-5631578D01*
X67824944Y-5624010D01*
X67825140Y-5624000D01*
X67881500Y-5624000D01*
X67883232Y-5625000D01*
G37*
G36*
X69589056Y-5624010D02*
G01*
X69665894Y-5631578D01*
X69666279Y-5631654D01*
X69734266Y-5652278D01*
X69734628Y-5652428D01*
X69797278Y-5685915D01*
X69797604Y-5686133D01*
X69852521Y-5731202D01*
X69852798Y-5731479D01*
X69897867Y-5786396D01*
X69898085Y-5786722D01*
X69931572Y-5849372D01*
X69931722Y-5849734D01*
X69952346Y-5917721D01*
X69952422Y-5918106D01*
X69959990Y-5994944D01*
X69960000Y-5995140D01*
X69960000Y-6051500D01*
X69959000Y-6053232D01*
X69957000Y-6053232D01*
X69956010Y-6051696D01*
X69947854Y-5968884D01*
X69923754Y-5889437D01*
X69884619Y-5816221D01*
X69831953Y-5752047D01*
X69767779Y-5699381D01*
X69694563Y-5660246D01*
X69615116Y-5636146D01*
X69532304Y-5627990D01*
X69530678Y-5626825D01*
X69530874Y-5624835D01*
X69532500Y-5624000D01*
X69588860Y-5624000D01*
X69589056Y-5624010D01*
G37*
M02*
