M48
INCH,TZ
T1C0.0157
T2C0.0197
T3C0.0276
T4C0.0362
T5C0.0394
T6C0.0550
T7C0.0866
T8C0.0917
T9C0.1260
%
G90
G05
T1
X5039Y-8189
X5597Y-2310
X5777Y-4168
X5870Y-6098
X6571Y-17109
X6638Y-3499
X6885Y-3099
X6929Y-6535
X6986Y-4209
X7089Y-1793
X7158Y-4811
X7305Y-3081
X7795Y-7953
X7954Y-3838
X8360Y-3734
X8378Y-1959
X8884Y-17257
X8970Y-5736
X9691Y-2755
X9956Y-17428
X11732Y-6063
X15409Y-17117
X21749Y-17648
T2
X455Y-1400
X455Y-19850
X732Y-732
X732Y-2068
X732Y-19182
X732Y-20518
X1400Y-455
X1400Y-2345
X1400Y-18905
X1400Y-20795
X2068Y-732
X2068Y-2068
X2068Y-19182
X2068Y-20518
X2345Y-1400
X2345Y-19850
X31405Y-1400
X31405Y-19850
X31682Y-732
X31682Y-2068
X31682Y-19182
X31682Y-20518
X32350Y-455
X32350Y-2345
X32350Y-18905
X32350Y-20795
X33018Y-732
X33018Y-2068
X33018Y-19182
X33018Y-20518
X33295Y-1400
X33295Y-19850
T4
X18100Y-5163
X18100Y-5950
X19084Y-5163
X19084Y-5950
T5
X1350Y-3720
X1350Y-4720
X1350Y-5720
X2016Y-16106
X2350Y-3720
X2350Y-4720
X2350Y-5720
X3001Y-16106
X3985Y-16106
X7566Y-16056
X8550Y-16056
X9535Y-16056
X13116Y-16056
X14100Y-16056
X15084Y-16056
X18666Y-16056
X19650Y-16056
X20634Y-16056
X24215Y-16056
X25200Y-16056
X26184Y-16056
X29765Y-16056
X30749Y-16056
X31734Y-16056
T6
X24098Y-4930
X25081Y-995
X25083Y-5915
X27050Y-4931
X29017Y-5915
X29019Y-995
X30002Y-4930
T7
X1111Y-13350
X4890Y-13350
X6661Y-13300
X10440Y-13300
X12210Y-13300
X15990Y-13300
X17760Y-13300
X21540Y-13300
X23310Y-13300
X27089Y-13300
X28860Y-13300
X32639Y-13300
T8
X16222Y-4096
X20962Y-4096
T9
X1400Y-1400
X1400Y-19850
X32350Y-1400
X32350Y-19850
T3
G00X25081Y-4696
M15
G01X25081Y-4341
M16
G05
G00X26066Y-4696
M15
G01X26066Y-4341
M16
G05
G00X27227Y-2550
M15
G01X26873Y-2550
M16
G05
G00X28034Y-4696
M15
G01X28034Y-4341
M16
G05
G00X29019Y-4696
M15
G01X29019Y-4341
M16
G05
T0
M30
