G04 #@! TF.GenerationSoftware,KiCad,Pcbnew,(5.1.10)-1*
G04 #@! TF.CreationDate,2021-09-13T18:31:10+02:00*
G04 #@! TF.ProjectId,CardSizeMidiController,43617264-5369-47a6-954d-696469436f6e,rev?*
G04 #@! TF.SameCoordinates,Original*
G04 #@! TF.FileFunction,Soldermask,Top*
G04 #@! TF.FilePolarity,Negative*
%FSLAX46Y46*%
G04 Gerber Fmt 4.6, Leading zero omitted, Abs format (unit mm)*
G04 Created by KiCad (PCBNEW (5.1.10)-1) date 2021-09-13 18:31:10*
%MOMM*%
%LPD*%
G01*
G04 APERTURE LIST*
%ADD10O,1.602000X2.102000*%
%ADD11C,3.602000*%
%ADD12O,1.802000X1.802000*%
%ADD13C,1.802000*%
%ADD14C,0.902000*%
%ADD15C,6.502000*%
%ADD16C,2.601360*%
%ADD17C,0.100000*%
G04 APERTURE END LIST*
G36*
G01*
X75691000Y-49877000D02*
X75691000Y-48577000D01*
G75*
G02*
X75742000Y-48526000I51000J0D01*
G01*
X77292000Y-48526000D01*
G75*
G02*
X77343000Y-48577000I0J-51000D01*
G01*
X77343000Y-49877000D01*
G75*
G02*
X77292000Y-49928000I-51000J0D01*
G01*
X75742000Y-49928000D01*
G75*
G02*
X75691000Y-49877000I0J51000D01*
G01*
G37*
G36*
G01*
X75691000Y-45377000D02*
X75691000Y-44077000D01*
G75*
G02*
X75742000Y-44026000I51000J0D01*
G01*
X77292000Y-44026000D01*
G75*
G02*
X77343000Y-44077000I0J-51000D01*
G01*
X77343000Y-45377000D01*
G75*
G02*
X77292000Y-45428000I-51000J0D01*
G01*
X75742000Y-45428000D01*
G75*
G02*
X75691000Y-45377000I0J51000D01*
G01*
G37*
G36*
G01*
X67741000Y-45377000D02*
X67741000Y-44077000D01*
G75*
G02*
X67792000Y-44026000I51000J0D01*
G01*
X69342000Y-44026000D01*
G75*
G02*
X69393000Y-44077000I0J-51000D01*
G01*
X69393000Y-45377000D01*
G75*
G02*
X69342000Y-45428000I-51000J0D01*
G01*
X67792000Y-45428000D01*
G75*
G02*
X67741000Y-45377000I0J51000D01*
G01*
G37*
G36*
G01*
X67741000Y-49877000D02*
X67741000Y-48577000D01*
G75*
G02*
X67792000Y-48526000I51000J0D01*
G01*
X69342000Y-48526000D01*
G75*
G02*
X69393000Y-48577000I0J-51000D01*
G01*
X69393000Y-49877000D01*
G75*
G02*
X69342000Y-49928000I-51000J0D01*
G01*
X67792000Y-49928000D01*
G75*
G02*
X67741000Y-49877000I0J51000D01*
G01*
G37*
G36*
G01*
X63803800Y-49877000D02*
X63803800Y-48577000D01*
G75*
G02*
X63854800Y-48526000I51000J0D01*
G01*
X65404800Y-48526000D01*
G75*
G02*
X65455800Y-48577000I0J-51000D01*
G01*
X65455800Y-49877000D01*
G75*
G02*
X65404800Y-49928000I-51000J0D01*
G01*
X63854800Y-49928000D01*
G75*
G02*
X63803800Y-49877000I0J51000D01*
G01*
G37*
G36*
G01*
X63803800Y-45377000D02*
X63803800Y-44077000D01*
G75*
G02*
X63854800Y-44026000I51000J0D01*
G01*
X65404800Y-44026000D01*
G75*
G02*
X65455800Y-44077000I0J-51000D01*
G01*
X65455800Y-45377000D01*
G75*
G02*
X65404800Y-45428000I-51000J0D01*
G01*
X63854800Y-45428000D01*
G75*
G02*
X63803800Y-45377000I0J51000D01*
G01*
G37*
G36*
G01*
X55853800Y-45377000D02*
X55853800Y-44077000D01*
G75*
G02*
X55904800Y-44026000I51000J0D01*
G01*
X57454800Y-44026000D01*
G75*
G02*
X57505800Y-44077000I0J-51000D01*
G01*
X57505800Y-45377000D01*
G75*
G02*
X57454800Y-45428000I-51000J0D01*
G01*
X55904800Y-45428000D01*
G75*
G02*
X55853800Y-45377000I0J51000D01*
G01*
G37*
G36*
G01*
X55853800Y-49877000D02*
X55853800Y-48577000D01*
G75*
G02*
X55904800Y-48526000I51000J0D01*
G01*
X57454800Y-48526000D01*
G75*
G02*
X57505800Y-48577000I0J-51000D01*
G01*
X57505800Y-49877000D01*
G75*
G02*
X57454800Y-49928000I-51000J0D01*
G01*
X55904800Y-49928000D01*
G75*
G02*
X55853800Y-49877000I0J51000D01*
G01*
G37*
G36*
G01*
X51916600Y-49877000D02*
X51916600Y-48577000D01*
G75*
G02*
X51967600Y-48526000I51000J0D01*
G01*
X53517600Y-48526000D01*
G75*
G02*
X53568600Y-48577000I0J-51000D01*
G01*
X53568600Y-49877000D01*
G75*
G02*
X53517600Y-49928000I-51000J0D01*
G01*
X51967600Y-49928000D01*
G75*
G02*
X51916600Y-49877000I0J51000D01*
G01*
G37*
G36*
G01*
X51916600Y-45377000D02*
X51916600Y-44077000D01*
G75*
G02*
X51967600Y-44026000I51000J0D01*
G01*
X53517600Y-44026000D01*
G75*
G02*
X53568600Y-44077000I0J-51000D01*
G01*
X53568600Y-45377000D01*
G75*
G02*
X53517600Y-45428000I-51000J0D01*
G01*
X51967600Y-45428000D01*
G75*
G02*
X51916600Y-45377000I0J51000D01*
G01*
G37*
G36*
G01*
X43966600Y-45377000D02*
X43966600Y-44077000D01*
G75*
G02*
X44017600Y-44026000I51000J0D01*
G01*
X45567600Y-44026000D01*
G75*
G02*
X45618600Y-44077000I0J-51000D01*
G01*
X45618600Y-45377000D01*
G75*
G02*
X45567600Y-45428000I-51000J0D01*
G01*
X44017600Y-45428000D01*
G75*
G02*
X43966600Y-45377000I0J51000D01*
G01*
G37*
G36*
G01*
X43966600Y-49877000D02*
X43966600Y-48577000D01*
G75*
G02*
X44017600Y-48526000I51000J0D01*
G01*
X45567600Y-48526000D01*
G75*
G02*
X45618600Y-48577000I0J-51000D01*
G01*
X45618600Y-49877000D01*
G75*
G02*
X45567600Y-49928000I-51000J0D01*
G01*
X44017600Y-49928000D01*
G75*
G02*
X43966600Y-49877000I0J51000D01*
G01*
G37*
G36*
G01*
X40029400Y-49877000D02*
X40029400Y-48577000D01*
G75*
G02*
X40080400Y-48526000I51000J0D01*
G01*
X41630400Y-48526000D01*
G75*
G02*
X41681400Y-48577000I0J-51000D01*
G01*
X41681400Y-49877000D01*
G75*
G02*
X41630400Y-49928000I-51000J0D01*
G01*
X40080400Y-49928000D01*
G75*
G02*
X40029400Y-49877000I0J51000D01*
G01*
G37*
G36*
G01*
X40029400Y-45377000D02*
X40029400Y-44077000D01*
G75*
G02*
X40080400Y-44026000I51000J0D01*
G01*
X41630400Y-44026000D01*
G75*
G02*
X41681400Y-44077000I0J-51000D01*
G01*
X41681400Y-45377000D01*
G75*
G02*
X41630400Y-45428000I-51000J0D01*
G01*
X40080400Y-45428000D01*
G75*
G02*
X40029400Y-45377000I0J51000D01*
G01*
G37*
G36*
G01*
X32079400Y-45377000D02*
X32079400Y-44077000D01*
G75*
G02*
X32130400Y-44026000I51000J0D01*
G01*
X33680400Y-44026000D01*
G75*
G02*
X33731400Y-44077000I0J-51000D01*
G01*
X33731400Y-45377000D01*
G75*
G02*
X33680400Y-45428000I-51000J0D01*
G01*
X32130400Y-45428000D01*
G75*
G02*
X32079400Y-45377000I0J51000D01*
G01*
G37*
G36*
G01*
X32079400Y-49877000D02*
X32079400Y-48577000D01*
G75*
G02*
X32130400Y-48526000I51000J0D01*
G01*
X33680400Y-48526000D01*
G75*
G02*
X33731400Y-48577000I0J-51000D01*
G01*
X33731400Y-49877000D01*
G75*
G02*
X33680400Y-49928000I-51000J0D01*
G01*
X32130400Y-49928000D01*
G75*
G02*
X32079400Y-49877000I0J51000D01*
G01*
G37*
G36*
G01*
X28142200Y-49877000D02*
X28142200Y-48577000D01*
G75*
G02*
X28193200Y-48526000I51000J0D01*
G01*
X29743200Y-48526000D01*
G75*
G02*
X29794200Y-48577000I0J-51000D01*
G01*
X29794200Y-49877000D01*
G75*
G02*
X29743200Y-49928000I-51000J0D01*
G01*
X28193200Y-49928000D01*
G75*
G02*
X28142200Y-49877000I0J51000D01*
G01*
G37*
G36*
G01*
X28142200Y-45377000D02*
X28142200Y-44077000D01*
G75*
G02*
X28193200Y-44026000I51000J0D01*
G01*
X29743200Y-44026000D01*
G75*
G02*
X29794200Y-44077000I0J-51000D01*
G01*
X29794200Y-45377000D01*
G75*
G02*
X29743200Y-45428000I-51000J0D01*
G01*
X28193200Y-45428000D01*
G75*
G02*
X28142200Y-45377000I0J51000D01*
G01*
G37*
G36*
G01*
X20192200Y-45377000D02*
X20192200Y-44077000D01*
G75*
G02*
X20243200Y-44026000I51000J0D01*
G01*
X21793200Y-44026000D01*
G75*
G02*
X21844200Y-44077000I0J-51000D01*
G01*
X21844200Y-45377000D01*
G75*
G02*
X21793200Y-45428000I-51000J0D01*
G01*
X20243200Y-45428000D01*
G75*
G02*
X20192200Y-45377000I0J51000D01*
G01*
G37*
G36*
G01*
X20192200Y-49877000D02*
X20192200Y-48577000D01*
G75*
G02*
X20243200Y-48526000I51000J0D01*
G01*
X21793200Y-48526000D01*
G75*
G02*
X21844200Y-48577000I0J-51000D01*
G01*
X21844200Y-49877000D01*
G75*
G02*
X21793200Y-49928000I-51000J0D01*
G01*
X20243200Y-49928000D01*
G75*
G02*
X20192200Y-49877000I0J51000D01*
G01*
G37*
G36*
G01*
X16255000Y-49877000D02*
X16255000Y-48577000D01*
G75*
G02*
X16306000Y-48526000I51000J0D01*
G01*
X17856000Y-48526000D01*
G75*
G02*
X17907000Y-48577000I0J-51000D01*
G01*
X17907000Y-49877000D01*
G75*
G02*
X17856000Y-49928000I-51000J0D01*
G01*
X16306000Y-49928000D01*
G75*
G02*
X16255000Y-49877000I0J51000D01*
G01*
G37*
G36*
G01*
X16255000Y-45377000D02*
X16255000Y-44077000D01*
G75*
G02*
X16306000Y-44026000I51000J0D01*
G01*
X17856000Y-44026000D01*
G75*
G02*
X17907000Y-44077000I0J-51000D01*
G01*
X17907000Y-45377000D01*
G75*
G02*
X17856000Y-45428000I-51000J0D01*
G01*
X16306000Y-45428000D01*
G75*
G02*
X16255000Y-45377000I0J51000D01*
G01*
G37*
G36*
G01*
X8305000Y-45377000D02*
X8305000Y-44077000D01*
G75*
G02*
X8356000Y-44026000I51000J0D01*
G01*
X9906000Y-44026000D01*
G75*
G02*
X9957000Y-44077000I0J-51000D01*
G01*
X9957000Y-45377000D01*
G75*
G02*
X9906000Y-45428000I-51000J0D01*
G01*
X8356000Y-45428000D01*
G75*
G02*
X8305000Y-45377000I0J51000D01*
G01*
G37*
G36*
G01*
X8305000Y-49877000D02*
X8305000Y-48577000D01*
G75*
G02*
X8356000Y-48526000I51000J0D01*
G01*
X9906000Y-48526000D01*
G75*
G02*
X9957000Y-48577000I0J-51000D01*
G01*
X9957000Y-49877000D01*
G75*
G02*
X9906000Y-49928000I-51000J0D01*
G01*
X8356000Y-49928000D01*
G75*
G02*
X8305000Y-49877000I0J51000D01*
G01*
G37*
G36*
G01*
X30620717Y-8056448D02*
X29943552Y-7379283D01*
G75*
G02*
X29943552Y-6994373I192455J192455D01*
G01*
X30443941Y-6493984D01*
G75*
G02*
X30828851Y-6493984I192455J-192455D01*
G01*
X31506016Y-7171149D01*
G75*
G02*
X31506016Y-7556059I-192455J-192455D01*
G01*
X31005627Y-8056448D01*
G75*
G02*
X30620717Y-8056448I-192455J192455D01*
G01*
G37*
G36*
G01*
X29171149Y-9506016D02*
X28493984Y-8828851D01*
G75*
G02*
X28493984Y-8443941I192455J192455D01*
G01*
X28994373Y-7943552D01*
G75*
G02*
X29379283Y-7943552I192455J-192455D01*
G01*
X30056448Y-8620717D01*
G75*
G02*
X30056448Y-9005627I-192455J-192455D01*
G01*
X29556059Y-9506016D01*
G75*
G02*
X29171149Y-9506016I-192455J192455D01*
G01*
G37*
G36*
G01*
X37478828Y-13651000D02*
X36521172Y-13651000D01*
G75*
G02*
X36249000Y-13378828I0J272172D01*
G01*
X36249000Y-12671172D01*
G75*
G02*
X36521172Y-12399000I272172J0D01*
G01*
X37478828Y-12399000D01*
G75*
G02*
X37751000Y-12671172I0J-272172D01*
G01*
X37751000Y-13378828D01*
G75*
G02*
X37478828Y-13651000I-272172J0D01*
G01*
G37*
G36*
G01*
X37478828Y-11601000D02*
X36521172Y-11601000D01*
G75*
G02*
X36249000Y-11328828I0J272172D01*
G01*
X36249000Y-10621172D01*
G75*
G02*
X36521172Y-10349000I272172J0D01*
G01*
X37478828Y-10349000D01*
G75*
G02*
X37751000Y-10621172I0J-272172D01*
G01*
X37751000Y-11328828D01*
G75*
G02*
X37478828Y-11601000I-272172J0D01*
G01*
G37*
G36*
G01*
X69958000Y-6051500D02*
X69958000Y-6902500D01*
G75*
G02*
X69532500Y-7328000I-425500J0D01*
G01*
X67881500Y-7328000D01*
G75*
G02*
X67456000Y-6902500I0J425500D01*
G01*
X67456000Y-6051500D01*
G75*
G02*
X67881500Y-5626000I425500J0D01*
G01*
X69532500Y-5626000D01*
G75*
G02*
X69958000Y-6051500I0J-425500D01*
G01*
G37*
G36*
G01*
X67058000Y-10651500D02*
X67058000Y-12302500D01*
G75*
G02*
X66632500Y-12728000I-425500J0D01*
G01*
X65781500Y-12728000D01*
G75*
G02*
X65356000Y-12302500I0J425500D01*
G01*
X65356000Y-10651500D01*
G75*
G02*
X65781500Y-10226000I425500J0D01*
G01*
X66632500Y-10226000D01*
G75*
G02*
X67058000Y-10651500I0J-425500D01*
G01*
G37*
G36*
G01*
X72058000Y-10651500D02*
X72058000Y-12302500D01*
G75*
G02*
X71632500Y-12728000I-425500J0D01*
G01*
X70781500Y-12728000D01*
G75*
G02*
X70356000Y-12302500I0J425500D01*
G01*
X70356000Y-10651500D01*
G75*
G02*
X70781500Y-10226000I425500J0D01*
G01*
X71632500Y-10226000D01*
G75*
G02*
X72058000Y-10651500I0J-425500D01*
G01*
G37*
G36*
G01*
X64558000Y-10651500D02*
X64558000Y-12302500D01*
G75*
G02*
X64132500Y-12728000I-425500J0D01*
G01*
X63281500Y-12728000D01*
G75*
G02*
X62856000Y-12302500I0J425500D01*
G01*
X62856000Y-10651500D01*
G75*
G02*
X63281500Y-10226000I425500J0D01*
G01*
X64132500Y-10226000D01*
G75*
G02*
X64558000Y-10651500I0J-425500D01*
G01*
G37*
G36*
G01*
X74558000Y-10651500D02*
X74558000Y-12302500D01*
G75*
G02*
X74132500Y-12728000I-425500J0D01*
G01*
X73281500Y-12728000D01*
G75*
G02*
X72856000Y-12302500I0J425500D01*
G01*
X72856000Y-10651500D01*
G75*
G02*
X73281500Y-10226000I425500J0D01*
G01*
X74132500Y-10226000D01*
G75*
G02*
X74558000Y-10651500I0J-425500D01*
G01*
G37*
G36*
G01*
X6144000Y-23976750D02*
X6144000Y-23013250D01*
G75*
G02*
X6413250Y-22744000I269250J0D01*
G01*
X6951750Y-22744000D01*
G75*
G02*
X7221000Y-23013250I0J-269250D01*
G01*
X7221000Y-23976750D01*
G75*
G02*
X6951750Y-24246000I-269250J0D01*
G01*
X6413250Y-24246000D01*
G75*
G02*
X6144000Y-23976750I0J269250D01*
G01*
G37*
G36*
G01*
X8019000Y-23976750D02*
X8019000Y-23013250D01*
G75*
G02*
X8288250Y-22744000I269250J0D01*
G01*
X8826750Y-22744000D01*
G75*
G02*
X9096000Y-23013250I0J-269250D01*
G01*
X9096000Y-23976750D01*
G75*
G02*
X8826750Y-24246000I-269250J0D01*
G01*
X8288250Y-24246000D01*
G75*
G02*
X8019000Y-23976750I0J269250D01*
G01*
G37*
G36*
G01*
X6007700Y-26513828D02*
X6007700Y-25556172D01*
G75*
G02*
X6279872Y-25284000I272172J0D01*
G01*
X6987528Y-25284000D01*
G75*
G02*
X7259700Y-25556172I0J-272172D01*
G01*
X7259700Y-26513828D01*
G75*
G02*
X6987528Y-26786000I-272172J0D01*
G01*
X6279872Y-26786000D01*
G75*
G02*
X6007700Y-26513828I0J272172D01*
G01*
G37*
G36*
G01*
X8057700Y-26513828D02*
X8057700Y-25556172D01*
G75*
G02*
X8329872Y-25284000I272172J0D01*
G01*
X9037528Y-25284000D01*
G75*
G02*
X9309700Y-25556172I0J-272172D01*
G01*
X9309700Y-26513828D01*
G75*
G02*
X9037528Y-26786000I-272172J0D01*
G01*
X8329872Y-26786000D01*
G75*
G02*
X8057700Y-26513828I0J272172D01*
G01*
G37*
D10*
X5121400Y-40909000D03*
X7621400Y-40909000D03*
X10121400Y-40909000D03*
D11*
X2821400Y-33909000D03*
X12421400Y-33909000D03*
G36*
G01*
X28448094Y-6340845D02*
X28076155Y-5968906D01*
G75*
G02*
X28076155Y-5596968I185969J185969D01*
G01*
X28518804Y-5154319D01*
G75*
G02*
X28890742Y-5154319I185969J-185969D01*
G01*
X29262681Y-5526258D01*
G75*
G02*
X29262681Y-5898196I-185969J-185969D01*
G01*
X28820032Y-6340845D01*
G75*
G02*
X28448094Y-6340845I-185969J185969D01*
G01*
G37*
G36*
G01*
X27210658Y-7578281D02*
X26838719Y-7206342D01*
G75*
G02*
X26838719Y-6834404I185969J185969D01*
G01*
X27281368Y-6391755D01*
G75*
G02*
X27653306Y-6391755I185969J-185969D01*
G01*
X28025245Y-6763694D01*
G75*
G02*
X28025245Y-7135632I-185969J-185969D01*
G01*
X27582596Y-7578281D01*
G75*
G02*
X27210658Y-7578281I-185969J185969D01*
G01*
G37*
G36*
G01*
X24970042Y-1328019D02*
X25341981Y-1699958D01*
G75*
G02*
X25341981Y-2071896I-185969J-185969D01*
G01*
X24899332Y-2514545D01*
G75*
G02*
X24527394Y-2514545I-185969J185969D01*
G01*
X24155455Y-2142606D01*
G75*
G02*
X24155455Y-1770668I185969J185969D01*
G01*
X24598104Y-1328019D01*
G75*
G02*
X24970042Y-1328019I185969J-185969D01*
G01*
G37*
G36*
G01*
X23732606Y-2565455D02*
X24104545Y-2937394D01*
G75*
G02*
X24104545Y-3309332I-185969J-185969D01*
G01*
X23661896Y-3751981D01*
G75*
G02*
X23289958Y-3751981I-185969J185969D01*
G01*
X22918019Y-3380042D01*
G75*
G02*
X22918019Y-3008104I185969J185969D01*
G01*
X23360668Y-2565455D01*
G75*
G02*
X23732606Y-2565455I185969J-185969D01*
G01*
G37*
G36*
G01*
X2528000Y-10299000D02*
X2528000Y-8599000D01*
G75*
G02*
X2579000Y-8548000I51000J0D01*
G01*
X4279000Y-8548000D01*
G75*
G02*
X4330000Y-8599000I0J-51000D01*
G01*
X4330000Y-10299000D01*
G75*
G02*
X4279000Y-10350000I-51000J0D01*
G01*
X2579000Y-10350000D01*
G75*
G02*
X2528000Y-10299000I0J51000D01*
G01*
G37*
D12*
X5969000Y-9449000D03*
X3429000Y-11989000D03*
X5969000Y-11989000D03*
X3429000Y-14529000D03*
X5969000Y-14529000D03*
G36*
G01*
X46824000Y-16014000D02*
X45124000Y-16014000D01*
G75*
G02*
X45073000Y-15963000I0J51000D01*
G01*
X45073000Y-14263000D01*
G75*
G02*
X45124000Y-14212000I51000J0D01*
G01*
X46824000Y-14212000D01*
G75*
G02*
X46875000Y-14263000I0J-51000D01*
G01*
X46875000Y-15963000D01*
G75*
G02*
X46824000Y-16014000I-51000J0D01*
G01*
G37*
D13*
X48474000Y-15113000D03*
X48474000Y-13113000D03*
X45974000Y-13113000D03*
D11*
X41204000Y-10403000D03*
X53244000Y-10403000D03*
G36*
G01*
X25751450Y-6779160D02*
X24902921Y-5930631D01*
G75*
G02*
X24902921Y-5858507I36062J36062D01*
G01*
X25892872Y-4868556D01*
G75*
G02*
X25964996Y-4868556I36062J-36062D01*
G01*
X26813525Y-5717085D01*
G75*
G02*
X26813525Y-5789209I-36062J-36062D01*
G01*
X25823574Y-6779160D01*
G75*
G02*
X25751450Y-6779160I-36062J36062D01*
G01*
G37*
G36*
G01*
X27307085Y-5223525D02*
X26458556Y-4374996D01*
G75*
G02*
X26458556Y-4302872I36062J36062D01*
G01*
X27448507Y-3312921D01*
G75*
G02*
X27520631Y-3312921I36062J-36062D01*
G01*
X28369160Y-4161450D01*
G75*
G02*
X28369160Y-4233574I-36062J-36062D01*
G01*
X27379209Y-5223525D01*
G75*
G02*
X27307085Y-5223525I-36062J36062D01*
G01*
G37*
G36*
G01*
X26105004Y-4021444D02*
X25256475Y-3172915D01*
G75*
G02*
X25256475Y-3100791I36062J36062D01*
G01*
X26246426Y-2110840D01*
G75*
G02*
X26318550Y-2110840I36062J-36062D01*
G01*
X27167079Y-2959369D01*
G75*
G02*
X27167079Y-3031493I-36062J-36062D01*
G01*
X26177128Y-4021444D01*
G75*
G02*
X26105004Y-4021444I-36062J36062D01*
G01*
G37*
G36*
G01*
X24549369Y-5577079D02*
X23700840Y-4728550D01*
G75*
G02*
X23700840Y-4656426I36062J36062D01*
G01*
X24690791Y-3666475D01*
G75*
G02*
X24762915Y-3666475I36062J-36062D01*
G01*
X25611444Y-4515004D01*
G75*
G02*
X25611444Y-4587128I-36062J-36062D01*
G01*
X24621493Y-5577079D01*
G75*
G02*
X24549369Y-5577079I-36062J36062D01*
G01*
G37*
G36*
G01*
X22116000Y-23976750D02*
X22116000Y-23013250D01*
G75*
G02*
X22385250Y-22744000I269250J0D01*
G01*
X22923750Y-22744000D01*
G75*
G02*
X23193000Y-23013250I0J-269250D01*
G01*
X23193000Y-23976750D01*
G75*
G02*
X22923750Y-24246000I-269250J0D01*
G01*
X22385250Y-24246000D01*
G75*
G02*
X22116000Y-23976750I0J269250D01*
G01*
G37*
G36*
G01*
X20241000Y-23976750D02*
X20241000Y-23013250D01*
G75*
G02*
X20510250Y-22744000I269250J0D01*
G01*
X21048750Y-22744000D01*
G75*
G02*
X21318000Y-23013250I0J-269250D01*
G01*
X21318000Y-23976750D01*
G75*
G02*
X21048750Y-24246000I-269250J0D01*
G01*
X20510250Y-24246000D01*
G75*
G02*
X20241000Y-23976750I0J269250D01*
G01*
G37*
G36*
G01*
X34412600Y-23976750D02*
X34412600Y-23013250D01*
G75*
G02*
X34681850Y-22744000I269250J0D01*
G01*
X35220350Y-22744000D01*
G75*
G02*
X35489600Y-23013250I0J-269250D01*
G01*
X35489600Y-23976750D01*
G75*
G02*
X35220350Y-24246000I-269250J0D01*
G01*
X34681850Y-24246000D01*
G75*
G02*
X34412600Y-23976750I0J269250D01*
G01*
G37*
G36*
G01*
X36287600Y-23976750D02*
X36287600Y-23013250D01*
G75*
G02*
X36556850Y-22744000I269250J0D01*
G01*
X37095350Y-22744000D01*
G75*
G02*
X37364600Y-23013250I0J-269250D01*
G01*
X37364600Y-23976750D01*
G75*
G02*
X37095350Y-24246000I-269250J0D01*
G01*
X36556850Y-24246000D01*
G75*
G02*
X36287600Y-23976750I0J269250D01*
G01*
G37*
G36*
G01*
X50275400Y-23976750D02*
X50275400Y-23013250D01*
G75*
G02*
X50544650Y-22744000I269250J0D01*
G01*
X51083150Y-22744000D01*
G75*
G02*
X51352400Y-23013250I0J-269250D01*
G01*
X51352400Y-23976750D01*
G75*
G02*
X51083150Y-24246000I-269250J0D01*
G01*
X50544650Y-24246000D01*
G75*
G02*
X50275400Y-23976750I0J269250D01*
G01*
G37*
G36*
G01*
X48400400Y-23976750D02*
X48400400Y-23013250D01*
G75*
G02*
X48669650Y-22744000I269250J0D01*
G01*
X49208150Y-22744000D01*
G75*
G02*
X49477400Y-23013250I0J-269250D01*
G01*
X49477400Y-23976750D01*
G75*
G02*
X49208150Y-24246000I-269250J0D01*
G01*
X48669650Y-24246000D01*
G75*
G02*
X48400400Y-23976750I0J269250D01*
G01*
G37*
G36*
G01*
X62515300Y-23976750D02*
X62515300Y-23013250D01*
G75*
G02*
X62784550Y-22744000I269250J0D01*
G01*
X63323050Y-22744000D01*
G75*
G02*
X63592300Y-23013250I0J-269250D01*
G01*
X63592300Y-23976750D01*
G75*
G02*
X63323050Y-24246000I-269250J0D01*
G01*
X62784550Y-24246000D01*
G75*
G02*
X62515300Y-23976750I0J269250D01*
G01*
G37*
G36*
G01*
X64390300Y-23976750D02*
X64390300Y-23013250D01*
G75*
G02*
X64659550Y-22744000I269250J0D01*
G01*
X65198050Y-22744000D01*
G75*
G02*
X65467300Y-23013250I0J-269250D01*
G01*
X65467300Y-23976750D01*
G75*
G02*
X65198050Y-24246000I-269250J0D01*
G01*
X64659550Y-24246000D01*
G75*
G02*
X64390300Y-23976750I0J269250D01*
G01*
G37*
G36*
G01*
X78504000Y-23976750D02*
X78504000Y-23013250D01*
G75*
G02*
X78773250Y-22744000I269250J0D01*
G01*
X79311750Y-22744000D01*
G75*
G02*
X79581000Y-23013250I0J-269250D01*
G01*
X79581000Y-23976750D01*
G75*
G02*
X79311750Y-24246000I-269250J0D01*
G01*
X78773250Y-24246000D01*
G75*
G02*
X78504000Y-23976750I0J269250D01*
G01*
G37*
G36*
G01*
X76629000Y-23976750D02*
X76629000Y-23013250D01*
G75*
G02*
X76898250Y-22744000I269250J0D01*
G01*
X77436750Y-22744000D01*
G75*
G02*
X77706000Y-23013250I0J-269250D01*
G01*
X77706000Y-23976750D01*
G75*
G02*
X77436750Y-24246000I-269250J0D01*
G01*
X76898250Y-24246000D01*
G75*
G02*
X76629000Y-23976750I0J269250D01*
G01*
G37*
D14*
X83866056Y-48721944D03*
X82169000Y-48019000D03*
X80471944Y-48721944D03*
X79769000Y-50419000D03*
X80471944Y-52116056D03*
X82169000Y-52819000D03*
X83866056Y-52116056D03*
X84569000Y-50419000D03*
D15*
X82169000Y-50419000D03*
X3556000Y-3556000D03*
D14*
X5956000Y-3556000D03*
X5253056Y-5253056D03*
X3556000Y-5956000D03*
X1858944Y-5253056D03*
X1156000Y-3556000D03*
X1858944Y-1858944D03*
X3556000Y-1156000D03*
X5253056Y-1858944D03*
X5253056Y-48721944D03*
X3556000Y-48019000D03*
X1858944Y-48721944D03*
X1156000Y-50419000D03*
X1858944Y-52116056D03*
X3556000Y-52819000D03*
X5253056Y-52116056D03*
X5956000Y-50419000D03*
D15*
X3556000Y-50419000D03*
X82169000Y-3556000D03*
D14*
X84569000Y-3556000D03*
X83866056Y-5253056D03*
X82169000Y-5956000D03*
X80471944Y-5253056D03*
X79769000Y-3556000D03*
X80471944Y-1858944D03*
X82169000Y-1156000D03*
X83866056Y-1858944D03*
G36*
G01*
X23426396Y-8465493D02*
X23815305Y-8854402D01*
G75*
G02*
X23815305Y-8926526I-36062J-36062D01*
G01*
X22683934Y-10057897D01*
G75*
G02*
X22611810Y-10057897I-36062J36062D01*
G01*
X22222901Y-9668988D01*
G75*
G02*
X22222901Y-9596864I36062J36062D01*
G01*
X23354272Y-8465493D01*
G75*
G02*
X23426396Y-8465493I36062J-36062D01*
G01*
G37*
G36*
G01*
X22860710Y-7899808D02*
X23249619Y-8288717D01*
G75*
G02*
X23249619Y-8360841I-36062J-36062D01*
G01*
X22118248Y-9492212D01*
G75*
G02*
X22046124Y-9492212I-36062J36062D01*
G01*
X21657215Y-9103303D01*
G75*
G02*
X21657215Y-9031179I36062J36062D01*
G01*
X22788586Y-7899808D01*
G75*
G02*
X22860710Y-7899808I36062J-36062D01*
G01*
G37*
G36*
G01*
X22295025Y-7334122D02*
X22683934Y-7723031D01*
G75*
G02*
X22683934Y-7795155I-36062J-36062D01*
G01*
X21552563Y-8926526D01*
G75*
G02*
X21480439Y-8926526I-36062J36062D01*
G01*
X21091530Y-8537617D01*
G75*
G02*
X21091530Y-8465493I36062J36062D01*
G01*
X22222901Y-7334122D01*
G75*
G02*
X22295025Y-7334122I36062J-36062D01*
G01*
G37*
G36*
G01*
X21729340Y-6768437D02*
X22118249Y-7157346D01*
G75*
G02*
X22118249Y-7229470I-36062J-36062D01*
G01*
X20986878Y-8360841D01*
G75*
G02*
X20914754Y-8360841I-36062J36062D01*
G01*
X20525845Y-7971932D01*
G75*
G02*
X20525845Y-7899808I36062J36062D01*
G01*
X21657216Y-6768437D01*
G75*
G02*
X21729340Y-6768437I36062J-36062D01*
G01*
G37*
G36*
G01*
X21163654Y-6202751D02*
X21552563Y-6591660D01*
G75*
G02*
X21552563Y-6663784I-36062J-36062D01*
G01*
X20421192Y-7795155D01*
G75*
G02*
X20349068Y-7795155I-36062J36062D01*
G01*
X19960159Y-7406246D01*
G75*
G02*
X19960159Y-7334122I36062J36062D01*
G01*
X21091530Y-6202751D01*
G75*
G02*
X21163654Y-6202751I36062J-36062D01*
G01*
G37*
G36*
G01*
X20597969Y-5637066D02*
X20986878Y-6025975D01*
G75*
G02*
X20986878Y-6098099I-36062J-36062D01*
G01*
X19855507Y-7229470D01*
G75*
G02*
X19783383Y-7229470I-36062J36062D01*
G01*
X19394474Y-6840561D01*
G75*
G02*
X19394474Y-6768437I36062J36062D01*
G01*
X20525845Y-5637066D01*
G75*
G02*
X20597969Y-5637066I36062J-36062D01*
G01*
G37*
G36*
G01*
X20032283Y-5071381D02*
X20421192Y-5460290D01*
G75*
G02*
X20421192Y-5532414I-36062J-36062D01*
G01*
X19289821Y-6663785D01*
G75*
G02*
X19217697Y-6663785I-36062J36062D01*
G01*
X18828788Y-6274876D01*
G75*
G02*
X18828788Y-6202752I36062J36062D01*
G01*
X19960159Y-5071381D01*
G75*
G02*
X20032283Y-5071381I36062J-36062D01*
G01*
G37*
G36*
G01*
X19466598Y-4505695D02*
X19855507Y-4894604D01*
G75*
G02*
X19855507Y-4966728I-36062J-36062D01*
G01*
X18724136Y-6098099D01*
G75*
G02*
X18652012Y-6098099I-36062J36062D01*
G01*
X18263103Y-5709190D01*
G75*
G02*
X18263103Y-5637066I36062J36062D01*
G01*
X19394474Y-4505695D01*
G75*
G02*
X19466598Y-4505695I36062J-36062D01*
G01*
G37*
G36*
G01*
X16212493Y-4894604D02*
X16601402Y-4505695D01*
G75*
G02*
X16673526Y-4505695I36062J-36062D01*
G01*
X17804897Y-5637066D01*
G75*
G02*
X17804897Y-5709190I-36062J-36062D01*
G01*
X17415988Y-6098099D01*
G75*
G02*
X17343864Y-6098099I-36062J36062D01*
G01*
X16212493Y-4966728D01*
G75*
G02*
X16212493Y-4894604I36062J36062D01*
G01*
G37*
G36*
G01*
X15646808Y-5460290D02*
X16035717Y-5071381D01*
G75*
G02*
X16107841Y-5071381I36062J-36062D01*
G01*
X17239212Y-6202752D01*
G75*
G02*
X17239212Y-6274876I-36062J-36062D01*
G01*
X16850303Y-6663785D01*
G75*
G02*
X16778179Y-6663785I-36062J36062D01*
G01*
X15646808Y-5532414D01*
G75*
G02*
X15646808Y-5460290I36062J36062D01*
G01*
G37*
G36*
G01*
X15081122Y-6025975D02*
X15470031Y-5637066D01*
G75*
G02*
X15542155Y-5637066I36062J-36062D01*
G01*
X16673526Y-6768437D01*
G75*
G02*
X16673526Y-6840561I-36062J-36062D01*
G01*
X16284617Y-7229470D01*
G75*
G02*
X16212493Y-7229470I-36062J36062D01*
G01*
X15081122Y-6098099D01*
G75*
G02*
X15081122Y-6025975I36062J36062D01*
G01*
G37*
G36*
G01*
X14515437Y-6591660D02*
X14904346Y-6202751D01*
G75*
G02*
X14976470Y-6202751I36062J-36062D01*
G01*
X16107841Y-7334122D01*
G75*
G02*
X16107841Y-7406246I-36062J-36062D01*
G01*
X15718932Y-7795155D01*
G75*
G02*
X15646808Y-7795155I-36062J36062D01*
G01*
X14515437Y-6663784D01*
G75*
G02*
X14515437Y-6591660I36062J36062D01*
G01*
G37*
G36*
G01*
X13949751Y-7157346D02*
X14338660Y-6768437D01*
G75*
G02*
X14410784Y-6768437I36062J-36062D01*
G01*
X15542155Y-7899808D01*
G75*
G02*
X15542155Y-7971932I-36062J-36062D01*
G01*
X15153246Y-8360841D01*
G75*
G02*
X15081122Y-8360841I-36062J36062D01*
G01*
X13949751Y-7229470D01*
G75*
G02*
X13949751Y-7157346I36062J36062D01*
G01*
G37*
G36*
G01*
X13384066Y-7723031D02*
X13772975Y-7334122D01*
G75*
G02*
X13845099Y-7334122I36062J-36062D01*
G01*
X14976470Y-8465493D01*
G75*
G02*
X14976470Y-8537617I-36062J-36062D01*
G01*
X14587561Y-8926526D01*
G75*
G02*
X14515437Y-8926526I-36062J36062D01*
G01*
X13384066Y-7795155D01*
G75*
G02*
X13384066Y-7723031I36062J36062D01*
G01*
G37*
G36*
G01*
X12818381Y-8288717D02*
X13207290Y-7899808D01*
G75*
G02*
X13279414Y-7899808I36062J-36062D01*
G01*
X14410785Y-9031179D01*
G75*
G02*
X14410785Y-9103303I-36062J-36062D01*
G01*
X14021876Y-9492212D01*
G75*
G02*
X13949752Y-9492212I-36062J36062D01*
G01*
X12818381Y-8360841D01*
G75*
G02*
X12818381Y-8288717I36062J36062D01*
G01*
G37*
G36*
G01*
X12252695Y-8854402D02*
X12641604Y-8465493D01*
G75*
G02*
X12713728Y-8465493I36062J-36062D01*
G01*
X13845099Y-9596864D01*
G75*
G02*
X13845099Y-9668988I-36062J-36062D01*
G01*
X13456190Y-10057897D01*
G75*
G02*
X13384066Y-10057897I-36062J36062D01*
G01*
X12252695Y-8926526D01*
G75*
G02*
X12252695Y-8854402I36062J36062D01*
G01*
G37*
G36*
G01*
X13456190Y-10516103D02*
X13845099Y-10905012D01*
G75*
G02*
X13845099Y-10977136I-36062J-36062D01*
G01*
X12713728Y-12108507D01*
G75*
G02*
X12641604Y-12108507I-36062J36062D01*
G01*
X12252695Y-11719598D01*
G75*
G02*
X12252695Y-11647474I36062J36062D01*
G01*
X13384066Y-10516103D01*
G75*
G02*
X13456190Y-10516103I36062J-36062D01*
G01*
G37*
G36*
G01*
X14021876Y-11081788D02*
X14410785Y-11470697D01*
G75*
G02*
X14410785Y-11542821I-36062J-36062D01*
G01*
X13279414Y-12674192D01*
G75*
G02*
X13207290Y-12674192I-36062J36062D01*
G01*
X12818381Y-12285283D01*
G75*
G02*
X12818381Y-12213159I36062J36062D01*
G01*
X13949752Y-11081788D01*
G75*
G02*
X14021876Y-11081788I36062J-36062D01*
G01*
G37*
G36*
G01*
X14587561Y-11647474D02*
X14976470Y-12036383D01*
G75*
G02*
X14976470Y-12108507I-36062J-36062D01*
G01*
X13845099Y-13239878D01*
G75*
G02*
X13772975Y-13239878I-36062J36062D01*
G01*
X13384066Y-12850969D01*
G75*
G02*
X13384066Y-12778845I36062J36062D01*
G01*
X14515437Y-11647474D01*
G75*
G02*
X14587561Y-11647474I36062J-36062D01*
G01*
G37*
G36*
G01*
X15153246Y-12213159D02*
X15542155Y-12602068D01*
G75*
G02*
X15542155Y-12674192I-36062J-36062D01*
G01*
X14410784Y-13805563D01*
G75*
G02*
X14338660Y-13805563I-36062J36062D01*
G01*
X13949751Y-13416654D01*
G75*
G02*
X13949751Y-13344530I36062J36062D01*
G01*
X15081122Y-12213159D01*
G75*
G02*
X15153246Y-12213159I36062J-36062D01*
G01*
G37*
G36*
G01*
X15718932Y-12778845D02*
X16107841Y-13167754D01*
G75*
G02*
X16107841Y-13239878I-36062J-36062D01*
G01*
X14976470Y-14371249D01*
G75*
G02*
X14904346Y-14371249I-36062J36062D01*
G01*
X14515437Y-13982340D01*
G75*
G02*
X14515437Y-13910216I36062J36062D01*
G01*
X15646808Y-12778845D01*
G75*
G02*
X15718932Y-12778845I36062J-36062D01*
G01*
G37*
G36*
G01*
X16284617Y-13344530D02*
X16673526Y-13733439D01*
G75*
G02*
X16673526Y-13805563I-36062J-36062D01*
G01*
X15542155Y-14936934D01*
G75*
G02*
X15470031Y-14936934I-36062J36062D01*
G01*
X15081122Y-14548025D01*
G75*
G02*
X15081122Y-14475901I36062J36062D01*
G01*
X16212493Y-13344530D01*
G75*
G02*
X16284617Y-13344530I36062J-36062D01*
G01*
G37*
G36*
G01*
X16850303Y-13910215D02*
X17239212Y-14299124D01*
G75*
G02*
X17239212Y-14371248I-36062J-36062D01*
G01*
X16107841Y-15502619D01*
G75*
G02*
X16035717Y-15502619I-36062J36062D01*
G01*
X15646808Y-15113710D01*
G75*
G02*
X15646808Y-15041586I36062J36062D01*
G01*
X16778179Y-13910215D01*
G75*
G02*
X16850303Y-13910215I36062J-36062D01*
G01*
G37*
G36*
G01*
X17415988Y-14475901D02*
X17804897Y-14864810D01*
G75*
G02*
X17804897Y-14936934I-36062J-36062D01*
G01*
X16673526Y-16068305D01*
G75*
G02*
X16601402Y-16068305I-36062J36062D01*
G01*
X16212493Y-15679396D01*
G75*
G02*
X16212493Y-15607272I36062J36062D01*
G01*
X17343864Y-14475901D01*
G75*
G02*
X17415988Y-14475901I36062J-36062D01*
G01*
G37*
G36*
G01*
X18263103Y-14864810D02*
X18652012Y-14475901D01*
G75*
G02*
X18724136Y-14475901I36062J-36062D01*
G01*
X19855507Y-15607272D01*
G75*
G02*
X19855507Y-15679396I-36062J-36062D01*
G01*
X19466598Y-16068305D01*
G75*
G02*
X19394474Y-16068305I-36062J36062D01*
G01*
X18263103Y-14936934D01*
G75*
G02*
X18263103Y-14864810I36062J36062D01*
G01*
G37*
G36*
G01*
X18828788Y-14299124D02*
X19217697Y-13910215D01*
G75*
G02*
X19289821Y-13910215I36062J-36062D01*
G01*
X20421192Y-15041586D01*
G75*
G02*
X20421192Y-15113710I-36062J-36062D01*
G01*
X20032283Y-15502619D01*
G75*
G02*
X19960159Y-15502619I-36062J36062D01*
G01*
X18828788Y-14371248D01*
G75*
G02*
X18828788Y-14299124I36062J36062D01*
G01*
G37*
G36*
G01*
X19394474Y-13733439D02*
X19783383Y-13344530D01*
G75*
G02*
X19855507Y-13344530I36062J-36062D01*
G01*
X20986878Y-14475901D01*
G75*
G02*
X20986878Y-14548025I-36062J-36062D01*
G01*
X20597969Y-14936934D01*
G75*
G02*
X20525845Y-14936934I-36062J36062D01*
G01*
X19394474Y-13805563D01*
G75*
G02*
X19394474Y-13733439I36062J36062D01*
G01*
G37*
G36*
G01*
X19960159Y-13167754D02*
X20349068Y-12778845D01*
G75*
G02*
X20421192Y-12778845I36062J-36062D01*
G01*
X21552563Y-13910216D01*
G75*
G02*
X21552563Y-13982340I-36062J-36062D01*
G01*
X21163654Y-14371249D01*
G75*
G02*
X21091530Y-14371249I-36062J36062D01*
G01*
X19960159Y-13239878D01*
G75*
G02*
X19960159Y-13167754I36062J36062D01*
G01*
G37*
G36*
G01*
X20525845Y-12602068D02*
X20914754Y-12213159D01*
G75*
G02*
X20986878Y-12213159I36062J-36062D01*
G01*
X22118249Y-13344530D01*
G75*
G02*
X22118249Y-13416654I-36062J-36062D01*
G01*
X21729340Y-13805563D01*
G75*
G02*
X21657216Y-13805563I-36062J36062D01*
G01*
X20525845Y-12674192D01*
G75*
G02*
X20525845Y-12602068I36062J36062D01*
G01*
G37*
G36*
G01*
X21091530Y-12036383D02*
X21480439Y-11647474D01*
G75*
G02*
X21552563Y-11647474I36062J-36062D01*
G01*
X22683934Y-12778845D01*
G75*
G02*
X22683934Y-12850969I-36062J-36062D01*
G01*
X22295025Y-13239878D01*
G75*
G02*
X22222901Y-13239878I-36062J36062D01*
G01*
X21091530Y-12108507D01*
G75*
G02*
X21091530Y-12036383I36062J36062D01*
G01*
G37*
G36*
G01*
X21657215Y-11470697D02*
X22046124Y-11081788D01*
G75*
G02*
X22118248Y-11081788I36062J-36062D01*
G01*
X23249619Y-12213159D01*
G75*
G02*
X23249619Y-12285283I-36062J-36062D01*
G01*
X22860710Y-12674192D01*
G75*
G02*
X22788586Y-12674192I-36062J36062D01*
G01*
X21657215Y-11542821D01*
G75*
G02*
X21657215Y-11470697I36062J36062D01*
G01*
G37*
G36*
G01*
X22222901Y-10905012D02*
X22611810Y-10516103D01*
G75*
G02*
X22683934Y-10516103I36062J-36062D01*
G01*
X23815305Y-11647474D01*
G75*
G02*
X23815305Y-11719598I-36062J-36062D01*
G01*
X23426396Y-12108507D01*
G75*
G02*
X23354272Y-12108507I-36062J36062D01*
G01*
X22222901Y-10977136D01*
G75*
G02*
X22222901Y-10905012I36062J36062D01*
G01*
G37*
G36*
G01*
X57433172Y-5207000D02*
X58390828Y-5207000D01*
G75*
G02*
X58663000Y-5479172I0J-272172D01*
G01*
X58663000Y-6186828D01*
G75*
G02*
X58390828Y-6459000I-272172J0D01*
G01*
X57433172Y-6459000D01*
G75*
G02*
X57161000Y-6186828I0J272172D01*
G01*
X57161000Y-5479172D01*
G75*
G02*
X57433172Y-5207000I272172J0D01*
G01*
G37*
G36*
G01*
X57433172Y-7257000D02*
X58390828Y-7257000D01*
G75*
G02*
X58663000Y-7529172I0J-272172D01*
G01*
X58663000Y-8236828D01*
G75*
G02*
X58390828Y-8509000I-272172J0D01*
G01*
X57433172Y-8509000D01*
G75*
G02*
X57161000Y-8236828I0J272172D01*
G01*
X57161000Y-7529172D01*
G75*
G02*
X57433172Y-7257000I272172J0D01*
G01*
G37*
G36*
G01*
X58390828Y-11158000D02*
X57433172Y-11158000D01*
G75*
G02*
X57161000Y-10885828I0J272172D01*
G01*
X57161000Y-10178172D01*
G75*
G02*
X57433172Y-9906000I272172J0D01*
G01*
X58390828Y-9906000D01*
G75*
G02*
X58663000Y-10178172I0J-272172D01*
G01*
X58663000Y-10885828D01*
G75*
G02*
X58390828Y-11158000I-272172J0D01*
G01*
G37*
G36*
G01*
X58390828Y-13208000D02*
X57433172Y-13208000D01*
G75*
G02*
X57161000Y-12935828I0J272172D01*
G01*
X57161000Y-12228172D01*
G75*
G02*
X57433172Y-11956000I272172J0D01*
G01*
X58390828Y-11956000D01*
G75*
G02*
X58663000Y-12228172I0J-272172D01*
G01*
X58663000Y-12935828D01*
G75*
G02*
X58390828Y-13208000I-272172J0D01*
G01*
G37*
G36*
G01*
X29337000Y-12475172D02*
X29337000Y-13432828D01*
G75*
G02*
X29064828Y-13705000I-272172J0D01*
G01*
X28357172Y-13705000D01*
G75*
G02*
X28085000Y-13432828I0J272172D01*
G01*
X28085000Y-12475172D01*
G75*
G02*
X28357172Y-12203000I272172J0D01*
G01*
X29064828Y-12203000D01*
G75*
G02*
X29337000Y-12475172I0J-272172D01*
G01*
G37*
G36*
G01*
X27287000Y-12475172D02*
X27287000Y-13432828D01*
G75*
G02*
X27014828Y-13705000I-272172J0D01*
G01*
X26307172Y-13705000D01*
G75*
G02*
X26035000Y-13432828I0J272172D01*
G01*
X26035000Y-12475172D01*
G75*
G02*
X26307172Y-12203000I272172J0D01*
G01*
X27014828Y-12203000D01*
G75*
G02*
X27287000Y-12475172I0J-272172D01*
G01*
G37*
G36*
G01*
X76415300Y-26513828D02*
X76415300Y-25556172D01*
G75*
G02*
X76687472Y-25284000I272172J0D01*
G01*
X77395128Y-25284000D01*
G75*
G02*
X77667300Y-25556172I0J-272172D01*
G01*
X77667300Y-26513828D01*
G75*
G02*
X77395128Y-26786000I-272172J0D01*
G01*
X76687472Y-26786000D01*
G75*
G02*
X76415300Y-26513828I0J272172D01*
G01*
G37*
G36*
G01*
X78465300Y-26513828D02*
X78465300Y-25556172D01*
G75*
G02*
X78737472Y-25284000I272172J0D01*
G01*
X79445128Y-25284000D01*
G75*
G02*
X79717300Y-25556172I0J-272172D01*
G01*
X79717300Y-26513828D01*
G75*
G02*
X79445128Y-26786000I-272172J0D01*
G01*
X78737472Y-26786000D01*
G75*
G02*
X78465300Y-26513828I0J272172D01*
G01*
G37*
G36*
G01*
X64434600Y-26513828D02*
X64434600Y-25556172D01*
G75*
G02*
X64706772Y-25284000I272172J0D01*
G01*
X65414428Y-25284000D01*
G75*
G02*
X65686600Y-25556172I0J-272172D01*
G01*
X65686600Y-26513828D01*
G75*
G02*
X65414428Y-26786000I-272172J0D01*
G01*
X64706772Y-26786000D01*
G75*
G02*
X64434600Y-26513828I0J272172D01*
G01*
G37*
G36*
G01*
X62384600Y-26513828D02*
X62384600Y-25556172D01*
G75*
G02*
X62656772Y-25284000I272172J0D01*
G01*
X63364428Y-25284000D01*
G75*
G02*
X63636600Y-25556172I0J-272172D01*
G01*
X63636600Y-26513828D01*
G75*
G02*
X63364428Y-26786000I-272172J0D01*
G01*
X62656772Y-26786000D01*
G75*
G02*
X62384600Y-26513828I0J272172D01*
G01*
G37*
G36*
G01*
X48226900Y-26513828D02*
X48226900Y-25556172D01*
G75*
G02*
X48499072Y-25284000I272172J0D01*
G01*
X49206728Y-25284000D01*
G75*
G02*
X49478900Y-25556172I0J-272172D01*
G01*
X49478900Y-26513828D01*
G75*
G02*
X49206728Y-26786000I-272172J0D01*
G01*
X48499072Y-26786000D01*
G75*
G02*
X48226900Y-26513828I0J272172D01*
G01*
G37*
G36*
G01*
X50276900Y-26513828D02*
X50276900Y-25556172D01*
G75*
G02*
X50549072Y-25284000I272172J0D01*
G01*
X51256728Y-25284000D01*
G75*
G02*
X51528900Y-25556172I0J-272172D01*
G01*
X51528900Y-26513828D01*
G75*
G02*
X51256728Y-26786000I-272172J0D01*
G01*
X50549072Y-26786000D01*
G75*
G02*
X50276900Y-26513828I0J272172D01*
G01*
G37*
G36*
G01*
X36246100Y-26513828D02*
X36246100Y-25556172D01*
G75*
G02*
X36518272Y-25284000I272172J0D01*
G01*
X37225928Y-25284000D01*
G75*
G02*
X37498100Y-25556172I0J-272172D01*
G01*
X37498100Y-26513828D01*
G75*
G02*
X37225928Y-26786000I-272172J0D01*
G01*
X36518272Y-26786000D01*
G75*
G02*
X36246100Y-26513828I0J272172D01*
G01*
G37*
G36*
G01*
X34196100Y-26513828D02*
X34196100Y-25556172D01*
G75*
G02*
X34468272Y-25284000I272172J0D01*
G01*
X35175928Y-25284000D01*
G75*
G02*
X35448100Y-25556172I0J-272172D01*
G01*
X35448100Y-26513828D01*
G75*
G02*
X35175928Y-26786000I-272172J0D01*
G01*
X34468272Y-26786000D01*
G75*
G02*
X34196100Y-26513828I0J272172D01*
G01*
G37*
G36*
G01*
X20066000Y-26513828D02*
X20066000Y-25556172D01*
G75*
G02*
X20338172Y-25284000I272172J0D01*
G01*
X21045828Y-25284000D01*
G75*
G02*
X21318000Y-25556172I0J-272172D01*
G01*
X21318000Y-26513828D01*
G75*
G02*
X21045828Y-26786000I-272172J0D01*
G01*
X20338172Y-26786000D01*
G75*
G02*
X20066000Y-26513828I0J272172D01*
G01*
G37*
G36*
G01*
X22116000Y-26513828D02*
X22116000Y-25556172D01*
G75*
G02*
X22388172Y-25284000I272172J0D01*
G01*
X23095828Y-25284000D01*
G75*
G02*
X23368000Y-25556172I0J-272172D01*
G01*
X23368000Y-26513828D01*
G75*
G02*
X23095828Y-26786000I-272172J0D01*
G01*
X22388172Y-26786000D01*
G75*
G02*
X22116000Y-26513828I0J272172D01*
G01*
G37*
D16*
X76205080Y-12522200D03*
X63710820Y-15024100D03*
X68707000Y-12524740D03*
X61208920Y-12522200D03*
X73703180Y-15024100D03*
X63705740Y-2527300D03*
X73708260Y-2527300D03*
D11*
X54710700Y-33782000D03*
X45110700Y-33782000D03*
D10*
X52410700Y-40782000D03*
X49910700Y-40782000D03*
X47410700Y-40782000D03*
X61507100Y-40782000D03*
X64007100Y-40782000D03*
X66507100Y-40782000D03*
D11*
X59207100Y-33782000D03*
X68807100Y-33782000D03*
X26517900Y-33782000D03*
X16917900Y-33782000D03*
D10*
X24217900Y-40782000D03*
X21717900Y-40782000D03*
X19217900Y-40782000D03*
X75603600Y-40782000D03*
X78103600Y-40782000D03*
X80603600Y-40782000D03*
D11*
X73303600Y-33782000D03*
X82903600Y-33782000D03*
D10*
X33314300Y-40782000D03*
X35814300Y-40782000D03*
X38314300Y-40782000D03*
D11*
X31014300Y-33782000D03*
X40614300Y-33782000D03*
D17*
G36*
X17276689Y-14333773D02*
G01*
X17365071Y-14422155D01*
X17365076Y-14422161D01*
X17381340Y-14438425D01*
X17381858Y-14440357D01*
X17381340Y-14441253D01*
X16177845Y-15644748D01*
X16175913Y-15645266D01*
X16175017Y-15644748D01*
X16086635Y-15556366D01*
X16086630Y-15556360D01*
X16070366Y-15540096D01*
X16069848Y-15538164D01*
X16070366Y-15537268D01*
X17273861Y-14333773D01*
X17275793Y-14333255D01*
X17276689Y-14333773D01*
G37*
G36*
X19997635Y-15537268D02*
G01*
X19997635Y-15540096D01*
X19892984Y-15644748D01*
X19891052Y-15645266D01*
X19890156Y-15644748D01*
X18686661Y-14441253D01*
X18686143Y-14439321D01*
X18686661Y-14438425D01*
X18702915Y-14422171D01*
X18702934Y-14422150D01*
X18791312Y-14333773D01*
X18794140Y-14333773D01*
X19997635Y-15537268D01*
G37*
G36*
X16711003Y-13768088D02*
G01*
X16727262Y-13784347D01*
X16727273Y-13784357D01*
X16815655Y-13872739D01*
X16816173Y-13874671D01*
X16815655Y-13875567D01*
X15612160Y-15079062D01*
X15610228Y-15079580D01*
X15609332Y-15079062D01*
X15593073Y-15062803D01*
X15593062Y-15062793D01*
X15504680Y-14974411D01*
X15504162Y-14972479D01*
X15504680Y-14971583D01*
X16708175Y-13768088D01*
X16710107Y-13767570D01*
X16711003Y-13768088D01*
G37*
G36*
X19359826Y-13768088D02*
G01*
X20563321Y-14971583D01*
X20563839Y-14973515D01*
X20563321Y-14974411D01*
X20458669Y-15079062D01*
X20455841Y-15079062D01*
X19252346Y-13875567D01*
X19252346Y-13872739D01*
X19340723Y-13784361D01*
X19340744Y-13784342D01*
X19356998Y-13768088D01*
X19358930Y-13767570D01*
X19359826Y-13768088D01*
G37*
G36*
X16145318Y-13202403D02*
G01*
X16249969Y-13307054D01*
X16250487Y-13308986D01*
X16249969Y-13309882D01*
X15046474Y-14513377D01*
X15044542Y-14513895D01*
X15043646Y-14513377D01*
X14938995Y-14408726D01*
X14938477Y-14406794D01*
X14938995Y-14405898D01*
X16142490Y-13202403D01*
X16144422Y-13201885D01*
X16145318Y-13202403D01*
G37*
G36*
X19925511Y-13202403D02*
G01*
X21129006Y-14405898D01*
X21129524Y-14407830D01*
X21129006Y-14408726D01*
X21024355Y-14513377D01*
X21022423Y-14513895D01*
X21021527Y-14513377D01*
X19818032Y-13309882D01*
X19818032Y-13307054D01*
X19906419Y-13218666D01*
X19922683Y-13202403D01*
X19924615Y-13201885D01*
X19925511Y-13202403D01*
G37*
G36*
X48651684Y-13990864D02*
G01*
X48652074Y-13992826D01*
X48650761Y-13994097D01*
X48633369Y-13999373D01*
X48612105Y-14010738D01*
X48593468Y-14026033D01*
X48578173Y-14044670D01*
X48566808Y-14065934D01*
X48559808Y-14089009D01*
X48557445Y-14113000D01*
X48559808Y-14136991D01*
X48566808Y-14160066D01*
X48578173Y-14181330D01*
X48593468Y-14199967D01*
X48612105Y-14215262D01*
X48633369Y-14226627D01*
X48650761Y-14231903D01*
X48652128Y-14233363D01*
X48651547Y-14235277D01*
X48649790Y-14235779D01*
X48562114Y-14218339D01*
X48385886Y-14218339D01*
X48298210Y-14235779D01*
X48296316Y-14235136D01*
X48295926Y-14233174D01*
X48297239Y-14231903D01*
X48314631Y-14226627D01*
X48335895Y-14215262D01*
X48354532Y-14199967D01*
X48369827Y-14181330D01*
X48381192Y-14160066D01*
X48388192Y-14136991D01*
X48390555Y-14113000D01*
X48388192Y-14089009D01*
X48381192Y-14065934D01*
X48369827Y-14044670D01*
X48354532Y-14026033D01*
X48335895Y-14010738D01*
X48314631Y-13999373D01*
X48297239Y-13994097D01*
X48295872Y-13992637D01*
X48296453Y-13990723D01*
X48298210Y-13990221D01*
X48385886Y-14007661D01*
X48562114Y-14007661D01*
X48649790Y-13990221D01*
X48651684Y-13990864D01*
G37*
G36*
X46238682Y-13972821D02*
G01*
X46239448Y-13974669D01*
X46238408Y-13976172D01*
X46222379Y-13984739D01*
X46203742Y-14000035D01*
X46188447Y-14018672D01*
X46177082Y-14039935D01*
X46170082Y-14063010D01*
X46167719Y-14087001D01*
X46170082Y-14110992D01*
X46177082Y-14134067D01*
X46188447Y-14155331D01*
X46203743Y-14173968D01*
X46222380Y-14189263D01*
X46243643Y-14200628D01*
X46266718Y-14207628D01*
X46290905Y-14210010D01*
X46292531Y-14211175D01*
X46292335Y-14213165D01*
X46290709Y-14214000D01*
X45657291Y-14214000D01*
X45655559Y-14213000D01*
X45655559Y-14211000D01*
X45657095Y-14210010D01*
X45681282Y-14207628D01*
X45704357Y-14200628D01*
X45725621Y-14189263D01*
X45744258Y-14173968D01*
X45759553Y-14155331D01*
X45770918Y-14134067D01*
X45777918Y-14110992D01*
X45780281Y-14087001D01*
X45777918Y-14063010D01*
X45770918Y-14039935D01*
X45759553Y-14018671D01*
X45744258Y-14000034D01*
X45725621Y-13984739D01*
X45709592Y-13976172D01*
X45708536Y-13974473D01*
X45709479Y-13972710D01*
X45711300Y-13972560D01*
X45713036Y-13973279D01*
X45885886Y-14007661D01*
X46062114Y-14007661D01*
X46234964Y-13973279D01*
X46236700Y-13972560D01*
X46238682Y-13972821D01*
G37*
G36*
X20491197Y-12636717D02*
G01*
X21694692Y-13840212D01*
X21695210Y-13842144D01*
X21694692Y-13843040D01*
X21590040Y-13947692D01*
X21588108Y-13948210D01*
X21587212Y-13947692D01*
X20383717Y-12744197D01*
X20383199Y-12742265D01*
X20383717Y-12741369D01*
X20488369Y-12636717D01*
X20490301Y-12636199D01*
X20491197Y-12636717D01*
G37*
G36*
X15579632Y-12636717D02*
G01*
X15684284Y-12741369D01*
X15684802Y-12743301D01*
X15684284Y-12744197D01*
X14480789Y-13947692D01*
X14478857Y-13948210D01*
X14477961Y-13947692D01*
X14373309Y-13843040D01*
X14372791Y-13841108D01*
X14373309Y-13840212D01*
X15576804Y-12636717D01*
X15578736Y-12636199D01*
X15579632Y-12636717D01*
G37*
G36*
X21056882Y-12071032D02*
G01*
X22260377Y-13274527D01*
X22260895Y-13276459D01*
X22260377Y-13277355D01*
X22155726Y-13382006D01*
X22153794Y-13382524D01*
X22152898Y-13382006D01*
X20949403Y-12178511D01*
X20949403Y-12175683D01*
X21037790Y-12087295D01*
X21054054Y-12071032D01*
X21055986Y-12070514D01*
X21056882Y-12071032D01*
G37*
G36*
X15013947Y-12071032D02*
G01*
X15118598Y-12175683D01*
X15119116Y-12177615D01*
X15118598Y-12178511D01*
X13915103Y-13382006D01*
X13913171Y-13382524D01*
X13912275Y-13382006D01*
X13807624Y-13277355D01*
X13807106Y-13275423D01*
X13807624Y-13274527D01*
X15011119Y-12071032D01*
X15013051Y-12070514D01*
X15013947Y-12071032D01*
G37*
G36*
X14448262Y-11505346D02*
G01*
X14536644Y-11593728D01*
X14536649Y-11593734D01*
X14552913Y-11609998D01*
X14553431Y-11611930D01*
X14552913Y-11612826D01*
X13349418Y-12816321D01*
X13347486Y-12816839D01*
X13346590Y-12816321D01*
X13258208Y-12727939D01*
X13258203Y-12727933D01*
X13241939Y-12711669D01*
X13241421Y-12709737D01*
X13241939Y-12708841D01*
X14445434Y-11505346D01*
X14447366Y-11504828D01*
X14448262Y-11505346D01*
G37*
G36*
X22826062Y-12708841D02*
G01*
X22826062Y-12711669D01*
X22721411Y-12816321D01*
X22719479Y-12816839D01*
X22718583Y-12816321D01*
X21515088Y-11612826D01*
X21514570Y-11610894D01*
X21515088Y-11609998D01*
X21531342Y-11593744D01*
X21531361Y-11593723D01*
X21619739Y-11505346D01*
X21622567Y-11505346D01*
X22826062Y-12708841D01*
G37*
G36*
X62857990Y-12302304D02*
G01*
X62866146Y-12385116D01*
X62890246Y-12464563D01*
X62929381Y-12537779D01*
X62982047Y-12601953D01*
X63046221Y-12654619D01*
X63119437Y-12693754D01*
X63198884Y-12717854D01*
X63281696Y-12726010D01*
X63283322Y-12727175D01*
X63283126Y-12729165D01*
X63281500Y-12730000D01*
X63225140Y-12730000D01*
X63224944Y-12729990D01*
X63148106Y-12722422D01*
X63147721Y-12722346D01*
X63079734Y-12701722D01*
X63079372Y-12701572D01*
X63016722Y-12668085D01*
X63016396Y-12667867D01*
X62961479Y-12622798D01*
X62961202Y-12622521D01*
X62916133Y-12567604D01*
X62915915Y-12567278D01*
X62882428Y-12504628D01*
X62882278Y-12504266D01*
X62861654Y-12436279D01*
X62861578Y-12435894D01*
X62854010Y-12359056D01*
X62854000Y-12358860D01*
X62854000Y-12302500D01*
X62855000Y-12300768D01*
X62857000Y-12300768D01*
X62857990Y-12302304D01*
G37*
G36*
X72857990Y-12302304D02*
G01*
X72866146Y-12385116D01*
X72890246Y-12464563D01*
X72929381Y-12537779D01*
X72982047Y-12601953D01*
X73046221Y-12654619D01*
X73119437Y-12693754D01*
X73198884Y-12717854D01*
X73281696Y-12726010D01*
X73283322Y-12727175D01*
X73283126Y-12729165D01*
X73281500Y-12730000D01*
X73225140Y-12730000D01*
X73224944Y-12729990D01*
X73148106Y-12722422D01*
X73147721Y-12722346D01*
X73079734Y-12701722D01*
X73079372Y-12701572D01*
X73016722Y-12668085D01*
X73016396Y-12667867D01*
X72961479Y-12622798D01*
X72961202Y-12622521D01*
X72916133Y-12567604D01*
X72915915Y-12567278D01*
X72882428Y-12504628D01*
X72882278Y-12504266D01*
X72861654Y-12436279D01*
X72861578Y-12435894D01*
X72854010Y-12359056D01*
X72854000Y-12358860D01*
X72854000Y-12302500D01*
X72855000Y-12300768D01*
X72857000Y-12300768D01*
X72857990Y-12302304D01*
G37*
G36*
X67059165Y-12300874D02*
G01*
X67060000Y-12302500D01*
X67060000Y-12358860D01*
X67059990Y-12359056D01*
X67052422Y-12435894D01*
X67052346Y-12436279D01*
X67031722Y-12504266D01*
X67031572Y-12504628D01*
X66998085Y-12567278D01*
X66997867Y-12567604D01*
X66952798Y-12622521D01*
X66952521Y-12622798D01*
X66897604Y-12667867D01*
X66897278Y-12668085D01*
X66834628Y-12701572D01*
X66834266Y-12701722D01*
X66766279Y-12722346D01*
X66765894Y-12722422D01*
X66689056Y-12729990D01*
X66688860Y-12730000D01*
X66632500Y-12730000D01*
X66630768Y-12729000D01*
X66630768Y-12727000D01*
X66632304Y-12726010D01*
X66715116Y-12717854D01*
X66794563Y-12693754D01*
X66867779Y-12654619D01*
X66931953Y-12601953D01*
X66984619Y-12537779D01*
X67023754Y-12464563D01*
X67047854Y-12385116D01*
X67056010Y-12302304D01*
X67057175Y-12300678D01*
X67059165Y-12300874D01*
G37*
G36*
X64559165Y-12300874D02*
G01*
X64560000Y-12302500D01*
X64560000Y-12358860D01*
X64559990Y-12359056D01*
X64552422Y-12435894D01*
X64552346Y-12436279D01*
X64531722Y-12504266D01*
X64531572Y-12504628D01*
X64498085Y-12567278D01*
X64497867Y-12567604D01*
X64452798Y-12622521D01*
X64452521Y-12622798D01*
X64397604Y-12667867D01*
X64397278Y-12668085D01*
X64334628Y-12701572D01*
X64334266Y-12701722D01*
X64266279Y-12722346D01*
X64265894Y-12722422D01*
X64189056Y-12729990D01*
X64188860Y-12730000D01*
X64132500Y-12730000D01*
X64130768Y-12729000D01*
X64130768Y-12727000D01*
X64132304Y-12726010D01*
X64215116Y-12717854D01*
X64294563Y-12693754D01*
X64367779Y-12654619D01*
X64431953Y-12601953D01*
X64484619Y-12537779D01*
X64523754Y-12464563D01*
X64547854Y-12385116D01*
X64556010Y-12302304D01*
X64557175Y-12300678D01*
X64559165Y-12300874D01*
G37*
G36*
X72059165Y-12300874D02*
G01*
X72060000Y-12302500D01*
X72060000Y-12358860D01*
X72059990Y-12359056D01*
X72052422Y-12435894D01*
X72052346Y-12436279D01*
X72031722Y-12504266D01*
X72031572Y-12504628D01*
X71998085Y-12567278D01*
X71997867Y-12567604D01*
X71952798Y-12622521D01*
X71952521Y-12622798D01*
X71897604Y-12667867D01*
X71897278Y-12668085D01*
X71834628Y-12701572D01*
X71834266Y-12701722D01*
X71766279Y-12722346D01*
X71765894Y-12722422D01*
X71689056Y-12729990D01*
X71688860Y-12730000D01*
X71632500Y-12730000D01*
X71630768Y-12729000D01*
X71630768Y-12727000D01*
X71632304Y-12726010D01*
X71715116Y-12717854D01*
X71794563Y-12693754D01*
X71867779Y-12654619D01*
X71931953Y-12601953D01*
X71984619Y-12537779D01*
X72023754Y-12464563D01*
X72047854Y-12385116D01*
X72056010Y-12302304D01*
X72057175Y-12300678D01*
X72059165Y-12300874D01*
G37*
G36*
X70357990Y-12302304D02*
G01*
X70366146Y-12385116D01*
X70390246Y-12464563D01*
X70429381Y-12537779D01*
X70482047Y-12601953D01*
X70546221Y-12654619D01*
X70619437Y-12693754D01*
X70698884Y-12717854D01*
X70781696Y-12726010D01*
X70783322Y-12727175D01*
X70783126Y-12729165D01*
X70781500Y-12730000D01*
X70725140Y-12730000D01*
X70724944Y-12729990D01*
X70648106Y-12722422D01*
X70647721Y-12722346D01*
X70579734Y-12701722D01*
X70579372Y-12701572D01*
X70516722Y-12668085D01*
X70516396Y-12667867D01*
X70461479Y-12622798D01*
X70461202Y-12622521D01*
X70416133Y-12567604D01*
X70415915Y-12567278D01*
X70382428Y-12504628D01*
X70382278Y-12504266D01*
X70361654Y-12436279D01*
X70361578Y-12435894D01*
X70354010Y-12359056D01*
X70354000Y-12358860D01*
X70354000Y-12302500D01*
X70355000Y-12300768D01*
X70357000Y-12300768D01*
X70357990Y-12302304D01*
G37*
G36*
X74559165Y-12300874D02*
G01*
X74560000Y-12302500D01*
X74560000Y-12358860D01*
X74559990Y-12359056D01*
X74552422Y-12435894D01*
X74552346Y-12436279D01*
X74531722Y-12504266D01*
X74531572Y-12504628D01*
X74498085Y-12567278D01*
X74497867Y-12567604D01*
X74452798Y-12622521D01*
X74452521Y-12622798D01*
X74397604Y-12667867D01*
X74397278Y-12668085D01*
X74334628Y-12701572D01*
X74334266Y-12701722D01*
X74266279Y-12722346D01*
X74265894Y-12722422D01*
X74189056Y-12729990D01*
X74188860Y-12730000D01*
X74132500Y-12730000D01*
X74130768Y-12729000D01*
X74130768Y-12727000D01*
X74132304Y-12726010D01*
X74215116Y-12717854D01*
X74294563Y-12693754D01*
X74367779Y-12654619D01*
X74431953Y-12601953D01*
X74484619Y-12537779D01*
X74523754Y-12464563D01*
X74547854Y-12385116D01*
X74556010Y-12302304D01*
X74557175Y-12300678D01*
X74559165Y-12300874D01*
G37*
G36*
X65357990Y-12302304D02*
G01*
X65366146Y-12385116D01*
X65390246Y-12464563D01*
X65429381Y-12537779D01*
X65482047Y-12601953D01*
X65546221Y-12654619D01*
X65619437Y-12693754D01*
X65698884Y-12717854D01*
X65781696Y-12726010D01*
X65783322Y-12727175D01*
X65783126Y-12729165D01*
X65781500Y-12730000D01*
X65725140Y-12730000D01*
X65724944Y-12729990D01*
X65648106Y-12722422D01*
X65647721Y-12722346D01*
X65579734Y-12701722D01*
X65579372Y-12701572D01*
X65516722Y-12668085D01*
X65516396Y-12667867D01*
X65461479Y-12622798D01*
X65461202Y-12622521D01*
X65416133Y-12567604D01*
X65415915Y-12567278D01*
X65382428Y-12504628D01*
X65382278Y-12504266D01*
X65361654Y-12436279D01*
X65361578Y-12435894D01*
X65354010Y-12359056D01*
X65354000Y-12358860D01*
X65354000Y-12302500D01*
X65355000Y-12300768D01*
X65357000Y-12300768D01*
X65357990Y-12302304D01*
G37*
G36*
X13882576Y-10939661D02*
G01*
X13898835Y-10955920D01*
X13898846Y-10955930D01*
X13987228Y-11044312D01*
X13987746Y-11046244D01*
X13987228Y-11047140D01*
X12783733Y-12250635D01*
X12781801Y-12251153D01*
X12780905Y-12250635D01*
X12764646Y-12234376D01*
X12764635Y-12234366D01*
X12676253Y-12145984D01*
X12675735Y-12144052D01*
X12676253Y-12143156D01*
X13879748Y-10939661D01*
X13881680Y-10939143D01*
X13882576Y-10939661D01*
G37*
G36*
X22188253Y-10939661D02*
G01*
X23391748Y-12143156D01*
X23392266Y-12145088D01*
X23391748Y-12145984D01*
X23287096Y-12250635D01*
X23284268Y-12250635D01*
X22080773Y-11047140D01*
X22080773Y-11044312D01*
X22169150Y-10955934D01*
X22169171Y-10955915D01*
X22185425Y-10939661D01*
X22187357Y-10939143D01*
X22188253Y-10939661D01*
G37*
G36*
X65783232Y-10225000D02*
G01*
X65783232Y-10227000D01*
X65781696Y-10227990D01*
X65698884Y-10236146D01*
X65619437Y-10260246D01*
X65546221Y-10299381D01*
X65482047Y-10352047D01*
X65429381Y-10416221D01*
X65390246Y-10489437D01*
X65366146Y-10568884D01*
X65357990Y-10651696D01*
X65356825Y-10653322D01*
X65354835Y-10653126D01*
X65354000Y-10651500D01*
X65354000Y-10595140D01*
X65354010Y-10594944D01*
X65361578Y-10518106D01*
X65361654Y-10517721D01*
X65382278Y-10449734D01*
X65382428Y-10449372D01*
X65415915Y-10386722D01*
X65416133Y-10386396D01*
X65461202Y-10331479D01*
X65461479Y-10331202D01*
X65516396Y-10286133D01*
X65516722Y-10285915D01*
X65579372Y-10252428D01*
X65579734Y-10252278D01*
X65647721Y-10231654D01*
X65648106Y-10231578D01*
X65724944Y-10224010D01*
X65725140Y-10224000D01*
X65781500Y-10224000D01*
X65783232Y-10225000D01*
G37*
G36*
X70783232Y-10225000D02*
G01*
X70783232Y-10227000D01*
X70781696Y-10227990D01*
X70698884Y-10236146D01*
X70619437Y-10260246D01*
X70546221Y-10299381D01*
X70482047Y-10352047D01*
X70429381Y-10416221D01*
X70390246Y-10489437D01*
X70366146Y-10568884D01*
X70357990Y-10651696D01*
X70356825Y-10653322D01*
X70354835Y-10653126D01*
X70354000Y-10651500D01*
X70354000Y-10595140D01*
X70354010Y-10594944D01*
X70361578Y-10518106D01*
X70361654Y-10517721D01*
X70382278Y-10449734D01*
X70382428Y-10449372D01*
X70415915Y-10386722D01*
X70416133Y-10386396D01*
X70461202Y-10331479D01*
X70461479Y-10331202D01*
X70516396Y-10286133D01*
X70516722Y-10285915D01*
X70579372Y-10252428D01*
X70579734Y-10252278D01*
X70647721Y-10231654D01*
X70648106Y-10231578D01*
X70724944Y-10224010D01*
X70725140Y-10224000D01*
X70781500Y-10224000D01*
X70783232Y-10225000D01*
G37*
G36*
X63283232Y-10225000D02*
G01*
X63283232Y-10227000D01*
X63281696Y-10227990D01*
X63198884Y-10236146D01*
X63119437Y-10260246D01*
X63046221Y-10299381D01*
X62982047Y-10352047D01*
X62929381Y-10416221D01*
X62890246Y-10489437D01*
X62866146Y-10568884D01*
X62857990Y-10651696D01*
X62856825Y-10653322D01*
X62854835Y-10653126D01*
X62854000Y-10651500D01*
X62854000Y-10595140D01*
X62854010Y-10594944D01*
X62861578Y-10518106D01*
X62861654Y-10517721D01*
X62882278Y-10449734D01*
X62882428Y-10449372D01*
X62915915Y-10386722D01*
X62916133Y-10386396D01*
X62961202Y-10331479D01*
X62961479Y-10331202D01*
X63016396Y-10286133D01*
X63016722Y-10285915D01*
X63079372Y-10252428D01*
X63079734Y-10252278D01*
X63147721Y-10231654D01*
X63148106Y-10231578D01*
X63224944Y-10224010D01*
X63225140Y-10224000D01*
X63281500Y-10224000D01*
X63283232Y-10225000D01*
G37*
G36*
X73283232Y-10225000D02*
G01*
X73283232Y-10227000D01*
X73281696Y-10227990D01*
X73198884Y-10236146D01*
X73119437Y-10260246D01*
X73046221Y-10299381D01*
X72982047Y-10352047D01*
X72929381Y-10416221D01*
X72890246Y-10489437D01*
X72866146Y-10568884D01*
X72857990Y-10651696D01*
X72856825Y-10653322D01*
X72854835Y-10653126D01*
X72854000Y-10651500D01*
X72854000Y-10595140D01*
X72854010Y-10594944D01*
X72861578Y-10518106D01*
X72861654Y-10517721D01*
X72882278Y-10449734D01*
X72882428Y-10449372D01*
X72915915Y-10386722D01*
X72916133Y-10386396D01*
X72961202Y-10331479D01*
X72961479Y-10331202D01*
X73016396Y-10286133D01*
X73016722Y-10285915D01*
X73079372Y-10252428D01*
X73079734Y-10252278D01*
X73147721Y-10231654D01*
X73148106Y-10231578D01*
X73224944Y-10224010D01*
X73225140Y-10224000D01*
X73281500Y-10224000D01*
X73283232Y-10225000D01*
G37*
G36*
X74189056Y-10224010D02*
G01*
X74265894Y-10231578D01*
X74266279Y-10231654D01*
X74334266Y-10252278D01*
X74334628Y-10252428D01*
X74397278Y-10285915D01*
X74397604Y-10286133D01*
X74452521Y-10331202D01*
X74452798Y-10331479D01*
X74497867Y-10386396D01*
X74498085Y-10386722D01*
X74531572Y-10449372D01*
X74531722Y-10449734D01*
X74552346Y-10517721D01*
X74552422Y-10518106D01*
X74559990Y-10594944D01*
X74560000Y-10595140D01*
X74560000Y-10651500D01*
X74559000Y-10653232D01*
X74557000Y-10653232D01*
X74556010Y-10651696D01*
X74547854Y-10568884D01*
X74523754Y-10489437D01*
X74484619Y-10416221D01*
X74431953Y-10352047D01*
X74367779Y-10299381D01*
X74294563Y-10260246D01*
X74215116Y-10236146D01*
X74132304Y-10227990D01*
X74130678Y-10226825D01*
X74130874Y-10224835D01*
X74132500Y-10224000D01*
X74188860Y-10224000D01*
X74189056Y-10224010D01*
G37*
G36*
X66689056Y-10224010D02*
G01*
X66765894Y-10231578D01*
X66766279Y-10231654D01*
X66834266Y-10252278D01*
X66834628Y-10252428D01*
X66897278Y-10285915D01*
X66897604Y-10286133D01*
X66952521Y-10331202D01*
X66952798Y-10331479D01*
X66997867Y-10386396D01*
X66998085Y-10386722D01*
X67031572Y-10449372D01*
X67031722Y-10449734D01*
X67052346Y-10517721D01*
X67052422Y-10518106D01*
X67059990Y-10594944D01*
X67060000Y-10595140D01*
X67060000Y-10651500D01*
X67059000Y-10653232D01*
X67057000Y-10653232D01*
X67056010Y-10651696D01*
X67047854Y-10568884D01*
X67023754Y-10489437D01*
X66984619Y-10416221D01*
X66931953Y-10352047D01*
X66867779Y-10299381D01*
X66794563Y-10260246D01*
X66715116Y-10236146D01*
X66632304Y-10227990D01*
X66630678Y-10226825D01*
X66630874Y-10224835D01*
X66632500Y-10224000D01*
X66688860Y-10224000D01*
X66689056Y-10224010D01*
G37*
G36*
X64189056Y-10224010D02*
G01*
X64265894Y-10231578D01*
X64266279Y-10231654D01*
X64334266Y-10252278D01*
X64334628Y-10252428D01*
X64397278Y-10285915D01*
X64397604Y-10286133D01*
X64452521Y-10331202D01*
X64452798Y-10331479D01*
X64497867Y-10386396D01*
X64498085Y-10386722D01*
X64531572Y-10449372D01*
X64531722Y-10449734D01*
X64552346Y-10517721D01*
X64552422Y-10518106D01*
X64559990Y-10594944D01*
X64560000Y-10595140D01*
X64560000Y-10651500D01*
X64559000Y-10653232D01*
X64557000Y-10653232D01*
X64556010Y-10651696D01*
X64547854Y-10568884D01*
X64523754Y-10489437D01*
X64484619Y-10416221D01*
X64431953Y-10352047D01*
X64367779Y-10299381D01*
X64294563Y-10260246D01*
X64215116Y-10236146D01*
X64132304Y-10227990D01*
X64130678Y-10226825D01*
X64130874Y-10224835D01*
X64132500Y-10224000D01*
X64188860Y-10224000D01*
X64189056Y-10224010D01*
G37*
G36*
X71689056Y-10224010D02*
G01*
X71765894Y-10231578D01*
X71766279Y-10231654D01*
X71834266Y-10252278D01*
X71834628Y-10252428D01*
X71897278Y-10285915D01*
X71897604Y-10286133D01*
X71952521Y-10331202D01*
X71952798Y-10331479D01*
X71997867Y-10386396D01*
X71998085Y-10386722D01*
X72031572Y-10449372D01*
X72031722Y-10449734D01*
X72052346Y-10517721D01*
X72052422Y-10518106D01*
X72059990Y-10594944D01*
X72060000Y-10595140D01*
X72060000Y-10651500D01*
X72059000Y-10653232D01*
X72057000Y-10653232D01*
X72056010Y-10651696D01*
X72047854Y-10568884D01*
X72023754Y-10489437D01*
X71984619Y-10416221D01*
X71931953Y-10352047D01*
X71867779Y-10299381D01*
X71794563Y-10260246D01*
X71715116Y-10236146D01*
X71632304Y-10227990D01*
X71630678Y-10226825D01*
X71630874Y-10224835D01*
X71632500Y-10224000D01*
X71688860Y-10224000D01*
X71689056Y-10224010D01*
G37*
G36*
X23287096Y-8323366D02*
G01*
X23303355Y-8339625D01*
X23303366Y-8339635D01*
X23391748Y-8428017D01*
X23392266Y-8429949D01*
X23391748Y-8430845D01*
X22188253Y-9634340D01*
X22186321Y-9634858D01*
X22185425Y-9634340D01*
X22169166Y-9618081D01*
X22169155Y-9618071D01*
X22080773Y-9529689D01*
X22080255Y-9527757D01*
X22080773Y-9526861D01*
X23284268Y-8323366D01*
X23286200Y-8322848D01*
X23287096Y-8323366D01*
G37*
G36*
X12783733Y-8323366D02*
G01*
X13987228Y-9526861D01*
X13987746Y-9528793D01*
X13987228Y-9529689D01*
X13898840Y-9618076D01*
X13882576Y-9634340D01*
X13879748Y-9634340D01*
X12676253Y-8430845D01*
X12676253Y-8428017D01*
X12764630Y-8339639D01*
X12764651Y-8339620D01*
X12780905Y-8323366D01*
X12782837Y-8322848D01*
X12783733Y-8323366D01*
G37*
G36*
X22721411Y-7757680D02*
G01*
X22809793Y-7846062D01*
X22809798Y-7846068D01*
X22826062Y-7862332D01*
X22826580Y-7864264D01*
X22826062Y-7865160D01*
X21622567Y-9068655D01*
X21620635Y-9069173D01*
X21619739Y-9068655D01*
X21531357Y-8980273D01*
X21531352Y-8980267D01*
X21515088Y-8964003D01*
X21514570Y-8962071D01*
X21515088Y-8961175D01*
X22718583Y-7757680D01*
X22720515Y-7757162D01*
X22721411Y-7757680D01*
G37*
G36*
X14552913Y-8961175D02*
G01*
X14553431Y-8963107D01*
X14552913Y-8964003D01*
X14536649Y-8980267D01*
X14448262Y-9068655D01*
X14446330Y-9069173D01*
X14445434Y-9068655D01*
X13241939Y-7865160D01*
X13241421Y-7863228D01*
X13241939Y-7862332D01*
X13258193Y-7846078D01*
X13258212Y-7846057D01*
X13346590Y-7757680D01*
X13349418Y-7757680D01*
X14552913Y-8961175D01*
G37*
G36*
X22155726Y-7191995D02*
G01*
X22260377Y-7296646D01*
X22260895Y-7298578D01*
X22260377Y-7299474D01*
X21056882Y-8502969D01*
X21054950Y-8503487D01*
X21054054Y-8502969D01*
X20949403Y-8398318D01*
X20948885Y-8396386D01*
X20949403Y-8395490D01*
X22152898Y-7191995D01*
X22154830Y-7191477D01*
X22155726Y-7191995D01*
G37*
G36*
X13915103Y-7191995D02*
G01*
X15118598Y-8395490D01*
X15119116Y-8397422D01*
X15118598Y-8398318D01*
X15030210Y-8486705D01*
X15013947Y-8502969D01*
X15011119Y-8502969D01*
X13807624Y-7299474D01*
X13807106Y-7297542D01*
X13807624Y-7296646D01*
X13912275Y-7191995D01*
X13914207Y-7191477D01*
X13915103Y-7191995D01*
G37*
G36*
X21590040Y-6626309D02*
G01*
X21694692Y-6730961D01*
X21695210Y-6732893D01*
X21694692Y-6733789D01*
X20491197Y-7937284D01*
X20489265Y-7937802D01*
X20488369Y-7937284D01*
X20383717Y-7832632D01*
X20383199Y-7830700D01*
X20383717Y-7829804D01*
X21587212Y-6626309D01*
X21589144Y-6625791D01*
X21590040Y-6626309D01*
G37*
G36*
X14480789Y-6626309D02*
G01*
X15684284Y-7829804D01*
X15684802Y-7831736D01*
X15684284Y-7832632D01*
X15579632Y-7937284D01*
X15577700Y-7937802D01*
X15576804Y-7937284D01*
X14373309Y-6733789D01*
X14372791Y-6731857D01*
X14373309Y-6730961D01*
X14477961Y-6626309D01*
X14479893Y-6625791D01*
X14480789Y-6626309D01*
G37*
G36*
X21024355Y-6060624D02*
G01*
X21129006Y-6165275D01*
X21129524Y-6167207D01*
X21129006Y-6168103D01*
X19925511Y-7371598D01*
X19923579Y-7372116D01*
X19922683Y-7371598D01*
X19818032Y-7266947D01*
X19817514Y-7265015D01*
X19818032Y-7264119D01*
X21021527Y-6060624D01*
X21023459Y-6060106D01*
X21024355Y-6060624D01*
G37*
G36*
X15046474Y-6060624D02*
G01*
X16249969Y-7264119D01*
X16250487Y-7266051D01*
X16249969Y-7266947D01*
X16161581Y-7355334D01*
X16145318Y-7371598D01*
X16142490Y-7371598D01*
X14938995Y-6168103D01*
X14938477Y-6166171D01*
X14938995Y-6165275D01*
X15043646Y-6060624D01*
X15045578Y-6060106D01*
X15046474Y-6060624D01*
G37*
G36*
X69959165Y-6900874D02*
G01*
X69960000Y-6902500D01*
X69960000Y-6958860D01*
X69959990Y-6959056D01*
X69952422Y-7035894D01*
X69952346Y-7036279D01*
X69931722Y-7104266D01*
X69931572Y-7104628D01*
X69898085Y-7167278D01*
X69897867Y-7167604D01*
X69852798Y-7222521D01*
X69852521Y-7222798D01*
X69797604Y-7267867D01*
X69797278Y-7268085D01*
X69734628Y-7301572D01*
X69734266Y-7301722D01*
X69666279Y-7322346D01*
X69665894Y-7322422D01*
X69589056Y-7329990D01*
X69588860Y-7330000D01*
X69532500Y-7330000D01*
X69530768Y-7329000D01*
X69530768Y-7327000D01*
X69532304Y-7326010D01*
X69615116Y-7317854D01*
X69694563Y-7293754D01*
X69767779Y-7254619D01*
X69831953Y-7201953D01*
X69884619Y-7137779D01*
X69923754Y-7064563D01*
X69947854Y-6985116D01*
X69956010Y-6902304D01*
X69957175Y-6900678D01*
X69959165Y-6900874D01*
G37*
G36*
X67457990Y-6902304D02*
G01*
X67466146Y-6985116D01*
X67490246Y-7064563D01*
X67529381Y-7137779D01*
X67582047Y-7201953D01*
X67646221Y-7254619D01*
X67719437Y-7293754D01*
X67798884Y-7317854D01*
X67881696Y-7326010D01*
X67883322Y-7327175D01*
X67883126Y-7329165D01*
X67881500Y-7330000D01*
X67825140Y-7330000D01*
X67824944Y-7329990D01*
X67748106Y-7322422D01*
X67747721Y-7322346D01*
X67679734Y-7301722D01*
X67679372Y-7301572D01*
X67616722Y-7268085D01*
X67616396Y-7267867D01*
X67561479Y-7222798D01*
X67561202Y-7222521D01*
X67516133Y-7167604D01*
X67515915Y-7167278D01*
X67482428Y-7104628D01*
X67482278Y-7104266D01*
X67461654Y-7036279D01*
X67461578Y-7035894D01*
X67454010Y-6959056D01*
X67454000Y-6958860D01*
X67454000Y-6902500D01*
X67455000Y-6900768D01*
X67457000Y-6900768D01*
X67457990Y-6902304D01*
G37*
G36*
X20458669Y-5494939D02*
G01*
X20474928Y-5511198D01*
X20474939Y-5511208D01*
X20563321Y-5599590D01*
X20563839Y-5601522D01*
X20563321Y-5602418D01*
X19359826Y-6805913D01*
X19357894Y-6806431D01*
X19356998Y-6805913D01*
X19340739Y-6789654D01*
X19340728Y-6789644D01*
X19252346Y-6701262D01*
X19251828Y-6699330D01*
X19252346Y-6698434D01*
X20455841Y-5494939D01*
X20457773Y-5494421D01*
X20458669Y-5494939D01*
G37*
G36*
X15612160Y-5494939D02*
G01*
X16815655Y-6698434D01*
X16816173Y-6700366D01*
X16815655Y-6701262D01*
X16727267Y-6789649D01*
X16711003Y-6805913D01*
X16708175Y-6805913D01*
X15504680Y-5602418D01*
X15504680Y-5599590D01*
X15593057Y-5511212D01*
X15593078Y-5511193D01*
X15609332Y-5494939D01*
X15611264Y-5494421D01*
X15612160Y-5494939D01*
G37*
G36*
X17381340Y-6132748D02*
G01*
X17381858Y-6134680D01*
X17381340Y-6135576D01*
X17365076Y-6151840D01*
X17276689Y-6240228D01*
X17274757Y-6240746D01*
X17273861Y-6240228D01*
X16070366Y-5036733D01*
X16069848Y-5034801D01*
X16070366Y-5033905D01*
X16086620Y-5017651D01*
X16086639Y-5017630D01*
X16175017Y-4929253D01*
X16177845Y-4929253D01*
X17381340Y-6132748D01*
G37*
G36*
X19892984Y-4929253D02*
G01*
X19981366Y-5017635D01*
X19981371Y-5017641D01*
X19997635Y-5033905D01*
X19998153Y-5035837D01*
X19997635Y-5036733D01*
X18794140Y-6240228D01*
X18792208Y-6240746D01*
X18791312Y-6240228D01*
X18702930Y-6151846D01*
X18702925Y-6151840D01*
X18686661Y-6135576D01*
X18686143Y-6133644D01*
X18686661Y-6132748D01*
X19890156Y-4929253D01*
X19892088Y-4928735D01*
X19892984Y-4929253D01*
G37*
G36*
X67883232Y-5625000D02*
G01*
X67883232Y-5627000D01*
X67881696Y-5627990D01*
X67798884Y-5636146D01*
X67719437Y-5660246D01*
X67646221Y-5699381D01*
X67582047Y-5752047D01*
X67529381Y-5816221D01*
X67490246Y-5889437D01*
X67466146Y-5968884D01*
X67457990Y-6051696D01*
X67456825Y-6053322D01*
X67454835Y-6053126D01*
X67454000Y-6051500D01*
X67454000Y-5995140D01*
X67454010Y-5994944D01*
X67461578Y-5918106D01*
X67461654Y-5917721D01*
X67482278Y-5849734D01*
X67482428Y-5849372D01*
X67515915Y-5786722D01*
X67516133Y-5786396D01*
X67561202Y-5731479D01*
X67561479Y-5731202D01*
X67616396Y-5686133D01*
X67616722Y-5685915D01*
X67679372Y-5652428D01*
X67679734Y-5652278D01*
X67747721Y-5631654D01*
X67748106Y-5631578D01*
X67824944Y-5624010D01*
X67825140Y-5624000D01*
X67881500Y-5624000D01*
X67883232Y-5625000D01*
G37*
G36*
X69589056Y-5624010D02*
G01*
X69665894Y-5631578D01*
X69666279Y-5631654D01*
X69734266Y-5652278D01*
X69734628Y-5652428D01*
X69797278Y-5685915D01*
X69797604Y-5686133D01*
X69852521Y-5731202D01*
X69852798Y-5731479D01*
X69897867Y-5786396D01*
X69898085Y-5786722D01*
X69931572Y-5849372D01*
X69931722Y-5849734D01*
X69952346Y-5917721D01*
X69952422Y-5918106D01*
X69959990Y-5994944D01*
X69960000Y-5995140D01*
X69960000Y-6051500D01*
X69959000Y-6053232D01*
X69957000Y-6053232D01*
X69956010Y-6051696D01*
X69947854Y-5968884D01*
X69923754Y-5889437D01*
X69884619Y-5816221D01*
X69831953Y-5752047D01*
X69767779Y-5699381D01*
X69694563Y-5660246D01*
X69615116Y-5636146D01*
X69532304Y-5627990D01*
X69530678Y-5626825D01*
X69530874Y-5624835D01*
X69532500Y-5624000D01*
X69588860Y-5624000D01*
X69589056Y-5624010D01*
G37*
M02*
