G04 #@! TF.GenerationSoftware,KiCad,Pcbnew,(5.1.10)-1*
G04 #@! TF.CreationDate,2021-09-13T18:31:10+02:00*
G04 #@! TF.ProjectId,CardSizeMidiController,43617264-5369-47a6-954d-696469436f6e,rev?*
G04 #@! TF.SameCoordinates,Original*
G04 #@! TF.FileFunction,Paste,Top*
G04 #@! TF.FilePolarity,Positive*
%FSLAX46Y46*%
G04 Gerber Fmt 4.6, Leading zero omitted, Abs format (unit mm)*
G04 Created by KiCad (PCBNEW (5.1.10)-1) date 2021-09-13 18:31:10*
%MOMM*%
%LPD*%
G01*
G04 APERTURE LIST*
%ADD10R,1.550000X1.300000*%
%ADD11C,0.100000*%
G04 APERTURE END LIST*
D10*
X76517000Y-49227000D03*
X76517000Y-44727000D03*
X68567000Y-44727000D03*
X68567000Y-49227000D03*
X64629800Y-49227000D03*
X64629800Y-44727000D03*
X56679800Y-44727000D03*
X56679800Y-49227000D03*
X52742600Y-49227000D03*
X52742600Y-44727000D03*
X44792600Y-44727000D03*
X44792600Y-49227000D03*
X40855400Y-49227000D03*
X40855400Y-44727000D03*
X32905400Y-44727000D03*
X32905400Y-49227000D03*
X28968200Y-49227000D03*
X28968200Y-44727000D03*
X21018200Y-44727000D03*
X21018200Y-49227000D03*
X17081000Y-49227000D03*
X17081000Y-44727000D03*
X9131000Y-44727000D03*
X9131000Y-49227000D03*
G36*
G01*
X30636396Y-8000001D02*
X29999999Y-7363604D01*
G75*
G02*
X29999999Y-7010052I176776J176776D01*
G01*
X30459620Y-6550431D01*
G75*
G02*
X30813172Y-6550431I176776J-176776D01*
G01*
X31449569Y-7186828D01*
G75*
G02*
X31449569Y-7540380I-176776J-176776D01*
G01*
X30989948Y-8000001D01*
G75*
G02*
X30636396Y-8000001I-176776J176776D01*
G01*
G37*
G36*
G01*
X29186828Y-9449569D02*
X28550431Y-8813172D01*
G75*
G02*
X28550431Y-8459620I176776J176776D01*
G01*
X29010052Y-7999999D01*
G75*
G02*
X29363604Y-7999999I176776J-176776D01*
G01*
X30000001Y-8636396D01*
G75*
G02*
X30000001Y-8989948I-176776J-176776D01*
G01*
X29540380Y-9449569D01*
G75*
G02*
X29186828Y-9449569I-176776J176776D01*
G01*
G37*
G36*
G01*
X37450001Y-13600000D02*
X36549999Y-13600000D01*
G75*
G02*
X36300000Y-13350001I0J249999D01*
G01*
X36300000Y-12699999D01*
G75*
G02*
X36549999Y-12450000I249999J0D01*
G01*
X37450001Y-12450000D01*
G75*
G02*
X37700000Y-12699999I0J-249999D01*
G01*
X37700000Y-13350001D01*
G75*
G02*
X37450001Y-13600000I-249999J0D01*
G01*
G37*
G36*
G01*
X37450001Y-11550000D02*
X36549999Y-11550000D01*
G75*
G02*
X36300000Y-11300001I0J249999D01*
G01*
X36300000Y-10649999D01*
G75*
G02*
X36549999Y-10400000I249999J0D01*
G01*
X37450001Y-10400000D01*
G75*
G02*
X37700000Y-10649999I0J-249999D01*
G01*
X37700000Y-11300001D01*
G75*
G02*
X37450001Y-11550000I-249999J0D01*
G01*
G37*
G36*
G01*
X6195000Y-23951250D02*
X6195000Y-23038750D01*
G75*
G02*
X6438750Y-22795000I243750J0D01*
G01*
X6926250Y-22795000D01*
G75*
G02*
X7170000Y-23038750I0J-243750D01*
G01*
X7170000Y-23951250D01*
G75*
G02*
X6926250Y-24195000I-243750J0D01*
G01*
X6438750Y-24195000D01*
G75*
G02*
X6195000Y-23951250I0J243750D01*
G01*
G37*
G36*
G01*
X8070000Y-23951250D02*
X8070000Y-23038750D01*
G75*
G02*
X8313750Y-22795000I243750J0D01*
G01*
X8801250Y-22795000D01*
G75*
G02*
X9045000Y-23038750I0J-243750D01*
G01*
X9045000Y-23951250D01*
G75*
G02*
X8801250Y-24195000I-243750J0D01*
G01*
X8313750Y-24195000D01*
G75*
G02*
X8070000Y-23951250I0J243750D01*
G01*
G37*
G36*
G01*
X6058700Y-26485001D02*
X6058700Y-25584999D01*
G75*
G02*
X6308699Y-25335000I249999J0D01*
G01*
X6958701Y-25335000D01*
G75*
G02*
X7208700Y-25584999I0J-249999D01*
G01*
X7208700Y-26485001D01*
G75*
G02*
X6958701Y-26735000I-249999J0D01*
G01*
X6308699Y-26735000D01*
G75*
G02*
X6058700Y-26485001I0J249999D01*
G01*
G37*
G36*
G01*
X8108700Y-26485001D02*
X8108700Y-25584999D01*
G75*
G02*
X8358699Y-25335000I249999J0D01*
G01*
X9008701Y-25335000D01*
G75*
G02*
X9258700Y-25584999I0J-249999D01*
G01*
X9258700Y-26485001D01*
G75*
G02*
X9008701Y-26735000I-249999J0D01*
G01*
X8358699Y-26735000D01*
G75*
G02*
X8108700Y-26485001I0J249999D01*
G01*
G37*
G36*
G01*
X28466125Y-6286751D02*
X28130249Y-5950875D01*
G75*
G02*
X28130249Y-5614999I167938J167938D01*
G01*
X28536835Y-5208413D01*
G75*
G02*
X28872711Y-5208413I167938J-167938D01*
G01*
X29208587Y-5544289D01*
G75*
G02*
X29208587Y-5880165I-167938J-167938D01*
G01*
X28802001Y-6286751D01*
G75*
G02*
X28466125Y-6286751I-167938J167938D01*
G01*
G37*
G36*
G01*
X27228689Y-7524187D02*
X26892813Y-7188311D01*
G75*
G02*
X26892813Y-6852435I167938J167938D01*
G01*
X27299399Y-6445849D01*
G75*
G02*
X27635275Y-6445849I167938J-167938D01*
G01*
X27971151Y-6781725D01*
G75*
G02*
X27971151Y-7117601I-167938J-167938D01*
G01*
X27564565Y-7524187D01*
G75*
G02*
X27228689Y-7524187I-167938J167938D01*
G01*
G37*
G36*
G01*
X24952011Y-1382113D02*
X25287887Y-1717989D01*
G75*
G02*
X25287887Y-2053865I-167938J-167938D01*
G01*
X24881301Y-2460451D01*
G75*
G02*
X24545425Y-2460451I-167938J167938D01*
G01*
X24209549Y-2124575D01*
G75*
G02*
X24209549Y-1788699I167938J167938D01*
G01*
X24616135Y-1382113D01*
G75*
G02*
X24952011Y-1382113I167938J-167938D01*
G01*
G37*
G36*
G01*
X23714575Y-2619549D02*
X24050451Y-2955425D01*
G75*
G02*
X24050451Y-3291301I-167938J-167938D01*
G01*
X23643865Y-3697887D01*
G75*
G02*
X23307989Y-3697887I-167938J167938D01*
G01*
X22972113Y-3362011D01*
G75*
G02*
X22972113Y-3026135I167938J167938D01*
G01*
X23378699Y-2619549D01*
G75*
G02*
X23714575Y-2619549I167938J-167938D01*
G01*
G37*
D11*
G36*
X25787512Y-6743097D02*
G01*
X24938984Y-5894569D01*
X25928934Y-4904619D01*
X26777462Y-5753147D01*
X25787512Y-6743097D01*
G37*
G36*
X27343147Y-5187462D02*
G01*
X26494619Y-4338934D01*
X27484569Y-3348984D01*
X28333097Y-4197512D01*
X27343147Y-5187462D01*
G37*
G36*
X26141066Y-3985381D02*
G01*
X25292538Y-3136853D01*
X26282488Y-2146903D01*
X27131016Y-2995431D01*
X26141066Y-3985381D01*
G37*
G36*
X24585431Y-5541016D02*
G01*
X23736903Y-4692488D01*
X24726853Y-3702538D01*
X25575381Y-4551066D01*
X24585431Y-5541016D01*
G37*
G36*
G01*
X22167000Y-23951250D02*
X22167000Y-23038750D01*
G75*
G02*
X22410750Y-22795000I243750J0D01*
G01*
X22898250Y-22795000D01*
G75*
G02*
X23142000Y-23038750I0J-243750D01*
G01*
X23142000Y-23951250D01*
G75*
G02*
X22898250Y-24195000I-243750J0D01*
G01*
X22410750Y-24195000D01*
G75*
G02*
X22167000Y-23951250I0J243750D01*
G01*
G37*
G36*
G01*
X20292000Y-23951250D02*
X20292000Y-23038750D01*
G75*
G02*
X20535750Y-22795000I243750J0D01*
G01*
X21023250Y-22795000D01*
G75*
G02*
X21267000Y-23038750I0J-243750D01*
G01*
X21267000Y-23951250D01*
G75*
G02*
X21023250Y-24195000I-243750J0D01*
G01*
X20535750Y-24195000D01*
G75*
G02*
X20292000Y-23951250I0J243750D01*
G01*
G37*
G36*
G01*
X34463600Y-23951250D02*
X34463600Y-23038750D01*
G75*
G02*
X34707350Y-22795000I243750J0D01*
G01*
X35194850Y-22795000D01*
G75*
G02*
X35438600Y-23038750I0J-243750D01*
G01*
X35438600Y-23951250D01*
G75*
G02*
X35194850Y-24195000I-243750J0D01*
G01*
X34707350Y-24195000D01*
G75*
G02*
X34463600Y-23951250I0J243750D01*
G01*
G37*
G36*
G01*
X36338600Y-23951250D02*
X36338600Y-23038750D01*
G75*
G02*
X36582350Y-22795000I243750J0D01*
G01*
X37069850Y-22795000D01*
G75*
G02*
X37313600Y-23038750I0J-243750D01*
G01*
X37313600Y-23951250D01*
G75*
G02*
X37069850Y-24195000I-243750J0D01*
G01*
X36582350Y-24195000D01*
G75*
G02*
X36338600Y-23951250I0J243750D01*
G01*
G37*
G36*
G01*
X50326400Y-23951250D02*
X50326400Y-23038750D01*
G75*
G02*
X50570150Y-22795000I243750J0D01*
G01*
X51057650Y-22795000D01*
G75*
G02*
X51301400Y-23038750I0J-243750D01*
G01*
X51301400Y-23951250D01*
G75*
G02*
X51057650Y-24195000I-243750J0D01*
G01*
X50570150Y-24195000D01*
G75*
G02*
X50326400Y-23951250I0J243750D01*
G01*
G37*
G36*
G01*
X48451400Y-23951250D02*
X48451400Y-23038750D01*
G75*
G02*
X48695150Y-22795000I243750J0D01*
G01*
X49182650Y-22795000D01*
G75*
G02*
X49426400Y-23038750I0J-243750D01*
G01*
X49426400Y-23951250D01*
G75*
G02*
X49182650Y-24195000I-243750J0D01*
G01*
X48695150Y-24195000D01*
G75*
G02*
X48451400Y-23951250I0J243750D01*
G01*
G37*
G36*
G01*
X62566300Y-23951250D02*
X62566300Y-23038750D01*
G75*
G02*
X62810050Y-22795000I243750J0D01*
G01*
X63297550Y-22795000D01*
G75*
G02*
X63541300Y-23038750I0J-243750D01*
G01*
X63541300Y-23951250D01*
G75*
G02*
X63297550Y-24195000I-243750J0D01*
G01*
X62810050Y-24195000D01*
G75*
G02*
X62566300Y-23951250I0J243750D01*
G01*
G37*
G36*
G01*
X64441300Y-23951250D02*
X64441300Y-23038750D01*
G75*
G02*
X64685050Y-22795000I243750J0D01*
G01*
X65172550Y-22795000D01*
G75*
G02*
X65416300Y-23038750I0J-243750D01*
G01*
X65416300Y-23951250D01*
G75*
G02*
X65172550Y-24195000I-243750J0D01*
G01*
X64685050Y-24195000D01*
G75*
G02*
X64441300Y-23951250I0J243750D01*
G01*
G37*
G36*
G01*
X78555000Y-23951250D02*
X78555000Y-23038750D01*
G75*
G02*
X78798750Y-22795000I243750J0D01*
G01*
X79286250Y-22795000D01*
G75*
G02*
X79530000Y-23038750I0J-243750D01*
G01*
X79530000Y-23951250D01*
G75*
G02*
X79286250Y-24195000I-243750J0D01*
G01*
X78798750Y-24195000D01*
G75*
G02*
X78555000Y-23951250I0J243750D01*
G01*
G37*
G36*
G01*
X76680000Y-23951250D02*
X76680000Y-23038750D01*
G75*
G02*
X76923750Y-22795000I243750J0D01*
G01*
X77411250Y-22795000D01*
G75*
G02*
X77655000Y-23038750I0J-243750D01*
G01*
X77655000Y-23951250D01*
G75*
G02*
X77411250Y-24195000I-243750J0D01*
G01*
X76923750Y-24195000D01*
G75*
G02*
X76680000Y-23951250I0J243750D01*
G01*
G37*
G36*
X23390334Y-8501555D02*
G01*
X23779243Y-8890464D01*
X22647872Y-10021835D01*
X22258963Y-9632926D01*
X23390334Y-8501555D01*
G37*
G36*
X22824648Y-7935870D02*
G01*
X23213557Y-8324779D01*
X22082186Y-9456150D01*
X21693277Y-9067241D01*
X22824648Y-7935870D01*
G37*
G36*
X22258963Y-7370184D02*
G01*
X22647872Y-7759093D01*
X21516501Y-8890464D01*
X21127592Y-8501555D01*
X22258963Y-7370184D01*
G37*
G36*
X21693278Y-6804499D02*
G01*
X22082187Y-7193408D01*
X20950816Y-8324779D01*
X20561907Y-7935870D01*
X21693278Y-6804499D01*
G37*
G36*
X21127592Y-6238813D02*
G01*
X21516501Y-6627722D01*
X20385130Y-7759093D01*
X19996221Y-7370184D01*
X21127592Y-6238813D01*
G37*
G36*
X20561907Y-5673128D02*
G01*
X20950816Y-6062037D01*
X19819445Y-7193408D01*
X19430536Y-6804499D01*
X20561907Y-5673128D01*
G37*
G36*
X19996221Y-5107443D02*
G01*
X20385130Y-5496352D01*
X19253759Y-6627723D01*
X18864850Y-6238814D01*
X19996221Y-5107443D01*
G37*
G36*
X19430536Y-4541757D02*
G01*
X19819445Y-4930666D01*
X18688074Y-6062037D01*
X18299165Y-5673128D01*
X19430536Y-4541757D01*
G37*
G36*
X16248555Y-4930666D02*
G01*
X16637464Y-4541757D01*
X17768835Y-5673128D01*
X17379926Y-6062037D01*
X16248555Y-4930666D01*
G37*
G36*
X15682870Y-5496352D02*
G01*
X16071779Y-5107443D01*
X17203150Y-6238814D01*
X16814241Y-6627723D01*
X15682870Y-5496352D01*
G37*
G36*
X15117184Y-6062037D02*
G01*
X15506093Y-5673128D01*
X16637464Y-6804499D01*
X16248555Y-7193408D01*
X15117184Y-6062037D01*
G37*
G36*
X14551499Y-6627722D02*
G01*
X14940408Y-6238813D01*
X16071779Y-7370184D01*
X15682870Y-7759093D01*
X14551499Y-6627722D01*
G37*
G36*
X13985813Y-7193408D02*
G01*
X14374722Y-6804499D01*
X15506093Y-7935870D01*
X15117184Y-8324779D01*
X13985813Y-7193408D01*
G37*
G36*
X13420128Y-7759093D02*
G01*
X13809037Y-7370184D01*
X14940408Y-8501555D01*
X14551499Y-8890464D01*
X13420128Y-7759093D01*
G37*
G36*
X12854443Y-8324779D02*
G01*
X13243352Y-7935870D01*
X14374723Y-9067241D01*
X13985814Y-9456150D01*
X12854443Y-8324779D01*
G37*
G36*
X12288757Y-8890464D02*
G01*
X12677666Y-8501555D01*
X13809037Y-9632926D01*
X13420128Y-10021835D01*
X12288757Y-8890464D01*
G37*
G36*
X13420128Y-10552165D02*
G01*
X13809037Y-10941074D01*
X12677666Y-12072445D01*
X12288757Y-11683536D01*
X13420128Y-10552165D01*
G37*
G36*
X13985814Y-11117850D02*
G01*
X14374723Y-11506759D01*
X13243352Y-12638130D01*
X12854443Y-12249221D01*
X13985814Y-11117850D01*
G37*
G36*
X14551499Y-11683536D02*
G01*
X14940408Y-12072445D01*
X13809037Y-13203816D01*
X13420128Y-12814907D01*
X14551499Y-11683536D01*
G37*
G36*
X15117184Y-12249221D02*
G01*
X15506093Y-12638130D01*
X14374722Y-13769501D01*
X13985813Y-13380592D01*
X15117184Y-12249221D01*
G37*
G36*
X15682870Y-12814907D02*
G01*
X16071779Y-13203816D01*
X14940408Y-14335187D01*
X14551499Y-13946278D01*
X15682870Y-12814907D01*
G37*
G36*
X16248555Y-13380592D02*
G01*
X16637464Y-13769501D01*
X15506093Y-14900872D01*
X15117184Y-14511963D01*
X16248555Y-13380592D01*
G37*
G36*
X16814241Y-13946277D02*
G01*
X17203150Y-14335186D01*
X16071779Y-15466557D01*
X15682870Y-15077648D01*
X16814241Y-13946277D01*
G37*
G36*
X17379926Y-14511963D02*
G01*
X17768835Y-14900872D01*
X16637464Y-16032243D01*
X16248555Y-15643334D01*
X17379926Y-14511963D01*
G37*
G36*
X18299165Y-14900872D02*
G01*
X18688074Y-14511963D01*
X19819445Y-15643334D01*
X19430536Y-16032243D01*
X18299165Y-14900872D01*
G37*
G36*
X18864850Y-14335186D02*
G01*
X19253759Y-13946277D01*
X20385130Y-15077648D01*
X19996221Y-15466557D01*
X18864850Y-14335186D01*
G37*
G36*
X19430536Y-13769501D02*
G01*
X19819445Y-13380592D01*
X20950816Y-14511963D01*
X20561907Y-14900872D01*
X19430536Y-13769501D01*
G37*
G36*
X19996221Y-13203816D02*
G01*
X20385130Y-12814907D01*
X21516501Y-13946278D01*
X21127592Y-14335187D01*
X19996221Y-13203816D01*
G37*
G36*
X20561907Y-12638130D02*
G01*
X20950816Y-12249221D01*
X22082187Y-13380592D01*
X21693278Y-13769501D01*
X20561907Y-12638130D01*
G37*
G36*
X21127592Y-12072445D02*
G01*
X21516501Y-11683536D01*
X22647872Y-12814907D01*
X22258963Y-13203816D01*
X21127592Y-12072445D01*
G37*
G36*
X21693277Y-11506759D02*
G01*
X22082186Y-11117850D01*
X23213557Y-12249221D01*
X22824648Y-12638130D01*
X21693277Y-11506759D01*
G37*
G36*
X22258963Y-10941074D02*
G01*
X22647872Y-10552165D01*
X23779243Y-11683536D01*
X23390334Y-12072445D01*
X22258963Y-10941074D01*
G37*
G36*
G01*
X57461999Y-5258000D02*
X58362001Y-5258000D01*
G75*
G02*
X58612000Y-5507999I0J-249999D01*
G01*
X58612000Y-6158001D01*
G75*
G02*
X58362001Y-6408000I-249999J0D01*
G01*
X57461999Y-6408000D01*
G75*
G02*
X57212000Y-6158001I0J249999D01*
G01*
X57212000Y-5507999D01*
G75*
G02*
X57461999Y-5258000I249999J0D01*
G01*
G37*
G36*
G01*
X57461999Y-7308000D02*
X58362001Y-7308000D01*
G75*
G02*
X58612000Y-7557999I0J-249999D01*
G01*
X58612000Y-8208001D01*
G75*
G02*
X58362001Y-8458000I-249999J0D01*
G01*
X57461999Y-8458000D01*
G75*
G02*
X57212000Y-8208001I0J249999D01*
G01*
X57212000Y-7557999D01*
G75*
G02*
X57461999Y-7308000I249999J0D01*
G01*
G37*
G36*
G01*
X58362001Y-11107000D02*
X57461999Y-11107000D01*
G75*
G02*
X57212000Y-10857001I0J249999D01*
G01*
X57212000Y-10206999D01*
G75*
G02*
X57461999Y-9957000I249999J0D01*
G01*
X58362001Y-9957000D01*
G75*
G02*
X58612000Y-10206999I0J-249999D01*
G01*
X58612000Y-10857001D01*
G75*
G02*
X58362001Y-11107000I-249999J0D01*
G01*
G37*
G36*
G01*
X58362001Y-13157000D02*
X57461999Y-13157000D01*
G75*
G02*
X57212000Y-12907001I0J249999D01*
G01*
X57212000Y-12256999D01*
G75*
G02*
X57461999Y-12007000I249999J0D01*
G01*
X58362001Y-12007000D01*
G75*
G02*
X58612000Y-12256999I0J-249999D01*
G01*
X58612000Y-12907001D01*
G75*
G02*
X58362001Y-13157000I-249999J0D01*
G01*
G37*
G36*
G01*
X29286000Y-12503999D02*
X29286000Y-13404001D01*
G75*
G02*
X29036001Y-13654000I-249999J0D01*
G01*
X28385999Y-13654000D01*
G75*
G02*
X28136000Y-13404001I0J249999D01*
G01*
X28136000Y-12503999D01*
G75*
G02*
X28385999Y-12254000I249999J0D01*
G01*
X29036001Y-12254000D01*
G75*
G02*
X29286000Y-12503999I0J-249999D01*
G01*
G37*
G36*
G01*
X27236000Y-12503999D02*
X27236000Y-13404001D01*
G75*
G02*
X26986001Y-13654000I-249999J0D01*
G01*
X26335999Y-13654000D01*
G75*
G02*
X26086000Y-13404001I0J249999D01*
G01*
X26086000Y-12503999D01*
G75*
G02*
X26335999Y-12254000I249999J0D01*
G01*
X26986001Y-12254000D01*
G75*
G02*
X27236000Y-12503999I0J-249999D01*
G01*
G37*
G36*
G01*
X76466300Y-26485001D02*
X76466300Y-25584999D01*
G75*
G02*
X76716299Y-25335000I249999J0D01*
G01*
X77366301Y-25335000D01*
G75*
G02*
X77616300Y-25584999I0J-249999D01*
G01*
X77616300Y-26485001D01*
G75*
G02*
X77366301Y-26735000I-249999J0D01*
G01*
X76716299Y-26735000D01*
G75*
G02*
X76466300Y-26485001I0J249999D01*
G01*
G37*
G36*
G01*
X78516300Y-26485001D02*
X78516300Y-25584999D01*
G75*
G02*
X78766299Y-25335000I249999J0D01*
G01*
X79416301Y-25335000D01*
G75*
G02*
X79666300Y-25584999I0J-249999D01*
G01*
X79666300Y-26485001D01*
G75*
G02*
X79416301Y-26735000I-249999J0D01*
G01*
X78766299Y-26735000D01*
G75*
G02*
X78516300Y-26485001I0J249999D01*
G01*
G37*
G36*
G01*
X64485600Y-26485001D02*
X64485600Y-25584999D01*
G75*
G02*
X64735599Y-25335000I249999J0D01*
G01*
X65385601Y-25335000D01*
G75*
G02*
X65635600Y-25584999I0J-249999D01*
G01*
X65635600Y-26485001D01*
G75*
G02*
X65385601Y-26735000I-249999J0D01*
G01*
X64735599Y-26735000D01*
G75*
G02*
X64485600Y-26485001I0J249999D01*
G01*
G37*
G36*
G01*
X62435600Y-26485001D02*
X62435600Y-25584999D01*
G75*
G02*
X62685599Y-25335000I249999J0D01*
G01*
X63335601Y-25335000D01*
G75*
G02*
X63585600Y-25584999I0J-249999D01*
G01*
X63585600Y-26485001D01*
G75*
G02*
X63335601Y-26735000I-249999J0D01*
G01*
X62685599Y-26735000D01*
G75*
G02*
X62435600Y-26485001I0J249999D01*
G01*
G37*
G36*
G01*
X48277900Y-26485001D02*
X48277900Y-25584999D01*
G75*
G02*
X48527899Y-25335000I249999J0D01*
G01*
X49177901Y-25335000D01*
G75*
G02*
X49427900Y-25584999I0J-249999D01*
G01*
X49427900Y-26485001D01*
G75*
G02*
X49177901Y-26735000I-249999J0D01*
G01*
X48527899Y-26735000D01*
G75*
G02*
X48277900Y-26485001I0J249999D01*
G01*
G37*
G36*
G01*
X50327900Y-26485001D02*
X50327900Y-25584999D01*
G75*
G02*
X50577899Y-25335000I249999J0D01*
G01*
X51227901Y-25335000D01*
G75*
G02*
X51477900Y-25584999I0J-249999D01*
G01*
X51477900Y-26485001D01*
G75*
G02*
X51227901Y-26735000I-249999J0D01*
G01*
X50577899Y-26735000D01*
G75*
G02*
X50327900Y-26485001I0J249999D01*
G01*
G37*
G36*
G01*
X36297100Y-26485001D02*
X36297100Y-25584999D01*
G75*
G02*
X36547099Y-25335000I249999J0D01*
G01*
X37197101Y-25335000D01*
G75*
G02*
X37447100Y-25584999I0J-249999D01*
G01*
X37447100Y-26485001D01*
G75*
G02*
X37197101Y-26735000I-249999J0D01*
G01*
X36547099Y-26735000D01*
G75*
G02*
X36297100Y-26485001I0J249999D01*
G01*
G37*
G36*
G01*
X34247100Y-26485001D02*
X34247100Y-25584999D01*
G75*
G02*
X34497099Y-25335000I249999J0D01*
G01*
X35147101Y-25335000D01*
G75*
G02*
X35397100Y-25584999I0J-249999D01*
G01*
X35397100Y-26485001D01*
G75*
G02*
X35147101Y-26735000I-249999J0D01*
G01*
X34497099Y-26735000D01*
G75*
G02*
X34247100Y-26485001I0J249999D01*
G01*
G37*
G36*
G01*
X20117000Y-26485001D02*
X20117000Y-25584999D01*
G75*
G02*
X20366999Y-25335000I249999J0D01*
G01*
X21017001Y-25335000D01*
G75*
G02*
X21267000Y-25584999I0J-249999D01*
G01*
X21267000Y-26485001D01*
G75*
G02*
X21017001Y-26735000I-249999J0D01*
G01*
X20366999Y-26735000D01*
G75*
G02*
X20117000Y-26485001I0J249999D01*
G01*
G37*
G36*
G01*
X22167000Y-26485001D02*
X22167000Y-25584999D01*
G75*
G02*
X22416999Y-25335000I249999J0D01*
G01*
X23067001Y-25335000D01*
G75*
G02*
X23317000Y-25584999I0J-249999D01*
G01*
X23317000Y-26485001D01*
G75*
G02*
X23067001Y-26735000I-249999J0D01*
G01*
X22416999Y-26735000D01*
G75*
G02*
X22167000Y-26485001I0J249999D01*
G01*
G37*
M02*
