G04 #@! TF.GenerationSoftware,KiCad,Pcbnew,(5.1.10)-1*
G04 #@! TF.CreationDate,2021-09-13T18:31:10+02:00*
G04 #@! TF.ProjectId,CardSizeMidiController,43617264-5369-47a6-954d-696469436f6e,rev?*
G04 #@! TF.SameCoordinates,Original*
G04 #@! TF.FileFunction,Legend,Bot*
G04 #@! TF.FilePolarity,Positive*
%FSLAX46Y46*%
G04 Gerber Fmt 4.6, Leading zero omitted, Abs format (unit mm)*
G04 Created by KiCad (PCBNEW (5.1.10)-1) date 2021-09-13 18:31:10*
%MOMM*%
%LPD*%
G01*
G04 APERTURE LIST*
%ADD10C,0.150000*%
%ADD11C,0.177800*%
%ADD12C,0.228600*%
%ADD13C,0.120000*%
G04 APERTURE END LIST*
D10*
G36*
X85700000Y-16010000D02*
G01*
X0Y-16000000D01*
X0Y-3600000D01*
X85700000Y-3600000D01*
X85700000Y-16010000D01*
G37*
X85700000Y-16010000D02*
X0Y-16000000D01*
X0Y-3600000D01*
X85700000Y-3600000D01*
X85700000Y-16010000D01*
D11*
X5677333Y-29755500D02*
X5762000Y-29713166D01*
X5889000Y-29713166D01*
X6016000Y-29755500D01*
X6100666Y-29840166D01*
X6143000Y-29924833D01*
X6185333Y-30094166D01*
X6185333Y-30221166D01*
X6143000Y-30390500D01*
X6100666Y-30475166D01*
X6016000Y-30559833D01*
X5889000Y-30602166D01*
X5804333Y-30602166D01*
X5677333Y-30559833D01*
X5635000Y-30517500D01*
X5635000Y-30221166D01*
X5804333Y-30221166D01*
X5254000Y-30602166D02*
X5254000Y-29713166D01*
X4746000Y-30602166D01*
X4746000Y-29713166D01*
X4322666Y-30602166D02*
X4322666Y-29713166D01*
X4111000Y-29713166D01*
X3984000Y-29755500D01*
X3899333Y-29840166D01*
X3857000Y-29924833D01*
X3814666Y-30094166D01*
X3814666Y-30221166D01*
X3857000Y-30390500D01*
X3899333Y-30475166D01*
X3984000Y-30559833D01*
X4111000Y-30602166D01*
X4322666Y-30602166D01*
X6185333Y-27113166D02*
X5889000Y-28002166D01*
X5592666Y-27113166D01*
X4788333Y-27917500D02*
X4830666Y-27959833D01*
X4957666Y-28002166D01*
X5042333Y-28002166D01*
X5169333Y-27959833D01*
X5254000Y-27875166D01*
X5296333Y-27790500D01*
X5338666Y-27621166D01*
X5338666Y-27494166D01*
X5296333Y-27324833D01*
X5254000Y-27240166D01*
X5169333Y-27155500D01*
X5042333Y-27113166D01*
X4957666Y-27113166D01*
X4830666Y-27155500D01*
X4788333Y-27197833D01*
X3899333Y-27917500D02*
X3941666Y-27959833D01*
X4068666Y-28002166D01*
X4153333Y-28002166D01*
X4280333Y-27959833D01*
X4365000Y-27875166D01*
X4407333Y-27790500D01*
X4449666Y-27621166D01*
X4449666Y-27494166D01*
X4407333Y-27324833D01*
X4365000Y-27240166D01*
X4280333Y-27155500D01*
X4153333Y-27113166D01*
X4068666Y-27113166D01*
X3941666Y-27155500D01*
X3899333Y-27197833D01*
X6797000Y-25402166D02*
X6797000Y-24513166D01*
X6500666Y-25148166D01*
X6204333Y-24513166D01*
X6204333Y-25402166D01*
X5781000Y-25402166D02*
X5781000Y-24513166D01*
X5400000Y-25359833D02*
X5273000Y-25402166D01*
X5061333Y-25402166D01*
X4976666Y-25359833D01*
X4934333Y-25317500D01*
X4892000Y-25232833D01*
X4892000Y-25148166D01*
X4934333Y-25063500D01*
X4976666Y-25021166D01*
X5061333Y-24978833D01*
X5230666Y-24936500D01*
X5315333Y-24894166D01*
X5357666Y-24851833D01*
X5400000Y-24767166D01*
X5400000Y-24682500D01*
X5357666Y-24597833D01*
X5315333Y-24555500D01*
X5230666Y-24513166D01*
X5019000Y-24513166D01*
X4892000Y-24555500D01*
X4341666Y-24513166D02*
X4172333Y-24513166D01*
X4087666Y-24555500D01*
X4003000Y-24640166D01*
X3960666Y-24809500D01*
X3960666Y-25105833D01*
X4003000Y-25275166D01*
X4087666Y-25359833D01*
X4172333Y-25402166D01*
X4341666Y-25402166D01*
X4426333Y-25359833D01*
X4511000Y-25275166D01*
X4553333Y-25105833D01*
X4553333Y-24809500D01*
X4511000Y-24640166D01*
X4426333Y-24555500D01*
X4341666Y-24513166D01*
X6797000Y-22802166D02*
X6797000Y-21913166D01*
X6500666Y-22548166D01*
X6204333Y-21913166D01*
X6204333Y-22802166D01*
X5611666Y-21913166D02*
X5442333Y-21913166D01*
X5357666Y-21955500D01*
X5273000Y-22040166D01*
X5230666Y-22209500D01*
X5230666Y-22505833D01*
X5273000Y-22675166D01*
X5357666Y-22759833D01*
X5442333Y-22802166D01*
X5611666Y-22802166D01*
X5696333Y-22759833D01*
X5781000Y-22675166D01*
X5823333Y-22505833D01*
X5823333Y-22209500D01*
X5781000Y-22040166D01*
X5696333Y-21955500D01*
X5611666Y-21913166D01*
X4892000Y-22759833D02*
X4765000Y-22802166D01*
X4553333Y-22802166D01*
X4468666Y-22759833D01*
X4426333Y-22717500D01*
X4384000Y-22632833D01*
X4384000Y-22548166D01*
X4426333Y-22463500D01*
X4468666Y-22421166D01*
X4553333Y-22378833D01*
X4722666Y-22336500D01*
X4807333Y-22294166D01*
X4849666Y-22251833D01*
X4892000Y-22167166D01*
X4892000Y-22082500D01*
X4849666Y-21997833D01*
X4807333Y-21955500D01*
X4722666Y-21913166D01*
X4511000Y-21913166D01*
X4384000Y-21955500D01*
X4003000Y-22802166D02*
X4003000Y-21913166D01*
X6343000Y-20359833D02*
X6216000Y-20402166D01*
X6004333Y-20402166D01*
X5919666Y-20359833D01*
X5877333Y-20317500D01*
X5835000Y-20232833D01*
X5835000Y-20148166D01*
X5877333Y-20063500D01*
X5919666Y-20021166D01*
X6004333Y-19978833D01*
X6173666Y-19936500D01*
X6258333Y-19894166D01*
X6300666Y-19851833D01*
X6343000Y-19767166D01*
X6343000Y-19682500D01*
X6300666Y-19597833D01*
X6258333Y-19555500D01*
X6173666Y-19513166D01*
X5962000Y-19513166D01*
X5835000Y-19555500D01*
X4946000Y-20317500D02*
X4988333Y-20359833D01*
X5115333Y-20402166D01*
X5200000Y-20402166D01*
X5327000Y-20359833D01*
X5411666Y-20275166D01*
X5454000Y-20190500D01*
X5496333Y-20021166D01*
X5496333Y-19894166D01*
X5454000Y-19724833D01*
X5411666Y-19640166D01*
X5327000Y-19555500D01*
X5200000Y-19513166D01*
X5115333Y-19513166D01*
X4988333Y-19555500D01*
X4946000Y-19597833D01*
X4565000Y-20402166D02*
X4565000Y-19513166D01*
X4057000Y-20402166D02*
X4438000Y-19894166D01*
X4057000Y-19513166D02*
X4565000Y-20021166D01*
X5686833Y-17802166D02*
X5983166Y-17378833D01*
X6194833Y-17802166D02*
X6194833Y-16913166D01*
X5856166Y-16913166D01*
X5771500Y-16955500D01*
X5729166Y-16997833D01*
X5686833Y-17082500D01*
X5686833Y-17209500D01*
X5729166Y-17294166D01*
X5771500Y-17336500D01*
X5856166Y-17378833D01*
X6194833Y-17378833D01*
X5348166Y-17759833D02*
X5221166Y-17802166D01*
X5009500Y-17802166D01*
X4924833Y-17759833D01*
X4882500Y-17717500D01*
X4840166Y-17632833D01*
X4840166Y-17548166D01*
X4882500Y-17463500D01*
X4924833Y-17421166D01*
X5009500Y-17378833D01*
X5178833Y-17336500D01*
X5263500Y-17294166D01*
X5305833Y-17251833D01*
X5348166Y-17167166D01*
X5348166Y-17082500D01*
X5305833Y-16997833D01*
X5263500Y-16955500D01*
X5178833Y-16913166D01*
X4967166Y-16913166D01*
X4840166Y-16955500D01*
X4586166Y-16913166D02*
X4078166Y-16913166D01*
X4332166Y-17802166D02*
X4332166Y-16913166D01*
D10*
X68100000Y-30000000D02*
X68100000Y-22000000D01*
D11*
X39513001Y-23298357D02*
X38770144Y-23298357D01*
X39170144Y-23755500D01*
X38998715Y-23755500D01*
X38884430Y-23812642D01*
X38827287Y-23869785D01*
X38770144Y-23984071D01*
X38770144Y-24269785D01*
X38827287Y-24384071D01*
X38884430Y-24441214D01*
X38998715Y-24498357D01*
X39341572Y-24498357D01*
X39455858Y-24441214D01*
X39513001Y-24384071D01*
X37627287Y-24498357D02*
X38313001Y-24498357D01*
X37970144Y-24498357D02*
X37970144Y-23298357D01*
X38084430Y-23469785D01*
X38198715Y-23584071D01*
X38313001Y-23641214D01*
X43813001Y-23298357D02*
X43070144Y-23298357D01*
X43470144Y-23755500D01*
X43298715Y-23755500D01*
X43184430Y-23812642D01*
X43127287Y-23869785D01*
X43070144Y-23984071D01*
X43070144Y-24269785D01*
X43127287Y-24384071D01*
X43184430Y-24441214D01*
X43298715Y-24498357D01*
X43641572Y-24498357D01*
X43755858Y-24441214D01*
X43813001Y-24384071D01*
X42327287Y-23298357D02*
X42213001Y-23298357D01*
X42098715Y-23355500D01*
X42041572Y-23412642D01*
X41984430Y-23526928D01*
X41927287Y-23755500D01*
X41927287Y-24041214D01*
X41984430Y-24269785D01*
X42041572Y-24384071D01*
X42098715Y-24441214D01*
X42213001Y-24498357D01*
X42327287Y-24498357D01*
X42441572Y-24441214D01*
X42498715Y-24384071D01*
X42555858Y-24269785D01*
X42613001Y-24041214D01*
X42613001Y-23755500D01*
X42555858Y-23526928D01*
X42498715Y-23412642D01*
X42441572Y-23355500D01*
X42327287Y-23298357D01*
X48055858Y-23412642D02*
X47998715Y-23355500D01*
X47884430Y-23298357D01*
X47598715Y-23298357D01*
X47484430Y-23355500D01*
X47427287Y-23412642D01*
X47370144Y-23526928D01*
X47370144Y-23641214D01*
X47427287Y-23812642D01*
X48113001Y-24498357D01*
X47370144Y-24498357D01*
X46798715Y-24498357D02*
X46570144Y-24498357D01*
X46455858Y-24441214D01*
X46398715Y-24384071D01*
X46284430Y-24212642D01*
X46227287Y-23984071D01*
X46227287Y-23526928D01*
X46284430Y-23412642D01*
X46341572Y-23355500D01*
X46455858Y-23298357D01*
X46684430Y-23298357D01*
X46798715Y-23355500D01*
X46855858Y-23412642D01*
X46913001Y-23526928D01*
X46913001Y-23812642D01*
X46855858Y-23926928D01*
X46798715Y-23984071D01*
X46684430Y-24041214D01*
X46455858Y-24041214D01*
X46341572Y-23984071D01*
X46284430Y-23926928D01*
X46227287Y-23812642D01*
X52455858Y-23412642D02*
X52398715Y-23355500D01*
X52284430Y-23298357D01*
X51998715Y-23298357D01*
X51884430Y-23355500D01*
X51827287Y-23412642D01*
X51770144Y-23526928D01*
X51770144Y-23641214D01*
X51827287Y-23812642D01*
X52513001Y-24498357D01*
X51770144Y-24498357D01*
X51084430Y-23812642D02*
X51198715Y-23755500D01*
X51255858Y-23698357D01*
X51313001Y-23584071D01*
X51313001Y-23526928D01*
X51255858Y-23412642D01*
X51198715Y-23355500D01*
X51084430Y-23298357D01*
X50855858Y-23298357D01*
X50741572Y-23355500D01*
X50684430Y-23412642D01*
X50627287Y-23526928D01*
X50627287Y-23584071D01*
X50684430Y-23698357D01*
X50741572Y-23755500D01*
X50855858Y-23812642D01*
X51084430Y-23812642D01*
X51198715Y-23869785D01*
X51255858Y-23926928D01*
X51313001Y-24041214D01*
X51313001Y-24269785D01*
X51255858Y-24384071D01*
X51198715Y-24441214D01*
X51084430Y-24498357D01*
X50855858Y-24498357D01*
X50741572Y-24441214D01*
X50684430Y-24384071D01*
X50627287Y-24269785D01*
X50627287Y-24041214D01*
X50684430Y-23926928D01*
X50741572Y-23869785D01*
X50855858Y-23812642D01*
X56755858Y-23412642D02*
X56698715Y-23355500D01*
X56584430Y-23298357D01*
X56298715Y-23298357D01*
X56184430Y-23355500D01*
X56127287Y-23412642D01*
X56070144Y-23526928D01*
X56070144Y-23641214D01*
X56127287Y-23812642D01*
X56813001Y-24498357D01*
X56070144Y-24498357D01*
X55670144Y-23298357D02*
X54870144Y-23298357D01*
X55384430Y-24498357D01*
X71098715Y-23365057D02*
X70298715Y-23365057D01*
X70813001Y-24565057D01*
X71270144Y-26542857D02*
X71955858Y-26542857D01*
X71613001Y-26542857D02*
X71613001Y-25342857D01*
X71727287Y-25514285D01*
X71841572Y-25628571D01*
X71955858Y-25685714D01*
X70527287Y-25342857D02*
X70413001Y-25342857D01*
X70298715Y-25400000D01*
X70241572Y-25457142D01*
X70184430Y-25571428D01*
X70127287Y-25800000D01*
X70127287Y-26085714D01*
X70184430Y-26314285D01*
X70241572Y-26428571D01*
X70298715Y-26485714D01*
X70413001Y-26542857D01*
X70527287Y-26542857D01*
X70641572Y-26485714D01*
X70698715Y-26428571D01*
X70755858Y-26314285D01*
X70813001Y-26085714D01*
X70813001Y-25800000D01*
X70755858Y-25571428D01*
X70698715Y-25457142D01*
X70641572Y-25400000D01*
X70527287Y-25342857D01*
X70355858Y-28520657D02*
X71041572Y-28520657D01*
X70698715Y-28520657D02*
X70698715Y-27320657D01*
X70813001Y-27492085D01*
X70927287Y-27606371D01*
X71041572Y-27663514D01*
X64913001Y-24425661D02*
X64970144Y-24482804D01*
X65141572Y-24539947D01*
X65255858Y-24539947D01*
X65427287Y-24482804D01*
X65541572Y-24368518D01*
X65598715Y-24254232D01*
X65655858Y-24025661D01*
X65655858Y-23854232D01*
X65598715Y-23625661D01*
X65541572Y-23511375D01*
X65427287Y-23397090D01*
X65255858Y-23339947D01*
X65141572Y-23339947D01*
X64970144Y-23397090D01*
X64913001Y-23454232D01*
X63713001Y-24425661D02*
X63770144Y-24482804D01*
X63941572Y-24539947D01*
X64055858Y-24539947D01*
X64227287Y-24482804D01*
X64341572Y-24368518D01*
X64398715Y-24254232D01*
X64455858Y-24025661D01*
X64455858Y-23854232D01*
X64398715Y-23625661D01*
X64341572Y-23511375D01*
X64227287Y-23397090D01*
X64055858Y-23339947D01*
X63941572Y-23339947D01*
X63770144Y-23397090D01*
X63713001Y-23454232D01*
X62570144Y-24539947D02*
X63255858Y-24539947D01*
X62913001Y-24539947D02*
X62913001Y-23339947D01*
X63027287Y-23511375D01*
X63141572Y-23625661D01*
X63255858Y-23682804D01*
X61198715Y-23454232D02*
X61141572Y-23397090D01*
X61027287Y-23339947D01*
X60741572Y-23339947D01*
X60627287Y-23397090D01*
X60570144Y-23454232D01*
X60513001Y-23568518D01*
X60513001Y-23682804D01*
X60570144Y-23854232D01*
X61255858Y-24539947D01*
X60513001Y-24539947D01*
X59484430Y-23339947D02*
X59713001Y-23339947D01*
X59827287Y-23397090D01*
X59884430Y-23454232D01*
X59998715Y-23625661D01*
X60055858Y-23854232D01*
X60055858Y-24311375D01*
X59998715Y-24425661D01*
X59941572Y-24482804D01*
X59827287Y-24539947D01*
X59598715Y-24539947D01*
X59484430Y-24482804D01*
X59427287Y-24425661D01*
X59370144Y-24311375D01*
X59370144Y-24025661D01*
X59427287Y-23911375D01*
X59484430Y-23854232D01*
X59598715Y-23797090D01*
X59827287Y-23797090D01*
X59941572Y-23854232D01*
X59998715Y-23911375D01*
X60055858Y-24025661D01*
X64913001Y-26403461D02*
X64970144Y-26460604D01*
X65141572Y-26517747D01*
X65255858Y-26517747D01*
X65427287Y-26460604D01*
X65541572Y-26346318D01*
X65598715Y-26232032D01*
X65655858Y-26003461D01*
X65655858Y-25832032D01*
X65598715Y-25603461D01*
X65541572Y-25489175D01*
X65427287Y-25374890D01*
X65255858Y-25317747D01*
X65141572Y-25317747D01*
X64970144Y-25374890D01*
X64913001Y-25432032D01*
X63713001Y-26403461D02*
X63770144Y-26460604D01*
X63941572Y-26517747D01*
X64055858Y-26517747D01*
X64227287Y-26460604D01*
X64341572Y-26346318D01*
X64398715Y-26232032D01*
X64455858Y-26003461D01*
X64455858Y-25832032D01*
X64398715Y-25603461D01*
X64341572Y-25489175D01*
X64227287Y-25374890D01*
X64055858Y-25317747D01*
X63941572Y-25317747D01*
X63770144Y-25374890D01*
X63713001Y-25432032D01*
X63255858Y-25432032D02*
X63198715Y-25374890D01*
X63084430Y-25317747D01*
X62798715Y-25317747D01*
X62684430Y-25374890D01*
X62627287Y-25432032D01*
X62570144Y-25546318D01*
X62570144Y-25660604D01*
X62627287Y-25832032D01*
X63313001Y-26517747D01*
X62570144Y-26517747D01*
X60513001Y-26517747D02*
X61198715Y-26517747D01*
X60855858Y-26517747D02*
X60855858Y-25317747D01*
X60970144Y-25489175D01*
X61084430Y-25603461D01*
X61198715Y-25660604D01*
X59770144Y-25317747D02*
X59655858Y-25317747D01*
X59541572Y-25374890D01*
X59484430Y-25432032D01*
X59427287Y-25546318D01*
X59370144Y-25774890D01*
X59370144Y-26060604D01*
X59427287Y-26289175D01*
X59484430Y-26403461D01*
X59541572Y-26460604D01*
X59655858Y-26517747D01*
X59770144Y-26517747D01*
X59884430Y-26460604D01*
X59941572Y-26403461D01*
X59998715Y-26289175D01*
X60055858Y-26060604D01*
X60055858Y-25774890D01*
X59998715Y-25546318D01*
X59941572Y-25432032D01*
X59884430Y-25374890D01*
X59770144Y-25317747D01*
X58913001Y-25432032D02*
X58855858Y-25374890D01*
X58741572Y-25317747D01*
X58455858Y-25317747D01*
X58341572Y-25374890D01*
X58284430Y-25432032D01*
X58227287Y-25546318D01*
X58227287Y-25660604D01*
X58284430Y-25832032D01*
X58970144Y-26517747D01*
X58227287Y-26517747D01*
X56170144Y-26517747D02*
X56855858Y-26517747D01*
X56513001Y-26517747D02*
X56513001Y-25317747D01*
X56627287Y-25489175D01*
X56741572Y-25603461D01*
X56855858Y-25660604D01*
X55427287Y-25317747D02*
X55313001Y-25317747D01*
X55198715Y-25374890D01*
X55141572Y-25432032D01*
X55084430Y-25546318D01*
X55027287Y-25774890D01*
X55027287Y-26060604D01*
X55084430Y-26289175D01*
X55141572Y-26403461D01*
X55198715Y-26460604D01*
X55313001Y-26517747D01*
X55427287Y-26517747D01*
X55541572Y-26460604D01*
X55598715Y-26403461D01*
X55655858Y-26289175D01*
X55713001Y-26060604D01*
X55713001Y-25774890D01*
X55655858Y-25546318D01*
X55598715Y-25432032D01*
X55541572Y-25374890D01*
X55427287Y-25317747D01*
X54627287Y-25317747D02*
X53884430Y-25317747D01*
X54284430Y-25774890D01*
X54113001Y-25774890D01*
X53998715Y-25832032D01*
X53941572Y-25889175D01*
X53884430Y-26003461D01*
X53884430Y-26289175D01*
X53941572Y-26403461D01*
X53998715Y-26460604D01*
X54113001Y-26517747D01*
X54455858Y-26517747D01*
X54570144Y-26460604D01*
X54627287Y-26403461D01*
X51827287Y-26517747D02*
X52513001Y-26517747D01*
X52170144Y-26517747D02*
X52170144Y-25317747D01*
X52284430Y-25489175D01*
X52398715Y-25603461D01*
X52513001Y-25660604D01*
X51084430Y-25317747D02*
X50970144Y-25317747D01*
X50855858Y-25374890D01*
X50798715Y-25432032D01*
X50741572Y-25546318D01*
X50684430Y-25774890D01*
X50684430Y-26060604D01*
X50741572Y-26289175D01*
X50798715Y-26403461D01*
X50855858Y-26460604D01*
X50970144Y-26517747D01*
X51084430Y-26517747D01*
X51198715Y-26460604D01*
X51255858Y-26403461D01*
X51313001Y-26289175D01*
X51370144Y-26060604D01*
X51370144Y-25774890D01*
X51313001Y-25546318D01*
X51255858Y-25432032D01*
X51198715Y-25374890D01*
X51084430Y-25317747D01*
X49655858Y-25717747D02*
X49655858Y-26517747D01*
X49941572Y-25260604D02*
X50227287Y-26117747D01*
X49484430Y-26117747D01*
X47484430Y-26517747D02*
X48170144Y-26517747D01*
X47827287Y-26517747D02*
X47827287Y-25317747D01*
X47941572Y-25489175D01*
X48055858Y-25603461D01*
X48170144Y-25660604D01*
X46741572Y-25317747D02*
X46627287Y-25317747D01*
X46513001Y-25374890D01*
X46455858Y-25432032D01*
X46398715Y-25546318D01*
X46341572Y-25774890D01*
X46341572Y-26060604D01*
X46398715Y-26289175D01*
X46455858Y-26403461D01*
X46513001Y-26460604D01*
X46627287Y-26517747D01*
X46741572Y-26517747D01*
X46855858Y-26460604D01*
X46913001Y-26403461D01*
X46970144Y-26289175D01*
X47027287Y-26060604D01*
X47027287Y-25774890D01*
X46970144Y-25546318D01*
X46913001Y-25432032D01*
X46855858Y-25374890D01*
X46741572Y-25317747D01*
X45255858Y-25317747D02*
X45827287Y-25317747D01*
X45884430Y-25889175D01*
X45827287Y-25832032D01*
X45713001Y-25774890D01*
X45427287Y-25774890D01*
X45313001Y-25832032D01*
X45255858Y-25889175D01*
X45198715Y-26003461D01*
X45198715Y-26289175D01*
X45255858Y-26403461D01*
X45313001Y-26460604D01*
X45427287Y-26517747D01*
X45713001Y-26517747D01*
X45827287Y-26460604D01*
X45884430Y-26403461D01*
X43141572Y-26517747D02*
X43827287Y-26517747D01*
X43484430Y-26517747D02*
X43484430Y-25317747D01*
X43598715Y-25489175D01*
X43713001Y-25603461D01*
X43827287Y-25660604D01*
X41998715Y-26517747D02*
X42684430Y-26517747D01*
X42341572Y-26517747D02*
X42341572Y-25317747D01*
X42455858Y-25489175D01*
X42570144Y-25603461D01*
X42684430Y-25660604D01*
X41541572Y-25432032D02*
X41484430Y-25374890D01*
X41370144Y-25317747D01*
X41084430Y-25317747D01*
X40970144Y-25374890D01*
X40913001Y-25432032D01*
X40855858Y-25546318D01*
X40855858Y-25660604D01*
X40913001Y-25832032D01*
X41598715Y-26517747D01*
X40855858Y-26517747D01*
X38798715Y-26517747D02*
X39484430Y-26517747D01*
X39141572Y-26517747D02*
X39141572Y-25317747D01*
X39255858Y-25489175D01*
X39370144Y-25603461D01*
X39484430Y-25660604D01*
X37655858Y-26517747D02*
X38341572Y-26517747D01*
X37998715Y-26517747D02*
X37998715Y-25317747D01*
X38113001Y-25489175D01*
X38227287Y-25603461D01*
X38341572Y-25660604D01*
X37255858Y-25317747D02*
X36513001Y-25317747D01*
X36913001Y-25774890D01*
X36741572Y-25774890D01*
X36627287Y-25832032D01*
X36570144Y-25889175D01*
X36513001Y-26003461D01*
X36513001Y-26289175D01*
X36570144Y-26403461D01*
X36627287Y-26460604D01*
X36741572Y-26517747D01*
X37084430Y-26517747D01*
X37198715Y-26460604D01*
X37255858Y-26403461D01*
X64913001Y-28381261D02*
X64970144Y-28438404D01*
X65141572Y-28495547D01*
X65255858Y-28495547D01*
X65427287Y-28438404D01*
X65541572Y-28324118D01*
X65598715Y-28209832D01*
X65655858Y-27981261D01*
X65655858Y-27809832D01*
X65598715Y-27581261D01*
X65541572Y-27466975D01*
X65427287Y-27352690D01*
X65255858Y-27295547D01*
X65141572Y-27295547D01*
X64970144Y-27352690D01*
X64913001Y-27409832D01*
X63713001Y-28381261D02*
X63770144Y-28438404D01*
X63941572Y-28495547D01*
X64055858Y-28495547D01*
X64227287Y-28438404D01*
X64341572Y-28324118D01*
X64398715Y-28209832D01*
X64455858Y-27981261D01*
X64455858Y-27809832D01*
X64398715Y-27581261D01*
X64341572Y-27466975D01*
X64227287Y-27352690D01*
X64055858Y-27295547D01*
X63941572Y-27295547D01*
X63770144Y-27352690D01*
X63713001Y-27409832D01*
X63313001Y-27295547D02*
X62570144Y-27295547D01*
X62970144Y-27752690D01*
X62798715Y-27752690D01*
X62684430Y-27809832D01*
X62627287Y-27866975D01*
X62570144Y-27981261D01*
X62570144Y-28266975D01*
X62627287Y-28381261D01*
X62684430Y-28438404D01*
X62798715Y-28495547D01*
X63141572Y-28495547D01*
X63255858Y-28438404D01*
X63313001Y-28381261D01*
X60513001Y-28495547D02*
X61198715Y-28495547D01*
X60855858Y-28495547D02*
X60855858Y-27295547D01*
X60970144Y-27466975D01*
X61084430Y-27581261D01*
X61198715Y-27638404D01*
X59370144Y-28495547D02*
X60055858Y-28495547D01*
X59713001Y-28495547D02*
X59713001Y-27295547D01*
X59827287Y-27466975D01*
X59941572Y-27581261D01*
X60055858Y-27638404D01*
X58341572Y-27695547D02*
X58341572Y-28495547D01*
X58627287Y-27238404D02*
X58913001Y-28095547D01*
X58170144Y-28095547D01*
X56170144Y-28495547D02*
X56855858Y-28495547D01*
X56513001Y-28495547D02*
X56513001Y-27295547D01*
X56627287Y-27466975D01*
X56741572Y-27581261D01*
X56855858Y-27638404D01*
X55027287Y-28495547D02*
X55713001Y-28495547D01*
X55370144Y-28495547D02*
X55370144Y-27295547D01*
X55484430Y-27466975D01*
X55598715Y-27581261D01*
X55713001Y-27638404D01*
X53941572Y-27295547D02*
X54513001Y-27295547D01*
X54570144Y-27866975D01*
X54513001Y-27809832D01*
X54398715Y-27752690D01*
X54113001Y-27752690D01*
X53998715Y-27809832D01*
X53941572Y-27866975D01*
X53884430Y-27981261D01*
X53884430Y-28266975D01*
X53941572Y-28381261D01*
X53998715Y-28438404D01*
X54113001Y-28495547D01*
X54398715Y-28495547D01*
X54513001Y-28438404D01*
X54570144Y-28381261D01*
X51827287Y-28495547D02*
X52513001Y-28495547D01*
X52170144Y-28495547D02*
X52170144Y-27295547D01*
X52284430Y-27466975D01*
X52398715Y-27581261D01*
X52513001Y-27638404D01*
X50684430Y-28495547D02*
X51370144Y-28495547D01*
X51027287Y-28495547D02*
X51027287Y-27295547D01*
X51141572Y-27466975D01*
X51255858Y-27581261D01*
X51370144Y-27638404D01*
X49655858Y-27295547D02*
X49884430Y-27295547D01*
X49998715Y-27352690D01*
X50055858Y-27409832D01*
X50170144Y-27581261D01*
X50227287Y-27809832D01*
X50227287Y-28266975D01*
X50170144Y-28381261D01*
X50113001Y-28438404D01*
X49998715Y-28495547D01*
X49770144Y-28495547D01*
X49655858Y-28438404D01*
X49598715Y-28381261D01*
X49541572Y-28266975D01*
X49541572Y-27981261D01*
X49598715Y-27866975D01*
X49655858Y-27809832D01*
X49770144Y-27752690D01*
X49998715Y-27752690D01*
X50113001Y-27809832D01*
X50170144Y-27866975D01*
X50227287Y-27981261D01*
X47484430Y-28495547D02*
X48170144Y-28495547D01*
X47827287Y-28495547D02*
X47827287Y-27295547D01*
X47941572Y-27466975D01*
X48055858Y-27581261D01*
X48170144Y-27638404D01*
X46341572Y-28495547D02*
X47027287Y-28495547D01*
X46684430Y-28495547D02*
X46684430Y-27295547D01*
X46798715Y-27466975D01*
X46913001Y-27581261D01*
X47027287Y-27638404D01*
X45941572Y-27295547D02*
X45141572Y-27295547D01*
X45655858Y-28495547D01*
X43141572Y-28495547D02*
X43827287Y-28495547D01*
X43484430Y-28495547D02*
X43484430Y-27295547D01*
X43598715Y-27466975D01*
X43713001Y-27581261D01*
X43827287Y-27638404D01*
X41998715Y-28495547D02*
X42684430Y-28495547D01*
X42341572Y-28495547D02*
X42341572Y-27295547D01*
X42455858Y-27466975D01*
X42570144Y-27581261D01*
X42684430Y-27638404D01*
X41313001Y-27809832D02*
X41427287Y-27752690D01*
X41484430Y-27695547D01*
X41541572Y-27581261D01*
X41541572Y-27524118D01*
X41484430Y-27409832D01*
X41427287Y-27352690D01*
X41313001Y-27295547D01*
X41084430Y-27295547D01*
X40970144Y-27352690D01*
X40913001Y-27409832D01*
X40855858Y-27524118D01*
X40855858Y-27581261D01*
X40913001Y-27695547D01*
X40970144Y-27752690D01*
X41084430Y-27809832D01*
X41313001Y-27809832D01*
X41427287Y-27866975D01*
X41484430Y-27924118D01*
X41541572Y-28038404D01*
X41541572Y-28266975D01*
X41484430Y-28381261D01*
X41427287Y-28438404D01*
X41313001Y-28495547D01*
X41084430Y-28495547D01*
X40970144Y-28438404D01*
X40913001Y-28381261D01*
X40855858Y-28266975D01*
X40855858Y-28038404D01*
X40913001Y-27924118D01*
X40970144Y-27866975D01*
X41084430Y-27809832D01*
X38798715Y-28495547D02*
X39484430Y-28495547D01*
X39141572Y-28495547D02*
X39141572Y-27295547D01*
X39255858Y-27466975D01*
X39370144Y-27581261D01*
X39484430Y-27638404D01*
X37655858Y-28495547D02*
X38341572Y-28495547D01*
X37998715Y-28495547D02*
X37998715Y-27295547D01*
X38113001Y-27466975D01*
X38227287Y-27581261D01*
X38341572Y-27638404D01*
X37084430Y-28495547D02*
X36855858Y-28495547D01*
X36741572Y-28438404D01*
X36684430Y-28381261D01*
X36570144Y-28209832D01*
X36513001Y-27981261D01*
X36513001Y-27524118D01*
X36570144Y-27409832D01*
X36627287Y-27352690D01*
X36741572Y-27295547D01*
X36970144Y-27295547D01*
X37084430Y-27352690D01*
X37141572Y-27409832D01*
X37198715Y-27524118D01*
X37198715Y-27809832D01*
X37141572Y-27924118D01*
X37084430Y-27981261D01*
X36970144Y-28038404D01*
X36741572Y-28038404D01*
X36627287Y-27981261D01*
X36570144Y-27924118D01*
X36513001Y-27809832D01*
X76627287Y-24565057D02*
X77198715Y-24565057D01*
X77198715Y-23365057D01*
X76227287Y-23936485D02*
X75827287Y-23936485D01*
X75655858Y-24565057D02*
X76227287Y-24565057D01*
X76227287Y-23365057D01*
X75655858Y-23365057D01*
X75313001Y-23365057D02*
X74913001Y-24565057D01*
X74513001Y-23365057D01*
X74113001Y-23936485D02*
X73713001Y-23936485D01*
X73541572Y-24565057D02*
X74113001Y-24565057D01*
X74113001Y-23365057D01*
X73541572Y-23365057D01*
X72455858Y-24565057D02*
X73027287Y-24565057D01*
X73027287Y-23365057D01*
X77198715Y-26542857D02*
X77198715Y-25342857D01*
X76741572Y-25342857D01*
X76627287Y-25400000D01*
X76570144Y-25457142D01*
X76513001Y-25571428D01*
X76513001Y-25742857D01*
X76570144Y-25857142D01*
X76627287Y-25914285D01*
X76741572Y-25971428D01*
X77198715Y-25971428D01*
X76055858Y-26200000D02*
X75484430Y-26200000D01*
X76170144Y-26542857D02*
X75770144Y-25342857D01*
X75370144Y-26542857D01*
X74970144Y-26542857D02*
X74970144Y-25342857D01*
X74284430Y-26542857D01*
X74284430Y-25342857D01*
X77198715Y-28520657D02*
X77198715Y-27320657D01*
X76798715Y-28177800D01*
X76398715Y-27320657D01*
X76398715Y-28520657D01*
X75598715Y-27320657D02*
X75370144Y-27320657D01*
X75255858Y-27377800D01*
X75141572Y-27492085D01*
X75084430Y-27720657D01*
X75084430Y-28120657D01*
X75141572Y-28349228D01*
X75255858Y-28463514D01*
X75370144Y-28520657D01*
X75598715Y-28520657D01*
X75713001Y-28463514D01*
X75827287Y-28349228D01*
X75884430Y-28120657D01*
X75884430Y-27720657D01*
X75827287Y-27492085D01*
X75713001Y-27377800D01*
X75598715Y-27320657D01*
X74570144Y-28520657D02*
X74570144Y-27320657D01*
X74284430Y-27320657D01*
X74113001Y-27377800D01*
X73998715Y-27492085D01*
X73941572Y-27606371D01*
X73884430Y-27834942D01*
X73884430Y-28006371D01*
X73941572Y-28234942D01*
X73998715Y-28349228D01*
X74113001Y-28463514D01*
X74284430Y-28520657D01*
X74570144Y-28520657D01*
D12*
X33500000Y-22000000D02*
X79000000Y-22000000D01*
X79000000Y-22000000D02*
X79000000Y-30000000D01*
X33500000Y-30000000D02*
X33500000Y-22000000D01*
X79000000Y-30000000D02*
X33500000Y-30000000D01*
D11*
X78710666Y-21402166D02*
X78710666Y-20513166D01*
X78414333Y-21148166D01*
X78118000Y-20513166D01*
X78118000Y-21402166D01*
X77694666Y-21402166D02*
X77694666Y-20513166D01*
X77271333Y-21402166D02*
X77271333Y-20513166D01*
X77059666Y-20513166D01*
X76932666Y-20555500D01*
X76848000Y-20640166D01*
X76805666Y-20724833D01*
X76763333Y-20894166D01*
X76763333Y-21021166D01*
X76805666Y-21190500D01*
X76848000Y-21275166D01*
X76932666Y-21359833D01*
X77059666Y-21402166D01*
X77271333Y-21402166D01*
X76382333Y-21402166D02*
X76382333Y-20513166D01*
X74773666Y-21317500D02*
X74816000Y-21359833D01*
X74943000Y-21402166D01*
X75027666Y-21402166D01*
X75154666Y-21359833D01*
X75239333Y-21275166D01*
X75281666Y-21190500D01*
X75324000Y-21021166D01*
X75324000Y-20894166D01*
X75281666Y-20724833D01*
X75239333Y-20640166D01*
X75154666Y-20555500D01*
X75027666Y-20513166D01*
X74943000Y-20513166D01*
X74816000Y-20555500D01*
X74773666Y-20597833D01*
X73884666Y-21317500D02*
X73927000Y-21359833D01*
X74054000Y-21402166D01*
X74138666Y-21402166D01*
X74265666Y-21359833D01*
X74350333Y-21275166D01*
X74392666Y-21190500D01*
X74435000Y-21021166D01*
X74435000Y-20894166D01*
X74392666Y-20724833D01*
X74350333Y-20640166D01*
X74265666Y-20555500D01*
X74138666Y-20513166D01*
X74054000Y-20513166D01*
X73927000Y-20555500D01*
X73884666Y-20597833D01*
X72318333Y-21317500D02*
X72360666Y-21359833D01*
X72487666Y-21402166D01*
X72572333Y-21402166D01*
X72699333Y-21359833D01*
X72784000Y-21275166D01*
X72826333Y-21190500D01*
X72868666Y-21021166D01*
X72868666Y-20894166D01*
X72826333Y-20724833D01*
X72784000Y-20640166D01*
X72699333Y-20555500D01*
X72572333Y-20513166D01*
X72487666Y-20513166D01*
X72360666Y-20555500D01*
X72318333Y-20597833D01*
X71768000Y-20513166D02*
X71598666Y-20513166D01*
X71514000Y-20555500D01*
X71429333Y-20640166D01*
X71387000Y-20809500D01*
X71387000Y-21105833D01*
X71429333Y-21275166D01*
X71514000Y-21359833D01*
X71598666Y-21402166D01*
X71768000Y-21402166D01*
X71852666Y-21359833D01*
X71937333Y-21275166D01*
X71979666Y-21105833D01*
X71979666Y-20809500D01*
X71937333Y-20640166D01*
X71852666Y-20555500D01*
X71768000Y-20513166D01*
X71006000Y-21402166D02*
X71006000Y-20513166D01*
X70794333Y-20513166D01*
X70667333Y-20555500D01*
X70582666Y-20640166D01*
X70540333Y-20724833D01*
X70498000Y-20894166D01*
X70498000Y-21021166D01*
X70540333Y-21190500D01*
X70582666Y-21275166D01*
X70667333Y-21359833D01*
X70794333Y-21402166D01*
X71006000Y-21402166D01*
X70117000Y-20936500D02*
X69820666Y-20936500D01*
X69693666Y-21402166D02*
X70117000Y-21402166D01*
X70117000Y-20513166D01*
X69693666Y-20513166D01*
X69355000Y-21359833D02*
X69228000Y-21402166D01*
X69016333Y-21402166D01*
X68931666Y-21359833D01*
X68889333Y-21317500D01*
X68847000Y-21232833D01*
X68847000Y-21148166D01*
X68889333Y-21063500D01*
X68931666Y-21021166D01*
X69016333Y-20978833D01*
X69185666Y-20936500D01*
X69270333Y-20894166D01*
X69312666Y-20851833D01*
X69355000Y-20767166D01*
X69355000Y-20682500D01*
X69312666Y-20597833D01*
X69270333Y-20555500D01*
X69185666Y-20513166D01*
X68974000Y-20513166D01*
X68847000Y-20555500D01*
X28956000Y-29085166D02*
X28956000Y-28196166D01*
X28575000Y-29085166D02*
X28575000Y-28619500D01*
X28617333Y-28534833D01*
X28702000Y-28492500D01*
X28829000Y-28492500D01*
X28913666Y-28534833D01*
X28956000Y-28577166D01*
X28278666Y-28492500D02*
X27940000Y-28492500D01*
X28151666Y-28196166D02*
X28151666Y-28958166D01*
X28109333Y-29042833D01*
X28024666Y-29085166D01*
X27940000Y-29085166D01*
X27770666Y-28492500D02*
X27432000Y-28492500D01*
X27643666Y-28196166D02*
X27643666Y-28958166D01*
X27601333Y-29042833D01*
X27516666Y-29085166D01*
X27432000Y-29085166D01*
X27135666Y-28492500D02*
X27135666Y-29381500D01*
X27135666Y-28534833D02*
X27051000Y-28492500D01*
X26881666Y-28492500D01*
X26797000Y-28534833D01*
X26754666Y-28577166D01*
X26712333Y-28661833D01*
X26712333Y-28915833D01*
X26754666Y-29000500D01*
X26797000Y-29042833D01*
X26881666Y-29085166D01*
X27051000Y-29085166D01*
X27135666Y-29042833D01*
X26373666Y-29042833D02*
X26289000Y-29085166D01*
X26119666Y-29085166D01*
X26035000Y-29042833D01*
X25992666Y-28958166D01*
X25992666Y-28915833D01*
X26035000Y-28831166D01*
X26119666Y-28788833D01*
X26246666Y-28788833D01*
X26331333Y-28746500D01*
X26373666Y-28661833D01*
X26373666Y-28619500D01*
X26331333Y-28534833D01*
X26246666Y-28492500D01*
X26119666Y-28492500D01*
X26035000Y-28534833D01*
X25611666Y-29000500D02*
X25569333Y-29042833D01*
X25611666Y-29085166D01*
X25654000Y-29042833D01*
X25611666Y-29000500D01*
X25611666Y-29085166D01*
X25611666Y-28534833D02*
X25569333Y-28577166D01*
X25611666Y-28619500D01*
X25654000Y-28577166D01*
X25611666Y-28534833D01*
X25611666Y-28619500D01*
X24553333Y-28153833D02*
X25315333Y-29296833D01*
X23622000Y-28153833D02*
X24384000Y-29296833D01*
X22944666Y-28492500D02*
X22944666Y-29212166D01*
X22987000Y-29296833D01*
X23029333Y-29339166D01*
X23114000Y-29381500D01*
X23241000Y-29381500D01*
X23325666Y-29339166D01*
X22944666Y-29042833D02*
X23029333Y-29085166D01*
X23198666Y-29085166D01*
X23283333Y-29042833D01*
X23325666Y-29000500D01*
X23368000Y-28915833D01*
X23368000Y-28661833D01*
X23325666Y-28577166D01*
X23283333Y-28534833D01*
X23198666Y-28492500D01*
X23029333Y-28492500D01*
X22944666Y-28534833D01*
X22521333Y-29085166D02*
X22521333Y-28492500D01*
X22521333Y-28196166D02*
X22563666Y-28238500D01*
X22521333Y-28280833D01*
X22479000Y-28238500D01*
X22521333Y-28196166D01*
X22521333Y-28280833D01*
X22225000Y-28492500D02*
X21886333Y-28492500D01*
X22098000Y-28196166D02*
X22098000Y-28958166D01*
X22055666Y-29042833D01*
X21971000Y-29085166D01*
X21886333Y-29085166D01*
X21590000Y-29085166D02*
X21590000Y-28196166D01*
X21209000Y-29085166D02*
X21209000Y-28619500D01*
X21251333Y-28534833D01*
X21336000Y-28492500D01*
X21463000Y-28492500D01*
X21547666Y-28534833D01*
X21590000Y-28577166D01*
X20404666Y-28492500D02*
X20404666Y-29085166D01*
X20785666Y-28492500D02*
X20785666Y-28958166D01*
X20743333Y-29042833D01*
X20658666Y-29085166D01*
X20531666Y-29085166D01*
X20447000Y-29042833D01*
X20404666Y-29000500D01*
X19981333Y-29085166D02*
X19981333Y-28196166D01*
X19981333Y-28534833D02*
X19896666Y-28492500D01*
X19727333Y-28492500D01*
X19642666Y-28534833D01*
X19600333Y-28577166D01*
X19558000Y-28661833D01*
X19558000Y-28915833D01*
X19600333Y-29000500D01*
X19642666Y-29042833D01*
X19727333Y-29085166D01*
X19896666Y-29085166D01*
X19981333Y-29042833D01*
X19177000Y-29000500D02*
X19134666Y-29042833D01*
X19177000Y-29085166D01*
X19219333Y-29042833D01*
X19177000Y-29000500D01*
X19177000Y-29085166D01*
X18372666Y-29042833D02*
X18457333Y-29085166D01*
X18626666Y-29085166D01*
X18711333Y-29042833D01*
X18753666Y-29000500D01*
X18795999Y-28915833D01*
X18795999Y-28661833D01*
X18753666Y-28577166D01*
X18711333Y-28534833D01*
X18626666Y-28492500D01*
X18457333Y-28492500D01*
X18372666Y-28534833D01*
X17864666Y-29085166D02*
X17949333Y-29042833D01*
X17991666Y-29000500D01*
X18033999Y-28915833D01*
X18033999Y-28661833D01*
X17991666Y-28577166D01*
X17949333Y-28534833D01*
X17864666Y-28492500D01*
X17737666Y-28492500D01*
X17652999Y-28534833D01*
X17610666Y-28577166D01*
X17568333Y-28661833D01*
X17568333Y-28915833D01*
X17610666Y-29000500D01*
X17652999Y-29042833D01*
X17737666Y-29085166D01*
X17864666Y-29085166D01*
X17187333Y-29085166D02*
X17187333Y-28492500D01*
X17187333Y-28577166D02*
X17144999Y-28534833D01*
X17060333Y-28492500D01*
X16933333Y-28492500D01*
X16848666Y-28534833D01*
X16806333Y-28619500D01*
X16806333Y-29085166D01*
X16806333Y-28619500D02*
X16763999Y-28534833D01*
X16679333Y-28492500D01*
X16552333Y-28492500D01*
X16467666Y-28534833D01*
X16425333Y-28619500D01*
X16425333Y-29085166D01*
X15366999Y-28153833D02*
X16128999Y-29296833D01*
X15112999Y-29042833D02*
X15028333Y-29085166D01*
X14858999Y-29085166D01*
X14774333Y-29042833D01*
X14731999Y-28958166D01*
X14731999Y-28915833D01*
X14774333Y-28831166D01*
X14858999Y-28788833D01*
X14985999Y-28788833D01*
X15070666Y-28746500D01*
X15112999Y-28661833D01*
X15112999Y-28619500D01*
X15070666Y-28534833D01*
X14985999Y-28492500D01*
X14858999Y-28492500D01*
X14774333Y-28534833D01*
X14012333Y-29042833D02*
X14096999Y-29085166D01*
X14266333Y-29085166D01*
X14350999Y-29042833D01*
X14393333Y-28958166D01*
X14393333Y-28619500D01*
X14350999Y-28534833D01*
X14266333Y-28492500D01*
X14096999Y-28492500D01*
X14012333Y-28534833D01*
X13969999Y-28619500D01*
X13969999Y-28704166D01*
X14393333Y-28788833D01*
X13588999Y-28492500D02*
X13588999Y-29085166D01*
X13588999Y-28577166D02*
X13546666Y-28534833D01*
X13461999Y-28492500D01*
X13334999Y-28492500D01*
X13250333Y-28534833D01*
X13207999Y-28619500D01*
X13207999Y-29085166D01*
X12826999Y-29042833D02*
X12742333Y-29085166D01*
X12572999Y-29085166D01*
X12488333Y-29042833D01*
X12445999Y-28958166D01*
X12445999Y-28915833D01*
X12488333Y-28831166D01*
X12572999Y-28788833D01*
X12699999Y-28788833D01*
X12784666Y-28746500D01*
X12826999Y-28661833D01*
X12826999Y-28619500D01*
X12784666Y-28534833D01*
X12699999Y-28492500D01*
X12572999Y-28492500D01*
X12488333Y-28534833D01*
X11683999Y-29085166D02*
X11683999Y-28619500D01*
X11726333Y-28534833D01*
X11810999Y-28492500D01*
X11980333Y-28492500D01*
X12064999Y-28534833D01*
X11683999Y-29042833D02*
X11768666Y-29085166D01*
X11980333Y-29085166D01*
X12064999Y-29042833D01*
X12107333Y-28958166D01*
X12107333Y-28873500D01*
X12064999Y-28788833D01*
X11980333Y-28746500D01*
X11768666Y-28746500D01*
X11683999Y-28704166D01*
X11260666Y-29085166D02*
X11260666Y-28492500D01*
X11260666Y-28196166D02*
X11302999Y-28238500D01*
X11260666Y-28280833D01*
X11218333Y-28238500D01*
X11260666Y-28196166D01*
X11260666Y-28280833D01*
X10921999Y-28196166D02*
X10329333Y-28196166D01*
X10710333Y-29085166D01*
X29083000Y-22713166D02*
X28786667Y-23602166D01*
X28490333Y-22713166D01*
X27855333Y-23559833D02*
X27940000Y-23602166D01*
X28109333Y-23602166D01*
X28194000Y-23559833D01*
X28236333Y-23475166D01*
X28236333Y-23136500D01*
X28194000Y-23051833D01*
X28109333Y-23009500D01*
X27940000Y-23009500D01*
X27855333Y-23051833D01*
X27813000Y-23136500D01*
X27813000Y-23221166D01*
X28236333Y-23305833D01*
X27432000Y-23602166D02*
X27432000Y-23009500D01*
X27432000Y-23178833D02*
X27389667Y-23094166D01*
X27347333Y-23051833D01*
X27262667Y-23009500D01*
X27178000Y-23009500D01*
X26924000Y-23559833D02*
X26839333Y-23602166D01*
X26670000Y-23602166D01*
X26585333Y-23559833D01*
X26543000Y-23475166D01*
X26543000Y-23432833D01*
X26585333Y-23348166D01*
X26670000Y-23305833D01*
X26797000Y-23305833D01*
X26881667Y-23263500D01*
X26924000Y-23178833D01*
X26924000Y-23136500D01*
X26881667Y-23051833D01*
X26797000Y-23009500D01*
X26670000Y-23009500D01*
X26585333Y-23051833D01*
X26162000Y-23602166D02*
X26162000Y-23009500D01*
X26162000Y-22713166D02*
X26204333Y-22755500D01*
X26162000Y-22797833D01*
X26119667Y-22755500D01*
X26162000Y-22713166D01*
X26162000Y-22797833D01*
X25611667Y-23602166D02*
X25696333Y-23559833D01*
X25738667Y-23517500D01*
X25781000Y-23432833D01*
X25781000Y-23178833D01*
X25738667Y-23094166D01*
X25696333Y-23051833D01*
X25611667Y-23009500D01*
X25484667Y-23009500D01*
X25400000Y-23051833D01*
X25357667Y-23094166D01*
X25315333Y-23178833D01*
X25315333Y-23432833D01*
X25357667Y-23517500D01*
X25400000Y-23559833D01*
X25484667Y-23602166D01*
X25611667Y-23602166D01*
X24934333Y-23009500D02*
X24934333Y-23602166D01*
X24934333Y-23094166D02*
X24892000Y-23051833D01*
X24807333Y-23009500D01*
X24680333Y-23009500D01*
X24595667Y-23051833D01*
X24553333Y-23136500D01*
X24553333Y-23602166D01*
X23283333Y-22713166D02*
X23198667Y-22713166D01*
X23114000Y-22755500D01*
X23071667Y-22797833D01*
X23029333Y-22882500D01*
X22987000Y-23051833D01*
X22987000Y-23263500D01*
X23029333Y-23432833D01*
X23071667Y-23517500D01*
X23114000Y-23559833D01*
X23198667Y-23602166D01*
X23283333Y-23602166D01*
X23368000Y-23559833D01*
X23410333Y-23517500D01*
X23452667Y-23432833D01*
X23495000Y-23263500D01*
X23495000Y-23051833D01*
X23452667Y-22882500D01*
X23410333Y-22797833D01*
X23368000Y-22755500D01*
X23283333Y-22713166D01*
X22606000Y-23517500D02*
X22563667Y-23559833D01*
X22606000Y-23602166D01*
X22648333Y-23559833D01*
X22606000Y-23517500D01*
X22606000Y-23602166D01*
X21801667Y-23009500D02*
X21801667Y-23602166D01*
X22013333Y-22670833D02*
X22225000Y-23305833D01*
X21674667Y-23305833D01*
X28998333Y-25387499D02*
X28871333Y-25429832D01*
X28659666Y-25429832D01*
X28575000Y-25387499D01*
X28532666Y-25345166D01*
X28490333Y-25260499D01*
X28490333Y-25175832D01*
X28532666Y-25091166D01*
X28575000Y-25048832D01*
X28659666Y-25006499D01*
X28829000Y-24964166D01*
X28913666Y-24921832D01*
X28956000Y-24879499D01*
X28998333Y-24794832D01*
X28998333Y-24710166D01*
X28956000Y-24625499D01*
X28913666Y-24583166D01*
X28829000Y-24540832D01*
X28617333Y-24540832D01*
X28490333Y-24583166D01*
X27770666Y-25387499D02*
X27855333Y-25429832D01*
X28024666Y-25429832D01*
X28109333Y-25387499D01*
X28151666Y-25302832D01*
X28151666Y-24964166D01*
X28109333Y-24879499D01*
X28024666Y-24837166D01*
X27855333Y-24837166D01*
X27770666Y-24879499D01*
X27728333Y-24964166D01*
X27728333Y-25048832D01*
X28151666Y-25133499D01*
X27347333Y-25429832D02*
X27347333Y-24837166D01*
X27347333Y-25006499D02*
X27305000Y-24921832D01*
X27262666Y-24879499D01*
X27178000Y-24837166D01*
X27093333Y-24837166D01*
X26797000Y-25429832D02*
X26797000Y-24837166D01*
X26797000Y-24540832D02*
X26839333Y-24583166D01*
X26797000Y-24625499D01*
X26754666Y-24583166D01*
X26797000Y-24540832D01*
X26797000Y-24625499D01*
X25992666Y-25429832D02*
X25992666Y-24964166D01*
X26035000Y-24879499D01*
X26119666Y-24837166D01*
X26289000Y-24837166D01*
X26373666Y-24879499D01*
X25992666Y-25387499D02*
X26077333Y-25429832D01*
X26289000Y-25429832D01*
X26373666Y-25387499D01*
X26416000Y-25302832D01*
X26416000Y-25218166D01*
X26373666Y-25133499D01*
X26289000Y-25091166D01*
X26077333Y-25091166D01*
X25992666Y-25048832D01*
X25442333Y-25429832D02*
X25527000Y-25387499D01*
X25569333Y-25302832D01*
X25569333Y-24540832D01*
X24426333Y-24837166D02*
X24426333Y-25429832D01*
X24426333Y-24921832D02*
X24384000Y-24879499D01*
X24299333Y-24837166D01*
X24172333Y-24837166D01*
X24087666Y-24879499D01*
X24045333Y-24964166D01*
X24045333Y-25429832D01*
X23241000Y-24837166D02*
X23241000Y-25429832D01*
X23622000Y-24837166D02*
X23622000Y-25302832D01*
X23579666Y-25387499D01*
X23495000Y-25429832D01*
X23368000Y-25429832D01*
X23283333Y-25387499D01*
X23241000Y-25345166D01*
X22817666Y-25429832D02*
X22817666Y-24837166D01*
X22817666Y-24921832D02*
X22775333Y-24879499D01*
X22690666Y-24837166D01*
X22563666Y-24837166D01*
X22479000Y-24879499D01*
X22436666Y-24964166D01*
X22436666Y-25429832D01*
X22436666Y-24964166D02*
X22394333Y-24879499D01*
X22309666Y-24837166D01*
X22182666Y-24837166D01*
X22098000Y-24879499D01*
X22055666Y-24964166D01*
X22055666Y-25429832D01*
X21632333Y-25429832D02*
X21632333Y-24540832D01*
X21632333Y-24879499D02*
X21547666Y-24837166D01*
X21378333Y-24837166D01*
X21293666Y-24879499D01*
X21251333Y-24921832D01*
X21209000Y-25006499D01*
X21209000Y-25260499D01*
X21251333Y-25345166D01*
X21293666Y-25387499D01*
X21378333Y-25429832D01*
X21547666Y-25429832D01*
X21632333Y-25387499D01*
X20489333Y-25387499D02*
X20574000Y-25429832D01*
X20743333Y-25429832D01*
X20828000Y-25387499D01*
X20870333Y-25302832D01*
X20870333Y-24964166D01*
X20828000Y-24879499D01*
X20743333Y-24837166D01*
X20574000Y-24837166D01*
X20489333Y-24879499D01*
X20447000Y-24964166D01*
X20447000Y-25048832D01*
X20870333Y-25133499D01*
X20066000Y-25429832D02*
X20066000Y-24837166D01*
X20066000Y-25006499D02*
X20023666Y-24921832D01*
X19981333Y-24879499D01*
X19896666Y-24837166D01*
X19812000Y-24837166D01*
D12*
X9500000Y-22000000D02*
X30000000Y-22000000D01*
X9500000Y-30000000D02*
X9500000Y-22000000D01*
X30000000Y-30000000D02*
X9500000Y-30000000D01*
X30000000Y-22000000D02*
X30000000Y-30000000D01*
D11*
X28702000Y-26368498D02*
X28702000Y-27003498D01*
X28744333Y-27130498D01*
X28829000Y-27215165D01*
X28956000Y-27257498D01*
X29040667Y-27257498D01*
X27855333Y-27257498D02*
X28278667Y-27257498D01*
X28278667Y-26368498D01*
X27051000Y-27172832D02*
X27093333Y-27215165D01*
X27220333Y-27257498D01*
X27305000Y-27257498D01*
X27432000Y-27215165D01*
X27516667Y-27130498D01*
X27559000Y-27045832D01*
X27601333Y-26876498D01*
X27601333Y-26749498D01*
X27559000Y-26580165D01*
X27516667Y-26495498D01*
X27432000Y-26410832D01*
X27305000Y-26368498D01*
X27220333Y-26368498D01*
X27093333Y-26410832D01*
X27051000Y-26453165D01*
X26416000Y-26368498D02*
X26416000Y-27003498D01*
X26458333Y-27130498D01*
X26543000Y-27215165D01*
X26670000Y-27257498D01*
X26754667Y-27257498D01*
X25569333Y-27257498D02*
X25992667Y-27257498D01*
X25992667Y-26368498D01*
X24765000Y-27172832D02*
X24807333Y-27215165D01*
X24934333Y-27257498D01*
X25019000Y-27257498D01*
X25146000Y-27215165D01*
X25230667Y-27130498D01*
X25273000Y-27045832D01*
X25315333Y-26876498D01*
X25315333Y-26749498D01*
X25273000Y-26580165D01*
X25230667Y-26495498D01*
X25146000Y-26410832D01*
X25019000Y-26368498D01*
X24934333Y-26368498D01*
X24807333Y-26410832D01*
X24765000Y-26453165D01*
X24130000Y-26368498D02*
X24130000Y-27003498D01*
X24172333Y-27130498D01*
X24257000Y-27215165D01*
X24384000Y-27257498D01*
X24468667Y-27257498D01*
X23283333Y-27257498D02*
X23706667Y-27257498D01*
X23706667Y-26368498D01*
X22479000Y-27172832D02*
X22521333Y-27215165D01*
X22648333Y-27257498D01*
X22733000Y-27257498D01*
X22860000Y-27215165D01*
X22944667Y-27130498D01*
X22987000Y-27045832D01*
X23029333Y-26876498D01*
X23029333Y-26749498D01*
X22987000Y-26580165D01*
X22944667Y-26495498D01*
X22860000Y-26410832D01*
X22733000Y-26368498D01*
X22648333Y-26368498D01*
X22521333Y-26410832D01*
X22479000Y-26453165D01*
X21844000Y-26368498D02*
X21844000Y-27003498D01*
X21886333Y-27130498D01*
X21971000Y-27215165D01*
X22098000Y-27257498D01*
X22182667Y-27257498D01*
X20997333Y-27257498D02*
X21420667Y-27257498D01*
X21420667Y-26368498D01*
X20193000Y-27172832D02*
X20235333Y-27215165D01*
X20362333Y-27257498D01*
X20447000Y-27257498D01*
X20574000Y-27215165D01*
X20658667Y-27130498D01*
X20701000Y-27045832D01*
X20743333Y-26876498D01*
X20743333Y-26749498D01*
X20701000Y-26580165D01*
X20658667Y-26495498D01*
X20574000Y-26410832D01*
X20447000Y-26368498D01*
X20362333Y-26368498D01*
X20235333Y-26410832D01*
X20193000Y-26453165D01*
D13*
X3328000Y-30164000D02*
G75*
G03*
X3328000Y-30164000I-950000J0D01*
G01*
X3328000Y-22544000D02*
G75*
G03*
X3328000Y-22544000I-950000J0D01*
G01*
X3328000Y-27624000D02*
G75*
G03*
X3328000Y-27624000I-950000J0D01*
G01*
X3328000Y-17464000D02*
G75*
G03*
X3328000Y-17464000I-950000J0D01*
G01*
X3328000Y-20004000D02*
G75*
G03*
X3328000Y-20004000I-950000J0D01*
G01*
X3328000Y-25084000D02*
G75*
G03*
X3328000Y-25084000I-950000J0D01*
G01*
M02*
