G04 #@! TF.GenerationSoftware,KiCad,Pcbnew,(5.0.2)-1*
G04 #@! TF.CreationDate,2020-12-20T23:31:13+01:00*
G04 #@! TF.ProjectId,CardSizeMidiController,43617264-5369-47a6-954d-696469436f6e,rev?*
G04 #@! TF.SameCoordinates,Original*
G04 #@! TF.FileFunction,Paste,Top*
G04 #@! TF.FilePolarity,Positive*
%FSLAX46Y46*%
G04 Gerber Fmt 4.6, Leading zero omitted, Abs format (unit mm)*
G04 Created by KiCad (PCBNEW (5.0.2)-1) date 20/12/2020 23:31:13*
%MOMM*%
%LPD*%
G01*
G04 APERTURE LIST*
%ADD10C,0.100000*%
%ADD11C,0.975000*%
%ADD12C,1.150000*%
%ADD13C,0.950000*%
%ADD14C,1.200000*%
%ADD15C,0.550000*%
G04 APERTURE END LIST*
D10*
G04 #@! TO.C,D0*
G36*
X6950142Y-22796174D02*
X6973803Y-22799684D01*
X6997007Y-22805496D01*
X7019529Y-22813554D01*
X7041153Y-22823782D01*
X7061670Y-22836079D01*
X7080883Y-22850329D01*
X7098607Y-22866393D01*
X7114671Y-22884117D01*
X7128921Y-22903330D01*
X7141218Y-22923847D01*
X7151446Y-22945471D01*
X7159504Y-22967993D01*
X7165316Y-22991197D01*
X7168826Y-23014858D01*
X7170000Y-23038750D01*
X7170000Y-23951250D01*
X7168826Y-23975142D01*
X7165316Y-23998803D01*
X7159504Y-24022007D01*
X7151446Y-24044529D01*
X7141218Y-24066153D01*
X7128921Y-24086670D01*
X7114671Y-24105883D01*
X7098607Y-24123607D01*
X7080883Y-24139671D01*
X7061670Y-24153921D01*
X7041153Y-24166218D01*
X7019529Y-24176446D01*
X6997007Y-24184504D01*
X6973803Y-24190316D01*
X6950142Y-24193826D01*
X6926250Y-24195000D01*
X6438750Y-24195000D01*
X6414858Y-24193826D01*
X6391197Y-24190316D01*
X6367993Y-24184504D01*
X6345471Y-24176446D01*
X6323847Y-24166218D01*
X6303330Y-24153921D01*
X6284117Y-24139671D01*
X6266393Y-24123607D01*
X6250329Y-24105883D01*
X6236079Y-24086670D01*
X6223782Y-24066153D01*
X6213554Y-24044529D01*
X6205496Y-24022007D01*
X6199684Y-23998803D01*
X6196174Y-23975142D01*
X6195000Y-23951250D01*
X6195000Y-23038750D01*
X6196174Y-23014858D01*
X6199684Y-22991197D01*
X6205496Y-22967993D01*
X6213554Y-22945471D01*
X6223782Y-22923847D01*
X6236079Y-22903330D01*
X6250329Y-22884117D01*
X6266393Y-22866393D01*
X6284117Y-22850329D01*
X6303330Y-22836079D01*
X6323847Y-22823782D01*
X6345471Y-22813554D01*
X6367993Y-22805496D01*
X6391197Y-22799684D01*
X6414858Y-22796174D01*
X6438750Y-22795000D01*
X6926250Y-22795000D01*
X6950142Y-22796174D01*
X6950142Y-22796174D01*
G37*
D11*
X6682500Y-23495000D03*
D10*
G36*
X8825142Y-22796174D02*
X8848803Y-22799684D01*
X8872007Y-22805496D01*
X8894529Y-22813554D01*
X8916153Y-22823782D01*
X8936670Y-22836079D01*
X8955883Y-22850329D01*
X8973607Y-22866393D01*
X8989671Y-22884117D01*
X9003921Y-22903330D01*
X9016218Y-22923847D01*
X9026446Y-22945471D01*
X9034504Y-22967993D01*
X9040316Y-22991197D01*
X9043826Y-23014858D01*
X9045000Y-23038750D01*
X9045000Y-23951250D01*
X9043826Y-23975142D01*
X9040316Y-23998803D01*
X9034504Y-24022007D01*
X9026446Y-24044529D01*
X9016218Y-24066153D01*
X9003921Y-24086670D01*
X8989671Y-24105883D01*
X8973607Y-24123607D01*
X8955883Y-24139671D01*
X8936670Y-24153921D01*
X8916153Y-24166218D01*
X8894529Y-24176446D01*
X8872007Y-24184504D01*
X8848803Y-24190316D01*
X8825142Y-24193826D01*
X8801250Y-24195000D01*
X8313750Y-24195000D01*
X8289858Y-24193826D01*
X8266197Y-24190316D01*
X8242993Y-24184504D01*
X8220471Y-24176446D01*
X8198847Y-24166218D01*
X8178330Y-24153921D01*
X8159117Y-24139671D01*
X8141393Y-24123607D01*
X8125329Y-24105883D01*
X8111079Y-24086670D01*
X8098782Y-24066153D01*
X8088554Y-24044529D01*
X8080496Y-24022007D01*
X8074684Y-23998803D01*
X8071174Y-23975142D01*
X8070000Y-23951250D01*
X8070000Y-23038750D01*
X8071174Y-23014858D01*
X8074684Y-22991197D01*
X8080496Y-22967993D01*
X8088554Y-22945471D01*
X8098782Y-22923847D01*
X8111079Y-22903330D01*
X8125329Y-22884117D01*
X8141393Y-22866393D01*
X8159117Y-22850329D01*
X8178330Y-22836079D01*
X8198847Y-22823782D01*
X8220471Y-22813554D01*
X8242993Y-22805496D01*
X8266197Y-22799684D01*
X8289858Y-22796174D01*
X8313750Y-22795000D01*
X8801250Y-22795000D01*
X8825142Y-22796174D01*
X8825142Y-22796174D01*
G37*
D11*
X8557500Y-23495000D03*
G04 #@! TD*
D10*
G04 #@! TO.C,R0*
G36*
X6983205Y-25336204D02*
X7007473Y-25339804D01*
X7031272Y-25345765D01*
X7054371Y-25354030D01*
X7076550Y-25364520D01*
X7097593Y-25377132D01*
X7117299Y-25391747D01*
X7135477Y-25408223D01*
X7151953Y-25426401D01*
X7166568Y-25446107D01*
X7179180Y-25467150D01*
X7189670Y-25489329D01*
X7197935Y-25512428D01*
X7203896Y-25536227D01*
X7207496Y-25560495D01*
X7208700Y-25584999D01*
X7208700Y-26485001D01*
X7207496Y-26509505D01*
X7203896Y-26533773D01*
X7197935Y-26557572D01*
X7189670Y-26580671D01*
X7179180Y-26602850D01*
X7166568Y-26623893D01*
X7151953Y-26643599D01*
X7135477Y-26661777D01*
X7117299Y-26678253D01*
X7097593Y-26692868D01*
X7076550Y-26705480D01*
X7054371Y-26715970D01*
X7031272Y-26724235D01*
X7007473Y-26730196D01*
X6983205Y-26733796D01*
X6958701Y-26735000D01*
X6308699Y-26735000D01*
X6284195Y-26733796D01*
X6259927Y-26730196D01*
X6236128Y-26724235D01*
X6213029Y-26715970D01*
X6190850Y-26705480D01*
X6169807Y-26692868D01*
X6150101Y-26678253D01*
X6131923Y-26661777D01*
X6115447Y-26643599D01*
X6100832Y-26623893D01*
X6088220Y-26602850D01*
X6077730Y-26580671D01*
X6069465Y-26557572D01*
X6063504Y-26533773D01*
X6059904Y-26509505D01*
X6058700Y-26485001D01*
X6058700Y-25584999D01*
X6059904Y-25560495D01*
X6063504Y-25536227D01*
X6069465Y-25512428D01*
X6077730Y-25489329D01*
X6088220Y-25467150D01*
X6100832Y-25446107D01*
X6115447Y-25426401D01*
X6131923Y-25408223D01*
X6150101Y-25391747D01*
X6169807Y-25377132D01*
X6190850Y-25364520D01*
X6213029Y-25354030D01*
X6236128Y-25345765D01*
X6259927Y-25339804D01*
X6284195Y-25336204D01*
X6308699Y-25335000D01*
X6958701Y-25335000D01*
X6983205Y-25336204D01*
X6983205Y-25336204D01*
G37*
D12*
X6633700Y-26035000D03*
D10*
G36*
X9033205Y-25336204D02*
X9057473Y-25339804D01*
X9081272Y-25345765D01*
X9104371Y-25354030D01*
X9126550Y-25364520D01*
X9147593Y-25377132D01*
X9167299Y-25391747D01*
X9185477Y-25408223D01*
X9201953Y-25426401D01*
X9216568Y-25446107D01*
X9229180Y-25467150D01*
X9239670Y-25489329D01*
X9247935Y-25512428D01*
X9253896Y-25536227D01*
X9257496Y-25560495D01*
X9258700Y-25584999D01*
X9258700Y-26485001D01*
X9257496Y-26509505D01*
X9253896Y-26533773D01*
X9247935Y-26557572D01*
X9239670Y-26580671D01*
X9229180Y-26602850D01*
X9216568Y-26623893D01*
X9201953Y-26643599D01*
X9185477Y-26661777D01*
X9167299Y-26678253D01*
X9147593Y-26692868D01*
X9126550Y-26705480D01*
X9104371Y-26715970D01*
X9081272Y-26724235D01*
X9057473Y-26730196D01*
X9033205Y-26733796D01*
X9008701Y-26735000D01*
X8358699Y-26735000D01*
X8334195Y-26733796D01*
X8309927Y-26730196D01*
X8286128Y-26724235D01*
X8263029Y-26715970D01*
X8240850Y-26705480D01*
X8219807Y-26692868D01*
X8200101Y-26678253D01*
X8181923Y-26661777D01*
X8165447Y-26643599D01*
X8150832Y-26623893D01*
X8138220Y-26602850D01*
X8127730Y-26580671D01*
X8119465Y-26557572D01*
X8113504Y-26533773D01*
X8109904Y-26509505D01*
X8108700Y-26485001D01*
X8108700Y-25584999D01*
X8109904Y-25560495D01*
X8113504Y-25536227D01*
X8119465Y-25512428D01*
X8127730Y-25489329D01*
X8138220Y-25467150D01*
X8150832Y-25446107D01*
X8165447Y-25426401D01*
X8181923Y-25408223D01*
X8200101Y-25391747D01*
X8219807Y-25377132D01*
X8240850Y-25364520D01*
X8263029Y-25354030D01*
X8286128Y-25345765D01*
X8309927Y-25339804D01*
X8334195Y-25336204D01*
X8358699Y-25335000D01*
X9008701Y-25335000D01*
X9033205Y-25336204D01*
X9033205Y-25336204D01*
G37*
D12*
X8683700Y-26035000D03*
G04 #@! TD*
D10*
G04 #@! TO.C,C3*
G36*
X28728052Y-5139995D02*
X28751107Y-5143414D01*
X28773716Y-5149078D01*
X28795660Y-5156930D01*
X28816730Y-5166895D01*
X28836721Y-5178877D01*
X28855441Y-5192761D01*
X28872711Y-5208413D01*
X29208587Y-5544289D01*
X29224239Y-5561559D01*
X29238123Y-5580279D01*
X29250105Y-5600270D01*
X29260070Y-5621340D01*
X29267922Y-5643284D01*
X29273586Y-5665893D01*
X29277005Y-5688948D01*
X29278149Y-5712227D01*
X29277005Y-5735506D01*
X29273586Y-5758561D01*
X29267922Y-5781170D01*
X29260070Y-5803114D01*
X29250105Y-5824184D01*
X29238123Y-5844175D01*
X29224239Y-5862895D01*
X29208587Y-5880165D01*
X28802001Y-6286751D01*
X28784731Y-6302403D01*
X28766011Y-6316287D01*
X28746020Y-6328269D01*
X28724950Y-6338234D01*
X28703006Y-6346086D01*
X28680397Y-6351750D01*
X28657342Y-6355169D01*
X28634063Y-6356313D01*
X28610784Y-6355169D01*
X28587729Y-6351750D01*
X28565120Y-6346086D01*
X28543176Y-6338234D01*
X28522106Y-6328269D01*
X28502115Y-6316287D01*
X28483395Y-6302403D01*
X28466125Y-6286751D01*
X28130249Y-5950875D01*
X28114597Y-5933605D01*
X28100713Y-5914885D01*
X28088731Y-5894894D01*
X28078766Y-5873824D01*
X28070914Y-5851880D01*
X28065250Y-5829271D01*
X28061831Y-5806216D01*
X28060687Y-5782937D01*
X28061831Y-5759658D01*
X28065250Y-5736603D01*
X28070914Y-5713994D01*
X28078766Y-5692050D01*
X28088731Y-5670980D01*
X28100713Y-5650989D01*
X28114597Y-5632269D01*
X28130249Y-5614999D01*
X28536835Y-5208413D01*
X28554105Y-5192761D01*
X28572825Y-5178877D01*
X28592816Y-5166895D01*
X28613886Y-5156930D01*
X28635830Y-5149078D01*
X28658439Y-5143414D01*
X28681494Y-5139995D01*
X28704773Y-5138851D01*
X28728052Y-5139995D01*
X28728052Y-5139995D01*
G37*
D13*
X28669418Y-5747582D03*
D10*
G36*
X27490616Y-6377431D02*
X27513671Y-6380850D01*
X27536280Y-6386514D01*
X27558224Y-6394366D01*
X27579294Y-6404331D01*
X27599285Y-6416313D01*
X27618005Y-6430197D01*
X27635275Y-6445849D01*
X27971151Y-6781725D01*
X27986803Y-6798995D01*
X28000687Y-6817715D01*
X28012669Y-6837706D01*
X28022634Y-6858776D01*
X28030486Y-6880720D01*
X28036150Y-6903329D01*
X28039569Y-6926384D01*
X28040713Y-6949663D01*
X28039569Y-6972942D01*
X28036150Y-6995997D01*
X28030486Y-7018606D01*
X28022634Y-7040550D01*
X28012669Y-7061620D01*
X28000687Y-7081611D01*
X27986803Y-7100331D01*
X27971151Y-7117601D01*
X27564565Y-7524187D01*
X27547295Y-7539839D01*
X27528575Y-7553723D01*
X27508584Y-7565705D01*
X27487514Y-7575670D01*
X27465570Y-7583522D01*
X27442961Y-7589186D01*
X27419906Y-7592605D01*
X27396627Y-7593749D01*
X27373348Y-7592605D01*
X27350293Y-7589186D01*
X27327684Y-7583522D01*
X27305740Y-7575670D01*
X27284670Y-7565705D01*
X27264679Y-7553723D01*
X27245959Y-7539839D01*
X27228689Y-7524187D01*
X26892813Y-7188311D01*
X26877161Y-7171041D01*
X26863277Y-7152321D01*
X26851295Y-7132330D01*
X26841330Y-7111260D01*
X26833478Y-7089316D01*
X26827814Y-7066707D01*
X26824395Y-7043652D01*
X26823251Y-7020373D01*
X26824395Y-6997094D01*
X26827814Y-6974039D01*
X26833478Y-6951430D01*
X26841330Y-6929486D01*
X26851295Y-6908416D01*
X26863277Y-6888425D01*
X26877161Y-6869705D01*
X26892813Y-6852435D01*
X27299399Y-6445849D01*
X27316669Y-6430197D01*
X27335389Y-6416313D01*
X27355380Y-6404331D01*
X27376450Y-6394366D01*
X27398394Y-6386514D01*
X27421003Y-6380850D01*
X27444058Y-6377431D01*
X27467337Y-6376287D01*
X27490616Y-6377431D01*
X27490616Y-6377431D01*
G37*
D13*
X27431982Y-6985018D03*
G04 #@! TD*
D10*
G04 #@! TO.C,C4*
G36*
X24807352Y-1313695D02*
X24830407Y-1317114D01*
X24853016Y-1322778D01*
X24874960Y-1330630D01*
X24896030Y-1340595D01*
X24916021Y-1352577D01*
X24934741Y-1366461D01*
X24952011Y-1382113D01*
X25287887Y-1717989D01*
X25303539Y-1735259D01*
X25317423Y-1753979D01*
X25329405Y-1773970D01*
X25339370Y-1795040D01*
X25347222Y-1816984D01*
X25352886Y-1839593D01*
X25356305Y-1862648D01*
X25357449Y-1885927D01*
X25356305Y-1909206D01*
X25352886Y-1932261D01*
X25347222Y-1954870D01*
X25339370Y-1976814D01*
X25329405Y-1997884D01*
X25317423Y-2017875D01*
X25303539Y-2036595D01*
X25287887Y-2053865D01*
X24881301Y-2460451D01*
X24864031Y-2476103D01*
X24845311Y-2489987D01*
X24825320Y-2501969D01*
X24804250Y-2511934D01*
X24782306Y-2519786D01*
X24759697Y-2525450D01*
X24736642Y-2528869D01*
X24713363Y-2530013D01*
X24690084Y-2528869D01*
X24667029Y-2525450D01*
X24644420Y-2519786D01*
X24622476Y-2511934D01*
X24601406Y-2501969D01*
X24581415Y-2489987D01*
X24562695Y-2476103D01*
X24545425Y-2460451D01*
X24209549Y-2124575D01*
X24193897Y-2107305D01*
X24180013Y-2088585D01*
X24168031Y-2068594D01*
X24158066Y-2047524D01*
X24150214Y-2025580D01*
X24144550Y-2002971D01*
X24141131Y-1979916D01*
X24139987Y-1956637D01*
X24141131Y-1933358D01*
X24144550Y-1910303D01*
X24150214Y-1887694D01*
X24158066Y-1865750D01*
X24168031Y-1844680D01*
X24180013Y-1824689D01*
X24193897Y-1805969D01*
X24209549Y-1788699D01*
X24616135Y-1382113D01*
X24633405Y-1366461D01*
X24652125Y-1352577D01*
X24672116Y-1340595D01*
X24693186Y-1330630D01*
X24715130Y-1322778D01*
X24737739Y-1317114D01*
X24760794Y-1313695D01*
X24784073Y-1312551D01*
X24807352Y-1313695D01*
X24807352Y-1313695D01*
G37*
D13*
X24748718Y-1921282D03*
D10*
G36*
X23569916Y-2551131D02*
X23592971Y-2554550D01*
X23615580Y-2560214D01*
X23637524Y-2568066D01*
X23658594Y-2578031D01*
X23678585Y-2590013D01*
X23697305Y-2603897D01*
X23714575Y-2619549D01*
X24050451Y-2955425D01*
X24066103Y-2972695D01*
X24079987Y-2991415D01*
X24091969Y-3011406D01*
X24101934Y-3032476D01*
X24109786Y-3054420D01*
X24115450Y-3077029D01*
X24118869Y-3100084D01*
X24120013Y-3123363D01*
X24118869Y-3146642D01*
X24115450Y-3169697D01*
X24109786Y-3192306D01*
X24101934Y-3214250D01*
X24091969Y-3235320D01*
X24079987Y-3255311D01*
X24066103Y-3274031D01*
X24050451Y-3291301D01*
X23643865Y-3697887D01*
X23626595Y-3713539D01*
X23607875Y-3727423D01*
X23587884Y-3739405D01*
X23566814Y-3749370D01*
X23544870Y-3757222D01*
X23522261Y-3762886D01*
X23499206Y-3766305D01*
X23475927Y-3767449D01*
X23452648Y-3766305D01*
X23429593Y-3762886D01*
X23406984Y-3757222D01*
X23385040Y-3749370D01*
X23363970Y-3739405D01*
X23343979Y-3727423D01*
X23325259Y-3713539D01*
X23307989Y-3697887D01*
X22972113Y-3362011D01*
X22956461Y-3344741D01*
X22942577Y-3326021D01*
X22930595Y-3306030D01*
X22920630Y-3284960D01*
X22912778Y-3263016D01*
X22907114Y-3240407D01*
X22903695Y-3217352D01*
X22902551Y-3194073D01*
X22903695Y-3170794D01*
X22907114Y-3147739D01*
X22912778Y-3125130D01*
X22920630Y-3103186D01*
X22930595Y-3082116D01*
X22942577Y-3062125D01*
X22956461Y-3043405D01*
X22972113Y-3026135D01*
X23378699Y-2619549D01*
X23395969Y-2603897D01*
X23414689Y-2590013D01*
X23434680Y-2578031D01*
X23455750Y-2568066D01*
X23477694Y-2560214D01*
X23500303Y-2554550D01*
X23523358Y-2551131D01*
X23546637Y-2549987D01*
X23569916Y-2551131D01*
X23569916Y-2551131D01*
G37*
D13*
X23511282Y-3158718D03*
G04 #@! TD*
D14*
G04 #@! TO.C,Y1*
X25858223Y-5823858D03*
D10*
G36*
X25787512Y-6743097D02*
X24938984Y-5894569D01*
X25928934Y-4904619D01*
X26777462Y-5753147D01*
X25787512Y-6743097D01*
X25787512Y-6743097D01*
G37*
D14*
X27413858Y-4268223D03*
D10*
G36*
X27343147Y-5187462D02*
X26494619Y-4338934D01*
X27484569Y-3348984D01*
X28333097Y-4197512D01*
X27343147Y-5187462D01*
X27343147Y-5187462D01*
G37*
D14*
X26211777Y-3066142D03*
D10*
G36*
X26141066Y-3985381D02*
X25292538Y-3136853D01*
X26282488Y-2146903D01*
X27131016Y-2995431D01*
X26141066Y-3985381D01*
X26141066Y-3985381D01*
G37*
D14*
X24656142Y-4621777D03*
D10*
G36*
X24585431Y-5541016D02*
X23736903Y-4692488D01*
X24726853Y-3702538D01*
X25575381Y-4551066D01*
X24585431Y-5541016D01*
X24585431Y-5541016D01*
G37*
G04 #@! TD*
G04 #@! TO.C,D1*
G36*
X22922142Y-22796174D02*
X22945803Y-22799684D01*
X22969007Y-22805496D01*
X22991529Y-22813554D01*
X23013153Y-22823782D01*
X23033670Y-22836079D01*
X23052883Y-22850329D01*
X23070607Y-22866393D01*
X23086671Y-22884117D01*
X23100921Y-22903330D01*
X23113218Y-22923847D01*
X23123446Y-22945471D01*
X23131504Y-22967993D01*
X23137316Y-22991197D01*
X23140826Y-23014858D01*
X23142000Y-23038750D01*
X23142000Y-23951250D01*
X23140826Y-23975142D01*
X23137316Y-23998803D01*
X23131504Y-24022007D01*
X23123446Y-24044529D01*
X23113218Y-24066153D01*
X23100921Y-24086670D01*
X23086671Y-24105883D01*
X23070607Y-24123607D01*
X23052883Y-24139671D01*
X23033670Y-24153921D01*
X23013153Y-24166218D01*
X22991529Y-24176446D01*
X22969007Y-24184504D01*
X22945803Y-24190316D01*
X22922142Y-24193826D01*
X22898250Y-24195000D01*
X22410750Y-24195000D01*
X22386858Y-24193826D01*
X22363197Y-24190316D01*
X22339993Y-24184504D01*
X22317471Y-24176446D01*
X22295847Y-24166218D01*
X22275330Y-24153921D01*
X22256117Y-24139671D01*
X22238393Y-24123607D01*
X22222329Y-24105883D01*
X22208079Y-24086670D01*
X22195782Y-24066153D01*
X22185554Y-24044529D01*
X22177496Y-24022007D01*
X22171684Y-23998803D01*
X22168174Y-23975142D01*
X22167000Y-23951250D01*
X22167000Y-23038750D01*
X22168174Y-23014858D01*
X22171684Y-22991197D01*
X22177496Y-22967993D01*
X22185554Y-22945471D01*
X22195782Y-22923847D01*
X22208079Y-22903330D01*
X22222329Y-22884117D01*
X22238393Y-22866393D01*
X22256117Y-22850329D01*
X22275330Y-22836079D01*
X22295847Y-22823782D01*
X22317471Y-22813554D01*
X22339993Y-22805496D01*
X22363197Y-22799684D01*
X22386858Y-22796174D01*
X22410750Y-22795000D01*
X22898250Y-22795000D01*
X22922142Y-22796174D01*
X22922142Y-22796174D01*
G37*
D11*
X22654500Y-23495000D03*
D10*
G36*
X21047142Y-22796174D02*
X21070803Y-22799684D01*
X21094007Y-22805496D01*
X21116529Y-22813554D01*
X21138153Y-22823782D01*
X21158670Y-22836079D01*
X21177883Y-22850329D01*
X21195607Y-22866393D01*
X21211671Y-22884117D01*
X21225921Y-22903330D01*
X21238218Y-22923847D01*
X21248446Y-22945471D01*
X21256504Y-22967993D01*
X21262316Y-22991197D01*
X21265826Y-23014858D01*
X21267000Y-23038750D01*
X21267000Y-23951250D01*
X21265826Y-23975142D01*
X21262316Y-23998803D01*
X21256504Y-24022007D01*
X21248446Y-24044529D01*
X21238218Y-24066153D01*
X21225921Y-24086670D01*
X21211671Y-24105883D01*
X21195607Y-24123607D01*
X21177883Y-24139671D01*
X21158670Y-24153921D01*
X21138153Y-24166218D01*
X21116529Y-24176446D01*
X21094007Y-24184504D01*
X21070803Y-24190316D01*
X21047142Y-24193826D01*
X21023250Y-24195000D01*
X20535750Y-24195000D01*
X20511858Y-24193826D01*
X20488197Y-24190316D01*
X20464993Y-24184504D01*
X20442471Y-24176446D01*
X20420847Y-24166218D01*
X20400330Y-24153921D01*
X20381117Y-24139671D01*
X20363393Y-24123607D01*
X20347329Y-24105883D01*
X20333079Y-24086670D01*
X20320782Y-24066153D01*
X20310554Y-24044529D01*
X20302496Y-24022007D01*
X20296684Y-23998803D01*
X20293174Y-23975142D01*
X20292000Y-23951250D01*
X20292000Y-23038750D01*
X20293174Y-23014858D01*
X20296684Y-22991197D01*
X20302496Y-22967993D01*
X20310554Y-22945471D01*
X20320782Y-22923847D01*
X20333079Y-22903330D01*
X20347329Y-22884117D01*
X20363393Y-22866393D01*
X20381117Y-22850329D01*
X20400330Y-22836079D01*
X20420847Y-22823782D01*
X20442471Y-22813554D01*
X20464993Y-22805496D01*
X20488197Y-22799684D01*
X20511858Y-22796174D01*
X20535750Y-22795000D01*
X21023250Y-22795000D01*
X21047142Y-22796174D01*
X21047142Y-22796174D01*
G37*
D11*
X20779500Y-23495000D03*
G04 #@! TD*
D10*
G04 #@! TO.C,D2*
G36*
X35218742Y-22796174D02*
X35242403Y-22799684D01*
X35265607Y-22805496D01*
X35288129Y-22813554D01*
X35309753Y-22823782D01*
X35330270Y-22836079D01*
X35349483Y-22850329D01*
X35367207Y-22866393D01*
X35383271Y-22884117D01*
X35397521Y-22903330D01*
X35409818Y-22923847D01*
X35420046Y-22945471D01*
X35428104Y-22967993D01*
X35433916Y-22991197D01*
X35437426Y-23014858D01*
X35438600Y-23038750D01*
X35438600Y-23951250D01*
X35437426Y-23975142D01*
X35433916Y-23998803D01*
X35428104Y-24022007D01*
X35420046Y-24044529D01*
X35409818Y-24066153D01*
X35397521Y-24086670D01*
X35383271Y-24105883D01*
X35367207Y-24123607D01*
X35349483Y-24139671D01*
X35330270Y-24153921D01*
X35309753Y-24166218D01*
X35288129Y-24176446D01*
X35265607Y-24184504D01*
X35242403Y-24190316D01*
X35218742Y-24193826D01*
X35194850Y-24195000D01*
X34707350Y-24195000D01*
X34683458Y-24193826D01*
X34659797Y-24190316D01*
X34636593Y-24184504D01*
X34614071Y-24176446D01*
X34592447Y-24166218D01*
X34571930Y-24153921D01*
X34552717Y-24139671D01*
X34534993Y-24123607D01*
X34518929Y-24105883D01*
X34504679Y-24086670D01*
X34492382Y-24066153D01*
X34482154Y-24044529D01*
X34474096Y-24022007D01*
X34468284Y-23998803D01*
X34464774Y-23975142D01*
X34463600Y-23951250D01*
X34463600Y-23038750D01*
X34464774Y-23014858D01*
X34468284Y-22991197D01*
X34474096Y-22967993D01*
X34482154Y-22945471D01*
X34492382Y-22923847D01*
X34504679Y-22903330D01*
X34518929Y-22884117D01*
X34534993Y-22866393D01*
X34552717Y-22850329D01*
X34571930Y-22836079D01*
X34592447Y-22823782D01*
X34614071Y-22813554D01*
X34636593Y-22805496D01*
X34659797Y-22799684D01*
X34683458Y-22796174D01*
X34707350Y-22795000D01*
X35194850Y-22795000D01*
X35218742Y-22796174D01*
X35218742Y-22796174D01*
G37*
D11*
X34951100Y-23495000D03*
D10*
G36*
X37093742Y-22796174D02*
X37117403Y-22799684D01*
X37140607Y-22805496D01*
X37163129Y-22813554D01*
X37184753Y-22823782D01*
X37205270Y-22836079D01*
X37224483Y-22850329D01*
X37242207Y-22866393D01*
X37258271Y-22884117D01*
X37272521Y-22903330D01*
X37284818Y-22923847D01*
X37295046Y-22945471D01*
X37303104Y-22967993D01*
X37308916Y-22991197D01*
X37312426Y-23014858D01*
X37313600Y-23038750D01*
X37313600Y-23951250D01*
X37312426Y-23975142D01*
X37308916Y-23998803D01*
X37303104Y-24022007D01*
X37295046Y-24044529D01*
X37284818Y-24066153D01*
X37272521Y-24086670D01*
X37258271Y-24105883D01*
X37242207Y-24123607D01*
X37224483Y-24139671D01*
X37205270Y-24153921D01*
X37184753Y-24166218D01*
X37163129Y-24176446D01*
X37140607Y-24184504D01*
X37117403Y-24190316D01*
X37093742Y-24193826D01*
X37069850Y-24195000D01*
X36582350Y-24195000D01*
X36558458Y-24193826D01*
X36534797Y-24190316D01*
X36511593Y-24184504D01*
X36489071Y-24176446D01*
X36467447Y-24166218D01*
X36446930Y-24153921D01*
X36427717Y-24139671D01*
X36409993Y-24123607D01*
X36393929Y-24105883D01*
X36379679Y-24086670D01*
X36367382Y-24066153D01*
X36357154Y-24044529D01*
X36349096Y-24022007D01*
X36343284Y-23998803D01*
X36339774Y-23975142D01*
X36338600Y-23951250D01*
X36338600Y-23038750D01*
X36339774Y-23014858D01*
X36343284Y-22991197D01*
X36349096Y-22967993D01*
X36357154Y-22945471D01*
X36367382Y-22923847D01*
X36379679Y-22903330D01*
X36393929Y-22884117D01*
X36409993Y-22866393D01*
X36427717Y-22850329D01*
X36446930Y-22836079D01*
X36467447Y-22823782D01*
X36489071Y-22813554D01*
X36511593Y-22805496D01*
X36534797Y-22799684D01*
X36558458Y-22796174D01*
X36582350Y-22795000D01*
X37069850Y-22795000D01*
X37093742Y-22796174D01*
X37093742Y-22796174D01*
G37*
D11*
X36826100Y-23495000D03*
G04 #@! TD*
D10*
G04 #@! TO.C,D3*
G36*
X51081542Y-22796174D02*
X51105203Y-22799684D01*
X51128407Y-22805496D01*
X51150929Y-22813554D01*
X51172553Y-22823782D01*
X51193070Y-22836079D01*
X51212283Y-22850329D01*
X51230007Y-22866393D01*
X51246071Y-22884117D01*
X51260321Y-22903330D01*
X51272618Y-22923847D01*
X51282846Y-22945471D01*
X51290904Y-22967993D01*
X51296716Y-22991197D01*
X51300226Y-23014858D01*
X51301400Y-23038750D01*
X51301400Y-23951250D01*
X51300226Y-23975142D01*
X51296716Y-23998803D01*
X51290904Y-24022007D01*
X51282846Y-24044529D01*
X51272618Y-24066153D01*
X51260321Y-24086670D01*
X51246071Y-24105883D01*
X51230007Y-24123607D01*
X51212283Y-24139671D01*
X51193070Y-24153921D01*
X51172553Y-24166218D01*
X51150929Y-24176446D01*
X51128407Y-24184504D01*
X51105203Y-24190316D01*
X51081542Y-24193826D01*
X51057650Y-24195000D01*
X50570150Y-24195000D01*
X50546258Y-24193826D01*
X50522597Y-24190316D01*
X50499393Y-24184504D01*
X50476871Y-24176446D01*
X50455247Y-24166218D01*
X50434730Y-24153921D01*
X50415517Y-24139671D01*
X50397793Y-24123607D01*
X50381729Y-24105883D01*
X50367479Y-24086670D01*
X50355182Y-24066153D01*
X50344954Y-24044529D01*
X50336896Y-24022007D01*
X50331084Y-23998803D01*
X50327574Y-23975142D01*
X50326400Y-23951250D01*
X50326400Y-23038750D01*
X50327574Y-23014858D01*
X50331084Y-22991197D01*
X50336896Y-22967993D01*
X50344954Y-22945471D01*
X50355182Y-22923847D01*
X50367479Y-22903330D01*
X50381729Y-22884117D01*
X50397793Y-22866393D01*
X50415517Y-22850329D01*
X50434730Y-22836079D01*
X50455247Y-22823782D01*
X50476871Y-22813554D01*
X50499393Y-22805496D01*
X50522597Y-22799684D01*
X50546258Y-22796174D01*
X50570150Y-22795000D01*
X51057650Y-22795000D01*
X51081542Y-22796174D01*
X51081542Y-22796174D01*
G37*
D11*
X50813900Y-23495000D03*
D10*
G36*
X49206542Y-22796174D02*
X49230203Y-22799684D01*
X49253407Y-22805496D01*
X49275929Y-22813554D01*
X49297553Y-22823782D01*
X49318070Y-22836079D01*
X49337283Y-22850329D01*
X49355007Y-22866393D01*
X49371071Y-22884117D01*
X49385321Y-22903330D01*
X49397618Y-22923847D01*
X49407846Y-22945471D01*
X49415904Y-22967993D01*
X49421716Y-22991197D01*
X49425226Y-23014858D01*
X49426400Y-23038750D01*
X49426400Y-23951250D01*
X49425226Y-23975142D01*
X49421716Y-23998803D01*
X49415904Y-24022007D01*
X49407846Y-24044529D01*
X49397618Y-24066153D01*
X49385321Y-24086670D01*
X49371071Y-24105883D01*
X49355007Y-24123607D01*
X49337283Y-24139671D01*
X49318070Y-24153921D01*
X49297553Y-24166218D01*
X49275929Y-24176446D01*
X49253407Y-24184504D01*
X49230203Y-24190316D01*
X49206542Y-24193826D01*
X49182650Y-24195000D01*
X48695150Y-24195000D01*
X48671258Y-24193826D01*
X48647597Y-24190316D01*
X48624393Y-24184504D01*
X48601871Y-24176446D01*
X48580247Y-24166218D01*
X48559730Y-24153921D01*
X48540517Y-24139671D01*
X48522793Y-24123607D01*
X48506729Y-24105883D01*
X48492479Y-24086670D01*
X48480182Y-24066153D01*
X48469954Y-24044529D01*
X48461896Y-24022007D01*
X48456084Y-23998803D01*
X48452574Y-23975142D01*
X48451400Y-23951250D01*
X48451400Y-23038750D01*
X48452574Y-23014858D01*
X48456084Y-22991197D01*
X48461896Y-22967993D01*
X48469954Y-22945471D01*
X48480182Y-22923847D01*
X48492479Y-22903330D01*
X48506729Y-22884117D01*
X48522793Y-22866393D01*
X48540517Y-22850329D01*
X48559730Y-22836079D01*
X48580247Y-22823782D01*
X48601871Y-22813554D01*
X48624393Y-22805496D01*
X48647597Y-22799684D01*
X48671258Y-22796174D01*
X48695150Y-22795000D01*
X49182650Y-22795000D01*
X49206542Y-22796174D01*
X49206542Y-22796174D01*
G37*
D11*
X48938900Y-23495000D03*
G04 #@! TD*
D10*
G04 #@! TO.C,D4*
G36*
X63321442Y-22796174D02*
X63345103Y-22799684D01*
X63368307Y-22805496D01*
X63390829Y-22813554D01*
X63412453Y-22823782D01*
X63432970Y-22836079D01*
X63452183Y-22850329D01*
X63469907Y-22866393D01*
X63485971Y-22884117D01*
X63500221Y-22903330D01*
X63512518Y-22923847D01*
X63522746Y-22945471D01*
X63530804Y-22967993D01*
X63536616Y-22991197D01*
X63540126Y-23014858D01*
X63541300Y-23038750D01*
X63541300Y-23951250D01*
X63540126Y-23975142D01*
X63536616Y-23998803D01*
X63530804Y-24022007D01*
X63522746Y-24044529D01*
X63512518Y-24066153D01*
X63500221Y-24086670D01*
X63485971Y-24105883D01*
X63469907Y-24123607D01*
X63452183Y-24139671D01*
X63432970Y-24153921D01*
X63412453Y-24166218D01*
X63390829Y-24176446D01*
X63368307Y-24184504D01*
X63345103Y-24190316D01*
X63321442Y-24193826D01*
X63297550Y-24195000D01*
X62810050Y-24195000D01*
X62786158Y-24193826D01*
X62762497Y-24190316D01*
X62739293Y-24184504D01*
X62716771Y-24176446D01*
X62695147Y-24166218D01*
X62674630Y-24153921D01*
X62655417Y-24139671D01*
X62637693Y-24123607D01*
X62621629Y-24105883D01*
X62607379Y-24086670D01*
X62595082Y-24066153D01*
X62584854Y-24044529D01*
X62576796Y-24022007D01*
X62570984Y-23998803D01*
X62567474Y-23975142D01*
X62566300Y-23951250D01*
X62566300Y-23038750D01*
X62567474Y-23014858D01*
X62570984Y-22991197D01*
X62576796Y-22967993D01*
X62584854Y-22945471D01*
X62595082Y-22923847D01*
X62607379Y-22903330D01*
X62621629Y-22884117D01*
X62637693Y-22866393D01*
X62655417Y-22850329D01*
X62674630Y-22836079D01*
X62695147Y-22823782D01*
X62716771Y-22813554D01*
X62739293Y-22805496D01*
X62762497Y-22799684D01*
X62786158Y-22796174D01*
X62810050Y-22795000D01*
X63297550Y-22795000D01*
X63321442Y-22796174D01*
X63321442Y-22796174D01*
G37*
D11*
X63053800Y-23495000D03*
D10*
G36*
X65196442Y-22796174D02*
X65220103Y-22799684D01*
X65243307Y-22805496D01*
X65265829Y-22813554D01*
X65287453Y-22823782D01*
X65307970Y-22836079D01*
X65327183Y-22850329D01*
X65344907Y-22866393D01*
X65360971Y-22884117D01*
X65375221Y-22903330D01*
X65387518Y-22923847D01*
X65397746Y-22945471D01*
X65405804Y-22967993D01*
X65411616Y-22991197D01*
X65415126Y-23014858D01*
X65416300Y-23038750D01*
X65416300Y-23951250D01*
X65415126Y-23975142D01*
X65411616Y-23998803D01*
X65405804Y-24022007D01*
X65397746Y-24044529D01*
X65387518Y-24066153D01*
X65375221Y-24086670D01*
X65360971Y-24105883D01*
X65344907Y-24123607D01*
X65327183Y-24139671D01*
X65307970Y-24153921D01*
X65287453Y-24166218D01*
X65265829Y-24176446D01*
X65243307Y-24184504D01*
X65220103Y-24190316D01*
X65196442Y-24193826D01*
X65172550Y-24195000D01*
X64685050Y-24195000D01*
X64661158Y-24193826D01*
X64637497Y-24190316D01*
X64614293Y-24184504D01*
X64591771Y-24176446D01*
X64570147Y-24166218D01*
X64549630Y-24153921D01*
X64530417Y-24139671D01*
X64512693Y-24123607D01*
X64496629Y-24105883D01*
X64482379Y-24086670D01*
X64470082Y-24066153D01*
X64459854Y-24044529D01*
X64451796Y-24022007D01*
X64445984Y-23998803D01*
X64442474Y-23975142D01*
X64441300Y-23951250D01*
X64441300Y-23038750D01*
X64442474Y-23014858D01*
X64445984Y-22991197D01*
X64451796Y-22967993D01*
X64459854Y-22945471D01*
X64470082Y-22923847D01*
X64482379Y-22903330D01*
X64496629Y-22884117D01*
X64512693Y-22866393D01*
X64530417Y-22850329D01*
X64549630Y-22836079D01*
X64570147Y-22823782D01*
X64591771Y-22813554D01*
X64614293Y-22805496D01*
X64637497Y-22799684D01*
X64661158Y-22796174D01*
X64685050Y-22795000D01*
X65172550Y-22795000D01*
X65196442Y-22796174D01*
X65196442Y-22796174D01*
G37*
D11*
X64928800Y-23495000D03*
G04 #@! TD*
D10*
G04 #@! TO.C,D5*
G36*
X79310142Y-22796174D02*
X79333803Y-22799684D01*
X79357007Y-22805496D01*
X79379529Y-22813554D01*
X79401153Y-22823782D01*
X79421670Y-22836079D01*
X79440883Y-22850329D01*
X79458607Y-22866393D01*
X79474671Y-22884117D01*
X79488921Y-22903330D01*
X79501218Y-22923847D01*
X79511446Y-22945471D01*
X79519504Y-22967993D01*
X79525316Y-22991197D01*
X79528826Y-23014858D01*
X79530000Y-23038750D01*
X79530000Y-23951250D01*
X79528826Y-23975142D01*
X79525316Y-23998803D01*
X79519504Y-24022007D01*
X79511446Y-24044529D01*
X79501218Y-24066153D01*
X79488921Y-24086670D01*
X79474671Y-24105883D01*
X79458607Y-24123607D01*
X79440883Y-24139671D01*
X79421670Y-24153921D01*
X79401153Y-24166218D01*
X79379529Y-24176446D01*
X79357007Y-24184504D01*
X79333803Y-24190316D01*
X79310142Y-24193826D01*
X79286250Y-24195000D01*
X78798750Y-24195000D01*
X78774858Y-24193826D01*
X78751197Y-24190316D01*
X78727993Y-24184504D01*
X78705471Y-24176446D01*
X78683847Y-24166218D01*
X78663330Y-24153921D01*
X78644117Y-24139671D01*
X78626393Y-24123607D01*
X78610329Y-24105883D01*
X78596079Y-24086670D01*
X78583782Y-24066153D01*
X78573554Y-24044529D01*
X78565496Y-24022007D01*
X78559684Y-23998803D01*
X78556174Y-23975142D01*
X78555000Y-23951250D01*
X78555000Y-23038750D01*
X78556174Y-23014858D01*
X78559684Y-22991197D01*
X78565496Y-22967993D01*
X78573554Y-22945471D01*
X78583782Y-22923847D01*
X78596079Y-22903330D01*
X78610329Y-22884117D01*
X78626393Y-22866393D01*
X78644117Y-22850329D01*
X78663330Y-22836079D01*
X78683847Y-22823782D01*
X78705471Y-22813554D01*
X78727993Y-22805496D01*
X78751197Y-22799684D01*
X78774858Y-22796174D01*
X78798750Y-22795000D01*
X79286250Y-22795000D01*
X79310142Y-22796174D01*
X79310142Y-22796174D01*
G37*
D11*
X79042500Y-23495000D03*
D10*
G36*
X77435142Y-22796174D02*
X77458803Y-22799684D01*
X77482007Y-22805496D01*
X77504529Y-22813554D01*
X77526153Y-22823782D01*
X77546670Y-22836079D01*
X77565883Y-22850329D01*
X77583607Y-22866393D01*
X77599671Y-22884117D01*
X77613921Y-22903330D01*
X77626218Y-22923847D01*
X77636446Y-22945471D01*
X77644504Y-22967993D01*
X77650316Y-22991197D01*
X77653826Y-23014858D01*
X77655000Y-23038750D01*
X77655000Y-23951250D01*
X77653826Y-23975142D01*
X77650316Y-23998803D01*
X77644504Y-24022007D01*
X77636446Y-24044529D01*
X77626218Y-24066153D01*
X77613921Y-24086670D01*
X77599671Y-24105883D01*
X77583607Y-24123607D01*
X77565883Y-24139671D01*
X77546670Y-24153921D01*
X77526153Y-24166218D01*
X77504529Y-24176446D01*
X77482007Y-24184504D01*
X77458803Y-24190316D01*
X77435142Y-24193826D01*
X77411250Y-24195000D01*
X76923750Y-24195000D01*
X76899858Y-24193826D01*
X76876197Y-24190316D01*
X76852993Y-24184504D01*
X76830471Y-24176446D01*
X76808847Y-24166218D01*
X76788330Y-24153921D01*
X76769117Y-24139671D01*
X76751393Y-24123607D01*
X76735329Y-24105883D01*
X76721079Y-24086670D01*
X76708782Y-24066153D01*
X76698554Y-24044529D01*
X76690496Y-24022007D01*
X76684684Y-23998803D01*
X76681174Y-23975142D01*
X76680000Y-23951250D01*
X76680000Y-23038750D01*
X76681174Y-23014858D01*
X76684684Y-22991197D01*
X76690496Y-22967993D01*
X76698554Y-22945471D01*
X76708782Y-22923847D01*
X76721079Y-22903330D01*
X76735329Y-22884117D01*
X76751393Y-22866393D01*
X76769117Y-22850329D01*
X76788330Y-22836079D01*
X76808847Y-22823782D01*
X76830471Y-22813554D01*
X76852993Y-22805496D01*
X76876197Y-22799684D01*
X76899858Y-22796174D01*
X76923750Y-22795000D01*
X77411250Y-22795000D01*
X77435142Y-22796174D01*
X77435142Y-22796174D01*
G37*
D11*
X77167500Y-23495000D03*
G04 #@! TD*
D15*
G04 #@! TO.C,U1*
X23019103Y-9261695D03*
D10*
G36*
X23390334Y-8501555D02*
X23779243Y-8890464D01*
X22647872Y-10021835D01*
X22258963Y-9632926D01*
X23390334Y-8501555D01*
X23390334Y-8501555D01*
G37*
D15*
X22453417Y-8696010D03*
D10*
G36*
X22824648Y-7935870D02*
X23213557Y-8324779D01*
X22082186Y-9456150D01*
X21693277Y-9067241D01*
X22824648Y-7935870D01*
X22824648Y-7935870D01*
G37*
D15*
X21887732Y-8130324D03*
D10*
G36*
X22258963Y-7370184D02*
X22647872Y-7759093D01*
X21516501Y-8890464D01*
X21127592Y-8501555D01*
X22258963Y-7370184D01*
X22258963Y-7370184D01*
G37*
D15*
X21322047Y-7564639D03*
D10*
G36*
X21693278Y-6804499D02*
X22082187Y-7193408D01*
X20950816Y-8324779D01*
X20561907Y-7935870D01*
X21693278Y-6804499D01*
X21693278Y-6804499D01*
G37*
D15*
X20756361Y-6998953D03*
D10*
G36*
X21127592Y-6238813D02*
X21516501Y-6627722D01*
X20385130Y-7759093D01*
X19996221Y-7370184D01*
X21127592Y-6238813D01*
X21127592Y-6238813D01*
G37*
D15*
X20190676Y-6433268D03*
D10*
G36*
X20561907Y-5673128D02*
X20950816Y-6062037D01*
X19819445Y-7193408D01*
X19430536Y-6804499D01*
X20561907Y-5673128D01*
X20561907Y-5673128D01*
G37*
D15*
X19624990Y-5867583D03*
D10*
G36*
X19996221Y-5107443D02*
X20385130Y-5496352D01*
X19253759Y-6627723D01*
X18864850Y-6238814D01*
X19996221Y-5107443D01*
X19996221Y-5107443D01*
G37*
D15*
X19059305Y-5301897D03*
D10*
G36*
X19430536Y-4541757D02*
X19819445Y-4930666D01*
X18688074Y-6062037D01*
X18299165Y-5673128D01*
X19430536Y-4541757D01*
X19430536Y-4541757D01*
G37*
D15*
X17008695Y-5301897D03*
D10*
G36*
X16248555Y-4930666D02*
X16637464Y-4541757D01*
X17768835Y-5673128D01*
X17379926Y-6062037D01*
X16248555Y-4930666D01*
X16248555Y-4930666D01*
G37*
D15*
X16443010Y-5867583D03*
D10*
G36*
X15682870Y-5496352D02*
X16071779Y-5107443D01*
X17203150Y-6238814D01*
X16814241Y-6627723D01*
X15682870Y-5496352D01*
X15682870Y-5496352D01*
G37*
D15*
X15877324Y-6433268D03*
D10*
G36*
X15117184Y-6062037D02*
X15506093Y-5673128D01*
X16637464Y-6804499D01*
X16248555Y-7193408D01*
X15117184Y-6062037D01*
X15117184Y-6062037D01*
G37*
D15*
X15311639Y-6998953D03*
D10*
G36*
X14551499Y-6627722D02*
X14940408Y-6238813D01*
X16071779Y-7370184D01*
X15682870Y-7759093D01*
X14551499Y-6627722D01*
X14551499Y-6627722D01*
G37*
D15*
X14745953Y-7564639D03*
D10*
G36*
X13985813Y-7193408D02*
X14374722Y-6804499D01*
X15506093Y-7935870D01*
X15117184Y-8324779D01*
X13985813Y-7193408D01*
X13985813Y-7193408D01*
G37*
D15*
X14180268Y-8130324D03*
D10*
G36*
X13420128Y-7759093D02*
X13809037Y-7370184D01*
X14940408Y-8501555D01*
X14551499Y-8890464D01*
X13420128Y-7759093D01*
X13420128Y-7759093D01*
G37*
D15*
X13614583Y-8696010D03*
D10*
G36*
X12854443Y-8324779D02*
X13243352Y-7935870D01*
X14374723Y-9067241D01*
X13985814Y-9456150D01*
X12854443Y-8324779D01*
X12854443Y-8324779D01*
G37*
D15*
X13048897Y-9261695D03*
D10*
G36*
X12288757Y-8890464D02*
X12677666Y-8501555D01*
X13809037Y-9632926D01*
X13420128Y-10021835D01*
X12288757Y-8890464D01*
X12288757Y-8890464D01*
G37*
D15*
X13048897Y-11312305D03*
D10*
G36*
X13420128Y-10552165D02*
X13809037Y-10941074D01*
X12677666Y-12072445D01*
X12288757Y-11683536D01*
X13420128Y-10552165D01*
X13420128Y-10552165D01*
G37*
D15*
X13614583Y-11877990D03*
D10*
G36*
X13985814Y-11117850D02*
X14374723Y-11506759D01*
X13243352Y-12638130D01*
X12854443Y-12249221D01*
X13985814Y-11117850D01*
X13985814Y-11117850D01*
G37*
D15*
X14180268Y-12443676D03*
D10*
G36*
X14551499Y-11683536D02*
X14940408Y-12072445D01*
X13809037Y-13203816D01*
X13420128Y-12814907D01*
X14551499Y-11683536D01*
X14551499Y-11683536D01*
G37*
D15*
X14745953Y-13009361D03*
D10*
G36*
X15117184Y-12249221D02*
X15506093Y-12638130D01*
X14374722Y-13769501D01*
X13985813Y-13380592D01*
X15117184Y-12249221D01*
X15117184Y-12249221D01*
G37*
D15*
X15311639Y-13575047D03*
D10*
G36*
X15682870Y-12814907D02*
X16071779Y-13203816D01*
X14940408Y-14335187D01*
X14551499Y-13946278D01*
X15682870Y-12814907D01*
X15682870Y-12814907D01*
G37*
D15*
X15877324Y-14140732D03*
D10*
G36*
X16248555Y-13380592D02*
X16637464Y-13769501D01*
X15506093Y-14900872D01*
X15117184Y-14511963D01*
X16248555Y-13380592D01*
X16248555Y-13380592D01*
G37*
D15*
X16443010Y-14706417D03*
D10*
G36*
X16814241Y-13946277D02*
X17203150Y-14335186D01*
X16071779Y-15466557D01*
X15682870Y-15077648D01*
X16814241Y-13946277D01*
X16814241Y-13946277D01*
G37*
D15*
X17008695Y-15272103D03*
D10*
G36*
X17379926Y-14511963D02*
X17768835Y-14900872D01*
X16637464Y-16032243D01*
X16248555Y-15643334D01*
X17379926Y-14511963D01*
X17379926Y-14511963D01*
G37*
D15*
X19059305Y-15272103D03*
D10*
G36*
X18299165Y-14900872D02*
X18688074Y-14511963D01*
X19819445Y-15643334D01*
X19430536Y-16032243D01*
X18299165Y-14900872D01*
X18299165Y-14900872D01*
G37*
D15*
X19624990Y-14706417D03*
D10*
G36*
X18864850Y-14335186D02*
X19253759Y-13946277D01*
X20385130Y-15077648D01*
X19996221Y-15466557D01*
X18864850Y-14335186D01*
X18864850Y-14335186D01*
G37*
D15*
X20190676Y-14140732D03*
D10*
G36*
X19430536Y-13769501D02*
X19819445Y-13380592D01*
X20950816Y-14511963D01*
X20561907Y-14900872D01*
X19430536Y-13769501D01*
X19430536Y-13769501D01*
G37*
D15*
X20756361Y-13575047D03*
D10*
G36*
X19996221Y-13203816D02*
X20385130Y-12814907D01*
X21516501Y-13946278D01*
X21127592Y-14335187D01*
X19996221Y-13203816D01*
X19996221Y-13203816D01*
G37*
D15*
X21322047Y-13009361D03*
D10*
G36*
X20561907Y-12638130D02*
X20950816Y-12249221D01*
X22082187Y-13380592D01*
X21693278Y-13769501D01*
X20561907Y-12638130D01*
X20561907Y-12638130D01*
G37*
D15*
X21887732Y-12443676D03*
D10*
G36*
X21127592Y-12072445D02*
X21516501Y-11683536D01*
X22647872Y-12814907D01*
X22258963Y-13203816D01*
X21127592Y-12072445D01*
X21127592Y-12072445D01*
G37*
D15*
X22453417Y-11877990D03*
D10*
G36*
X21693277Y-11506759D02*
X22082186Y-11117850D01*
X23213557Y-12249221D01*
X22824648Y-12638130D01*
X21693277Y-11506759D01*
X21693277Y-11506759D01*
G37*
D15*
X23019103Y-11312305D03*
D10*
G36*
X22258963Y-10941074D02*
X22647872Y-10552165D01*
X23779243Y-11683536D01*
X23390334Y-12072445D01*
X22258963Y-10941074D01*
X22258963Y-10941074D01*
G37*
G04 #@! TD*
G04 #@! TO.C,R9*
G36*
X58386505Y-5259204D02*
X58410773Y-5262804D01*
X58434572Y-5268765D01*
X58457671Y-5277030D01*
X58479850Y-5287520D01*
X58500893Y-5300132D01*
X58520599Y-5314747D01*
X58538777Y-5331223D01*
X58555253Y-5349401D01*
X58569868Y-5369107D01*
X58582480Y-5390150D01*
X58592970Y-5412329D01*
X58601235Y-5435428D01*
X58607196Y-5459227D01*
X58610796Y-5483495D01*
X58612000Y-5507999D01*
X58612000Y-6158001D01*
X58610796Y-6182505D01*
X58607196Y-6206773D01*
X58601235Y-6230572D01*
X58592970Y-6253671D01*
X58582480Y-6275850D01*
X58569868Y-6296893D01*
X58555253Y-6316599D01*
X58538777Y-6334777D01*
X58520599Y-6351253D01*
X58500893Y-6365868D01*
X58479850Y-6378480D01*
X58457671Y-6388970D01*
X58434572Y-6397235D01*
X58410773Y-6403196D01*
X58386505Y-6406796D01*
X58362001Y-6408000D01*
X57461999Y-6408000D01*
X57437495Y-6406796D01*
X57413227Y-6403196D01*
X57389428Y-6397235D01*
X57366329Y-6388970D01*
X57344150Y-6378480D01*
X57323107Y-6365868D01*
X57303401Y-6351253D01*
X57285223Y-6334777D01*
X57268747Y-6316599D01*
X57254132Y-6296893D01*
X57241520Y-6275850D01*
X57231030Y-6253671D01*
X57222765Y-6230572D01*
X57216804Y-6206773D01*
X57213204Y-6182505D01*
X57212000Y-6158001D01*
X57212000Y-5507999D01*
X57213204Y-5483495D01*
X57216804Y-5459227D01*
X57222765Y-5435428D01*
X57231030Y-5412329D01*
X57241520Y-5390150D01*
X57254132Y-5369107D01*
X57268747Y-5349401D01*
X57285223Y-5331223D01*
X57303401Y-5314747D01*
X57323107Y-5300132D01*
X57344150Y-5287520D01*
X57366329Y-5277030D01*
X57389428Y-5268765D01*
X57413227Y-5262804D01*
X57437495Y-5259204D01*
X57461999Y-5258000D01*
X58362001Y-5258000D01*
X58386505Y-5259204D01*
X58386505Y-5259204D01*
G37*
D12*
X57912000Y-5833000D03*
D10*
G36*
X58386505Y-7309204D02*
X58410773Y-7312804D01*
X58434572Y-7318765D01*
X58457671Y-7327030D01*
X58479850Y-7337520D01*
X58500893Y-7350132D01*
X58520599Y-7364747D01*
X58538777Y-7381223D01*
X58555253Y-7399401D01*
X58569868Y-7419107D01*
X58582480Y-7440150D01*
X58592970Y-7462329D01*
X58601235Y-7485428D01*
X58607196Y-7509227D01*
X58610796Y-7533495D01*
X58612000Y-7557999D01*
X58612000Y-8208001D01*
X58610796Y-8232505D01*
X58607196Y-8256773D01*
X58601235Y-8280572D01*
X58592970Y-8303671D01*
X58582480Y-8325850D01*
X58569868Y-8346893D01*
X58555253Y-8366599D01*
X58538777Y-8384777D01*
X58520599Y-8401253D01*
X58500893Y-8415868D01*
X58479850Y-8428480D01*
X58457671Y-8438970D01*
X58434572Y-8447235D01*
X58410773Y-8453196D01*
X58386505Y-8456796D01*
X58362001Y-8458000D01*
X57461999Y-8458000D01*
X57437495Y-8456796D01*
X57413227Y-8453196D01*
X57389428Y-8447235D01*
X57366329Y-8438970D01*
X57344150Y-8428480D01*
X57323107Y-8415868D01*
X57303401Y-8401253D01*
X57285223Y-8384777D01*
X57268747Y-8366599D01*
X57254132Y-8346893D01*
X57241520Y-8325850D01*
X57231030Y-8303671D01*
X57222765Y-8280572D01*
X57216804Y-8256773D01*
X57213204Y-8232505D01*
X57212000Y-8208001D01*
X57212000Y-7557999D01*
X57213204Y-7533495D01*
X57216804Y-7509227D01*
X57222765Y-7485428D01*
X57231030Y-7462329D01*
X57241520Y-7440150D01*
X57254132Y-7419107D01*
X57268747Y-7399401D01*
X57285223Y-7381223D01*
X57303401Y-7364747D01*
X57323107Y-7350132D01*
X57344150Y-7337520D01*
X57366329Y-7327030D01*
X57389428Y-7318765D01*
X57413227Y-7312804D01*
X57437495Y-7309204D01*
X57461999Y-7308000D01*
X58362001Y-7308000D01*
X58386505Y-7309204D01*
X58386505Y-7309204D01*
G37*
D12*
X57912000Y-7883000D03*
G04 #@! TD*
D10*
G04 #@! TO.C,R8*
G36*
X58386505Y-9958204D02*
X58410773Y-9961804D01*
X58434572Y-9967765D01*
X58457671Y-9976030D01*
X58479850Y-9986520D01*
X58500893Y-9999132D01*
X58520599Y-10013747D01*
X58538777Y-10030223D01*
X58555253Y-10048401D01*
X58569868Y-10068107D01*
X58582480Y-10089150D01*
X58592970Y-10111329D01*
X58601235Y-10134428D01*
X58607196Y-10158227D01*
X58610796Y-10182495D01*
X58612000Y-10206999D01*
X58612000Y-10857001D01*
X58610796Y-10881505D01*
X58607196Y-10905773D01*
X58601235Y-10929572D01*
X58592970Y-10952671D01*
X58582480Y-10974850D01*
X58569868Y-10995893D01*
X58555253Y-11015599D01*
X58538777Y-11033777D01*
X58520599Y-11050253D01*
X58500893Y-11064868D01*
X58479850Y-11077480D01*
X58457671Y-11087970D01*
X58434572Y-11096235D01*
X58410773Y-11102196D01*
X58386505Y-11105796D01*
X58362001Y-11107000D01*
X57461999Y-11107000D01*
X57437495Y-11105796D01*
X57413227Y-11102196D01*
X57389428Y-11096235D01*
X57366329Y-11087970D01*
X57344150Y-11077480D01*
X57323107Y-11064868D01*
X57303401Y-11050253D01*
X57285223Y-11033777D01*
X57268747Y-11015599D01*
X57254132Y-10995893D01*
X57241520Y-10974850D01*
X57231030Y-10952671D01*
X57222765Y-10929572D01*
X57216804Y-10905773D01*
X57213204Y-10881505D01*
X57212000Y-10857001D01*
X57212000Y-10206999D01*
X57213204Y-10182495D01*
X57216804Y-10158227D01*
X57222765Y-10134428D01*
X57231030Y-10111329D01*
X57241520Y-10089150D01*
X57254132Y-10068107D01*
X57268747Y-10048401D01*
X57285223Y-10030223D01*
X57303401Y-10013747D01*
X57323107Y-9999132D01*
X57344150Y-9986520D01*
X57366329Y-9976030D01*
X57389428Y-9967765D01*
X57413227Y-9961804D01*
X57437495Y-9958204D01*
X57461999Y-9957000D01*
X58362001Y-9957000D01*
X58386505Y-9958204D01*
X58386505Y-9958204D01*
G37*
D12*
X57912000Y-10532000D03*
D10*
G36*
X58386505Y-12008204D02*
X58410773Y-12011804D01*
X58434572Y-12017765D01*
X58457671Y-12026030D01*
X58479850Y-12036520D01*
X58500893Y-12049132D01*
X58520599Y-12063747D01*
X58538777Y-12080223D01*
X58555253Y-12098401D01*
X58569868Y-12118107D01*
X58582480Y-12139150D01*
X58592970Y-12161329D01*
X58601235Y-12184428D01*
X58607196Y-12208227D01*
X58610796Y-12232495D01*
X58612000Y-12256999D01*
X58612000Y-12907001D01*
X58610796Y-12931505D01*
X58607196Y-12955773D01*
X58601235Y-12979572D01*
X58592970Y-13002671D01*
X58582480Y-13024850D01*
X58569868Y-13045893D01*
X58555253Y-13065599D01*
X58538777Y-13083777D01*
X58520599Y-13100253D01*
X58500893Y-13114868D01*
X58479850Y-13127480D01*
X58457671Y-13137970D01*
X58434572Y-13146235D01*
X58410773Y-13152196D01*
X58386505Y-13155796D01*
X58362001Y-13157000D01*
X57461999Y-13157000D01*
X57437495Y-13155796D01*
X57413227Y-13152196D01*
X57389428Y-13146235D01*
X57366329Y-13137970D01*
X57344150Y-13127480D01*
X57323107Y-13114868D01*
X57303401Y-13100253D01*
X57285223Y-13083777D01*
X57268747Y-13065599D01*
X57254132Y-13045893D01*
X57241520Y-13024850D01*
X57231030Y-13002671D01*
X57222765Y-12979572D01*
X57216804Y-12955773D01*
X57213204Y-12931505D01*
X57212000Y-12907001D01*
X57212000Y-12256999D01*
X57213204Y-12232495D01*
X57216804Y-12208227D01*
X57222765Y-12184428D01*
X57231030Y-12161329D01*
X57241520Y-12139150D01*
X57254132Y-12118107D01*
X57268747Y-12098401D01*
X57285223Y-12080223D01*
X57303401Y-12063747D01*
X57323107Y-12049132D01*
X57344150Y-12036520D01*
X57366329Y-12026030D01*
X57389428Y-12017765D01*
X57413227Y-12011804D01*
X57437495Y-12008204D01*
X57461999Y-12007000D01*
X58362001Y-12007000D01*
X58386505Y-12008204D01*
X58386505Y-12008204D01*
G37*
D12*
X57912000Y-12582000D03*
G04 #@! TD*
D10*
G04 #@! TO.C,R7*
G36*
X29060505Y-12255204D02*
X29084773Y-12258804D01*
X29108572Y-12264765D01*
X29131671Y-12273030D01*
X29153850Y-12283520D01*
X29174893Y-12296132D01*
X29194599Y-12310747D01*
X29212777Y-12327223D01*
X29229253Y-12345401D01*
X29243868Y-12365107D01*
X29256480Y-12386150D01*
X29266970Y-12408329D01*
X29275235Y-12431428D01*
X29281196Y-12455227D01*
X29284796Y-12479495D01*
X29286000Y-12503999D01*
X29286000Y-13404001D01*
X29284796Y-13428505D01*
X29281196Y-13452773D01*
X29275235Y-13476572D01*
X29266970Y-13499671D01*
X29256480Y-13521850D01*
X29243868Y-13542893D01*
X29229253Y-13562599D01*
X29212777Y-13580777D01*
X29194599Y-13597253D01*
X29174893Y-13611868D01*
X29153850Y-13624480D01*
X29131671Y-13634970D01*
X29108572Y-13643235D01*
X29084773Y-13649196D01*
X29060505Y-13652796D01*
X29036001Y-13654000D01*
X28385999Y-13654000D01*
X28361495Y-13652796D01*
X28337227Y-13649196D01*
X28313428Y-13643235D01*
X28290329Y-13634970D01*
X28268150Y-13624480D01*
X28247107Y-13611868D01*
X28227401Y-13597253D01*
X28209223Y-13580777D01*
X28192747Y-13562599D01*
X28178132Y-13542893D01*
X28165520Y-13521850D01*
X28155030Y-13499671D01*
X28146765Y-13476572D01*
X28140804Y-13452773D01*
X28137204Y-13428505D01*
X28136000Y-13404001D01*
X28136000Y-12503999D01*
X28137204Y-12479495D01*
X28140804Y-12455227D01*
X28146765Y-12431428D01*
X28155030Y-12408329D01*
X28165520Y-12386150D01*
X28178132Y-12365107D01*
X28192747Y-12345401D01*
X28209223Y-12327223D01*
X28227401Y-12310747D01*
X28247107Y-12296132D01*
X28268150Y-12283520D01*
X28290329Y-12273030D01*
X28313428Y-12264765D01*
X28337227Y-12258804D01*
X28361495Y-12255204D01*
X28385999Y-12254000D01*
X29036001Y-12254000D01*
X29060505Y-12255204D01*
X29060505Y-12255204D01*
G37*
D12*
X28711000Y-12954000D03*
D10*
G36*
X27010505Y-12255204D02*
X27034773Y-12258804D01*
X27058572Y-12264765D01*
X27081671Y-12273030D01*
X27103850Y-12283520D01*
X27124893Y-12296132D01*
X27144599Y-12310747D01*
X27162777Y-12327223D01*
X27179253Y-12345401D01*
X27193868Y-12365107D01*
X27206480Y-12386150D01*
X27216970Y-12408329D01*
X27225235Y-12431428D01*
X27231196Y-12455227D01*
X27234796Y-12479495D01*
X27236000Y-12503999D01*
X27236000Y-13404001D01*
X27234796Y-13428505D01*
X27231196Y-13452773D01*
X27225235Y-13476572D01*
X27216970Y-13499671D01*
X27206480Y-13521850D01*
X27193868Y-13542893D01*
X27179253Y-13562599D01*
X27162777Y-13580777D01*
X27144599Y-13597253D01*
X27124893Y-13611868D01*
X27103850Y-13624480D01*
X27081671Y-13634970D01*
X27058572Y-13643235D01*
X27034773Y-13649196D01*
X27010505Y-13652796D01*
X26986001Y-13654000D01*
X26335999Y-13654000D01*
X26311495Y-13652796D01*
X26287227Y-13649196D01*
X26263428Y-13643235D01*
X26240329Y-13634970D01*
X26218150Y-13624480D01*
X26197107Y-13611868D01*
X26177401Y-13597253D01*
X26159223Y-13580777D01*
X26142747Y-13562599D01*
X26128132Y-13542893D01*
X26115520Y-13521850D01*
X26105030Y-13499671D01*
X26096765Y-13476572D01*
X26090804Y-13452773D01*
X26087204Y-13428505D01*
X26086000Y-13404001D01*
X26086000Y-12503999D01*
X26087204Y-12479495D01*
X26090804Y-12455227D01*
X26096765Y-12431428D01*
X26105030Y-12408329D01*
X26115520Y-12386150D01*
X26128132Y-12365107D01*
X26142747Y-12345401D01*
X26159223Y-12327223D01*
X26177401Y-12310747D01*
X26197107Y-12296132D01*
X26218150Y-12283520D01*
X26240329Y-12273030D01*
X26263428Y-12264765D01*
X26287227Y-12258804D01*
X26311495Y-12255204D01*
X26335999Y-12254000D01*
X26986001Y-12254000D01*
X27010505Y-12255204D01*
X27010505Y-12255204D01*
G37*
D12*
X26661000Y-12954000D03*
G04 #@! TD*
D10*
G04 #@! TO.C,R5*
G36*
X77390805Y-25336204D02*
X77415073Y-25339804D01*
X77438872Y-25345765D01*
X77461971Y-25354030D01*
X77484150Y-25364520D01*
X77505193Y-25377132D01*
X77524899Y-25391747D01*
X77543077Y-25408223D01*
X77559553Y-25426401D01*
X77574168Y-25446107D01*
X77586780Y-25467150D01*
X77597270Y-25489329D01*
X77605535Y-25512428D01*
X77611496Y-25536227D01*
X77615096Y-25560495D01*
X77616300Y-25584999D01*
X77616300Y-26485001D01*
X77615096Y-26509505D01*
X77611496Y-26533773D01*
X77605535Y-26557572D01*
X77597270Y-26580671D01*
X77586780Y-26602850D01*
X77574168Y-26623893D01*
X77559553Y-26643599D01*
X77543077Y-26661777D01*
X77524899Y-26678253D01*
X77505193Y-26692868D01*
X77484150Y-26705480D01*
X77461971Y-26715970D01*
X77438872Y-26724235D01*
X77415073Y-26730196D01*
X77390805Y-26733796D01*
X77366301Y-26735000D01*
X76716299Y-26735000D01*
X76691795Y-26733796D01*
X76667527Y-26730196D01*
X76643728Y-26724235D01*
X76620629Y-26715970D01*
X76598450Y-26705480D01*
X76577407Y-26692868D01*
X76557701Y-26678253D01*
X76539523Y-26661777D01*
X76523047Y-26643599D01*
X76508432Y-26623893D01*
X76495820Y-26602850D01*
X76485330Y-26580671D01*
X76477065Y-26557572D01*
X76471104Y-26533773D01*
X76467504Y-26509505D01*
X76466300Y-26485001D01*
X76466300Y-25584999D01*
X76467504Y-25560495D01*
X76471104Y-25536227D01*
X76477065Y-25512428D01*
X76485330Y-25489329D01*
X76495820Y-25467150D01*
X76508432Y-25446107D01*
X76523047Y-25426401D01*
X76539523Y-25408223D01*
X76557701Y-25391747D01*
X76577407Y-25377132D01*
X76598450Y-25364520D01*
X76620629Y-25354030D01*
X76643728Y-25345765D01*
X76667527Y-25339804D01*
X76691795Y-25336204D01*
X76716299Y-25335000D01*
X77366301Y-25335000D01*
X77390805Y-25336204D01*
X77390805Y-25336204D01*
G37*
D12*
X77041300Y-26035000D03*
D10*
G36*
X79440805Y-25336204D02*
X79465073Y-25339804D01*
X79488872Y-25345765D01*
X79511971Y-25354030D01*
X79534150Y-25364520D01*
X79555193Y-25377132D01*
X79574899Y-25391747D01*
X79593077Y-25408223D01*
X79609553Y-25426401D01*
X79624168Y-25446107D01*
X79636780Y-25467150D01*
X79647270Y-25489329D01*
X79655535Y-25512428D01*
X79661496Y-25536227D01*
X79665096Y-25560495D01*
X79666300Y-25584999D01*
X79666300Y-26485001D01*
X79665096Y-26509505D01*
X79661496Y-26533773D01*
X79655535Y-26557572D01*
X79647270Y-26580671D01*
X79636780Y-26602850D01*
X79624168Y-26623893D01*
X79609553Y-26643599D01*
X79593077Y-26661777D01*
X79574899Y-26678253D01*
X79555193Y-26692868D01*
X79534150Y-26705480D01*
X79511971Y-26715970D01*
X79488872Y-26724235D01*
X79465073Y-26730196D01*
X79440805Y-26733796D01*
X79416301Y-26735000D01*
X78766299Y-26735000D01*
X78741795Y-26733796D01*
X78717527Y-26730196D01*
X78693728Y-26724235D01*
X78670629Y-26715970D01*
X78648450Y-26705480D01*
X78627407Y-26692868D01*
X78607701Y-26678253D01*
X78589523Y-26661777D01*
X78573047Y-26643599D01*
X78558432Y-26623893D01*
X78545820Y-26602850D01*
X78535330Y-26580671D01*
X78527065Y-26557572D01*
X78521104Y-26533773D01*
X78517504Y-26509505D01*
X78516300Y-26485001D01*
X78516300Y-25584999D01*
X78517504Y-25560495D01*
X78521104Y-25536227D01*
X78527065Y-25512428D01*
X78535330Y-25489329D01*
X78545820Y-25467150D01*
X78558432Y-25446107D01*
X78573047Y-25426401D01*
X78589523Y-25408223D01*
X78607701Y-25391747D01*
X78627407Y-25377132D01*
X78648450Y-25364520D01*
X78670629Y-25354030D01*
X78693728Y-25345765D01*
X78717527Y-25339804D01*
X78741795Y-25336204D01*
X78766299Y-25335000D01*
X79416301Y-25335000D01*
X79440805Y-25336204D01*
X79440805Y-25336204D01*
G37*
D12*
X79091300Y-26035000D03*
G04 #@! TD*
D10*
G04 #@! TO.C,R4*
G36*
X65410105Y-25336204D02*
X65434373Y-25339804D01*
X65458172Y-25345765D01*
X65481271Y-25354030D01*
X65503450Y-25364520D01*
X65524493Y-25377132D01*
X65544199Y-25391747D01*
X65562377Y-25408223D01*
X65578853Y-25426401D01*
X65593468Y-25446107D01*
X65606080Y-25467150D01*
X65616570Y-25489329D01*
X65624835Y-25512428D01*
X65630796Y-25536227D01*
X65634396Y-25560495D01*
X65635600Y-25584999D01*
X65635600Y-26485001D01*
X65634396Y-26509505D01*
X65630796Y-26533773D01*
X65624835Y-26557572D01*
X65616570Y-26580671D01*
X65606080Y-26602850D01*
X65593468Y-26623893D01*
X65578853Y-26643599D01*
X65562377Y-26661777D01*
X65544199Y-26678253D01*
X65524493Y-26692868D01*
X65503450Y-26705480D01*
X65481271Y-26715970D01*
X65458172Y-26724235D01*
X65434373Y-26730196D01*
X65410105Y-26733796D01*
X65385601Y-26735000D01*
X64735599Y-26735000D01*
X64711095Y-26733796D01*
X64686827Y-26730196D01*
X64663028Y-26724235D01*
X64639929Y-26715970D01*
X64617750Y-26705480D01*
X64596707Y-26692868D01*
X64577001Y-26678253D01*
X64558823Y-26661777D01*
X64542347Y-26643599D01*
X64527732Y-26623893D01*
X64515120Y-26602850D01*
X64504630Y-26580671D01*
X64496365Y-26557572D01*
X64490404Y-26533773D01*
X64486804Y-26509505D01*
X64485600Y-26485001D01*
X64485600Y-25584999D01*
X64486804Y-25560495D01*
X64490404Y-25536227D01*
X64496365Y-25512428D01*
X64504630Y-25489329D01*
X64515120Y-25467150D01*
X64527732Y-25446107D01*
X64542347Y-25426401D01*
X64558823Y-25408223D01*
X64577001Y-25391747D01*
X64596707Y-25377132D01*
X64617750Y-25364520D01*
X64639929Y-25354030D01*
X64663028Y-25345765D01*
X64686827Y-25339804D01*
X64711095Y-25336204D01*
X64735599Y-25335000D01*
X65385601Y-25335000D01*
X65410105Y-25336204D01*
X65410105Y-25336204D01*
G37*
D12*
X65060600Y-26035000D03*
D10*
G36*
X63360105Y-25336204D02*
X63384373Y-25339804D01*
X63408172Y-25345765D01*
X63431271Y-25354030D01*
X63453450Y-25364520D01*
X63474493Y-25377132D01*
X63494199Y-25391747D01*
X63512377Y-25408223D01*
X63528853Y-25426401D01*
X63543468Y-25446107D01*
X63556080Y-25467150D01*
X63566570Y-25489329D01*
X63574835Y-25512428D01*
X63580796Y-25536227D01*
X63584396Y-25560495D01*
X63585600Y-25584999D01*
X63585600Y-26485001D01*
X63584396Y-26509505D01*
X63580796Y-26533773D01*
X63574835Y-26557572D01*
X63566570Y-26580671D01*
X63556080Y-26602850D01*
X63543468Y-26623893D01*
X63528853Y-26643599D01*
X63512377Y-26661777D01*
X63494199Y-26678253D01*
X63474493Y-26692868D01*
X63453450Y-26705480D01*
X63431271Y-26715970D01*
X63408172Y-26724235D01*
X63384373Y-26730196D01*
X63360105Y-26733796D01*
X63335601Y-26735000D01*
X62685599Y-26735000D01*
X62661095Y-26733796D01*
X62636827Y-26730196D01*
X62613028Y-26724235D01*
X62589929Y-26715970D01*
X62567750Y-26705480D01*
X62546707Y-26692868D01*
X62527001Y-26678253D01*
X62508823Y-26661777D01*
X62492347Y-26643599D01*
X62477732Y-26623893D01*
X62465120Y-26602850D01*
X62454630Y-26580671D01*
X62446365Y-26557572D01*
X62440404Y-26533773D01*
X62436804Y-26509505D01*
X62435600Y-26485001D01*
X62435600Y-25584999D01*
X62436804Y-25560495D01*
X62440404Y-25536227D01*
X62446365Y-25512428D01*
X62454630Y-25489329D01*
X62465120Y-25467150D01*
X62477732Y-25446107D01*
X62492347Y-25426401D01*
X62508823Y-25408223D01*
X62527001Y-25391747D01*
X62546707Y-25377132D01*
X62567750Y-25364520D01*
X62589929Y-25354030D01*
X62613028Y-25345765D01*
X62636827Y-25339804D01*
X62661095Y-25336204D01*
X62685599Y-25335000D01*
X63335601Y-25335000D01*
X63360105Y-25336204D01*
X63360105Y-25336204D01*
G37*
D12*
X63010600Y-26035000D03*
G04 #@! TD*
D10*
G04 #@! TO.C,R3*
G36*
X49202405Y-25336204D02*
X49226673Y-25339804D01*
X49250472Y-25345765D01*
X49273571Y-25354030D01*
X49295750Y-25364520D01*
X49316793Y-25377132D01*
X49336499Y-25391747D01*
X49354677Y-25408223D01*
X49371153Y-25426401D01*
X49385768Y-25446107D01*
X49398380Y-25467150D01*
X49408870Y-25489329D01*
X49417135Y-25512428D01*
X49423096Y-25536227D01*
X49426696Y-25560495D01*
X49427900Y-25584999D01*
X49427900Y-26485001D01*
X49426696Y-26509505D01*
X49423096Y-26533773D01*
X49417135Y-26557572D01*
X49408870Y-26580671D01*
X49398380Y-26602850D01*
X49385768Y-26623893D01*
X49371153Y-26643599D01*
X49354677Y-26661777D01*
X49336499Y-26678253D01*
X49316793Y-26692868D01*
X49295750Y-26705480D01*
X49273571Y-26715970D01*
X49250472Y-26724235D01*
X49226673Y-26730196D01*
X49202405Y-26733796D01*
X49177901Y-26735000D01*
X48527899Y-26735000D01*
X48503395Y-26733796D01*
X48479127Y-26730196D01*
X48455328Y-26724235D01*
X48432229Y-26715970D01*
X48410050Y-26705480D01*
X48389007Y-26692868D01*
X48369301Y-26678253D01*
X48351123Y-26661777D01*
X48334647Y-26643599D01*
X48320032Y-26623893D01*
X48307420Y-26602850D01*
X48296930Y-26580671D01*
X48288665Y-26557572D01*
X48282704Y-26533773D01*
X48279104Y-26509505D01*
X48277900Y-26485001D01*
X48277900Y-25584999D01*
X48279104Y-25560495D01*
X48282704Y-25536227D01*
X48288665Y-25512428D01*
X48296930Y-25489329D01*
X48307420Y-25467150D01*
X48320032Y-25446107D01*
X48334647Y-25426401D01*
X48351123Y-25408223D01*
X48369301Y-25391747D01*
X48389007Y-25377132D01*
X48410050Y-25364520D01*
X48432229Y-25354030D01*
X48455328Y-25345765D01*
X48479127Y-25339804D01*
X48503395Y-25336204D01*
X48527899Y-25335000D01*
X49177901Y-25335000D01*
X49202405Y-25336204D01*
X49202405Y-25336204D01*
G37*
D12*
X48852900Y-26035000D03*
D10*
G36*
X51252405Y-25336204D02*
X51276673Y-25339804D01*
X51300472Y-25345765D01*
X51323571Y-25354030D01*
X51345750Y-25364520D01*
X51366793Y-25377132D01*
X51386499Y-25391747D01*
X51404677Y-25408223D01*
X51421153Y-25426401D01*
X51435768Y-25446107D01*
X51448380Y-25467150D01*
X51458870Y-25489329D01*
X51467135Y-25512428D01*
X51473096Y-25536227D01*
X51476696Y-25560495D01*
X51477900Y-25584999D01*
X51477900Y-26485001D01*
X51476696Y-26509505D01*
X51473096Y-26533773D01*
X51467135Y-26557572D01*
X51458870Y-26580671D01*
X51448380Y-26602850D01*
X51435768Y-26623893D01*
X51421153Y-26643599D01*
X51404677Y-26661777D01*
X51386499Y-26678253D01*
X51366793Y-26692868D01*
X51345750Y-26705480D01*
X51323571Y-26715970D01*
X51300472Y-26724235D01*
X51276673Y-26730196D01*
X51252405Y-26733796D01*
X51227901Y-26735000D01*
X50577899Y-26735000D01*
X50553395Y-26733796D01*
X50529127Y-26730196D01*
X50505328Y-26724235D01*
X50482229Y-26715970D01*
X50460050Y-26705480D01*
X50439007Y-26692868D01*
X50419301Y-26678253D01*
X50401123Y-26661777D01*
X50384647Y-26643599D01*
X50370032Y-26623893D01*
X50357420Y-26602850D01*
X50346930Y-26580671D01*
X50338665Y-26557572D01*
X50332704Y-26533773D01*
X50329104Y-26509505D01*
X50327900Y-26485001D01*
X50327900Y-25584999D01*
X50329104Y-25560495D01*
X50332704Y-25536227D01*
X50338665Y-25512428D01*
X50346930Y-25489329D01*
X50357420Y-25467150D01*
X50370032Y-25446107D01*
X50384647Y-25426401D01*
X50401123Y-25408223D01*
X50419301Y-25391747D01*
X50439007Y-25377132D01*
X50460050Y-25364520D01*
X50482229Y-25354030D01*
X50505328Y-25345765D01*
X50529127Y-25339804D01*
X50553395Y-25336204D01*
X50577899Y-25335000D01*
X51227901Y-25335000D01*
X51252405Y-25336204D01*
X51252405Y-25336204D01*
G37*
D12*
X50902900Y-26035000D03*
G04 #@! TD*
D10*
G04 #@! TO.C,R2*
G36*
X37221605Y-25336204D02*
X37245873Y-25339804D01*
X37269672Y-25345765D01*
X37292771Y-25354030D01*
X37314950Y-25364520D01*
X37335993Y-25377132D01*
X37355699Y-25391747D01*
X37373877Y-25408223D01*
X37390353Y-25426401D01*
X37404968Y-25446107D01*
X37417580Y-25467150D01*
X37428070Y-25489329D01*
X37436335Y-25512428D01*
X37442296Y-25536227D01*
X37445896Y-25560495D01*
X37447100Y-25584999D01*
X37447100Y-26485001D01*
X37445896Y-26509505D01*
X37442296Y-26533773D01*
X37436335Y-26557572D01*
X37428070Y-26580671D01*
X37417580Y-26602850D01*
X37404968Y-26623893D01*
X37390353Y-26643599D01*
X37373877Y-26661777D01*
X37355699Y-26678253D01*
X37335993Y-26692868D01*
X37314950Y-26705480D01*
X37292771Y-26715970D01*
X37269672Y-26724235D01*
X37245873Y-26730196D01*
X37221605Y-26733796D01*
X37197101Y-26735000D01*
X36547099Y-26735000D01*
X36522595Y-26733796D01*
X36498327Y-26730196D01*
X36474528Y-26724235D01*
X36451429Y-26715970D01*
X36429250Y-26705480D01*
X36408207Y-26692868D01*
X36388501Y-26678253D01*
X36370323Y-26661777D01*
X36353847Y-26643599D01*
X36339232Y-26623893D01*
X36326620Y-26602850D01*
X36316130Y-26580671D01*
X36307865Y-26557572D01*
X36301904Y-26533773D01*
X36298304Y-26509505D01*
X36297100Y-26485001D01*
X36297100Y-25584999D01*
X36298304Y-25560495D01*
X36301904Y-25536227D01*
X36307865Y-25512428D01*
X36316130Y-25489329D01*
X36326620Y-25467150D01*
X36339232Y-25446107D01*
X36353847Y-25426401D01*
X36370323Y-25408223D01*
X36388501Y-25391747D01*
X36408207Y-25377132D01*
X36429250Y-25364520D01*
X36451429Y-25354030D01*
X36474528Y-25345765D01*
X36498327Y-25339804D01*
X36522595Y-25336204D01*
X36547099Y-25335000D01*
X37197101Y-25335000D01*
X37221605Y-25336204D01*
X37221605Y-25336204D01*
G37*
D12*
X36872100Y-26035000D03*
D10*
G36*
X35171605Y-25336204D02*
X35195873Y-25339804D01*
X35219672Y-25345765D01*
X35242771Y-25354030D01*
X35264950Y-25364520D01*
X35285993Y-25377132D01*
X35305699Y-25391747D01*
X35323877Y-25408223D01*
X35340353Y-25426401D01*
X35354968Y-25446107D01*
X35367580Y-25467150D01*
X35378070Y-25489329D01*
X35386335Y-25512428D01*
X35392296Y-25536227D01*
X35395896Y-25560495D01*
X35397100Y-25584999D01*
X35397100Y-26485001D01*
X35395896Y-26509505D01*
X35392296Y-26533773D01*
X35386335Y-26557572D01*
X35378070Y-26580671D01*
X35367580Y-26602850D01*
X35354968Y-26623893D01*
X35340353Y-26643599D01*
X35323877Y-26661777D01*
X35305699Y-26678253D01*
X35285993Y-26692868D01*
X35264950Y-26705480D01*
X35242771Y-26715970D01*
X35219672Y-26724235D01*
X35195873Y-26730196D01*
X35171605Y-26733796D01*
X35147101Y-26735000D01*
X34497099Y-26735000D01*
X34472595Y-26733796D01*
X34448327Y-26730196D01*
X34424528Y-26724235D01*
X34401429Y-26715970D01*
X34379250Y-26705480D01*
X34358207Y-26692868D01*
X34338501Y-26678253D01*
X34320323Y-26661777D01*
X34303847Y-26643599D01*
X34289232Y-26623893D01*
X34276620Y-26602850D01*
X34266130Y-26580671D01*
X34257865Y-26557572D01*
X34251904Y-26533773D01*
X34248304Y-26509505D01*
X34247100Y-26485001D01*
X34247100Y-25584999D01*
X34248304Y-25560495D01*
X34251904Y-25536227D01*
X34257865Y-25512428D01*
X34266130Y-25489329D01*
X34276620Y-25467150D01*
X34289232Y-25446107D01*
X34303847Y-25426401D01*
X34320323Y-25408223D01*
X34338501Y-25391747D01*
X34358207Y-25377132D01*
X34379250Y-25364520D01*
X34401429Y-25354030D01*
X34424528Y-25345765D01*
X34448327Y-25339804D01*
X34472595Y-25336204D01*
X34497099Y-25335000D01*
X35147101Y-25335000D01*
X35171605Y-25336204D01*
X35171605Y-25336204D01*
G37*
D12*
X34822100Y-26035000D03*
G04 #@! TD*
D10*
G04 #@! TO.C,R1*
G36*
X21041505Y-25336204D02*
X21065773Y-25339804D01*
X21089572Y-25345765D01*
X21112671Y-25354030D01*
X21134850Y-25364520D01*
X21155893Y-25377132D01*
X21175599Y-25391747D01*
X21193777Y-25408223D01*
X21210253Y-25426401D01*
X21224868Y-25446107D01*
X21237480Y-25467150D01*
X21247970Y-25489329D01*
X21256235Y-25512428D01*
X21262196Y-25536227D01*
X21265796Y-25560495D01*
X21267000Y-25584999D01*
X21267000Y-26485001D01*
X21265796Y-26509505D01*
X21262196Y-26533773D01*
X21256235Y-26557572D01*
X21247970Y-26580671D01*
X21237480Y-26602850D01*
X21224868Y-26623893D01*
X21210253Y-26643599D01*
X21193777Y-26661777D01*
X21175599Y-26678253D01*
X21155893Y-26692868D01*
X21134850Y-26705480D01*
X21112671Y-26715970D01*
X21089572Y-26724235D01*
X21065773Y-26730196D01*
X21041505Y-26733796D01*
X21017001Y-26735000D01*
X20366999Y-26735000D01*
X20342495Y-26733796D01*
X20318227Y-26730196D01*
X20294428Y-26724235D01*
X20271329Y-26715970D01*
X20249150Y-26705480D01*
X20228107Y-26692868D01*
X20208401Y-26678253D01*
X20190223Y-26661777D01*
X20173747Y-26643599D01*
X20159132Y-26623893D01*
X20146520Y-26602850D01*
X20136030Y-26580671D01*
X20127765Y-26557572D01*
X20121804Y-26533773D01*
X20118204Y-26509505D01*
X20117000Y-26485001D01*
X20117000Y-25584999D01*
X20118204Y-25560495D01*
X20121804Y-25536227D01*
X20127765Y-25512428D01*
X20136030Y-25489329D01*
X20146520Y-25467150D01*
X20159132Y-25446107D01*
X20173747Y-25426401D01*
X20190223Y-25408223D01*
X20208401Y-25391747D01*
X20228107Y-25377132D01*
X20249150Y-25364520D01*
X20271329Y-25354030D01*
X20294428Y-25345765D01*
X20318227Y-25339804D01*
X20342495Y-25336204D01*
X20366999Y-25335000D01*
X21017001Y-25335000D01*
X21041505Y-25336204D01*
X21041505Y-25336204D01*
G37*
D12*
X20692000Y-26035000D03*
D10*
G36*
X23091505Y-25336204D02*
X23115773Y-25339804D01*
X23139572Y-25345765D01*
X23162671Y-25354030D01*
X23184850Y-25364520D01*
X23205893Y-25377132D01*
X23225599Y-25391747D01*
X23243777Y-25408223D01*
X23260253Y-25426401D01*
X23274868Y-25446107D01*
X23287480Y-25467150D01*
X23297970Y-25489329D01*
X23306235Y-25512428D01*
X23312196Y-25536227D01*
X23315796Y-25560495D01*
X23317000Y-25584999D01*
X23317000Y-26485001D01*
X23315796Y-26509505D01*
X23312196Y-26533773D01*
X23306235Y-26557572D01*
X23297970Y-26580671D01*
X23287480Y-26602850D01*
X23274868Y-26623893D01*
X23260253Y-26643599D01*
X23243777Y-26661777D01*
X23225599Y-26678253D01*
X23205893Y-26692868D01*
X23184850Y-26705480D01*
X23162671Y-26715970D01*
X23139572Y-26724235D01*
X23115773Y-26730196D01*
X23091505Y-26733796D01*
X23067001Y-26735000D01*
X22416999Y-26735000D01*
X22392495Y-26733796D01*
X22368227Y-26730196D01*
X22344428Y-26724235D01*
X22321329Y-26715970D01*
X22299150Y-26705480D01*
X22278107Y-26692868D01*
X22258401Y-26678253D01*
X22240223Y-26661777D01*
X22223747Y-26643599D01*
X22209132Y-26623893D01*
X22196520Y-26602850D01*
X22186030Y-26580671D01*
X22177765Y-26557572D01*
X22171804Y-26533773D01*
X22168204Y-26509505D01*
X22167000Y-26485001D01*
X22167000Y-25584999D01*
X22168204Y-25560495D01*
X22171804Y-25536227D01*
X22177765Y-25512428D01*
X22186030Y-25489329D01*
X22196520Y-25467150D01*
X22209132Y-25446107D01*
X22223747Y-25426401D01*
X22240223Y-25408223D01*
X22258401Y-25391747D01*
X22278107Y-25377132D01*
X22299150Y-25364520D01*
X22321329Y-25354030D01*
X22344428Y-25345765D01*
X22368227Y-25339804D01*
X22392495Y-25336204D01*
X22416999Y-25335000D01*
X23067001Y-25335000D01*
X23091505Y-25336204D01*
X23091505Y-25336204D01*
G37*
D12*
X22742000Y-26035000D03*
G04 #@! TD*
M02*
