M48
INCH,TZ
T1C0.0157
T2C0.0197
T3C0.0276
T4C0.0315
T5C0.0362
T6C0.0394
T7C0.0433
T8C0.0550
T9C0.0866
T10C0.0917
T11C0.1260
%
G90
G05
T1
X2211Y-9849
X4055Y-8228
X5137Y-2750
X5423Y-2475
X6443Y-3786
X6557Y-5086
X6662Y-2909
X7111Y-4895
X7122Y-4072
X7534Y-3238
X8349Y-4135
X8780Y-6063
X8893Y-2161
X9362Y-5161
X12900Y-9700
X13000Y-10250
X15950Y-8200
X19200Y-8200
T2
X31405Y-1400
X31682Y-732
X31682Y-2068
X32350Y-455
X32350Y-2345
X33018Y-732
X33018Y-2068
X33295Y-1400
X455Y-1400
X732Y-732
X732Y-2068
X1400Y-455
X1400Y-2345
X2068Y-732
X2068Y-2068
X2345Y-1400
X31405Y-19850
X31682Y-19182
X31682Y-20518
X32350Y-18905
X32350Y-20795
X33018Y-19182
X33018Y-20518
X33295Y-19850
X455Y-19850
X732Y-19182
X732Y-20518
X1400Y-18905
X1400Y-20795
X2068Y-19182
X2068Y-20518
X2345Y-19850
T4
X13750Y-4116
X13750Y-5100
X14000Y-1266
X14000Y-2250
T5
X18100Y-5163
X18100Y-5950
X19084Y-5163
X19084Y-5950
T6
X7566Y-16056
X8550Y-16056
X9535Y-16056
X1350Y-4350
X1350Y-5350
X1350Y-6350
X2350Y-4350
X2350Y-5350
X2350Y-6350
X13116Y-16056
X14100Y-16056
X15084Y-16056
X29765Y-16056
X30749Y-16056
X31734Y-16056
X24215Y-16056
X25200Y-16056
X26184Y-16056
X2016Y-16106
X3001Y-16106
X3985Y-16106
X18666Y-16056
X19650Y-16056
X20634Y-16056
T7
X13260Y-17550
X13260Y-19322
X15819Y-17550
X15819Y-19322
X22620Y-17550
X22620Y-19322
X25179Y-17550
X25179Y-19322
X17940Y-17550
X17940Y-19322
X20499Y-17550
X20499Y-19322
X8580Y-17550
X8580Y-19322
X11139Y-17550
X11139Y-19322
X3900Y-17550
X3900Y-19322
X6459Y-17550
X6459Y-19322
X27300Y-17550
X27300Y-19322
X29859Y-17550
X29859Y-19322
T8
X24098Y-4930
X25081Y-995
X25083Y-5915
X27050Y-4931
X29017Y-5915
X29019Y-995
X30002Y-4930
T9
X6661Y-13300
X10440Y-13300
X12210Y-13300
X15990Y-13300
X28860Y-13300
X32639Y-13300
X23310Y-13300
X27089Y-13300
X1111Y-13350
X4890Y-13350
X17760Y-13300
X21540Y-13300
T10
X16222Y-4096
X20962Y-4096
T11
X1400Y-1400
X32350Y-19850
X1400Y-19850
X32350Y-1400
T3
X25081Y-4696G85X25081Y-4341
G05
X26066Y-4696G85X26066Y-4341
G05
X27227Y-2550G85X26873Y-2550
G05
X28034Y-4696G85X28034Y-4341
G05
X29019Y-4696G85X29019Y-4341
G05
T0
M30
