G04 #@! TF.GenerationSoftware,KiCad,Pcbnew,(5.0.2)-1*
G04 #@! TF.CreationDate,2020-12-21T14:03:10+01:00*
G04 #@! TF.ProjectId,CardSizeMidiController,43617264-5369-47a6-954d-696469436f6e,rev?*
G04 #@! TF.SameCoordinates,Original*
G04 #@! TF.FileFunction,Legend,Top*
G04 #@! TF.FilePolarity,Positive*
%FSLAX46Y46*%
G04 Gerber Fmt 4.6, Leading zero omitted, Abs format (unit mm)*
G04 Created by KiCad (PCBNEW (5.0.2)-1) date 21/12/2020 14:03:10*
%MOMM*%
%LPD*%
G01*
G04 APERTURE LIST*
%ADD10C,0.300000*%
%ADD11C,0.200000*%
%ADD12C,0.120000*%
%ADD13C,0.150000*%
%ADD14C,0.304800*%
%ADD15C,0.080000*%
G04 APERTURE END LIST*
D10*
X78225619Y-20370095D02*
X77978000Y-20370095D01*
X77854190Y-20432000D01*
X77792285Y-20493904D01*
X77668476Y-20679619D01*
X77606571Y-20927238D01*
X77606571Y-21422476D01*
X77668476Y-21546285D01*
X77730380Y-21608190D01*
X77854190Y-21670095D01*
X78101809Y-21670095D01*
X78225619Y-21608190D01*
X78287523Y-21546285D01*
X78349428Y-21422476D01*
X78349428Y-21112952D01*
X78287523Y-20989142D01*
X78225619Y-20927238D01*
X78101809Y-20865333D01*
X77854190Y-20865333D01*
X77730380Y-20927238D01*
X77668476Y-20989142D01*
X77606571Y-21112952D01*
X64317523Y-20370095D02*
X63698476Y-20370095D01*
X63636571Y-20989142D01*
X63698476Y-20927238D01*
X63822285Y-20865333D01*
X64131809Y-20865333D01*
X64255619Y-20927238D01*
X64317523Y-20989142D01*
X64379428Y-21112952D01*
X64379428Y-21422476D01*
X64317523Y-21546285D01*
X64255619Y-21608190D01*
X64131809Y-21670095D01*
X63822285Y-21670095D01*
X63698476Y-21608190D01*
X63636571Y-21546285D01*
X50158619Y-20803428D02*
X50158619Y-21670095D01*
X49849095Y-20308190D02*
X49539571Y-21236761D01*
X50344333Y-21236761D01*
X35380666Y-20370095D02*
X36185428Y-20370095D01*
X35752095Y-20865333D01*
X35937809Y-20865333D01*
X36061619Y-20927238D01*
X36123523Y-20989142D01*
X36185428Y-21112952D01*
X36185428Y-21422476D01*
X36123523Y-21546285D01*
X36061619Y-21608190D01*
X35937809Y-21670095D01*
X35566380Y-21670095D01*
X35442571Y-21608190D01*
X35380666Y-21546285D01*
X21345571Y-20493904D02*
X21407476Y-20432000D01*
X21531285Y-20370095D01*
X21840809Y-20370095D01*
X21964619Y-20432000D01*
X22026523Y-20493904D01*
X22088428Y-20617714D01*
X22088428Y-20741523D01*
X22026523Y-20927238D01*
X21283666Y-21670095D01*
X22088428Y-21670095D01*
X7991428Y-21670095D02*
X7248571Y-21670095D01*
X7620000Y-21670095D02*
X7620000Y-20370095D01*
X7496190Y-20555809D01*
X7372380Y-20679619D01*
X7248571Y-20741523D01*
X35192714Y-52404095D02*
X35192714Y-51104095D01*
X35626047Y-52032666D01*
X36059380Y-51104095D01*
X36059380Y-52404095D01*
X36926047Y-51104095D02*
X37173666Y-51104095D01*
X37297476Y-51166000D01*
X37421285Y-51289809D01*
X37483190Y-51537428D01*
X37483190Y-51970761D01*
X37421285Y-52218380D01*
X37297476Y-52342190D01*
X37173666Y-52404095D01*
X36926047Y-52404095D01*
X36802238Y-52342190D01*
X36678428Y-52218380D01*
X36616523Y-51970761D01*
X36616523Y-51537428D01*
X36678428Y-51289809D01*
X36802238Y-51166000D01*
X36926047Y-51104095D01*
X38040333Y-52404095D02*
X38040333Y-51104095D01*
X38349857Y-51104095D01*
X38535571Y-51166000D01*
X38659380Y-51289809D01*
X38721285Y-51413619D01*
X38783190Y-51661238D01*
X38783190Y-51846952D01*
X38721285Y-52094571D01*
X38659380Y-52218380D01*
X38535571Y-52342190D01*
X38349857Y-52404095D01*
X38040333Y-52404095D01*
X59839333Y-52280285D02*
X59777428Y-52342190D01*
X59591714Y-52404095D01*
X59467904Y-52404095D01*
X59282190Y-52342190D01*
X59158380Y-52218380D01*
X59096476Y-52094571D01*
X59034571Y-51846952D01*
X59034571Y-51661238D01*
X59096476Y-51413619D01*
X59158380Y-51289809D01*
X59282190Y-51166000D01*
X59467904Y-51104095D01*
X59591714Y-51104095D01*
X59777428Y-51166000D01*
X59839333Y-51227904D01*
X61139333Y-52280285D02*
X61077428Y-52342190D01*
X60891714Y-52404095D01*
X60767904Y-52404095D01*
X60582190Y-52342190D01*
X60458380Y-52218380D01*
X60396476Y-52094571D01*
X60334571Y-51846952D01*
X60334571Y-51661238D01*
X60396476Y-51413619D01*
X60458380Y-51289809D01*
X60582190Y-51166000D01*
X60767904Y-51104095D01*
X60891714Y-51104095D01*
X61077428Y-51166000D01*
X61139333Y-51227904D01*
X61634571Y-51227904D02*
X61696476Y-51166000D01*
X61820285Y-51104095D01*
X62129809Y-51104095D01*
X62253619Y-51166000D01*
X62315523Y-51227904D01*
X62377428Y-51351714D01*
X62377428Y-51475523D01*
X62315523Y-51661238D01*
X61572666Y-52404095D01*
X62377428Y-52404095D01*
X47901333Y-52280285D02*
X47839428Y-52342190D01*
X47653714Y-52404095D01*
X47529904Y-52404095D01*
X47344190Y-52342190D01*
X47220380Y-52218380D01*
X47158476Y-52094571D01*
X47096571Y-51846952D01*
X47096571Y-51661238D01*
X47158476Y-51413619D01*
X47220380Y-51289809D01*
X47344190Y-51166000D01*
X47529904Y-51104095D01*
X47653714Y-51104095D01*
X47839428Y-51166000D01*
X47901333Y-51227904D01*
X49201333Y-52280285D02*
X49139428Y-52342190D01*
X48953714Y-52404095D01*
X48829904Y-52404095D01*
X48644190Y-52342190D01*
X48520380Y-52218380D01*
X48458476Y-52094571D01*
X48396571Y-51846952D01*
X48396571Y-51661238D01*
X48458476Y-51413619D01*
X48520380Y-51289809D01*
X48644190Y-51166000D01*
X48829904Y-51104095D01*
X48953714Y-51104095D01*
X49139428Y-51166000D01*
X49201333Y-51227904D01*
X50439428Y-52404095D02*
X49696571Y-52404095D01*
X50068000Y-52404095D02*
X50068000Y-51104095D01*
X49944190Y-51289809D01*
X49820380Y-51413619D01*
X49696571Y-51475523D01*
X11350857Y-52404095D02*
X10731809Y-52404095D01*
X10731809Y-51104095D01*
X11784190Y-51723142D02*
X12217523Y-51723142D01*
X12403238Y-52404095D02*
X11784190Y-52404095D01*
X11784190Y-51104095D01*
X12403238Y-51104095D01*
X12774666Y-51104095D02*
X13208000Y-52404095D01*
X13641333Y-51104095D01*
X14074666Y-51723142D02*
X14508000Y-51723142D01*
X14693714Y-52404095D02*
X14074666Y-52404095D01*
X14074666Y-51104095D01*
X14693714Y-51104095D01*
X15869904Y-52404095D02*
X15250857Y-52404095D01*
X15250857Y-51104095D01*
X23440428Y-52404095D02*
X23440428Y-51104095D01*
X23935666Y-51104095D01*
X24059476Y-51166000D01*
X24121380Y-51227904D01*
X24183285Y-51351714D01*
X24183285Y-51537428D01*
X24121380Y-51661238D01*
X24059476Y-51723142D01*
X23935666Y-51785047D01*
X23440428Y-51785047D01*
X24678523Y-52032666D02*
X25297571Y-52032666D01*
X24554714Y-52404095D02*
X24988047Y-51104095D01*
X25421380Y-52404095D01*
X25854714Y-52404095D02*
X25854714Y-51104095D01*
X26597571Y-52404095D01*
X26597571Y-51104095D01*
X71777333Y-52280285D02*
X71715428Y-52342190D01*
X71529714Y-52404095D01*
X71405904Y-52404095D01*
X71220190Y-52342190D01*
X71096380Y-52218380D01*
X71034476Y-52094571D01*
X70972571Y-51846952D01*
X70972571Y-51661238D01*
X71034476Y-51413619D01*
X71096380Y-51289809D01*
X71220190Y-51166000D01*
X71405904Y-51104095D01*
X71529714Y-51104095D01*
X71715428Y-51166000D01*
X71777333Y-51227904D01*
X73077333Y-52280285D02*
X73015428Y-52342190D01*
X72829714Y-52404095D01*
X72705904Y-52404095D01*
X72520190Y-52342190D01*
X72396380Y-52218380D01*
X72334476Y-52094571D01*
X72272571Y-51846952D01*
X72272571Y-51661238D01*
X72334476Y-51413619D01*
X72396380Y-51289809D01*
X72520190Y-51166000D01*
X72705904Y-51104095D01*
X72829714Y-51104095D01*
X73015428Y-51166000D01*
X73077333Y-51227904D01*
X73510666Y-51104095D02*
X74315428Y-51104095D01*
X73882095Y-51599333D01*
X74067809Y-51599333D01*
X74191619Y-51661238D01*
X74253523Y-51723142D01*
X74315428Y-51846952D01*
X74315428Y-52156476D01*
X74253523Y-52280285D01*
X74191619Y-52342190D01*
X74067809Y-52404095D01*
X73696380Y-52404095D01*
X73572571Y-52342190D01*
X73510666Y-52280285D01*
D11*
X1739857Y-11464857D02*
X1054142Y-11464857D01*
X1397000Y-11464857D02*
X1397000Y-10264857D01*
X1282714Y-10436285D01*
X1168428Y-10550571D01*
X1054142Y-10607714D01*
X2927571Y-8924857D02*
X2927571Y-7724857D01*
X4184714Y-8810571D02*
X4127571Y-8867714D01*
X3956142Y-8924857D01*
X3841857Y-8924857D01*
X3670428Y-8867714D01*
X3556142Y-8753428D01*
X3499000Y-8639142D01*
X3441857Y-8410571D01*
X3441857Y-8239142D01*
X3499000Y-8010571D01*
X3556142Y-7896285D01*
X3670428Y-7782000D01*
X3841857Y-7724857D01*
X3956142Y-7724857D01*
X4127571Y-7782000D01*
X4184714Y-7839142D01*
X4641857Y-8867714D02*
X4813285Y-8924857D01*
X5099000Y-8924857D01*
X5213285Y-8867714D01*
X5270428Y-8810571D01*
X5327571Y-8696285D01*
X5327571Y-8582000D01*
X5270428Y-8467714D01*
X5213285Y-8410571D01*
X5099000Y-8353428D01*
X4870428Y-8296285D01*
X4756142Y-8239142D01*
X4699000Y-8182000D01*
X4641857Y-8067714D01*
X4641857Y-7953428D01*
X4699000Y-7839142D01*
X4756142Y-7782000D01*
X4870428Y-7724857D01*
X5156142Y-7724857D01*
X5327571Y-7782000D01*
X5841857Y-8924857D02*
X5841857Y-7724857D01*
X6299000Y-7724857D01*
X6413285Y-7782000D01*
X6470428Y-7839142D01*
X6527571Y-7953428D01*
X6527571Y-8124857D01*
X6470428Y-8239142D01*
X6413285Y-8296285D01*
X6299000Y-8353428D01*
X5841857Y-8353428D01*
D12*
G04 #@! TO.C,SW0*
X10906000Y-50077000D02*
X15406000Y-50077000D01*
X9656000Y-46077000D02*
X9656000Y-47577000D01*
X15406000Y-43577000D02*
X10906000Y-43577000D01*
X16656000Y-47577000D02*
X16656000Y-46077000D01*
G04 #@! TO.C,D0*
X8620000Y-22535000D02*
X5935000Y-22535000D01*
X5935000Y-22535000D02*
X5935000Y-24455000D01*
X5935000Y-24455000D02*
X8620000Y-24455000D01*
G04 #@! TO.C,R0*
X7397448Y-25325000D02*
X7919952Y-25325000D01*
X7397448Y-26745000D02*
X7919952Y-26745000D01*
D10*
G04 #@! TO.C,RV0*
X12521400Y-28409000D02*
X12521400Y-40409000D01*
X2721400Y-40409000D02*
X2721400Y-28409000D01*
X2721400Y-40409000D02*
X12521400Y-40409000D01*
X2721400Y-28409000D02*
X12521400Y-28409000D01*
D11*
X11821400Y-38309000D02*
G75*
G03X11821400Y-38309000I-400000J0D01*
G01*
X4221400Y-38309000D02*
G75*
G03X4221400Y-38309000I-400000J0D01*
G01*
X11821400Y-29509000D02*
G75*
G03X11821400Y-29509000I-400000J0D01*
G01*
X4221400Y-29509000D02*
G75*
G03X4221400Y-29509000I-400000J0D01*
G01*
X10621140Y-33909000D02*
G75*
G03X10621140Y-33909000I-2999740J0D01*
G01*
X11022460Y-33909000D02*
G75*
G03X11022460Y-33909000I-3401060J0D01*
G01*
D12*
G04 #@! TO.C,SW5*
X70342000Y-50077000D02*
X74842000Y-50077000D01*
X69092000Y-46077000D02*
X69092000Y-47577000D01*
X74842000Y-43577000D02*
X70342000Y-43577000D01*
X76092000Y-47577000D02*
X76092000Y-46077000D01*
G04 #@! TO.C,SW4*
X64204800Y-47577000D02*
X64204800Y-46077000D01*
X62954800Y-43577000D02*
X58454800Y-43577000D01*
X57204800Y-46077000D02*
X57204800Y-47577000D01*
X58454800Y-50077000D02*
X62954800Y-50077000D01*
G04 #@! TO.C,SW3*
X46567600Y-50077000D02*
X51067600Y-50077000D01*
X45317600Y-46077000D02*
X45317600Y-47577000D01*
X51067600Y-43577000D02*
X46567600Y-43577000D01*
X52317600Y-47577000D02*
X52317600Y-46077000D01*
G04 #@! TO.C,SW2*
X40430400Y-47577000D02*
X40430400Y-46077000D01*
X39180400Y-43577000D02*
X34680400Y-43577000D01*
X33430400Y-46077000D02*
X33430400Y-47577000D01*
X34680400Y-50077000D02*
X39180400Y-50077000D01*
G04 #@! TO.C,SW1*
X22793200Y-50077000D02*
X27293200Y-50077000D01*
X21543200Y-46077000D02*
X21543200Y-47577000D01*
X27293200Y-43577000D02*
X22793200Y-43577000D01*
X28543200Y-47577000D02*
X28543200Y-46077000D01*
G04 #@! TO.C,C3*
X28290220Y-6848029D02*
X28532429Y-6605820D01*
X27568971Y-6126780D02*
X27811180Y-5884571D01*
G04 #@! TO.C,C4*
X24611729Y-2779520D02*
X24369520Y-3021729D01*
X23890480Y-2058271D02*
X23648271Y-2300480D01*
G04 #@! TO.C,C1*
X38180000Y-4465000D02*
G75*
G03X38180000Y-4465000I-2620000J0D01*
G01*
X32980000Y-4465000D02*
X38140000Y-4465000D01*
X32980000Y-4425000D02*
X38140000Y-4425000D01*
X32981000Y-4385000D02*
X38139000Y-4385000D01*
X32982000Y-4345000D02*
X38138000Y-4345000D01*
X32984000Y-4305000D02*
X38136000Y-4305000D01*
X32987000Y-4265000D02*
X38133000Y-4265000D01*
X32991000Y-4225000D02*
X34520000Y-4225000D01*
X36600000Y-4225000D02*
X38129000Y-4225000D01*
X32995000Y-4185000D02*
X34520000Y-4185000D01*
X36600000Y-4185000D02*
X38125000Y-4185000D01*
X32999000Y-4145000D02*
X34520000Y-4145000D01*
X36600000Y-4145000D02*
X38121000Y-4145000D01*
X33004000Y-4105000D02*
X34520000Y-4105000D01*
X36600000Y-4105000D02*
X38116000Y-4105000D01*
X33010000Y-4065000D02*
X34520000Y-4065000D01*
X36600000Y-4065000D02*
X38110000Y-4065000D01*
X33017000Y-4025000D02*
X34520000Y-4025000D01*
X36600000Y-4025000D02*
X38103000Y-4025000D01*
X33024000Y-3985000D02*
X34520000Y-3985000D01*
X36600000Y-3985000D02*
X38096000Y-3985000D01*
X33032000Y-3945000D02*
X34520000Y-3945000D01*
X36600000Y-3945000D02*
X38088000Y-3945000D01*
X33040000Y-3905000D02*
X34520000Y-3905000D01*
X36600000Y-3905000D02*
X38080000Y-3905000D01*
X33049000Y-3865000D02*
X34520000Y-3865000D01*
X36600000Y-3865000D02*
X38071000Y-3865000D01*
X33059000Y-3825000D02*
X34520000Y-3825000D01*
X36600000Y-3825000D02*
X38061000Y-3825000D01*
X33069000Y-3785000D02*
X34520000Y-3785000D01*
X36600000Y-3785000D02*
X38051000Y-3785000D01*
X33080000Y-3744000D02*
X34520000Y-3744000D01*
X36600000Y-3744000D02*
X38040000Y-3744000D01*
X33092000Y-3704000D02*
X34520000Y-3704000D01*
X36600000Y-3704000D02*
X38028000Y-3704000D01*
X33105000Y-3664000D02*
X34520000Y-3664000D01*
X36600000Y-3664000D02*
X38015000Y-3664000D01*
X33118000Y-3624000D02*
X34520000Y-3624000D01*
X36600000Y-3624000D02*
X38002000Y-3624000D01*
X33132000Y-3584000D02*
X34520000Y-3584000D01*
X36600000Y-3584000D02*
X37988000Y-3584000D01*
X33146000Y-3544000D02*
X34520000Y-3544000D01*
X36600000Y-3544000D02*
X37974000Y-3544000D01*
X33162000Y-3504000D02*
X34520000Y-3504000D01*
X36600000Y-3504000D02*
X37958000Y-3504000D01*
X33178000Y-3464000D02*
X34520000Y-3464000D01*
X36600000Y-3464000D02*
X37942000Y-3464000D01*
X33195000Y-3424000D02*
X34520000Y-3424000D01*
X36600000Y-3424000D02*
X37925000Y-3424000D01*
X33212000Y-3384000D02*
X34520000Y-3384000D01*
X36600000Y-3384000D02*
X37908000Y-3384000D01*
X33231000Y-3344000D02*
X34520000Y-3344000D01*
X36600000Y-3344000D02*
X37889000Y-3344000D01*
X33250000Y-3304000D02*
X34520000Y-3304000D01*
X36600000Y-3304000D02*
X37870000Y-3304000D01*
X33270000Y-3264000D02*
X34520000Y-3264000D01*
X36600000Y-3264000D02*
X37850000Y-3264000D01*
X33292000Y-3224000D02*
X34520000Y-3224000D01*
X36600000Y-3224000D02*
X37828000Y-3224000D01*
X33313000Y-3184000D02*
X34520000Y-3184000D01*
X36600000Y-3184000D02*
X37807000Y-3184000D01*
X33336000Y-3144000D02*
X34520000Y-3144000D01*
X36600000Y-3144000D02*
X37784000Y-3144000D01*
X33360000Y-3104000D02*
X34520000Y-3104000D01*
X36600000Y-3104000D02*
X37760000Y-3104000D01*
X33385000Y-3064000D02*
X34520000Y-3064000D01*
X36600000Y-3064000D02*
X37735000Y-3064000D01*
X33411000Y-3024000D02*
X34520000Y-3024000D01*
X36600000Y-3024000D02*
X37709000Y-3024000D01*
X33438000Y-2984000D02*
X34520000Y-2984000D01*
X36600000Y-2984000D02*
X37682000Y-2984000D01*
X33465000Y-2944000D02*
X34520000Y-2944000D01*
X36600000Y-2944000D02*
X37655000Y-2944000D01*
X33495000Y-2904000D02*
X34520000Y-2904000D01*
X36600000Y-2904000D02*
X37625000Y-2904000D01*
X33525000Y-2864000D02*
X34520000Y-2864000D01*
X36600000Y-2864000D02*
X37595000Y-2864000D01*
X33556000Y-2824000D02*
X34520000Y-2824000D01*
X36600000Y-2824000D02*
X37564000Y-2824000D01*
X33589000Y-2784000D02*
X34520000Y-2784000D01*
X36600000Y-2784000D02*
X37531000Y-2784000D01*
X33623000Y-2744000D02*
X34520000Y-2744000D01*
X36600000Y-2744000D02*
X37497000Y-2744000D01*
X33659000Y-2704000D02*
X34520000Y-2704000D01*
X36600000Y-2704000D02*
X37461000Y-2704000D01*
X33696000Y-2664000D02*
X34520000Y-2664000D01*
X36600000Y-2664000D02*
X37424000Y-2664000D01*
X33734000Y-2624000D02*
X34520000Y-2624000D01*
X36600000Y-2624000D02*
X37386000Y-2624000D01*
X33775000Y-2584000D02*
X34520000Y-2584000D01*
X36600000Y-2584000D02*
X37345000Y-2584000D01*
X33817000Y-2544000D02*
X34520000Y-2544000D01*
X36600000Y-2544000D02*
X37303000Y-2544000D01*
X33861000Y-2504000D02*
X34520000Y-2504000D01*
X36600000Y-2504000D02*
X37259000Y-2504000D01*
X33907000Y-2464000D02*
X34520000Y-2464000D01*
X36600000Y-2464000D02*
X37213000Y-2464000D01*
X33955000Y-2424000D02*
X34520000Y-2424000D01*
X36600000Y-2424000D02*
X37165000Y-2424000D01*
X34006000Y-2384000D02*
X34520000Y-2384000D01*
X36600000Y-2384000D02*
X37114000Y-2384000D01*
X34060000Y-2344000D02*
X34520000Y-2344000D01*
X36600000Y-2344000D02*
X37060000Y-2344000D01*
X34117000Y-2304000D02*
X34520000Y-2304000D01*
X36600000Y-2304000D02*
X37003000Y-2304000D01*
X34177000Y-2264000D02*
X34520000Y-2264000D01*
X36600000Y-2264000D02*
X36943000Y-2264000D01*
X34241000Y-2224000D02*
X34520000Y-2224000D01*
X36600000Y-2224000D02*
X36879000Y-2224000D01*
X34309000Y-2184000D02*
X34520000Y-2184000D01*
X36600000Y-2184000D02*
X36811000Y-2184000D01*
X34382000Y-2144000D02*
X36738000Y-2144000D01*
X34462000Y-2104000D02*
X36658000Y-2104000D01*
X34549000Y-2064000D02*
X36571000Y-2064000D01*
X34645000Y-2024000D02*
X36475000Y-2024000D01*
X34755000Y-1984000D02*
X36365000Y-1984000D01*
X34883000Y-1944000D02*
X36237000Y-1944000D01*
X35042000Y-1904000D02*
X36078000Y-1904000D01*
X35276000Y-1864000D02*
X35844000Y-1864000D01*
X34085000Y-7269775D02*
X34085000Y-6769775D01*
X33835000Y-7019775D02*
X34335000Y-7019775D01*
G04 #@! TO.C,C2*
X38195000Y-11704000D02*
G75*
G03X38195000Y-11704000I-3270000J0D01*
G01*
X31695000Y-11704000D02*
X38155000Y-11704000D01*
X31695000Y-11664000D02*
X38155000Y-11664000D01*
X31695000Y-11624000D02*
X38155000Y-11624000D01*
X31697000Y-11584000D02*
X38153000Y-11584000D01*
X31698000Y-11544000D02*
X38152000Y-11544000D01*
X31701000Y-11504000D02*
X38149000Y-11504000D01*
X31703000Y-11464000D02*
X33885000Y-11464000D01*
X35965000Y-11464000D02*
X38147000Y-11464000D01*
X31707000Y-11424000D02*
X33885000Y-11424000D01*
X35965000Y-11424000D02*
X38143000Y-11424000D01*
X31710000Y-11384000D02*
X33885000Y-11384000D01*
X35965000Y-11384000D02*
X38140000Y-11384000D01*
X31714000Y-11344000D02*
X33885000Y-11344000D01*
X35965000Y-11344000D02*
X38136000Y-11344000D01*
X31719000Y-11304000D02*
X33885000Y-11304000D01*
X35965000Y-11304000D02*
X38131000Y-11304000D01*
X31724000Y-11264000D02*
X33885000Y-11264000D01*
X35965000Y-11264000D02*
X38126000Y-11264000D01*
X31730000Y-11224000D02*
X33885000Y-11224000D01*
X35965000Y-11224000D02*
X38120000Y-11224000D01*
X31736000Y-11184000D02*
X33885000Y-11184000D01*
X35965000Y-11184000D02*
X38114000Y-11184000D01*
X31743000Y-11144000D02*
X33885000Y-11144000D01*
X35965000Y-11144000D02*
X38107000Y-11144000D01*
X31750000Y-11104000D02*
X33885000Y-11104000D01*
X35965000Y-11104000D02*
X38100000Y-11104000D01*
X31758000Y-11064000D02*
X33885000Y-11064000D01*
X35965000Y-11064000D02*
X38092000Y-11064000D01*
X31766000Y-11024000D02*
X33885000Y-11024000D01*
X35965000Y-11024000D02*
X38084000Y-11024000D01*
X31775000Y-10983000D02*
X33885000Y-10983000D01*
X35965000Y-10983000D02*
X38075000Y-10983000D01*
X31784000Y-10943000D02*
X33885000Y-10943000D01*
X35965000Y-10943000D02*
X38066000Y-10943000D01*
X31794000Y-10903000D02*
X33885000Y-10903000D01*
X35965000Y-10903000D02*
X38056000Y-10903000D01*
X31804000Y-10863000D02*
X33885000Y-10863000D01*
X35965000Y-10863000D02*
X38046000Y-10863000D01*
X31815000Y-10823000D02*
X33885000Y-10823000D01*
X35965000Y-10823000D02*
X38035000Y-10823000D01*
X31827000Y-10783000D02*
X33885000Y-10783000D01*
X35965000Y-10783000D02*
X38023000Y-10783000D01*
X31839000Y-10743000D02*
X33885000Y-10743000D01*
X35965000Y-10743000D02*
X38011000Y-10743000D01*
X31851000Y-10703000D02*
X33885000Y-10703000D01*
X35965000Y-10703000D02*
X37999000Y-10703000D01*
X31864000Y-10663000D02*
X33885000Y-10663000D01*
X35965000Y-10663000D02*
X37986000Y-10663000D01*
X31878000Y-10623000D02*
X33885000Y-10623000D01*
X35965000Y-10623000D02*
X37972000Y-10623000D01*
X31892000Y-10583000D02*
X33885000Y-10583000D01*
X35965000Y-10583000D02*
X37958000Y-10583000D01*
X31907000Y-10543000D02*
X33885000Y-10543000D01*
X35965000Y-10543000D02*
X37943000Y-10543000D01*
X31923000Y-10503000D02*
X33885000Y-10503000D01*
X35965000Y-10503000D02*
X37927000Y-10503000D01*
X31939000Y-10463000D02*
X33885000Y-10463000D01*
X35965000Y-10463000D02*
X37911000Y-10463000D01*
X31955000Y-10423000D02*
X33885000Y-10423000D01*
X35965000Y-10423000D02*
X37895000Y-10423000D01*
X31973000Y-10383000D02*
X33885000Y-10383000D01*
X35965000Y-10383000D02*
X37877000Y-10383000D01*
X31991000Y-10343000D02*
X33885000Y-10343000D01*
X35965000Y-10343000D02*
X37859000Y-10343000D01*
X32009000Y-10303000D02*
X33885000Y-10303000D01*
X35965000Y-10303000D02*
X37841000Y-10303000D01*
X32029000Y-10263000D02*
X33885000Y-10263000D01*
X35965000Y-10263000D02*
X37821000Y-10263000D01*
X32049000Y-10223000D02*
X33885000Y-10223000D01*
X35965000Y-10223000D02*
X37801000Y-10223000D01*
X32069000Y-10183000D02*
X33885000Y-10183000D01*
X35965000Y-10183000D02*
X37781000Y-10183000D01*
X32091000Y-10143000D02*
X33885000Y-10143000D01*
X35965000Y-10143000D02*
X37759000Y-10143000D01*
X32113000Y-10103000D02*
X33885000Y-10103000D01*
X35965000Y-10103000D02*
X37737000Y-10103000D01*
X32135000Y-10063000D02*
X33885000Y-10063000D01*
X35965000Y-10063000D02*
X37715000Y-10063000D01*
X32159000Y-10023000D02*
X33885000Y-10023000D01*
X35965000Y-10023000D02*
X37691000Y-10023000D01*
X32183000Y-9983000D02*
X33885000Y-9983000D01*
X35965000Y-9983000D02*
X37667000Y-9983000D01*
X32209000Y-9943000D02*
X33885000Y-9943000D01*
X35965000Y-9943000D02*
X37641000Y-9943000D01*
X32235000Y-9903000D02*
X33885000Y-9903000D01*
X35965000Y-9903000D02*
X37615000Y-9903000D01*
X32261000Y-9863000D02*
X33885000Y-9863000D01*
X35965000Y-9863000D02*
X37589000Y-9863000D01*
X32289000Y-9823000D02*
X33885000Y-9823000D01*
X35965000Y-9823000D02*
X37561000Y-9823000D01*
X32318000Y-9783000D02*
X33885000Y-9783000D01*
X35965000Y-9783000D02*
X37532000Y-9783000D01*
X32347000Y-9743000D02*
X33885000Y-9743000D01*
X35965000Y-9743000D02*
X37503000Y-9743000D01*
X32377000Y-9703000D02*
X33885000Y-9703000D01*
X35965000Y-9703000D02*
X37473000Y-9703000D01*
X32409000Y-9663000D02*
X33885000Y-9663000D01*
X35965000Y-9663000D02*
X37441000Y-9663000D01*
X32441000Y-9623000D02*
X33885000Y-9623000D01*
X35965000Y-9623000D02*
X37409000Y-9623000D01*
X32475000Y-9583000D02*
X33885000Y-9583000D01*
X35965000Y-9583000D02*
X37375000Y-9583000D01*
X32509000Y-9543000D02*
X33885000Y-9543000D01*
X35965000Y-9543000D02*
X37341000Y-9543000D01*
X32545000Y-9503000D02*
X33885000Y-9503000D01*
X35965000Y-9503000D02*
X37305000Y-9503000D01*
X32582000Y-9463000D02*
X33885000Y-9463000D01*
X35965000Y-9463000D02*
X37268000Y-9463000D01*
X32620000Y-9423000D02*
X33885000Y-9423000D01*
X35965000Y-9423000D02*
X37230000Y-9423000D01*
X32660000Y-9383000D02*
X37190000Y-9383000D01*
X32701000Y-9343000D02*
X37149000Y-9343000D01*
X32743000Y-9303000D02*
X37107000Y-9303000D01*
X32788000Y-9263000D02*
X37062000Y-9263000D01*
X32833000Y-9223000D02*
X37017000Y-9223000D01*
X32881000Y-9183000D02*
X36969000Y-9183000D01*
X32930000Y-9143000D02*
X36920000Y-9143000D01*
X32981000Y-9103000D02*
X36869000Y-9103000D01*
X33035000Y-9063000D02*
X36815000Y-9063000D01*
X33091000Y-9023000D02*
X36759000Y-9023000D01*
X33149000Y-8983000D02*
X36701000Y-8983000D01*
X33211000Y-8943000D02*
X36639000Y-8943000D01*
X33275000Y-8903000D02*
X36575000Y-8903000D01*
X33344000Y-8863000D02*
X36506000Y-8863000D01*
X33416000Y-8823000D02*
X36434000Y-8823000D01*
X33493000Y-8783000D02*
X36357000Y-8783000D01*
X33575000Y-8743000D02*
X36275000Y-8743000D01*
X33663000Y-8703000D02*
X36187000Y-8703000D01*
X33760000Y-8663000D02*
X36090000Y-8663000D01*
X33866000Y-8623000D02*
X35984000Y-8623000D01*
X33985000Y-8583000D02*
X35865000Y-8583000D01*
X34123000Y-8543000D02*
X35727000Y-8543000D01*
X34292000Y-8503000D02*
X35558000Y-8503000D01*
X34523000Y-8463000D02*
X35327000Y-8463000D01*
X33086000Y-15204241D02*
X33086000Y-14574241D01*
X32771000Y-14889241D02*
X33401000Y-14889241D01*
G04 #@! TO.C,J2*
X2099000Y-17459000D02*
X7299000Y-17459000D01*
X2099000Y-12319000D02*
X2099000Y-17459000D01*
X7299000Y-9719000D02*
X7299000Y-17459000D01*
X2099000Y-12319000D02*
X4699000Y-12319000D01*
X4699000Y-12319000D02*
X4699000Y-9719000D01*
X4699000Y-9719000D02*
X7299000Y-9719000D01*
X2099000Y-11049000D02*
X2099000Y-9719000D01*
X2099000Y-9719000D02*
X3429000Y-9719000D01*
G04 #@! TO.C,J1*
X41064000Y-12453000D02*
X41064000Y-16713000D01*
X41064000Y-16713000D02*
X53384000Y-16713000D01*
X53384000Y-16713000D02*
X53384000Y-12453000D01*
X41064000Y-8353000D02*
X41064000Y7000D01*
X41064000Y7000D02*
X53384000Y7000D01*
X53384000Y7000D02*
X53384000Y-8353000D01*
X45974000Y-16933000D02*
X45474000Y-17433000D01*
X45474000Y-17433000D02*
X46474000Y-17433000D01*
X46474000Y-17433000D02*
X45974000Y-16933000D01*
G04 #@! TO.C,Y1*
X23454060Y-4692487D02*
X25787513Y-7025940D01*
X25787513Y-7025940D02*
X28615940Y-4197513D01*
G04 #@! TO.C,D1*
X20032000Y-24455000D02*
X22717000Y-24455000D01*
X20032000Y-22535000D02*
X20032000Y-24455000D01*
X22717000Y-22535000D02*
X20032000Y-22535000D01*
G04 #@! TO.C,D2*
X36888600Y-22535000D02*
X34203600Y-22535000D01*
X34203600Y-22535000D02*
X34203600Y-24455000D01*
X34203600Y-24455000D02*
X36888600Y-24455000D01*
G04 #@! TO.C,D3*
X48191400Y-24455000D02*
X50876400Y-24455000D01*
X48191400Y-22535000D02*
X48191400Y-24455000D01*
X50876400Y-22535000D02*
X48191400Y-22535000D01*
G04 #@! TO.C,D4*
X64991300Y-22535000D02*
X62306300Y-22535000D01*
X62306300Y-22535000D02*
X62306300Y-24455000D01*
X62306300Y-24455000D02*
X64991300Y-24455000D01*
G04 #@! TO.C,D5*
X76420000Y-24455000D02*
X79105000Y-24455000D01*
X76420000Y-22535000D02*
X76420000Y-24455000D01*
X79105000Y-22535000D02*
X76420000Y-22535000D01*
D13*
G04 #@! TO.C,U1*
X23160524Y-10287000D02*
X23001425Y-10127901D01*
X18034000Y-15413524D02*
X17804190Y-15183714D01*
X12907476Y-10287000D02*
X13137286Y-10516810D01*
X18034000Y-5160476D02*
X18263810Y-5390286D01*
X23160524Y-10287000D02*
X22930714Y-10516810D01*
X18034000Y-5160476D02*
X17804190Y-5390286D01*
X12907476Y-10287000D02*
X13137286Y-10057190D01*
X18034000Y-15413524D02*
X18263810Y-15183714D01*
X23001425Y-10127901D02*
X24009052Y-9120274D01*
D12*
G04 #@! TO.C,R9*
X58622000Y-6596748D02*
X58622000Y-7119252D01*
X57202000Y-6596748D02*
X57202000Y-7119252D01*
G04 #@! TO.C,R8*
X58622000Y-11818252D02*
X58622000Y-11295748D01*
X57202000Y-11818252D02*
X57202000Y-11295748D01*
G04 #@! TO.C,R7*
X27947252Y-13664000D02*
X27424748Y-13664000D01*
X27947252Y-12244000D02*
X27424748Y-12244000D01*
G04 #@! TO.C,R5*
X77805048Y-25325000D02*
X78327552Y-25325000D01*
X77805048Y-26745000D02*
X78327552Y-26745000D01*
G04 #@! TO.C,R4*
X63774348Y-26745000D02*
X64296852Y-26745000D01*
X63774348Y-25325000D02*
X64296852Y-25325000D01*
G04 #@! TO.C,R3*
X49616648Y-25325000D02*
X50139152Y-25325000D01*
X49616648Y-26745000D02*
X50139152Y-26745000D01*
G04 #@! TO.C,R2*
X35585848Y-26745000D02*
X36108352Y-26745000D01*
X35585848Y-25325000D02*
X36108352Y-25325000D01*
G04 #@! TO.C,R1*
X21455748Y-25325000D02*
X21978252Y-25325000D01*
X21455748Y-26745000D02*
X21978252Y-26745000D01*
D13*
G04 #@! TO.C,J4*
X74707000Y-13977000D02*
X62707000Y-13977000D01*
X62707000Y-13977000D02*
X62707000Y-2977000D01*
X64207000Y-1977000D02*
X73207000Y-1977000D01*
X74707000Y-2977000D02*
X74707000Y-13977000D01*
X65707000Y-1977000D02*
X65707000Y23000D01*
X65707000Y23000D02*
X71657000Y23000D01*
X71657000Y-1977000D02*
X71657000Y23000D01*
X73207000Y-2977000D02*
X73207000Y-1977000D01*
X64207000Y-2977000D02*
X64207000Y-1977000D01*
X73207000Y-2977000D02*
X74707000Y-2977000D01*
X62707000Y-2977000D02*
X64207000Y-2977000D01*
X71607000Y-977000D02*
X65707000Y-977000D01*
D14*
G04 #@! TO.C,J3*
X77706220Y-774700D02*
X58206640Y-774700D01*
X59707780Y-525780D02*
X77706220Y-525780D01*
X79207360Y-274320D02*
X59707780Y-274320D01*
X77706220Y-14605000D02*
X77706220Y-1524000D01*
X75707000Y-16525240D02*
X61707000Y-16525240D01*
X59707780Y-14605000D02*
X59707780Y-1524000D01*
X58206640Y-525780D02*
X59707780Y-525780D01*
X59707780Y-525780D02*
X59707780Y-25400D01*
X59707780Y-25400D02*
X79207360Y-25400D01*
X79207360Y-525780D02*
X77706220Y-525780D01*
X77706220Y-525780D02*
X77706220Y-1026160D01*
X77706220Y-1026160D02*
X58206640Y-1026160D01*
X59707780Y-1524000D02*
X60208160Y-1524000D01*
X77706220Y-1524000D02*
X77205840Y-1524000D01*
X60208160Y-1026160D02*
X60208160Y-1524000D01*
X77205840Y-1524000D02*
X77205840Y-1026160D01*
X79207360Y-25400D02*
X79207360Y-525780D01*
X58206640Y-1026160D02*
X58206640Y-525780D01*
X77697000Y-14625240D02*
X75707000Y-14625240D01*
X61697000Y-14625240D02*
X59707000Y-14625240D01*
X75707240Y-14635000D02*
X75707240Y-16525000D01*
X61707240Y-14635000D02*
X61707240Y-16525000D01*
D11*
G04 #@! TO.C,RV3*
X53311760Y-33782000D02*
G75*
G03X53311760Y-33782000I-3401060J0D01*
G01*
X52910440Y-33782000D02*
G75*
G03X52910440Y-33782000I-2999740J0D01*
G01*
X46510700Y-29382000D02*
G75*
G03X46510700Y-29382000I-400000J0D01*
G01*
X54110700Y-29382000D02*
G75*
G03X54110700Y-29382000I-400000J0D01*
G01*
X46510700Y-38182000D02*
G75*
G03X46510700Y-38182000I-400000J0D01*
G01*
X54110700Y-38182000D02*
G75*
G03X54110700Y-38182000I-400000J0D01*
G01*
D10*
X45010700Y-28282000D02*
X54810700Y-28282000D01*
X45010700Y-40282000D02*
X54810700Y-40282000D01*
X45010700Y-40282000D02*
X45010700Y-28282000D01*
X54810700Y-28282000D02*
X54810700Y-40282000D01*
G04 #@! TO.C,RV4*
X68907100Y-28282000D02*
X68907100Y-40282000D01*
X59107100Y-40282000D02*
X59107100Y-28282000D01*
X59107100Y-40282000D02*
X68907100Y-40282000D01*
X59107100Y-28282000D02*
X68907100Y-28282000D01*
D11*
X68207100Y-38182000D02*
G75*
G03X68207100Y-38182000I-400000J0D01*
G01*
X60607100Y-38182000D02*
G75*
G03X60607100Y-38182000I-400000J0D01*
G01*
X68207100Y-29382000D02*
G75*
G03X68207100Y-29382000I-400000J0D01*
G01*
X60607100Y-29382000D02*
G75*
G03X60607100Y-29382000I-400000J0D01*
G01*
X67006840Y-33782000D02*
G75*
G03X67006840Y-33782000I-2999740J0D01*
G01*
X67408160Y-33782000D02*
G75*
G03X67408160Y-33782000I-3401060J0D01*
G01*
G04 #@! TO.C,RV1*
X25118960Y-33782000D02*
G75*
G03X25118960Y-33782000I-3401060J0D01*
G01*
X24717640Y-33782000D02*
G75*
G03X24717640Y-33782000I-2999740J0D01*
G01*
X18317900Y-29382000D02*
G75*
G03X18317900Y-29382000I-400000J0D01*
G01*
X25917900Y-29382000D02*
G75*
G03X25917900Y-29382000I-400000J0D01*
G01*
X18317900Y-38182000D02*
G75*
G03X18317900Y-38182000I-400000J0D01*
G01*
X25917900Y-38182000D02*
G75*
G03X25917900Y-38182000I-400000J0D01*
G01*
D10*
X16817900Y-28282000D02*
X26617900Y-28282000D01*
X16817900Y-40282000D02*
X26617900Y-40282000D01*
X16817900Y-40282000D02*
X16817900Y-28282000D01*
X26617900Y-28282000D02*
X26617900Y-40282000D01*
G04 #@! TO.C,RV5*
X83003600Y-28282000D02*
X83003600Y-40282000D01*
X73203600Y-40282000D02*
X73203600Y-28282000D01*
X73203600Y-40282000D02*
X83003600Y-40282000D01*
X73203600Y-28282000D02*
X83003600Y-28282000D01*
D11*
X82303600Y-38182000D02*
G75*
G03X82303600Y-38182000I-400000J0D01*
G01*
X74703600Y-38182000D02*
G75*
G03X74703600Y-38182000I-400000J0D01*
G01*
X82303600Y-29382000D02*
G75*
G03X82303600Y-29382000I-400000J0D01*
G01*
X74703600Y-29382000D02*
G75*
G03X74703600Y-29382000I-400000J0D01*
G01*
X81103340Y-33782000D02*
G75*
G03X81103340Y-33782000I-2999740J0D01*
G01*
X81504660Y-33782000D02*
G75*
G03X81504660Y-33782000I-3401060J0D01*
G01*
D10*
G04 #@! TO.C,RV2*
X40714300Y-28282000D02*
X40714300Y-40282000D01*
X30914300Y-40282000D02*
X30914300Y-28282000D01*
X30914300Y-40282000D02*
X40714300Y-40282000D01*
X30914300Y-28282000D02*
X40714300Y-28282000D01*
D11*
X40014300Y-38182000D02*
G75*
G03X40014300Y-38182000I-400000J0D01*
G01*
X32414300Y-38182000D02*
G75*
G03X32414300Y-38182000I-400000J0D01*
G01*
X40014300Y-29382000D02*
G75*
G03X40014300Y-29382000I-400000J0D01*
G01*
X32414300Y-29382000D02*
G75*
G03X32414300Y-29382000I-400000J0D01*
G01*
X38814040Y-33782000D02*
G75*
G03X38814040Y-33782000I-2999740J0D01*
G01*
X39215360Y-33782000D02*
G75*
G03X39215360Y-33782000I-3401060J0D01*
G01*
G04 #@! TO.C,SW0*
D13*
X11822666Y-47172761D02*
X11965523Y-47220380D01*
X12203619Y-47220380D01*
X12298857Y-47172761D01*
X12346476Y-47125142D01*
X12394095Y-47029904D01*
X12394095Y-46934666D01*
X12346476Y-46839428D01*
X12298857Y-46791809D01*
X12203619Y-46744190D01*
X12013142Y-46696571D01*
X11917904Y-46648952D01*
X11870285Y-46601333D01*
X11822666Y-46506095D01*
X11822666Y-46410857D01*
X11870285Y-46315619D01*
X11917904Y-46268000D01*
X12013142Y-46220380D01*
X12251238Y-46220380D01*
X12394095Y-46268000D01*
X12727428Y-46220380D02*
X12965523Y-47220380D01*
X13156000Y-46506095D01*
X13346476Y-47220380D01*
X13584571Y-46220380D01*
X14156000Y-46220380D02*
X14251238Y-46220380D01*
X14346476Y-46268000D01*
X14394095Y-46315619D01*
X14441714Y-46410857D01*
X14489333Y-46601333D01*
X14489333Y-46839428D01*
X14441714Y-47029904D01*
X14394095Y-47125142D01*
X14346476Y-47172761D01*
X14251238Y-47220380D01*
X14156000Y-47220380D01*
X14060761Y-47172761D01*
X14013142Y-47125142D01*
X13965523Y-47029904D01*
X13917904Y-46839428D01*
X13917904Y-46601333D01*
X13965523Y-46410857D01*
X14013142Y-46315619D01*
X14060761Y-46268000D01*
X14156000Y-46220380D01*
G04 #@! TO.C,D0*
D15*
X7324761Y-23675952D02*
X7324761Y-23275952D01*
X7420000Y-23275952D01*
X7477142Y-23295000D01*
X7515238Y-23333095D01*
X7534285Y-23371190D01*
X7553333Y-23447380D01*
X7553333Y-23504523D01*
X7534285Y-23580714D01*
X7515238Y-23618809D01*
X7477142Y-23656904D01*
X7420000Y-23675952D01*
X7324761Y-23675952D01*
X7800952Y-23275952D02*
X7839047Y-23275952D01*
X7877142Y-23295000D01*
X7896190Y-23314047D01*
X7915238Y-23352142D01*
X7934285Y-23428333D01*
X7934285Y-23523571D01*
X7915238Y-23599761D01*
X7896190Y-23637857D01*
X7877142Y-23656904D01*
X7839047Y-23675952D01*
X7800952Y-23675952D01*
X7762857Y-23656904D01*
X7743809Y-23637857D01*
X7724761Y-23599761D01*
X7705714Y-23523571D01*
X7705714Y-23428333D01*
X7724761Y-23352142D01*
X7743809Y-23314047D01*
X7762857Y-23295000D01*
X7800952Y-23275952D01*
G04 #@! TO.C,R0*
X7592033Y-26215952D02*
X7458700Y-26025476D01*
X7363461Y-26215952D02*
X7363461Y-25815952D01*
X7515842Y-25815952D01*
X7553938Y-25835000D01*
X7572985Y-25854047D01*
X7592033Y-25892142D01*
X7592033Y-25949285D01*
X7572985Y-25987380D01*
X7553938Y-26006428D01*
X7515842Y-26025476D01*
X7363461Y-26025476D01*
X7839652Y-25815952D02*
X7877747Y-25815952D01*
X7915842Y-25835000D01*
X7934890Y-25854047D01*
X7953938Y-25892142D01*
X7972985Y-25968333D01*
X7972985Y-26063571D01*
X7953938Y-26139761D01*
X7934890Y-26177857D01*
X7915842Y-26196904D01*
X7877747Y-26215952D01*
X7839652Y-26215952D01*
X7801557Y-26196904D01*
X7782509Y-26177857D01*
X7763461Y-26139761D01*
X7744414Y-26063571D01*
X7744414Y-25968333D01*
X7763461Y-25892142D01*
X7782509Y-25854047D01*
X7801557Y-25835000D01*
X7839652Y-25815952D01*
G04 #@! TO.C,RV0*
D13*
X7126161Y-39061380D02*
X6792828Y-38585190D01*
X6554733Y-39061380D02*
X6554733Y-38061380D01*
X6935685Y-38061380D01*
X7030923Y-38109000D01*
X7078542Y-38156619D01*
X7126161Y-38251857D01*
X7126161Y-38394714D01*
X7078542Y-38489952D01*
X7030923Y-38537571D01*
X6935685Y-38585190D01*
X6554733Y-38585190D01*
X7411876Y-38061380D02*
X7745209Y-39061380D01*
X8078542Y-38061380D01*
X8602352Y-38061380D02*
X8697590Y-38061380D01*
X8792828Y-38109000D01*
X8840447Y-38156619D01*
X8888066Y-38251857D01*
X8935685Y-38442333D01*
X8935685Y-38680428D01*
X8888066Y-38870904D01*
X8840447Y-38966142D01*
X8792828Y-39013761D01*
X8697590Y-39061380D01*
X8602352Y-39061380D01*
X8507114Y-39013761D01*
X8459495Y-38966142D01*
X8411876Y-38870904D01*
X8364257Y-38680428D01*
X8364257Y-38442333D01*
X8411876Y-38251857D01*
X8459495Y-38156619D01*
X8507114Y-38109000D01*
X8602352Y-38061380D01*
G04 #@! TO.C,SW5*
X71258666Y-47172761D02*
X71401523Y-47220380D01*
X71639619Y-47220380D01*
X71734857Y-47172761D01*
X71782476Y-47125142D01*
X71830095Y-47029904D01*
X71830095Y-46934666D01*
X71782476Y-46839428D01*
X71734857Y-46791809D01*
X71639619Y-46744190D01*
X71449142Y-46696571D01*
X71353904Y-46648952D01*
X71306285Y-46601333D01*
X71258666Y-46506095D01*
X71258666Y-46410857D01*
X71306285Y-46315619D01*
X71353904Y-46268000D01*
X71449142Y-46220380D01*
X71687238Y-46220380D01*
X71830095Y-46268000D01*
X72163428Y-46220380D02*
X72401523Y-47220380D01*
X72592000Y-46506095D01*
X72782476Y-47220380D01*
X73020571Y-46220380D01*
X73877714Y-46220380D02*
X73401523Y-46220380D01*
X73353904Y-46696571D01*
X73401523Y-46648952D01*
X73496761Y-46601333D01*
X73734857Y-46601333D01*
X73830095Y-46648952D01*
X73877714Y-46696571D01*
X73925333Y-46791809D01*
X73925333Y-47029904D01*
X73877714Y-47125142D01*
X73830095Y-47172761D01*
X73734857Y-47220380D01*
X73496761Y-47220380D01*
X73401523Y-47172761D01*
X73353904Y-47125142D01*
G04 #@! TO.C,SW4*
X59371466Y-47172761D02*
X59514323Y-47220380D01*
X59752419Y-47220380D01*
X59847657Y-47172761D01*
X59895276Y-47125142D01*
X59942895Y-47029904D01*
X59942895Y-46934666D01*
X59895276Y-46839428D01*
X59847657Y-46791809D01*
X59752419Y-46744190D01*
X59561942Y-46696571D01*
X59466704Y-46648952D01*
X59419085Y-46601333D01*
X59371466Y-46506095D01*
X59371466Y-46410857D01*
X59419085Y-46315619D01*
X59466704Y-46268000D01*
X59561942Y-46220380D01*
X59800038Y-46220380D01*
X59942895Y-46268000D01*
X60276228Y-46220380D02*
X60514323Y-47220380D01*
X60704800Y-46506095D01*
X60895276Y-47220380D01*
X61133371Y-46220380D01*
X61942895Y-46553714D02*
X61942895Y-47220380D01*
X61704800Y-46172761D02*
X61466704Y-46887047D01*
X62085752Y-46887047D01*
G04 #@! TO.C,SW3*
X47484266Y-47172761D02*
X47627123Y-47220380D01*
X47865219Y-47220380D01*
X47960457Y-47172761D01*
X48008076Y-47125142D01*
X48055695Y-47029904D01*
X48055695Y-46934666D01*
X48008076Y-46839428D01*
X47960457Y-46791809D01*
X47865219Y-46744190D01*
X47674742Y-46696571D01*
X47579504Y-46648952D01*
X47531885Y-46601333D01*
X47484266Y-46506095D01*
X47484266Y-46410857D01*
X47531885Y-46315619D01*
X47579504Y-46268000D01*
X47674742Y-46220380D01*
X47912838Y-46220380D01*
X48055695Y-46268000D01*
X48389028Y-46220380D02*
X48627123Y-47220380D01*
X48817600Y-46506095D01*
X49008076Y-47220380D01*
X49246171Y-46220380D01*
X49531885Y-46220380D02*
X50150933Y-46220380D01*
X49817600Y-46601333D01*
X49960457Y-46601333D01*
X50055695Y-46648952D01*
X50103314Y-46696571D01*
X50150933Y-46791809D01*
X50150933Y-47029904D01*
X50103314Y-47125142D01*
X50055695Y-47172761D01*
X49960457Y-47220380D01*
X49674742Y-47220380D01*
X49579504Y-47172761D01*
X49531885Y-47125142D01*
G04 #@! TO.C,SW2*
X35597066Y-47172761D02*
X35739923Y-47220380D01*
X35978019Y-47220380D01*
X36073257Y-47172761D01*
X36120876Y-47125142D01*
X36168495Y-47029904D01*
X36168495Y-46934666D01*
X36120876Y-46839428D01*
X36073257Y-46791809D01*
X35978019Y-46744190D01*
X35787542Y-46696571D01*
X35692304Y-46648952D01*
X35644685Y-46601333D01*
X35597066Y-46506095D01*
X35597066Y-46410857D01*
X35644685Y-46315619D01*
X35692304Y-46268000D01*
X35787542Y-46220380D01*
X36025638Y-46220380D01*
X36168495Y-46268000D01*
X36501828Y-46220380D02*
X36739923Y-47220380D01*
X36930400Y-46506095D01*
X37120876Y-47220380D01*
X37358971Y-46220380D01*
X37692304Y-46315619D02*
X37739923Y-46268000D01*
X37835161Y-46220380D01*
X38073257Y-46220380D01*
X38168495Y-46268000D01*
X38216114Y-46315619D01*
X38263733Y-46410857D01*
X38263733Y-46506095D01*
X38216114Y-46648952D01*
X37644685Y-47220380D01*
X38263733Y-47220380D01*
G04 #@! TO.C,SW1*
X23709866Y-47172761D02*
X23852723Y-47220380D01*
X24090819Y-47220380D01*
X24186057Y-47172761D01*
X24233676Y-47125142D01*
X24281295Y-47029904D01*
X24281295Y-46934666D01*
X24233676Y-46839428D01*
X24186057Y-46791809D01*
X24090819Y-46744190D01*
X23900342Y-46696571D01*
X23805104Y-46648952D01*
X23757485Y-46601333D01*
X23709866Y-46506095D01*
X23709866Y-46410857D01*
X23757485Y-46315619D01*
X23805104Y-46268000D01*
X23900342Y-46220380D01*
X24138438Y-46220380D01*
X24281295Y-46268000D01*
X24614628Y-46220380D02*
X24852723Y-47220380D01*
X25043200Y-46506095D01*
X25233676Y-47220380D01*
X25471771Y-46220380D01*
X26376533Y-47220380D02*
X25805104Y-47220380D01*
X26090819Y-47220380D02*
X26090819Y-46220380D01*
X25995580Y-46363238D01*
X25900342Y-46458476D01*
X25805104Y-46506095D01*
G04 #@! TO.C,C3*
D15*
X28120856Y-6498173D02*
X28120856Y-6525111D01*
X28093919Y-6578985D01*
X28066982Y-6605923D01*
X28013107Y-6632860D01*
X27959232Y-6632860D01*
X27918826Y-6619392D01*
X27851482Y-6578985D01*
X27811076Y-6538579D01*
X27770670Y-6471236D01*
X27757201Y-6430830D01*
X27757201Y-6376955D01*
X27784139Y-6323080D01*
X27811076Y-6296143D01*
X27864951Y-6269205D01*
X27891888Y-6269205D01*
X27959232Y-6147987D02*
X28134325Y-5972894D01*
X28147794Y-6174924D01*
X28188200Y-6134518D01*
X28228606Y-6121050D01*
X28255543Y-6121050D01*
X28295949Y-6134518D01*
X28363293Y-6201862D01*
X28376762Y-6242268D01*
X28376762Y-6269205D01*
X28363293Y-6309611D01*
X28282481Y-6390424D01*
X28242075Y-6403892D01*
X28215137Y-6403892D01*
G04 #@! TO.C,C4*
X24183874Y-2688155D02*
X24183874Y-2715093D01*
X24156937Y-2768967D01*
X24130000Y-2795905D01*
X24076125Y-2822842D01*
X24022250Y-2822842D01*
X23981844Y-2809374D01*
X23914500Y-2768967D01*
X23874094Y-2728561D01*
X23833688Y-2661218D01*
X23820219Y-2620812D01*
X23820219Y-2566937D01*
X23847157Y-2513062D01*
X23874094Y-2486125D01*
X23927969Y-2459187D01*
X23954906Y-2459187D01*
X24264687Y-2284094D02*
X24453248Y-2472656D01*
X24089593Y-2243688D02*
X24224280Y-2513062D01*
X24399374Y-2337969D01*
G04 #@! TO.C,C1*
D12*
X33775666Y-5492714D02*
X33737571Y-5530809D01*
X33623285Y-5568904D01*
X33547095Y-5568904D01*
X33432809Y-5530809D01*
X33356619Y-5454619D01*
X33318523Y-5378428D01*
X33280428Y-5226047D01*
X33280428Y-5111761D01*
X33318523Y-4959380D01*
X33356619Y-4883190D01*
X33432809Y-4807000D01*
X33547095Y-4768904D01*
X33623285Y-4768904D01*
X33737571Y-4807000D01*
X33775666Y-4845095D01*
X34537571Y-5568904D02*
X34080428Y-5568904D01*
X34309000Y-5568904D02*
X34309000Y-4768904D01*
X34232809Y-4883190D01*
X34156619Y-4959380D01*
X34080428Y-4997476D01*
G04 #@! TO.C,C2*
D13*
X32853333Y-12930142D02*
X32805714Y-12977761D01*
X32662857Y-13025380D01*
X32567619Y-13025380D01*
X32424761Y-12977761D01*
X32329523Y-12882523D01*
X32281904Y-12787285D01*
X32234285Y-12596809D01*
X32234285Y-12453952D01*
X32281904Y-12263476D01*
X32329523Y-12168238D01*
X32424761Y-12073000D01*
X32567619Y-12025380D01*
X32662857Y-12025380D01*
X32805714Y-12073000D01*
X32853333Y-12120619D01*
X33234285Y-12120619D02*
X33281904Y-12073000D01*
X33377142Y-12025380D01*
X33615238Y-12025380D01*
X33710476Y-12073000D01*
X33758095Y-12120619D01*
X33805714Y-12215857D01*
X33805714Y-12311095D01*
X33758095Y-12453952D01*
X33186666Y-13025380D01*
X33805714Y-13025380D01*
G04 #@! TO.C,J2*
X4305333Y-14293904D02*
X4305333Y-14865333D01*
X4267238Y-14979619D01*
X4191047Y-15055809D01*
X4076761Y-15093904D01*
X4000571Y-15093904D01*
X4648190Y-14370095D02*
X4686285Y-14332000D01*
X4762476Y-14293904D01*
X4952952Y-14293904D01*
X5029142Y-14332000D01*
X5067238Y-14370095D01*
X5105333Y-14446285D01*
X5105333Y-14522476D01*
X5067238Y-14636761D01*
X4610095Y-15093904D01*
X5105333Y-15093904D01*
G04 #@! TO.C,J1*
X47037666Y-7805380D02*
X47037666Y-8519666D01*
X46990047Y-8662523D01*
X46894809Y-8757761D01*
X46751952Y-8805380D01*
X46656714Y-8805380D01*
X48037666Y-8805380D02*
X47466238Y-8805380D01*
X47751952Y-8805380D02*
X47751952Y-7805380D01*
X47656714Y-7948238D01*
X47561476Y-8043476D01*
X47466238Y-8091095D01*
G04 #@! TO.C,Y1*
D15*
X25858223Y-4604940D02*
X26026582Y-4773299D01*
X25555177Y-4537597D02*
X25858223Y-4604940D01*
X25790879Y-4301895D01*
X26447478Y-4352402D02*
X26245448Y-4554433D01*
X26346463Y-4453417D02*
X25992910Y-4099864D01*
X26009746Y-4184043D01*
X26009746Y-4251387D01*
X25992910Y-4301895D01*
G04 #@! TO.C,D1*
X21421761Y-23675952D02*
X21421761Y-23275952D01*
X21517000Y-23275952D01*
X21574142Y-23295000D01*
X21612238Y-23333095D01*
X21631285Y-23371190D01*
X21650333Y-23447380D01*
X21650333Y-23504523D01*
X21631285Y-23580714D01*
X21612238Y-23618809D01*
X21574142Y-23656904D01*
X21517000Y-23675952D01*
X21421761Y-23675952D01*
X22031285Y-23675952D02*
X21802714Y-23675952D01*
X21917000Y-23675952D02*
X21917000Y-23275952D01*
X21878904Y-23333095D01*
X21840809Y-23371190D01*
X21802714Y-23390238D01*
G04 #@! TO.C,D2*
X35593361Y-23675952D02*
X35593361Y-23275952D01*
X35688600Y-23275952D01*
X35745742Y-23295000D01*
X35783838Y-23333095D01*
X35802885Y-23371190D01*
X35821933Y-23447380D01*
X35821933Y-23504523D01*
X35802885Y-23580714D01*
X35783838Y-23618809D01*
X35745742Y-23656904D01*
X35688600Y-23675952D01*
X35593361Y-23675952D01*
X35974314Y-23314047D02*
X35993361Y-23295000D01*
X36031457Y-23275952D01*
X36126695Y-23275952D01*
X36164790Y-23295000D01*
X36183838Y-23314047D01*
X36202885Y-23352142D01*
X36202885Y-23390238D01*
X36183838Y-23447380D01*
X35955266Y-23675952D01*
X36202885Y-23675952D01*
G04 #@! TO.C,D3*
X49615733Y-23675952D02*
X49615733Y-23275952D01*
X49710972Y-23275952D01*
X49768114Y-23295000D01*
X49806210Y-23333095D01*
X49825257Y-23371190D01*
X49844305Y-23447380D01*
X49844305Y-23504523D01*
X49825257Y-23580714D01*
X49806210Y-23618809D01*
X49768114Y-23656904D01*
X49710972Y-23675952D01*
X49615733Y-23675952D01*
X49977638Y-23275952D02*
X50225257Y-23275952D01*
X50091924Y-23428333D01*
X50149067Y-23428333D01*
X50187162Y-23447380D01*
X50206210Y-23466428D01*
X50225257Y-23504523D01*
X50225257Y-23599761D01*
X50206210Y-23637857D01*
X50187162Y-23656904D01*
X50149067Y-23675952D01*
X50034781Y-23675952D01*
X49996686Y-23656904D01*
X49977638Y-23637857D01*
G04 #@! TO.C,D4*
X63712776Y-23675952D02*
X63712776Y-23275952D01*
X63808015Y-23275952D01*
X63865157Y-23295000D01*
X63903253Y-23333095D01*
X63922300Y-23371190D01*
X63941348Y-23447380D01*
X63941348Y-23504523D01*
X63922300Y-23580714D01*
X63903253Y-23618809D01*
X63865157Y-23656904D01*
X63808015Y-23675952D01*
X63712776Y-23675952D01*
X64284205Y-23409285D02*
X64284205Y-23675952D01*
X64188967Y-23256904D02*
X64093729Y-23542619D01*
X64341348Y-23542619D01*
G04 #@! TO.C,D5*
X77809761Y-23675952D02*
X77809761Y-23275952D01*
X77905000Y-23275952D01*
X77962142Y-23295000D01*
X78000238Y-23333095D01*
X78019285Y-23371190D01*
X78038333Y-23447380D01*
X78038333Y-23504523D01*
X78019285Y-23580714D01*
X78000238Y-23618809D01*
X77962142Y-23656904D01*
X77905000Y-23675952D01*
X77809761Y-23675952D01*
X78400238Y-23275952D02*
X78209761Y-23275952D01*
X78190714Y-23466428D01*
X78209761Y-23447380D01*
X78247857Y-23428333D01*
X78343095Y-23428333D01*
X78381190Y-23447380D01*
X78400238Y-23466428D01*
X78419285Y-23504523D01*
X78419285Y-23599761D01*
X78400238Y-23637857D01*
X78381190Y-23656904D01*
X78343095Y-23675952D01*
X78247857Y-23675952D01*
X78209761Y-23656904D01*
X78190714Y-23637857D01*
G04 #@! TO.C,J6*
D13*
X81835666Y-49871380D02*
X81835666Y-50585666D01*
X81788047Y-50728523D01*
X81692809Y-50823761D01*
X81549952Y-50871380D01*
X81454714Y-50871380D01*
X82740428Y-49871380D02*
X82549952Y-49871380D01*
X82454714Y-49919000D01*
X82407095Y-49966619D01*
X82311857Y-50109476D01*
X82264238Y-50299952D01*
X82264238Y-50680904D01*
X82311857Y-50776142D01*
X82359476Y-50823761D01*
X82454714Y-50871380D01*
X82645190Y-50871380D01*
X82740428Y-50823761D01*
X82788047Y-50776142D01*
X82835666Y-50680904D01*
X82835666Y-50442809D01*
X82788047Y-50347571D01*
X82740428Y-50299952D01*
X82645190Y-50252333D01*
X82454714Y-50252333D01*
X82359476Y-50299952D01*
X82311857Y-50347571D01*
X82264238Y-50442809D01*
G04 #@! TO.C,J5*
X3222666Y-3135380D02*
X3222666Y-3849666D01*
X3175047Y-3992523D01*
X3079809Y-4087761D01*
X2936952Y-4135380D01*
X2841714Y-4135380D01*
X4175047Y-3135380D02*
X3698857Y-3135380D01*
X3651238Y-3611571D01*
X3698857Y-3563952D01*
X3794095Y-3516333D01*
X4032190Y-3516333D01*
X4127428Y-3563952D01*
X4175047Y-3611571D01*
X4222666Y-3706809D01*
X4222666Y-3944904D01*
X4175047Y-4040142D01*
X4127428Y-4087761D01*
X4032190Y-4135380D01*
X3794095Y-4135380D01*
X3698857Y-4087761D01*
X3651238Y-4040142D01*
G04 #@! TO.C,J8*
X3222666Y-49871380D02*
X3222666Y-50585666D01*
X3175047Y-50728523D01*
X3079809Y-50823761D01*
X2936952Y-50871380D01*
X2841714Y-50871380D01*
X3841714Y-50299952D02*
X3746476Y-50252333D01*
X3698857Y-50204714D01*
X3651238Y-50109476D01*
X3651238Y-50061857D01*
X3698857Y-49966619D01*
X3746476Y-49919000D01*
X3841714Y-49871380D01*
X4032190Y-49871380D01*
X4127428Y-49919000D01*
X4175047Y-49966619D01*
X4222666Y-50061857D01*
X4222666Y-50109476D01*
X4175047Y-50204714D01*
X4127428Y-50252333D01*
X4032190Y-50299952D01*
X3841714Y-50299952D01*
X3746476Y-50347571D01*
X3698857Y-50395190D01*
X3651238Y-50490428D01*
X3651238Y-50680904D01*
X3698857Y-50776142D01*
X3746476Y-50823761D01*
X3841714Y-50871380D01*
X4032190Y-50871380D01*
X4127428Y-50823761D01*
X4175047Y-50776142D01*
X4222666Y-50680904D01*
X4222666Y-50490428D01*
X4175047Y-50395190D01*
X4127428Y-50347571D01*
X4032190Y-50299952D01*
G04 #@! TO.C,J7*
X81835666Y-3008380D02*
X81835666Y-3722666D01*
X81788047Y-3865523D01*
X81692809Y-3960761D01*
X81549952Y-4008380D01*
X81454714Y-4008380D01*
X82216619Y-3008380D02*
X82883285Y-3008380D01*
X82454714Y-4008380D01*
G04 #@! TO.C,U1*
X17108026Y-10438522D02*
X17680446Y-11010942D01*
X17781461Y-11044614D01*
X17848805Y-11044614D01*
X17949820Y-11010942D01*
X18084507Y-10876255D01*
X18118179Y-10775240D01*
X18118179Y-10707896D01*
X18084507Y-10606881D01*
X17512087Y-10034461D01*
X18926301Y-10034461D02*
X18522240Y-10438522D01*
X18724270Y-10236492D02*
X18017164Y-9529385D01*
X18050835Y-9697744D01*
X18050835Y-9832431D01*
X18017164Y-9933446D01*
G04 #@! TO.C,R9*
D15*
X58092952Y-6924666D02*
X57902476Y-7058000D01*
X58092952Y-7153238D02*
X57692952Y-7153238D01*
X57692952Y-7000857D01*
X57712000Y-6962761D01*
X57731047Y-6943714D01*
X57769142Y-6924666D01*
X57826285Y-6924666D01*
X57864380Y-6943714D01*
X57883428Y-6962761D01*
X57902476Y-7000857D01*
X57902476Y-7153238D01*
X58092952Y-6734190D02*
X58092952Y-6658000D01*
X58073904Y-6619904D01*
X58054857Y-6600857D01*
X57997714Y-6562761D01*
X57921523Y-6543714D01*
X57769142Y-6543714D01*
X57731047Y-6562761D01*
X57712000Y-6581809D01*
X57692952Y-6619904D01*
X57692952Y-6696095D01*
X57712000Y-6734190D01*
X57731047Y-6753238D01*
X57769142Y-6772285D01*
X57864380Y-6772285D01*
X57902476Y-6753238D01*
X57921523Y-6734190D01*
X57940571Y-6696095D01*
X57940571Y-6619904D01*
X57921523Y-6581809D01*
X57902476Y-6562761D01*
X57864380Y-6543714D01*
G04 #@! TO.C,R8*
X58092952Y-11623666D02*
X57902476Y-11757000D01*
X58092952Y-11852238D02*
X57692952Y-11852238D01*
X57692952Y-11699857D01*
X57712000Y-11661761D01*
X57731047Y-11642714D01*
X57769142Y-11623666D01*
X57826285Y-11623666D01*
X57864380Y-11642714D01*
X57883428Y-11661761D01*
X57902476Y-11699857D01*
X57902476Y-11852238D01*
X57864380Y-11395095D02*
X57845333Y-11433190D01*
X57826285Y-11452238D01*
X57788190Y-11471285D01*
X57769142Y-11471285D01*
X57731047Y-11452238D01*
X57712000Y-11433190D01*
X57692952Y-11395095D01*
X57692952Y-11318904D01*
X57712000Y-11280809D01*
X57731047Y-11261761D01*
X57769142Y-11242714D01*
X57788190Y-11242714D01*
X57826285Y-11261761D01*
X57845333Y-11280809D01*
X57864380Y-11318904D01*
X57864380Y-11395095D01*
X57883428Y-11433190D01*
X57902476Y-11452238D01*
X57940571Y-11471285D01*
X58016761Y-11471285D01*
X58054857Y-11452238D01*
X58073904Y-11433190D01*
X58092952Y-11395095D01*
X58092952Y-11318904D01*
X58073904Y-11280809D01*
X58054857Y-11261761D01*
X58016761Y-11242714D01*
X57940571Y-11242714D01*
X57902476Y-11261761D01*
X57883428Y-11280809D01*
X57864380Y-11318904D01*
G04 #@! TO.C,R7*
X27602666Y-13180190D02*
X27436000Y-12942095D01*
X27316952Y-13180190D02*
X27316952Y-12680190D01*
X27507428Y-12680190D01*
X27555047Y-12704000D01*
X27578857Y-12727809D01*
X27602666Y-12775428D01*
X27602666Y-12846857D01*
X27578857Y-12894476D01*
X27555047Y-12918285D01*
X27507428Y-12942095D01*
X27316952Y-12942095D01*
X27769333Y-12680190D02*
X28102666Y-12680190D01*
X27888380Y-13180190D01*
G04 #@! TO.C,R5*
X77999633Y-26215952D02*
X77866300Y-26025476D01*
X77771061Y-26215952D02*
X77771061Y-25815952D01*
X77923442Y-25815952D01*
X77961538Y-25835000D01*
X77980585Y-25854047D01*
X77999633Y-25892142D01*
X77999633Y-25949285D01*
X77980585Y-25987380D01*
X77961538Y-26006428D01*
X77923442Y-26025476D01*
X77771061Y-26025476D01*
X78361538Y-25815952D02*
X78171061Y-25815952D01*
X78152014Y-26006428D01*
X78171061Y-25987380D01*
X78209157Y-25968333D01*
X78304395Y-25968333D01*
X78342490Y-25987380D01*
X78361538Y-26006428D01*
X78380585Y-26044523D01*
X78380585Y-26139761D01*
X78361538Y-26177857D01*
X78342490Y-26196904D01*
X78304395Y-26215952D01*
X78209157Y-26215952D01*
X78171061Y-26196904D01*
X78152014Y-26177857D01*
G04 #@! TO.C,R4*
X63968933Y-26215952D02*
X63835600Y-26025476D01*
X63740361Y-26215952D02*
X63740361Y-25815952D01*
X63892742Y-25815952D01*
X63930838Y-25835000D01*
X63949885Y-25854047D01*
X63968933Y-25892142D01*
X63968933Y-25949285D01*
X63949885Y-25987380D01*
X63930838Y-26006428D01*
X63892742Y-26025476D01*
X63740361Y-26025476D01*
X64311790Y-25949285D02*
X64311790Y-26215952D01*
X64216552Y-25796904D02*
X64121314Y-26082619D01*
X64368933Y-26082619D01*
G04 #@! TO.C,R3*
X49844377Y-26215952D02*
X49711044Y-26025476D01*
X49615805Y-26215952D02*
X49615805Y-25815952D01*
X49768186Y-25815952D01*
X49806282Y-25835000D01*
X49825329Y-25854047D01*
X49844377Y-25892142D01*
X49844377Y-25949285D01*
X49825329Y-25987380D01*
X49806282Y-26006428D01*
X49768186Y-26025476D01*
X49615805Y-26025476D01*
X49977710Y-25815952D02*
X50225329Y-25815952D01*
X50091996Y-25968333D01*
X50149139Y-25968333D01*
X50187234Y-25987380D01*
X50206282Y-26006428D01*
X50225329Y-26044523D01*
X50225329Y-26139761D01*
X50206282Y-26177857D01*
X50187234Y-26196904D01*
X50149139Y-26215952D01*
X50034853Y-26215952D01*
X49996758Y-26196904D01*
X49977710Y-26177857D01*
G04 #@! TO.C,R2*
X35747291Y-26215952D02*
X35613958Y-26025476D01*
X35518719Y-26215952D02*
X35518719Y-25815952D01*
X35671100Y-25815952D01*
X35709196Y-25835000D01*
X35728243Y-25854047D01*
X35747291Y-25892142D01*
X35747291Y-25949285D01*
X35728243Y-25987380D01*
X35709196Y-26006428D01*
X35671100Y-26025476D01*
X35518719Y-26025476D01*
X35899672Y-25854047D02*
X35918719Y-25835000D01*
X35956815Y-25815952D01*
X36052053Y-25815952D01*
X36090148Y-25835000D01*
X36109196Y-25854047D01*
X36128243Y-25892142D01*
X36128243Y-25930238D01*
X36109196Y-25987380D01*
X35880624Y-26215952D01*
X36128243Y-26215952D01*
G04 #@! TO.C,R1*
X21677905Y-26215952D02*
X21544572Y-26025476D01*
X21449333Y-26215952D02*
X21449333Y-25815952D01*
X21601714Y-25815952D01*
X21639810Y-25835000D01*
X21658857Y-25854047D01*
X21677905Y-25892142D01*
X21677905Y-25949285D01*
X21658857Y-25987380D01*
X21639810Y-26006428D01*
X21601714Y-26025476D01*
X21449333Y-26025476D01*
X22058857Y-26215952D02*
X21830286Y-26215952D01*
X21944572Y-26215952D02*
X21944572Y-25815952D01*
X21906476Y-25873095D01*
X21868381Y-25911190D01*
X21830286Y-25930238D01*
G04 #@! TO.C,J4*
D13*
X68373666Y-8723380D02*
X68373666Y-9437666D01*
X68326047Y-9580523D01*
X68230809Y-9675761D01*
X68087952Y-9723380D01*
X67992714Y-9723380D01*
X69278428Y-9056714D02*
X69278428Y-9723380D01*
X69040333Y-8675761D02*
X68802238Y-9390047D01*
X69421285Y-9390047D01*
G04 #@! TO.C,J3*
D14*
X68199000Y-14278428D02*
X68199000Y-15367000D01*
X68126428Y-15584714D01*
X67981285Y-15729857D01*
X67763571Y-15802428D01*
X67618428Y-15802428D01*
X68779571Y-14278428D02*
X69723000Y-14278428D01*
X69215000Y-14859000D01*
X69432714Y-14859000D01*
X69577857Y-14931571D01*
X69650428Y-15004142D01*
X69723000Y-15149285D01*
X69723000Y-15512142D01*
X69650428Y-15657285D01*
X69577857Y-15729857D01*
X69432714Y-15802428D01*
X68997285Y-15802428D01*
X68852142Y-15729857D01*
X68779571Y-15657285D01*
X63953571Y-18596428D02*
X63953571Y-17072428D01*
X64461571Y-18161000D01*
X64969571Y-17072428D01*
X64969571Y-18596428D01*
X65695285Y-18596428D02*
X65695285Y-17072428D01*
X66421000Y-18596428D02*
X66421000Y-17072428D01*
X66783857Y-17072428D01*
X67001571Y-17145000D01*
X67146714Y-17290142D01*
X67219285Y-17435285D01*
X67291857Y-17725571D01*
X67291857Y-17943285D01*
X67219285Y-18233571D01*
X67146714Y-18378714D01*
X67001571Y-18523857D01*
X66783857Y-18596428D01*
X66421000Y-18596428D01*
X67945000Y-18596428D02*
X67945000Y-17072428D01*
X70122142Y-17072428D02*
X70412428Y-17072428D01*
X70557571Y-17145000D01*
X70702714Y-17290142D01*
X70775285Y-17580428D01*
X70775285Y-18088428D01*
X70702714Y-18378714D01*
X70557571Y-18523857D01*
X70412428Y-18596428D01*
X70122142Y-18596428D01*
X69977000Y-18523857D01*
X69831857Y-18378714D01*
X69759285Y-18088428D01*
X69759285Y-17580428D01*
X69831857Y-17290142D01*
X69977000Y-17145000D01*
X70122142Y-17072428D01*
X71428428Y-17072428D02*
X71428428Y-18306142D01*
X71501000Y-18451285D01*
X71573571Y-18523857D01*
X71718714Y-18596428D01*
X72009000Y-18596428D01*
X72154142Y-18523857D01*
X72226714Y-18451285D01*
X72299285Y-18306142D01*
X72299285Y-17072428D01*
X72807285Y-17072428D02*
X73678142Y-17072428D01*
X73242714Y-18596428D02*
X73242714Y-17072428D01*
G04 #@! TO.C,RV3*
D13*
X49415461Y-38934380D02*
X49082128Y-38458190D01*
X48844033Y-38934380D02*
X48844033Y-37934380D01*
X49224985Y-37934380D01*
X49320223Y-37982000D01*
X49367842Y-38029619D01*
X49415461Y-38124857D01*
X49415461Y-38267714D01*
X49367842Y-38362952D01*
X49320223Y-38410571D01*
X49224985Y-38458190D01*
X48844033Y-38458190D01*
X49701176Y-37934380D02*
X50034509Y-38934380D01*
X50367842Y-37934380D01*
X50605938Y-37934380D02*
X51224985Y-37934380D01*
X50891652Y-38315333D01*
X51034509Y-38315333D01*
X51129747Y-38362952D01*
X51177366Y-38410571D01*
X51224985Y-38505809D01*
X51224985Y-38743904D01*
X51177366Y-38839142D01*
X51129747Y-38886761D01*
X51034509Y-38934380D01*
X50748795Y-38934380D01*
X50653557Y-38886761D01*
X50605938Y-38839142D01*
G04 #@! TO.C,RV4*
X63511861Y-38934380D02*
X63178528Y-38458190D01*
X62940433Y-38934380D02*
X62940433Y-37934380D01*
X63321385Y-37934380D01*
X63416623Y-37982000D01*
X63464242Y-38029619D01*
X63511861Y-38124857D01*
X63511861Y-38267714D01*
X63464242Y-38362952D01*
X63416623Y-38410571D01*
X63321385Y-38458190D01*
X62940433Y-38458190D01*
X63797576Y-37934380D02*
X64130909Y-38934380D01*
X64464242Y-37934380D01*
X65226147Y-38267714D02*
X65226147Y-38934380D01*
X64988052Y-37886761D02*
X64749957Y-38601047D01*
X65369004Y-38601047D01*
G04 #@! TO.C,RV1*
X21222661Y-38934380D02*
X20889328Y-38458190D01*
X20651233Y-38934380D02*
X20651233Y-37934380D01*
X21032185Y-37934380D01*
X21127423Y-37982000D01*
X21175042Y-38029619D01*
X21222661Y-38124857D01*
X21222661Y-38267714D01*
X21175042Y-38362952D01*
X21127423Y-38410571D01*
X21032185Y-38458190D01*
X20651233Y-38458190D01*
X21508376Y-37934380D02*
X21841709Y-38934380D01*
X22175042Y-37934380D01*
X23032185Y-38934380D02*
X22460757Y-38934380D01*
X22746471Y-38934380D02*
X22746471Y-37934380D01*
X22651233Y-38077238D01*
X22555995Y-38172476D01*
X22460757Y-38220095D01*
G04 #@! TO.C,RV5*
X77608361Y-38934380D02*
X77275028Y-38458190D01*
X77036933Y-38934380D02*
X77036933Y-37934380D01*
X77417885Y-37934380D01*
X77513123Y-37982000D01*
X77560742Y-38029619D01*
X77608361Y-38124857D01*
X77608361Y-38267714D01*
X77560742Y-38362952D01*
X77513123Y-38410571D01*
X77417885Y-38458190D01*
X77036933Y-38458190D01*
X77894076Y-37934380D02*
X78227409Y-38934380D01*
X78560742Y-37934380D01*
X79370266Y-37934380D02*
X78894076Y-37934380D01*
X78846457Y-38410571D01*
X78894076Y-38362952D01*
X78989314Y-38315333D01*
X79227409Y-38315333D01*
X79322647Y-38362952D01*
X79370266Y-38410571D01*
X79417885Y-38505809D01*
X79417885Y-38743904D01*
X79370266Y-38839142D01*
X79322647Y-38886761D01*
X79227409Y-38934380D01*
X78989314Y-38934380D01*
X78894076Y-38886761D01*
X78846457Y-38839142D01*
G04 #@! TO.C,RV2*
X35319061Y-38934380D02*
X34985728Y-38458190D01*
X34747633Y-38934380D02*
X34747633Y-37934380D01*
X35128585Y-37934380D01*
X35223823Y-37982000D01*
X35271442Y-38029619D01*
X35319061Y-38124857D01*
X35319061Y-38267714D01*
X35271442Y-38362952D01*
X35223823Y-38410571D01*
X35128585Y-38458190D01*
X34747633Y-38458190D01*
X35604776Y-37934380D02*
X35938109Y-38934380D01*
X36271442Y-37934380D01*
X36557157Y-38029619D02*
X36604776Y-37982000D01*
X36700014Y-37934380D01*
X36938109Y-37934380D01*
X37033347Y-37982000D01*
X37080966Y-38029619D01*
X37128585Y-38124857D01*
X37128585Y-38220095D01*
X37080966Y-38362952D01*
X36509538Y-38934380D01*
X37128585Y-38934380D01*
G04 #@! TD*
M02*
