G04 #@! TF.GenerationSoftware,KiCad,Pcbnew,(5.0.2)-1*
G04 #@! TF.CreationDate,2021-01-08T16:19:23+01:00*
G04 #@! TF.ProjectId,CardSizeMidiController,43617264-5369-47a6-954d-696469436f6e,rev?*
G04 #@! TF.SameCoordinates,Original*
G04 #@! TF.FileFunction,Soldermask,Bot*
G04 #@! TF.FilePolarity,Negative*
%FSLAX46Y46*%
G04 Gerber Fmt 4.6, Leading zero omitted, Abs format (unit mm)*
G04 Created by KiCad (PCBNEW (5.0.2)-1) date 08/01/2021 16:19:23*
%MOMM*%
%LPD*%
G01*
G04 APERTURE LIST*
%ADD10C,0.100000*%
G04 APERTURE END LIST*
D10*
G36*
X82803239Y-47230467D02*
X83117282Y-47292934D01*
X83708926Y-47538001D01*
X83998523Y-47731504D01*
X84241395Y-47893786D01*
X84694214Y-48346605D01*
X84694216Y-48346608D01*
X85049999Y-48879074D01*
X85295066Y-49470718D01*
X85350017Y-49746976D01*
X85420000Y-50098803D01*
X85420000Y-50739197D01*
X85357533Y-51053239D01*
X85295066Y-51367282D01*
X85049999Y-51958926D01*
X84802265Y-52329685D01*
X84694214Y-52491395D01*
X84241395Y-52944214D01*
X84241392Y-52944216D01*
X83708926Y-53299999D01*
X83117282Y-53545066D01*
X82803239Y-53607533D01*
X82489197Y-53670000D01*
X81848803Y-53670000D01*
X81534761Y-53607533D01*
X81220718Y-53545066D01*
X80629074Y-53299999D01*
X80096608Y-52944216D01*
X80096605Y-52944214D01*
X79643786Y-52491395D01*
X79535735Y-52329685D01*
X79288001Y-51958926D01*
X79042934Y-51367282D01*
X78980467Y-51053239D01*
X78918000Y-50739197D01*
X78918000Y-50098803D01*
X78987983Y-49746976D01*
X79042934Y-49470718D01*
X79288001Y-48879074D01*
X79643784Y-48346608D01*
X79643786Y-48346605D01*
X80096605Y-47893786D01*
X80339477Y-47731504D01*
X80629074Y-47538001D01*
X81220718Y-47292934D01*
X81534761Y-47230467D01*
X81848803Y-47168000D01*
X82489197Y-47168000D01*
X82803239Y-47230467D01*
X82803239Y-47230467D01*
G37*
G36*
X4190239Y-47230467D02*
X4504282Y-47292934D01*
X5095926Y-47538001D01*
X5385523Y-47731504D01*
X5628395Y-47893786D01*
X6081214Y-48346605D01*
X6081216Y-48346608D01*
X6436999Y-48879074D01*
X6682066Y-49470718D01*
X6737017Y-49746976D01*
X6807000Y-50098803D01*
X6807000Y-50739197D01*
X6744533Y-51053239D01*
X6682066Y-51367282D01*
X6436999Y-51958926D01*
X6189265Y-52329685D01*
X6081214Y-52491395D01*
X5628395Y-52944214D01*
X5628392Y-52944216D01*
X5095926Y-53299999D01*
X4504282Y-53545066D01*
X4190239Y-53607533D01*
X3876197Y-53670000D01*
X3235803Y-53670000D01*
X2921761Y-53607533D01*
X2607718Y-53545066D01*
X2016074Y-53299999D01*
X1483608Y-52944216D01*
X1483605Y-52944214D01*
X1030786Y-52491395D01*
X922735Y-52329685D01*
X675001Y-51958926D01*
X429934Y-51367282D01*
X367467Y-51053239D01*
X305000Y-50739197D01*
X305000Y-50098803D01*
X374983Y-49746976D01*
X429934Y-49470718D01*
X675001Y-48879074D01*
X1030784Y-48346608D01*
X1030786Y-48346605D01*
X1483605Y-47893786D01*
X1726477Y-47731504D01*
X2016074Y-47538001D01*
X2607718Y-47292934D01*
X2921761Y-47230467D01*
X3235803Y-47168000D01*
X3876197Y-47168000D01*
X4190239Y-47230467D01*
X4190239Y-47230467D01*
G37*
G36*
X52374165Y-48066389D02*
X52565434Y-48145615D01*
X52737576Y-48260637D01*
X52883963Y-48407024D01*
X52998985Y-48579166D01*
X53078211Y-48770435D01*
X53118600Y-48973484D01*
X53118600Y-49180516D01*
X53078211Y-49383565D01*
X52998985Y-49574834D01*
X52883963Y-49746976D01*
X52737576Y-49893363D01*
X52565434Y-50008385D01*
X52374165Y-50087611D01*
X52171116Y-50128000D01*
X51964084Y-50128000D01*
X51761035Y-50087611D01*
X51569766Y-50008385D01*
X51397624Y-49893363D01*
X51251237Y-49746976D01*
X51136215Y-49574834D01*
X51056989Y-49383565D01*
X51016600Y-49180516D01*
X51016600Y-48973484D01*
X51056989Y-48770435D01*
X51136215Y-48579166D01*
X51251237Y-48407024D01*
X51397624Y-48260637D01*
X51569766Y-48145615D01*
X51761035Y-48066389D01*
X51964084Y-48026000D01*
X52171116Y-48026000D01*
X52374165Y-48066389D01*
X52374165Y-48066389D01*
G37*
G36*
X28599765Y-48066389D02*
X28791034Y-48145615D01*
X28963176Y-48260637D01*
X29109563Y-48407024D01*
X29224585Y-48579166D01*
X29303811Y-48770435D01*
X29344200Y-48973484D01*
X29344200Y-49180516D01*
X29303811Y-49383565D01*
X29224585Y-49574834D01*
X29109563Y-49746976D01*
X28963176Y-49893363D01*
X28791034Y-50008385D01*
X28599765Y-50087611D01*
X28396716Y-50128000D01*
X28189684Y-50128000D01*
X27986635Y-50087611D01*
X27795366Y-50008385D01*
X27623224Y-49893363D01*
X27476837Y-49746976D01*
X27361815Y-49574834D01*
X27282589Y-49383565D01*
X27242200Y-49180516D01*
X27242200Y-48973484D01*
X27282589Y-48770435D01*
X27361815Y-48579166D01*
X27476837Y-48407024D01*
X27623224Y-48260637D01*
X27795366Y-48145615D01*
X27986635Y-48066389D01*
X28189684Y-48026000D01*
X28396716Y-48026000D01*
X28599765Y-48066389D01*
X28599765Y-48066389D01*
G37*
G36*
X33986965Y-48066389D02*
X34178234Y-48145615D01*
X34350376Y-48260637D01*
X34496763Y-48407024D01*
X34611785Y-48579166D01*
X34691011Y-48770435D01*
X34731400Y-48973484D01*
X34731400Y-49180516D01*
X34691011Y-49383565D01*
X34611785Y-49574834D01*
X34496763Y-49746976D01*
X34350376Y-49893363D01*
X34178234Y-50008385D01*
X33986965Y-50087611D01*
X33783916Y-50128000D01*
X33576884Y-50128000D01*
X33373835Y-50087611D01*
X33182566Y-50008385D01*
X33010424Y-49893363D01*
X32864037Y-49746976D01*
X32749015Y-49574834D01*
X32669789Y-49383565D01*
X32629400Y-49180516D01*
X32629400Y-48973484D01*
X32669789Y-48770435D01*
X32749015Y-48579166D01*
X32864037Y-48407024D01*
X33010424Y-48260637D01*
X33182566Y-48145615D01*
X33373835Y-48066389D01*
X33576884Y-48026000D01*
X33783916Y-48026000D01*
X33986965Y-48066389D01*
X33986965Y-48066389D01*
G37*
G36*
X40486965Y-48066389D02*
X40678234Y-48145615D01*
X40850376Y-48260637D01*
X40996763Y-48407024D01*
X41111785Y-48579166D01*
X41191011Y-48770435D01*
X41231400Y-48973484D01*
X41231400Y-49180516D01*
X41191011Y-49383565D01*
X41111785Y-49574834D01*
X40996763Y-49746976D01*
X40850376Y-49893363D01*
X40678234Y-50008385D01*
X40486965Y-50087611D01*
X40283916Y-50128000D01*
X40076884Y-50128000D01*
X39873835Y-50087611D01*
X39682566Y-50008385D01*
X39510424Y-49893363D01*
X39364037Y-49746976D01*
X39249015Y-49574834D01*
X39169789Y-49383565D01*
X39129400Y-49180516D01*
X39129400Y-48973484D01*
X39169789Y-48770435D01*
X39249015Y-48579166D01*
X39364037Y-48407024D01*
X39510424Y-48260637D01*
X39682566Y-48145615D01*
X39873835Y-48066389D01*
X40076884Y-48026000D01*
X40283916Y-48026000D01*
X40486965Y-48066389D01*
X40486965Y-48066389D01*
G37*
G36*
X45874165Y-48066389D02*
X46065434Y-48145615D01*
X46237576Y-48260637D01*
X46383963Y-48407024D01*
X46498985Y-48579166D01*
X46578211Y-48770435D01*
X46618600Y-48973484D01*
X46618600Y-49180516D01*
X46578211Y-49383565D01*
X46498985Y-49574834D01*
X46383963Y-49746976D01*
X46237576Y-49893363D01*
X46065434Y-50008385D01*
X45874165Y-50087611D01*
X45671116Y-50128000D01*
X45464084Y-50128000D01*
X45261035Y-50087611D01*
X45069766Y-50008385D01*
X44897624Y-49893363D01*
X44751237Y-49746976D01*
X44636215Y-49574834D01*
X44556989Y-49383565D01*
X44516600Y-49180516D01*
X44516600Y-48973484D01*
X44556989Y-48770435D01*
X44636215Y-48579166D01*
X44751237Y-48407024D01*
X44897624Y-48260637D01*
X45069766Y-48145615D01*
X45261035Y-48066389D01*
X45464084Y-48026000D01*
X45671116Y-48026000D01*
X45874165Y-48066389D01*
X45874165Y-48066389D01*
G37*
G36*
X57761365Y-48066389D02*
X57952634Y-48145615D01*
X58124776Y-48260637D01*
X58271163Y-48407024D01*
X58386185Y-48579166D01*
X58465411Y-48770435D01*
X58505800Y-48973484D01*
X58505800Y-49180516D01*
X58465411Y-49383565D01*
X58386185Y-49574834D01*
X58271163Y-49746976D01*
X58124776Y-49893363D01*
X57952634Y-50008385D01*
X57761365Y-50087611D01*
X57558316Y-50128000D01*
X57351284Y-50128000D01*
X57148235Y-50087611D01*
X56956966Y-50008385D01*
X56784824Y-49893363D01*
X56638437Y-49746976D01*
X56523415Y-49574834D01*
X56444189Y-49383565D01*
X56403800Y-49180516D01*
X56403800Y-48973484D01*
X56444189Y-48770435D01*
X56523415Y-48579166D01*
X56638437Y-48407024D01*
X56784824Y-48260637D01*
X56956966Y-48145615D01*
X57148235Y-48066389D01*
X57351284Y-48026000D01*
X57558316Y-48026000D01*
X57761365Y-48066389D01*
X57761365Y-48066389D01*
G37*
G36*
X64261365Y-48066389D02*
X64452634Y-48145615D01*
X64624776Y-48260637D01*
X64771163Y-48407024D01*
X64886185Y-48579166D01*
X64965411Y-48770435D01*
X65005800Y-48973484D01*
X65005800Y-49180516D01*
X64965411Y-49383565D01*
X64886185Y-49574834D01*
X64771163Y-49746976D01*
X64624776Y-49893363D01*
X64452634Y-50008385D01*
X64261365Y-50087611D01*
X64058316Y-50128000D01*
X63851284Y-50128000D01*
X63648235Y-50087611D01*
X63456966Y-50008385D01*
X63284824Y-49893363D01*
X63138437Y-49746976D01*
X63023415Y-49574834D01*
X62944189Y-49383565D01*
X62903800Y-49180516D01*
X62903800Y-48973484D01*
X62944189Y-48770435D01*
X63023415Y-48579166D01*
X63138437Y-48407024D01*
X63284824Y-48260637D01*
X63456966Y-48145615D01*
X63648235Y-48066389D01*
X63851284Y-48026000D01*
X64058316Y-48026000D01*
X64261365Y-48066389D01*
X64261365Y-48066389D01*
G37*
G36*
X76148565Y-48066389D02*
X76339834Y-48145615D01*
X76511976Y-48260637D01*
X76658363Y-48407024D01*
X76773385Y-48579166D01*
X76852611Y-48770435D01*
X76893000Y-48973484D01*
X76893000Y-49180516D01*
X76852611Y-49383565D01*
X76773385Y-49574834D01*
X76658363Y-49746976D01*
X76511976Y-49893363D01*
X76339834Y-50008385D01*
X76148565Y-50087611D01*
X75945516Y-50128000D01*
X75738484Y-50128000D01*
X75535435Y-50087611D01*
X75344166Y-50008385D01*
X75172024Y-49893363D01*
X75025637Y-49746976D01*
X74910615Y-49574834D01*
X74831389Y-49383565D01*
X74791000Y-49180516D01*
X74791000Y-48973484D01*
X74831389Y-48770435D01*
X74910615Y-48579166D01*
X75025637Y-48407024D01*
X75172024Y-48260637D01*
X75344166Y-48145615D01*
X75535435Y-48066389D01*
X75738484Y-48026000D01*
X75945516Y-48026000D01*
X76148565Y-48066389D01*
X76148565Y-48066389D01*
G37*
G36*
X69648565Y-48066389D02*
X69839834Y-48145615D01*
X70011976Y-48260637D01*
X70158363Y-48407024D01*
X70273385Y-48579166D01*
X70352611Y-48770435D01*
X70393000Y-48973484D01*
X70393000Y-49180516D01*
X70352611Y-49383565D01*
X70273385Y-49574834D01*
X70158363Y-49746976D01*
X70011976Y-49893363D01*
X69839834Y-50008385D01*
X69648565Y-50087611D01*
X69445516Y-50128000D01*
X69238484Y-50128000D01*
X69035435Y-50087611D01*
X68844166Y-50008385D01*
X68672024Y-49893363D01*
X68525637Y-49746976D01*
X68410615Y-49574834D01*
X68331389Y-49383565D01*
X68291000Y-49180516D01*
X68291000Y-48973484D01*
X68331389Y-48770435D01*
X68410615Y-48579166D01*
X68525637Y-48407024D01*
X68672024Y-48260637D01*
X68844166Y-48145615D01*
X69035435Y-48066389D01*
X69238484Y-48026000D01*
X69445516Y-48026000D01*
X69648565Y-48066389D01*
X69648565Y-48066389D01*
G37*
G36*
X16712565Y-48066389D02*
X16903834Y-48145615D01*
X17075976Y-48260637D01*
X17222363Y-48407024D01*
X17337385Y-48579166D01*
X17416611Y-48770435D01*
X17457000Y-48973484D01*
X17457000Y-49180516D01*
X17416611Y-49383565D01*
X17337385Y-49574834D01*
X17222363Y-49746976D01*
X17075976Y-49893363D01*
X16903834Y-50008385D01*
X16712565Y-50087611D01*
X16509516Y-50128000D01*
X16302484Y-50128000D01*
X16099435Y-50087611D01*
X15908166Y-50008385D01*
X15736024Y-49893363D01*
X15589637Y-49746976D01*
X15474615Y-49574834D01*
X15395389Y-49383565D01*
X15355000Y-49180516D01*
X15355000Y-48973484D01*
X15395389Y-48770435D01*
X15474615Y-48579166D01*
X15589637Y-48407024D01*
X15736024Y-48260637D01*
X15908166Y-48145615D01*
X16099435Y-48066389D01*
X16302484Y-48026000D01*
X16509516Y-48026000D01*
X16712565Y-48066389D01*
X16712565Y-48066389D01*
G37*
G36*
X10212565Y-48066389D02*
X10403834Y-48145615D01*
X10575976Y-48260637D01*
X10722363Y-48407024D01*
X10837385Y-48579166D01*
X10916611Y-48770435D01*
X10957000Y-48973484D01*
X10957000Y-49180516D01*
X10916611Y-49383565D01*
X10837385Y-49574834D01*
X10722363Y-49746976D01*
X10575976Y-49893363D01*
X10403834Y-50008385D01*
X10212565Y-50087611D01*
X10009516Y-50128000D01*
X9802484Y-50128000D01*
X9599435Y-50087611D01*
X9408166Y-50008385D01*
X9236024Y-49893363D01*
X9089637Y-49746976D01*
X8974615Y-49574834D01*
X8895389Y-49383565D01*
X8855000Y-49180516D01*
X8855000Y-48973484D01*
X8895389Y-48770435D01*
X8974615Y-48579166D01*
X9089637Y-48407024D01*
X9236024Y-48260637D01*
X9408166Y-48145615D01*
X9599435Y-48066389D01*
X9802484Y-48026000D01*
X10009516Y-48026000D01*
X10212565Y-48066389D01*
X10212565Y-48066389D01*
G37*
G36*
X22099765Y-48066389D02*
X22291034Y-48145615D01*
X22463176Y-48260637D01*
X22609563Y-48407024D01*
X22724585Y-48579166D01*
X22803811Y-48770435D01*
X22844200Y-48973484D01*
X22844200Y-49180516D01*
X22803811Y-49383565D01*
X22724585Y-49574834D01*
X22609563Y-49746976D01*
X22463176Y-49893363D01*
X22291034Y-50008385D01*
X22099765Y-50087611D01*
X21896716Y-50128000D01*
X21689684Y-50128000D01*
X21486635Y-50087611D01*
X21295366Y-50008385D01*
X21123224Y-49893363D01*
X20976837Y-49746976D01*
X20861815Y-49574834D01*
X20782589Y-49383565D01*
X20742200Y-49180516D01*
X20742200Y-48973484D01*
X20782589Y-48770435D01*
X20861815Y-48579166D01*
X20976837Y-48407024D01*
X21123224Y-48260637D01*
X21295366Y-48145615D01*
X21486635Y-48066389D01*
X21689684Y-48026000D01*
X21896716Y-48026000D01*
X22099765Y-48066389D01*
X22099765Y-48066389D01*
G37*
G36*
X33986965Y-43566389D02*
X34178234Y-43645615D01*
X34350376Y-43760637D01*
X34496763Y-43907024D01*
X34611785Y-44079166D01*
X34691011Y-44270435D01*
X34731400Y-44473484D01*
X34731400Y-44680516D01*
X34691011Y-44883565D01*
X34611785Y-45074834D01*
X34496763Y-45246976D01*
X34350376Y-45393363D01*
X34178234Y-45508385D01*
X33986965Y-45587611D01*
X33783916Y-45628000D01*
X33576884Y-45628000D01*
X33373835Y-45587611D01*
X33182566Y-45508385D01*
X33010424Y-45393363D01*
X32864037Y-45246976D01*
X32749015Y-45074834D01*
X32669789Y-44883565D01*
X32629400Y-44680516D01*
X32629400Y-44473484D01*
X32669789Y-44270435D01*
X32749015Y-44079166D01*
X32864037Y-43907024D01*
X33010424Y-43760637D01*
X33182566Y-43645615D01*
X33373835Y-43566389D01*
X33576884Y-43526000D01*
X33783916Y-43526000D01*
X33986965Y-43566389D01*
X33986965Y-43566389D01*
G37*
G36*
X76148565Y-43566389D02*
X76339834Y-43645615D01*
X76511976Y-43760637D01*
X76658363Y-43907024D01*
X76773385Y-44079166D01*
X76852611Y-44270435D01*
X76893000Y-44473484D01*
X76893000Y-44680516D01*
X76852611Y-44883565D01*
X76773385Y-45074834D01*
X76658363Y-45246976D01*
X76511976Y-45393363D01*
X76339834Y-45508385D01*
X76148565Y-45587611D01*
X75945516Y-45628000D01*
X75738484Y-45628000D01*
X75535435Y-45587611D01*
X75344166Y-45508385D01*
X75172024Y-45393363D01*
X75025637Y-45246976D01*
X74910615Y-45074834D01*
X74831389Y-44883565D01*
X74791000Y-44680516D01*
X74791000Y-44473484D01*
X74831389Y-44270435D01*
X74910615Y-44079166D01*
X75025637Y-43907024D01*
X75172024Y-43760637D01*
X75344166Y-43645615D01*
X75535435Y-43566389D01*
X75738484Y-43526000D01*
X75945516Y-43526000D01*
X76148565Y-43566389D01*
X76148565Y-43566389D01*
G37*
G36*
X10212565Y-43566389D02*
X10403834Y-43645615D01*
X10575976Y-43760637D01*
X10722363Y-43907024D01*
X10837385Y-44079166D01*
X10916611Y-44270435D01*
X10957000Y-44473484D01*
X10957000Y-44680516D01*
X10916611Y-44883565D01*
X10837385Y-45074834D01*
X10722363Y-45246976D01*
X10575976Y-45393363D01*
X10403834Y-45508385D01*
X10212565Y-45587611D01*
X10009516Y-45628000D01*
X9802484Y-45628000D01*
X9599435Y-45587611D01*
X9408166Y-45508385D01*
X9236024Y-45393363D01*
X9089637Y-45246976D01*
X8974615Y-45074834D01*
X8895389Y-44883565D01*
X8855000Y-44680516D01*
X8855000Y-44473484D01*
X8895389Y-44270435D01*
X8974615Y-44079166D01*
X9089637Y-43907024D01*
X9236024Y-43760637D01*
X9408166Y-43645615D01*
X9599435Y-43566389D01*
X9802484Y-43526000D01*
X10009516Y-43526000D01*
X10212565Y-43566389D01*
X10212565Y-43566389D01*
G37*
G36*
X16712565Y-43566389D02*
X16903834Y-43645615D01*
X17075976Y-43760637D01*
X17222363Y-43907024D01*
X17337385Y-44079166D01*
X17416611Y-44270435D01*
X17457000Y-44473484D01*
X17457000Y-44680516D01*
X17416611Y-44883565D01*
X17337385Y-45074834D01*
X17222363Y-45246976D01*
X17075976Y-45393363D01*
X16903834Y-45508385D01*
X16712565Y-45587611D01*
X16509516Y-45628000D01*
X16302484Y-45628000D01*
X16099435Y-45587611D01*
X15908166Y-45508385D01*
X15736024Y-45393363D01*
X15589637Y-45246976D01*
X15474615Y-45074834D01*
X15395389Y-44883565D01*
X15355000Y-44680516D01*
X15355000Y-44473484D01*
X15395389Y-44270435D01*
X15474615Y-44079166D01*
X15589637Y-43907024D01*
X15736024Y-43760637D01*
X15908166Y-43645615D01*
X16099435Y-43566389D01*
X16302484Y-43526000D01*
X16509516Y-43526000D01*
X16712565Y-43566389D01*
X16712565Y-43566389D01*
G37*
G36*
X69648565Y-43566389D02*
X69839834Y-43645615D01*
X70011976Y-43760637D01*
X70158363Y-43907024D01*
X70273385Y-44079166D01*
X70352611Y-44270435D01*
X70393000Y-44473484D01*
X70393000Y-44680516D01*
X70352611Y-44883565D01*
X70273385Y-45074834D01*
X70158363Y-45246976D01*
X70011976Y-45393363D01*
X69839834Y-45508385D01*
X69648565Y-45587611D01*
X69445516Y-45628000D01*
X69238484Y-45628000D01*
X69035435Y-45587611D01*
X68844166Y-45508385D01*
X68672024Y-45393363D01*
X68525637Y-45246976D01*
X68410615Y-45074834D01*
X68331389Y-44883565D01*
X68291000Y-44680516D01*
X68291000Y-44473484D01*
X68331389Y-44270435D01*
X68410615Y-44079166D01*
X68525637Y-43907024D01*
X68672024Y-43760637D01*
X68844166Y-43645615D01*
X69035435Y-43566389D01*
X69238484Y-43526000D01*
X69445516Y-43526000D01*
X69648565Y-43566389D01*
X69648565Y-43566389D01*
G37*
G36*
X28599765Y-43566389D02*
X28791034Y-43645615D01*
X28963176Y-43760637D01*
X29109563Y-43907024D01*
X29224585Y-44079166D01*
X29303811Y-44270435D01*
X29344200Y-44473484D01*
X29344200Y-44680516D01*
X29303811Y-44883565D01*
X29224585Y-45074834D01*
X29109563Y-45246976D01*
X28963176Y-45393363D01*
X28791034Y-45508385D01*
X28599765Y-45587611D01*
X28396716Y-45628000D01*
X28189684Y-45628000D01*
X27986635Y-45587611D01*
X27795366Y-45508385D01*
X27623224Y-45393363D01*
X27476837Y-45246976D01*
X27361815Y-45074834D01*
X27282589Y-44883565D01*
X27242200Y-44680516D01*
X27242200Y-44473484D01*
X27282589Y-44270435D01*
X27361815Y-44079166D01*
X27476837Y-43907024D01*
X27623224Y-43760637D01*
X27795366Y-43645615D01*
X27986635Y-43566389D01*
X28189684Y-43526000D01*
X28396716Y-43526000D01*
X28599765Y-43566389D01*
X28599765Y-43566389D01*
G37*
G36*
X22099765Y-43566389D02*
X22291034Y-43645615D01*
X22463176Y-43760637D01*
X22609563Y-43907024D01*
X22724585Y-44079166D01*
X22803811Y-44270435D01*
X22844200Y-44473484D01*
X22844200Y-44680516D01*
X22803811Y-44883565D01*
X22724585Y-45074834D01*
X22609563Y-45246976D01*
X22463176Y-45393363D01*
X22291034Y-45508385D01*
X22099765Y-45587611D01*
X21896716Y-45628000D01*
X21689684Y-45628000D01*
X21486635Y-45587611D01*
X21295366Y-45508385D01*
X21123224Y-45393363D01*
X20976837Y-45246976D01*
X20861815Y-45074834D01*
X20782589Y-44883565D01*
X20742200Y-44680516D01*
X20742200Y-44473484D01*
X20782589Y-44270435D01*
X20861815Y-44079166D01*
X20976837Y-43907024D01*
X21123224Y-43760637D01*
X21295366Y-43645615D01*
X21486635Y-43566389D01*
X21689684Y-43526000D01*
X21896716Y-43526000D01*
X22099765Y-43566389D01*
X22099765Y-43566389D01*
G37*
G36*
X64261365Y-43566389D02*
X64452634Y-43645615D01*
X64624776Y-43760637D01*
X64771163Y-43907024D01*
X64886185Y-44079166D01*
X64965411Y-44270435D01*
X65005800Y-44473484D01*
X65005800Y-44680516D01*
X64965411Y-44883565D01*
X64886185Y-45074834D01*
X64771163Y-45246976D01*
X64624776Y-45393363D01*
X64452634Y-45508385D01*
X64261365Y-45587611D01*
X64058316Y-45628000D01*
X63851284Y-45628000D01*
X63648235Y-45587611D01*
X63456966Y-45508385D01*
X63284824Y-45393363D01*
X63138437Y-45246976D01*
X63023415Y-45074834D01*
X62944189Y-44883565D01*
X62903800Y-44680516D01*
X62903800Y-44473484D01*
X62944189Y-44270435D01*
X63023415Y-44079166D01*
X63138437Y-43907024D01*
X63284824Y-43760637D01*
X63456966Y-43645615D01*
X63648235Y-43566389D01*
X63851284Y-43526000D01*
X64058316Y-43526000D01*
X64261365Y-43566389D01*
X64261365Y-43566389D01*
G37*
G36*
X57761365Y-43566389D02*
X57952634Y-43645615D01*
X58124776Y-43760637D01*
X58271163Y-43907024D01*
X58386185Y-44079166D01*
X58465411Y-44270435D01*
X58505800Y-44473484D01*
X58505800Y-44680516D01*
X58465411Y-44883565D01*
X58386185Y-45074834D01*
X58271163Y-45246976D01*
X58124776Y-45393363D01*
X57952634Y-45508385D01*
X57761365Y-45587611D01*
X57558316Y-45628000D01*
X57351284Y-45628000D01*
X57148235Y-45587611D01*
X56956966Y-45508385D01*
X56784824Y-45393363D01*
X56638437Y-45246976D01*
X56523415Y-45074834D01*
X56444189Y-44883565D01*
X56403800Y-44680516D01*
X56403800Y-44473484D01*
X56444189Y-44270435D01*
X56523415Y-44079166D01*
X56638437Y-43907024D01*
X56784824Y-43760637D01*
X56956966Y-43645615D01*
X57148235Y-43566389D01*
X57351284Y-43526000D01*
X57558316Y-43526000D01*
X57761365Y-43566389D01*
X57761365Y-43566389D01*
G37*
G36*
X40486965Y-43566389D02*
X40678234Y-43645615D01*
X40850376Y-43760637D01*
X40996763Y-43907024D01*
X41111785Y-44079166D01*
X41191011Y-44270435D01*
X41231400Y-44473484D01*
X41231400Y-44680516D01*
X41191011Y-44883565D01*
X41111785Y-45074834D01*
X40996763Y-45246976D01*
X40850376Y-45393363D01*
X40678234Y-45508385D01*
X40486965Y-45587611D01*
X40283916Y-45628000D01*
X40076884Y-45628000D01*
X39873835Y-45587611D01*
X39682566Y-45508385D01*
X39510424Y-45393363D01*
X39364037Y-45246976D01*
X39249015Y-45074834D01*
X39169789Y-44883565D01*
X39129400Y-44680516D01*
X39129400Y-44473484D01*
X39169789Y-44270435D01*
X39249015Y-44079166D01*
X39364037Y-43907024D01*
X39510424Y-43760637D01*
X39682566Y-43645615D01*
X39873835Y-43566389D01*
X40076884Y-43526000D01*
X40283916Y-43526000D01*
X40486965Y-43566389D01*
X40486965Y-43566389D01*
G37*
G36*
X45874165Y-43566389D02*
X46065434Y-43645615D01*
X46237576Y-43760637D01*
X46383963Y-43907024D01*
X46498985Y-44079166D01*
X46578211Y-44270435D01*
X46618600Y-44473484D01*
X46618600Y-44680516D01*
X46578211Y-44883565D01*
X46498985Y-45074834D01*
X46383963Y-45246976D01*
X46237576Y-45393363D01*
X46065434Y-45508385D01*
X45874165Y-45587611D01*
X45671116Y-45628000D01*
X45464084Y-45628000D01*
X45261035Y-45587611D01*
X45069766Y-45508385D01*
X44897624Y-45393363D01*
X44751237Y-45246976D01*
X44636215Y-45074834D01*
X44556989Y-44883565D01*
X44516600Y-44680516D01*
X44516600Y-44473484D01*
X44556989Y-44270435D01*
X44636215Y-44079166D01*
X44751237Y-43907024D01*
X44897624Y-43760637D01*
X45069766Y-43645615D01*
X45261035Y-43566389D01*
X45464084Y-43526000D01*
X45671116Y-43526000D01*
X45874165Y-43566389D01*
X45874165Y-43566389D01*
G37*
G36*
X52374165Y-43566389D02*
X52565434Y-43645615D01*
X52737576Y-43760637D01*
X52883963Y-43907024D01*
X52998985Y-44079166D01*
X53078211Y-44270435D01*
X53118600Y-44473484D01*
X53118600Y-44680516D01*
X53078211Y-44883565D01*
X52998985Y-45074834D01*
X52883963Y-45246976D01*
X52737576Y-45393363D01*
X52565434Y-45508385D01*
X52374165Y-45587611D01*
X52171116Y-45628000D01*
X51964084Y-45628000D01*
X51761035Y-45587611D01*
X51569766Y-45508385D01*
X51397624Y-45393363D01*
X51251237Y-45246976D01*
X51136215Y-45074834D01*
X51056989Y-44883565D01*
X51016600Y-44680516D01*
X51016600Y-44473484D01*
X51056989Y-44270435D01*
X51136215Y-44079166D01*
X51251237Y-43907024D01*
X51397624Y-43760637D01*
X51569766Y-43645615D01*
X51761035Y-43566389D01*
X51964084Y-43526000D01*
X52171116Y-43526000D01*
X52374165Y-43566389D01*
X52374165Y-43566389D01*
G37*
G36*
X5278424Y-39869590D02*
X5429411Y-39915392D01*
X5568561Y-39989768D01*
X5629548Y-40039819D01*
X5690533Y-40089867D01*
X5690534Y-40089869D01*
X5690536Y-40089870D01*
X5790630Y-40211835D01*
X5865008Y-40350988D01*
X5910810Y-40501975D01*
X5922400Y-40619654D01*
X5922400Y-41198346D01*
X5910810Y-41316025D01*
X5865008Y-41467012D01*
X5790630Y-41606165D01*
X5690533Y-41728133D01*
X5568565Y-41828230D01*
X5429412Y-41902608D01*
X5278425Y-41948410D01*
X5121400Y-41963875D01*
X4964376Y-41948410D01*
X4813389Y-41902608D01*
X4674236Y-41828230D01*
X4552268Y-41728133D01*
X4530189Y-41701230D01*
X4452171Y-41606165D01*
X4377792Y-41467012D01*
X4339266Y-41340010D01*
X4331990Y-41316025D01*
X4320400Y-41198346D01*
X4320400Y-40619655D01*
X4331990Y-40501976D01*
X4377792Y-40350989D01*
X4452168Y-40211839D01*
X4552265Y-40089870D01*
X4552267Y-40089867D01*
X4552269Y-40089866D01*
X4552270Y-40089864D01*
X4674235Y-39989770D01*
X4813388Y-39915392D01*
X4964375Y-39869590D01*
X5121400Y-39854125D01*
X5278424Y-39869590D01*
X5278424Y-39869590D01*
G37*
G36*
X7778424Y-39869590D02*
X7929411Y-39915392D01*
X8068561Y-39989768D01*
X8129548Y-40039819D01*
X8190533Y-40089867D01*
X8190534Y-40089869D01*
X8190536Y-40089870D01*
X8290630Y-40211835D01*
X8365008Y-40350988D01*
X8410810Y-40501975D01*
X8422400Y-40619654D01*
X8422400Y-41198346D01*
X8410810Y-41316025D01*
X8365008Y-41467012D01*
X8290630Y-41606165D01*
X8190533Y-41728133D01*
X8068565Y-41828230D01*
X7929412Y-41902608D01*
X7778425Y-41948410D01*
X7621400Y-41963875D01*
X7464376Y-41948410D01*
X7313389Y-41902608D01*
X7174236Y-41828230D01*
X7052268Y-41728133D01*
X7030189Y-41701230D01*
X6952171Y-41606165D01*
X6877792Y-41467012D01*
X6839266Y-41340010D01*
X6831990Y-41316025D01*
X6820400Y-41198346D01*
X6820400Y-40619655D01*
X6831990Y-40501976D01*
X6877792Y-40350989D01*
X6952168Y-40211839D01*
X7052265Y-40089870D01*
X7052267Y-40089867D01*
X7052269Y-40089866D01*
X7052270Y-40089864D01*
X7174235Y-39989770D01*
X7313388Y-39915392D01*
X7464375Y-39869590D01*
X7621400Y-39854125D01*
X7778424Y-39869590D01*
X7778424Y-39869590D01*
G37*
G36*
X10278424Y-39869590D02*
X10429411Y-39915392D01*
X10568561Y-39989768D01*
X10629548Y-40039819D01*
X10690533Y-40089867D01*
X10690534Y-40089869D01*
X10690536Y-40089870D01*
X10790630Y-40211835D01*
X10865008Y-40350988D01*
X10910810Y-40501975D01*
X10922400Y-40619654D01*
X10922400Y-41198346D01*
X10910810Y-41316025D01*
X10865008Y-41467012D01*
X10790630Y-41606165D01*
X10690533Y-41728133D01*
X10568565Y-41828230D01*
X10429412Y-41902608D01*
X10278425Y-41948410D01*
X10121400Y-41963875D01*
X9964376Y-41948410D01*
X9813389Y-41902608D01*
X9674236Y-41828230D01*
X9552268Y-41728133D01*
X9530189Y-41701230D01*
X9452171Y-41606165D01*
X9377792Y-41467012D01*
X9339266Y-41340010D01*
X9331990Y-41316025D01*
X9320400Y-41198346D01*
X9320400Y-40619655D01*
X9331990Y-40501976D01*
X9377792Y-40350989D01*
X9452168Y-40211839D01*
X9552265Y-40089870D01*
X9552267Y-40089867D01*
X9552269Y-40089866D01*
X9552270Y-40089864D01*
X9674235Y-39989770D01*
X9813388Y-39915392D01*
X9964375Y-39869590D01*
X10121400Y-39854125D01*
X10278424Y-39869590D01*
X10278424Y-39869590D01*
G37*
G36*
X19374924Y-39742590D02*
X19525911Y-39788392D01*
X19665061Y-39862768D01*
X19726048Y-39912819D01*
X19787033Y-39962867D01*
X19787034Y-39962869D01*
X19787036Y-39962870D01*
X19887130Y-40084835D01*
X19961508Y-40223988D01*
X20007310Y-40374975D01*
X20018900Y-40492654D01*
X20018900Y-41071346D01*
X20007310Y-41189025D01*
X19961508Y-41340012D01*
X19887130Y-41479165D01*
X19787033Y-41601133D01*
X19665065Y-41701230D01*
X19525912Y-41775608D01*
X19374925Y-41821410D01*
X19217900Y-41836875D01*
X19060876Y-41821410D01*
X18909889Y-41775608D01*
X18770736Y-41701230D01*
X18648768Y-41601133D01*
X18548671Y-41479165D01*
X18474292Y-41340012D01*
X18431318Y-41198346D01*
X18428490Y-41189025D01*
X18416900Y-41071346D01*
X18416900Y-40492655D01*
X18428490Y-40374976D01*
X18474292Y-40223989D01*
X18548668Y-40084839D01*
X18626689Y-39989770D01*
X18648767Y-39962867D01*
X18648769Y-39962866D01*
X18648770Y-39962864D01*
X18770735Y-39862770D01*
X18909888Y-39788392D01*
X19060875Y-39742590D01*
X19217900Y-39727125D01*
X19374924Y-39742590D01*
X19374924Y-39742590D01*
G37*
G36*
X24374924Y-39742590D02*
X24525911Y-39788392D01*
X24665061Y-39862768D01*
X24726048Y-39912819D01*
X24787033Y-39962867D01*
X24787034Y-39962869D01*
X24787036Y-39962870D01*
X24887130Y-40084835D01*
X24961508Y-40223988D01*
X25007310Y-40374975D01*
X25018900Y-40492654D01*
X25018900Y-41071346D01*
X25007310Y-41189025D01*
X24961508Y-41340012D01*
X24887130Y-41479165D01*
X24787033Y-41601133D01*
X24665065Y-41701230D01*
X24525912Y-41775608D01*
X24374925Y-41821410D01*
X24217900Y-41836875D01*
X24060876Y-41821410D01*
X23909889Y-41775608D01*
X23770736Y-41701230D01*
X23648768Y-41601133D01*
X23548671Y-41479165D01*
X23474292Y-41340012D01*
X23431318Y-41198346D01*
X23428490Y-41189025D01*
X23416900Y-41071346D01*
X23416900Y-40492655D01*
X23428490Y-40374976D01*
X23474292Y-40223989D01*
X23548668Y-40084839D01*
X23626689Y-39989770D01*
X23648767Y-39962867D01*
X23648769Y-39962866D01*
X23648770Y-39962864D01*
X23770735Y-39862770D01*
X23909888Y-39788392D01*
X24060875Y-39742590D01*
X24217900Y-39727125D01*
X24374924Y-39742590D01*
X24374924Y-39742590D01*
G37*
G36*
X21874924Y-39742590D02*
X22025911Y-39788392D01*
X22165061Y-39862768D01*
X22226048Y-39912819D01*
X22287033Y-39962867D01*
X22287034Y-39962869D01*
X22287036Y-39962870D01*
X22387130Y-40084835D01*
X22461508Y-40223988D01*
X22507310Y-40374975D01*
X22518900Y-40492654D01*
X22518900Y-41071346D01*
X22507310Y-41189025D01*
X22461508Y-41340012D01*
X22387130Y-41479165D01*
X22287033Y-41601133D01*
X22165065Y-41701230D01*
X22025912Y-41775608D01*
X21874925Y-41821410D01*
X21717900Y-41836875D01*
X21560876Y-41821410D01*
X21409889Y-41775608D01*
X21270736Y-41701230D01*
X21148768Y-41601133D01*
X21048671Y-41479165D01*
X20974292Y-41340012D01*
X20931318Y-41198346D01*
X20928490Y-41189025D01*
X20916900Y-41071346D01*
X20916900Y-40492655D01*
X20928490Y-40374976D01*
X20974292Y-40223989D01*
X21048668Y-40084839D01*
X21126689Y-39989770D01*
X21148767Y-39962867D01*
X21148769Y-39962866D01*
X21148770Y-39962864D01*
X21270735Y-39862770D01*
X21409888Y-39788392D01*
X21560875Y-39742590D01*
X21717900Y-39727125D01*
X21874924Y-39742590D01*
X21874924Y-39742590D01*
G37*
G36*
X78260624Y-39742590D02*
X78411611Y-39788392D01*
X78550761Y-39862768D01*
X78611748Y-39912819D01*
X78672733Y-39962867D01*
X78672734Y-39962869D01*
X78672736Y-39962870D01*
X78772830Y-40084835D01*
X78847208Y-40223988D01*
X78893010Y-40374975D01*
X78904600Y-40492654D01*
X78904600Y-41071346D01*
X78893010Y-41189025D01*
X78847208Y-41340012D01*
X78772830Y-41479165D01*
X78672733Y-41601133D01*
X78550765Y-41701230D01*
X78411612Y-41775608D01*
X78260625Y-41821410D01*
X78103600Y-41836875D01*
X77946576Y-41821410D01*
X77795589Y-41775608D01*
X77656436Y-41701230D01*
X77534468Y-41601133D01*
X77434371Y-41479165D01*
X77359992Y-41340012D01*
X77317018Y-41198346D01*
X77314190Y-41189025D01*
X77302600Y-41071346D01*
X77302600Y-40492655D01*
X77314190Y-40374976D01*
X77359992Y-40223989D01*
X77434368Y-40084839D01*
X77512389Y-39989770D01*
X77534467Y-39962867D01*
X77534469Y-39962866D01*
X77534470Y-39962864D01*
X77656435Y-39862770D01*
X77795588Y-39788392D01*
X77946575Y-39742590D01*
X78103600Y-39727125D01*
X78260624Y-39742590D01*
X78260624Y-39742590D01*
G37*
G36*
X80760624Y-39742590D02*
X80911611Y-39788392D01*
X81050761Y-39862768D01*
X81111748Y-39912819D01*
X81172733Y-39962867D01*
X81172734Y-39962869D01*
X81172736Y-39962870D01*
X81272830Y-40084835D01*
X81347208Y-40223988D01*
X81393010Y-40374975D01*
X81404600Y-40492654D01*
X81404600Y-41071346D01*
X81393010Y-41189025D01*
X81347208Y-41340012D01*
X81272830Y-41479165D01*
X81172733Y-41601133D01*
X81050765Y-41701230D01*
X80911612Y-41775608D01*
X80760625Y-41821410D01*
X80603600Y-41836875D01*
X80446576Y-41821410D01*
X80295589Y-41775608D01*
X80156436Y-41701230D01*
X80034468Y-41601133D01*
X79934371Y-41479165D01*
X79859992Y-41340012D01*
X79817018Y-41198346D01*
X79814190Y-41189025D01*
X79802600Y-41071346D01*
X79802600Y-40492655D01*
X79814190Y-40374976D01*
X79859992Y-40223989D01*
X79934368Y-40084839D01*
X80012389Y-39989770D01*
X80034467Y-39962867D01*
X80034469Y-39962866D01*
X80034470Y-39962864D01*
X80156435Y-39862770D01*
X80295588Y-39788392D01*
X80446575Y-39742590D01*
X80603600Y-39727125D01*
X80760624Y-39742590D01*
X80760624Y-39742590D01*
G37*
G36*
X66664124Y-39742590D02*
X66815111Y-39788392D01*
X66954261Y-39862768D01*
X67015248Y-39912819D01*
X67076233Y-39962867D01*
X67076234Y-39962869D01*
X67076236Y-39962870D01*
X67176330Y-40084835D01*
X67250708Y-40223988D01*
X67296510Y-40374975D01*
X67308100Y-40492654D01*
X67308100Y-41071346D01*
X67296510Y-41189025D01*
X67250708Y-41340012D01*
X67176330Y-41479165D01*
X67076233Y-41601133D01*
X66954265Y-41701230D01*
X66815112Y-41775608D01*
X66664125Y-41821410D01*
X66507100Y-41836875D01*
X66350076Y-41821410D01*
X66199089Y-41775608D01*
X66059936Y-41701230D01*
X65937968Y-41601133D01*
X65837871Y-41479165D01*
X65763492Y-41340012D01*
X65720518Y-41198346D01*
X65717690Y-41189025D01*
X65706100Y-41071346D01*
X65706100Y-40492655D01*
X65717690Y-40374976D01*
X65763492Y-40223989D01*
X65837868Y-40084839D01*
X65915889Y-39989770D01*
X65937967Y-39962867D01*
X65937969Y-39962866D01*
X65937970Y-39962864D01*
X66059935Y-39862770D01*
X66199088Y-39788392D01*
X66350075Y-39742590D01*
X66507100Y-39727125D01*
X66664124Y-39742590D01*
X66664124Y-39742590D01*
G37*
G36*
X64164124Y-39742590D02*
X64315111Y-39788392D01*
X64454261Y-39862768D01*
X64515248Y-39912819D01*
X64576233Y-39962867D01*
X64576234Y-39962869D01*
X64576236Y-39962870D01*
X64676330Y-40084835D01*
X64750708Y-40223988D01*
X64796510Y-40374975D01*
X64808100Y-40492654D01*
X64808100Y-41071346D01*
X64796510Y-41189025D01*
X64750708Y-41340012D01*
X64676330Y-41479165D01*
X64576233Y-41601133D01*
X64454265Y-41701230D01*
X64315112Y-41775608D01*
X64164125Y-41821410D01*
X64007100Y-41836875D01*
X63850076Y-41821410D01*
X63699089Y-41775608D01*
X63559936Y-41701230D01*
X63437968Y-41601133D01*
X63337871Y-41479165D01*
X63263492Y-41340012D01*
X63220518Y-41198346D01*
X63217690Y-41189025D01*
X63206100Y-41071346D01*
X63206100Y-40492655D01*
X63217690Y-40374976D01*
X63263492Y-40223989D01*
X63337868Y-40084839D01*
X63415889Y-39989770D01*
X63437967Y-39962867D01*
X63437969Y-39962866D01*
X63437970Y-39962864D01*
X63559935Y-39862770D01*
X63699088Y-39788392D01*
X63850075Y-39742590D01*
X64007100Y-39727125D01*
X64164124Y-39742590D01*
X64164124Y-39742590D01*
G37*
G36*
X52567724Y-39742590D02*
X52718711Y-39788392D01*
X52857861Y-39862768D01*
X52918848Y-39912819D01*
X52979833Y-39962867D01*
X52979834Y-39962869D01*
X52979836Y-39962870D01*
X53079930Y-40084835D01*
X53154308Y-40223988D01*
X53200110Y-40374975D01*
X53211700Y-40492654D01*
X53211700Y-41071346D01*
X53200110Y-41189025D01*
X53154308Y-41340012D01*
X53079930Y-41479165D01*
X52979833Y-41601133D01*
X52857865Y-41701230D01*
X52718712Y-41775608D01*
X52567725Y-41821410D01*
X52410700Y-41836875D01*
X52253676Y-41821410D01*
X52102689Y-41775608D01*
X51963536Y-41701230D01*
X51841568Y-41601133D01*
X51741471Y-41479165D01*
X51667092Y-41340012D01*
X51624118Y-41198346D01*
X51621290Y-41189025D01*
X51609700Y-41071346D01*
X51609700Y-40492655D01*
X51621290Y-40374976D01*
X51667092Y-40223989D01*
X51741468Y-40084839D01*
X51819489Y-39989770D01*
X51841567Y-39962867D01*
X51841569Y-39962866D01*
X51841570Y-39962864D01*
X51963535Y-39862770D01*
X52102688Y-39788392D01*
X52253675Y-39742590D01*
X52410700Y-39727125D01*
X52567724Y-39742590D01*
X52567724Y-39742590D01*
G37*
G36*
X61664124Y-39742590D02*
X61815111Y-39788392D01*
X61954261Y-39862768D01*
X62015248Y-39912819D01*
X62076233Y-39962867D01*
X62076234Y-39962869D01*
X62076236Y-39962870D01*
X62176330Y-40084835D01*
X62250708Y-40223988D01*
X62296510Y-40374975D01*
X62308100Y-40492654D01*
X62308100Y-41071346D01*
X62296510Y-41189025D01*
X62250708Y-41340012D01*
X62176330Y-41479165D01*
X62076233Y-41601133D01*
X61954265Y-41701230D01*
X61815112Y-41775608D01*
X61664125Y-41821410D01*
X61507100Y-41836875D01*
X61350076Y-41821410D01*
X61199089Y-41775608D01*
X61059936Y-41701230D01*
X60937968Y-41601133D01*
X60837871Y-41479165D01*
X60763492Y-41340012D01*
X60720518Y-41198346D01*
X60717690Y-41189025D01*
X60706100Y-41071346D01*
X60706100Y-40492655D01*
X60717690Y-40374976D01*
X60763492Y-40223989D01*
X60837868Y-40084839D01*
X60915889Y-39989770D01*
X60937967Y-39962867D01*
X60937969Y-39962866D01*
X60937970Y-39962864D01*
X61059935Y-39862770D01*
X61199088Y-39788392D01*
X61350075Y-39742590D01*
X61507100Y-39727125D01*
X61664124Y-39742590D01*
X61664124Y-39742590D01*
G37*
G36*
X38471324Y-39742590D02*
X38622311Y-39788392D01*
X38761461Y-39862768D01*
X38822448Y-39912819D01*
X38883433Y-39962867D01*
X38883434Y-39962869D01*
X38883436Y-39962870D01*
X38983530Y-40084835D01*
X39057908Y-40223988D01*
X39103710Y-40374975D01*
X39115300Y-40492654D01*
X39115300Y-41071346D01*
X39103710Y-41189025D01*
X39057908Y-41340012D01*
X38983530Y-41479165D01*
X38883433Y-41601133D01*
X38761465Y-41701230D01*
X38622312Y-41775608D01*
X38471325Y-41821410D01*
X38314300Y-41836875D01*
X38157276Y-41821410D01*
X38006289Y-41775608D01*
X37867136Y-41701230D01*
X37745168Y-41601133D01*
X37645071Y-41479165D01*
X37570692Y-41340012D01*
X37527718Y-41198346D01*
X37524890Y-41189025D01*
X37513300Y-41071346D01*
X37513300Y-40492655D01*
X37524890Y-40374976D01*
X37570692Y-40223989D01*
X37645068Y-40084839D01*
X37723089Y-39989770D01*
X37745167Y-39962867D01*
X37745169Y-39962866D01*
X37745170Y-39962864D01*
X37867135Y-39862770D01*
X38006288Y-39788392D01*
X38157275Y-39742590D01*
X38314300Y-39727125D01*
X38471324Y-39742590D01*
X38471324Y-39742590D01*
G37*
G36*
X75760624Y-39742590D02*
X75911611Y-39788392D01*
X76050761Y-39862768D01*
X76111748Y-39912819D01*
X76172733Y-39962867D01*
X76172734Y-39962869D01*
X76172736Y-39962870D01*
X76272830Y-40084835D01*
X76347208Y-40223988D01*
X76393010Y-40374975D01*
X76404600Y-40492654D01*
X76404600Y-41071346D01*
X76393010Y-41189025D01*
X76347208Y-41340012D01*
X76272830Y-41479165D01*
X76172733Y-41601133D01*
X76050765Y-41701230D01*
X75911612Y-41775608D01*
X75760625Y-41821410D01*
X75603600Y-41836875D01*
X75446576Y-41821410D01*
X75295589Y-41775608D01*
X75156436Y-41701230D01*
X75034468Y-41601133D01*
X74934371Y-41479165D01*
X74859992Y-41340012D01*
X74817018Y-41198346D01*
X74814190Y-41189025D01*
X74802600Y-41071346D01*
X74802600Y-40492655D01*
X74814190Y-40374976D01*
X74859992Y-40223989D01*
X74934368Y-40084839D01*
X75012389Y-39989770D01*
X75034467Y-39962867D01*
X75034469Y-39962866D01*
X75034470Y-39962864D01*
X75156435Y-39862770D01*
X75295588Y-39788392D01*
X75446575Y-39742590D01*
X75603600Y-39727125D01*
X75760624Y-39742590D01*
X75760624Y-39742590D01*
G37*
G36*
X35971324Y-39742590D02*
X36122311Y-39788392D01*
X36261461Y-39862768D01*
X36322448Y-39912819D01*
X36383433Y-39962867D01*
X36383434Y-39962869D01*
X36383436Y-39962870D01*
X36483530Y-40084835D01*
X36557908Y-40223988D01*
X36603710Y-40374975D01*
X36615300Y-40492654D01*
X36615300Y-41071346D01*
X36603710Y-41189025D01*
X36557908Y-41340012D01*
X36483530Y-41479165D01*
X36383433Y-41601133D01*
X36261465Y-41701230D01*
X36122312Y-41775608D01*
X35971325Y-41821410D01*
X35814300Y-41836875D01*
X35657276Y-41821410D01*
X35506289Y-41775608D01*
X35367136Y-41701230D01*
X35245168Y-41601133D01*
X35145071Y-41479165D01*
X35070692Y-41340012D01*
X35027718Y-41198346D01*
X35024890Y-41189025D01*
X35013300Y-41071346D01*
X35013300Y-40492655D01*
X35024890Y-40374976D01*
X35070692Y-40223989D01*
X35145068Y-40084839D01*
X35223089Y-39989770D01*
X35245167Y-39962867D01*
X35245169Y-39962866D01*
X35245170Y-39962864D01*
X35367135Y-39862770D01*
X35506288Y-39788392D01*
X35657275Y-39742590D01*
X35814300Y-39727125D01*
X35971324Y-39742590D01*
X35971324Y-39742590D01*
G37*
G36*
X47567724Y-39742590D02*
X47718711Y-39788392D01*
X47857861Y-39862768D01*
X47918848Y-39912819D01*
X47979833Y-39962867D01*
X47979834Y-39962869D01*
X47979836Y-39962870D01*
X48079930Y-40084835D01*
X48154308Y-40223988D01*
X48200110Y-40374975D01*
X48211700Y-40492654D01*
X48211700Y-41071346D01*
X48200110Y-41189025D01*
X48154308Y-41340012D01*
X48079930Y-41479165D01*
X47979833Y-41601133D01*
X47857865Y-41701230D01*
X47718712Y-41775608D01*
X47567725Y-41821410D01*
X47410700Y-41836875D01*
X47253676Y-41821410D01*
X47102689Y-41775608D01*
X46963536Y-41701230D01*
X46841568Y-41601133D01*
X46741471Y-41479165D01*
X46667092Y-41340012D01*
X46624118Y-41198346D01*
X46621290Y-41189025D01*
X46609700Y-41071346D01*
X46609700Y-40492655D01*
X46621290Y-40374976D01*
X46667092Y-40223989D01*
X46741468Y-40084839D01*
X46819489Y-39989770D01*
X46841567Y-39962867D01*
X46841569Y-39962866D01*
X46841570Y-39962864D01*
X46963535Y-39862770D01*
X47102688Y-39788392D01*
X47253675Y-39742590D01*
X47410700Y-39727125D01*
X47567724Y-39742590D01*
X47567724Y-39742590D01*
G37*
G36*
X50067724Y-39742590D02*
X50218711Y-39788392D01*
X50357861Y-39862768D01*
X50418848Y-39912819D01*
X50479833Y-39962867D01*
X50479834Y-39962869D01*
X50479836Y-39962870D01*
X50579930Y-40084835D01*
X50654308Y-40223988D01*
X50700110Y-40374975D01*
X50711700Y-40492654D01*
X50711700Y-41071346D01*
X50700110Y-41189025D01*
X50654308Y-41340012D01*
X50579930Y-41479165D01*
X50479833Y-41601133D01*
X50357865Y-41701230D01*
X50218712Y-41775608D01*
X50067725Y-41821410D01*
X49910700Y-41836875D01*
X49753676Y-41821410D01*
X49602689Y-41775608D01*
X49463536Y-41701230D01*
X49341568Y-41601133D01*
X49241471Y-41479165D01*
X49167092Y-41340012D01*
X49124118Y-41198346D01*
X49121290Y-41189025D01*
X49109700Y-41071346D01*
X49109700Y-40492655D01*
X49121290Y-40374976D01*
X49167092Y-40223989D01*
X49241468Y-40084839D01*
X49319489Y-39989770D01*
X49341567Y-39962867D01*
X49341569Y-39962866D01*
X49341570Y-39962864D01*
X49463535Y-39862770D01*
X49602688Y-39788392D01*
X49753675Y-39742590D01*
X49910700Y-39727125D01*
X50067724Y-39742590D01*
X50067724Y-39742590D01*
G37*
G36*
X33471324Y-39742590D02*
X33622311Y-39788392D01*
X33761461Y-39862768D01*
X33822448Y-39912819D01*
X33883433Y-39962867D01*
X33883434Y-39962869D01*
X33883436Y-39962870D01*
X33983530Y-40084835D01*
X34057908Y-40223988D01*
X34103710Y-40374975D01*
X34115300Y-40492654D01*
X34115300Y-41071346D01*
X34103710Y-41189025D01*
X34057908Y-41340012D01*
X33983530Y-41479165D01*
X33883433Y-41601133D01*
X33761465Y-41701230D01*
X33622312Y-41775608D01*
X33471325Y-41821410D01*
X33314300Y-41836875D01*
X33157276Y-41821410D01*
X33006289Y-41775608D01*
X32867136Y-41701230D01*
X32745168Y-41601133D01*
X32645071Y-41479165D01*
X32570692Y-41340012D01*
X32527718Y-41198346D01*
X32524890Y-41189025D01*
X32513300Y-41071346D01*
X32513300Y-40492655D01*
X32524890Y-40374976D01*
X32570692Y-40223989D01*
X32645068Y-40084839D01*
X32723089Y-39989770D01*
X32745167Y-39962867D01*
X32745169Y-39962866D01*
X32745170Y-39962864D01*
X32867135Y-39862770D01*
X33006288Y-39788392D01*
X33157275Y-39742590D01*
X33314300Y-39727125D01*
X33471324Y-39742590D01*
X33471324Y-39742590D01*
G37*
G36*
X12946731Y-32177211D02*
X13274492Y-32312974D01*
X13569473Y-32510074D01*
X13820326Y-32760927D01*
X14017426Y-33055908D01*
X14153189Y-33383669D01*
X14222400Y-33731616D01*
X14222400Y-34086384D01*
X14153189Y-34434331D01*
X14017426Y-34762092D01*
X13820326Y-35057073D01*
X13569473Y-35307926D01*
X13274492Y-35505026D01*
X12946731Y-35640789D01*
X12598784Y-35710000D01*
X12244016Y-35710000D01*
X11896069Y-35640789D01*
X11568308Y-35505026D01*
X11273327Y-35307926D01*
X11022474Y-35057073D01*
X10825374Y-34762092D01*
X10689611Y-34434331D01*
X10620400Y-34086384D01*
X10620400Y-33731616D01*
X10689611Y-33383669D01*
X10825374Y-33055908D01*
X11022474Y-32760927D01*
X11273327Y-32510074D01*
X11568308Y-32312974D01*
X11896069Y-32177211D01*
X12244016Y-32108000D01*
X12598784Y-32108000D01*
X12946731Y-32177211D01*
X12946731Y-32177211D01*
G37*
G36*
X3346731Y-32177211D02*
X3674492Y-32312974D01*
X3969473Y-32510074D01*
X4220326Y-32760927D01*
X4417426Y-33055908D01*
X4553189Y-33383669D01*
X4622400Y-33731616D01*
X4622400Y-34086384D01*
X4553189Y-34434331D01*
X4417426Y-34762092D01*
X4220326Y-35057073D01*
X3969473Y-35307926D01*
X3674492Y-35505026D01*
X3346731Y-35640789D01*
X2998784Y-35710000D01*
X2644016Y-35710000D01*
X2296069Y-35640789D01*
X1968308Y-35505026D01*
X1673327Y-35307926D01*
X1422474Y-35057073D01*
X1225374Y-34762092D01*
X1089611Y-34434331D01*
X1020400Y-34086384D01*
X1020400Y-33731616D01*
X1089611Y-33383669D01*
X1225374Y-33055908D01*
X1422474Y-32760927D01*
X1673327Y-32510074D01*
X1968308Y-32312974D01*
X2296069Y-32177211D01*
X2644016Y-32108000D01*
X2998784Y-32108000D01*
X3346731Y-32177211D01*
X3346731Y-32177211D01*
G37*
G36*
X17443231Y-32050211D02*
X17770992Y-32185974D01*
X18065973Y-32383074D01*
X18316826Y-32633927D01*
X18513926Y-32928908D01*
X18649689Y-33256669D01*
X18718900Y-33604616D01*
X18718900Y-33959384D01*
X18649689Y-34307331D01*
X18513926Y-34635092D01*
X18316826Y-34930073D01*
X18065973Y-35180926D01*
X17770992Y-35378026D01*
X17443231Y-35513789D01*
X17095284Y-35583000D01*
X16740516Y-35583000D01*
X16392569Y-35513789D01*
X16064808Y-35378026D01*
X15769827Y-35180926D01*
X15518974Y-34930073D01*
X15321874Y-34635092D01*
X15186111Y-34307331D01*
X15116900Y-33959384D01*
X15116900Y-33604616D01*
X15186111Y-33256669D01*
X15321874Y-32928908D01*
X15518974Y-32633927D01*
X15769827Y-32383074D01*
X16064808Y-32185974D01*
X16392569Y-32050211D01*
X16740516Y-31981000D01*
X17095284Y-31981000D01*
X17443231Y-32050211D01*
X17443231Y-32050211D01*
G37*
G36*
X45636031Y-32050211D02*
X45963792Y-32185974D01*
X46258773Y-32383074D01*
X46509626Y-32633927D01*
X46706726Y-32928908D01*
X46842489Y-33256669D01*
X46911700Y-33604616D01*
X46911700Y-33959384D01*
X46842489Y-34307331D01*
X46706726Y-34635092D01*
X46509626Y-34930073D01*
X46258773Y-35180926D01*
X45963792Y-35378026D01*
X45636031Y-35513789D01*
X45288084Y-35583000D01*
X44933316Y-35583000D01*
X44585369Y-35513789D01*
X44257608Y-35378026D01*
X43962627Y-35180926D01*
X43711774Y-34930073D01*
X43514674Y-34635092D01*
X43378911Y-34307331D01*
X43309700Y-33959384D01*
X43309700Y-33604616D01*
X43378911Y-33256669D01*
X43514674Y-32928908D01*
X43711774Y-32633927D01*
X43962627Y-32383074D01*
X44257608Y-32185974D01*
X44585369Y-32050211D01*
X44933316Y-31981000D01*
X45288084Y-31981000D01*
X45636031Y-32050211D01*
X45636031Y-32050211D01*
G37*
G36*
X59732431Y-32050211D02*
X60060192Y-32185974D01*
X60355173Y-32383074D01*
X60606026Y-32633927D01*
X60803126Y-32928908D01*
X60938889Y-33256669D01*
X61008100Y-33604616D01*
X61008100Y-33959384D01*
X60938889Y-34307331D01*
X60803126Y-34635092D01*
X60606026Y-34930073D01*
X60355173Y-35180926D01*
X60060192Y-35378026D01*
X59732431Y-35513789D01*
X59384484Y-35583000D01*
X59029716Y-35583000D01*
X58681769Y-35513789D01*
X58354008Y-35378026D01*
X58059027Y-35180926D01*
X57808174Y-34930073D01*
X57611074Y-34635092D01*
X57475311Y-34307331D01*
X57406100Y-33959384D01*
X57406100Y-33604616D01*
X57475311Y-33256669D01*
X57611074Y-32928908D01*
X57808174Y-32633927D01*
X58059027Y-32383074D01*
X58354008Y-32185974D01*
X58681769Y-32050211D01*
X59029716Y-31981000D01*
X59384484Y-31981000D01*
X59732431Y-32050211D01*
X59732431Y-32050211D01*
G37*
G36*
X69332431Y-32050211D02*
X69660192Y-32185974D01*
X69955173Y-32383074D01*
X70206026Y-32633927D01*
X70403126Y-32928908D01*
X70538889Y-33256669D01*
X70608100Y-33604616D01*
X70608100Y-33959384D01*
X70538889Y-34307331D01*
X70403126Y-34635092D01*
X70206026Y-34930073D01*
X69955173Y-35180926D01*
X69660192Y-35378026D01*
X69332431Y-35513789D01*
X68984484Y-35583000D01*
X68629716Y-35583000D01*
X68281769Y-35513789D01*
X67954008Y-35378026D01*
X67659027Y-35180926D01*
X67408174Y-34930073D01*
X67211074Y-34635092D01*
X67075311Y-34307331D01*
X67006100Y-33959384D01*
X67006100Y-33604616D01*
X67075311Y-33256669D01*
X67211074Y-32928908D01*
X67408174Y-32633927D01*
X67659027Y-32383074D01*
X67954008Y-32185974D01*
X68281769Y-32050211D01*
X68629716Y-31981000D01*
X68984484Y-31981000D01*
X69332431Y-32050211D01*
X69332431Y-32050211D01*
G37*
G36*
X27043231Y-32050211D02*
X27370992Y-32185974D01*
X27665973Y-32383074D01*
X27916826Y-32633927D01*
X28113926Y-32928908D01*
X28249689Y-33256669D01*
X28318900Y-33604616D01*
X28318900Y-33959384D01*
X28249689Y-34307331D01*
X28113926Y-34635092D01*
X27916826Y-34930073D01*
X27665973Y-35180926D01*
X27370992Y-35378026D01*
X27043231Y-35513789D01*
X26695284Y-35583000D01*
X26340516Y-35583000D01*
X25992569Y-35513789D01*
X25664808Y-35378026D01*
X25369827Y-35180926D01*
X25118974Y-34930073D01*
X24921874Y-34635092D01*
X24786111Y-34307331D01*
X24716900Y-33959384D01*
X24716900Y-33604616D01*
X24786111Y-33256669D01*
X24921874Y-32928908D01*
X25118974Y-32633927D01*
X25369827Y-32383074D01*
X25664808Y-32185974D01*
X25992569Y-32050211D01*
X26340516Y-31981000D01*
X26695284Y-31981000D01*
X27043231Y-32050211D01*
X27043231Y-32050211D01*
G37*
G36*
X73828931Y-32050211D02*
X74156692Y-32185974D01*
X74451673Y-32383074D01*
X74702526Y-32633927D01*
X74899626Y-32928908D01*
X75035389Y-33256669D01*
X75104600Y-33604616D01*
X75104600Y-33959384D01*
X75035389Y-34307331D01*
X74899626Y-34635092D01*
X74702526Y-34930073D01*
X74451673Y-35180926D01*
X74156692Y-35378026D01*
X73828931Y-35513789D01*
X73480984Y-35583000D01*
X73126216Y-35583000D01*
X72778269Y-35513789D01*
X72450508Y-35378026D01*
X72155527Y-35180926D01*
X71904674Y-34930073D01*
X71707574Y-34635092D01*
X71571811Y-34307331D01*
X71502600Y-33959384D01*
X71502600Y-33604616D01*
X71571811Y-33256669D01*
X71707574Y-32928908D01*
X71904674Y-32633927D01*
X72155527Y-32383074D01*
X72450508Y-32185974D01*
X72778269Y-32050211D01*
X73126216Y-31981000D01*
X73480984Y-31981000D01*
X73828931Y-32050211D01*
X73828931Y-32050211D01*
G37*
G36*
X83428931Y-32050211D02*
X83756692Y-32185974D01*
X84051673Y-32383074D01*
X84302526Y-32633927D01*
X84499626Y-32928908D01*
X84635389Y-33256669D01*
X84704600Y-33604616D01*
X84704600Y-33959384D01*
X84635389Y-34307331D01*
X84499626Y-34635092D01*
X84302526Y-34930073D01*
X84051673Y-35180926D01*
X83756692Y-35378026D01*
X83428931Y-35513789D01*
X83080984Y-35583000D01*
X82726216Y-35583000D01*
X82378269Y-35513789D01*
X82050508Y-35378026D01*
X81755527Y-35180926D01*
X81504674Y-34930073D01*
X81307574Y-34635092D01*
X81171811Y-34307331D01*
X81102600Y-33959384D01*
X81102600Y-33604616D01*
X81171811Y-33256669D01*
X81307574Y-32928908D01*
X81504674Y-32633927D01*
X81755527Y-32383074D01*
X82050508Y-32185974D01*
X82378269Y-32050211D01*
X82726216Y-31981000D01*
X83080984Y-31981000D01*
X83428931Y-32050211D01*
X83428931Y-32050211D01*
G37*
G36*
X31539631Y-32050211D02*
X31867392Y-32185974D01*
X32162373Y-32383074D01*
X32413226Y-32633927D01*
X32610326Y-32928908D01*
X32746089Y-33256669D01*
X32815300Y-33604616D01*
X32815300Y-33959384D01*
X32746089Y-34307331D01*
X32610326Y-34635092D01*
X32413226Y-34930073D01*
X32162373Y-35180926D01*
X31867392Y-35378026D01*
X31539631Y-35513789D01*
X31191684Y-35583000D01*
X30836916Y-35583000D01*
X30488969Y-35513789D01*
X30161208Y-35378026D01*
X29866227Y-35180926D01*
X29615374Y-34930073D01*
X29418274Y-34635092D01*
X29282511Y-34307331D01*
X29213300Y-33959384D01*
X29213300Y-33604616D01*
X29282511Y-33256669D01*
X29418274Y-32928908D01*
X29615374Y-32633927D01*
X29866227Y-32383074D01*
X30161208Y-32185974D01*
X30488969Y-32050211D01*
X30836916Y-31981000D01*
X31191684Y-31981000D01*
X31539631Y-32050211D01*
X31539631Y-32050211D01*
G37*
G36*
X55236031Y-32050211D02*
X55563792Y-32185974D01*
X55858773Y-32383074D01*
X56109626Y-32633927D01*
X56306726Y-32928908D01*
X56442489Y-33256669D01*
X56511700Y-33604616D01*
X56511700Y-33959384D01*
X56442489Y-34307331D01*
X56306726Y-34635092D01*
X56109626Y-34930073D01*
X55858773Y-35180926D01*
X55563792Y-35378026D01*
X55236031Y-35513789D01*
X54888084Y-35583000D01*
X54533316Y-35583000D01*
X54185369Y-35513789D01*
X53857608Y-35378026D01*
X53562627Y-35180926D01*
X53311774Y-34930073D01*
X53114674Y-34635092D01*
X52978911Y-34307331D01*
X52909700Y-33959384D01*
X52909700Y-33604616D01*
X52978911Y-33256669D01*
X53114674Y-32928908D01*
X53311774Y-32633927D01*
X53562627Y-32383074D01*
X53857608Y-32185974D01*
X54185369Y-32050211D01*
X54533316Y-31981000D01*
X54888084Y-31981000D01*
X55236031Y-32050211D01*
X55236031Y-32050211D01*
G37*
G36*
X41139631Y-32050211D02*
X41467392Y-32185974D01*
X41762373Y-32383074D01*
X42013226Y-32633927D01*
X42210326Y-32928908D01*
X42346089Y-33256669D01*
X42415300Y-33604616D01*
X42415300Y-33959384D01*
X42346089Y-34307331D01*
X42210326Y-34635092D01*
X42013226Y-34930073D01*
X41762373Y-35180926D01*
X41467392Y-35378026D01*
X41139631Y-35513789D01*
X40791684Y-35583000D01*
X40436916Y-35583000D01*
X40088969Y-35513789D01*
X39761208Y-35378026D01*
X39466227Y-35180926D01*
X39215374Y-34930073D01*
X39018274Y-34635092D01*
X38882511Y-34307331D01*
X38813300Y-33959384D01*
X38813300Y-33604616D01*
X38882511Y-33256669D01*
X39018274Y-32928908D01*
X39215374Y-32633927D01*
X39466227Y-32383074D01*
X39761208Y-32185974D01*
X40088969Y-32050211D01*
X40436916Y-31981000D01*
X40791684Y-31981000D01*
X41139631Y-32050211D01*
X41139631Y-32050211D01*
G37*
G36*
X3539442Y-15234518D02*
X3605627Y-15241037D01*
X3718853Y-15275384D01*
X3775467Y-15292557D01*
X3914087Y-15366652D01*
X3931991Y-15376222D01*
X3965221Y-15403493D01*
X4069186Y-15488814D01*
X4152448Y-15590271D01*
X4181778Y-15626009D01*
X4181779Y-15626011D01*
X4265443Y-15782533D01*
X4265443Y-15782534D01*
X4316963Y-15952373D01*
X4334359Y-16129000D01*
X4316963Y-16305627D01*
X4311153Y-16324780D01*
X4265443Y-16475467D01*
X4191348Y-16614087D01*
X4181778Y-16631991D01*
X4152448Y-16667729D01*
X4069186Y-16769186D01*
X3967729Y-16852448D01*
X3931991Y-16881778D01*
X3931989Y-16881779D01*
X3775467Y-16965443D01*
X3718853Y-16982616D01*
X3605627Y-17016963D01*
X3539443Y-17023481D01*
X3473260Y-17030000D01*
X3384740Y-17030000D01*
X3318557Y-17023481D01*
X3252373Y-17016963D01*
X3139147Y-16982616D01*
X3082533Y-16965443D01*
X2926011Y-16881779D01*
X2926009Y-16881778D01*
X2890271Y-16852448D01*
X2788814Y-16769186D01*
X2705552Y-16667729D01*
X2676222Y-16631991D01*
X2666652Y-16614087D01*
X2592557Y-16475467D01*
X2546847Y-16324780D01*
X2541037Y-16305627D01*
X2523641Y-16129000D01*
X2541037Y-15952373D01*
X2592557Y-15782534D01*
X2592557Y-15782533D01*
X2676221Y-15626011D01*
X2676222Y-15626009D01*
X2705552Y-15590271D01*
X2788814Y-15488814D01*
X2892779Y-15403493D01*
X2926009Y-15376222D01*
X2943913Y-15366652D01*
X3082533Y-15292557D01*
X3139147Y-15275384D01*
X3252373Y-15241037D01*
X3318558Y-15234518D01*
X3384740Y-15228000D01*
X3473260Y-15228000D01*
X3539442Y-15234518D01*
X3539442Y-15234518D01*
G37*
G36*
X6079442Y-15234518D02*
X6145627Y-15241037D01*
X6258853Y-15275384D01*
X6315467Y-15292557D01*
X6454087Y-15366652D01*
X6471991Y-15376222D01*
X6505221Y-15403493D01*
X6609186Y-15488814D01*
X6692448Y-15590271D01*
X6721778Y-15626009D01*
X6721779Y-15626011D01*
X6805443Y-15782533D01*
X6805443Y-15782534D01*
X6856963Y-15952373D01*
X6874359Y-16129000D01*
X6856963Y-16305627D01*
X6851153Y-16324780D01*
X6805443Y-16475467D01*
X6731348Y-16614087D01*
X6721778Y-16631991D01*
X6692448Y-16667729D01*
X6609186Y-16769186D01*
X6507729Y-16852448D01*
X6471991Y-16881778D01*
X6471989Y-16881779D01*
X6315467Y-16965443D01*
X6258853Y-16982616D01*
X6145627Y-17016963D01*
X6079443Y-17023481D01*
X6013260Y-17030000D01*
X5924740Y-17030000D01*
X5858557Y-17023481D01*
X5792373Y-17016963D01*
X5679147Y-16982616D01*
X5622533Y-16965443D01*
X5466011Y-16881779D01*
X5466009Y-16881778D01*
X5430271Y-16852448D01*
X5328814Y-16769186D01*
X5245552Y-16667729D01*
X5216222Y-16631991D01*
X5206652Y-16614087D01*
X5132557Y-16475467D01*
X5086847Y-16324780D01*
X5081037Y-16305627D01*
X5063641Y-16129000D01*
X5081037Y-15952373D01*
X5132557Y-15782534D01*
X5132557Y-15782533D01*
X5216221Y-15626011D01*
X5216222Y-15626009D01*
X5245552Y-15590271D01*
X5328814Y-15488814D01*
X5432779Y-15403493D01*
X5466009Y-15376222D01*
X5483913Y-15366652D01*
X5622533Y-15292557D01*
X5679147Y-15275384D01*
X5792373Y-15241037D01*
X5858558Y-15234518D01*
X5924740Y-15228000D01*
X6013260Y-15228000D01*
X6079442Y-15234518D01*
X6079442Y-15234518D01*
G37*
G36*
X74082573Y-13773404D02*
X74319282Y-13871452D01*
X74532318Y-14013798D01*
X74713482Y-14194962D01*
X74855828Y-14407998D01*
X74953876Y-14644707D01*
X75003860Y-14895993D01*
X75003860Y-15152207D01*
X74953876Y-15403493D01*
X74855828Y-15640202D01*
X74713482Y-15853238D01*
X74532318Y-16034402D01*
X74319282Y-16176748D01*
X74082573Y-16274796D01*
X73831287Y-16324780D01*
X73575073Y-16324780D01*
X73323787Y-16274796D01*
X73087078Y-16176748D01*
X72874042Y-16034402D01*
X72692878Y-15853238D01*
X72550532Y-15640202D01*
X72452484Y-15403493D01*
X72402500Y-15152207D01*
X72402500Y-14895993D01*
X72452484Y-14644707D01*
X72550532Y-14407998D01*
X72692878Y-14194962D01*
X72874042Y-14013798D01*
X73087078Y-13871452D01*
X73323787Y-13773404D01*
X73575073Y-13723420D01*
X73831287Y-13723420D01*
X74082573Y-13773404D01*
X74082573Y-13773404D01*
G37*
G36*
X64090213Y-13773404D02*
X64326922Y-13871452D01*
X64539958Y-14013798D01*
X64721122Y-14194962D01*
X64863468Y-14407998D01*
X64961516Y-14644707D01*
X65011500Y-14895993D01*
X65011500Y-15152207D01*
X64961516Y-15403493D01*
X64863468Y-15640202D01*
X64721122Y-15853238D01*
X64539958Y-16034402D01*
X64326922Y-16176748D01*
X64090213Y-16274796D01*
X63838927Y-16324780D01*
X63582713Y-16324780D01*
X63331427Y-16274796D01*
X63094718Y-16176748D01*
X62881682Y-16034402D01*
X62700518Y-15853238D01*
X62558172Y-15640202D01*
X62460124Y-15403493D01*
X62410140Y-15152207D01*
X62410140Y-14895993D01*
X62460124Y-14644707D01*
X62558172Y-14407998D01*
X62700518Y-14194962D01*
X62881682Y-14013798D01*
X63094718Y-13871452D01*
X63331427Y-13773404D01*
X63582713Y-13723420D01*
X63838927Y-13723420D01*
X64090213Y-13773404D01*
X64090213Y-13773404D01*
G37*
G36*
X48736812Y-12246624D02*
X48900784Y-12314544D01*
X49048354Y-12413147D01*
X49173853Y-12538646D01*
X49272456Y-12686216D01*
X49340376Y-12850188D01*
X49375000Y-13024259D01*
X49375000Y-13201741D01*
X49340376Y-13375812D01*
X49272456Y-13539784D01*
X49173853Y-13687354D01*
X49048354Y-13812853D01*
X48900784Y-13911456D01*
X48736812Y-13979376D01*
X48681367Y-13990404D01*
X48657926Y-13997515D01*
X48636315Y-14009067D01*
X48617373Y-14024612D01*
X48601828Y-14043554D01*
X48590277Y-14065165D01*
X48583164Y-14088614D01*
X48580762Y-14113000D01*
X48583164Y-14137387D01*
X48590277Y-14160836D01*
X48601829Y-14182447D01*
X48617374Y-14201389D01*
X48636316Y-14216934D01*
X48657927Y-14228485D01*
X48681367Y-14235596D01*
X48736812Y-14246624D01*
X48900784Y-14314544D01*
X49048354Y-14413147D01*
X49173853Y-14538646D01*
X49272456Y-14686216D01*
X49340376Y-14850188D01*
X49375000Y-15024259D01*
X49375000Y-15201741D01*
X49340376Y-15375812D01*
X49272456Y-15539784D01*
X49173853Y-15687354D01*
X49048354Y-15812853D01*
X48900784Y-15911456D01*
X48736812Y-15979376D01*
X48562741Y-16014000D01*
X48385259Y-16014000D01*
X48211188Y-15979376D01*
X48047216Y-15911456D01*
X47899646Y-15812853D01*
X47774147Y-15687354D01*
X47675544Y-15539784D01*
X47607624Y-15375812D01*
X47573000Y-15201741D01*
X47573000Y-15024259D01*
X47607624Y-14850188D01*
X47675544Y-14686216D01*
X47774147Y-14538646D01*
X47899646Y-14413147D01*
X48047216Y-14314544D01*
X48211188Y-14246624D01*
X48266633Y-14235596D01*
X48290074Y-14228485D01*
X48311685Y-14216933D01*
X48330627Y-14201388D01*
X48346172Y-14182446D01*
X48357723Y-14160835D01*
X48364836Y-14137386D01*
X48367238Y-14113000D01*
X48364836Y-14088613D01*
X48357723Y-14065164D01*
X48346171Y-14043553D01*
X48330626Y-14024611D01*
X48311684Y-14009066D01*
X48290073Y-13997515D01*
X48266633Y-13990404D01*
X48211188Y-13979376D01*
X48047216Y-13911456D01*
X47899646Y-13812853D01*
X47774147Y-13687354D01*
X47675544Y-13539784D01*
X47607624Y-13375812D01*
X47573000Y-13201741D01*
X47573000Y-13024259D01*
X47607624Y-12850188D01*
X47675544Y-12686216D01*
X47774147Y-12538646D01*
X47899646Y-12413147D01*
X48047216Y-12314544D01*
X48211188Y-12246624D01*
X48385259Y-12212000D01*
X48562741Y-12212000D01*
X48736812Y-12246624D01*
X48736812Y-12246624D01*
G37*
G36*
X46236812Y-12246624D02*
X46400784Y-12314544D01*
X46548354Y-12413147D01*
X46673853Y-12538646D01*
X46772456Y-12686216D01*
X46840376Y-12850188D01*
X46875000Y-13024259D01*
X46875000Y-13201741D01*
X46840376Y-13375812D01*
X46772456Y-13539784D01*
X46673853Y-13687354D01*
X46548354Y-13812853D01*
X46400784Y-13911456D01*
X46255777Y-13971520D01*
X46234176Y-13983066D01*
X46215234Y-13998612D01*
X46199688Y-14017554D01*
X46188137Y-14039165D01*
X46181024Y-14062614D01*
X46178622Y-14087000D01*
X46181024Y-14111386D01*
X46188137Y-14134835D01*
X46199688Y-14156446D01*
X46215234Y-14175388D01*
X46234176Y-14190934D01*
X46255787Y-14202485D01*
X46279236Y-14209598D01*
X46303622Y-14212000D01*
X46875000Y-14212000D01*
X46875000Y-16014000D01*
X45073000Y-16014000D01*
X45073000Y-14212000D01*
X45644378Y-14212000D01*
X45668764Y-14209598D01*
X45692213Y-14202485D01*
X45713824Y-14190934D01*
X45732766Y-14175388D01*
X45748312Y-14156446D01*
X45759863Y-14134835D01*
X45766976Y-14111386D01*
X45769378Y-14087000D01*
X45766976Y-14062614D01*
X45759863Y-14039165D01*
X45748312Y-14017554D01*
X45732766Y-13998612D01*
X45713824Y-13983066D01*
X45692223Y-13971520D01*
X45547216Y-13911456D01*
X45399646Y-13812853D01*
X45274147Y-13687354D01*
X45175544Y-13539784D01*
X45107624Y-13375812D01*
X45073000Y-13201741D01*
X45073000Y-13024259D01*
X45107624Y-12850188D01*
X45175544Y-12686216D01*
X45274147Y-12538646D01*
X45399646Y-12413147D01*
X45547216Y-12314544D01*
X45711188Y-12246624D01*
X45885259Y-12212000D01*
X46062741Y-12212000D01*
X46236812Y-12246624D01*
X46236812Y-12246624D01*
G37*
G36*
X6079442Y-12694518D02*
X6145627Y-12701037D01*
X6234512Y-12728000D01*
X6315467Y-12752557D01*
X6454087Y-12826652D01*
X6471991Y-12836222D01*
X6507729Y-12865552D01*
X6609186Y-12948814D01*
X6671101Y-13024259D01*
X6721778Y-13086009D01*
X6721779Y-13086011D01*
X6805443Y-13242533D01*
X6805443Y-13242534D01*
X6856963Y-13412373D01*
X6874359Y-13589000D01*
X6856963Y-13765627D01*
X6838825Y-13825420D01*
X6805443Y-13935467D01*
X6761566Y-14017554D01*
X6721778Y-14091991D01*
X6705861Y-14111386D01*
X6609186Y-14229186D01*
X6507729Y-14312448D01*
X6471991Y-14341778D01*
X6471989Y-14341779D01*
X6315467Y-14425443D01*
X6258853Y-14442616D01*
X6145627Y-14476963D01*
X6079442Y-14483482D01*
X6013260Y-14490000D01*
X5924740Y-14490000D01*
X5858558Y-14483482D01*
X5792373Y-14476963D01*
X5679147Y-14442616D01*
X5622533Y-14425443D01*
X5466011Y-14341779D01*
X5466009Y-14341778D01*
X5430271Y-14312448D01*
X5328814Y-14229186D01*
X5232139Y-14111386D01*
X5216222Y-14091991D01*
X5176434Y-14017554D01*
X5132557Y-13935467D01*
X5099175Y-13825420D01*
X5081037Y-13765627D01*
X5063641Y-13589000D01*
X5081037Y-13412373D01*
X5132557Y-13242534D01*
X5132557Y-13242533D01*
X5216221Y-13086011D01*
X5216222Y-13086009D01*
X5266899Y-13024259D01*
X5328814Y-12948814D01*
X5430271Y-12865552D01*
X5466009Y-12836222D01*
X5483913Y-12826652D01*
X5622533Y-12752557D01*
X5703488Y-12728000D01*
X5792373Y-12701037D01*
X5858558Y-12694518D01*
X5924740Y-12688000D01*
X6013260Y-12688000D01*
X6079442Y-12694518D01*
X6079442Y-12694518D01*
G37*
G36*
X3539442Y-12694518D02*
X3605627Y-12701037D01*
X3694512Y-12728000D01*
X3775467Y-12752557D01*
X3914087Y-12826652D01*
X3931991Y-12836222D01*
X3967729Y-12865552D01*
X4069186Y-12948814D01*
X4131101Y-13024259D01*
X4181778Y-13086009D01*
X4181779Y-13086011D01*
X4265443Y-13242533D01*
X4265443Y-13242534D01*
X4316963Y-13412373D01*
X4334359Y-13589000D01*
X4316963Y-13765627D01*
X4298825Y-13825420D01*
X4265443Y-13935467D01*
X4221566Y-14017554D01*
X4181778Y-14091991D01*
X4165861Y-14111386D01*
X4069186Y-14229186D01*
X3967729Y-14312448D01*
X3931991Y-14341778D01*
X3931989Y-14341779D01*
X3775467Y-14425443D01*
X3718853Y-14442616D01*
X3605627Y-14476963D01*
X3539442Y-14483482D01*
X3473260Y-14490000D01*
X3384740Y-14490000D01*
X3318558Y-14483482D01*
X3252373Y-14476963D01*
X3139147Y-14442616D01*
X3082533Y-14425443D01*
X2926011Y-14341779D01*
X2926009Y-14341778D01*
X2890271Y-14312448D01*
X2788814Y-14229186D01*
X2692139Y-14111386D01*
X2676222Y-14091991D01*
X2636434Y-14017554D01*
X2592557Y-13935467D01*
X2559175Y-13825420D01*
X2541037Y-13765627D01*
X2523641Y-13589000D01*
X2541037Y-13412373D01*
X2592557Y-13242534D01*
X2592557Y-13242533D01*
X2676221Y-13086011D01*
X2676222Y-13086009D01*
X2726899Y-13024259D01*
X2788814Y-12948814D01*
X2890271Y-12865552D01*
X2926009Y-12836222D01*
X2943913Y-12826652D01*
X3082533Y-12752557D01*
X3163488Y-12728000D01*
X3252373Y-12701037D01*
X3318558Y-12694518D01*
X3384740Y-12688000D01*
X3473260Y-12688000D01*
X3539442Y-12694518D01*
X3539442Y-12694518D01*
G37*
G36*
X69086393Y-11274044D02*
X69323102Y-11372092D01*
X69536138Y-11514438D01*
X69717302Y-11695602D01*
X69859648Y-11908638D01*
X69957696Y-12145347D01*
X70007680Y-12396633D01*
X70007680Y-12652847D01*
X69957696Y-12904133D01*
X69859648Y-13140842D01*
X69717302Y-13353878D01*
X69536138Y-13535042D01*
X69323102Y-13677388D01*
X69086393Y-13775436D01*
X68835107Y-13825420D01*
X68578893Y-13825420D01*
X68327607Y-13775436D01*
X68090898Y-13677388D01*
X67877862Y-13535042D01*
X67696698Y-13353878D01*
X67554352Y-13140842D01*
X67456304Y-12904133D01*
X67406320Y-12652847D01*
X67406320Y-12396633D01*
X67456304Y-12145347D01*
X67554352Y-11908638D01*
X67696698Y-11695602D01*
X67877862Y-11514438D01*
X68090898Y-11372092D01*
X68327607Y-11274044D01*
X68578893Y-11224060D01*
X68835107Y-11224060D01*
X69086393Y-11274044D01*
X69086393Y-11274044D01*
G37*
G36*
X61588313Y-11271504D02*
X61825022Y-11369552D01*
X62038058Y-11511898D01*
X62219222Y-11693062D01*
X62361568Y-11906098D01*
X62459616Y-12142807D01*
X62509600Y-12394093D01*
X62509600Y-12650307D01*
X62459616Y-12901593D01*
X62361568Y-13138302D01*
X62219222Y-13351338D01*
X62038058Y-13532502D01*
X61825022Y-13674848D01*
X61588313Y-13772896D01*
X61337027Y-13822880D01*
X61080813Y-13822880D01*
X60829527Y-13772896D01*
X60592818Y-13674848D01*
X60379782Y-13532502D01*
X60198618Y-13351338D01*
X60056272Y-13138302D01*
X59958224Y-12901593D01*
X59908240Y-12650307D01*
X59908240Y-12394093D01*
X59958224Y-12142807D01*
X60056272Y-11906098D01*
X60198618Y-11693062D01*
X60379782Y-11511898D01*
X60592818Y-11369552D01*
X60829527Y-11271504D01*
X61080813Y-11221520D01*
X61337027Y-11221520D01*
X61588313Y-11271504D01*
X61588313Y-11271504D01*
G37*
G36*
X76584473Y-11271504D02*
X76821182Y-11369552D01*
X77034218Y-11511898D01*
X77215382Y-11693062D01*
X77357728Y-11906098D01*
X77455776Y-12142807D01*
X77505760Y-12394093D01*
X77505760Y-12650307D01*
X77455776Y-12901593D01*
X77357728Y-13138302D01*
X77215382Y-13351338D01*
X77034218Y-13532502D01*
X76821182Y-13674848D01*
X76584473Y-13772896D01*
X76333187Y-13822880D01*
X76076973Y-13822880D01*
X75825687Y-13772896D01*
X75588978Y-13674848D01*
X75375942Y-13532502D01*
X75194778Y-13351338D01*
X75052432Y-13138302D01*
X74954384Y-12901593D01*
X74904400Y-12650307D01*
X74904400Y-12394093D01*
X74954384Y-12142807D01*
X75052432Y-11906098D01*
X75194778Y-11693062D01*
X75375942Y-11511898D01*
X75588978Y-11369552D01*
X75825687Y-11271504D01*
X76076973Y-11221520D01*
X76333187Y-11221520D01*
X76584473Y-11271504D01*
X76584473Y-11271504D01*
G37*
G36*
X35776000Y-13805000D02*
X34074000Y-13805000D01*
X34074000Y-12103000D01*
X35776000Y-12103000D01*
X35776000Y-13805000D01*
X35776000Y-13805000D01*
G37*
G36*
X74265698Y-10233568D02*
X74333684Y-10254191D01*
X74396337Y-10287680D01*
X74451252Y-10332748D01*
X74496320Y-10387663D01*
X74529809Y-10450316D01*
X74550432Y-10518302D01*
X74558000Y-10595140D01*
X74558000Y-12358860D01*
X74550432Y-12435698D01*
X74529809Y-12503684D01*
X74496320Y-12566337D01*
X74451252Y-12621252D01*
X74396337Y-12666320D01*
X74333684Y-12699809D01*
X74265698Y-12720432D01*
X74188860Y-12728000D01*
X73225140Y-12728000D01*
X73148302Y-12720432D01*
X73080316Y-12699809D01*
X73017663Y-12666320D01*
X72962748Y-12621252D01*
X72917680Y-12566337D01*
X72884191Y-12503684D01*
X72863568Y-12435698D01*
X72856000Y-12358860D01*
X72856000Y-10595140D01*
X72863568Y-10518302D01*
X72884191Y-10450316D01*
X72917680Y-10387663D01*
X72962748Y-10332748D01*
X73017663Y-10287680D01*
X73080316Y-10254191D01*
X73148302Y-10233568D01*
X73225140Y-10226000D01*
X74188860Y-10226000D01*
X74265698Y-10233568D01*
X74265698Y-10233568D01*
G37*
G36*
X64265698Y-10233568D02*
X64333684Y-10254191D01*
X64396337Y-10287680D01*
X64451252Y-10332748D01*
X64496320Y-10387663D01*
X64529809Y-10450316D01*
X64550432Y-10518302D01*
X64558000Y-10595140D01*
X64558000Y-12358860D01*
X64550432Y-12435698D01*
X64529809Y-12503684D01*
X64496320Y-12566337D01*
X64451252Y-12621252D01*
X64396337Y-12666320D01*
X64333684Y-12699809D01*
X64265698Y-12720432D01*
X64188860Y-12728000D01*
X63225140Y-12728000D01*
X63148302Y-12720432D01*
X63080316Y-12699809D01*
X63017663Y-12666320D01*
X62962748Y-12621252D01*
X62917680Y-12566337D01*
X62884191Y-12503684D01*
X62863568Y-12435698D01*
X62856000Y-12358860D01*
X62856000Y-10595140D01*
X62863568Y-10518302D01*
X62884191Y-10450316D01*
X62917680Y-10387663D01*
X62962748Y-10332748D01*
X63017663Y-10287680D01*
X63080316Y-10254191D01*
X63148302Y-10233568D01*
X63225140Y-10226000D01*
X64188860Y-10226000D01*
X64265698Y-10233568D01*
X64265698Y-10233568D01*
G37*
G36*
X71765698Y-10233568D02*
X71833684Y-10254191D01*
X71896337Y-10287680D01*
X71951252Y-10332748D01*
X71996320Y-10387663D01*
X72029809Y-10450316D01*
X72050432Y-10518302D01*
X72058000Y-10595140D01*
X72058000Y-12358860D01*
X72050432Y-12435698D01*
X72029809Y-12503684D01*
X71996320Y-12566337D01*
X71951252Y-12621252D01*
X71896337Y-12666320D01*
X71833684Y-12699809D01*
X71765698Y-12720432D01*
X71688860Y-12728000D01*
X70725140Y-12728000D01*
X70648302Y-12720432D01*
X70580316Y-12699809D01*
X70517663Y-12666320D01*
X70462748Y-12621252D01*
X70417680Y-12566337D01*
X70384191Y-12503684D01*
X70363568Y-12435698D01*
X70356000Y-12358860D01*
X70356000Y-10595140D01*
X70363568Y-10518302D01*
X70384191Y-10450316D01*
X70417680Y-10387663D01*
X70462748Y-10332748D01*
X70517663Y-10287680D01*
X70580316Y-10254191D01*
X70648302Y-10233568D01*
X70725140Y-10226000D01*
X71688860Y-10226000D01*
X71765698Y-10233568D01*
X71765698Y-10233568D01*
G37*
G36*
X66765698Y-10233568D02*
X66833684Y-10254191D01*
X66896337Y-10287680D01*
X66951252Y-10332748D01*
X66996320Y-10387663D01*
X67029809Y-10450316D01*
X67050432Y-10518302D01*
X67058000Y-10595140D01*
X67058000Y-12358860D01*
X67050432Y-12435698D01*
X67029809Y-12503684D01*
X66996320Y-12566337D01*
X66951252Y-12621252D01*
X66896337Y-12666320D01*
X66833684Y-12699809D01*
X66765698Y-12720432D01*
X66688860Y-12728000D01*
X65725140Y-12728000D01*
X65648302Y-12720432D01*
X65580316Y-12699809D01*
X65517663Y-12666320D01*
X65462748Y-12621252D01*
X65417680Y-12566337D01*
X65384191Y-12503684D01*
X65363568Y-12435698D01*
X65356000Y-12358860D01*
X65356000Y-10595140D01*
X65363568Y-10518302D01*
X65384191Y-10450316D01*
X65417680Y-10387663D01*
X65462748Y-10332748D01*
X65517663Y-10287680D01*
X65580316Y-10254191D01*
X65648302Y-10233568D01*
X65725140Y-10226000D01*
X66688860Y-10226000D01*
X66765698Y-10233568D01*
X66765698Y-10233568D01*
G37*
G36*
X53769331Y-8671211D02*
X54097092Y-8806974D01*
X54392073Y-9004074D01*
X54642926Y-9254927D01*
X54840026Y-9549908D01*
X54975789Y-9877669D01*
X55045000Y-10225616D01*
X55045000Y-10580384D01*
X54975789Y-10928331D01*
X54840026Y-11256092D01*
X54642926Y-11551073D01*
X54392073Y-11801926D01*
X54097092Y-11999026D01*
X53769331Y-12134789D01*
X53421384Y-12204000D01*
X53066616Y-12204000D01*
X52718669Y-12134789D01*
X52390908Y-11999026D01*
X52095927Y-11801926D01*
X51845074Y-11551073D01*
X51647974Y-11256092D01*
X51512211Y-10928331D01*
X51443000Y-10580384D01*
X51443000Y-10225616D01*
X51512211Y-9877669D01*
X51647974Y-9549908D01*
X51845074Y-9254927D01*
X52095927Y-9004074D01*
X52390908Y-8806974D01*
X52718669Y-8671211D01*
X53066616Y-8602000D01*
X53421384Y-8602000D01*
X53769331Y-8671211D01*
X53769331Y-8671211D01*
G37*
G36*
X41729331Y-8671211D02*
X42057092Y-8806974D01*
X42352073Y-9004074D01*
X42602926Y-9254927D01*
X42800026Y-9549908D01*
X42935789Y-9877669D01*
X43005000Y-10225616D01*
X43005000Y-10580384D01*
X42935789Y-10928331D01*
X42800026Y-11256092D01*
X42602926Y-11551073D01*
X42352073Y-11801926D01*
X42057092Y-11999026D01*
X41729331Y-12134789D01*
X41381384Y-12204000D01*
X41026616Y-12204000D01*
X40678669Y-12134789D01*
X40350908Y-11999026D01*
X40055927Y-11801926D01*
X39805074Y-11551073D01*
X39607974Y-11256092D01*
X39472211Y-10928331D01*
X39403000Y-10580384D01*
X39403000Y-10225616D01*
X39472211Y-9877669D01*
X39607974Y-9549908D01*
X39805074Y-9254927D01*
X40055927Y-9004074D01*
X40350908Y-8806974D01*
X40678669Y-8671211D01*
X41026616Y-8602000D01*
X41381384Y-8602000D01*
X41729331Y-8671211D01*
X41729331Y-8671211D01*
G37*
G36*
X6079442Y-10154518D02*
X6145627Y-10161037D01*
X6258853Y-10195384D01*
X6315467Y-10212557D01*
X6401211Y-10258389D01*
X6471991Y-10296222D01*
X6507729Y-10325552D01*
X6609186Y-10408814D01*
X6692448Y-10510271D01*
X6721778Y-10546009D01*
X6721779Y-10546011D01*
X6805443Y-10702533D01*
X6805443Y-10702534D01*
X6856963Y-10872373D01*
X6874359Y-11049000D01*
X6856963Y-11225627D01*
X6822616Y-11338853D01*
X6805443Y-11395467D01*
X6743209Y-11511896D01*
X6721778Y-11551991D01*
X6692448Y-11587729D01*
X6609186Y-11689186D01*
X6507729Y-11772448D01*
X6471991Y-11801778D01*
X6471989Y-11801779D01*
X6315467Y-11885443D01*
X6258853Y-11902616D01*
X6145627Y-11936963D01*
X6079442Y-11943482D01*
X6013260Y-11950000D01*
X5924740Y-11950000D01*
X5858558Y-11943482D01*
X5792373Y-11936963D01*
X5679147Y-11902616D01*
X5622533Y-11885443D01*
X5466011Y-11801779D01*
X5466009Y-11801778D01*
X5430271Y-11772448D01*
X5328814Y-11689186D01*
X5245552Y-11587729D01*
X5216222Y-11551991D01*
X5194791Y-11511896D01*
X5132557Y-11395467D01*
X5115384Y-11338853D01*
X5081037Y-11225627D01*
X5063641Y-11049000D01*
X5081037Y-10872373D01*
X5132557Y-10702534D01*
X5132557Y-10702533D01*
X5216221Y-10546011D01*
X5216222Y-10546009D01*
X5245552Y-10510271D01*
X5328814Y-10408814D01*
X5430271Y-10325552D01*
X5466009Y-10296222D01*
X5536789Y-10258389D01*
X5622533Y-10212557D01*
X5679147Y-10195384D01*
X5792373Y-10161037D01*
X5858558Y-10154518D01*
X5924740Y-10148000D01*
X6013260Y-10148000D01*
X6079442Y-10154518D01*
X6079442Y-10154518D01*
G37*
G36*
X4330000Y-11950000D02*
X2528000Y-11950000D01*
X2528000Y-10148000D01*
X4330000Y-10148000D01*
X4330000Y-11950000D01*
X4330000Y-11950000D01*
G37*
G36*
X35173228Y-9635703D02*
X35328100Y-9699853D01*
X35467481Y-9792985D01*
X35586015Y-9911519D01*
X35679147Y-10050900D01*
X35743297Y-10205772D01*
X35776000Y-10370184D01*
X35776000Y-10537816D01*
X35743297Y-10702228D01*
X35679147Y-10857100D01*
X35586015Y-10996481D01*
X35467481Y-11115015D01*
X35328100Y-11208147D01*
X35173228Y-11272297D01*
X35008816Y-11305000D01*
X34841184Y-11305000D01*
X34676772Y-11272297D01*
X34521900Y-11208147D01*
X34382519Y-11115015D01*
X34263985Y-10996481D01*
X34170853Y-10857100D01*
X34106703Y-10702228D01*
X34074000Y-10537816D01*
X34074000Y-10370184D01*
X34106703Y-10205772D01*
X34170853Y-10050900D01*
X34263985Y-9911519D01*
X34382519Y-9792985D01*
X34521900Y-9699853D01*
X34676772Y-9635703D01*
X34841184Y-9603000D01*
X35008816Y-9603000D01*
X35173228Y-9635703D01*
X35173228Y-9635703D01*
G37*
G36*
X69665698Y-5633568D02*
X69733684Y-5654191D01*
X69796337Y-5687680D01*
X69851252Y-5732748D01*
X69896320Y-5787663D01*
X69929809Y-5850316D01*
X69950432Y-5918302D01*
X69958000Y-5995140D01*
X69958000Y-6958860D01*
X69950432Y-7035698D01*
X69929809Y-7103684D01*
X69896320Y-7166337D01*
X69851252Y-7221252D01*
X69796337Y-7266320D01*
X69733684Y-7299809D01*
X69665698Y-7320432D01*
X69588860Y-7328000D01*
X67825140Y-7328000D01*
X67748302Y-7320432D01*
X67680316Y-7299809D01*
X67617663Y-7266320D01*
X67562748Y-7221252D01*
X67517680Y-7166337D01*
X67484191Y-7103684D01*
X67463568Y-7035698D01*
X67456000Y-6958860D01*
X67456000Y-5995140D01*
X67463568Y-5918302D01*
X67484191Y-5850316D01*
X67517680Y-5787663D01*
X67562748Y-5732748D01*
X67617663Y-5687680D01*
X67680316Y-5654191D01*
X67748302Y-5633568D01*
X67825140Y-5626000D01*
X69588860Y-5626000D01*
X69665698Y-5633568D01*
X69665698Y-5633568D01*
G37*
G36*
X82803239Y-367467D02*
X83117282Y-429934D01*
X83708926Y-675001D01*
X83998523Y-868504D01*
X84241395Y-1030786D01*
X84694214Y-1483605D01*
X84694216Y-1483608D01*
X85049999Y-2016074D01*
X85234233Y-2460854D01*
X85295066Y-2607719D01*
X85420000Y-3235803D01*
X85420000Y-3876197D01*
X85388751Y-4033296D01*
X85295066Y-4504282D01*
X85049999Y-5095926D01*
X84802265Y-5466685D01*
X84694214Y-5628395D01*
X84241395Y-6081214D01*
X84241392Y-6081216D01*
X83708926Y-6436999D01*
X83117282Y-6682066D01*
X82803239Y-6744533D01*
X82489197Y-6807000D01*
X81848803Y-6807000D01*
X81534761Y-6744533D01*
X81220718Y-6682066D01*
X80629074Y-6436999D01*
X80096608Y-6081216D01*
X80096605Y-6081214D01*
X79643786Y-5628395D01*
X79535735Y-5466685D01*
X79288001Y-5095926D01*
X79042934Y-4504282D01*
X78949249Y-4033296D01*
X78918000Y-3876197D01*
X78918000Y-3235803D01*
X79042934Y-2607719D01*
X79103767Y-2460854D01*
X79288001Y-2016074D01*
X79643784Y-1483608D01*
X79643786Y-1483605D01*
X80096605Y-1030786D01*
X80339477Y-868504D01*
X80629074Y-675001D01*
X81220718Y-429934D01*
X81534761Y-367467D01*
X81848803Y-305000D01*
X82489197Y-305000D01*
X82803239Y-367467D01*
X82803239Y-367467D01*
G37*
G36*
X4190239Y-367467D02*
X4504282Y-429934D01*
X5095926Y-675001D01*
X5385523Y-868504D01*
X5628395Y-1030786D01*
X6081214Y-1483605D01*
X6081216Y-1483608D01*
X6436999Y-2016074D01*
X6621233Y-2460854D01*
X6682066Y-2607719D01*
X6807000Y-3235803D01*
X6807000Y-3876197D01*
X6775751Y-4033296D01*
X6682066Y-4504282D01*
X6436999Y-5095926D01*
X6189265Y-5466685D01*
X6081214Y-5628395D01*
X5628395Y-6081214D01*
X5628392Y-6081216D01*
X5095926Y-6436999D01*
X4504282Y-6682066D01*
X4190239Y-6744533D01*
X3876197Y-6807000D01*
X3235803Y-6807000D01*
X2921761Y-6744533D01*
X2607718Y-6682066D01*
X2016074Y-6436999D01*
X1483608Y-6081216D01*
X1483605Y-6081214D01*
X1030786Y-5628395D01*
X922735Y-5466685D01*
X675001Y-5095926D01*
X429934Y-4504282D01*
X336249Y-4033296D01*
X305000Y-3876197D01*
X305000Y-3235803D01*
X429934Y-2607719D01*
X490767Y-2460854D01*
X675001Y-2016074D01*
X1030784Y-1483608D01*
X1030786Y-1483605D01*
X1483605Y-1030786D01*
X1726477Y-868504D01*
X2016074Y-675001D01*
X2607718Y-429934D01*
X2921761Y-367467D01*
X3235803Y-305000D01*
X3876197Y-305000D01*
X4190239Y-367467D01*
X4190239Y-367467D01*
G37*
G36*
X36411000Y-6566000D02*
X34709000Y-6566000D01*
X34709000Y-4864000D01*
X36411000Y-4864000D01*
X36411000Y-6566000D01*
X36411000Y-6566000D01*
G37*
G36*
X35808228Y-2396703D02*
X35963100Y-2460853D01*
X36102481Y-2553985D01*
X36221015Y-2672519D01*
X36314147Y-2811900D01*
X36378297Y-2966772D01*
X36411000Y-3131184D01*
X36411000Y-3298816D01*
X36378297Y-3463228D01*
X36314147Y-3618100D01*
X36221015Y-3757481D01*
X36102481Y-3876015D01*
X35963100Y-3969147D01*
X35808228Y-4033297D01*
X35643816Y-4066000D01*
X35476184Y-4066000D01*
X35311772Y-4033297D01*
X35156900Y-3969147D01*
X35017519Y-3876015D01*
X34898985Y-3757481D01*
X34805853Y-3618100D01*
X34741703Y-3463228D01*
X34709000Y-3298816D01*
X34709000Y-3131184D01*
X34741703Y-2966772D01*
X34805853Y-2811900D01*
X34898985Y-2672519D01*
X35017519Y-2553985D01*
X35156900Y-2460853D01*
X35311772Y-2396703D01*
X35476184Y-2364000D01*
X35643816Y-2364000D01*
X35808228Y-2396703D01*
X35808228Y-2396703D01*
G37*
G36*
X64085133Y-1276604D02*
X64321842Y-1374652D01*
X64534878Y-1516998D01*
X64716042Y-1698162D01*
X64858388Y-1911198D01*
X64956436Y-2147907D01*
X65006420Y-2399193D01*
X65006420Y-2655407D01*
X64956436Y-2906693D01*
X64858388Y-3143402D01*
X64716042Y-3356438D01*
X64534878Y-3537602D01*
X64321842Y-3679948D01*
X64085133Y-3777996D01*
X63833847Y-3827980D01*
X63577633Y-3827980D01*
X63326347Y-3777996D01*
X63089638Y-3679948D01*
X62876602Y-3537602D01*
X62695438Y-3356438D01*
X62553092Y-3143402D01*
X62455044Y-2906693D01*
X62405060Y-2655407D01*
X62405060Y-2399193D01*
X62455044Y-2147907D01*
X62553092Y-1911198D01*
X62695438Y-1698162D01*
X62876602Y-1516998D01*
X63089638Y-1374652D01*
X63326347Y-1276604D01*
X63577633Y-1226620D01*
X63833847Y-1226620D01*
X64085133Y-1276604D01*
X64085133Y-1276604D01*
G37*
G36*
X74087653Y-1276604D02*
X74324362Y-1374652D01*
X74537398Y-1516998D01*
X74718562Y-1698162D01*
X74860908Y-1911198D01*
X74958956Y-2147907D01*
X75008940Y-2399193D01*
X75008940Y-2655407D01*
X74958956Y-2906693D01*
X74860908Y-3143402D01*
X74718562Y-3356438D01*
X74537398Y-3537602D01*
X74324362Y-3679948D01*
X74087653Y-3777996D01*
X73836367Y-3827980D01*
X73580153Y-3827980D01*
X73328867Y-3777996D01*
X73092158Y-3679948D01*
X72879122Y-3537602D01*
X72697958Y-3356438D01*
X72555612Y-3143402D01*
X72457564Y-2906693D01*
X72407580Y-2655407D01*
X72407580Y-2399193D01*
X72457564Y-2147907D01*
X72555612Y-1911198D01*
X72697958Y-1698162D01*
X72879122Y-1516998D01*
X73092158Y-1374652D01*
X73328867Y-1276604D01*
X73580153Y-1226620D01*
X73836367Y-1226620D01*
X74087653Y-1276604D01*
X74087653Y-1276604D01*
G37*
M02*
