G04 #@! TF.GenerationSoftware,KiCad,Pcbnew,(5.0.2)-1*
G04 #@! TF.CreationDate,2020-12-20T23:31:13+01:00*
G04 #@! TF.ProjectId,CardSizeMidiController,43617264-5369-47a6-954d-696469436f6e,rev?*
G04 #@! TF.SameCoordinates,Original*
G04 #@! TF.FileFunction,Copper,L2,Bot*
G04 #@! TF.FilePolarity,Positive*
%FSLAX46Y46*%
G04 Gerber Fmt 4.6, Leading zero omitted, Abs format (unit mm)*
G04 Created by KiCad (PCBNEW (5.0.2)-1) date 20/12/2020 23:31:13*
%MOMM*%
%LPD*%
G01*
G04 APERTURE LIST*
G04 #@! TA.AperFunction,ComponentPad*
%ADD10C,2.000000*%
G04 #@! TD*
G04 #@! TA.AperFunction,ComponentPad*
%ADD11O,1.500000X2.000000*%
G04 #@! TD*
G04 #@! TA.AperFunction,ComponentPad*
%ADD12C,3.500000*%
G04 #@! TD*
G04 #@! TA.AperFunction,ComponentPad*
%ADD13R,1.600000X1.600000*%
G04 #@! TD*
G04 #@! TA.AperFunction,ComponentPad*
%ADD14C,1.600000*%
G04 #@! TD*
G04 #@! TA.AperFunction,ComponentPad*
%ADD15R,1.700000X1.700000*%
G04 #@! TD*
G04 #@! TA.AperFunction,ComponentPad*
%ADD16O,1.700000X1.700000*%
G04 #@! TD*
G04 #@! TA.AperFunction,ComponentPad*
%ADD17C,1.700000*%
G04 #@! TD*
G04 #@! TA.AperFunction,ComponentPad*
%ADD18C,0.800000*%
G04 #@! TD*
G04 #@! TA.AperFunction,ComponentPad*
%ADD19C,6.400000*%
G04 #@! TD*
G04 #@! TA.AperFunction,Conductor*
%ADD20C,0.100000*%
G04 #@! TD*
G04 #@! TA.AperFunction,ComponentPad*
%ADD21C,2.499360*%
G04 #@! TD*
G04 #@! TA.AperFunction,ViaPad*
%ADD22C,0.800000*%
G04 #@! TD*
G04 #@! TA.AperFunction,Conductor*
%ADD23C,0.400000*%
G04 #@! TD*
G04 #@! TA.AperFunction,Conductor*
%ADD24C,0.250000*%
G04 #@! TD*
G04 #@! TA.AperFunction,Conductor*
%ADD25C,0.200000*%
G04 #@! TD*
G04 APERTURE END LIST*
D10*
G04 #@! TO.P,SW0,2*
G04 #@! TO.N,GND*
X9906000Y-49077000D03*
G04 #@! TO.P,SW0,1*
G04 #@! TO.N,SW0*
X9906000Y-44577000D03*
G04 #@! TO.P,SW0,2*
G04 #@! TO.N,GND*
X16406000Y-49077000D03*
G04 #@! TO.P,SW0,1*
G04 #@! TO.N,SW0*
X16406000Y-44577000D03*
G04 #@! TD*
D11*
G04 #@! TO.P,RV0,1*
G04 #@! TO.N,GND*
X5121400Y-40909000D03*
G04 #@! TO.P,RV0,2*
G04 #@! TO.N,A0*
X7621400Y-40909000D03*
G04 #@! TO.P,RV0,3*
G04 #@! TO.N,+5V*
X10121400Y-40909000D03*
D12*
G04 #@! TO.P,RV0,*
G04 #@! TO.N,*
X2821400Y-33909000D03*
X12421400Y-33909000D03*
G04 #@! TD*
D10*
G04 #@! TO.P,SW5,2*
G04 #@! TO.N,GND*
X69342000Y-49077000D03*
G04 #@! TO.P,SW5,1*
G04 #@! TO.N,SCK*
X69342000Y-44577000D03*
G04 #@! TO.P,SW5,2*
G04 #@! TO.N,GND*
X75842000Y-49077000D03*
G04 #@! TO.P,SW5,1*
G04 #@! TO.N,SCK*
X75842000Y-44577000D03*
G04 #@! TD*
G04 #@! TO.P,SW4,1*
G04 #@! TO.N,MISO*
X63954800Y-44577000D03*
G04 #@! TO.P,SW4,2*
G04 #@! TO.N,GND*
X63954800Y-49077000D03*
G04 #@! TO.P,SW4,1*
G04 #@! TO.N,MISO*
X57454800Y-44577000D03*
G04 #@! TO.P,SW4,2*
G04 #@! TO.N,GND*
X57454800Y-49077000D03*
G04 #@! TD*
G04 #@! TO.P,SW3,2*
G04 #@! TO.N,GND*
X45567600Y-49077000D03*
G04 #@! TO.P,SW3,1*
G04 #@! TO.N,SW3*
X45567600Y-44577000D03*
G04 #@! TO.P,SW3,2*
G04 #@! TO.N,GND*
X52067600Y-49077000D03*
G04 #@! TO.P,SW3,1*
G04 #@! TO.N,SW3*
X52067600Y-44577000D03*
G04 #@! TD*
G04 #@! TO.P,SW2,1*
G04 #@! TO.N,SW2*
X40180400Y-44577000D03*
G04 #@! TO.P,SW2,2*
G04 #@! TO.N,GND*
X40180400Y-49077000D03*
G04 #@! TO.P,SW2,1*
G04 #@! TO.N,SW2*
X33680400Y-44577000D03*
G04 #@! TO.P,SW2,2*
G04 #@! TO.N,GND*
X33680400Y-49077000D03*
G04 #@! TD*
G04 #@! TO.P,SW1,2*
G04 #@! TO.N,GND*
X21793200Y-49077000D03*
G04 #@! TO.P,SW1,1*
G04 #@! TO.N,SW1*
X21793200Y-44577000D03*
G04 #@! TO.P,SW1,2*
G04 #@! TO.N,GND*
X28293200Y-49077000D03*
G04 #@! TO.P,SW1,1*
G04 #@! TO.N,SW1*
X28293200Y-44577000D03*
G04 #@! TD*
D13*
G04 #@! TO.P,C1,1*
G04 #@! TO.N,+5V*
X35560000Y-5715000D03*
D14*
G04 #@! TO.P,C1,2*
G04 #@! TO.N,GND*
X35560000Y-3215000D03*
G04 #@! TD*
D13*
G04 #@! TO.P,C2,1*
G04 #@! TO.N,+5V*
X34925000Y-12954000D03*
D14*
G04 #@! TO.P,C2,2*
G04 #@! TO.N,GND*
X34925000Y-10454000D03*
G04 #@! TD*
D15*
G04 #@! TO.P,J2,1*
G04 #@! TO.N,MISO*
X3429000Y-11049000D03*
D16*
G04 #@! TO.P,J2,2*
G04 #@! TO.N,+5V*
X5969000Y-11049000D03*
G04 #@! TO.P,J2,3*
G04 #@! TO.N,SCK*
X3429000Y-13589000D03*
G04 #@! TO.P,J2,4*
G04 #@! TO.N,LED5*
X5969000Y-13589000D03*
G04 #@! TO.P,J2,5*
G04 #@! TO.N,~RST*
X3429000Y-16129000D03*
G04 #@! TO.P,J2,6*
G04 #@! TO.N,GND*
X5969000Y-16129000D03*
G04 #@! TD*
D15*
G04 #@! TO.P,J1,1*
G04 #@! TO.N,+5V*
X45974000Y-15113000D03*
D17*
G04 #@! TO.P,J1,2*
G04 #@! TO.N,Net-(J1-Pad2)*
X48474000Y-15113000D03*
G04 #@! TO.P,J1,3*
G04 #@! TO.N,Net-(J1-Pad3)*
X48474000Y-13113000D03*
G04 #@! TO.P,J1,4*
G04 #@! TO.N,GND*
X45974000Y-13113000D03*
D12*
G04 #@! TO.P,J1,5*
X41204000Y-10403000D03*
X53244000Y-10403000D03*
G04 #@! TD*
D18*
G04 #@! TO.P,J6,1*
G04 #@! TO.N,GND*
X83866056Y-48721944D03*
X82169000Y-48019000D03*
X80471944Y-48721944D03*
X79769000Y-50419000D03*
X80471944Y-52116056D03*
X82169000Y-52819000D03*
X83866056Y-52116056D03*
X84569000Y-50419000D03*
D19*
X82169000Y-50419000D03*
G04 #@! TD*
G04 #@! TO.P,J5,1*
G04 #@! TO.N,GND*
X3556000Y-3556000D03*
D18*
X5956000Y-3556000D03*
X5253056Y-5253056D03*
X3556000Y-5956000D03*
X1858944Y-5253056D03*
X1156000Y-3556000D03*
X1858944Y-1858944D03*
X3556000Y-1156000D03*
X5253056Y-1858944D03*
G04 #@! TD*
G04 #@! TO.P,J8,1*
G04 #@! TO.N,GND*
X5253056Y-48721944D03*
X3556000Y-48019000D03*
X1858944Y-48721944D03*
X1156000Y-50419000D03*
X1858944Y-52116056D03*
X3556000Y-52819000D03*
X5253056Y-52116056D03*
X5956000Y-50419000D03*
D19*
X3556000Y-50419000D03*
G04 #@! TD*
G04 #@! TO.P,J7,1*
G04 #@! TO.N,GND*
X82169000Y-3556000D03*
D18*
X84569000Y-3556000D03*
X83866056Y-5253056D03*
X82169000Y-5956000D03*
X80471944Y-5253056D03*
X79769000Y-3556000D03*
X80471944Y-1858944D03*
X82169000Y-1156000D03*
X83866056Y-1858944D03*
G04 #@! TD*
D20*
G04 #@! TO.N,Net-(J3-Pad4)*
G04 #@! TO.C,J4*
G36*
X74146207Y-10278926D02*
X74185036Y-10284686D01*
X74223114Y-10294224D01*
X74260073Y-10307448D01*
X74295559Y-10324231D01*
X74329228Y-10344412D01*
X74360757Y-10367796D01*
X74389843Y-10394157D01*
X74416204Y-10423243D01*
X74439588Y-10454772D01*
X74459769Y-10488441D01*
X74476552Y-10523927D01*
X74489776Y-10560886D01*
X74499314Y-10598964D01*
X74505074Y-10637793D01*
X74507000Y-10677000D01*
X74507000Y-12277000D01*
X74505074Y-12316207D01*
X74499314Y-12355036D01*
X74489776Y-12393114D01*
X74476552Y-12430073D01*
X74459769Y-12465559D01*
X74439588Y-12499228D01*
X74416204Y-12530757D01*
X74389843Y-12559843D01*
X74360757Y-12586204D01*
X74329228Y-12609588D01*
X74295559Y-12629769D01*
X74260073Y-12646552D01*
X74223114Y-12659776D01*
X74185036Y-12669314D01*
X74146207Y-12675074D01*
X74107000Y-12677000D01*
X73307000Y-12677000D01*
X73267793Y-12675074D01*
X73228964Y-12669314D01*
X73190886Y-12659776D01*
X73153927Y-12646552D01*
X73118441Y-12629769D01*
X73084772Y-12609588D01*
X73053243Y-12586204D01*
X73024157Y-12559843D01*
X72997796Y-12530757D01*
X72974412Y-12499228D01*
X72954231Y-12465559D01*
X72937448Y-12430073D01*
X72924224Y-12393114D01*
X72914686Y-12355036D01*
X72908926Y-12316207D01*
X72907000Y-12277000D01*
X72907000Y-10677000D01*
X72908926Y-10637793D01*
X72914686Y-10598964D01*
X72924224Y-10560886D01*
X72937448Y-10523927D01*
X72954231Y-10488441D01*
X72974412Y-10454772D01*
X72997796Y-10423243D01*
X73024157Y-10394157D01*
X73053243Y-10367796D01*
X73084772Y-10344412D01*
X73118441Y-10324231D01*
X73153927Y-10307448D01*
X73190886Y-10294224D01*
X73228964Y-10284686D01*
X73267793Y-10278926D01*
X73307000Y-10277000D01*
X74107000Y-10277000D01*
X74146207Y-10278926D01*
X74146207Y-10278926D01*
G37*
D14*
G04 #@! TD*
G04 #@! TO.P,J4,R*
G04 #@! TO.N,Net-(J3-Pad4)*
X73707000Y-11477000D03*
D20*
G04 #@! TO.N,Net-(J3-Pad5)*
G04 #@! TO.C,J4*
G36*
X64146207Y-10278926D02*
X64185036Y-10284686D01*
X64223114Y-10294224D01*
X64260073Y-10307448D01*
X64295559Y-10324231D01*
X64329228Y-10344412D01*
X64360757Y-10367796D01*
X64389843Y-10394157D01*
X64416204Y-10423243D01*
X64439588Y-10454772D01*
X64459769Y-10488441D01*
X64476552Y-10523927D01*
X64489776Y-10560886D01*
X64499314Y-10598964D01*
X64505074Y-10637793D01*
X64507000Y-10677000D01*
X64507000Y-12277000D01*
X64505074Y-12316207D01*
X64499314Y-12355036D01*
X64489776Y-12393114D01*
X64476552Y-12430073D01*
X64459769Y-12465559D01*
X64439588Y-12499228D01*
X64416204Y-12530757D01*
X64389843Y-12559843D01*
X64360757Y-12586204D01*
X64329228Y-12609588D01*
X64295559Y-12629769D01*
X64260073Y-12646552D01*
X64223114Y-12659776D01*
X64185036Y-12669314D01*
X64146207Y-12675074D01*
X64107000Y-12677000D01*
X63307000Y-12677000D01*
X63267793Y-12675074D01*
X63228964Y-12669314D01*
X63190886Y-12659776D01*
X63153927Y-12646552D01*
X63118441Y-12629769D01*
X63084772Y-12609588D01*
X63053243Y-12586204D01*
X63024157Y-12559843D01*
X62997796Y-12530757D01*
X62974412Y-12499228D01*
X62954231Y-12465559D01*
X62937448Y-12430073D01*
X62924224Y-12393114D01*
X62914686Y-12355036D01*
X62908926Y-12316207D01*
X62907000Y-12277000D01*
X62907000Y-10677000D01*
X62908926Y-10637793D01*
X62914686Y-10598964D01*
X62924224Y-10560886D01*
X62937448Y-10523927D01*
X62954231Y-10488441D01*
X62974412Y-10454772D01*
X62997796Y-10423243D01*
X63024157Y-10394157D01*
X63053243Y-10367796D01*
X63084772Y-10344412D01*
X63118441Y-10324231D01*
X63153927Y-10307448D01*
X63190886Y-10294224D01*
X63228964Y-10284686D01*
X63267793Y-10278926D01*
X63307000Y-10277000D01*
X64107000Y-10277000D01*
X64146207Y-10278926D01*
X64146207Y-10278926D01*
G37*
D14*
G04 #@! TD*
G04 #@! TO.P,J4,T*
G04 #@! TO.N,Net-(J3-Pad5)*
X63707000Y-11477000D03*
D20*
G04 #@! TO.N,N/C*
G04 #@! TO.C,J4*
G36*
X71646207Y-10278926D02*
X71685036Y-10284686D01*
X71723114Y-10294224D01*
X71760073Y-10307448D01*
X71795559Y-10324231D01*
X71829228Y-10344412D01*
X71860757Y-10367796D01*
X71889843Y-10394157D01*
X71916204Y-10423243D01*
X71939588Y-10454772D01*
X71959769Y-10488441D01*
X71976552Y-10523927D01*
X71989776Y-10560886D01*
X71999314Y-10598964D01*
X72005074Y-10637793D01*
X72007000Y-10677000D01*
X72007000Y-12277000D01*
X72005074Y-12316207D01*
X71999314Y-12355036D01*
X71989776Y-12393114D01*
X71976552Y-12430073D01*
X71959769Y-12465559D01*
X71939588Y-12499228D01*
X71916204Y-12530757D01*
X71889843Y-12559843D01*
X71860757Y-12586204D01*
X71829228Y-12609588D01*
X71795559Y-12629769D01*
X71760073Y-12646552D01*
X71723114Y-12659776D01*
X71685036Y-12669314D01*
X71646207Y-12675074D01*
X71607000Y-12677000D01*
X70807000Y-12677000D01*
X70767793Y-12675074D01*
X70728964Y-12669314D01*
X70690886Y-12659776D01*
X70653927Y-12646552D01*
X70618441Y-12629769D01*
X70584772Y-12609588D01*
X70553243Y-12586204D01*
X70524157Y-12559843D01*
X70497796Y-12530757D01*
X70474412Y-12499228D01*
X70454231Y-12465559D01*
X70437448Y-12430073D01*
X70424224Y-12393114D01*
X70414686Y-12355036D01*
X70408926Y-12316207D01*
X70407000Y-12277000D01*
X70407000Y-10677000D01*
X70408926Y-10637793D01*
X70414686Y-10598964D01*
X70424224Y-10560886D01*
X70437448Y-10523927D01*
X70454231Y-10488441D01*
X70474412Y-10454772D01*
X70497796Y-10423243D01*
X70524157Y-10394157D01*
X70553243Y-10367796D01*
X70584772Y-10344412D01*
X70618441Y-10324231D01*
X70653927Y-10307448D01*
X70690886Y-10294224D01*
X70728964Y-10284686D01*
X70767793Y-10278926D01*
X70807000Y-10277000D01*
X71607000Y-10277000D01*
X71646207Y-10278926D01*
X71646207Y-10278926D01*
G37*
D14*
G04 #@! TD*
G04 #@! TO.P,J4,RN*
G04 #@! TO.N,N/C*
X71207000Y-11477000D03*
D20*
G04 #@! TO.N,N/C*
G04 #@! TO.C,J4*
G36*
X66646207Y-10278926D02*
X66685036Y-10284686D01*
X66723114Y-10294224D01*
X66760073Y-10307448D01*
X66795559Y-10324231D01*
X66829228Y-10344412D01*
X66860757Y-10367796D01*
X66889843Y-10394157D01*
X66916204Y-10423243D01*
X66939588Y-10454772D01*
X66959769Y-10488441D01*
X66976552Y-10523927D01*
X66989776Y-10560886D01*
X66999314Y-10598964D01*
X67005074Y-10637793D01*
X67007000Y-10677000D01*
X67007000Y-12277000D01*
X67005074Y-12316207D01*
X66999314Y-12355036D01*
X66989776Y-12393114D01*
X66976552Y-12430073D01*
X66959769Y-12465559D01*
X66939588Y-12499228D01*
X66916204Y-12530757D01*
X66889843Y-12559843D01*
X66860757Y-12586204D01*
X66829228Y-12609588D01*
X66795559Y-12629769D01*
X66760073Y-12646552D01*
X66723114Y-12659776D01*
X66685036Y-12669314D01*
X66646207Y-12675074D01*
X66607000Y-12677000D01*
X65807000Y-12677000D01*
X65767793Y-12675074D01*
X65728964Y-12669314D01*
X65690886Y-12659776D01*
X65653927Y-12646552D01*
X65618441Y-12629769D01*
X65584772Y-12609588D01*
X65553243Y-12586204D01*
X65524157Y-12559843D01*
X65497796Y-12530757D01*
X65474412Y-12499228D01*
X65454231Y-12465559D01*
X65437448Y-12430073D01*
X65424224Y-12393114D01*
X65414686Y-12355036D01*
X65408926Y-12316207D01*
X65407000Y-12277000D01*
X65407000Y-10677000D01*
X65408926Y-10637793D01*
X65414686Y-10598964D01*
X65424224Y-10560886D01*
X65437448Y-10523927D01*
X65454231Y-10488441D01*
X65474412Y-10454772D01*
X65497796Y-10423243D01*
X65524157Y-10394157D01*
X65553243Y-10367796D01*
X65584772Y-10344412D01*
X65618441Y-10324231D01*
X65653927Y-10307448D01*
X65690886Y-10294224D01*
X65728964Y-10284686D01*
X65767793Y-10278926D01*
X65807000Y-10277000D01*
X66607000Y-10277000D01*
X66646207Y-10278926D01*
X66646207Y-10278926D01*
G37*
D14*
G04 #@! TD*
G04 #@! TO.P,J4,TN*
G04 #@! TO.N,N/C*
X66207000Y-11477000D03*
D20*
G04 #@! TO.N,GND*
G04 #@! TO.C,J4*
G36*
X69546207Y-5678926D02*
X69585036Y-5684686D01*
X69623114Y-5694224D01*
X69660073Y-5707448D01*
X69695559Y-5724231D01*
X69729228Y-5744412D01*
X69760757Y-5767796D01*
X69789843Y-5794157D01*
X69816204Y-5823243D01*
X69839588Y-5854772D01*
X69859769Y-5888441D01*
X69876552Y-5923927D01*
X69889776Y-5960886D01*
X69899314Y-5998964D01*
X69905074Y-6037793D01*
X69907000Y-6077000D01*
X69907000Y-6877000D01*
X69905074Y-6916207D01*
X69899314Y-6955036D01*
X69889776Y-6993114D01*
X69876552Y-7030073D01*
X69859769Y-7065559D01*
X69839588Y-7099228D01*
X69816204Y-7130757D01*
X69789843Y-7159843D01*
X69760757Y-7186204D01*
X69729228Y-7209588D01*
X69695559Y-7229769D01*
X69660073Y-7246552D01*
X69623114Y-7259776D01*
X69585036Y-7269314D01*
X69546207Y-7275074D01*
X69507000Y-7277000D01*
X67907000Y-7277000D01*
X67867793Y-7275074D01*
X67828964Y-7269314D01*
X67790886Y-7259776D01*
X67753927Y-7246552D01*
X67718441Y-7229769D01*
X67684772Y-7209588D01*
X67653243Y-7186204D01*
X67624157Y-7159843D01*
X67597796Y-7130757D01*
X67574412Y-7099228D01*
X67554231Y-7065559D01*
X67537448Y-7030073D01*
X67524224Y-6993114D01*
X67514686Y-6955036D01*
X67508926Y-6916207D01*
X67507000Y-6877000D01*
X67507000Y-6077000D01*
X67508926Y-6037793D01*
X67514686Y-5998964D01*
X67524224Y-5960886D01*
X67537448Y-5923927D01*
X67554231Y-5888441D01*
X67574412Y-5854772D01*
X67597796Y-5823243D01*
X67624157Y-5794157D01*
X67653243Y-5767796D01*
X67684772Y-5744412D01*
X67718441Y-5724231D01*
X67753927Y-5707448D01*
X67790886Y-5694224D01*
X67828964Y-5684686D01*
X67867793Y-5678926D01*
X67907000Y-5677000D01*
X69507000Y-5677000D01*
X69546207Y-5678926D01*
X69546207Y-5678926D01*
G37*
D14*
G04 #@! TD*
G04 #@! TO.P,J4,S*
G04 #@! TO.N,GND*
X68707000Y-6477000D03*
D21*
G04 #@! TO.P,J3,3*
G04 #@! TO.N,Net-(J3-Pad3)*
X76205080Y-12522200D03*
G04 #@! TO.P,J3,4*
G04 #@! TO.N,Net-(J3-Pad4)*
X63710820Y-15024100D03*
G04 #@! TO.P,J3,2*
G04 #@! TO.N,GND*
X68707000Y-12524740D03*
G04 #@! TO.P,J3,1*
G04 #@! TO.N,Net-(J3-Pad1)*
X61208920Y-12522200D03*
G04 #@! TO.P,J3,5*
G04 #@! TO.N,Net-(J3-Pad5)*
X73703180Y-15024100D03*
G04 #@! TO.P,J3,*
G04 #@! TO.N,*
X63705740Y-2527300D03*
X73708260Y-2527300D03*
G04 #@! TD*
D12*
G04 #@! TO.P,RV3,*
G04 #@! TO.N,*
X54710700Y-33782000D03*
X45110700Y-33782000D03*
D11*
G04 #@! TO.P,RV3,3*
G04 #@! TO.N,+5V*
X52410700Y-40782000D03*
G04 #@! TO.P,RV3,2*
G04 #@! TO.N,A3*
X49910700Y-40782000D03*
G04 #@! TO.P,RV3,1*
G04 #@! TO.N,GND*
X47410700Y-40782000D03*
G04 #@! TD*
G04 #@! TO.P,RV4,1*
G04 #@! TO.N,GND*
X61507100Y-40782000D03*
G04 #@! TO.P,RV4,2*
G04 #@! TO.N,A4*
X64007100Y-40782000D03*
G04 #@! TO.P,RV4,3*
G04 #@! TO.N,+5V*
X66507100Y-40782000D03*
D12*
G04 #@! TO.P,RV4,*
G04 #@! TO.N,*
X59207100Y-33782000D03*
X68807100Y-33782000D03*
G04 #@! TD*
G04 #@! TO.P,RV1,*
G04 #@! TO.N,*
X26517900Y-33782000D03*
X16917900Y-33782000D03*
D11*
G04 #@! TO.P,RV1,3*
G04 #@! TO.N,+5V*
X24217900Y-40782000D03*
G04 #@! TO.P,RV1,2*
G04 #@! TO.N,A1*
X21717900Y-40782000D03*
G04 #@! TO.P,RV1,1*
G04 #@! TO.N,GND*
X19217900Y-40782000D03*
G04 #@! TD*
G04 #@! TO.P,RV5,1*
G04 #@! TO.N,GND*
X75603600Y-40782000D03*
G04 #@! TO.P,RV5,2*
G04 #@! TO.N,A5*
X78103600Y-40782000D03*
G04 #@! TO.P,RV5,3*
G04 #@! TO.N,+5V*
X80603600Y-40782000D03*
D12*
G04 #@! TO.P,RV5,*
G04 #@! TO.N,*
X73303600Y-33782000D03*
X82903600Y-33782000D03*
G04 #@! TD*
D11*
G04 #@! TO.P,RV2,1*
G04 #@! TO.N,GND*
X33314300Y-40782000D03*
G04 #@! TO.P,RV2,2*
G04 #@! TO.N,A2*
X35814300Y-40782000D03*
G04 #@! TO.P,RV2,3*
G04 #@! TO.N,+5V*
X38314300Y-40782000D03*
D12*
G04 #@! TO.P,RV2,*
G04 #@! TO.N,*
X31014300Y-33782000D03*
X40614300Y-33782000D03*
G04 #@! TD*
D22*
G04 #@! TO.N,GND*
X48768000Y-20828000D03*
G04 #@! TO.N,~RST*
X16654900Y-12918500D03*
G04 #@! TO.N,+5V*
X22588600Y-5489900D03*
G04 #@! TO.N,LED5*
X33020000Y-26035000D03*
G04 #@! TO.N,LED4*
X16365713Y-9617090D03*
X24013513Y-16938194D03*
G04 #@! TO.N,LED3*
X13773600Y-6286800D03*
X40513000Y-20828000D03*
G04 #@! TO.N,LED2*
X19136300Y-8224700D03*
X32766000Y-24638000D03*
G04 #@! TO.N,LED0*
X5614700Y-25016000D03*
X18062900Y-12433900D03*
G04 #@! TO.N,SW1*
X21206000Y-10501900D03*
G04 #@! TO.N,SW2*
X16920300Y-7388100D03*
G04 #@! TO.N,SW3*
X13048200Y-6984300D03*
G04 #@! TO.N,MISO*
X18090500Y-10342100D03*
G04 #@! TO.N,A0*
X15730300Y-16660100D03*
G04 #@! TO.N,SW0*
X23717400Y-13172300D03*
G04 #@! TD*
D23*
G04 #@! TO.N,GND*
X79769000Y-50419000D02*
X80471900Y-51121900D01*
X80471900Y-51121900D02*
X80471900Y-52116100D01*
X1858900Y-48721900D02*
X1156000Y-49424800D01*
X1156000Y-49424800D02*
X1156000Y-50419000D01*
X1858900Y-52116100D02*
X1858900Y-51121900D01*
X1858900Y-51121900D02*
X1156000Y-50419000D01*
X82871900Y-52116100D02*
X82169000Y-52819000D01*
X83866100Y-52116100D02*
X82871900Y-52116100D01*
X82871900Y-52116100D02*
X82871900Y-51121900D01*
X82871900Y-51121900D02*
X82169000Y-50419000D01*
X84569000Y-50419000D02*
X83866100Y-51121900D01*
X83866100Y-51121900D02*
X83866100Y-52116100D01*
X80471900Y-52116100D02*
X81466100Y-52116100D01*
X81466100Y-52116100D02*
X82169000Y-52819000D01*
X79769000Y-3556000D02*
X80471900Y-2853100D01*
X80471900Y-2853100D02*
X80471900Y-1858900D01*
X53244000Y-10403000D02*
X53837200Y-9809800D01*
X45974000Y-13113000D02*
X45582200Y-13113000D01*
X3556000Y-1858900D02*
X5253100Y-1858900D01*
X3556000Y-1858900D02*
X3556000Y-3556000D01*
X3556000Y-1156000D02*
X3556000Y-1858900D01*
X3556000Y-1858900D02*
X1858900Y-1858900D01*
X3556000Y-48019000D02*
X3804500Y-47770500D01*
X3804500Y-47770500D02*
X3804600Y-47770500D01*
X3804600Y-47770500D02*
X4053200Y-47521900D01*
X5253100Y-48721900D02*
X4053200Y-47521900D01*
X4379100Y-6127100D02*
X4718700Y-6466700D01*
X4718700Y-6466700D02*
X4718700Y-14175500D01*
X4718700Y-14175500D02*
X5421900Y-14878700D01*
X5421900Y-14878700D02*
X5969000Y-14878700D01*
X5253100Y-5253100D02*
X4379100Y-6127100D01*
X4379100Y-6127100D02*
X3727100Y-6127100D01*
X3727100Y-6127100D02*
X3556000Y-5956000D01*
X5956000Y-3556000D02*
X5956000Y-4550200D01*
X5956000Y-4550200D02*
X5253100Y-5253100D01*
X5969000Y-16129000D02*
X5969000Y-14878700D01*
X84569000Y-50419000D02*
X83866100Y-49716100D01*
X83866100Y-49716100D02*
X83866100Y-48721900D01*
X5956000Y-50419000D02*
X5253100Y-51121900D01*
X5253100Y-51121900D02*
X5253100Y-52116100D01*
X1858900Y-1858900D02*
X1156000Y-2561800D01*
X1156000Y-2561800D02*
X1156000Y-3556000D01*
X83866100Y-5253100D02*
X83866100Y-4258900D01*
X83866100Y-4258900D02*
X84569000Y-3556000D01*
X83866100Y-1858900D02*
X84569000Y-2561800D01*
X84569000Y-2561800D02*
X84569000Y-3556000D01*
D24*
G04 #@! TO.N,~RST*
X4604300Y-16129000D02*
X4604300Y-16474100D01*
X4604300Y-16474100D02*
X5463500Y-17333300D01*
X5463500Y-17333300D02*
X12240100Y-17333300D01*
X12240100Y-17333300D02*
X16654900Y-12918500D01*
X3429000Y-16129000D02*
X4604300Y-16129000D01*
D23*
G04 #@! TO.N,+5V*
X35560000Y-5715000D02*
X35560000Y-6915300D01*
X34925000Y-12954000D02*
X34925000Y-11753700D01*
X34925000Y-11753700D02*
X35375100Y-11753700D01*
X35375100Y-11753700D02*
X36136800Y-10992000D01*
X36136800Y-10992000D02*
X36136800Y-7492100D01*
X36136800Y-7492100D02*
X35560000Y-6915300D01*
X22588600Y-5489900D02*
X34134600Y-5489900D01*
X34134600Y-5489900D02*
X34359700Y-5715000D01*
X7219300Y-11049000D02*
X12815400Y-5452900D01*
X12815400Y-5452900D02*
X22551600Y-5452900D01*
X22551600Y-5452900D02*
X22588600Y-5489900D01*
X35560000Y-5715000D02*
X34359700Y-5715000D01*
X45974000Y-15113000D02*
X45974000Y-16363300D01*
X52410700Y-40782000D02*
X52410700Y-22800000D01*
X52410700Y-22800000D02*
X45974000Y-16363300D01*
X5969000Y-11049000D02*
X7219300Y-11049000D01*
D24*
G04 #@! TO.N,LED5*
X10665912Y-8892088D02*
X16713715Y-8892088D01*
X16829227Y-9007600D02*
X21949400Y-9007600D01*
X5969000Y-13589000D02*
X10665912Y-8892088D01*
X21949400Y-9007600D02*
X26421600Y-13479800D01*
X16713715Y-8892088D02*
X16829227Y-9007600D01*
X26421600Y-13479800D02*
X26421600Y-19436600D01*
X26421600Y-19436600D02*
X32620001Y-25635001D01*
X32620001Y-25635001D02*
X33020000Y-26035000D01*
G04 #@! TO.N,LED4*
X16765712Y-10045776D02*
X23258131Y-16538195D01*
X23258131Y-16538195D02*
X23613514Y-16538195D01*
X23613514Y-16538195D02*
X24013513Y-16938194D01*
X16765712Y-10017089D02*
X16765712Y-10045776D01*
X16365713Y-9617090D02*
X16765712Y-10017089D01*
G04 #@! TO.N,LED3*
X36645315Y-20828000D02*
X39947315Y-20828000D01*
X14413585Y-6212500D02*
X22029815Y-6212500D01*
X39947315Y-20828000D02*
X40513000Y-20828000D01*
X22029815Y-6212500D02*
X36645315Y-20828000D01*
X13773600Y-6286800D02*
X14339285Y-6286800D01*
X14339285Y-6286800D02*
X14413585Y-6212500D01*
G04 #@! TO.N,LED2*
X32766000Y-24072315D02*
X32766000Y-24638000D01*
X19136300Y-8224700D02*
X21865500Y-8224700D01*
X21865500Y-8224700D02*
X32766000Y-19125200D01*
X32766000Y-19125200D02*
X32766000Y-24072315D01*
G04 #@! TO.N,LED0*
X18062900Y-12433900D02*
X18062900Y-12567800D01*
X18062900Y-12567800D02*
X5614700Y-25016000D01*
G04 #@! TO.N,SW1*
X23072700Y-43391900D02*
X27108100Y-43391900D01*
X27108100Y-43391900D02*
X28293200Y-44577000D01*
X21793200Y-44577000D02*
X22978300Y-43391900D01*
X22978300Y-43391900D02*
X23072700Y-43391900D01*
X23072700Y-43391900D02*
X23072700Y-35156300D01*
X23072700Y-35156300D02*
X24244400Y-33984600D01*
X24244400Y-33984600D02*
X24244400Y-18530115D01*
X22072900Y-10501900D02*
X21771685Y-10501900D01*
X24915900Y-13344900D02*
X22072900Y-10501900D01*
X24915900Y-16131167D02*
X24915900Y-13344900D01*
X25188526Y-16403792D02*
X24915900Y-16131167D01*
X21771685Y-10501900D02*
X21206000Y-10501900D01*
X24244400Y-18530115D02*
X25188526Y-17585989D01*
X25188526Y-17585989D02*
X25188526Y-16403792D01*
G04 #@! TO.N,SW2*
X40180400Y-44577000D02*
X36997100Y-41393700D01*
X36997100Y-41393700D02*
X36997100Y-22719400D01*
X36997100Y-22719400D02*
X21665800Y-7388100D01*
X21665800Y-7388100D02*
X16920300Y-7388100D01*
G04 #@! TO.N,SW3*
X45567600Y-44577000D02*
X37502100Y-36511500D01*
X37502100Y-36511500D02*
X37502000Y-36511500D01*
X37502000Y-36511500D02*
X37502000Y-22573600D01*
X37502000Y-22573600D02*
X21591200Y-6662800D01*
X21591200Y-6662800D02*
X16619900Y-6662800D01*
X16619900Y-6662800D02*
X16270100Y-7012600D01*
X16270100Y-7012600D02*
X13076500Y-7012600D01*
X13076500Y-7012600D02*
X13048200Y-6984300D01*
G04 #@! TO.N,MISO*
X18090500Y-10342100D02*
X18692300Y-9740300D01*
X18692300Y-9740300D02*
X21989400Y-9740300D01*
X21989400Y-9740300D02*
X25812000Y-13562900D01*
X25812000Y-13562900D02*
X25812000Y-23236800D01*
X25812000Y-23236800D02*
X34405000Y-31829800D01*
X34405000Y-31829800D02*
X34405000Y-41506500D01*
X34405000Y-41506500D02*
X37786800Y-44888300D01*
X37786800Y-44888300D02*
X37786800Y-48593100D01*
X37786800Y-48593100D02*
X39610000Y-50416300D01*
X39610000Y-50416300D02*
X48528100Y-50416300D01*
X48528100Y-50416300D02*
X54367400Y-44577000D01*
X54367400Y-44577000D02*
X57454800Y-44577000D01*
G04 #@! TO.N,SCK*
X3429000Y-13589000D02*
X3429000Y-14764300D01*
X3429000Y-14764300D02*
X3061700Y-14764300D01*
X3061700Y-14764300D02*
X2245900Y-15580100D01*
X2245900Y-15580100D02*
X2245900Y-24108900D01*
X2245900Y-24108900D02*
X6371400Y-28234400D01*
X6371400Y-28234400D02*
X6371400Y-47416800D01*
X6371400Y-47416800D02*
X9824400Y-50869800D01*
X9824400Y-50869800D02*
X64066300Y-50869800D01*
X64066300Y-50869800D02*
X69342000Y-45594100D01*
X69342000Y-45594100D02*
X69342000Y-44577000D01*
G04 #@! TO.N,A0*
X7621400Y-40909000D02*
X7621400Y-24769000D01*
X7621400Y-24769000D02*
X15730300Y-16660100D01*
G04 #@! TO.N,SW0*
X24738515Y-16590192D02*
X24738515Y-17352385D01*
X24738515Y-17352385D02*
X23569100Y-18521800D01*
X23569100Y-33062600D02*
X16406000Y-40225700D01*
X16406000Y-40225700D02*
X16406000Y-43162787D01*
X23569100Y-18521800D02*
X23569100Y-33062600D01*
X16406000Y-43162787D02*
X16406000Y-44577000D01*
X23717400Y-13172300D02*
X23717400Y-15569077D01*
X23717400Y-15569077D02*
X24738515Y-16590192D01*
G04 #@! TO.N,Net-(J3-Pad4)*
X73707000Y-11477000D02*
X70159900Y-15024100D01*
X70159900Y-15024100D02*
X63710800Y-15024100D01*
G04 #@! TD*
D25*
G04 #@! TO.N,GND*
G36*
X79642208Y-811419D02*
X82169000Y-3338211D01*
X82183142Y-3324069D01*
X82400931Y-3541858D01*
X82386789Y-3556000D01*
X84913581Y-6082792D01*
X85350000Y-5748613D01*
X85350001Y-48226387D01*
X84913581Y-47892208D01*
X82386789Y-50419000D01*
X82400931Y-50433142D01*
X82183142Y-50650931D01*
X82169000Y-50636789D01*
X79642208Y-53163581D01*
X79976387Y-53600000D01*
X5748613Y-53600000D01*
X6082792Y-53163581D01*
X3556000Y-50636789D01*
X3541858Y-50650931D01*
X3324069Y-50433142D01*
X3338211Y-50419000D01*
X811419Y-47892208D01*
X375000Y-48226387D01*
X375000Y-47674419D01*
X1029208Y-47674419D01*
X3556000Y-50201211D01*
X3570142Y-50187069D01*
X3787931Y-50404858D01*
X3773789Y-50419000D01*
X6300581Y-52945792D01*
X6785139Y-52574752D01*
X7364306Y-51174917D01*
X7363693Y-49660001D01*
X6904167Y-48550607D01*
X9494281Y-51140722D01*
X9517992Y-51176208D01*
X9658573Y-51270141D01*
X9782542Y-51294800D01*
X9782543Y-51294800D01*
X9824399Y-51303126D01*
X9866255Y-51294800D01*
X64024443Y-51294800D01*
X64066300Y-51303126D01*
X64108157Y-51294800D01*
X64108158Y-51294800D01*
X64232127Y-51270141D01*
X64372708Y-51176208D01*
X64396421Y-51140719D01*
X65305074Y-50232066D01*
X68404723Y-50232066D01*
X68507174Y-50488040D01*
X69110703Y-50700105D01*
X69749445Y-50665067D01*
X70176826Y-50488040D01*
X70279277Y-50232066D01*
X74904723Y-50232066D01*
X75007174Y-50488040D01*
X75610703Y-50700105D01*
X76249445Y-50665067D01*
X76676826Y-50488040D01*
X76779277Y-50232066D01*
X75842000Y-49294789D01*
X74904723Y-50232066D01*
X70279277Y-50232066D01*
X69342000Y-49294789D01*
X68404723Y-50232066D01*
X65305074Y-50232066D01*
X66691437Y-48845703D01*
X67718895Y-48845703D01*
X67753933Y-49484445D01*
X67930960Y-49911826D01*
X68186934Y-50014277D01*
X69124211Y-49077000D01*
X69559789Y-49077000D01*
X70497066Y-50014277D01*
X70753040Y-49911826D01*
X70965105Y-49308297D01*
X70939730Y-48845703D01*
X74218895Y-48845703D01*
X74253933Y-49484445D01*
X74430960Y-49911826D01*
X74686934Y-50014277D01*
X75624211Y-49077000D01*
X76059789Y-49077000D01*
X76997066Y-50014277D01*
X77253040Y-49911826D01*
X77340442Y-49663083D01*
X78360694Y-49663083D01*
X78361307Y-51177999D01*
X78939861Y-52574752D01*
X79424419Y-52945792D01*
X81951211Y-50419000D01*
X79424419Y-47892208D01*
X78939861Y-48263248D01*
X78360694Y-49663083D01*
X77340442Y-49663083D01*
X77465105Y-49308297D01*
X77430067Y-48669555D01*
X77253040Y-48242174D01*
X76997066Y-48139723D01*
X76059789Y-49077000D01*
X75624211Y-49077000D01*
X74686934Y-48139723D01*
X74430960Y-48242174D01*
X74218895Y-48845703D01*
X70939730Y-48845703D01*
X70930067Y-48669555D01*
X70753040Y-48242174D01*
X70497066Y-48139723D01*
X69559789Y-49077000D01*
X69124211Y-49077000D01*
X68186934Y-48139723D01*
X67930960Y-48242174D01*
X67718895Y-48845703D01*
X66691437Y-48845703D01*
X67615206Y-47921934D01*
X68404723Y-47921934D01*
X69342000Y-48859211D01*
X70279277Y-47921934D01*
X74904723Y-47921934D01*
X75842000Y-48859211D01*
X76779277Y-47921934D01*
X76680212Y-47674419D01*
X79642208Y-47674419D01*
X82169000Y-50201211D01*
X84695792Y-47674419D01*
X84324752Y-47189861D01*
X82924917Y-46610694D01*
X81410001Y-46611307D01*
X80013248Y-47189861D01*
X79642208Y-47674419D01*
X76680212Y-47674419D01*
X76676826Y-47665960D01*
X76073297Y-47453895D01*
X75434555Y-47488933D01*
X75007174Y-47665960D01*
X74904723Y-47921934D01*
X70279277Y-47921934D01*
X70176826Y-47665960D01*
X69573297Y-47453895D01*
X68934555Y-47488933D01*
X68507174Y-47665960D01*
X68404723Y-47921934D01*
X67615206Y-47921934D01*
X69612923Y-45924218D01*
X69648408Y-45900508D01*
X69688427Y-45840615D01*
X70078391Y-45679087D01*
X70444087Y-45313391D01*
X70642000Y-44835586D01*
X70642000Y-44318414D01*
X74542000Y-44318414D01*
X74542000Y-44835586D01*
X74739913Y-45313391D01*
X75105609Y-45679087D01*
X75583414Y-45877000D01*
X76100586Y-45877000D01*
X76578391Y-45679087D01*
X76944087Y-45313391D01*
X77142000Y-44835586D01*
X77142000Y-44318414D01*
X76944087Y-43840609D01*
X76578391Y-43474913D01*
X76100586Y-43277000D01*
X75583414Y-43277000D01*
X75105609Y-43474913D01*
X74739913Y-43840609D01*
X74542000Y-44318414D01*
X70642000Y-44318414D01*
X70444087Y-43840609D01*
X70078391Y-43474913D01*
X69600586Y-43277000D01*
X69083414Y-43277000D01*
X68605609Y-43474913D01*
X68239913Y-43840609D01*
X68042000Y-44318414D01*
X68042000Y-44835586D01*
X68239913Y-45313391D01*
X68605609Y-45679087D01*
X68641221Y-45693838D01*
X65549244Y-48785815D01*
X65542867Y-48669555D01*
X65365840Y-48242174D01*
X65109866Y-48139723D01*
X64172589Y-49077000D01*
X64186731Y-49091142D01*
X63968942Y-49308931D01*
X63954800Y-49294789D01*
X63017523Y-50232066D01*
X63102668Y-50444800D01*
X58306932Y-50444800D01*
X58392077Y-50232066D01*
X57454800Y-49294789D01*
X56517523Y-50232066D01*
X56602668Y-50444800D01*
X52919732Y-50444800D01*
X53004877Y-50232066D01*
X52067600Y-49294789D01*
X51130323Y-50232066D01*
X51215468Y-50444800D01*
X49100640Y-50444800D01*
X50457768Y-49087672D01*
X50479533Y-49484445D01*
X50656560Y-49911826D01*
X50912534Y-50014277D01*
X51849811Y-49077000D01*
X52285389Y-49077000D01*
X53222666Y-50014277D01*
X53478640Y-49911826D01*
X53690705Y-49308297D01*
X53665330Y-48845703D01*
X55831695Y-48845703D01*
X55866733Y-49484445D01*
X56043760Y-49911826D01*
X56299734Y-50014277D01*
X57237011Y-49077000D01*
X57672589Y-49077000D01*
X58609866Y-50014277D01*
X58865840Y-49911826D01*
X59077905Y-49308297D01*
X59052530Y-48845703D01*
X62331695Y-48845703D01*
X62366733Y-49484445D01*
X62543760Y-49911826D01*
X62799734Y-50014277D01*
X63737011Y-49077000D01*
X62799734Y-48139723D01*
X62543760Y-48242174D01*
X62331695Y-48845703D01*
X59052530Y-48845703D01*
X59042867Y-48669555D01*
X58865840Y-48242174D01*
X58609866Y-48139723D01*
X57672589Y-49077000D01*
X57237011Y-49077000D01*
X56299734Y-48139723D01*
X56043760Y-48242174D01*
X55831695Y-48845703D01*
X53665330Y-48845703D01*
X53655667Y-48669555D01*
X53478640Y-48242174D01*
X53222666Y-48139723D01*
X52285389Y-49077000D01*
X51849811Y-49077000D01*
X51835669Y-49062858D01*
X52053458Y-48845069D01*
X52067600Y-48859211D01*
X53004877Y-47921934D01*
X56517523Y-47921934D01*
X57454800Y-48859211D01*
X58392077Y-47921934D01*
X63017523Y-47921934D01*
X63954800Y-48859211D01*
X64892077Y-47921934D01*
X64789626Y-47665960D01*
X64186097Y-47453895D01*
X63547355Y-47488933D01*
X63119974Y-47665960D01*
X63017523Y-47921934D01*
X58392077Y-47921934D01*
X58289626Y-47665960D01*
X57686097Y-47453895D01*
X57047355Y-47488933D01*
X56619974Y-47665960D01*
X56517523Y-47921934D01*
X53004877Y-47921934D01*
X52902426Y-47665960D01*
X52298897Y-47453895D01*
X52079511Y-47465929D01*
X54543441Y-45002000D01*
X56223731Y-45002000D01*
X56352713Y-45313391D01*
X56718409Y-45679087D01*
X57196214Y-45877000D01*
X57713386Y-45877000D01*
X58191191Y-45679087D01*
X58556887Y-45313391D01*
X58754800Y-44835586D01*
X58754800Y-44318414D01*
X62654800Y-44318414D01*
X62654800Y-44835586D01*
X62852713Y-45313391D01*
X63218409Y-45679087D01*
X63696214Y-45877000D01*
X64213386Y-45877000D01*
X64691191Y-45679087D01*
X65056887Y-45313391D01*
X65254800Y-44835586D01*
X65254800Y-44318414D01*
X65056887Y-43840609D01*
X64691191Y-43474913D01*
X64213386Y-43277000D01*
X63696214Y-43277000D01*
X63218409Y-43474913D01*
X62852713Y-43840609D01*
X62654800Y-44318414D01*
X58754800Y-44318414D01*
X58556887Y-43840609D01*
X58191191Y-43474913D01*
X57713386Y-43277000D01*
X57196214Y-43277000D01*
X56718409Y-43474913D01*
X56352713Y-43840609D01*
X56223731Y-44152000D01*
X54409257Y-44152000D01*
X54367399Y-44143674D01*
X54325542Y-44152000D01*
X54201573Y-44176659D01*
X54060992Y-44270592D01*
X54037282Y-44306077D01*
X53268483Y-45074876D01*
X53367600Y-44835586D01*
X53367600Y-44318414D01*
X53169687Y-43840609D01*
X52803991Y-43474913D01*
X52326186Y-43277000D01*
X51809014Y-43277000D01*
X51331209Y-43474913D01*
X50965513Y-43840609D01*
X50767600Y-44318414D01*
X50767600Y-44835586D01*
X50965513Y-45313391D01*
X51331209Y-45679087D01*
X51809014Y-45877000D01*
X52326186Y-45877000D01*
X52565476Y-45777883D01*
X48352060Y-49991300D01*
X46780074Y-49991300D01*
X46978640Y-49911826D01*
X47190705Y-49308297D01*
X47155667Y-48669555D01*
X46978640Y-48242174D01*
X46722666Y-48139723D01*
X45785389Y-49077000D01*
X45799531Y-49091142D01*
X45581742Y-49308931D01*
X45567600Y-49294789D01*
X45553458Y-49308931D01*
X45335669Y-49091142D01*
X45349811Y-49077000D01*
X44412534Y-48139723D01*
X44156560Y-48242174D01*
X43944495Y-48845703D01*
X43979533Y-49484445D01*
X44156560Y-49911826D01*
X44355126Y-49991300D01*
X41392874Y-49991300D01*
X41591440Y-49911826D01*
X41803505Y-49308297D01*
X41768467Y-48669555D01*
X41591440Y-48242174D01*
X41335466Y-48139723D01*
X40398189Y-49077000D01*
X40412331Y-49091142D01*
X40194542Y-49308931D01*
X40180400Y-49294789D01*
X40166258Y-49308931D01*
X39948469Y-49091142D01*
X39962611Y-49077000D01*
X39025334Y-48139723D01*
X38769360Y-48242174D01*
X38578915Y-48784174D01*
X38211800Y-48417060D01*
X38211800Y-47921934D01*
X39243123Y-47921934D01*
X40180400Y-48859211D01*
X41117677Y-47921934D01*
X44630323Y-47921934D01*
X45567600Y-48859211D01*
X46504877Y-47921934D01*
X46402426Y-47665960D01*
X45798897Y-47453895D01*
X45160155Y-47488933D01*
X44732774Y-47665960D01*
X44630323Y-47921934D01*
X41117677Y-47921934D01*
X41015226Y-47665960D01*
X40411697Y-47453895D01*
X39772955Y-47488933D01*
X39345574Y-47665960D01*
X39243123Y-47921934D01*
X38211800Y-47921934D01*
X38211800Y-44930155D01*
X38220126Y-44888299D01*
X38211800Y-44846442D01*
X38187141Y-44722473D01*
X38093208Y-44581892D01*
X38057723Y-44558182D01*
X35549423Y-42049883D01*
X35814300Y-42102570D01*
X36223989Y-42021078D01*
X36571307Y-41789007D01*
X36660700Y-41655221D01*
X36690692Y-41700108D01*
X36726181Y-41723821D01*
X39009382Y-44007023D01*
X38880400Y-44318414D01*
X38880400Y-44835586D01*
X39078313Y-45313391D01*
X39444009Y-45679087D01*
X39921814Y-45877000D01*
X40438986Y-45877000D01*
X40916791Y-45679087D01*
X41282487Y-45313391D01*
X41480400Y-44835586D01*
X41480400Y-44318414D01*
X41282487Y-43840609D01*
X40916791Y-43474913D01*
X40438986Y-43277000D01*
X39921814Y-43277000D01*
X39610423Y-43405982D01*
X38305200Y-42100760D01*
X38314300Y-42102570D01*
X38723989Y-42021078D01*
X39071307Y-41789007D01*
X39303378Y-41441688D01*
X39364300Y-41135412D01*
X39364300Y-40428587D01*
X39303378Y-40122311D01*
X39071307Y-39774993D01*
X38723988Y-39542922D01*
X38314300Y-39461430D01*
X37904611Y-39542922D01*
X37557293Y-39774993D01*
X37422100Y-39977324D01*
X37422100Y-37032540D01*
X44396582Y-44007023D01*
X44267600Y-44318414D01*
X44267600Y-44835586D01*
X44465513Y-45313391D01*
X44831209Y-45679087D01*
X45309014Y-45877000D01*
X45826186Y-45877000D01*
X46303991Y-45679087D01*
X46669687Y-45313391D01*
X46867600Y-44835586D01*
X46867600Y-44318414D01*
X46669687Y-43840609D01*
X46303991Y-43474913D01*
X45826186Y-43277000D01*
X45309014Y-43277000D01*
X44997623Y-43405982D01*
X42742110Y-41150469D01*
X46049043Y-41150469D01*
X46198029Y-41662535D01*
X46531633Y-42078607D01*
X46999067Y-42335343D01*
X47047528Y-42340538D01*
X47256700Y-42228127D01*
X47256700Y-40936000D01*
X47564700Y-40936000D01*
X47564700Y-42228127D01*
X47773872Y-42340538D01*
X47822333Y-42335343D01*
X48289767Y-42078607D01*
X48623371Y-41662535D01*
X48772357Y-41150469D01*
X48622125Y-40936000D01*
X47564700Y-40936000D01*
X47256700Y-40936000D01*
X46199275Y-40936000D01*
X46049043Y-41150469D01*
X42742110Y-41150469D01*
X42005172Y-40413531D01*
X46049043Y-40413531D01*
X46199275Y-40628000D01*
X47256700Y-40628000D01*
X47256700Y-39335873D01*
X47564700Y-39335873D01*
X47564700Y-40628000D01*
X48622125Y-40628000D01*
X48761809Y-40428588D01*
X48860700Y-40428588D01*
X48860700Y-41135413D01*
X48921622Y-41441689D01*
X49153694Y-41789007D01*
X49501012Y-42021078D01*
X49910700Y-42102570D01*
X50320389Y-42021078D01*
X50667707Y-41789007D01*
X50899778Y-41441688D01*
X50960700Y-41135412D01*
X50960700Y-40428587D01*
X50899778Y-40122311D01*
X50667707Y-39774993D01*
X50320388Y-39542922D01*
X49910700Y-39461430D01*
X49501011Y-39542922D01*
X49153693Y-39774993D01*
X48921622Y-40122312D01*
X48860700Y-40428588D01*
X48761809Y-40428588D01*
X48772357Y-40413531D01*
X48623371Y-39901465D01*
X48289767Y-39485393D01*
X47822333Y-39228657D01*
X47773872Y-39223462D01*
X47564700Y-39335873D01*
X47256700Y-39335873D01*
X47047528Y-39223462D01*
X46999067Y-39228657D01*
X46531633Y-39485393D01*
X46198029Y-39901465D01*
X46049043Y-40413531D01*
X42005172Y-40413531D01*
X37927000Y-36335360D01*
X37927000Y-33374230D01*
X38564300Y-33374230D01*
X38564300Y-34189770D01*
X38876394Y-34943232D01*
X39453068Y-35519906D01*
X40206530Y-35832000D01*
X41022070Y-35832000D01*
X41775532Y-35519906D01*
X42352206Y-34943232D01*
X42664300Y-34189770D01*
X42664300Y-33374230D01*
X43060700Y-33374230D01*
X43060700Y-34189770D01*
X43372794Y-34943232D01*
X43949468Y-35519906D01*
X44702930Y-35832000D01*
X45518470Y-35832000D01*
X46271932Y-35519906D01*
X46848606Y-34943232D01*
X47160700Y-34189770D01*
X47160700Y-33374230D01*
X46848606Y-32620768D01*
X46271932Y-32044094D01*
X45518470Y-31732000D01*
X44702930Y-31732000D01*
X43949468Y-32044094D01*
X43372794Y-32620768D01*
X43060700Y-33374230D01*
X42664300Y-33374230D01*
X42352206Y-32620768D01*
X41775532Y-32044094D01*
X41022070Y-31732000D01*
X40206530Y-31732000D01*
X39453068Y-32044094D01*
X38876394Y-32620768D01*
X38564300Y-33374230D01*
X37927000Y-33374230D01*
X37927000Y-22615457D01*
X37935326Y-22573599D01*
X37902341Y-22407773D01*
X37832118Y-22302677D01*
X37808408Y-22267192D01*
X37772922Y-22243481D01*
X36782441Y-21253000D01*
X39948050Y-21253000D01*
X40116482Y-21421432D01*
X40373761Y-21528000D01*
X40652239Y-21528000D01*
X40909518Y-21421432D01*
X41106432Y-21224518D01*
X41213000Y-20967239D01*
X41213000Y-20688761D01*
X41106432Y-20431482D01*
X40909518Y-20234568D01*
X40652239Y-20128000D01*
X40373761Y-20128000D01*
X40116482Y-20234568D01*
X39948050Y-20403000D01*
X36821356Y-20403000D01*
X26688904Y-10270548D01*
X33501185Y-10270548D01*
X33539363Y-10829382D01*
X33679771Y-11168357D01*
X33915031Y-11246180D01*
X34707211Y-10454000D01*
X33915031Y-9661820D01*
X33679771Y-9739643D01*
X33501185Y-10270548D01*
X26688904Y-10270548D01*
X22608255Y-6189900D01*
X22727839Y-6189900D01*
X22985118Y-6083332D01*
X23078550Y-5989900D01*
X33927494Y-5989900D01*
X33971323Y-6033729D01*
X33999220Y-6075480D01*
X34164610Y-6185989D01*
X34310457Y-6215000D01*
X34310458Y-6215000D01*
X34359699Y-6224795D01*
X34408940Y-6215000D01*
X34454123Y-6215000D01*
X34454123Y-6515000D01*
X34477407Y-6632054D01*
X34543712Y-6731288D01*
X34642946Y-6797593D01*
X34760000Y-6820877D01*
X35060001Y-6820877D01*
X35060001Y-6866054D01*
X35050205Y-6915300D01*
X35089012Y-7110390D01*
X35199521Y-7275780D01*
X35241268Y-7303674D01*
X35636801Y-7699208D01*
X35636801Y-9207911D01*
X35108452Y-9030185D01*
X34549618Y-9068363D01*
X34210643Y-9208771D01*
X34132820Y-9444031D01*
X34925000Y-10236211D01*
X34939142Y-10222069D01*
X35156931Y-10439858D01*
X35142789Y-10454000D01*
X35156931Y-10468142D01*
X34939142Y-10685931D01*
X34925000Y-10671789D01*
X34132820Y-11463969D01*
X34210643Y-11699229D01*
X34418262Y-11769068D01*
X34425001Y-11802947D01*
X34425001Y-11848123D01*
X34125000Y-11848123D01*
X34007946Y-11871407D01*
X33908712Y-11937712D01*
X33842407Y-12036946D01*
X33819123Y-12154000D01*
X33819123Y-13754000D01*
X33842407Y-13871054D01*
X33908712Y-13970288D01*
X34007946Y-14036593D01*
X34125000Y-14059877D01*
X35725000Y-14059877D01*
X35842054Y-14036593D01*
X35941288Y-13970288D01*
X36007593Y-13871054D01*
X36030877Y-13754000D01*
X36030877Y-12917581D01*
X44500337Y-12917581D01*
X44537730Y-13496402D01*
X44687296Y-13857490D01*
X44927728Y-13941480D01*
X44815330Y-14053878D01*
X44867839Y-14106387D01*
X44841407Y-14145946D01*
X44818123Y-14263000D01*
X44818123Y-15963000D01*
X44841407Y-16080054D01*
X44907712Y-16179288D01*
X45006946Y-16245593D01*
X45124000Y-16268877D01*
X45474001Y-16268877D01*
X45474001Y-16314054D01*
X45464205Y-16363300D01*
X45495547Y-16520861D01*
X45503012Y-16558390D01*
X45613521Y-16723780D01*
X45655269Y-16751675D01*
X51910701Y-23007108D01*
X51910700Y-39603266D01*
X51653693Y-39774993D01*
X51421622Y-40122312D01*
X51360700Y-40428588D01*
X51360700Y-41135413D01*
X51421622Y-41441689D01*
X51653694Y-41789007D01*
X52001012Y-42021078D01*
X52410700Y-42102570D01*
X52820389Y-42021078D01*
X53167707Y-41789007D01*
X53399778Y-41441688D01*
X53457704Y-41150469D01*
X60145443Y-41150469D01*
X60294429Y-41662535D01*
X60628033Y-42078607D01*
X61095467Y-42335343D01*
X61143928Y-42340538D01*
X61353100Y-42228127D01*
X61353100Y-40936000D01*
X61661100Y-40936000D01*
X61661100Y-42228127D01*
X61870272Y-42340538D01*
X61918733Y-42335343D01*
X62386167Y-42078607D01*
X62719771Y-41662535D01*
X62868757Y-41150469D01*
X62718525Y-40936000D01*
X61661100Y-40936000D01*
X61353100Y-40936000D01*
X60295675Y-40936000D01*
X60145443Y-41150469D01*
X53457704Y-41150469D01*
X53460700Y-41135412D01*
X53460700Y-40428587D01*
X53457706Y-40413531D01*
X60145443Y-40413531D01*
X60295675Y-40628000D01*
X61353100Y-40628000D01*
X61353100Y-39335873D01*
X61661100Y-39335873D01*
X61661100Y-40628000D01*
X62718525Y-40628000D01*
X62858209Y-40428588D01*
X62957100Y-40428588D01*
X62957100Y-41135413D01*
X63018022Y-41441689D01*
X63250094Y-41789007D01*
X63597412Y-42021078D01*
X64007100Y-42102570D01*
X64416789Y-42021078D01*
X64764107Y-41789007D01*
X64996178Y-41441688D01*
X65057100Y-41135412D01*
X65057100Y-40428588D01*
X65457100Y-40428588D01*
X65457100Y-41135413D01*
X65518022Y-41441689D01*
X65750094Y-41789007D01*
X66097412Y-42021078D01*
X66507100Y-42102570D01*
X66916789Y-42021078D01*
X67264107Y-41789007D01*
X67496178Y-41441688D01*
X67554104Y-41150469D01*
X74241943Y-41150469D01*
X74390929Y-41662535D01*
X74724533Y-42078607D01*
X75191967Y-42335343D01*
X75240428Y-42340538D01*
X75449600Y-42228127D01*
X75449600Y-40936000D01*
X75757600Y-40936000D01*
X75757600Y-42228127D01*
X75966772Y-42340538D01*
X76015233Y-42335343D01*
X76482667Y-42078607D01*
X76816271Y-41662535D01*
X76965257Y-41150469D01*
X76815025Y-40936000D01*
X75757600Y-40936000D01*
X75449600Y-40936000D01*
X74392175Y-40936000D01*
X74241943Y-41150469D01*
X67554104Y-41150469D01*
X67557100Y-41135412D01*
X67557100Y-40428587D01*
X67554106Y-40413531D01*
X74241943Y-40413531D01*
X74392175Y-40628000D01*
X75449600Y-40628000D01*
X75449600Y-39335873D01*
X75757600Y-39335873D01*
X75757600Y-40628000D01*
X76815025Y-40628000D01*
X76954709Y-40428588D01*
X77053600Y-40428588D01*
X77053600Y-41135413D01*
X77114522Y-41441689D01*
X77346594Y-41789007D01*
X77693912Y-42021078D01*
X78103600Y-42102570D01*
X78513289Y-42021078D01*
X78860607Y-41789007D01*
X79092678Y-41441688D01*
X79153600Y-41135412D01*
X79153600Y-40428588D01*
X79553600Y-40428588D01*
X79553600Y-41135413D01*
X79614522Y-41441689D01*
X79846594Y-41789007D01*
X80193912Y-42021078D01*
X80603600Y-42102570D01*
X81013289Y-42021078D01*
X81360607Y-41789007D01*
X81592678Y-41441688D01*
X81653600Y-41135412D01*
X81653600Y-40428587D01*
X81592678Y-40122311D01*
X81360607Y-39774993D01*
X81013288Y-39542922D01*
X80603600Y-39461430D01*
X80193911Y-39542922D01*
X79846593Y-39774993D01*
X79614522Y-40122312D01*
X79553600Y-40428588D01*
X79153600Y-40428588D01*
X79153600Y-40428587D01*
X79092678Y-40122311D01*
X78860607Y-39774993D01*
X78513288Y-39542922D01*
X78103600Y-39461430D01*
X77693911Y-39542922D01*
X77346593Y-39774993D01*
X77114522Y-40122312D01*
X77053600Y-40428588D01*
X76954709Y-40428588D01*
X76965257Y-40413531D01*
X76816271Y-39901465D01*
X76482667Y-39485393D01*
X76015233Y-39228657D01*
X75966772Y-39223462D01*
X75757600Y-39335873D01*
X75449600Y-39335873D01*
X75240428Y-39223462D01*
X75191967Y-39228657D01*
X74724533Y-39485393D01*
X74390929Y-39901465D01*
X74241943Y-40413531D01*
X67554106Y-40413531D01*
X67496178Y-40122311D01*
X67264107Y-39774993D01*
X66916788Y-39542922D01*
X66507100Y-39461430D01*
X66097411Y-39542922D01*
X65750093Y-39774993D01*
X65518022Y-40122312D01*
X65457100Y-40428588D01*
X65057100Y-40428588D01*
X65057100Y-40428587D01*
X64996178Y-40122311D01*
X64764107Y-39774993D01*
X64416788Y-39542922D01*
X64007100Y-39461430D01*
X63597411Y-39542922D01*
X63250093Y-39774993D01*
X63018022Y-40122312D01*
X62957100Y-40428588D01*
X62858209Y-40428588D01*
X62868757Y-40413531D01*
X62719771Y-39901465D01*
X62386167Y-39485393D01*
X61918733Y-39228657D01*
X61870272Y-39223462D01*
X61661100Y-39335873D01*
X61353100Y-39335873D01*
X61143928Y-39223462D01*
X61095467Y-39228657D01*
X60628033Y-39485393D01*
X60294429Y-39901465D01*
X60145443Y-40413531D01*
X53457706Y-40413531D01*
X53399778Y-40122311D01*
X53167707Y-39774993D01*
X52910700Y-39603267D01*
X52910700Y-34793324D01*
X52972794Y-34943232D01*
X53549468Y-35519906D01*
X54302930Y-35832000D01*
X55118470Y-35832000D01*
X55871932Y-35519906D01*
X56448606Y-34943232D01*
X56760700Y-34189770D01*
X56760700Y-33374230D01*
X57157100Y-33374230D01*
X57157100Y-34189770D01*
X57469194Y-34943232D01*
X58045868Y-35519906D01*
X58799330Y-35832000D01*
X59614870Y-35832000D01*
X60368332Y-35519906D01*
X60945006Y-34943232D01*
X61257100Y-34189770D01*
X61257100Y-33374230D01*
X66757100Y-33374230D01*
X66757100Y-34189770D01*
X67069194Y-34943232D01*
X67645868Y-35519906D01*
X68399330Y-35832000D01*
X69214870Y-35832000D01*
X69968332Y-35519906D01*
X70545006Y-34943232D01*
X70857100Y-34189770D01*
X70857100Y-33374230D01*
X71253600Y-33374230D01*
X71253600Y-34189770D01*
X71565694Y-34943232D01*
X72142368Y-35519906D01*
X72895830Y-35832000D01*
X73711370Y-35832000D01*
X74464832Y-35519906D01*
X75041506Y-34943232D01*
X75353600Y-34189770D01*
X75353600Y-33374230D01*
X80853600Y-33374230D01*
X80853600Y-34189770D01*
X81165694Y-34943232D01*
X81742368Y-35519906D01*
X82495830Y-35832000D01*
X83311370Y-35832000D01*
X84064832Y-35519906D01*
X84641506Y-34943232D01*
X84953600Y-34189770D01*
X84953600Y-33374230D01*
X84641506Y-32620768D01*
X84064832Y-32044094D01*
X83311370Y-31732000D01*
X82495830Y-31732000D01*
X81742368Y-32044094D01*
X81165694Y-32620768D01*
X80853600Y-33374230D01*
X75353600Y-33374230D01*
X75041506Y-32620768D01*
X74464832Y-32044094D01*
X73711370Y-31732000D01*
X72895830Y-31732000D01*
X72142368Y-32044094D01*
X71565694Y-32620768D01*
X71253600Y-33374230D01*
X70857100Y-33374230D01*
X70545006Y-32620768D01*
X69968332Y-32044094D01*
X69214870Y-31732000D01*
X68399330Y-31732000D01*
X67645868Y-32044094D01*
X67069194Y-32620768D01*
X66757100Y-33374230D01*
X61257100Y-33374230D01*
X60945006Y-32620768D01*
X60368332Y-32044094D01*
X59614870Y-31732000D01*
X58799330Y-31732000D01*
X58045868Y-32044094D01*
X57469194Y-32620768D01*
X57157100Y-33374230D01*
X56760700Y-33374230D01*
X56448606Y-32620768D01*
X55871932Y-32044094D01*
X55118470Y-31732000D01*
X54302930Y-31732000D01*
X53549468Y-32044094D01*
X52972794Y-32620768D01*
X52910700Y-32770676D01*
X52910700Y-22849240D01*
X52920495Y-22799999D01*
X52904462Y-22719399D01*
X52881689Y-22604910D01*
X52771180Y-22439520D01*
X52729432Y-22411625D01*
X46586683Y-16268877D01*
X46824000Y-16268877D01*
X46941054Y-16245593D01*
X47040288Y-16179288D01*
X47106593Y-16080054D01*
X47129877Y-15963000D01*
X47129877Y-14263000D01*
X47106593Y-14145946D01*
X47080161Y-14106387D01*
X47132670Y-14053878D01*
X47020272Y-13941480D01*
X47260704Y-13857490D01*
X47385642Y-13490566D01*
X47499077Y-13764423D01*
X47822577Y-14087923D01*
X47883118Y-14113000D01*
X47822577Y-14138077D01*
X47499077Y-14461577D01*
X47324000Y-14884251D01*
X47324000Y-15341749D01*
X47499077Y-15764423D01*
X47822577Y-16087923D01*
X48245251Y-16263000D01*
X48702749Y-16263000D01*
X49125423Y-16087923D01*
X49448923Y-15764423D01*
X49624000Y-15341749D01*
X49624000Y-14884251D01*
X49554246Y-14715849D01*
X62161140Y-14715849D01*
X62161140Y-15332351D01*
X62397065Y-15901923D01*
X62832997Y-16337855D01*
X63402569Y-16573780D01*
X64019071Y-16573780D01*
X64588643Y-16337855D01*
X65024575Y-15901923D01*
X65212141Y-15449100D01*
X70118043Y-15449100D01*
X70159900Y-15457426D01*
X70201757Y-15449100D01*
X70201758Y-15449100D01*
X70325727Y-15424441D01*
X70466308Y-15330508D01*
X70490021Y-15295019D01*
X71069191Y-14715849D01*
X72153500Y-14715849D01*
X72153500Y-15332351D01*
X72389425Y-15901923D01*
X72825357Y-16337855D01*
X73394929Y-16573780D01*
X74011431Y-16573780D01*
X74581003Y-16337855D01*
X75016935Y-15901923D01*
X75252860Y-15332351D01*
X75252860Y-14715849D01*
X75016935Y-14146277D01*
X74581003Y-13710345D01*
X74011431Y-13474420D01*
X73394929Y-13474420D01*
X72825357Y-13710345D01*
X72389425Y-14146277D01*
X72153500Y-14715849D01*
X71069191Y-14715849D01*
X72928385Y-12856656D01*
X73036873Y-12929145D01*
X73307000Y-12982877D01*
X74107000Y-12982877D01*
X74377127Y-12929145D01*
X74606130Y-12776130D01*
X74655400Y-12702392D01*
X74655400Y-12830451D01*
X74891325Y-13400023D01*
X75327257Y-13835955D01*
X75896829Y-14071880D01*
X76513331Y-14071880D01*
X77082903Y-13835955D01*
X77518835Y-13400023D01*
X77754760Y-12830451D01*
X77754760Y-12213949D01*
X77518835Y-11644377D01*
X77082903Y-11208445D01*
X76513331Y-10972520D01*
X75896829Y-10972520D01*
X75327257Y-11208445D01*
X74891325Y-11644377D01*
X74812877Y-11833767D01*
X74812877Y-10677000D01*
X74759145Y-10406873D01*
X74606130Y-10177870D01*
X74377127Y-10024855D01*
X74107000Y-9971123D01*
X73307000Y-9971123D01*
X73036873Y-10024855D01*
X72807870Y-10177870D01*
X72654855Y-10406873D01*
X72601123Y-10677000D01*
X72601123Y-11981836D01*
X72312877Y-12270082D01*
X72312877Y-10677000D01*
X72259145Y-10406873D01*
X72106130Y-10177870D01*
X71877127Y-10024855D01*
X71607000Y-9971123D01*
X70807000Y-9971123D01*
X70536873Y-10024855D01*
X70307870Y-10177870D01*
X70154855Y-10406873D01*
X70101123Y-10677000D01*
X70101123Y-11434111D01*
X70042904Y-11406625D01*
X68924789Y-12524740D01*
X70042904Y-13642855D01*
X70324783Y-13509774D01*
X70537091Y-12929188D01*
X70807000Y-12982877D01*
X71600083Y-12982877D01*
X69983860Y-14599100D01*
X65212141Y-14599100D01*
X65024575Y-14146277D01*
X64738942Y-13860644D01*
X67588885Y-13860644D01*
X67721966Y-14142523D01*
X68416045Y-14396333D01*
X69154420Y-14365210D01*
X69692034Y-14142523D01*
X69825115Y-13860644D01*
X68707000Y-12742529D01*
X67588885Y-13860644D01*
X64738942Y-13860644D01*
X64588643Y-13710345D01*
X64019071Y-13474420D01*
X63402569Y-13474420D01*
X62832997Y-13710345D01*
X62397065Y-14146277D01*
X62161140Y-14715849D01*
X49554246Y-14715849D01*
X49448923Y-14461577D01*
X49125423Y-14138077D01*
X49064882Y-14113000D01*
X49125423Y-14087923D01*
X49448923Y-13764423D01*
X49624000Y-13341749D01*
X49624000Y-12884251D01*
X49448923Y-12461577D01*
X49125423Y-12138077D01*
X49035211Y-12100710D01*
X51764079Y-12100710D01*
X51958340Y-12434560D01*
X52833649Y-12771918D01*
X53771430Y-12748629D01*
X54529660Y-12434560D01*
X54658029Y-12213949D01*
X59659240Y-12213949D01*
X59659240Y-12830451D01*
X59895165Y-13400023D01*
X60331097Y-13835955D01*
X60900669Y-14071880D01*
X61517171Y-14071880D01*
X62086743Y-13835955D01*
X62522675Y-13400023D01*
X62758600Y-12830451D01*
X62758600Y-12702392D01*
X62807870Y-12776130D01*
X63036873Y-12929145D01*
X63307000Y-12982877D01*
X64107000Y-12982877D01*
X64377127Y-12929145D01*
X64606130Y-12776130D01*
X64759145Y-12547127D01*
X64812877Y-12277000D01*
X64812877Y-10677000D01*
X65101123Y-10677000D01*
X65101123Y-12277000D01*
X65154855Y-12547127D01*
X65307870Y-12776130D01*
X65536873Y-12929145D01*
X65807000Y-12982877D01*
X66607000Y-12982877D01*
X66864820Y-12931593D01*
X66866530Y-12972160D01*
X67089217Y-13509774D01*
X67371096Y-13642855D01*
X68489211Y-12524740D01*
X67371096Y-11406625D01*
X67312877Y-11434111D01*
X67312877Y-11188836D01*
X67588885Y-11188836D01*
X68707000Y-12306951D01*
X69825115Y-11188836D01*
X69692034Y-10906957D01*
X68997955Y-10653147D01*
X68259580Y-10684270D01*
X67721966Y-10906957D01*
X67588885Y-11188836D01*
X67312877Y-11188836D01*
X67312877Y-10677000D01*
X67259145Y-10406873D01*
X67106130Y-10177870D01*
X66877127Y-10024855D01*
X66607000Y-9971123D01*
X65807000Y-9971123D01*
X65536873Y-10024855D01*
X65307870Y-10177870D01*
X65154855Y-10406873D01*
X65101123Y-10677000D01*
X64812877Y-10677000D01*
X64759145Y-10406873D01*
X64606130Y-10177870D01*
X64377127Y-10024855D01*
X64107000Y-9971123D01*
X63307000Y-9971123D01*
X63036873Y-10024855D01*
X62807870Y-10177870D01*
X62654855Y-10406873D01*
X62601123Y-10677000D01*
X62601123Y-11833767D01*
X62522675Y-11644377D01*
X62086743Y-11208445D01*
X61517171Y-10972520D01*
X60900669Y-10972520D01*
X60331097Y-11208445D01*
X59895165Y-11644377D01*
X59659240Y-12213949D01*
X54658029Y-12213949D01*
X54723921Y-12100710D01*
X53244000Y-10620789D01*
X51764079Y-12100710D01*
X49035211Y-12100710D01*
X48702749Y-11963000D01*
X48245251Y-11963000D01*
X47822577Y-12138077D01*
X47499077Y-12461577D01*
X47399165Y-12702787D01*
X47260704Y-12368510D01*
X47020270Y-12284519D01*
X46191789Y-13113000D01*
X46205931Y-13127142D01*
X45988142Y-13344931D01*
X45974000Y-13330789D01*
X45959858Y-13344931D01*
X45742069Y-13127142D01*
X45756211Y-13113000D01*
X44927730Y-12284519D01*
X44687296Y-12368510D01*
X44500337Y-12917581D01*
X36030877Y-12917581D01*
X36030877Y-12154000D01*
X36020277Y-12100710D01*
X39724079Y-12100710D01*
X39918340Y-12434560D01*
X40793649Y-12771918D01*
X41731430Y-12748629D01*
X42489660Y-12434560D01*
X42683921Y-12100710D01*
X42649941Y-12066730D01*
X45145519Y-12066730D01*
X45974000Y-12895211D01*
X46802481Y-12066730D01*
X46718490Y-11826296D01*
X46169419Y-11639337D01*
X45590598Y-11676730D01*
X45229510Y-11826296D01*
X45145519Y-12066730D01*
X42649941Y-12066730D01*
X41204000Y-10620789D01*
X39724079Y-12100710D01*
X36020277Y-12100710D01*
X36007593Y-12036946D01*
X35941288Y-11937712D01*
X35915455Y-11920451D01*
X36455533Y-11380374D01*
X36497280Y-11352480D01*
X36607789Y-11187090D01*
X36636800Y-11041243D01*
X36636800Y-11041242D01*
X36646595Y-10992001D01*
X36636800Y-10942760D01*
X36636800Y-9992649D01*
X38835082Y-9992649D01*
X38858371Y-10930430D01*
X39172440Y-11688660D01*
X39506290Y-11882921D01*
X40986211Y-10403000D01*
X41421789Y-10403000D01*
X42901710Y-11882921D01*
X43235560Y-11688660D01*
X43572918Y-10813351D01*
X43552537Y-9992649D01*
X50875082Y-9992649D01*
X50898371Y-10930430D01*
X51212440Y-11688660D01*
X51546290Y-11882921D01*
X53026211Y-10403000D01*
X53461789Y-10403000D01*
X54941710Y-11882921D01*
X55275560Y-11688660D01*
X55612918Y-10813351D01*
X55589629Y-9875570D01*
X55275560Y-9117340D01*
X54941710Y-8923079D01*
X53461789Y-10403000D01*
X53026211Y-10403000D01*
X51546290Y-8923079D01*
X51212440Y-9117340D01*
X50875082Y-9992649D01*
X43552537Y-9992649D01*
X43549629Y-9875570D01*
X43235560Y-9117340D01*
X42901710Y-8923079D01*
X41421789Y-10403000D01*
X40986211Y-10403000D01*
X39506290Y-8923079D01*
X39172440Y-9117340D01*
X38835082Y-9992649D01*
X36636800Y-9992649D01*
X36636800Y-8705290D01*
X39724079Y-8705290D01*
X41204000Y-10185211D01*
X42683921Y-8705290D01*
X51764079Y-8705290D01*
X53244000Y-10185211D01*
X54723921Y-8705290D01*
X54529660Y-8371440D01*
X53654351Y-8034082D01*
X52716570Y-8057371D01*
X51958340Y-8371440D01*
X51764079Y-8705290D01*
X42683921Y-8705290D01*
X42489660Y-8371440D01*
X41614351Y-8034082D01*
X40676570Y-8057371D01*
X39918340Y-8371440D01*
X39724079Y-8705290D01*
X36636800Y-8705290D01*
X36636800Y-7541340D01*
X36646595Y-7492099D01*
X36625908Y-7388100D01*
X36607789Y-7297010D01*
X36497280Y-7131620D01*
X36455532Y-7103725D01*
X36172683Y-6820877D01*
X36360000Y-6820877D01*
X36477054Y-6797593D01*
X36498894Y-6783000D01*
X66899000Y-6783000D01*
X66899000Y-7397938D01*
X66991562Y-7621404D01*
X67162595Y-7792437D01*
X67386061Y-7885000D01*
X68401000Y-7885000D01*
X68553000Y-7733000D01*
X68553000Y-6631000D01*
X68861000Y-6631000D01*
X68861000Y-7733000D01*
X69013000Y-7885000D01*
X70027939Y-7885000D01*
X70251405Y-7792437D01*
X70422438Y-7621404D01*
X70515000Y-7397938D01*
X70515000Y-6783000D01*
X70363000Y-6631000D01*
X68861000Y-6631000D01*
X68553000Y-6631000D01*
X67051000Y-6631000D01*
X66899000Y-6783000D01*
X36498894Y-6783000D01*
X36576288Y-6731288D01*
X36642593Y-6632054D01*
X36665877Y-6515000D01*
X36665877Y-5556062D01*
X66899000Y-5556062D01*
X66899000Y-6171000D01*
X67051000Y-6323000D01*
X68553000Y-6323000D01*
X68553000Y-5221000D01*
X68861000Y-5221000D01*
X68861000Y-6323000D01*
X70363000Y-6323000D01*
X70385419Y-6300581D01*
X79642208Y-6300581D01*
X80013248Y-6785139D01*
X81413083Y-7364306D01*
X82927999Y-7363693D01*
X84324752Y-6785139D01*
X84695792Y-6300581D01*
X82169000Y-3773789D01*
X79642208Y-6300581D01*
X70385419Y-6300581D01*
X70515000Y-6171000D01*
X70515000Y-5556062D01*
X70422438Y-5332596D01*
X70251405Y-5161563D01*
X70027939Y-5069000D01*
X69013000Y-5069000D01*
X68861000Y-5221000D01*
X68553000Y-5221000D01*
X68401000Y-5069000D01*
X67386061Y-5069000D01*
X67162595Y-5161563D01*
X66991562Y-5332596D01*
X66899000Y-5556062D01*
X36665877Y-5556062D01*
X36665877Y-4915000D01*
X36642593Y-4797946D01*
X36576288Y-4698712D01*
X36477054Y-4632407D01*
X36360000Y-4609123D01*
X35811167Y-4609123D01*
X35935382Y-4600637D01*
X36274357Y-4460229D01*
X36352180Y-4224969D01*
X35560000Y-3432789D01*
X34767820Y-4224969D01*
X34845643Y-4460229D01*
X35288279Y-4609123D01*
X34760000Y-4609123D01*
X34642946Y-4632407D01*
X34543712Y-4698712D01*
X34477407Y-4797946D01*
X34454123Y-4915000D01*
X34454123Y-5102054D01*
X34329690Y-5018911D01*
X34183843Y-4989900D01*
X34183841Y-4989900D01*
X34134600Y-4980105D01*
X34085359Y-4989900D01*
X23078550Y-4989900D01*
X22985118Y-4896468D01*
X22727839Y-4789900D01*
X22449361Y-4789900D01*
X22192082Y-4896468D01*
X22135650Y-4952900D01*
X12864646Y-4952900D01*
X12815400Y-4943104D01*
X12629389Y-4980105D01*
X12620310Y-4981911D01*
X12454920Y-5092420D01*
X12427023Y-5134171D01*
X7015676Y-10545518D01*
X6798103Y-10219897D01*
X6417707Y-9965724D01*
X6082261Y-9899000D01*
X5855739Y-9899000D01*
X5520293Y-9965724D01*
X5139897Y-10219897D01*
X4885724Y-10600293D01*
X4796471Y-11049000D01*
X4885724Y-11497707D01*
X5139897Y-11878103D01*
X5520293Y-12132276D01*
X5855739Y-12199000D01*
X6082261Y-12199000D01*
X6417707Y-12132276D01*
X6798103Y-11878103D01*
X7018003Y-11549000D01*
X7170059Y-11549000D01*
X7219300Y-11558795D01*
X7268541Y-11549000D01*
X7268543Y-11549000D01*
X7414390Y-11519989D01*
X7482439Y-11474520D01*
X6437806Y-12519154D01*
X6417707Y-12505724D01*
X6082261Y-12439000D01*
X5855739Y-12439000D01*
X5520293Y-12505724D01*
X5139897Y-12759897D01*
X4885724Y-13140293D01*
X4796471Y-13589000D01*
X4885724Y-14037707D01*
X5139897Y-14418103D01*
X5520293Y-14672276D01*
X5814998Y-14730896D01*
X5814998Y-14831143D01*
X5590089Y-14721085D01*
X5080146Y-14973259D01*
X4705523Y-15401384D01*
X4581780Y-15700154D01*
X4562442Y-15704000D01*
X4516992Y-15704000D01*
X4512276Y-15680293D01*
X4258103Y-15299897D01*
X3877707Y-15045724D01*
X3766837Y-15023671D01*
X3829341Y-14930127D01*
X3854000Y-14806158D01*
X3862326Y-14764300D01*
X3854000Y-14722442D01*
X3854000Y-14676992D01*
X3877707Y-14672276D01*
X4258103Y-14418103D01*
X4512276Y-14037707D01*
X4601529Y-13589000D01*
X4512276Y-13140293D01*
X4258103Y-12759897D01*
X3877707Y-12505724D01*
X3542261Y-12439000D01*
X3315739Y-12439000D01*
X2980293Y-12505724D01*
X2599897Y-12759897D01*
X2345724Y-13140293D01*
X2256471Y-13589000D01*
X2345724Y-14037707D01*
X2599897Y-14418103D01*
X2723960Y-14500999D01*
X1974981Y-15249979D01*
X1939492Y-15273692D01*
X1885687Y-15354218D01*
X1845559Y-15414274D01*
X1812574Y-15580100D01*
X1820900Y-15621957D01*
X1820901Y-24067038D01*
X1812574Y-24108900D01*
X1845559Y-24274726D01*
X1886283Y-24335674D01*
X1939493Y-24415308D01*
X1974979Y-24439019D01*
X5946400Y-28410441D01*
X5946401Y-39582697D01*
X5533033Y-39355657D01*
X5484572Y-39350462D01*
X5275400Y-39462873D01*
X5275400Y-40755000D01*
X5295400Y-40755000D01*
X5295400Y-41063000D01*
X5275400Y-41063000D01*
X5275400Y-42355127D01*
X5484572Y-42467538D01*
X5533033Y-42462343D01*
X5946401Y-42235303D01*
X5946401Y-47374938D01*
X5938074Y-47416800D01*
X5956515Y-47509508D01*
X5711752Y-47189861D01*
X4311917Y-46610694D01*
X2797001Y-46611307D01*
X1400248Y-47189861D01*
X1029208Y-47674419D01*
X375000Y-47674419D01*
X375000Y-41277469D01*
X3759743Y-41277469D01*
X3908729Y-41789535D01*
X4242333Y-42205607D01*
X4709767Y-42462343D01*
X4758228Y-42467538D01*
X4967400Y-42355127D01*
X4967400Y-41063000D01*
X3909975Y-41063000D01*
X3759743Y-41277469D01*
X375000Y-41277469D01*
X375000Y-40540531D01*
X3759743Y-40540531D01*
X3909975Y-40755000D01*
X4967400Y-40755000D01*
X4967400Y-39462873D01*
X4758228Y-39350462D01*
X4709767Y-39355657D01*
X4242333Y-39612393D01*
X3908729Y-40028465D01*
X3759743Y-40540531D01*
X375000Y-40540531D01*
X375000Y-33501230D01*
X771400Y-33501230D01*
X771400Y-34316770D01*
X1083494Y-35070232D01*
X1660168Y-35646906D01*
X2413630Y-35959000D01*
X3229170Y-35959000D01*
X3982632Y-35646906D01*
X4559306Y-35070232D01*
X4871400Y-34316770D01*
X4871400Y-33501230D01*
X4559306Y-32747768D01*
X3982632Y-32171094D01*
X3229170Y-31859000D01*
X2413630Y-31859000D01*
X1660168Y-32171094D01*
X1083494Y-32747768D01*
X771400Y-33501230D01*
X375000Y-33501230D01*
X375000Y-10199000D01*
X2273123Y-10199000D01*
X2273123Y-11899000D01*
X2296407Y-12016054D01*
X2362712Y-12115288D01*
X2461946Y-12181593D01*
X2579000Y-12204877D01*
X4279000Y-12204877D01*
X4396054Y-12181593D01*
X4495288Y-12115288D01*
X4561593Y-12016054D01*
X4584877Y-11899000D01*
X4584877Y-10199000D01*
X4561593Y-10081946D01*
X4495288Y-9982712D01*
X4396054Y-9916407D01*
X4279000Y-9893123D01*
X2579000Y-9893123D01*
X2461946Y-9916407D01*
X2362712Y-9982712D01*
X2296407Y-10081946D01*
X2273123Y-10199000D01*
X375000Y-10199000D01*
X375000Y-6300581D01*
X1029208Y-6300581D01*
X1400248Y-6785139D01*
X2800083Y-7364306D01*
X4314999Y-7363693D01*
X5711752Y-6785139D01*
X6082792Y-6300581D01*
X3556000Y-3773789D01*
X1029208Y-6300581D01*
X375000Y-6300581D01*
X375000Y-5748613D01*
X811419Y-6082792D01*
X3338211Y-3556000D01*
X3773789Y-3556000D01*
X6300581Y-6082792D01*
X6785139Y-5711752D01*
X7364306Y-4311917D01*
X7363788Y-3031548D01*
X34136185Y-3031548D01*
X34174363Y-3590382D01*
X34314771Y-3929357D01*
X34550031Y-4007180D01*
X35342211Y-3215000D01*
X35777789Y-3215000D01*
X36569969Y-4007180D01*
X36805229Y-3929357D01*
X36983815Y-3398452D01*
X36945637Y-2839618D01*
X36805229Y-2500643D01*
X36569969Y-2422820D01*
X35777789Y-3215000D01*
X35342211Y-3215000D01*
X34550031Y-2422820D01*
X34314771Y-2500643D01*
X34136185Y-3031548D01*
X7363788Y-3031548D01*
X7363693Y-2797001D01*
X7118492Y-2205031D01*
X34767820Y-2205031D01*
X35560000Y-2997211D01*
X36338162Y-2219049D01*
X62156060Y-2219049D01*
X62156060Y-2835551D01*
X62391985Y-3405123D01*
X62827917Y-3841055D01*
X63397489Y-4076980D01*
X64013991Y-4076980D01*
X64583563Y-3841055D01*
X65019495Y-3405123D01*
X65255420Y-2835551D01*
X65255420Y-2219049D01*
X72158580Y-2219049D01*
X72158580Y-2835551D01*
X72394505Y-3405123D01*
X72830437Y-3841055D01*
X73400009Y-4076980D01*
X74016511Y-4076980D01*
X74586083Y-3841055D01*
X75022015Y-3405123D01*
X75257940Y-2835551D01*
X75257940Y-2800083D01*
X78360694Y-2800083D01*
X78361307Y-4314999D01*
X78939861Y-5711752D01*
X79424419Y-6082792D01*
X81951211Y-3556000D01*
X79424419Y-1029208D01*
X78939861Y-1400248D01*
X78360694Y-2800083D01*
X75257940Y-2800083D01*
X75257940Y-2219049D01*
X75022015Y-1649477D01*
X74586083Y-1213545D01*
X74016511Y-977620D01*
X73400009Y-977620D01*
X72830437Y-1213545D01*
X72394505Y-1649477D01*
X72158580Y-2219049D01*
X65255420Y-2219049D01*
X65019495Y-1649477D01*
X64583563Y-1213545D01*
X64013991Y-977620D01*
X63397489Y-977620D01*
X62827917Y-1213545D01*
X62391985Y-1649477D01*
X62156060Y-2219049D01*
X36338162Y-2219049D01*
X36352180Y-2205031D01*
X36274357Y-1969771D01*
X35743452Y-1791185D01*
X35184618Y-1829363D01*
X34845643Y-1969771D01*
X34767820Y-2205031D01*
X7118492Y-2205031D01*
X6785139Y-1400248D01*
X6300581Y-1029208D01*
X3773789Y-3556000D01*
X3338211Y-3556000D01*
X3324069Y-3541858D01*
X3541858Y-3324069D01*
X3556000Y-3338211D01*
X6082792Y-811419D01*
X5748613Y-375000D01*
X79976387Y-375000D01*
X79642208Y-811419D01*
X79642208Y-811419D01*
G37*
X79642208Y-811419D02*
X82169000Y-3338211D01*
X82183142Y-3324069D01*
X82400931Y-3541858D01*
X82386789Y-3556000D01*
X84913581Y-6082792D01*
X85350000Y-5748613D01*
X85350001Y-48226387D01*
X84913581Y-47892208D01*
X82386789Y-50419000D01*
X82400931Y-50433142D01*
X82183142Y-50650931D01*
X82169000Y-50636789D01*
X79642208Y-53163581D01*
X79976387Y-53600000D01*
X5748613Y-53600000D01*
X6082792Y-53163581D01*
X3556000Y-50636789D01*
X3541858Y-50650931D01*
X3324069Y-50433142D01*
X3338211Y-50419000D01*
X811419Y-47892208D01*
X375000Y-48226387D01*
X375000Y-47674419D01*
X1029208Y-47674419D01*
X3556000Y-50201211D01*
X3570142Y-50187069D01*
X3787931Y-50404858D01*
X3773789Y-50419000D01*
X6300581Y-52945792D01*
X6785139Y-52574752D01*
X7364306Y-51174917D01*
X7363693Y-49660001D01*
X6904167Y-48550607D01*
X9494281Y-51140722D01*
X9517992Y-51176208D01*
X9658573Y-51270141D01*
X9782542Y-51294800D01*
X9782543Y-51294800D01*
X9824399Y-51303126D01*
X9866255Y-51294800D01*
X64024443Y-51294800D01*
X64066300Y-51303126D01*
X64108157Y-51294800D01*
X64108158Y-51294800D01*
X64232127Y-51270141D01*
X64372708Y-51176208D01*
X64396421Y-51140719D01*
X65305074Y-50232066D01*
X68404723Y-50232066D01*
X68507174Y-50488040D01*
X69110703Y-50700105D01*
X69749445Y-50665067D01*
X70176826Y-50488040D01*
X70279277Y-50232066D01*
X74904723Y-50232066D01*
X75007174Y-50488040D01*
X75610703Y-50700105D01*
X76249445Y-50665067D01*
X76676826Y-50488040D01*
X76779277Y-50232066D01*
X75842000Y-49294789D01*
X74904723Y-50232066D01*
X70279277Y-50232066D01*
X69342000Y-49294789D01*
X68404723Y-50232066D01*
X65305074Y-50232066D01*
X66691437Y-48845703D01*
X67718895Y-48845703D01*
X67753933Y-49484445D01*
X67930960Y-49911826D01*
X68186934Y-50014277D01*
X69124211Y-49077000D01*
X69559789Y-49077000D01*
X70497066Y-50014277D01*
X70753040Y-49911826D01*
X70965105Y-49308297D01*
X70939730Y-48845703D01*
X74218895Y-48845703D01*
X74253933Y-49484445D01*
X74430960Y-49911826D01*
X74686934Y-50014277D01*
X75624211Y-49077000D01*
X76059789Y-49077000D01*
X76997066Y-50014277D01*
X77253040Y-49911826D01*
X77340442Y-49663083D01*
X78360694Y-49663083D01*
X78361307Y-51177999D01*
X78939861Y-52574752D01*
X79424419Y-52945792D01*
X81951211Y-50419000D01*
X79424419Y-47892208D01*
X78939861Y-48263248D01*
X78360694Y-49663083D01*
X77340442Y-49663083D01*
X77465105Y-49308297D01*
X77430067Y-48669555D01*
X77253040Y-48242174D01*
X76997066Y-48139723D01*
X76059789Y-49077000D01*
X75624211Y-49077000D01*
X74686934Y-48139723D01*
X74430960Y-48242174D01*
X74218895Y-48845703D01*
X70939730Y-48845703D01*
X70930067Y-48669555D01*
X70753040Y-48242174D01*
X70497066Y-48139723D01*
X69559789Y-49077000D01*
X69124211Y-49077000D01*
X68186934Y-48139723D01*
X67930960Y-48242174D01*
X67718895Y-48845703D01*
X66691437Y-48845703D01*
X67615206Y-47921934D01*
X68404723Y-47921934D01*
X69342000Y-48859211D01*
X70279277Y-47921934D01*
X74904723Y-47921934D01*
X75842000Y-48859211D01*
X76779277Y-47921934D01*
X76680212Y-47674419D01*
X79642208Y-47674419D01*
X82169000Y-50201211D01*
X84695792Y-47674419D01*
X84324752Y-47189861D01*
X82924917Y-46610694D01*
X81410001Y-46611307D01*
X80013248Y-47189861D01*
X79642208Y-47674419D01*
X76680212Y-47674419D01*
X76676826Y-47665960D01*
X76073297Y-47453895D01*
X75434555Y-47488933D01*
X75007174Y-47665960D01*
X74904723Y-47921934D01*
X70279277Y-47921934D01*
X70176826Y-47665960D01*
X69573297Y-47453895D01*
X68934555Y-47488933D01*
X68507174Y-47665960D01*
X68404723Y-47921934D01*
X67615206Y-47921934D01*
X69612923Y-45924218D01*
X69648408Y-45900508D01*
X69688427Y-45840615D01*
X70078391Y-45679087D01*
X70444087Y-45313391D01*
X70642000Y-44835586D01*
X70642000Y-44318414D01*
X74542000Y-44318414D01*
X74542000Y-44835586D01*
X74739913Y-45313391D01*
X75105609Y-45679087D01*
X75583414Y-45877000D01*
X76100586Y-45877000D01*
X76578391Y-45679087D01*
X76944087Y-45313391D01*
X77142000Y-44835586D01*
X77142000Y-44318414D01*
X76944087Y-43840609D01*
X76578391Y-43474913D01*
X76100586Y-43277000D01*
X75583414Y-43277000D01*
X75105609Y-43474913D01*
X74739913Y-43840609D01*
X74542000Y-44318414D01*
X70642000Y-44318414D01*
X70444087Y-43840609D01*
X70078391Y-43474913D01*
X69600586Y-43277000D01*
X69083414Y-43277000D01*
X68605609Y-43474913D01*
X68239913Y-43840609D01*
X68042000Y-44318414D01*
X68042000Y-44835586D01*
X68239913Y-45313391D01*
X68605609Y-45679087D01*
X68641221Y-45693838D01*
X65549244Y-48785815D01*
X65542867Y-48669555D01*
X65365840Y-48242174D01*
X65109866Y-48139723D01*
X64172589Y-49077000D01*
X64186731Y-49091142D01*
X63968942Y-49308931D01*
X63954800Y-49294789D01*
X63017523Y-50232066D01*
X63102668Y-50444800D01*
X58306932Y-50444800D01*
X58392077Y-50232066D01*
X57454800Y-49294789D01*
X56517523Y-50232066D01*
X56602668Y-50444800D01*
X52919732Y-50444800D01*
X53004877Y-50232066D01*
X52067600Y-49294789D01*
X51130323Y-50232066D01*
X51215468Y-50444800D01*
X49100640Y-50444800D01*
X50457768Y-49087672D01*
X50479533Y-49484445D01*
X50656560Y-49911826D01*
X50912534Y-50014277D01*
X51849811Y-49077000D01*
X52285389Y-49077000D01*
X53222666Y-50014277D01*
X53478640Y-49911826D01*
X53690705Y-49308297D01*
X53665330Y-48845703D01*
X55831695Y-48845703D01*
X55866733Y-49484445D01*
X56043760Y-49911826D01*
X56299734Y-50014277D01*
X57237011Y-49077000D01*
X57672589Y-49077000D01*
X58609866Y-50014277D01*
X58865840Y-49911826D01*
X59077905Y-49308297D01*
X59052530Y-48845703D01*
X62331695Y-48845703D01*
X62366733Y-49484445D01*
X62543760Y-49911826D01*
X62799734Y-50014277D01*
X63737011Y-49077000D01*
X62799734Y-48139723D01*
X62543760Y-48242174D01*
X62331695Y-48845703D01*
X59052530Y-48845703D01*
X59042867Y-48669555D01*
X58865840Y-48242174D01*
X58609866Y-48139723D01*
X57672589Y-49077000D01*
X57237011Y-49077000D01*
X56299734Y-48139723D01*
X56043760Y-48242174D01*
X55831695Y-48845703D01*
X53665330Y-48845703D01*
X53655667Y-48669555D01*
X53478640Y-48242174D01*
X53222666Y-48139723D01*
X52285389Y-49077000D01*
X51849811Y-49077000D01*
X51835669Y-49062858D01*
X52053458Y-48845069D01*
X52067600Y-48859211D01*
X53004877Y-47921934D01*
X56517523Y-47921934D01*
X57454800Y-48859211D01*
X58392077Y-47921934D01*
X63017523Y-47921934D01*
X63954800Y-48859211D01*
X64892077Y-47921934D01*
X64789626Y-47665960D01*
X64186097Y-47453895D01*
X63547355Y-47488933D01*
X63119974Y-47665960D01*
X63017523Y-47921934D01*
X58392077Y-47921934D01*
X58289626Y-47665960D01*
X57686097Y-47453895D01*
X57047355Y-47488933D01*
X56619974Y-47665960D01*
X56517523Y-47921934D01*
X53004877Y-47921934D01*
X52902426Y-47665960D01*
X52298897Y-47453895D01*
X52079511Y-47465929D01*
X54543441Y-45002000D01*
X56223731Y-45002000D01*
X56352713Y-45313391D01*
X56718409Y-45679087D01*
X57196214Y-45877000D01*
X57713386Y-45877000D01*
X58191191Y-45679087D01*
X58556887Y-45313391D01*
X58754800Y-44835586D01*
X58754800Y-44318414D01*
X62654800Y-44318414D01*
X62654800Y-44835586D01*
X62852713Y-45313391D01*
X63218409Y-45679087D01*
X63696214Y-45877000D01*
X64213386Y-45877000D01*
X64691191Y-45679087D01*
X65056887Y-45313391D01*
X65254800Y-44835586D01*
X65254800Y-44318414D01*
X65056887Y-43840609D01*
X64691191Y-43474913D01*
X64213386Y-43277000D01*
X63696214Y-43277000D01*
X63218409Y-43474913D01*
X62852713Y-43840609D01*
X62654800Y-44318414D01*
X58754800Y-44318414D01*
X58556887Y-43840609D01*
X58191191Y-43474913D01*
X57713386Y-43277000D01*
X57196214Y-43277000D01*
X56718409Y-43474913D01*
X56352713Y-43840609D01*
X56223731Y-44152000D01*
X54409257Y-44152000D01*
X54367399Y-44143674D01*
X54325542Y-44152000D01*
X54201573Y-44176659D01*
X54060992Y-44270592D01*
X54037282Y-44306077D01*
X53268483Y-45074876D01*
X53367600Y-44835586D01*
X53367600Y-44318414D01*
X53169687Y-43840609D01*
X52803991Y-43474913D01*
X52326186Y-43277000D01*
X51809014Y-43277000D01*
X51331209Y-43474913D01*
X50965513Y-43840609D01*
X50767600Y-44318414D01*
X50767600Y-44835586D01*
X50965513Y-45313391D01*
X51331209Y-45679087D01*
X51809014Y-45877000D01*
X52326186Y-45877000D01*
X52565476Y-45777883D01*
X48352060Y-49991300D01*
X46780074Y-49991300D01*
X46978640Y-49911826D01*
X47190705Y-49308297D01*
X47155667Y-48669555D01*
X46978640Y-48242174D01*
X46722666Y-48139723D01*
X45785389Y-49077000D01*
X45799531Y-49091142D01*
X45581742Y-49308931D01*
X45567600Y-49294789D01*
X45553458Y-49308931D01*
X45335669Y-49091142D01*
X45349811Y-49077000D01*
X44412534Y-48139723D01*
X44156560Y-48242174D01*
X43944495Y-48845703D01*
X43979533Y-49484445D01*
X44156560Y-49911826D01*
X44355126Y-49991300D01*
X41392874Y-49991300D01*
X41591440Y-49911826D01*
X41803505Y-49308297D01*
X41768467Y-48669555D01*
X41591440Y-48242174D01*
X41335466Y-48139723D01*
X40398189Y-49077000D01*
X40412331Y-49091142D01*
X40194542Y-49308931D01*
X40180400Y-49294789D01*
X40166258Y-49308931D01*
X39948469Y-49091142D01*
X39962611Y-49077000D01*
X39025334Y-48139723D01*
X38769360Y-48242174D01*
X38578915Y-48784174D01*
X38211800Y-48417060D01*
X38211800Y-47921934D01*
X39243123Y-47921934D01*
X40180400Y-48859211D01*
X41117677Y-47921934D01*
X44630323Y-47921934D01*
X45567600Y-48859211D01*
X46504877Y-47921934D01*
X46402426Y-47665960D01*
X45798897Y-47453895D01*
X45160155Y-47488933D01*
X44732774Y-47665960D01*
X44630323Y-47921934D01*
X41117677Y-47921934D01*
X41015226Y-47665960D01*
X40411697Y-47453895D01*
X39772955Y-47488933D01*
X39345574Y-47665960D01*
X39243123Y-47921934D01*
X38211800Y-47921934D01*
X38211800Y-44930155D01*
X38220126Y-44888299D01*
X38211800Y-44846442D01*
X38187141Y-44722473D01*
X38093208Y-44581892D01*
X38057723Y-44558182D01*
X35549423Y-42049883D01*
X35814300Y-42102570D01*
X36223989Y-42021078D01*
X36571307Y-41789007D01*
X36660700Y-41655221D01*
X36690692Y-41700108D01*
X36726181Y-41723821D01*
X39009382Y-44007023D01*
X38880400Y-44318414D01*
X38880400Y-44835586D01*
X39078313Y-45313391D01*
X39444009Y-45679087D01*
X39921814Y-45877000D01*
X40438986Y-45877000D01*
X40916791Y-45679087D01*
X41282487Y-45313391D01*
X41480400Y-44835586D01*
X41480400Y-44318414D01*
X41282487Y-43840609D01*
X40916791Y-43474913D01*
X40438986Y-43277000D01*
X39921814Y-43277000D01*
X39610423Y-43405982D01*
X38305200Y-42100760D01*
X38314300Y-42102570D01*
X38723989Y-42021078D01*
X39071307Y-41789007D01*
X39303378Y-41441688D01*
X39364300Y-41135412D01*
X39364300Y-40428587D01*
X39303378Y-40122311D01*
X39071307Y-39774993D01*
X38723988Y-39542922D01*
X38314300Y-39461430D01*
X37904611Y-39542922D01*
X37557293Y-39774993D01*
X37422100Y-39977324D01*
X37422100Y-37032540D01*
X44396582Y-44007023D01*
X44267600Y-44318414D01*
X44267600Y-44835586D01*
X44465513Y-45313391D01*
X44831209Y-45679087D01*
X45309014Y-45877000D01*
X45826186Y-45877000D01*
X46303991Y-45679087D01*
X46669687Y-45313391D01*
X46867600Y-44835586D01*
X46867600Y-44318414D01*
X46669687Y-43840609D01*
X46303991Y-43474913D01*
X45826186Y-43277000D01*
X45309014Y-43277000D01*
X44997623Y-43405982D01*
X42742110Y-41150469D01*
X46049043Y-41150469D01*
X46198029Y-41662535D01*
X46531633Y-42078607D01*
X46999067Y-42335343D01*
X47047528Y-42340538D01*
X47256700Y-42228127D01*
X47256700Y-40936000D01*
X47564700Y-40936000D01*
X47564700Y-42228127D01*
X47773872Y-42340538D01*
X47822333Y-42335343D01*
X48289767Y-42078607D01*
X48623371Y-41662535D01*
X48772357Y-41150469D01*
X48622125Y-40936000D01*
X47564700Y-40936000D01*
X47256700Y-40936000D01*
X46199275Y-40936000D01*
X46049043Y-41150469D01*
X42742110Y-41150469D01*
X42005172Y-40413531D01*
X46049043Y-40413531D01*
X46199275Y-40628000D01*
X47256700Y-40628000D01*
X47256700Y-39335873D01*
X47564700Y-39335873D01*
X47564700Y-40628000D01*
X48622125Y-40628000D01*
X48761809Y-40428588D01*
X48860700Y-40428588D01*
X48860700Y-41135413D01*
X48921622Y-41441689D01*
X49153694Y-41789007D01*
X49501012Y-42021078D01*
X49910700Y-42102570D01*
X50320389Y-42021078D01*
X50667707Y-41789007D01*
X50899778Y-41441688D01*
X50960700Y-41135412D01*
X50960700Y-40428587D01*
X50899778Y-40122311D01*
X50667707Y-39774993D01*
X50320388Y-39542922D01*
X49910700Y-39461430D01*
X49501011Y-39542922D01*
X49153693Y-39774993D01*
X48921622Y-40122312D01*
X48860700Y-40428588D01*
X48761809Y-40428588D01*
X48772357Y-40413531D01*
X48623371Y-39901465D01*
X48289767Y-39485393D01*
X47822333Y-39228657D01*
X47773872Y-39223462D01*
X47564700Y-39335873D01*
X47256700Y-39335873D01*
X47047528Y-39223462D01*
X46999067Y-39228657D01*
X46531633Y-39485393D01*
X46198029Y-39901465D01*
X46049043Y-40413531D01*
X42005172Y-40413531D01*
X37927000Y-36335360D01*
X37927000Y-33374230D01*
X38564300Y-33374230D01*
X38564300Y-34189770D01*
X38876394Y-34943232D01*
X39453068Y-35519906D01*
X40206530Y-35832000D01*
X41022070Y-35832000D01*
X41775532Y-35519906D01*
X42352206Y-34943232D01*
X42664300Y-34189770D01*
X42664300Y-33374230D01*
X43060700Y-33374230D01*
X43060700Y-34189770D01*
X43372794Y-34943232D01*
X43949468Y-35519906D01*
X44702930Y-35832000D01*
X45518470Y-35832000D01*
X46271932Y-35519906D01*
X46848606Y-34943232D01*
X47160700Y-34189770D01*
X47160700Y-33374230D01*
X46848606Y-32620768D01*
X46271932Y-32044094D01*
X45518470Y-31732000D01*
X44702930Y-31732000D01*
X43949468Y-32044094D01*
X43372794Y-32620768D01*
X43060700Y-33374230D01*
X42664300Y-33374230D01*
X42352206Y-32620768D01*
X41775532Y-32044094D01*
X41022070Y-31732000D01*
X40206530Y-31732000D01*
X39453068Y-32044094D01*
X38876394Y-32620768D01*
X38564300Y-33374230D01*
X37927000Y-33374230D01*
X37927000Y-22615457D01*
X37935326Y-22573599D01*
X37902341Y-22407773D01*
X37832118Y-22302677D01*
X37808408Y-22267192D01*
X37772922Y-22243481D01*
X36782441Y-21253000D01*
X39948050Y-21253000D01*
X40116482Y-21421432D01*
X40373761Y-21528000D01*
X40652239Y-21528000D01*
X40909518Y-21421432D01*
X41106432Y-21224518D01*
X41213000Y-20967239D01*
X41213000Y-20688761D01*
X41106432Y-20431482D01*
X40909518Y-20234568D01*
X40652239Y-20128000D01*
X40373761Y-20128000D01*
X40116482Y-20234568D01*
X39948050Y-20403000D01*
X36821356Y-20403000D01*
X26688904Y-10270548D01*
X33501185Y-10270548D01*
X33539363Y-10829382D01*
X33679771Y-11168357D01*
X33915031Y-11246180D01*
X34707211Y-10454000D01*
X33915031Y-9661820D01*
X33679771Y-9739643D01*
X33501185Y-10270548D01*
X26688904Y-10270548D01*
X22608255Y-6189900D01*
X22727839Y-6189900D01*
X22985118Y-6083332D01*
X23078550Y-5989900D01*
X33927494Y-5989900D01*
X33971323Y-6033729D01*
X33999220Y-6075480D01*
X34164610Y-6185989D01*
X34310457Y-6215000D01*
X34310458Y-6215000D01*
X34359699Y-6224795D01*
X34408940Y-6215000D01*
X34454123Y-6215000D01*
X34454123Y-6515000D01*
X34477407Y-6632054D01*
X34543712Y-6731288D01*
X34642946Y-6797593D01*
X34760000Y-6820877D01*
X35060001Y-6820877D01*
X35060001Y-6866054D01*
X35050205Y-6915300D01*
X35089012Y-7110390D01*
X35199521Y-7275780D01*
X35241268Y-7303674D01*
X35636801Y-7699208D01*
X35636801Y-9207911D01*
X35108452Y-9030185D01*
X34549618Y-9068363D01*
X34210643Y-9208771D01*
X34132820Y-9444031D01*
X34925000Y-10236211D01*
X34939142Y-10222069D01*
X35156931Y-10439858D01*
X35142789Y-10454000D01*
X35156931Y-10468142D01*
X34939142Y-10685931D01*
X34925000Y-10671789D01*
X34132820Y-11463969D01*
X34210643Y-11699229D01*
X34418262Y-11769068D01*
X34425001Y-11802947D01*
X34425001Y-11848123D01*
X34125000Y-11848123D01*
X34007946Y-11871407D01*
X33908712Y-11937712D01*
X33842407Y-12036946D01*
X33819123Y-12154000D01*
X33819123Y-13754000D01*
X33842407Y-13871054D01*
X33908712Y-13970288D01*
X34007946Y-14036593D01*
X34125000Y-14059877D01*
X35725000Y-14059877D01*
X35842054Y-14036593D01*
X35941288Y-13970288D01*
X36007593Y-13871054D01*
X36030877Y-13754000D01*
X36030877Y-12917581D01*
X44500337Y-12917581D01*
X44537730Y-13496402D01*
X44687296Y-13857490D01*
X44927728Y-13941480D01*
X44815330Y-14053878D01*
X44867839Y-14106387D01*
X44841407Y-14145946D01*
X44818123Y-14263000D01*
X44818123Y-15963000D01*
X44841407Y-16080054D01*
X44907712Y-16179288D01*
X45006946Y-16245593D01*
X45124000Y-16268877D01*
X45474001Y-16268877D01*
X45474001Y-16314054D01*
X45464205Y-16363300D01*
X45495547Y-16520861D01*
X45503012Y-16558390D01*
X45613521Y-16723780D01*
X45655269Y-16751675D01*
X51910701Y-23007108D01*
X51910700Y-39603266D01*
X51653693Y-39774993D01*
X51421622Y-40122312D01*
X51360700Y-40428588D01*
X51360700Y-41135413D01*
X51421622Y-41441689D01*
X51653694Y-41789007D01*
X52001012Y-42021078D01*
X52410700Y-42102570D01*
X52820389Y-42021078D01*
X53167707Y-41789007D01*
X53399778Y-41441688D01*
X53457704Y-41150469D01*
X60145443Y-41150469D01*
X60294429Y-41662535D01*
X60628033Y-42078607D01*
X61095467Y-42335343D01*
X61143928Y-42340538D01*
X61353100Y-42228127D01*
X61353100Y-40936000D01*
X61661100Y-40936000D01*
X61661100Y-42228127D01*
X61870272Y-42340538D01*
X61918733Y-42335343D01*
X62386167Y-42078607D01*
X62719771Y-41662535D01*
X62868757Y-41150469D01*
X62718525Y-40936000D01*
X61661100Y-40936000D01*
X61353100Y-40936000D01*
X60295675Y-40936000D01*
X60145443Y-41150469D01*
X53457704Y-41150469D01*
X53460700Y-41135412D01*
X53460700Y-40428587D01*
X53457706Y-40413531D01*
X60145443Y-40413531D01*
X60295675Y-40628000D01*
X61353100Y-40628000D01*
X61353100Y-39335873D01*
X61661100Y-39335873D01*
X61661100Y-40628000D01*
X62718525Y-40628000D01*
X62858209Y-40428588D01*
X62957100Y-40428588D01*
X62957100Y-41135413D01*
X63018022Y-41441689D01*
X63250094Y-41789007D01*
X63597412Y-42021078D01*
X64007100Y-42102570D01*
X64416789Y-42021078D01*
X64764107Y-41789007D01*
X64996178Y-41441688D01*
X65057100Y-41135412D01*
X65057100Y-40428588D01*
X65457100Y-40428588D01*
X65457100Y-41135413D01*
X65518022Y-41441689D01*
X65750094Y-41789007D01*
X66097412Y-42021078D01*
X66507100Y-42102570D01*
X66916789Y-42021078D01*
X67264107Y-41789007D01*
X67496178Y-41441688D01*
X67554104Y-41150469D01*
X74241943Y-41150469D01*
X74390929Y-41662535D01*
X74724533Y-42078607D01*
X75191967Y-42335343D01*
X75240428Y-42340538D01*
X75449600Y-42228127D01*
X75449600Y-40936000D01*
X75757600Y-40936000D01*
X75757600Y-42228127D01*
X75966772Y-42340538D01*
X76015233Y-42335343D01*
X76482667Y-42078607D01*
X76816271Y-41662535D01*
X76965257Y-41150469D01*
X76815025Y-40936000D01*
X75757600Y-40936000D01*
X75449600Y-40936000D01*
X74392175Y-40936000D01*
X74241943Y-41150469D01*
X67554104Y-41150469D01*
X67557100Y-41135412D01*
X67557100Y-40428587D01*
X67554106Y-40413531D01*
X74241943Y-40413531D01*
X74392175Y-40628000D01*
X75449600Y-40628000D01*
X75449600Y-39335873D01*
X75757600Y-39335873D01*
X75757600Y-40628000D01*
X76815025Y-40628000D01*
X76954709Y-40428588D01*
X77053600Y-40428588D01*
X77053600Y-41135413D01*
X77114522Y-41441689D01*
X77346594Y-41789007D01*
X77693912Y-42021078D01*
X78103600Y-42102570D01*
X78513289Y-42021078D01*
X78860607Y-41789007D01*
X79092678Y-41441688D01*
X79153600Y-41135412D01*
X79153600Y-40428588D01*
X79553600Y-40428588D01*
X79553600Y-41135413D01*
X79614522Y-41441689D01*
X79846594Y-41789007D01*
X80193912Y-42021078D01*
X80603600Y-42102570D01*
X81013289Y-42021078D01*
X81360607Y-41789007D01*
X81592678Y-41441688D01*
X81653600Y-41135412D01*
X81653600Y-40428587D01*
X81592678Y-40122311D01*
X81360607Y-39774993D01*
X81013288Y-39542922D01*
X80603600Y-39461430D01*
X80193911Y-39542922D01*
X79846593Y-39774993D01*
X79614522Y-40122312D01*
X79553600Y-40428588D01*
X79153600Y-40428588D01*
X79153600Y-40428587D01*
X79092678Y-40122311D01*
X78860607Y-39774993D01*
X78513288Y-39542922D01*
X78103600Y-39461430D01*
X77693911Y-39542922D01*
X77346593Y-39774993D01*
X77114522Y-40122312D01*
X77053600Y-40428588D01*
X76954709Y-40428588D01*
X76965257Y-40413531D01*
X76816271Y-39901465D01*
X76482667Y-39485393D01*
X76015233Y-39228657D01*
X75966772Y-39223462D01*
X75757600Y-39335873D01*
X75449600Y-39335873D01*
X75240428Y-39223462D01*
X75191967Y-39228657D01*
X74724533Y-39485393D01*
X74390929Y-39901465D01*
X74241943Y-40413531D01*
X67554106Y-40413531D01*
X67496178Y-40122311D01*
X67264107Y-39774993D01*
X66916788Y-39542922D01*
X66507100Y-39461430D01*
X66097411Y-39542922D01*
X65750093Y-39774993D01*
X65518022Y-40122312D01*
X65457100Y-40428588D01*
X65057100Y-40428588D01*
X65057100Y-40428587D01*
X64996178Y-40122311D01*
X64764107Y-39774993D01*
X64416788Y-39542922D01*
X64007100Y-39461430D01*
X63597411Y-39542922D01*
X63250093Y-39774993D01*
X63018022Y-40122312D01*
X62957100Y-40428588D01*
X62858209Y-40428588D01*
X62868757Y-40413531D01*
X62719771Y-39901465D01*
X62386167Y-39485393D01*
X61918733Y-39228657D01*
X61870272Y-39223462D01*
X61661100Y-39335873D01*
X61353100Y-39335873D01*
X61143928Y-39223462D01*
X61095467Y-39228657D01*
X60628033Y-39485393D01*
X60294429Y-39901465D01*
X60145443Y-40413531D01*
X53457706Y-40413531D01*
X53399778Y-40122311D01*
X53167707Y-39774993D01*
X52910700Y-39603267D01*
X52910700Y-34793324D01*
X52972794Y-34943232D01*
X53549468Y-35519906D01*
X54302930Y-35832000D01*
X55118470Y-35832000D01*
X55871932Y-35519906D01*
X56448606Y-34943232D01*
X56760700Y-34189770D01*
X56760700Y-33374230D01*
X57157100Y-33374230D01*
X57157100Y-34189770D01*
X57469194Y-34943232D01*
X58045868Y-35519906D01*
X58799330Y-35832000D01*
X59614870Y-35832000D01*
X60368332Y-35519906D01*
X60945006Y-34943232D01*
X61257100Y-34189770D01*
X61257100Y-33374230D01*
X66757100Y-33374230D01*
X66757100Y-34189770D01*
X67069194Y-34943232D01*
X67645868Y-35519906D01*
X68399330Y-35832000D01*
X69214870Y-35832000D01*
X69968332Y-35519906D01*
X70545006Y-34943232D01*
X70857100Y-34189770D01*
X70857100Y-33374230D01*
X71253600Y-33374230D01*
X71253600Y-34189770D01*
X71565694Y-34943232D01*
X72142368Y-35519906D01*
X72895830Y-35832000D01*
X73711370Y-35832000D01*
X74464832Y-35519906D01*
X75041506Y-34943232D01*
X75353600Y-34189770D01*
X75353600Y-33374230D01*
X80853600Y-33374230D01*
X80853600Y-34189770D01*
X81165694Y-34943232D01*
X81742368Y-35519906D01*
X82495830Y-35832000D01*
X83311370Y-35832000D01*
X84064832Y-35519906D01*
X84641506Y-34943232D01*
X84953600Y-34189770D01*
X84953600Y-33374230D01*
X84641506Y-32620768D01*
X84064832Y-32044094D01*
X83311370Y-31732000D01*
X82495830Y-31732000D01*
X81742368Y-32044094D01*
X81165694Y-32620768D01*
X80853600Y-33374230D01*
X75353600Y-33374230D01*
X75041506Y-32620768D01*
X74464832Y-32044094D01*
X73711370Y-31732000D01*
X72895830Y-31732000D01*
X72142368Y-32044094D01*
X71565694Y-32620768D01*
X71253600Y-33374230D01*
X70857100Y-33374230D01*
X70545006Y-32620768D01*
X69968332Y-32044094D01*
X69214870Y-31732000D01*
X68399330Y-31732000D01*
X67645868Y-32044094D01*
X67069194Y-32620768D01*
X66757100Y-33374230D01*
X61257100Y-33374230D01*
X60945006Y-32620768D01*
X60368332Y-32044094D01*
X59614870Y-31732000D01*
X58799330Y-31732000D01*
X58045868Y-32044094D01*
X57469194Y-32620768D01*
X57157100Y-33374230D01*
X56760700Y-33374230D01*
X56448606Y-32620768D01*
X55871932Y-32044094D01*
X55118470Y-31732000D01*
X54302930Y-31732000D01*
X53549468Y-32044094D01*
X52972794Y-32620768D01*
X52910700Y-32770676D01*
X52910700Y-22849240D01*
X52920495Y-22799999D01*
X52904462Y-22719399D01*
X52881689Y-22604910D01*
X52771180Y-22439520D01*
X52729432Y-22411625D01*
X46586683Y-16268877D01*
X46824000Y-16268877D01*
X46941054Y-16245593D01*
X47040288Y-16179288D01*
X47106593Y-16080054D01*
X47129877Y-15963000D01*
X47129877Y-14263000D01*
X47106593Y-14145946D01*
X47080161Y-14106387D01*
X47132670Y-14053878D01*
X47020272Y-13941480D01*
X47260704Y-13857490D01*
X47385642Y-13490566D01*
X47499077Y-13764423D01*
X47822577Y-14087923D01*
X47883118Y-14113000D01*
X47822577Y-14138077D01*
X47499077Y-14461577D01*
X47324000Y-14884251D01*
X47324000Y-15341749D01*
X47499077Y-15764423D01*
X47822577Y-16087923D01*
X48245251Y-16263000D01*
X48702749Y-16263000D01*
X49125423Y-16087923D01*
X49448923Y-15764423D01*
X49624000Y-15341749D01*
X49624000Y-14884251D01*
X49554246Y-14715849D01*
X62161140Y-14715849D01*
X62161140Y-15332351D01*
X62397065Y-15901923D01*
X62832997Y-16337855D01*
X63402569Y-16573780D01*
X64019071Y-16573780D01*
X64588643Y-16337855D01*
X65024575Y-15901923D01*
X65212141Y-15449100D01*
X70118043Y-15449100D01*
X70159900Y-15457426D01*
X70201757Y-15449100D01*
X70201758Y-15449100D01*
X70325727Y-15424441D01*
X70466308Y-15330508D01*
X70490021Y-15295019D01*
X71069191Y-14715849D01*
X72153500Y-14715849D01*
X72153500Y-15332351D01*
X72389425Y-15901923D01*
X72825357Y-16337855D01*
X73394929Y-16573780D01*
X74011431Y-16573780D01*
X74581003Y-16337855D01*
X75016935Y-15901923D01*
X75252860Y-15332351D01*
X75252860Y-14715849D01*
X75016935Y-14146277D01*
X74581003Y-13710345D01*
X74011431Y-13474420D01*
X73394929Y-13474420D01*
X72825357Y-13710345D01*
X72389425Y-14146277D01*
X72153500Y-14715849D01*
X71069191Y-14715849D01*
X72928385Y-12856656D01*
X73036873Y-12929145D01*
X73307000Y-12982877D01*
X74107000Y-12982877D01*
X74377127Y-12929145D01*
X74606130Y-12776130D01*
X74655400Y-12702392D01*
X74655400Y-12830451D01*
X74891325Y-13400023D01*
X75327257Y-13835955D01*
X75896829Y-14071880D01*
X76513331Y-14071880D01*
X77082903Y-13835955D01*
X77518835Y-13400023D01*
X77754760Y-12830451D01*
X77754760Y-12213949D01*
X77518835Y-11644377D01*
X77082903Y-11208445D01*
X76513331Y-10972520D01*
X75896829Y-10972520D01*
X75327257Y-11208445D01*
X74891325Y-11644377D01*
X74812877Y-11833767D01*
X74812877Y-10677000D01*
X74759145Y-10406873D01*
X74606130Y-10177870D01*
X74377127Y-10024855D01*
X74107000Y-9971123D01*
X73307000Y-9971123D01*
X73036873Y-10024855D01*
X72807870Y-10177870D01*
X72654855Y-10406873D01*
X72601123Y-10677000D01*
X72601123Y-11981836D01*
X72312877Y-12270082D01*
X72312877Y-10677000D01*
X72259145Y-10406873D01*
X72106130Y-10177870D01*
X71877127Y-10024855D01*
X71607000Y-9971123D01*
X70807000Y-9971123D01*
X70536873Y-10024855D01*
X70307870Y-10177870D01*
X70154855Y-10406873D01*
X70101123Y-10677000D01*
X70101123Y-11434111D01*
X70042904Y-11406625D01*
X68924789Y-12524740D01*
X70042904Y-13642855D01*
X70324783Y-13509774D01*
X70537091Y-12929188D01*
X70807000Y-12982877D01*
X71600083Y-12982877D01*
X69983860Y-14599100D01*
X65212141Y-14599100D01*
X65024575Y-14146277D01*
X64738942Y-13860644D01*
X67588885Y-13860644D01*
X67721966Y-14142523D01*
X68416045Y-14396333D01*
X69154420Y-14365210D01*
X69692034Y-14142523D01*
X69825115Y-13860644D01*
X68707000Y-12742529D01*
X67588885Y-13860644D01*
X64738942Y-13860644D01*
X64588643Y-13710345D01*
X64019071Y-13474420D01*
X63402569Y-13474420D01*
X62832997Y-13710345D01*
X62397065Y-14146277D01*
X62161140Y-14715849D01*
X49554246Y-14715849D01*
X49448923Y-14461577D01*
X49125423Y-14138077D01*
X49064882Y-14113000D01*
X49125423Y-14087923D01*
X49448923Y-13764423D01*
X49624000Y-13341749D01*
X49624000Y-12884251D01*
X49448923Y-12461577D01*
X49125423Y-12138077D01*
X49035211Y-12100710D01*
X51764079Y-12100710D01*
X51958340Y-12434560D01*
X52833649Y-12771918D01*
X53771430Y-12748629D01*
X54529660Y-12434560D01*
X54658029Y-12213949D01*
X59659240Y-12213949D01*
X59659240Y-12830451D01*
X59895165Y-13400023D01*
X60331097Y-13835955D01*
X60900669Y-14071880D01*
X61517171Y-14071880D01*
X62086743Y-13835955D01*
X62522675Y-13400023D01*
X62758600Y-12830451D01*
X62758600Y-12702392D01*
X62807870Y-12776130D01*
X63036873Y-12929145D01*
X63307000Y-12982877D01*
X64107000Y-12982877D01*
X64377127Y-12929145D01*
X64606130Y-12776130D01*
X64759145Y-12547127D01*
X64812877Y-12277000D01*
X64812877Y-10677000D01*
X65101123Y-10677000D01*
X65101123Y-12277000D01*
X65154855Y-12547127D01*
X65307870Y-12776130D01*
X65536873Y-12929145D01*
X65807000Y-12982877D01*
X66607000Y-12982877D01*
X66864820Y-12931593D01*
X66866530Y-12972160D01*
X67089217Y-13509774D01*
X67371096Y-13642855D01*
X68489211Y-12524740D01*
X67371096Y-11406625D01*
X67312877Y-11434111D01*
X67312877Y-11188836D01*
X67588885Y-11188836D01*
X68707000Y-12306951D01*
X69825115Y-11188836D01*
X69692034Y-10906957D01*
X68997955Y-10653147D01*
X68259580Y-10684270D01*
X67721966Y-10906957D01*
X67588885Y-11188836D01*
X67312877Y-11188836D01*
X67312877Y-10677000D01*
X67259145Y-10406873D01*
X67106130Y-10177870D01*
X66877127Y-10024855D01*
X66607000Y-9971123D01*
X65807000Y-9971123D01*
X65536873Y-10024855D01*
X65307870Y-10177870D01*
X65154855Y-10406873D01*
X65101123Y-10677000D01*
X64812877Y-10677000D01*
X64759145Y-10406873D01*
X64606130Y-10177870D01*
X64377127Y-10024855D01*
X64107000Y-9971123D01*
X63307000Y-9971123D01*
X63036873Y-10024855D01*
X62807870Y-10177870D01*
X62654855Y-10406873D01*
X62601123Y-10677000D01*
X62601123Y-11833767D01*
X62522675Y-11644377D01*
X62086743Y-11208445D01*
X61517171Y-10972520D01*
X60900669Y-10972520D01*
X60331097Y-11208445D01*
X59895165Y-11644377D01*
X59659240Y-12213949D01*
X54658029Y-12213949D01*
X54723921Y-12100710D01*
X53244000Y-10620789D01*
X51764079Y-12100710D01*
X49035211Y-12100710D01*
X48702749Y-11963000D01*
X48245251Y-11963000D01*
X47822577Y-12138077D01*
X47499077Y-12461577D01*
X47399165Y-12702787D01*
X47260704Y-12368510D01*
X47020270Y-12284519D01*
X46191789Y-13113000D01*
X46205931Y-13127142D01*
X45988142Y-13344931D01*
X45974000Y-13330789D01*
X45959858Y-13344931D01*
X45742069Y-13127142D01*
X45756211Y-13113000D01*
X44927730Y-12284519D01*
X44687296Y-12368510D01*
X44500337Y-12917581D01*
X36030877Y-12917581D01*
X36030877Y-12154000D01*
X36020277Y-12100710D01*
X39724079Y-12100710D01*
X39918340Y-12434560D01*
X40793649Y-12771918D01*
X41731430Y-12748629D01*
X42489660Y-12434560D01*
X42683921Y-12100710D01*
X42649941Y-12066730D01*
X45145519Y-12066730D01*
X45974000Y-12895211D01*
X46802481Y-12066730D01*
X46718490Y-11826296D01*
X46169419Y-11639337D01*
X45590598Y-11676730D01*
X45229510Y-11826296D01*
X45145519Y-12066730D01*
X42649941Y-12066730D01*
X41204000Y-10620789D01*
X39724079Y-12100710D01*
X36020277Y-12100710D01*
X36007593Y-12036946D01*
X35941288Y-11937712D01*
X35915455Y-11920451D01*
X36455533Y-11380374D01*
X36497280Y-11352480D01*
X36607789Y-11187090D01*
X36636800Y-11041243D01*
X36636800Y-11041242D01*
X36646595Y-10992001D01*
X36636800Y-10942760D01*
X36636800Y-9992649D01*
X38835082Y-9992649D01*
X38858371Y-10930430D01*
X39172440Y-11688660D01*
X39506290Y-11882921D01*
X40986211Y-10403000D01*
X41421789Y-10403000D01*
X42901710Y-11882921D01*
X43235560Y-11688660D01*
X43572918Y-10813351D01*
X43552537Y-9992649D01*
X50875082Y-9992649D01*
X50898371Y-10930430D01*
X51212440Y-11688660D01*
X51546290Y-11882921D01*
X53026211Y-10403000D01*
X53461789Y-10403000D01*
X54941710Y-11882921D01*
X55275560Y-11688660D01*
X55612918Y-10813351D01*
X55589629Y-9875570D01*
X55275560Y-9117340D01*
X54941710Y-8923079D01*
X53461789Y-10403000D01*
X53026211Y-10403000D01*
X51546290Y-8923079D01*
X51212440Y-9117340D01*
X50875082Y-9992649D01*
X43552537Y-9992649D01*
X43549629Y-9875570D01*
X43235560Y-9117340D01*
X42901710Y-8923079D01*
X41421789Y-10403000D01*
X40986211Y-10403000D01*
X39506290Y-8923079D01*
X39172440Y-9117340D01*
X38835082Y-9992649D01*
X36636800Y-9992649D01*
X36636800Y-8705290D01*
X39724079Y-8705290D01*
X41204000Y-10185211D01*
X42683921Y-8705290D01*
X51764079Y-8705290D01*
X53244000Y-10185211D01*
X54723921Y-8705290D01*
X54529660Y-8371440D01*
X53654351Y-8034082D01*
X52716570Y-8057371D01*
X51958340Y-8371440D01*
X51764079Y-8705290D01*
X42683921Y-8705290D01*
X42489660Y-8371440D01*
X41614351Y-8034082D01*
X40676570Y-8057371D01*
X39918340Y-8371440D01*
X39724079Y-8705290D01*
X36636800Y-8705290D01*
X36636800Y-7541340D01*
X36646595Y-7492099D01*
X36625908Y-7388100D01*
X36607789Y-7297010D01*
X36497280Y-7131620D01*
X36455532Y-7103725D01*
X36172683Y-6820877D01*
X36360000Y-6820877D01*
X36477054Y-6797593D01*
X36498894Y-6783000D01*
X66899000Y-6783000D01*
X66899000Y-7397938D01*
X66991562Y-7621404D01*
X67162595Y-7792437D01*
X67386061Y-7885000D01*
X68401000Y-7885000D01*
X68553000Y-7733000D01*
X68553000Y-6631000D01*
X68861000Y-6631000D01*
X68861000Y-7733000D01*
X69013000Y-7885000D01*
X70027939Y-7885000D01*
X70251405Y-7792437D01*
X70422438Y-7621404D01*
X70515000Y-7397938D01*
X70515000Y-6783000D01*
X70363000Y-6631000D01*
X68861000Y-6631000D01*
X68553000Y-6631000D01*
X67051000Y-6631000D01*
X66899000Y-6783000D01*
X36498894Y-6783000D01*
X36576288Y-6731288D01*
X36642593Y-6632054D01*
X36665877Y-6515000D01*
X36665877Y-5556062D01*
X66899000Y-5556062D01*
X66899000Y-6171000D01*
X67051000Y-6323000D01*
X68553000Y-6323000D01*
X68553000Y-5221000D01*
X68861000Y-5221000D01*
X68861000Y-6323000D01*
X70363000Y-6323000D01*
X70385419Y-6300581D01*
X79642208Y-6300581D01*
X80013248Y-6785139D01*
X81413083Y-7364306D01*
X82927999Y-7363693D01*
X84324752Y-6785139D01*
X84695792Y-6300581D01*
X82169000Y-3773789D01*
X79642208Y-6300581D01*
X70385419Y-6300581D01*
X70515000Y-6171000D01*
X70515000Y-5556062D01*
X70422438Y-5332596D01*
X70251405Y-5161563D01*
X70027939Y-5069000D01*
X69013000Y-5069000D01*
X68861000Y-5221000D01*
X68553000Y-5221000D01*
X68401000Y-5069000D01*
X67386061Y-5069000D01*
X67162595Y-5161563D01*
X66991562Y-5332596D01*
X66899000Y-5556062D01*
X36665877Y-5556062D01*
X36665877Y-4915000D01*
X36642593Y-4797946D01*
X36576288Y-4698712D01*
X36477054Y-4632407D01*
X36360000Y-4609123D01*
X35811167Y-4609123D01*
X35935382Y-4600637D01*
X36274357Y-4460229D01*
X36352180Y-4224969D01*
X35560000Y-3432789D01*
X34767820Y-4224969D01*
X34845643Y-4460229D01*
X35288279Y-4609123D01*
X34760000Y-4609123D01*
X34642946Y-4632407D01*
X34543712Y-4698712D01*
X34477407Y-4797946D01*
X34454123Y-4915000D01*
X34454123Y-5102054D01*
X34329690Y-5018911D01*
X34183843Y-4989900D01*
X34183841Y-4989900D01*
X34134600Y-4980105D01*
X34085359Y-4989900D01*
X23078550Y-4989900D01*
X22985118Y-4896468D01*
X22727839Y-4789900D01*
X22449361Y-4789900D01*
X22192082Y-4896468D01*
X22135650Y-4952900D01*
X12864646Y-4952900D01*
X12815400Y-4943104D01*
X12629389Y-4980105D01*
X12620310Y-4981911D01*
X12454920Y-5092420D01*
X12427023Y-5134171D01*
X7015676Y-10545518D01*
X6798103Y-10219897D01*
X6417707Y-9965724D01*
X6082261Y-9899000D01*
X5855739Y-9899000D01*
X5520293Y-9965724D01*
X5139897Y-10219897D01*
X4885724Y-10600293D01*
X4796471Y-11049000D01*
X4885724Y-11497707D01*
X5139897Y-11878103D01*
X5520293Y-12132276D01*
X5855739Y-12199000D01*
X6082261Y-12199000D01*
X6417707Y-12132276D01*
X6798103Y-11878103D01*
X7018003Y-11549000D01*
X7170059Y-11549000D01*
X7219300Y-11558795D01*
X7268541Y-11549000D01*
X7268543Y-11549000D01*
X7414390Y-11519989D01*
X7482439Y-11474520D01*
X6437806Y-12519154D01*
X6417707Y-12505724D01*
X6082261Y-12439000D01*
X5855739Y-12439000D01*
X5520293Y-12505724D01*
X5139897Y-12759897D01*
X4885724Y-13140293D01*
X4796471Y-13589000D01*
X4885724Y-14037707D01*
X5139897Y-14418103D01*
X5520293Y-14672276D01*
X5814998Y-14730896D01*
X5814998Y-14831143D01*
X5590089Y-14721085D01*
X5080146Y-14973259D01*
X4705523Y-15401384D01*
X4581780Y-15700154D01*
X4562442Y-15704000D01*
X4516992Y-15704000D01*
X4512276Y-15680293D01*
X4258103Y-15299897D01*
X3877707Y-15045724D01*
X3766837Y-15023671D01*
X3829341Y-14930127D01*
X3854000Y-14806158D01*
X3862326Y-14764300D01*
X3854000Y-14722442D01*
X3854000Y-14676992D01*
X3877707Y-14672276D01*
X4258103Y-14418103D01*
X4512276Y-14037707D01*
X4601529Y-13589000D01*
X4512276Y-13140293D01*
X4258103Y-12759897D01*
X3877707Y-12505724D01*
X3542261Y-12439000D01*
X3315739Y-12439000D01*
X2980293Y-12505724D01*
X2599897Y-12759897D01*
X2345724Y-13140293D01*
X2256471Y-13589000D01*
X2345724Y-14037707D01*
X2599897Y-14418103D01*
X2723960Y-14500999D01*
X1974981Y-15249979D01*
X1939492Y-15273692D01*
X1885687Y-15354218D01*
X1845559Y-15414274D01*
X1812574Y-15580100D01*
X1820900Y-15621957D01*
X1820901Y-24067038D01*
X1812574Y-24108900D01*
X1845559Y-24274726D01*
X1886283Y-24335674D01*
X1939493Y-24415308D01*
X1974979Y-24439019D01*
X5946400Y-28410441D01*
X5946401Y-39582697D01*
X5533033Y-39355657D01*
X5484572Y-39350462D01*
X5275400Y-39462873D01*
X5275400Y-40755000D01*
X5295400Y-40755000D01*
X5295400Y-41063000D01*
X5275400Y-41063000D01*
X5275400Y-42355127D01*
X5484572Y-42467538D01*
X5533033Y-42462343D01*
X5946401Y-42235303D01*
X5946401Y-47374938D01*
X5938074Y-47416800D01*
X5956515Y-47509508D01*
X5711752Y-47189861D01*
X4311917Y-46610694D01*
X2797001Y-46611307D01*
X1400248Y-47189861D01*
X1029208Y-47674419D01*
X375000Y-47674419D01*
X375000Y-41277469D01*
X3759743Y-41277469D01*
X3908729Y-41789535D01*
X4242333Y-42205607D01*
X4709767Y-42462343D01*
X4758228Y-42467538D01*
X4967400Y-42355127D01*
X4967400Y-41063000D01*
X3909975Y-41063000D01*
X3759743Y-41277469D01*
X375000Y-41277469D01*
X375000Y-40540531D01*
X3759743Y-40540531D01*
X3909975Y-40755000D01*
X4967400Y-40755000D01*
X4967400Y-39462873D01*
X4758228Y-39350462D01*
X4709767Y-39355657D01*
X4242333Y-39612393D01*
X3908729Y-40028465D01*
X3759743Y-40540531D01*
X375000Y-40540531D01*
X375000Y-33501230D01*
X771400Y-33501230D01*
X771400Y-34316770D01*
X1083494Y-35070232D01*
X1660168Y-35646906D01*
X2413630Y-35959000D01*
X3229170Y-35959000D01*
X3982632Y-35646906D01*
X4559306Y-35070232D01*
X4871400Y-34316770D01*
X4871400Y-33501230D01*
X4559306Y-32747768D01*
X3982632Y-32171094D01*
X3229170Y-31859000D01*
X2413630Y-31859000D01*
X1660168Y-32171094D01*
X1083494Y-32747768D01*
X771400Y-33501230D01*
X375000Y-33501230D01*
X375000Y-10199000D01*
X2273123Y-10199000D01*
X2273123Y-11899000D01*
X2296407Y-12016054D01*
X2362712Y-12115288D01*
X2461946Y-12181593D01*
X2579000Y-12204877D01*
X4279000Y-12204877D01*
X4396054Y-12181593D01*
X4495288Y-12115288D01*
X4561593Y-12016054D01*
X4584877Y-11899000D01*
X4584877Y-10199000D01*
X4561593Y-10081946D01*
X4495288Y-9982712D01*
X4396054Y-9916407D01*
X4279000Y-9893123D01*
X2579000Y-9893123D01*
X2461946Y-9916407D01*
X2362712Y-9982712D01*
X2296407Y-10081946D01*
X2273123Y-10199000D01*
X375000Y-10199000D01*
X375000Y-6300581D01*
X1029208Y-6300581D01*
X1400248Y-6785139D01*
X2800083Y-7364306D01*
X4314999Y-7363693D01*
X5711752Y-6785139D01*
X6082792Y-6300581D01*
X3556000Y-3773789D01*
X1029208Y-6300581D01*
X375000Y-6300581D01*
X375000Y-5748613D01*
X811419Y-6082792D01*
X3338211Y-3556000D01*
X3773789Y-3556000D01*
X6300581Y-6082792D01*
X6785139Y-5711752D01*
X7364306Y-4311917D01*
X7363788Y-3031548D01*
X34136185Y-3031548D01*
X34174363Y-3590382D01*
X34314771Y-3929357D01*
X34550031Y-4007180D01*
X35342211Y-3215000D01*
X35777789Y-3215000D01*
X36569969Y-4007180D01*
X36805229Y-3929357D01*
X36983815Y-3398452D01*
X36945637Y-2839618D01*
X36805229Y-2500643D01*
X36569969Y-2422820D01*
X35777789Y-3215000D01*
X35342211Y-3215000D01*
X34550031Y-2422820D01*
X34314771Y-2500643D01*
X34136185Y-3031548D01*
X7363788Y-3031548D01*
X7363693Y-2797001D01*
X7118492Y-2205031D01*
X34767820Y-2205031D01*
X35560000Y-2997211D01*
X36338162Y-2219049D01*
X62156060Y-2219049D01*
X62156060Y-2835551D01*
X62391985Y-3405123D01*
X62827917Y-3841055D01*
X63397489Y-4076980D01*
X64013991Y-4076980D01*
X64583563Y-3841055D01*
X65019495Y-3405123D01*
X65255420Y-2835551D01*
X65255420Y-2219049D01*
X72158580Y-2219049D01*
X72158580Y-2835551D01*
X72394505Y-3405123D01*
X72830437Y-3841055D01*
X73400009Y-4076980D01*
X74016511Y-4076980D01*
X74586083Y-3841055D01*
X75022015Y-3405123D01*
X75257940Y-2835551D01*
X75257940Y-2800083D01*
X78360694Y-2800083D01*
X78361307Y-4314999D01*
X78939861Y-5711752D01*
X79424419Y-6082792D01*
X81951211Y-3556000D01*
X79424419Y-1029208D01*
X78939861Y-1400248D01*
X78360694Y-2800083D01*
X75257940Y-2800083D01*
X75257940Y-2219049D01*
X75022015Y-1649477D01*
X74586083Y-1213545D01*
X74016511Y-977620D01*
X73400009Y-977620D01*
X72830437Y-1213545D01*
X72394505Y-1649477D01*
X72158580Y-2219049D01*
X65255420Y-2219049D01*
X65019495Y-1649477D01*
X64583563Y-1213545D01*
X64013991Y-977620D01*
X63397489Y-977620D01*
X62827917Y-1213545D01*
X62391985Y-1649477D01*
X62156060Y-2219049D01*
X36338162Y-2219049D01*
X36352180Y-2205031D01*
X36274357Y-1969771D01*
X35743452Y-1791185D01*
X35184618Y-1829363D01*
X34845643Y-1969771D01*
X34767820Y-2205031D01*
X7118492Y-2205031D01*
X6785139Y-1400248D01*
X6300581Y-1029208D01*
X3773789Y-3556000D01*
X3338211Y-3556000D01*
X3324069Y-3541858D01*
X3541858Y-3324069D01*
X3556000Y-3338211D01*
X6082792Y-811419D01*
X5748613Y-375000D01*
X79976387Y-375000D01*
X79642208Y-811419D01*
G36*
X22928012Y-16809117D02*
X22951723Y-16844603D01*
X23047053Y-16908300D01*
X23092304Y-16938536D01*
X23258130Y-16971521D01*
X23299988Y-16963195D01*
X23313513Y-16963195D01*
X23313513Y-17077433D01*
X23420081Y-17334712D01*
X23616995Y-17531626D01*
X23858288Y-17631572D01*
X23298181Y-18191679D01*
X23262692Y-18215392D01*
X23168760Y-18355973D01*
X23168759Y-18355974D01*
X23135774Y-18521800D01*
X23144100Y-18563657D01*
X23144101Y-32886558D01*
X16135081Y-39895579D01*
X16099592Y-39919292D01*
X16026646Y-40028465D01*
X16005659Y-40059874D01*
X15972674Y-40225700D01*
X15981000Y-40267558D01*
X15981001Y-43120925D01*
X15981000Y-43120930D01*
X15981000Y-43345931D01*
X15669609Y-43474913D01*
X15303913Y-43840609D01*
X15106000Y-44318414D01*
X15106000Y-44835586D01*
X15303913Y-45313391D01*
X15669609Y-45679087D01*
X16147414Y-45877000D01*
X16664586Y-45877000D01*
X17142391Y-45679087D01*
X17508087Y-45313391D01*
X17706000Y-44835586D01*
X17706000Y-44318414D01*
X17508087Y-43840609D01*
X17142391Y-43474913D01*
X16831000Y-43345931D01*
X16831000Y-41150469D01*
X17856243Y-41150469D01*
X18005229Y-41662535D01*
X18338833Y-42078607D01*
X18806267Y-42335343D01*
X18854728Y-42340538D01*
X19063900Y-42228127D01*
X19063900Y-40936000D01*
X19371900Y-40936000D01*
X19371900Y-42228127D01*
X19581072Y-42340538D01*
X19629533Y-42335343D01*
X20096967Y-42078607D01*
X20430571Y-41662535D01*
X20579557Y-41150469D01*
X20429325Y-40936000D01*
X19371900Y-40936000D01*
X19063900Y-40936000D01*
X18006475Y-40936000D01*
X17856243Y-41150469D01*
X16831000Y-41150469D01*
X16831000Y-40413531D01*
X17856243Y-40413531D01*
X18006475Y-40628000D01*
X19063900Y-40628000D01*
X19063900Y-39335873D01*
X19371900Y-39335873D01*
X19371900Y-40628000D01*
X20429325Y-40628000D01*
X20579557Y-40413531D01*
X20430571Y-39901465D01*
X20096967Y-39485393D01*
X19629533Y-39228657D01*
X19581072Y-39223462D01*
X19371900Y-39335873D01*
X19063900Y-39335873D01*
X18854728Y-39223462D01*
X18806267Y-39228657D01*
X18338833Y-39485393D01*
X18005229Y-39901465D01*
X17856243Y-40413531D01*
X16831000Y-40413531D01*
X16831000Y-40401740D01*
X23819400Y-33413341D01*
X23819400Y-33808559D01*
X22801779Y-34826181D01*
X22766293Y-34849892D01*
X22742582Y-34885378D01*
X22672359Y-34990474D01*
X22639374Y-35156300D01*
X22647701Y-35198162D01*
X22647700Y-40033596D01*
X22474907Y-39774993D01*
X22127588Y-39542922D01*
X21717900Y-39461430D01*
X21308211Y-39542922D01*
X20960893Y-39774993D01*
X20728822Y-40122312D01*
X20667900Y-40428588D01*
X20667900Y-41135413D01*
X20728822Y-41441689D01*
X20960894Y-41789007D01*
X21308212Y-42021078D01*
X21717900Y-42102570D01*
X22127589Y-42021078D01*
X22474907Y-41789007D01*
X22647700Y-41530404D01*
X22647700Y-43121459D01*
X22363177Y-43405982D01*
X22051786Y-43277000D01*
X21534614Y-43277000D01*
X21056809Y-43474913D01*
X20691113Y-43840609D01*
X20493200Y-44318414D01*
X20493200Y-44835586D01*
X20691113Y-45313391D01*
X21056809Y-45679087D01*
X21534614Y-45877000D01*
X22051786Y-45877000D01*
X22529591Y-45679087D01*
X22895287Y-45313391D01*
X23093200Y-44835586D01*
X23093200Y-44318414D01*
X22964218Y-44007023D01*
X23154341Y-43816900D01*
X26932060Y-43816900D01*
X27122182Y-44007023D01*
X26993200Y-44318414D01*
X26993200Y-44835586D01*
X27191113Y-45313391D01*
X27556809Y-45679087D01*
X28034614Y-45877000D01*
X28551786Y-45877000D01*
X29029591Y-45679087D01*
X29395287Y-45313391D01*
X29593200Y-44835586D01*
X29593200Y-44318414D01*
X32380400Y-44318414D01*
X32380400Y-44835586D01*
X32578313Y-45313391D01*
X32944009Y-45679087D01*
X33421814Y-45877000D01*
X33938986Y-45877000D01*
X34416791Y-45679087D01*
X34782487Y-45313391D01*
X34980400Y-44835586D01*
X34980400Y-44318414D01*
X34782487Y-43840609D01*
X34416791Y-43474913D01*
X33938986Y-43277000D01*
X33421814Y-43277000D01*
X32944009Y-43474913D01*
X32578313Y-43840609D01*
X32380400Y-44318414D01*
X29593200Y-44318414D01*
X29395287Y-43840609D01*
X29029591Y-43474913D01*
X28551786Y-43277000D01*
X28034614Y-43277000D01*
X27723223Y-43405982D01*
X27438221Y-43120981D01*
X27414508Y-43085492D01*
X27273927Y-42991559D01*
X27149958Y-42966900D01*
X27149957Y-42966900D01*
X27108100Y-42958574D01*
X27066243Y-42966900D01*
X23497700Y-42966900D01*
X23497700Y-41813600D01*
X23808212Y-42021078D01*
X24217900Y-42102570D01*
X24627589Y-42021078D01*
X24974907Y-41789007D01*
X25206978Y-41441688D01*
X25264904Y-41150469D01*
X31952643Y-41150469D01*
X32101629Y-41662535D01*
X32435233Y-42078607D01*
X32902667Y-42335343D01*
X32951128Y-42340538D01*
X33160300Y-42228127D01*
X33160300Y-40936000D01*
X32102875Y-40936000D01*
X31952643Y-41150469D01*
X25264904Y-41150469D01*
X25267900Y-41135412D01*
X25267900Y-40428587D01*
X25264906Y-40413531D01*
X31952643Y-40413531D01*
X32102875Y-40628000D01*
X33160300Y-40628000D01*
X33160300Y-39335873D01*
X32951128Y-39223462D01*
X32902667Y-39228657D01*
X32435233Y-39485393D01*
X32101629Y-39901465D01*
X31952643Y-40413531D01*
X25264906Y-40413531D01*
X25206978Y-40122311D01*
X24974907Y-39774993D01*
X24627588Y-39542922D01*
X24217900Y-39461430D01*
X23808211Y-39542922D01*
X23497700Y-39750399D01*
X23497700Y-35332340D01*
X24515323Y-34314718D01*
X24518716Y-34312451D01*
X24779994Y-34943232D01*
X25356668Y-35519906D01*
X26110130Y-35832000D01*
X26925670Y-35832000D01*
X27679132Y-35519906D01*
X28255806Y-34943232D01*
X28567900Y-34189770D01*
X28567900Y-33374230D01*
X28964300Y-33374230D01*
X28964300Y-34189770D01*
X29276394Y-34943232D01*
X29853068Y-35519906D01*
X30606530Y-35832000D01*
X31422070Y-35832000D01*
X32175532Y-35519906D01*
X32752206Y-34943232D01*
X33064300Y-34189770D01*
X33064300Y-33374230D01*
X32752206Y-32620768D01*
X32175532Y-32044094D01*
X31422070Y-31732000D01*
X30606530Y-31732000D01*
X29853068Y-32044094D01*
X29276394Y-32620768D01*
X28964300Y-33374230D01*
X28567900Y-33374230D01*
X28255806Y-32620768D01*
X27679132Y-32044094D01*
X26925670Y-31732000D01*
X26110130Y-31732000D01*
X25356668Y-32044094D01*
X24779994Y-32620768D01*
X24669400Y-32887766D01*
X24669400Y-18706155D01*
X25387000Y-17988555D01*
X25387001Y-23194938D01*
X25378674Y-23236800D01*
X25411659Y-23402626D01*
X25411660Y-23402627D01*
X25505593Y-23543208D01*
X25541079Y-23566919D01*
X33980000Y-32005841D01*
X33980001Y-39368203D01*
X33725933Y-39228657D01*
X33677472Y-39223462D01*
X33468300Y-39335873D01*
X33468300Y-40628000D01*
X33488300Y-40628000D01*
X33488300Y-40936000D01*
X33468300Y-40936000D01*
X33468300Y-42228127D01*
X33677472Y-42340538D01*
X33725933Y-42335343D01*
X34193367Y-42078607D01*
X34274668Y-41977208D01*
X37361800Y-45064341D01*
X37361801Y-48551238D01*
X37353474Y-48593100D01*
X37386459Y-48758926D01*
X37386460Y-48758927D01*
X37480393Y-48899508D01*
X37515879Y-48923219D01*
X39037459Y-50444800D01*
X34532532Y-50444800D01*
X34617677Y-50232066D01*
X33680400Y-49294789D01*
X32743123Y-50232066D01*
X32828268Y-50444800D01*
X29145332Y-50444800D01*
X29230477Y-50232066D01*
X28293200Y-49294789D01*
X27355923Y-50232066D01*
X27441068Y-50444800D01*
X22645332Y-50444800D01*
X22730477Y-50232066D01*
X21793200Y-49294789D01*
X20855923Y-50232066D01*
X20941068Y-50444800D01*
X17258132Y-50444800D01*
X17343277Y-50232066D01*
X16406000Y-49294789D01*
X15468723Y-50232066D01*
X15553868Y-50444800D01*
X10758132Y-50444800D01*
X10843277Y-50232066D01*
X9906000Y-49294789D01*
X9891858Y-49308931D01*
X9674069Y-49091142D01*
X9688211Y-49077000D01*
X10123789Y-49077000D01*
X11061066Y-50014277D01*
X11317040Y-49911826D01*
X11529105Y-49308297D01*
X11503730Y-48845703D01*
X14782895Y-48845703D01*
X14817933Y-49484445D01*
X14994960Y-49911826D01*
X15250934Y-50014277D01*
X16188211Y-49077000D01*
X16623789Y-49077000D01*
X17561066Y-50014277D01*
X17817040Y-49911826D01*
X18029105Y-49308297D01*
X18003730Y-48845703D01*
X20170095Y-48845703D01*
X20205133Y-49484445D01*
X20382160Y-49911826D01*
X20638134Y-50014277D01*
X21575411Y-49077000D01*
X22010989Y-49077000D01*
X22948266Y-50014277D01*
X23204240Y-49911826D01*
X23416305Y-49308297D01*
X23390930Y-48845703D01*
X26670095Y-48845703D01*
X26705133Y-49484445D01*
X26882160Y-49911826D01*
X27138134Y-50014277D01*
X28075411Y-49077000D01*
X28510989Y-49077000D01*
X29448266Y-50014277D01*
X29704240Y-49911826D01*
X29916305Y-49308297D01*
X29890930Y-48845703D01*
X32057295Y-48845703D01*
X32092333Y-49484445D01*
X32269360Y-49911826D01*
X32525334Y-50014277D01*
X33462611Y-49077000D01*
X33898189Y-49077000D01*
X34835466Y-50014277D01*
X35091440Y-49911826D01*
X35303505Y-49308297D01*
X35268467Y-48669555D01*
X35091440Y-48242174D01*
X34835466Y-48139723D01*
X33898189Y-49077000D01*
X33462611Y-49077000D01*
X32525334Y-48139723D01*
X32269360Y-48242174D01*
X32057295Y-48845703D01*
X29890930Y-48845703D01*
X29881267Y-48669555D01*
X29704240Y-48242174D01*
X29448266Y-48139723D01*
X28510989Y-49077000D01*
X28075411Y-49077000D01*
X27138134Y-48139723D01*
X26882160Y-48242174D01*
X26670095Y-48845703D01*
X23390930Y-48845703D01*
X23381267Y-48669555D01*
X23204240Y-48242174D01*
X22948266Y-48139723D01*
X22010989Y-49077000D01*
X21575411Y-49077000D01*
X20638134Y-48139723D01*
X20382160Y-48242174D01*
X20170095Y-48845703D01*
X18003730Y-48845703D01*
X17994067Y-48669555D01*
X17817040Y-48242174D01*
X17561066Y-48139723D01*
X16623789Y-49077000D01*
X16188211Y-49077000D01*
X15250934Y-48139723D01*
X14994960Y-48242174D01*
X14782895Y-48845703D01*
X11503730Y-48845703D01*
X11494067Y-48669555D01*
X11317040Y-48242174D01*
X11061066Y-48139723D01*
X10123789Y-49077000D01*
X9688211Y-49077000D01*
X8750934Y-48139723D01*
X8494960Y-48242174D01*
X8313693Y-48758053D01*
X7477574Y-47921934D01*
X8968723Y-47921934D01*
X9906000Y-48859211D01*
X10843277Y-47921934D01*
X15468723Y-47921934D01*
X16406000Y-48859211D01*
X17343277Y-47921934D01*
X20855923Y-47921934D01*
X21793200Y-48859211D01*
X22730477Y-47921934D01*
X27355923Y-47921934D01*
X28293200Y-48859211D01*
X29230477Y-47921934D01*
X32743123Y-47921934D01*
X33680400Y-48859211D01*
X34617677Y-47921934D01*
X34515226Y-47665960D01*
X33911697Y-47453895D01*
X33272955Y-47488933D01*
X32845574Y-47665960D01*
X32743123Y-47921934D01*
X29230477Y-47921934D01*
X29128026Y-47665960D01*
X28524497Y-47453895D01*
X27885755Y-47488933D01*
X27458374Y-47665960D01*
X27355923Y-47921934D01*
X22730477Y-47921934D01*
X22628026Y-47665960D01*
X22024497Y-47453895D01*
X21385755Y-47488933D01*
X20958374Y-47665960D01*
X20855923Y-47921934D01*
X17343277Y-47921934D01*
X17240826Y-47665960D01*
X16637297Y-47453895D01*
X15998555Y-47488933D01*
X15571174Y-47665960D01*
X15468723Y-47921934D01*
X10843277Y-47921934D01*
X10740826Y-47665960D01*
X10137297Y-47453895D01*
X9498555Y-47488933D01*
X9071174Y-47665960D01*
X8968723Y-47921934D01*
X7477574Y-47921934D01*
X6796400Y-47240760D01*
X6796400Y-44318414D01*
X8606000Y-44318414D01*
X8606000Y-44835586D01*
X8803913Y-45313391D01*
X9169609Y-45679087D01*
X9647414Y-45877000D01*
X10164586Y-45877000D01*
X10642391Y-45679087D01*
X11008087Y-45313391D01*
X11206000Y-44835586D01*
X11206000Y-44318414D01*
X11008087Y-43840609D01*
X10642391Y-43474913D01*
X10164586Y-43277000D01*
X9647414Y-43277000D01*
X9169609Y-43474913D01*
X8803913Y-43840609D01*
X8606000Y-44318414D01*
X6796400Y-44318414D01*
X6796400Y-41814247D01*
X6864394Y-41916007D01*
X7211712Y-42148078D01*
X7621400Y-42229570D01*
X8031089Y-42148078D01*
X8378407Y-41916007D01*
X8610478Y-41568688D01*
X8671400Y-41262412D01*
X8671400Y-40555588D01*
X9071400Y-40555588D01*
X9071400Y-41262413D01*
X9132322Y-41568689D01*
X9364394Y-41916007D01*
X9711712Y-42148078D01*
X10121400Y-42229570D01*
X10531089Y-42148078D01*
X10878407Y-41916007D01*
X11110478Y-41568688D01*
X11171400Y-41262412D01*
X11171400Y-40555587D01*
X11110478Y-40249311D01*
X10878407Y-39901993D01*
X10531088Y-39669922D01*
X10121400Y-39588430D01*
X9711711Y-39669922D01*
X9364393Y-39901993D01*
X9132322Y-40249312D01*
X9071400Y-40555588D01*
X8671400Y-40555588D01*
X8671400Y-40555587D01*
X8610478Y-40249311D01*
X8378407Y-39901993D01*
X8046400Y-39680153D01*
X8046400Y-33501230D01*
X10371400Y-33501230D01*
X10371400Y-34316770D01*
X10683494Y-35070232D01*
X11260168Y-35646906D01*
X12013630Y-35959000D01*
X12829170Y-35959000D01*
X13582632Y-35646906D01*
X14159306Y-35070232D01*
X14471400Y-34316770D01*
X14471400Y-33501230D01*
X14418795Y-33374230D01*
X14867900Y-33374230D01*
X14867900Y-34189770D01*
X15179994Y-34943232D01*
X15756668Y-35519906D01*
X16510130Y-35832000D01*
X17325670Y-35832000D01*
X18079132Y-35519906D01*
X18655806Y-34943232D01*
X18967900Y-34189770D01*
X18967900Y-33374230D01*
X18655806Y-32620768D01*
X18079132Y-32044094D01*
X17325670Y-31732000D01*
X16510130Y-31732000D01*
X15756668Y-32044094D01*
X15179994Y-32620768D01*
X14867900Y-33374230D01*
X14418795Y-33374230D01*
X14159306Y-32747768D01*
X13582632Y-32171094D01*
X12829170Y-31859000D01*
X12013630Y-31859000D01*
X11260168Y-32171094D01*
X10683494Y-32747768D01*
X10371400Y-33501230D01*
X8046400Y-33501230D01*
X8046400Y-24945040D01*
X15631341Y-17360100D01*
X15869539Y-17360100D01*
X16126818Y-17253532D01*
X16323732Y-17056618D01*
X16430300Y-16799339D01*
X16430300Y-16520861D01*
X16323732Y-16263582D01*
X16126818Y-16066668D01*
X15869539Y-15960100D01*
X15591061Y-15960100D01*
X15333782Y-16066668D01*
X15136868Y-16263582D01*
X15030300Y-16520861D01*
X15030300Y-16759059D01*
X7350479Y-24438881D01*
X7314993Y-24462592D01*
X7291282Y-24498078D01*
X7221059Y-24603174D01*
X7188074Y-24769000D01*
X7196401Y-24810862D01*
X7196400Y-39680152D01*
X6864393Y-39901993D01*
X6796400Y-40003752D01*
X6796400Y-28276257D01*
X6804726Y-28234399D01*
X6771741Y-28068573D01*
X6701518Y-27963477D01*
X6677808Y-27927992D01*
X6642323Y-27904282D01*
X2670900Y-23932860D01*
X2670900Y-17005546D01*
X2980293Y-17212276D01*
X3315739Y-17279000D01*
X3542261Y-17279000D01*
X3877707Y-17212276D01*
X4258103Y-16958103D01*
X4349892Y-16820732D01*
X5133381Y-17604222D01*
X5157092Y-17639708D01*
X5192577Y-17663418D01*
X5297673Y-17733641D01*
X5463499Y-17766626D01*
X5505357Y-17758300D01*
X12198243Y-17758300D01*
X12240100Y-17766626D01*
X12268728Y-17760932D01*
X5713660Y-24316000D01*
X5475461Y-24316000D01*
X5218182Y-24422568D01*
X5021268Y-24619482D01*
X4914700Y-24876761D01*
X4914700Y-25155239D01*
X5021268Y-25412518D01*
X5218182Y-25609432D01*
X5475461Y-25716000D01*
X5753939Y-25716000D01*
X6011218Y-25609432D01*
X6208132Y-25412518D01*
X6314700Y-25155239D01*
X6314700Y-24917040D01*
X18097841Y-13133900D01*
X18202139Y-13133900D01*
X18459418Y-13027332D01*
X18656332Y-12830418D01*
X18742144Y-12623248D01*
X22928012Y-16809117D01*
X22928012Y-16809117D01*
G37*
X22928012Y-16809117D02*
X22951723Y-16844603D01*
X23047053Y-16908300D01*
X23092304Y-16938536D01*
X23258130Y-16971521D01*
X23299988Y-16963195D01*
X23313513Y-16963195D01*
X23313513Y-17077433D01*
X23420081Y-17334712D01*
X23616995Y-17531626D01*
X23858288Y-17631572D01*
X23298181Y-18191679D01*
X23262692Y-18215392D01*
X23168760Y-18355973D01*
X23168759Y-18355974D01*
X23135774Y-18521800D01*
X23144100Y-18563657D01*
X23144101Y-32886558D01*
X16135081Y-39895579D01*
X16099592Y-39919292D01*
X16026646Y-40028465D01*
X16005659Y-40059874D01*
X15972674Y-40225700D01*
X15981000Y-40267558D01*
X15981001Y-43120925D01*
X15981000Y-43120930D01*
X15981000Y-43345931D01*
X15669609Y-43474913D01*
X15303913Y-43840609D01*
X15106000Y-44318414D01*
X15106000Y-44835586D01*
X15303913Y-45313391D01*
X15669609Y-45679087D01*
X16147414Y-45877000D01*
X16664586Y-45877000D01*
X17142391Y-45679087D01*
X17508087Y-45313391D01*
X17706000Y-44835586D01*
X17706000Y-44318414D01*
X17508087Y-43840609D01*
X17142391Y-43474913D01*
X16831000Y-43345931D01*
X16831000Y-41150469D01*
X17856243Y-41150469D01*
X18005229Y-41662535D01*
X18338833Y-42078607D01*
X18806267Y-42335343D01*
X18854728Y-42340538D01*
X19063900Y-42228127D01*
X19063900Y-40936000D01*
X19371900Y-40936000D01*
X19371900Y-42228127D01*
X19581072Y-42340538D01*
X19629533Y-42335343D01*
X20096967Y-42078607D01*
X20430571Y-41662535D01*
X20579557Y-41150469D01*
X20429325Y-40936000D01*
X19371900Y-40936000D01*
X19063900Y-40936000D01*
X18006475Y-40936000D01*
X17856243Y-41150469D01*
X16831000Y-41150469D01*
X16831000Y-40413531D01*
X17856243Y-40413531D01*
X18006475Y-40628000D01*
X19063900Y-40628000D01*
X19063900Y-39335873D01*
X19371900Y-39335873D01*
X19371900Y-40628000D01*
X20429325Y-40628000D01*
X20579557Y-40413531D01*
X20430571Y-39901465D01*
X20096967Y-39485393D01*
X19629533Y-39228657D01*
X19581072Y-39223462D01*
X19371900Y-39335873D01*
X19063900Y-39335873D01*
X18854728Y-39223462D01*
X18806267Y-39228657D01*
X18338833Y-39485393D01*
X18005229Y-39901465D01*
X17856243Y-40413531D01*
X16831000Y-40413531D01*
X16831000Y-40401740D01*
X23819400Y-33413341D01*
X23819400Y-33808559D01*
X22801779Y-34826181D01*
X22766293Y-34849892D01*
X22742582Y-34885378D01*
X22672359Y-34990474D01*
X22639374Y-35156300D01*
X22647701Y-35198162D01*
X22647700Y-40033596D01*
X22474907Y-39774993D01*
X22127588Y-39542922D01*
X21717900Y-39461430D01*
X21308211Y-39542922D01*
X20960893Y-39774993D01*
X20728822Y-40122312D01*
X20667900Y-40428588D01*
X20667900Y-41135413D01*
X20728822Y-41441689D01*
X20960894Y-41789007D01*
X21308212Y-42021078D01*
X21717900Y-42102570D01*
X22127589Y-42021078D01*
X22474907Y-41789007D01*
X22647700Y-41530404D01*
X22647700Y-43121459D01*
X22363177Y-43405982D01*
X22051786Y-43277000D01*
X21534614Y-43277000D01*
X21056809Y-43474913D01*
X20691113Y-43840609D01*
X20493200Y-44318414D01*
X20493200Y-44835586D01*
X20691113Y-45313391D01*
X21056809Y-45679087D01*
X21534614Y-45877000D01*
X22051786Y-45877000D01*
X22529591Y-45679087D01*
X22895287Y-45313391D01*
X23093200Y-44835586D01*
X23093200Y-44318414D01*
X22964218Y-44007023D01*
X23154341Y-43816900D01*
X26932060Y-43816900D01*
X27122182Y-44007023D01*
X26993200Y-44318414D01*
X26993200Y-44835586D01*
X27191113Y-45313391D01*
X27556809Y-45679087D01*
X28034614Y-45877000D01*
X28551786Y-45877000D01*
X29029591Y-45679087D01*
X29395287Y-45313391D01*
X29593200Y-44835586D01*
X29593200Y-44318414D01*
X32380400Y-44318414D01*
X32380400Y-44835586D01*
X32578313Y-45313391D01*
X32944009Y-45679087D01*
X33421814Y-45877000D01*
X33938986Y-45877000D01*
X34416791Y-45679087D01*
X34782487Y-45313391D01*
X34980400Y-44835586D01*
X34980400Y-44318414D01*
X34782487Y-43840609D01*
X34416791Y-43474913D01*
X33938986Y-43277000D01*
X33421814Y-43277000D01*
X32944009Y-43474913D01*
X32578313Y-43840609D01*
X32380400Y-44318414D01*
X29593200Y-44318414D01*
X29395287Y-43840609D01*
X29029591Y-43474913D01*
X28551786Y-43277000D01*
X28034614Y-43277000D01*
X27723223Y-43405982D01*
X27438221Y-43120981D01*
X27414508Y-43085492D01*
X27273927Y-42991559D01*
X27149958Y-42966900D01*
X27149957Y-42966900D01*
X27108100Y-42958574D01*
X27066243Y-42966900D01*
X23497700Y-42966900D01*
X23497700Y-41813600D01*
X23808212Y-42021078D01*
X24217900Y-42102570D01*
X24627589Y-42021078D01*
X24974907Y-41789007D01*
X25206978Y-41441688D01*
X25264904Y-41150469D01*
X31952643Y-41150469D01*
X32101629Y-41662535D01*
X32435233Y-42078607D01*
X32902667Y-42335343D01*
X32951128Y-42340538D01*
X33160300Y-42228127D01*
X33160300Y-40936000D01*
X32102875Y-40936000D01*
X31952643Y-41150469D01*
X25264904Y-41150469D01*
X25267900Y-41135412D01*
X25267900Y-40428587D01*
X25264906Y-40413531D01*
X31952643Y-40413531D01*
X32102875Y-40628000D01*
X33160300Y-40628000D01*
X33160300Y-39335873D01*
X32951128Y-39223462D01*
X32902667Y-39228657D01*
X32435233Y-39485393D01*
X32101629Y-39901465D01*
X31952643Y-40413531D01*
X25264906Y-40413531D01*
X25206978Y-40122311D01*
X24974907Y-39774993D01*
X24627588Y-39542922D01*
X24217900Y-39461430D01*
X23808211Y-39542922D01*
X23497700Y-39750399D01*
X23497700Y-35332340D01*
X24515323Y-34314718D01*
X24518716Y-34312451D01*
X24779994Y-34943232D01*
X25356668Y-35519906D01*
X26110130Y-35832000D01*
X26925670Y-35832000D01*
X27679132Y-35519906D01*
X28255806Y-34943232D01*
X28567900Y-34189770D01*
X28567900Y-33374230D01*
X28964300Y-33374230D01*
X28964300Y-34189770D01*
X29276394Y-34943232D01*
X29853068Y-35519906D01*
X30606530Y-35832000D01*
X31422070Y-35832000D01*
X32175532Y-35519906D01*
X32752206Y-34943232D01*
X33064300Y-34189770D01*
X33064300Y-33374230D01*
X32752206Y-32620768D01*
X32175532Y-32044094D01*
X31422070Y-31732000D01*
X30606530Y-31732000D01*
X29853068Y-32044094D01*
X29276394Y-32620768D01*
X28964300Y-33374230D01*
X28567900Y-33374230D01*
X28255806Y-32620768D01*
X27679132Y-32044094D01*
X26925670Y-31732000D01*
X26110130Y-31732000D01*
X25356668Y-32044094D01*
X24779994Y-32620768D01*
X24669400Y-32887766D01*
X24669400Y-18706155D01*
X25387000Y-17988555D01*
X25387001Y-23194938D01*
X25378674Y-23236800D01*
X25411659Y-23402626D01*
X25411660Y-23402627D01*
X25505593Y-23543208D01*
X25541079Y-23566919D01*
X33980000Y-32005841D01*
X33980001Y-39368203D01*
X33725933Y-39228657D01*
X33677472Y-39223462D01*
X33468300Y-39335873D01*
X33468300Y-40628000D01*
X33488300Y-40628000D01*
X33488300Y-40936000D01*
X33468300Y-40936000D01*
X33468300Y-42228127D01*
X33677472Y-42340538D01*
X33725933Y-42335343D01*
X34193367Y-42078607D01*
X34274668Y-41977208D01*
X37361800Y-45064341D01*
X37361801Y-48551238D01*
X37353474Y-48593100D01*
X37386459Y-48758926D01*
X37386460Y-48758927D01*
X37480393Y-48899508D01*
X37515879Y-48923219D01*
X39037459Y-50444800D01*
X34532532Y-50444800D01*
X34617677Y-50232066D01*
X33680400Y-49294789D01*
X32743123Y-50232066D01*
X32828268Y-50444800D01*
X29145332Y-50444800D01*
X29230477Y-50232066D01*
X28293200Y-49294789D01*
X27355923Y-50232066D01*
X27441068Y-50444800D01*
X22645332Y-50444800D01*
X22730477Y-50232066D01*
X21793200Y-49294789D01*
X20855923Y-50232066D01*
X20941068Y-50444800D01*
X17258132Y-50444800D01*
X17343277Y-50232066D01*
X16406000Y-49294789D01*
X15468723Y-50232066D01*
X15553868Y-50444800D01*
X10758132Y-50444800D01*
X10843277Y-50232066D01*
X9906000Y-49294789D01*
X9891858Y-49308931D01*
X9674069Y-49091142D01*
X9688211Y-49077000D01*
X10123789Y-49077000D01*
X11061066Y-50014277D01*
X11317040Y-49911826D01*
X11529105Y-49308297D01*
X11503730Y-48845703D01*
X14782895Y-48845703D01*
X14817933Y-49484445D01*
X14994960Y-49911826D01*
X15250934Y-50014277D01*
X16188211Y-49077000D01*
X16623789Y-49077000D01*
X17561066Y-50014277D01*
X17817040Y-49911826D01*
X18029105Y-49308297D01*
X18003730Y-48845703D01*
X20170095Y-48845703D01*
X20205133Y-49484445D01*
X20382160Y-49911826D01*
X20638134Y-50014277D01*
X21575411Y-49077000D01*
X22010989Y-49077000D01*
X22948266Y-50014277D01*
X23204240Y-49911826D01*
X23416305Y-49308297D01*
X23390930Y-48845703D01*
X26670095Y-48845703D01*
X26705133Y-49484445D01*
X26882160Y-49911826D01*
X27138134Y-50014277D01*
X28075411Y-49077000D01*
X28510989Y-49077000D01*
X29448266Y-50014277D01*
X29704240Y-49911826D01*
X29916305Y-49308297D01*
X29890930Y-48845703D01*
X32057295Y-48845703D01*
X32092333Y-49484445D01*
X32269360Y-49911826D01*
X32525334Y-50014277D01*
X33462611Y-49077000D01*
X33898189Y-49077000D01*
X34835466Y-50014277D01*
X35091440Y-49911826D01*
X35303505Y-49308297D01*
X35268467Y-48669555D01*
X35091440Y-48242174D01*
X34835466Y-48139723D01*
X33898189Y-49077000D01*
X33462611Y-49077000D01*
X32525334Y-48139723D01*
X32269360Y-48242174D01*
X32057295Y-48845703D01*
X29890930Y-48845703D01*
X29881267Y-48669555D01*
X29704240Y-48242174D01*
X29448266Y-48139723D01*
X28510989Y-49077000D01*
X28075411Y-49077000D01*
X27138134Y-48139723D01*
X26882160Y-48242174D01*
X26670095Y-48845703D01*
X23390930Y-48845703D01*
X23381267Y-48669555D01*
X23204240Y-48242174D01*
X22948266Y-48139723D01*
X22010989Y-49077000D01*
X21575411Y-49077000D01*
X20638134Y-48139723D01*
X20382160Y-48242174D01*
X20170095Y-48845703D01*
X18003730Y-48845703D01*
X17994067Y-48669555D01*
X17817040Y-48242174D01*
X17561066Y-48139723D01*
X16623789Y-49077000D01*
X16188211Y-49077000D01*
X15250934Y-48139723D01*
X14994960Y-48242174D01*
X14782895Y-48845703D01*
X11503730Y-48845703D01*
X11494067Y-48669555D01*
X11317040Y-48242174D01*
X11061066Y-48139723D01*
X10123789Y-49077000D01*
X9688211Y-49077000D01*
X8750934Y-48139723D01*
X8494960Y-48242174D01*
X8313693Y-48758053D01*
X7477574Y-47921934D01*
X8968723Y-47921934D01*
X9906000Y-48859211D01*
X10843277Y-47921934D01*
X15468723Y-47921934D01*
X16406000Y-48859211D01*
X17343277Y-47921934D01*
X20855923Y-47921934D01*
X21793200Y-48859211D01*
X22730477Y-47921934D01*
X27355923Y-47921934D01*
X28293200Y-48859211D01*
X29230477Y-47921934D01*
X32743123Y-47921934D01*
X33680400Y-48859211D01*
X34617677Y-47921934D01*
X34515226Y-47665960D01*
X33911697Y-47453895D01*
X33272955Y-47488933D01*
X32845574Y-47665960D01*
X32743123Y-47921934D01*
X29230477Y-47921934D01*
X29128026Y-47665960D01*
X28524497Y-47453895D01*
X27885755Y-47488933D01*
X27458374Y-47665960D01*
X27355923Y-47921934D01*
X22730477Y-47921934D01*
X22628026Y-47665960D01*
X22024497Y-47453895D01*
X21385755Y-47488933D01*
X20958374Y-47665960D01*
X20855923Y-47921934D01*
X17343277Y-47921934D01*
X17240826Y-47665960D01*
X16637297Y-47453895D01*
X15998555Y-47488933D01*
X15571174Y-47665960D01*
X15468723Y-47921934D01*
X10843277Y-47921934D01*
X10740826Y-47665960D01*
X10137297Y-47453895D01*
X9498555Y-47488933D01*
X9071174Y-47665960D01*
X8968723Y-47921934D01*
X7477574Y-47921934D01*
X6796400Y-47240760D01*
X6796400Y-44318414D01*
X8606000Y-44318414D01*
X8606000Y-44835586D01*
X8803913Y-45313391D01*
X9169609Y-45679087D01*
X9647414Y-45877000D01*
X10164586Y-45877000D01*
X10642391Y-45679087D01*
X11008087Y-45313391D01*
X11206000Y-44835586D01*
X11206000Y-44318414D01*
X11008087Y-43840609D01*
X10642391Y-43474913D01*
X10164586Y-43277000D01*
X9647414Y-43277000D01*
X9169609Y-43474913D01*
X8803913Y-43840609D01*
X8606000Y-44318414D01*
X6796400Y-44318414D01*
X6796400Y-41814247D01*
X6864394Y-41916007D01*
X7211712Y-42148078D01*
X7621400Y-42229570D01*
X8031089Y-42148078D01*
X8378407Y-41916007D01*
X8610478Y-41568688D01*
X8671400Y-41262412D01*
X8671400Y-40555588D01*
X9071400Y-40555588D01*
X9071400Y-41262413D01*
X9132322Y-41568689D01*
X9364394Y-41916007D01*
X9711712Y-42148078D01*
X10121400Y-42229570D01*
X10531089Y-42148078D01*
X10878407Y-41916007D01*
X11110478Y-41568688D01*
X11171400Y-41262412D01*
X11171400Y-40555587D01*
X11110478Y-40249311D01*
X10878407Y-39901993D01*
X10531088Y-39669922D01*
X10121400Y-39588430D01*
X9711711Y-39669922D01*
X9364393Y-39901993D01*
X9132322Y-40249312D01*
X9071400Y-40555588D01*
X8671400Y-40555588D01*
X8671400Y-40555587D01*
X8610478Y-40249311D01*
X8378407Y-39901993D01*
X8046400Y-39680153D01*
X8046400Y-33501230D01*
X10371400Y-33501230D01*
X10371400Y-34316770D01*
X10683494Y-35070232D01*
X11260168Y-35646906D01*
X12013630Y-35959000D01*
X12829170Y-35959000D01*
X13582632Y-35646906D01*
X14159306Y-35070232D01*
X14471400Y-34316770D01*
X14471400Y-33501230D01*
X14418795Y-33374230D01*
X14867900Y-33374230D01*
X14867900Y-34189770D01*
X15179994Y-34943232D01*
X15756668Y-35519906D01*
X16510130Y-35832000D01*
X17325670Y-35832000D01*
X18079132Y-35519906D01*
X18655806Y-34943232D01*
X18967900Y-34189770D01*
X18967900Y-33374230D01*
X18655806Y-32620768D01*
X18079132Y-32044094D01*
X17325670Y-31732000D01*
X16510130Y-31732000D01*
X15756668Y-32044094D01*
X15179994Y-32620768D01*
X14867900Y-33374230D01*
X14418795Y-33374230D01*
X14159306Y-32747768D01*
X13582632Y-32171094D01*
X12829170Y-31859000D01*
X12013630Y-31859000D01*
X11260168Y-32171094D01*
X10683494Y-32747768D01*
X10371400Y-33501230D01*
X8046400Y-33501230D01*
X8046400Y-24945040D01*
X15631341Y-17360100D01*
X15869539Y-17360100D01*
X16126818Y-17253532D01*
X16323732Y-17056618D01*
X16430300Y-16799339D01*
X16430300Y-16520861D01*
X16323732Y-16263582D01*
X16126818Y-16066668D01*
X15869539Y-15960100D01*
X15591061Y-15960100D01*
X15333782Y-16066668D01*
X15136868Y-16263582D01*
X15030300Y-16520861D01*
X15030300Y-16759059D01*
X7350479Y-24438881D01*
X7314993Y-24462592D01*
X7291282Y-24498078D01*
X7221059Y-24603174D01*
X7188074Y-24769000D01*
X7196401Y-24810862D01*
X7196400Y-39680152D01*
X6864393Y-39901993D01*
X6796400Y-40003752D01*
X6796400Y-28276257D01*
X6804726Y-28234399D01*
X6771741Y-28068573D01*
X6701518Y-27963477D01*
X6677808Y-27927992D01*
X6642323Y-27904282D01*
X2670900Y-23932860D01*
X2670900Y-17005546D01*
X2980293Y-17212276D01*
X3315739Y-17279000D01*
X3542261Y-17279000D01*
X3877707Y-17212276D01*
X4258103Y-16958103D01*
X4349892Y-16820732D01*
X5133381Y-17604222D01*
X5157092Y-17639708D01*
X5192577Y-17663418D01*
X5297673Y-17733641D01*
X5463499Y-17766626D01*
X5505357Y-17758300D01*
X12198243Y-17758300D01*
X12240100Y-17766626D01*
X12268728Y-17760932D01*
X5713660Y-24316000D01*
X5475461Y-24316000D01*
X5218182Y-24422568D01*
X5021268Y-24619482D01*
X4914700Y-24876761D01*
X4914700Y-25155239D01*
X5021268Y-25412518D01*
X5218182Y-25609432D01*
X5475461Y-25716000D01*
X5753939Y-25716000D01*
X6011218Y-25609432D01*
X6208132Y-25412518D01*
X6314700Y-25155239D01*
X6314700Y-24917040D01*
X18097841Y-13133900D01*
X18202139Y-13133900D01*
X18459418Y-13027332D01*
X18656332Y-12830418D01*
X18742144Y-12623248D01*
X22928012Y-16809117D01*
G36*
X15665713Y-9477851D02*
X15665713Y-9756329D01*
X15772281Y-10013608D01*
X15969195Y-10210522D01*
X16226474Y-10317090D01*
X16435855Y-10317090D01*
X16459304Y-10352184D01*
X16494792Y-10375896D01*
X17873552Y-11754656D01*
X17666382Y-11840468D01*
X17469468Y-12037382D01*
X17362900Y-12294661D01*
X17362900Y-12573139D01*
X17390321Y-12639338D01*
X17324292Y-12705367D01*
X17248332Y-12521982D01*
X17051418Y-12325068D01*
X16794139Y-12218500D01*
X16515661Y-12218500D01*
X16258382Y-12325068D01*
X16061468Y-12521982D01*
X15954900Y-12779261D01*
X15954900Y-13017459D01*
X12064060Y-16908300D01*
X7187252Y-16908300D01*
X7232477Y-16856616D01*
X7376903Y-16507910D01*
X7265889Y-16283000D01*
X6123000Y-16283000D01*
X6123000Y-16303000D01*
X5815000Y-16303000D01*
X5815000Y-16283000D01*
X5795000Y-16283000D01*
X5795000Y-15975000D01*
X5815000Y-15975000D01*
X5815000Y-15955000D01*
X6123000Y-15955000D01*
X6123000Y-15975000D01*
X7265889Y-15975000D01*
X7376903Y-15750090D01*
X7232477Y-15401384D01*
X6857854Y-14973259D01*
X6347911Y-14721085D01*
X6123002Y-14831143D01*
X6123002Y-14730896D01*
X6417707Y-14672276D01*
X6798103Y-14418103D01*
X7052276Y-14037707D01*
X7141529Y-13589000D01*
X7052276Y-13140293D01*
X7038846Y-13120194D01*
X10841953Y-9317088D01*
X15732303Y-9317088D01*
X15665713Y-9477851D01*
X15665713Y-9477851D01*
G37*
X15665713Y-9477851D02*
X15665713Y-9756329D01*
X15772281Y-10013608D01*
X15969195Y-10210522D01*
X16226474Y-10317090D01*
X16435855Y-10317090D01*
X16459304Y-10352184D01*
X16494792Y-10375896D01*
X17873552Y-11754656D01*
X17666382Y-11840468D01*
X17469468Y-12037382D01*
X17362900Y-12294661D01*
X17362900Y-12573139D01*
X17390321Y-12639338D01*
X17324292Y-12705367D01*
X17248332Y-12521982D01*
X17051418Y-12325068D01*
X16794139Y-12218500D01*
X16515661Y-12218500D01*
X16258382Y-12325068D01*
X16061468Y-12521982D01*
X15954900Y-12779261D01*
X15954900Y-13017459D01*
X12064060Y-16908300D01*
X7187252Y-16908300D01*
X7232477Y-16856616D01*
X7376903Y-16507910D01*
X7265889Y-16283000D01*
X6123000Y-16283000D01*
X6123000Y-16303000D01*
X5815000Y-16303000D01*
X5815000Y-16283000D01*
X5795000Y-16283000D01*
X5795000Y-15975000D01*
X5815000Y-15975000D01*
X5815000Y-15955000D01*
X6123000Y-15955000D01*
X6123000Y-15975000D01*
X7265889Y-15975000D01*
X7376903Y-15750090D01*
X7232477Y-15401384D01*
X6857854Y-14973259D01*
X6347911Y-14721085D01*
X6123002Y-14831143D01*
X6123002Y-14730896D01*
X6417707Y-14672276D01*
X6798103Y-14418103D01*
X7052276Y-14037707D01*
X7141529Y-13589000D01*
X7052276Y-13140293D01*
X7038846Y-13120194D01*
X10841953Y-9317088D01*
X15732303Y-9317088D01*
X15665713Y-9477851D01*
G04 #@! TD*
M02*
